<svg viewBox="0 0 820 820" width="820" height="820" xmlns="http://www.w3.org/2000/svg" font-family="'Fira Code',monospace">
<defs>
<pattern id="g2" width="22" height="22" patternUnits="userSpaceOnUse">
<path d="M 22 0 L 0 0 0 22" fill="none" stroke="#30363d" stroke-width="0.4" opacity="0.3"/>
</pattern>
<radialGradient id="glow" cx="50%" cy="50%" r="50%">
<stop offset="0%" stop-color="#58a6ff" stop-opacity="0.35"/>
<stop offset="100%" stop-color="#58a6ff" stop-opacity="0"/>
</radialGradient>
</defs>
<rect x="0" y="0" width="820" height="820" fill="#0d1117"/>
<rect x="0" y="0" width="820" height="820" fill="url(#g2)"/>
<circle cx="410.0" cy="410.0" r="230" fill="url(#glow)"/>
<line x1="410.0" y1="410.0" x2="515.0" y2="407.7" stroke="#58a6ff" stroke-width="2.60" opacity="1.00" stroke-linecap="round"/>
<line x1="515.0" y1="407.7" x2="572.1" y2="366.2" stroke="#4f9ee0" stroke-width="2.25" opacity="0.90" stroke-linecap="round"/>
<line x1="572.1" y1="366.2" x2="597.6" y2="325.1" stroke="#3fb950" stroke-width="1.90" opacity="0.80" stroke-linecap="round"/>
<line x1="597.6" y1="325.1" x2="598.6" y2="294.8" stroke="#7bc96f" stroke-width="1.55" opacity="0.70" stroke-linecap="round"/>
<line x1="598.6" y1="294.8" x2="604.3" y2="273.7" stroke="#d29922" stroke-width="1.20" opacity="0.60" stroke-linecap="round"/>
<line x1="597.6" y1="325.1" x2="627.7" y2="311.6" stroke="#7bc96f" stroke-width="1.55" opacity="0.70" stroke-linecap="round"/>
<line x1="627.7" y1="311.6" x2="648.8" y2="303.2" stroke="#d29922" stroke-width="1.20" opacity="0.60" stroke-linecap="round"/>
<line x1="572.1" y1="366.2" x2="617.2" y2="355.4" stroke="#3fb950" stroke-width="1.90" opacity="0.80" stroke-linecap="round"/>
<line x1="617.2" y1="355.4" x2="642.2" y2="340.0" stroke="#7bc96f" stroke-width="1.55" opacity="0.70" stroke-linecap="round"/>
<line x1="642.2" y1="340.0" x2="650.2" y2="323.3" stroke="#d29922" stroke-width="1.20" opacity="0.60" stroke-linecap="round"/>
<line x1="642.2" y1="340.0" x2="662.3" y2="342.4" stroke="#d29922" stroke-width="1.20" opacity="0.60" stroke-linecap="round"/>
<line x1="617.2" y1="355.4" x2="646.8" y2="359.9" stroke="#7bc96f" stroke-width="1.55" opacity="0.70" stroke-linecap="round"/>
<line x1="646.8" y1="359.9" x2="663.4" y2="351.3" stroke="#d29922" stroke-width="1.20" opacity="0.60" stroke-linecap="round"/>
<line x1="646.8" y1="359.9" x2="663.3" y2="373.1" stroke="#d29922" stroke-width="1.20" opacity="0.60" stroke-linecap="round"/>
<line x1="515.0" y1="407.7" x2="572.7" y2="443.1" stroke="#4f9ee0" stroke-width="2.25" opacity="0.90" stroke-linecap="round"/>
<line x1="572.7" y1="443.1" x2="617.6" y2="451.2" stroke="#3fb950" stroke-width="1.90" opacity="0.80" stroke-linecap="round"/>
<line x1="617.6" y1="451.2" x2="646.2" y2="440.5" stroke="#7bc96f" stroke-width="1.55" opacity="0.70" stroke-linecap="round"/>
<line x1="646.2" y1="440.5" x2="665.0" y2="434.8" stroke="#d29922" stroke-width="1.20" opacity="0.60" stroke-linecap="round"/>
<line x1="617.6" y1="451.2" x2="639.7" y2="472.4" stroke="#7bc96f" stroke-width="1.55" opacity="0.70" stroke-linecap="round"/>
<line x1="639.7" y1="472.4" x2="660.5" y2="476.0" stroke="#d29922" stroke-width="1.20" opacity="0.60" stroke-linecap="round"/>
<line x1="639.7" y1="472.4" x2="645.3" y2="492.1" stroke="#d29922" stroke-width="1.20" opacity="0.60" stroke-linecap="round"/>
<line x1="572.7" y1="443.1" x2="597.1" y2="482.2" stroke="#3fb950" stroke-width="1.90" opacity="0.80" stroke-linecap="round"/>
<line x1="597.1" y1="482.2" x2="626.0" y2="497.7" stroke="#7bc96f" stroke-width="1.55" opacity="0.70" stroke-linecap="round"/>
<line x1="626.0" y1="497.7" x2="646.4" y2="494.0" stroke="#d29922" stroke-width="1.20" opacity="0.60" stroke-linecap="round"/>
<line x1="626.0" y1="497.7" x2="635.6" y2="517.2" stroke="#d29922" stroke-width="1.20" opacity="0.60" stroke-linecap="round"/>
<line x1="597.1" y1="482.2" x2="600.8" y2="511.8" stroke="#7bc96f" stroke-width="1.55" opacity="0.70" stroke-linecap="round"/>
<line x1="600.8" y1="511.8" x2="612.5" y2="526.3" stroke="#d29922" stroke-width="1.20" opacity="0.60" stroke-linecap="round"/>
<line x1="600.8" y1="511.8" x2="593.2" y2="531.1" stroke="#d29922" stroke-width="1.20" opacity="0.60" stroke-linecap="round"/>
<line x1="410.0" y1="410.0" x2="463.4" y2="500.4" stroke="#58a6ff" stroke-width="2.60" opacity="1.00" stroke-linecap="round"/>
<line x1="463.4" y1="500.4" x2="523.4" y2="544.2" stroke="#4f9ee0" stroke-width="2.25" opacity="0.90" stroke-linecap="round"/>
<line x1="523.4" y1="544.2" x2="570.4" y2="556.2" stroke="#3fb950" stroke-width="1.90" opacity="0.80" stroke-linecap="round"/>
<line x1="570.4" y1="556.2" x2="600.4" y2="550.4" stroke="#7bc96f" stroke-width="1.55" opacity="0.70" stroke-linecap="round"/>
<line x1="600.4" y1="550.4" x2="614.5" y2="534.4" stroke="#d29922" stroke-width="1.20" opacity="0.60" stroke-linecap="round"/>
<line x1="600.4" y1="550.4" x2="619.8" y2="558.4" stroke="#d29922" stroke-width="1.20" opacity="0.60" stroke-linecap="round"/>
<line x1="570.4" y1="556.2" x2="596.6" y2="577.8" stroke="#7bc96f" stroke-width="1.55" opacity="0.70" stroke-linecap="round"/>
<line x1="596.6" y1="577.8" x2="611.6" y2="597.1" stroke="#d29922" stroke-width="1.20" opacity="0.60" stroke-linecap="round"/>
<line x1="523.4" y1="544.2" x2="549.8" y2="588.5" stroke="#3fb950" stroke-width="1.90" opacity="0.80" stroke-linecap="round"/>
<line x1="549.8" y1="588.5" x2="581.5" y2="604.4" stroke="#7bc96f" stroke-width="1.55" opacity="0.70" stroke-linecap="round"/>
<line x1="581.5" y1="604.4" x2="606.0" y2="609.8" stroke="#d29922" stroke-width="1.20" opacity="0.60" stroke-linecap="round"/>
<line x1="549.8" y1="588.5" x2="546.2" y2="624.0" stroke="#7bc96f" stroke-width="1.55" opacity="0.70" stroke-linecap="round"/>
<line x1="546.2" y1="624.0" x2="545.9" y2="649.3" stroke="#d29922" stroke-width="1.20" opacity="0.60" stroke-linecap="round"/>
<line x1="463.4" y1="500.4" x2="474.0" y2="570.4" stroke="#4f9ee0" stroke-width="2.25" opacity="0.90" stroke-linecap="round"/>
<line x1="474.0" y1="570.4" x2="513.9" y2="601.5" stroke="#3fb950" stroke-width="1.90" opacity="0.80" stroke-linecap="round"/>
<line x1="513.9" y1="601.5" x2="549.2" y2="604.0" stroke="#7bc96f" stroke-width="1.55" opacity="0.70" stroke-linecap="round"/>
<line x1="549.2" y1="604.0" x2="573.4" y2="601.2" stroke="#d29922" stroke-width="1.20" opacity="0.60" stroke-linecap="round"/>
<line x1="513.9" y1="601.5" x2="528.0" y2="632.7" stroke="#7bc96f" stroke-width="1.55" opacity="0.70" stroke-linecap="round"/>
<line x1="528.0" y1="632.7" x2="547.7" y2="645.5" stroke="#d29922" stroke-width="1.20" opacity="0.60" stroke-linecap="round"/>
<line x1="528.0" y1="632.7" x2="524.8" y2="655.4" stroke="#d29922" stroke-width="1.20" opacity="0.60" stroke-linecap="round"/>
<line x1="474.0" y1="570.4" x2="451.9" y2="614.3" stroke="#3fb950" stroke-width="1.90" opacity="0.80" stroke-linecap="round"/>
<line x1="451.9" y1="614.3" x2="454.4" y2="648.7" stroke="#7bc96f" stroke-width="1.55" opacity="0.70" stroke-linecap="round"/>
<line x1="454.4" y1="648.7" x2="456.5" y2="672.5" stroke="#d29922" stroke-width="1.20" opacity="0.60" stroke-linecap="round"/>
<line x1="451.9" y1="614.3" x2="423.6" y2="628.3" stroke="#7bc96f" stroke-width="1.55" opacity="0.70" stroke-linecap="round"/>
<line x1="423.6" y1="628.3" x2="412.2" y2="645.0" stroke="#d29922" stroke-width="1.20" opacity="0.60" stroke-linecap="round"/>
<line x1="423.6" y1="628.3" x2="402.6" y2="629.5" stroke="#d29922" stroke-width="1.20" opacity="0.60" stroke-linecap="round"/>
<line x1="410.0" y1="410.0" x2="351.7" y2="497.3" stroke="#58a6ff" stroke-width="2.60" opacity="1.00" stroke-linecap="round"/>
<line x1="351.7" y1="497.3" x2="342.5" y2="563.7" stroke="#4f9ee0" stroke-width="2.25" opacity="0.90" stroke-linecap="round"/>
<line x1="342.5" y1="563.7" x2="358.7" y2="607.8" stroke="#3fb950" stroke-width="1.90" opacity="0.80" stroke-linecap="round"/>
<line x1="358.7" y1="607.8" x2="387.6" y2="624.7" stroke="#7bc96f" stroke-width="1.55" opacity="0.70" stroke-linecap="round"/>
<line x1="387.6" y1="624.7" x2="409.7" y2="623.2" stroke="#d29922" stroke-width="1.20" opacity="0.60" stroke-linecap="round"/>
<line x1="387.6" y1="624.7" x2="398.2" y2="642.9" stroke="#d29922" stroke-width="1.20" opacity="0.60" stroke-linecap="round"/>
<line x1="358.7" y1="607.8" x2="348.3" y2="637.8" stroke="#7bc96f" stroke-width="1.55" opacity="0.70" stroke-linecap="round"/>
<line x1="348.3" y1="637.8" x2="336.5" y2="653.9" stroke="#d29922" stroke-width="1.20" opacity="0.60" stroke-linecap="round"/>
<line x1="342.5" y1="563.7" x2="315.6" y2="597.3" stroke="#3fb950" stroke-width="1.90" opacity="0.80" stroke-linecap="round"/>
<line x1="315.6" y1="597.3" x2="309.1" y2="624.0" stroke="#7bc96f" stroke-width="1.55" opacity="0.70" stroke-linecap="round"/>
<line x1="309.1" y1="624.0" x2="307.8" y2="643.3" stroke="#d29922" stroke-width="1.20" opacity="0.60" stroke-linecap="round"/>
<line x1="315.6" y1="597.3" x2="290.2" y2="607.6" stroke="#7bc96f" stroke-width="1.55" opacity="0.70" stroke-linecap="round"/>
<line x1="290.2" y1="607.6" x2="272.8" y2="610.4" stroke="#d29922" stroke-width="1.20" opacity="0.60" stroke-linecap="round"/>
<line x1="351.7" y1="497.3" x2="291.6" y2="532.3" stroke="#4f9ee0" stroke-width="2.25" opacity="0.90" stroke-linecap="round"/>
<line x1="291.6" y1="532.3" x2="271.1" y2="572.4" stroke="#3fb950" stroke-width="1.90" opacity="0.80" stroke-linecap="round"/>
<line x1="271.1" y1="572.4" x2="269.8" y2="600.9" stroke="#7bc96f" stroke-width="1.55" opacity="0.70" stroke-linecap="round"/>
<line x1="269.8" y1="600.9" x2="281.1" y2="615.7" stroke="#d29922" stroke-width="1.20" opacity="0.60" stroke-linecap="round"/>
<line x1="269.8" y1="600.9" x2="257.9" y2="614.1" stroke="#d29922" stroke-width="1.20" opacity="0.60" stroke-linecap="round"/>
<line x1="271.1" y1="572.4" x2="248.1" y2="593.6" stroke="#7bc96f" stroke-width="1.55" opacity="0.70" stroke-linecap="round"/>
<line x1="248.1" y1="593.6" x2="245.9" y2="613.8" stroke="#d29922" stroke-width="1.20" opacity="0.60" stroke-linecap="round"/>
<line x1="248.1" y1="593.6" x2="227.9" y2="594.0" stroke="#d29922" stroke-width="1.20" opacity="0.60" stroke-linecap="round"/>
<line x1="291.6" y1="532.3" x2="247.3" y2="529.3" stroke="#3fb950" stroke-width="1.90" opacity="0.80" stroke-linecap="round"/>
<line x1="247.3" y1="529.3" x2="221.0" y2="544.1" stroke="#7bc96f" stroke-width="1.55" opacity="0.70" stroke-linecap="round"/>
<line x1="221.0" y1="544.1" x2="211.8" y2="560.6" stroke="#d29922" stroke-width="1.20" opacity="0.60" stroke-linecap="round"/>
<line x1="221.0" y1="544.1" x2="201.6" y2="541.5" stroke="#d29922" stroke-width="1.20" opacity="0.60" stroke-linecap="round"/>
<line x1="247.3" y1="529.3" x2="224.3" y2="510.5" stroke="#7bc96f" stroke-width="1.55" opacity="0.70" stroke-linecap="round"/>
<line x1="224.3" y1="510.5" x2="211.3" y2="493.9" stroke="#d29922" stroke-width="1.20" opacity="0.60" stroke-linecap="round"/>
<line x1="410.0" y1="410.0" x2="305.0" y2="409.4" stroke="#58a6ff" stroke-width="2.60" opacity="1.00" stroke-linecap="round"/>
<line x1="305.0" y1="409.4" x2="244.8" y2="446.4" stroke="#4f9ee0" stroke-width="2.25" opacity="0.90" stroke-linecap="round"/>
<line x1="244.8" y1="446.4" x2="225.6" y2="488.3" stroke="#3fb950" stroke-width="1.90" opacity="0.80" stroke-linecap="round"/>
<line x1="225.6" y1="488.3" x2="230.8" y2="516.5" stroke="#7bc96f" stroke-width="1.55" opacity="0.70" stroke-linecap="round"/>
<line x1="230.8" y1="516.5" x2="242.2" y2="533.1" stroke="#d29922" stroke-width="1.20" opacity="0.60" stroke-linecap="round"/>
<line x1="230.8" y1="516.5" x2="226.2" y2="536.2" stroke="#d29922" stroke-width="1.20" opacity="0.60" stroke-linecap="round"/>
<line x1="225.6" y1="488.3" x2="199.7" y2="503.2" stroke="#7bc96f" stroke-width="1.55" opacity="0.70" stroke-linecap="round"/>
<line x1="199.7" y1="503.2" x2="189.7" y2="522.0" stroke="#d29922" stroke-width="1.20" opacity="0.60" stroke-linecap="round"/>
<line x1="199.7" y1="503.2" x2="180.3" y2="502.6" stroke="#d29922" stroke-width="1.20" opacity="0.60" stroke-linecap="round"/>
<line x1="244.8" y1="446.4" x2="200.2" y2="443.5" stroke="#3fb950" stroke-width="1.90" opacity="0.80" stroke-linecap="round"/>
<line x1="200.2" y1="443.5" x2="176.1" y2="460.2" stroke="#7bc96f" stroke-width="1.55" opacity="0.70" stroke-linecap="round"/>
<line x1="176.1" y1="460.2" x2="159.7" y2="469.7" stroke="#d29922" stroke-width="1.20" opacity="0.60" stroke-linecap="round"/>
<line x1="200.2" y1="443.5" x2="177.1" y2="424.4" stroke="#7bc96f" stroke-width="1.55" opacity="0.70" stroke-linecap="round"/>
<line x1="177.1" y1="424.4" x2="158.5" y2="421.8" stroke="#d29922" stroke-width="1.20" opacity="0.60" stroke-linecap="round"/>
<line x1="177.1" y1="424.4" x2="171.4" y2="405.2" stroke="#d29922" stroke-width="1.20" opacity="0.60" stroke-linecap="round"/>
<line x1="305.0" y1="409.4" x2="243.7" y2="367.7" stroke="#4f9ee0" stroke-width="2.25" opacity="0.90" stroke-linecap="round"/>
<line x1="243.7" y1="367.7" x2="196.3" y2="370.7" stroke="#3fb950" stroke-width="1.90" opacity="0.80" stroke-linecap="round"/>
<line x1="196.3" y1="370.7" x2="168.2" y2="382.1" stroke="#7bc96f" stroke-width="1.55" opacity="0.70" stroke-linecap="round"/>
<line x1="168.2" y1="382.1" x2="151.7" y2="393.7" stroke="#d29922" stroke-width="1.20" opacity="0.60" stroke-linecap="round"/>
<line x1="196.3" y1="370.7" x2="165.2" y2="358.4" stroke="#7bc96f" stroke-width="1.55" opacity="0.70" stroke-linecap="round"/>
<line x1="165.2" y1="358.4" x2="141.5" y2="360.4" stroke="#d29922" stroke-width="1.20" opacity="0.60" stroke-linecap="round"/>
<line x1="165.2" y1="358.4" x2="151.1" y2="341.0" stroke="#d29922" stroke-width="1.20" opacity="0.60" stroke-linecap="round"/>
<line x1="243.7" y1="367.7" x2="231.4" y2="320.4" stroke="#3fb950" stroke-width="1.90" opacity="0.80" stroke-linecap="round"/>
<line x1="231.4" y1="320.4" x2="209.6" y2="294.8" stroke="#7bc96f" stroke-width="1.55" opacity="0.70" stroke-linecap="round"/>
<line x1="209.6" y1="294.8" x2="187.8" y2="288.6" stroke="#d29922" stroke-width="1.20" opacity="0.60" stroke-linecap="round"/>
<line x1="209.6" y1="294.8" x2="206.8" y2="272.5" stroke="#d29922" stroke-width="1.20" opacity="0.60" stroke-linecap="round"/>
<line x1="231.4" y1="320.4" x2="237.1" y2="286.2" stroke="#7bc96f" stroke-width="1.55" opacity="0.70" stroke-linecap="round"/>
<line x1="237.1" y1="286.2" x2="231.2" y2="264.0" stroke="#d29922" stroke-width="1.20" opacity="0.60" stroke-linecap="round"/>
<line x1="237.1" y1="286.2" x2="249.9" y2="265.1" stroke="#d29922" stroke-width="1.20" opacity="0.60" stroke-linecap="round"/>
<line x1="410.0" y1="410.0" x2="351.8" y2="322.6" stroke="#58a6ff" stroke-width="2.60" opacity="1.00" stroke-linecap="round"/>
<line x1="351.8" y1="322.6" x2="288.8" y2="285.6" stroke="#4f9ee0" stroke-width="2.25" opacity="0.90" stroke-linecap="round"/>
<line x1="288.8" y1="285.6" x2="239.0" y2="290.0" stroke="#3fb950" stroke-width="1.90" opacity="0.80" stroke-linecap="round"/>
<line x1="239.0" y1="290.0" x2="211.5" y2="308.6" stroke="#7bc96f" stroke-width="1.55" opacity="0.70" stroke-linecap="round"/>
<line x1="211.5" y1="308.6" x2="202.8" y2="328.2" stroke="#d29922" stroke-width="1.20" opacity="0.60" stroke-linecap="round"/>
<line x1="211.5" y1="308.6" x2="190.3" y2="310.3" stroke="#d29922" stroke-width="1.20" opacity="0.60" stroke-linecap="round"/>
<line x1="239.0" y1="290.0" x2="208.6" y2="279.2" stroke="#7bc96f" stroke-width="1.55" opacity="0.70" stroke-linecap="round"/>
<line x1="208.6" y1="279.2" x2="186.0" y2="284.0" stroke="#d29922" stroke-width="1.20" opacity="0.60" stroke-linecap="round"/>
<line x1="208.6" y1="279.2" x2="195.5" y2="262.8" stroke="#d29922" stroke-width="1.20" opacity="0.60" stroke-linecap="round"/>
<line x1="288.8" y1="285.6" x2="269.3" y2="241.7" stroke="#3fb950" stroke-width="1.90" opacity="0.80" stroke-linecap="round"/>
<line x1="269.3" y1="241.7" x2="243.1" y2="226.1" stroke="#7bc96f" stroke-width="1.55" opacity="0.70" stroke-linecap="round"/>
<line x1="243.1" y1="226.1" x2="223.2" y2="224.7" stroke="#d29922" stroke-width="1.20" opacity="0.60" stroke-linecap="round"/>
<line x1="243.1" y1="226.1" x2="231.2" y2="209.4" stroke="#d29922" stroke-width="1.20" opacity="0.60" stroke-linecap="round"/>
<line x1="269.3" y1="241.7" x2="277.1" y2="209.4" stroke="#7bc96f" stroke-width="1.55" opacity="0.70" stroke-linecap="round"/>
<line x1="277.1" y1="209.4" x2="272.2" y2="189.4" stroke="#d29922" stroke-width="1.20" opacity="0.60" stroke-linecap="round"/>
<line x1="277.1" y1="209.4" x2="290.6" y2="190.4" stroke="#d29922" stroke-width="1.20" opacity="0.60" stroke-linecap="round"/>
<line x1="351.8" y1="322.6" x2="343.9" y2="256.5" stroke="#4f9ee0" stroke-width="2.25" opacity="0.90" stroke-linecap="round"/>
<line x1="343.9" y1="256.5" x2="316.7" y2="224.0" stroke="#3fb950" stroke-width="1.90" opacity="0.80" stroke-linecap="round"/>
<line x1="316.7" y1="224.0" x2="288.7" y2="216.0" stroke="#7bc96f" stroke-width="1.55" opacity="0.70" stroke-linecap="round"/>
<line x1="288.7" y1="216.0" x2="268.1" y2="216.4" stroke="#d29922" stroke-width="1.20" opacity="0.60" stroke-linecap="round"/>
<line x1="316.7" y1="224.0" x2="312.3" y2="198.0" stroke="#7bc96f" stroke-width="1.55" opacity="0.70" stroke-linecap="round"/>
<line x1="312.3" y1="198.0" x2="305.6" y2="181.3" stroke="#d29922" stroke-width="1.20" opacity="0.60" stroke-linecap="round"/>
<line x1="343.9" y1="256.5" x2="365.0" y2="217.7" stroke="#3fb950" stroke-width="1.90" opacity="0.80" stroke-linecap="round"/>
<line x1="365.0" y1="217.7" x2="362.2" y2="188.6" stroke="#7bc96f" stroke-width="1.55" opacity="0.70" stroke-linecap="round"/>
<line x1="362.2" y1="188.6" x2="350.1" y2="172.9" stroke="#d29922" stroke-width="1.20" opacity="0.60" stroke-linecap="round"/>
<line x1="362.2" y1="188.6" x2="371.5" y2="172.1" stroke="#d29922" stroke-width="1.20" opacity="0.60" stroke-linecap="round"/>
<line x1="365.0" y1="217.7" x2="391.7" y2="204.9" stroke="#7bc96f" stroke-width="1.55" opacity="0.70" stroke-linecap="round"/>
<line x1="391.7" y1="204.9" x2="406.7" y2="194.2" stroke="#d29922" stroke-width="1.20" opacity="0.60" stroke-linecap="round"/>
<line x1="410.0" y1="410.0" x2="457.9" y2="316.5" stroke="#58a6ff" stroke-width="2.60" opacity="1.00" stroke-linecap="round"/>
<line x1="457.9" y1="316.5" x2="447.1" y2="242.3" stroke="#4f9ee0" stroke-width="2.25" opacity="0.90" stroke-linecap="round"/>
<line x1="447.1" y1="242.3" x2="411.9" y2="203.5" stroke="#3fb950" stroke-width="1.90" opacity="0.80" stroke-linecap="round"/>
<line x1="411.9" y1="203.5" x2="375.6" y2="196.0" stroke="#7bc96f" stroke-width="1.55" opacity="0.70" stroke-linecap="round"/>
<line x1="375.6" y1="196.0" x2="350.1" y2="198.7" stroke="#d29922" stroke-width="1.20" opacity="0.60" stroke-linecap="round"/>
<line x1="411.9" y1="203.5" x2="408.2" y2="165.9" stroke="#7bc96f" stroke-width="1.55" opacity="0.70" stroke-linecap="round"/>
<line x1="408.2" y1="165.9" x2="392.8" y2="146.9" stroke="#d29922" stroke-width="1.20" opacity="0.60" stroke-linecap="round"/>
<line x1="408.2" y1="165.9" x2="417.7" y2="141.8" stroke="#d29922" stroke-width="1.20" opacity="0.60" stroke-linecap="round"/>
<line x1="447.1" y1="242.3" x2="469.3" y2="194.4" stroke="#3fb950" stroke-width="1.90" opacity="0.80" stroke-linecap="round"/>
<line x1="469.3" y1="194.4" x2="462.7" y2="157.5" stroke="#7bc96f" stroke-width="1.55" opacity="0.70" stroke-linecap="round"/>
<line x1="462.7" y1="157.5" x2="446.9" y2="138.7" stroke="#d29922" stroke-width="1.20" opacity="0.60" stroke-linecap="round"/>
<line x1="462.7" y1="157.5" x2="468.7" y2="132.7" stroke="#d29922" stroke-width="1.20" opacity="0.60" stroke-linecap="round"/>
<line x1="469.3" y1="194.4" x2="499.3" y2="178.9" stroke="#7bc96f" stroke-width="1.55" opacity="0.70" stroke-linecap="round"/>
<line x1="499.3" y1="178.9" x2="514.6" y2="163.8" stroke="#d29922" stroke-width="1.20" opacity="0.60" stroke-linecap="round"/>
<line x1="457.9" y1="316.5" x2="518.4" y2="276.6" stroke="#4f9ee0" stroke-width="2.25" opacity="0.90" stroke-linecap="round"/>
<line x1="518.4" y1="276.6" x2="547.3" y2="233.7" stroke="#3fb950" stroke-width="1.90" opacity="0.80" stroke-linecap="round"/>
<line x1="547.3" y1="233.7" x2="553.7" y2="202.1" stroke="#7bc96f" stroke-width="1.55" opacity="0.70" stroke-linecap="round"/>
<line x1="553.7" y1="202.1" x2="545.9" y2="182.1" stroke="#d29922" stroke-width="1.20" opacity="0.60" stroke-linecap="round"/>
<line x1="553.7" y1="202.1" x2="567.9" y2="187.4" stroke="#d29922" stroke-width="1.20" opacity="0.60" stroke-linecap="round"/>
<line x1="547.3" y1="233.7" x2="575.5" y2="212.7" stroke="#7bc96f" stroke-width="1.55" opacity="0.70" stroke-linecap="round"/>
<line x1="575.5" y1="212.7" x2="594.2" y2="200.3" stroke="#d29922" stroke-width="1.20" opacity="0.60" stroke-linecap="round"/>
<line x1="518.4" y1="276.6" x2="564.2" y2="269.1" stroke="#3fb950" stroke-width="1.90" opacity="0.80" stroke-linecap="round"/>
<line x1="564.2" y1="269.1" x2="586.5" y2="246.1" stroke="#7bc96f" stroke-width="1.55" opacity="0.70" stroke-linecap="round"/>
<line x1="586.5" y1="246.1" x2="600.1" y2="229.3" stroke="#d29922" stroke-width="1.20" opacity="0.60" stroke-linecap="round"/>
<line x1="564.2" y1="269.1" x2="592.6" y2="283.2" stroke="#7bc96f" stroke-width="1.55" opacity="0.70" stroke-linecap="round"/>
<line x1="592.6" y1="283.2" x2="608.5" y2="296.9" stroke="#d29922" stroke-width="1.20" opacity="0.60" stroke-linecap="round"/>
<circle cx="515.0" cy="407.7" r="2.60" fill="#58a6ff" opacity="0.85"/>
<circle cx="572.1" cy="366.2" r="2.30" fill="#4f9ee0" opacity="0.85"/>
<circle cx="597.6" cy="325.1" r="2.00" fill="#3fb950" opacity="0.85"/>
<circle cx="598.6" cy="294.8" r="1.70" fill="#7bc96f" opacity="0.85"/>
<circle cx="627.7" cy="311.6" r="1.70" fill="#7bc96f" opacity="0.85"/>
<circle cx="617.2" cy="355.4" r="2.00" fill="#3fb950" opacity="0.85"/>
<circle cx="642.2" cy="340.0" r="1.70" fill="#7bc96f" opacity="0.85"/>
<circle cx="646.8" cy="359.9" r="1.70" fill="#7bc96f" opacity="0.85"/>
<circle cx="572.7" cy="443.1" r="2.30" fill="#4f9ee0" opacity="0.85"/>
<circle cx="617.6" cy="451.2" r="2.00" fill="#3fb950" opacity="0.85"/>
<circle cx="646.2" cy="440.5" r="1.70" fill="#7bc96f" opacity="0.85"/>
<circle cx="639.7" cy="472.4" r="1.70" fill="#7bc96f" opacity="0.85"/>
<circle cx="597.1" cy="482.2" r="2.00" fill="#3fb950" opacity="0.85"/>
<circle cx="626.0" cy="497.7" r="1.70" fill="#7bc96f" opacity="0.85"/>
<circle cx="600.8" cy="511.8" r="1.70" fill="#7bc96f" opacity="0.85"/>
<circle cx="463.4" cy="500.4" r="2.60" fill="#58a6ff" opacity="0.85"/>
<circle cx="523.4" cy="544.2" r="2.30" fill="#4f9ee0" opacity="0.85"/>
<circle cx="570.4" cy="556.2" r="2.00" fill="#3fb950" opacity="0.85"/>
<circle cx="600.4" cy="550.4" r="1.70" fill="#7bc96f" opacity="0.85"/>
<circle cx="596.6" cy="577.8" r="1.70" fill="#7bc96f" opacity="0.85"/>
<circle cx="549.8" cy="588.5" r="2.00" fill="#3fb950" opacity="0.85"/>
<circle cx="581.5" cy="604.4" r="1.70" fill="#7bc96f" opacity="0.85"/>
<circle cx="546.2" cy="624.0" r="1.70" fill="#7bc96f" opacity="0.85"/>
<circle cx="474.0" cy="570.4" r="2.30" fill="#4f9ee0" opacity="0.85"/>
<circle cx="513.9" cy="601.5" r="2.00" fill="#3fb950" opacity="0.85"/>
<circle cx="549.2" cy="604.0" r="1.70" fill="#7bc96f" opacity="0.85"/>
<circle cx="528.0" cy="632.7" r="1.70" fill="#7bc96f" opacity="0.85"/>
<circle cx="451.9" cy="614.3" r="2.00" fill="#3fb950" opacity="0.85"/>
<circle cx="454.4" cy="648.7" r="1.70" fill="#7bc96f" opacity="0.85"/>
<circle cx="423.6" cy="628.3" r="1.70" fill="#7bc96f" opacity="0.85"/>
<circle cx="351.7" cy="497.3" r="2.60" fill="#58a6ff" opacity="0.85"/>
<circle cx="342.5" cy="563.7" r="2.30" fill="#4f9ee0" opacity="0.85"/>
<circle cx="358.7" cy="607.8" r="2.00" fill="#3fb950" opacity="0.85"/>
<circle cx="387.6" cy="624.7" r="1.70" fill="#7bc96f" opacity="0.85"/>
<circle cx="348.3" cy="637.8" r="1.70" fill="#7bc96f" opacity="0.85"/>
<circle cx="315.6" cy="597.3" r="2.00" fill="#3fb950" opacity="0.85"/>
<circle cx="309.1" cy="624.0" r="1.70" fill="#7bc96f" opacity="0.85"/>
<circle cx="290.2" cy="607.6" r="1.70" fill="#7bc96f" opacity="0.85"/>
<circle cx="291.6" cy="532.3" r="2.30" fill="#4f9ee0" opacity="0.85"/>
<circle cx="271.1" cy="572.4" r="2.00" fill="#3fb950" opacity="0.85"/>
<circle cx="269.8" cy="600.9" r="1.70" fill="#7bc96f" opacity="0.85"/>
<circle cx="248.1" cy="593.6" r="1.70" fill="#7bc96f" opacity="0.85"/>
<circle cx="247.3" cy="529.3" r="2.00" fill="#3fb950" opacity="0.85"/>
<circle cx="221.0" cy="544.1" r="1.70" fill="#7bc96f" opacity="0.85"/>
<circle cx="224.3" cy="510.5" r="1.70" fill="#7bc96f" opacity="0.85"/>
<circle cx="305.0" cy="409.4" r="2.60" fill="#58a6ff" opacity="0.85"/>
<circle cx="244.8" cy="446.4" r="2.30" fill="#4f9ee0" opacity="0.85"/>
<circle cx="225.6" cy="488.3" r="2.00" fill="#3fb950" opacity="0.85"/>
<circle cx="230.8" cy="516.5" r="1.70" fill="#7bc96f" opacity="0.85"/>
<circle cx="199.7" cy="503.2" r="1.70" fill="#7bc96f" opacity="0.85"/>
<circle cx="200.2" cy="443.5" r="2.00" fill="#3fb950" opacity="0.85"/>
<circle cx="176.1" cy="460.2" r="1.70" fill="#7bc96f" opacity="0.85"/>
<circle cx="177.1" cy="424.4" r="1.70" fill="#7bc96f" opacity="0.85"/>
<circle cx="243.7" cy="367.7" r="2.30" fill="#4f9ee0" opacity="0.85"/>
<circle cx="196.3" cy="370.7" r="2.00" fill="#3fb950" opacity="0.85"/>
<circle cx="168.2" cy="382.1" r="1.70" fill="#7bc96f" opacity="0.85"/>
<circle cx="165.2" cy="358.4" r="1.70" fill="#7bc96f" opacity="0.85"/>
<circle cx="231.4" cy="320.4" r="2.00" fill="#3fb950" opacity="0.85"/>
<circle cx="209.6" cy="294.8" r="1.70" fill="#7bc96f" opacity="0.85"/>
<circle cx="237.1" cy="286.2" r="1.70" fill="#7bc96f" opacity="0.85"/>
<circle cx="351.8" cy="322.6" r="2.60" fill="#58a6ff" opacity="0.85"/>
<circle cx="288.8" cy="285.6" r="2.30" fill="#4f9ee0" opacity="0.85"/>
<circle cx="239.0" cy="290.0" r="2.00" fill="#3fb950" opacity="0.85"/>
<circle cx="211.5" cy="308.6" r="1.70" fill="#7bc96f" opacity="0.85"/>
<circle cx="208.6" cy="279.2" r="1.70" fill="#7bc96f" opacity="0.85"/>
<circle cx="269.3" cy="241.7" r="2.00" fill="#3fb950" opacity="0.85"/>
<circle cx="243.1" cy="226.1" r="1.70" fill="#7bc96f" opacity="0.85"/>
<circle cx="277.1" cy="209.4" r="1.70" fill="#7bc96f" opacity="0.85"/>
<circle cx="343.9" cy="256.5" r="2.30" fill="#4f9ee0" opacity="0.85"/>
<circle cx="316.7" cy="224.0" r="2.00" fill="#3fb950" opacity="0.85"/>
<circle cx="288.7" cy="216.0" r="1.70" fill="#7bc96f" opacity="0.85"/>
<circle cx="312.3" cy="198.0" r="1.70" fill="#7bc96f" opacity="0.85"/>
<circle cx="365.0" cy="217.7" r="2.00" fill="#3fb950" opacity="0.85"/>
<circle cx="362.2" cy="188.6" r="1.70" fill="#7bc96f" opacity="0.85"/>
<circle cx="391.7" cy="204.9" r="1.70" fill="#7bc96f" opacity="0.85"/>
<circle cx="457.9" cy="316.5" r="2.60" fill="#58a6ff" opacity="0.85"/>
<circle cx="447.1" cy="242.3" r="2.30" fill="#4f9ee0" opacity="0.85"/>
<circle cx="411.9" cy="203.5" r="2.00" fill="#3fb950" opacity="0.85"/>
<circle cx="375.6" cy="196.0" r="1.70" fill="#7bc96f" opacity="0.85"/>
<circle cx="408.2" cy="165.9" r="1.70" fill="#7bc96f" opacity="0.85"/>
<circle cx="469.3" cy="194.4" r="2.00" fill="#3fb950" opacity="0.85"/>
<circle cx="462.7" cy="157.5" r="1.70" fill="#7bc96f" opacity="0.85"/>
<circle cx="499.3" cy="178.9" r="1.70" fill="#7bc96f" opacity="0.85"/>
<circle cx="518.4" cy="276.6" r="2.30" fill="#4f9ee0" opacity="0.85"/>
<circle cx="547.3" cy="233.7" r="2.00" fill="#3fb950" opacity="0.85"/>
<circle cx="553.7" cy="202.1" r="1.70" fill="#7bc96f" opacity="0.85"/>
<circle cx="575.5" cy="212.7" r="1.70" fill="#7bc96f" opacity="0.85"/>
<circle cx="564.2" cy="269.1" r="2.00" fill="#3fb950" opacity="0.85"/>
<circle cx="586.5" cy="246.1" r="1.70" fill="#7bc96f" opacity="0.85"/>
<circle cx="592.6" cy="283.2" r="1.70" fill="#7bc96f" opacity="0.85"/>
<circle cx="604.3" cy="273.7" r="3" fill="none" stroke="#d29922" stroke-width="1" opacity="0.6"/>
<circle cx="648.8" cy="303.2" r="3" fill="none" stroke="#d29922" stroke-width="1" opacity="0.6"/>
<circle cx="650.2" cy="323.3" r="3" fill="none" stroke="#d29922" stroke-width="1" opacity="0.6"/>
<circle cx="662.3" cy="342.4" r="3" fill="none" stroke="#d29922" stroke-width="1" opacity="0.6"/>
<circle cx="663.4" cy="351.3" r="3" fill="none" stroke="#d29922" stroke-width="1" opacity="0.6"/>
<circle cx="663.3" cy="373.1" r="3" fill="none" stroke="#d29922" stroke-width="1" opacity="0.6"/>
<circle cx="665.0" cy="434.8" r="3" fill="none" stroke="#d29922" stroke-width="1" opacity="0.6"/>
<circle cx="660.5" cy="476.0" r="3" fill="none" stroke="#d29922" stroke-width="1" opacity="0.6"/>
<circle cx="645.3" cy="492.1" r="3" fill="none" stroke="#d29922" stroke-width="1" opacity="0.6"/>
<circle cx="646.4" cy="494.0" r="3" fill="none" stroke="#d29922" stroke-width="1" opacity="0.6"/>
<circle cx="635.6" cy="517.2" r="3" fill="none" stroke="#d29922" stroke-width="1" opacity="0.6"/>
<circle cx="612.5" cy="526.3" r="3" fill="none" stroke="#d29922" stroke-width="1" opacity="0.6"/>
<circle cx="593.2" cy="531.1" r="3" fill="none" stroke="#d29922" stroke-width="1" opacity="0.6"/>
<circle cx="614.5" cy="534.4" r="3" fill="none" stroke="#d29922" stroke-width="1" opacity="0.6"/>
<circle cx="619.8" cy="558.4" r="3" fill="none" stroke="#d29922" stroke-width="1" opacity="0.6"/>
<circle cx="611.6" cy="597.1" r="3" fill="none" stroke="#d29922" stroke-width="1" opacity="0.6"/>
<circle cx="606.0" cy="609.8" r="3" fill="none" stroke="#d29922" stroke-width="1" opacity="0.6"/>
<circle cx="545.9" cy="649.3" r="3" fill="none" stroke="#d29922" stroke-width="1" opacity="0.6"/>
<circle cx="573.4" cy="601.2" r="3" fill="none" stroke="#d29922" stroke-width="1" opacity="0.6"/>
<circle cx="547.7" cy="645.5" r="3" fill="none" stroke="#d29922" stroke-width="1" opacity="0.6"/>
<circle cx="524.8" cy="655.4" r="3" fill="none" stroke="#d29922" stroke-width="1" opacity="0.6"/>
<circle cx="456.5" cy="672.5" r="3" fill="none" stroke="#d29922" stroke-width="1" opacity="0.6"/>
<circle cx="412.2" cy="645.0" r="3" fill="none" stroke="#d29922" stroke-width="1" opacity="0.6"/>
<circle cx="402.6" cy="629.5" r="3" fill="none" stroke="#d29922" stroke-width="1" opacity="0.6"/>
<circle cx="409.7" cy="623.2" r="3" fill="none" stroke="#d29922" stroke-width="1" opacity="0.6"/>
<circle cx="398.2" cy="642.9" r="3" fill="none" stroke="#d29922" stroke-width="1" opacity="0.6"/>
<circle cx="336.5" cy="653.9" r="3" fill="none" stroke="#d29922" stroke-width="1" opacity="0.6"/>
<circle cx="307.8" cy="643.3" r="3" fill="none" stroke="#d29922" stroke-width="1" opacity="0.6"/>
<circle cx="272.8" cy="610.4" r="3" fill="none" stroke="#d29922" stroke-width="1" opacity="0.6"/>
<circle cx="281.1" cy="615.7" r="3" fill="none" stroke="#d29922" stroke-width="1" opacity="0.6"/>
<circle cx="257.9" cy="614.1" r="3" fill="none" stroke="#d29922" stroke-width="1" opacity="0.6"/>
<circle cx="245.9" cy="613.8" r="3" fill="none" stroke="#d29922" stroke-width="1" opacity="0.6"/>
<circle cx="227.9" cy="594.0" r="3" fill="none" stroke="#d29922" stroke-width="1" opacity="0.6"/>
<circle cx="211.8" cy="560.6" r="3" fill="none" stroke="#d29922" stroke-width="1" opacity="0.6"/>
<circle cx="201.6" cy="541.5" r="3" fill="none" stroke="#d29922" stroke-width="1" opacity="0.6"/>
<circle cx="211.3" cy="493.9" r="3" fill="none" stroke="#d29922" stroke-width="1" opacity="0.6"/>
<circle cx="242.2" cy="533.1" r="3" fill="none" stroke="#d29922" stroke-width="1" opacity="0.6"/>
<circle cx="226.2" cy="536.2" r="3" fill="none" stroke="#d29922" stroke-width="1" opacity="0.6"/>
<circle cx="189.7" cy="522.0" r="3" fill="none" stroke="#d29922" stroke-width="1" opacity="0.6"/>
<circle cx="180.3" cy="502.6" r="3" fill="none" stroke="#d29922" stroke-width="1" opacity="0.6"/>
<circle cx="159.7" cy="469.7" r="3" fill="none" stroke="#d29922" stroke-width="1" opacity="0.6"/>
<circle cx="158.5" cy="421.8" r="3" fill="none" stroke="#d29922" stroke-width="1" opacity="0.6"/>
<circle cx="171.4" cy="405.2" r="3" fill="none" stroke="#d29922" stroke-width="1" opacity="0.6"/>
<circle cx="151.7" cy="393.7" r="3" fill="none" stroke="#d29922" stroke-width="1" opacity="0.6"/>
<circle cx="141.5" cy="360.4" r="3" fill="none" stroke="#d29922" stroke-width="1" opacity="0.6"/>
<circle cx="151.1" cy="341.0" r="3" fill="none" stroke="#d29922" stroke-width="1" opacity="0.6"/>
<circle cx="187.8" cy="288.6" r="3" fill="none" stroke="#d29922" stroke-width="1" opacity="0.6"/>
<circle cx="206.8" cy="272.5" r="3" fill="none" stroke="#d29922" stroke-width="1" opacity="0.6"/>
<circle cx="231.2" cy="264.0" r="3" fill="none" stroke="#d29922" stroke-width="1" opacity="0.6"/>
<circle cx="249.9" cy="265.1" r="3" fill="none" stroke="#d29922" stroke-width="1" opacity="0.6"/>
<circle cx="202.8" cy="328.2" r="3" fill="none" stroke="#d29922" stroke-width="1" opacity="0.6"/>
<circle cx="190.3" cy="310.3" r="3" fill="none" stroke="#d29922" stroke-width="1" opacity="0.6"/>
<circle cx="186.0" cy="284.0" r="3" fill="none" stroke="#d29922" stroke-width="1" opacity="0.6"/>
<circle cx="195.5" cy="262.8" r="3" fill="none" stroke="#d29922" stroke-width="1" opacity="0.6"/>
<circle cx="223.2" cy="224.7" r="3" fill="none" stroke="#d29922" stroke-width="1" opacity="0.6"/>
<circle cx="231.2" cy="209.4" r="3" fill="none" stroke="#d29922" stroke-width="1" opacity="0.6"/>
<circle cx="272.2" cy="189.4" r="3" fill="none" stroke="#d29922" stroke-width="1" opacity="0.6"/>
<circle cx="290.6" cy="190.4" r="3" fill="none" stroke="#d29922" stroke-width="1" opacity="0.6"/>
<circle cx="268.1" cy="216.4" r="3" fill="none" stroke="#d29922" stroke-width="1" opacity="0.6"/>
<circle cx="305.6" cy="181.3" r="3" fill="none" stroke="#d29922" stroke-width="1" opacity="0.6"/>
<circle cx="350.1" cy="172.9" r="3" fill="none" stroke="#d29922" stroke-width="1" opacity="0.6"/>
<circle cx="371.5" cy="172.1" r="3" fill="none" stroke="#d29922" stroke-width="1" opacity="0.6"/>
<circle cx="406.7" cy="194.2" r="3" fill="none" stroke="#d29922" stroke-width="1" opacity="0.6"/>
<circle cx="350.1" cy="198.7" r="3" fill="none" stroke="#d29922" stroke-width="1" opacity="0.6"/>
<circle cx="392.8" cy="146.9" r="3" fill="none" stroke="#d29922" stroke-width="1" opacity="0.6"/>
<circle cx="417.7" cy="141.8" r="3" fill="none" stroke="#d29922" stroke-width="1" opacity="0.6"/>
<circle cx="446.9" cy="138.7" r="3" fill="none" stroke="#d29922" stroke-width="1" opacity="0.6"/>
<circle cx="468.7" cy="132.7" r="3" fill="none" stroke="#d29922" stroke-width="1" opacity="0.6"/>
<circle cx="514.6" cy="163.8" r="3" fill="none" stroke="#d29922" stroke-width="1" opacity="0.6"/>
<circle cx="545.9" cy="182.1" r="3" fill="none" stroke="#d29922" stroke-width="1" opacity="0.6"/>
<circle cx="567.9" cy="187.4" r="3" fill="none" stroke="#d29922" stroke-width="1" opacity="0.6"/>
<circle cx="594.2" cy="200.3" r="3" fill="none" stroke="#d29922" stroke-width="1" opacity="0.6"/>
<circle cx="600.1" cy="229.3" r="3" fill="none" stroke="#d29922" stroke-width="1" opacity="0.6"/>
<circle cx="608.5" cy="296.9" r="3" fill="none" stroke="#d29922" stroke-width="1" opacity="0.6"/>
<circle cx="410.0" cy="410.0" r="10" fill="#0d1117" stroke="#58a6ff" stroke-width="2"/>
<circle cx="410.0" cy="410.0" r="4" fill="#58a6ff"/>
<circle r="2.4" fill="#7ee787"><animateMotion dur="3.18s" begin="0.96s" repeatCount="indefinite" path="M597.1,482.2 L626.0,497.7"/></circle>
<circle r="2.4" fill="#f2cc60"><animateMotion dur="3.98s" begin="1.26s" repeatCount="indefinite" path="M513.9,601.5 L549.2,604.0"/></circle>
<circle r="2.4" fill="#79c0ff"><animateMotion dur="3.85s" begin="1.7s" repeatCount="indefinite" path="M165.2,358.4 L151.1,341.0"/></circle>
<circle r="2.4" fill="#7ee787"><animateMotion dur="2.53s" begin="1.53s" repeatCount="indefinite" path="M305.0,409.4 L244.8,446.4"/></circle>
<circle r="2.4" fill="#f2cc60"><animateMotion dur="3.11s" begin="2.04s" repeatCount="indefinite" path="M387.6,624.7 L398.2,642.9"/></circle>
<circle r="2.4" fill="#79c0ff"><animateMotion dur="2.54s" begin="2.37s" repeatCount="indefinite" path="M410.0,410.0 L305.0,409.4"/></circle>
<circle r="2.4" fill="#7ee787"><animateMotion dur="3.94s" begin="1.5s" repeatCount="indefinite" path="M271.1,572.4 L248.1,593.6"/></circle>
<text x="806" y="806" text-anchor="end" font-size="9" fill="#484f58" letter-spacing="1">// circuit_bloom.py — seed:20260723 — spokes:6 — regenerated daily</text>
</svg>