<svg viewBox="0 0 820 820" width="820" height="820" xmlns="http://www.w3.org/2000/svg" font-family="'Fira Code',monospace">
<defs>
<pattern id="g2" width="22" height="22" patternUnits="userSpaceOnUse">
<path d="M 22 0 L 0 0 0 22" fill="none" stroke="#30363d" stroke-width="0.4" opacity="0.3"/>
</pattern>
<radialGradient id="glow" cx="50%" cy="50%" r="50%">
<stop offset="0%" stop-color="#58a6ff" stop-opacity="0.35"/>
<stop offset="100%" stop-color="#58a6ff" stop-opacity="0"/>
</radialGradient>
</defs>
<rect x="0" y="0" width="820" height="820" fill="#0d1117"/>
<rect x="0" y="0" width="820" height="820" fill="url(#g2)"/>
<circle cx="410.0" cy="410.0" r="230" fill="url(#glow)"/>
<line x1="410.0" y1="410.0" x2="514.8" y2="416.5" stroke="#58a6ff" stroke-width="2.60" opacity="1.00" stroke-linecap="round"/>
<line x1="514.8" y1="416.5" x2="581.7" y2="382.3" stroke="#4f9ee0" stroke-width="2.25" opacity="0.90" stroke-linecap="round"/>
<line x1="581.7" y1="382.3" x2="606.6" y2="337.5" stroke="#3fb950" stroke-width="1.90" opacity="0.80" stroke-linecap="round"/>
<line x1="606.6" y1="337.5" x2="609.0" y2="304.2" stroke="#7bc96f" stroke-width="1.55" opacity="0.70" stroke-linecap="round"/>
<line x1="609.0" y1="304.2" x2="610.2" y2="280.8" stroke="#d29922" stroke-width="1.20" opacity="0.60" stroke-linecap="round"/>
<line x1="606.6" y1="337.5" x2="637.7" y2="319.3" stroke="#7bc96f" stroke-width="1.55" opacity="0.70" stroke-linecap="round"/>
<line x1="637.7" y1="319.3" x2="653.7" y2="299.2" stroke="#d29922" stroke-width="1.20" opacity="0.60" stroke-linecap="round"/>
<line x1="637.7" y1="319.3" x2="663.1" y2="316.8" stroke="#d29922" stroke-width="1.20" opacity="0.60" stroke-linecap="round"/>
<line x1="581.7" y1="382.3" x2="633.2" y2="387.8" stroke="#3fb950" stroke-width="1.90" opacity="0.80" stroke-linecap="round"/>
<line x1="633.2" y1="387.8" x2="664.2" y2="371.5" stroke="#7bc96f" stroke-width="1.55" opacity="0.70" stroke-linecap="round"/>
<line x1="664.2" y1="371.5" x2="682.1" y2="353.7" stroke="#d29922" stroke-width="1.20" opacity="0.60" stroke-linecap="round"/>
<line x1="633.2" y1="387.8" x2="657.6" y2="410.5" stroke="#7bc96f" stroke-width="1.55" opacity="0.70" stroke-linecap="round"/>
<line x1="657.6" y1="410.5" x2="679.4" y2="417.3" stroke="#d29922" stroke-width="1.20" opacity="0.60" stroke-linecap="round"/>
<line x1="657.6" y1="410.5" x2="664.6" y2="432.4" stroke="#d29922" stroke-width="1.20" opacity="0.60" stroke-linecap="round"/>
<line x1="514.8" y1="416.5" x2="577.6" y2="453.2" stroke="#4f9ee0" stroke-width="2.25" opacity="0.90" stroke-linecap="round"/>
<line x1="577.6" y1="453.2" x2="628.2" y2="449.0" stroke="#3fb950" stroke-width="1.90" opacity="0.80" stroke-linecap="round"/>
<line x1="628.2" y1="449.0" x2="658.7" y2="429.7" stroke="#7bc96f" stroke-width="1.55" opacity="0.70" stroke-linecap="round"/>
<line x1="658.7" y1="429.7" x2="669.6" y2="409.1" stroke="#d29922" stroke-width="1.20" opacity="0.60" stroke-linecap="round"/>
<line x1="658.7" y1="429.7" x2="684.1" y2="432.4" stroke="#d29922" stroke-width="1.20" opacity="0.60" stroke-linecap="round"/>
<line x1="628.2" y1="449.0" x2="659.8" y2="462.0" stroke="#7bc96f" stroke-width="1.55" opacity="0.70" stroke-linecap="round"/>
<line x1="659.8" y1="462.0" x2="681.9" y2="469.5" stroke="#d29922" stroke-width="1.20" opacity="0.60" stroke-linecap="round"/>
<line x1="577.6" y1="453.2" x2="595.9" y2="494.8" stroke="#3fb950" stroke-width="1.90" opacity="0.80" stroke-linecap="round"/>
<line x1="595.9" y1="494.8" x2="622.0" y2="512.3" stroke="#7bc96f" stroke-width="1.55" opacity="0.70" stroke-linecap="round"/>
<line x1="622.0" y1="512.3" x2="634.1" y2="528.5" stroke="#d29922" stroke-width="1.20" opacity="0.60" stroke-linecap="round"/>
<line x1="595.9" y1="494.8" x2="592.1" y2="527.3" stroke="#7bc96f" stroke-width="1.55" opacity="0.70" stroke-linecap="round"/>
<line x1="592.1" y1="527.3" x2="599.1" y2="549.3" stroke="#d29922" stroke-width="1.20" opacity="0.60" stroke-linecap="round"/>
<line x1="592.1" y1="527.3" x2="580.1" y2="545.8" stroke="#d29922" stroke-width="1.20" opacity="0.60" stroke-linecap="round"/>
<line x1="410.0" y1="410.0" x2="472.9" y2="494.0" stroke="#58a6ff" stroke-width="2.60" opacity="1.00" stroke-linecap="round"/>
<line x1="472.9" y1="494.0" x2="541.0" y2="521.2" stroke="#4f9ee0" stroke-width="2.25" opacity="0.90" stroke-linecap="round"/>
<line x1="541.0" y1="521.2" x2="590.3" y2="503.4" stroke="#3fb950" stroke-width="1.90" opacity="0.80" stroke-linecap="round"/>
<line x1="590.3" y1="503.4" x2="610.8" y2="474.9" stroke="#7bc96f" stroke-width="1.55" opacity="0.70" stroke-linecap="round"/>
<line x1="610.8" y1="474.9" x2="610.2" y2="451.6" stroke="#d29922" stroke-width="1.20" opacity="0.60" stroke-linecap="round"/>
<line x1="610.8" y1="474.9" x2="632.2" y2="468.8" stroke="#d29922" stroke-width="1.20" opacity="0.60" stroke-linecap="round"/>
<line x1="590.3" y1="503.4" x2="626.2" y2="513.0" stroke="#7bc96f" stroke-width="1.55" opacity="0.70" stroke-linecap="round"/>
<line x1="626.2" y1="513.0" x2="651.6" y2="507.1" stroke="#d29922" stroke-width="1.20" opacity="0.60" stroke-linecap="round"/>
<line x1="626.2" y1="513.0" x2="646.0" y2="528.9" stroke="#d29922" stroke-width="1.20" opacity="0.60" stroke-linecap="round"/>
<line x1="541.0" y1="521.2" x2="567.8" y2="563.1" stroke="#3fb950" stroke-width="1.90" opacity="0.80" stroke-linecap="round"/>
<line x1="567.8" y1="563.1" x2="597.5" y2="581.0" stroke="#7bc96f" stroke-width="1.55" opacity="0.70" stroke-linecap="round"/>
<line x1="597.5" y1="581.0" x2="621.0" y2="581.9" stroke="#d29922" stroke-width="1.20" opacity="0.60" stroke-linecap="round"/>
<line x1="597.5" y1="581.0" x2="610.0" y2="602.5" stroke="#d29922" stroke-width="1.20" opacity="0.60" stroke-linecap="round"/>
<line x1="567.8" y1="563.1" x2="574.9" y2="598.1" stroke="#7bc96f" stroke-width="1.55" opacity="0.70" stroke-linecap="round"/>
<line x1="574.9" y1="598.1" x2="573.8" y2="620.8" stroke="#d29922" stroke-width="1.20" opacity="0.60" stroke-linecap="round"/>
<line x1="472.9" y1="494.0" x2="472.8" y2="566.1" stroke="#4f9ee0" stroke-width="2.25" opacity="0.90" stroke-linecap="round"/>
<line x1="472.8" y1="566.1" x2="502.6" y2="606.1" stroke="#3fb950" stroke-width="1.90" opacity="0.80" stroke-linecap="round"/>
<line x1="502.6" y1="606.1" x2="536.0" y2="618.5" stroke="#7bc96f" stroke-width="1.55" opacity="0.70" stroke-linecap="round"/>
<line x1="536.0" y1="618.5" x2="554.2" y2="632.8" stroke="#d29922" stroke-width="1.20" opacity="0.60" stroke-linecap="round"/>
<line x1="502.6" y1="606.1" x2="505.9" y2="637.2" stroke="#7bc96f" stroke-width="1.55" opacity="0.70" stroke-linecap="round"/>
<line x1="505.9" y1="637.2" x2="509.7" y2="657.0" stroke="#d29922" stroke-width="1.20" opacity="0.60" stroke-linecap="round"/>
<line x1="472.8" y1="566.1" x2="447.2" y2="603.1" stroke="#3fb950" stroke-width="1.90" opacity="0.80" stroke-linecap="round"/>
<line x1="447.2" y1="603.1" x2="440.7" y2="634.0" stroke="#7bc96f" stroke-width="1.55" opacity="0.70" stroke-linecap="round"/>
<line x1="440.7" y1="634.0" x2="437.7" y2="656.3" stroke="#d29922" stroke-width="1.20" opacity="0.60" stroke-linecap="round"/>
<line x1="447.2" y1="603.1" x2="422.6" y2="617.4" stroke="#7bc96f" stroke-width="1.55" opacity="0.70" stroke-linecap="round"/>
<line x1="422.6" y1="617.4" x2="413.8" y2="636.0" stroke="#d29922" stroke-width="1.20" opacity="0.60" stroke-linecap="round"/>
<line x1="422.6" y1="617.4" x2="402.7" y2="614.1" stroke="#d29922" stroke-width="1.20" opacity="0.60" stroke-linecap="round"/>
<line x1="410.0" y1="410.0" x2="386.2" y2="512.3" stroke="#58a6ff" stroke-width="2.60" opacity="1.00" stroke-linecap="round"/>
<line x1="386.2" y1="512.3" x2="400.7" y2="578.5" stroke="#4f9ee0" stroke-width="2.25" opacity="0.90" stroke-linecap="round"/>
<line x1="400.7" y1="578.5" x2="431.8" y2="614.2" stroke="#3fb950" stroke-width="1.90" opacity="0.80" stroke-linecap="round"/>
<line x1="431.8" y1="614.2" x2="462.5" y2="626.3" stroke="#7bc96f" stroke-width="1.55" opacity="0.70" stroke-linecap="round"/>
<line x1="462.5" y1="626.3" x2="485.2" y2="622.0" stroke="#d29922" stroke-width="1.20" opacity="0.60" stroke-linecap="round"/>
<line x1="462.5" y1="626.3" x2="476.1" y2="645.7" stroke="#d29922" stroke-width="1.20" opacity="0.60" stroke-linecap="round"/>
<line x1="431.8" y1="614.2" x2="436.4" y2="643.4" stroke="#7bc96f" stroke-width="1.55" opacity="0.70" stroke-linecap="round"/>
<line x1="436.4" y1="643.4" x2="447.4" y2="661.2" stroke="#d29922" stroke-width="1.20" opacity="0.60" stroke-linecap="round"/>
<line x1="436.4" y1="643.4" x2="430.3" y2="662.7" stroke="#d29922" stroke-width="1.20" opacity="0.60" stroke-linecap="round"/>
<line x1="400.7" y1="578.5" x2="386.8" y2="625.0" stroke="#3fb950" stroke-width="1.90" opacity="0.80" stroke-linecap="round"/>
<line x1="386.8" y1="625.0" x2="396.3" y2="654.1" stroke="#7bc96f" stroke-width="1.55" opacity="0.70" stroke-linecap="round"/>
<line x1="396.3" y1="654.1" x2="412.0" y2="666.7" stroke="#d29922" stroke-width="1.20" opacity="0.60" stroke-linecap="round"/>
<line x1="396.3" y1="654.1" x2="390.0" y2="674.9" stroke="#d29922" stroke-width="1.20" opacity="0.60" stroke-linecap="round"/>
<line x1="386.8" y1="625.0" x2="358.2" y2="644.4" stroke="#7bc96f" stroke-width="1.55" opacity="0.70" stroke-linecap="round"/>
<line x1="358.2" y1="644.4" x2="336.5" y2="656.5" stroke="#d29922" stroke-width="1.20" opacity="0.60" stroke-linecap="round"/>
<line x1="386.2" y1="512.3" x2="333.1" y2="565.0" stroke="#4f9ee0" stroke-width="2.25" opacity="0.90" stroke-linecap="round"/>
<line x1="333.1" y1="565.0" x2="319.1" y2="613.5" stroke="#3fb950" stroke-width="1.90" opacity="0.80" stroke-linecap="round"/>
<line x1="319.1" y1="613.5" x2="329.7" y2="647.2" stroke="#7bc96f" stroke-width="1.55" opacity="0.70" stroke-linecap="round"/>
<line x1="329.7" y1="647.2" x2="337.7" y2="670.0" stroke="#d29922" stroke-width="1.20" opacity="0.60" stroke-linecap="round"/>
<line x1="319.1" y1="613.5" x2="294.9" y2="636.6" stroke="#7bc96f" stroke-width="1.55" opacity="0.70" stroke-linecap="round"/>
<line x1="294.9" y1="636.6" x2="274.8" y2="649.4" stroke="#d29922" stroke-width="1.20" opacity="0.60" stroke-linecap="round"/>
<line x1="333.1" y1="565.0" x2="284.0" y2="575.8" stroke="#3fb950" stroke-width="1.90" opacity="0.80" stroke-linecap="round"/>
<line x1="284.0" y1="575.8" x2="255.5" y2="595.4" stroke="#7bc96f" stroke-width="1.55" opacity="0.70" stroke-linecap="round"/>
<line x1="255.5" y1="595.4" x2="239.9" y2="614.0" stroke="#d29922" stroke-width="1.20" opacity="0.60" stroke-linecap="round"/>
<line x1="284.0" y1="575.8" x2="250.8" y2="570.5" stroke="#7bc96f" stroke-width="1.55" opacity="0.70" stroke-linecap="round"/>
<line x1="250.8" y1="570.5" x2="229.0" y2="573.3" stroke="#d29922" stroke-width="1.20" opacity="0.60" stroke-linecap="round"/>
<line x1="410.0" y1="410.0" x2="315.2" y2="455.1" stroke="#58a6ff" stroke-width="2.60" opacity="1.00" stroke-linecap="round"/>
<line x1="315.2" y1="455.1" x2="263.5" y2="509.1" stroke="#4f9ee0" stroke-width="2.25" opacity="0.90" stroke-linecap="round"/>
<line x1="263.5" y1="509.1" x2="245.5" y2="554.8" stroke="#3fb950" stroke-width="1.90" opacity="0.80" stroke-linecap="round"/>
<line x1="245.5" y1="554.8" x2="246.7" y2="585.7" stroke="#7bc96f" stroke-width="1.55" opacity="0.70" stroke-linecap="round"/>
<line x1="246.7" y1="585.7" x2="255.2" y2="604.4" stroke="#d29922" stroke-width="1.20" opacity="0.60" stroke-linecap="round"/>
<line x1="246.7" y1="585.7" x2="237.4" y2="604.9" stroke="#d29922" stroke-width="1.20" opacity="0.60" stroke-linecap="round"/>
<line x1="245.5" y1="554.8" x2="220.8" y2="575.9" stroke="#7bc96f" stroke-width="1.55" opacity="0.70" stroke-linecap="round"/>
<line x1="220.8" y1="575.9" x2="214.1" y2="596.0" stroke="#d29922" stroke-width="1.20" opacity="0.60" stroke-linecap="round"/>
<line x1="220.8" y1="575.9" x2="199.3" y2="578.8" stroke="#d29922" stroke-width="1.20" opacity="0.60" stroke-linecap="round"/>
<line x1="263.5" y1="509.1" x2="217.7" y2="530.3" stroke="#3fb950" stroke-width="1.90" opacity="0.80" stroke-linecap="round"/>
<line x1="217.7" y1="530.3" x2="197.7" y2="557.2" stroke="#7bc96f" stroke-width="1.55" opacity="0.70" stroke-linecap="round"/>
<line x1="197.7" y1="557.2" x2="197.9" y2="580.4" stroke="#d29922" stroke-width="1.20" opacity="0.60" stroke-linecap="round"/>
<line x1="197.7" y1="557.2" x2="174.7" y2="563.0" stroke="#d29922" stroke-width="1.20" opacity="0.60" stroke-linecap="round"/>
<line x1="217.7" y1="530.3" x2="181.5" y2="527.5" stroke="#7bc96f" stroke-width="1.55" opacity="0.70" stroke-linecap="round"/>
<line x1="181.5" y1="527.5" x2="158.6" y2="524.1" stroke="#d29922" stroke-width="1.20" opacity="0.60" stroke-linecap="round"/>
<line x1="315.2" y1="455.1" x2="243.3" y2="454.9" stroke="#4f9ee0" stroke-width="2.25" opacity="0.90" stroke-linecap="round"/>
<line x1="243.3" y1="454.9" x2="202.8" y2="485.3" stroke="#3fb950" stroke-width="1.90" opacity="0.80" stroke-linecap="round"/>
<line x1="202.8" y1="485.3" x2="189.4" y2="514.1" stroke="#7bc96f" stroke-width="1.55" opacity="0.70" stroke-linecap="round"/>
<line x1="189.4" y1="514.1" x2="195.5" y2="536.0" stroke="#d29922" stroke-width="1.20" opacity="0.60" stroke-linecap="round"/>
<line x1="189.4" y1="514.1" x2="171.7" y2="525.3" stroke="#d29922" stroke-width="1.20" opacity="0.60" stroke-linecap="round"/>
<line x1="202.8" y1="485.3" x2="170.2" y2="491.0" stroke="#7bc96f" stroke-width="1.55" opacity="0.70" stroke-linecap="round"/>
<line x1="170.2" y1="491.0" x2="153.9" y2="507.8" stroke="#d29922" stroke-width="1.20" opacity="0.60" stroke-linecap="round"/>
<line x1="170.2" y1="491.0" x2="150.9" y2="483.1" stroke="#d29922" stroke-width="1.20" opacity="0.60" stroke-linecap="round"/>
<line x1="243.3" y1="454.9" x2="203.1" y2="428.6" stroke="#3fb950" stroke-width="1.90" opacity="0.80" stroke-linecap="round"/>
<line x1="203.1" y1="428.6" x2="172.5" y2="422.2" stroke="#7bc96f" stroke-width="1.55" opacity="0.70" stroke-linecap="round"/>
<line x1="172.5" y1="422.2" x2="152.8" y2="427.1" stroke="#d29922" stroke-width="1.20" opacity="0.60" stroke-linecap="round"/>
<line x1="172.5" y1="422.2" x2="156.2" y2="411.4" stroke="#d29922" stroke-width="1.20" opacity="0.60" stroke-linecap="round"/>
<line x1="203.1" y1="428.6" x2="188.5" y2="402.5" stroke="#7bc96f" stroke-width="1.55" opacity="0.70" stroke-linecap="round"/>
<line x1="188.5" y1="402.5" x2="173.0" y2="390.6" stroke="#d29922" stroke-width="1.20" opacity="0.60" stroke-linecap="round"/>
<line x1="188.5" y1="402.5" x2="187.9" y2="383.9" stroke="#d29922" stroke-width="1.20" opacity="0.60" stroke-linecap="round"/>
<line x1="410.0" y1="410.0" x2="314.6" y2="366.1" stroke="#58a6ff" stroke-width="2.60" opacity="1.00" stroke-linecap="round"/>
<line x1="314.6" y1="366.1" x2="243.8" y2="376.4" stroke="#4f9ee0" stroke-width="2.25" opacity="0.90" stroke-linecap="round"/>
<line x1="243.8" y1="376.4" x2="207.4" y2="407.6" stroke="#3fb950" stroke-width="1.90" opacity="0.80" stroke-linecap="round"/>
<line x1="207.4" y1="407.6" x2="200.9" y2="440.1" stroke="#7bc96f" stroke-width="1.55" opacity="0.70" stroke-linecap="round"/>
<line x1="200.9" y1="440.1" x2="194.8" y2="463.1" stroke="#d29922" stroke-width="1.20" opacity="0.60" stroke-linecap="round"/>
<line x1="207.4" y1="407.6" x2="174.9" y2="408.1" stroke="#7bc96f" stroke-width="1.55" opacity="0.70" stroke-linecap="round"/>
<line x1="174.9" y1="408.1" x2="154.7" y2="415.2" stroke="#d29922" stroke-width="1.20" opacity="0.60" stroke-linecap="round"/>
<line x1="243.8" y1="376.4" x2="199.4" y2="360.0" stroke="#3fb950" stroke-width="1.90" opacity="0.80" stroke-linecap="round"/>
<line x1="199.4" y1="360.0" x2="166.5" y2="364.3" stroke="#7bc96f" stroke-width="1.55" opacity="0.70" stroke-linecap="round"/>
<line x1="166.5" y1="364.3" x2="149.7" y2="379.9" stroke="#d29922" stroke-width="1.20" opacity="0.60" stroke-linecap="round"/>
<line x1="166.5" y1="364.3" x2="147.2" y2="354.3" stroke="#d29922" stroke-width="1.20" opacity="0.60" stroke-linecap="round"/>
<line x1="199.4" y1="360.0" x2="177.7" y2="335.9" stroke="#7bc96f" stroke-width="1.55" opacity="0.70" stroke-linecap="round"/>
<line x1="177.7" y1="335.9" x2="167.8" y2="317.4" stroke="#d29922" stroke-width="1.20" opacity="0.60" stroke-linecap="round"/>
<line x1="314.6" y1="366.1" x2="267.4" y2="308.0" stroke="#4f9ee0" stroke-width="2.25" opacity="0.90" stroke-linecap="round"/>
<line x1="267.4" y1="308.0" x2="222.0" y2="295.4" stroke="#3fb950" stroke-width="1.90" opacity="0.80" stroke-linecap="round"/>
<line x1="222.0" y1="295.4" x2="192.3" y2="305.6" stroke="#7bc96f" stroke-width="1.55" opacity="0.70" stroke-linecap="round"/>
<line x1="192.3" y1="305.6" x2="173.6" y2="314.2" stroke="#d29922" stroke-width="1.20" opacity="0.60" stroke-linecap="round"/>
<line x1="222.0" y1="295.4" x2="202.2" y2="268.4" stroke="#7bc96f" stroke-width="1.55" opacity="0.70" stroke-linecap="round"/>
<line x1="202.2" y1="268.4" x2="179.8" y2="263.1" stroke="#d29922" stroke-width="1.20" opacity="0.60" stroke-linecap="round"/>
<line x1="202.2" y1="268.4" x2="203.2" y2="244.4" stroke="#d29922" stroke-width="1.20" opacity="0.60" stroke-linecap="round"/>
<line x1="267.4" y1="308.0" x2="266.7" y2="256.9" stroke="#3fb950" stroke-width="1.90" opacity="0.80" stroke-linecap="round"/>
<line x1="266.7" y1="256.9" x2="243.3" y2="230.9" stroke="#7bc96f" stroke-width="1.55" opacity="0.70" stroke-linecap="round"/>
<line x1="243.3" y1="230.9" x2="223.3" y2="217.2" stroke="#d29922" stroke-width="1.20" opacity="0.60" stroke-linecap="round"/>
<line x1="266.7" y1="256.9" x2="288.8" y2="229.3" stroke="#7bc96f" stroke-width="1.55" opacity="0.70" stroke-linecap="round"/>
<line x1="288.8" y1="229.3" x2="286.8" y2="205.8" stroke="#d29922" stroke-width="1.20" opacity="0.60" stroke-linecap="round"/>
<line x1="288.8" y1="229.3" x2="312.8" y2="223.4" stroke="#d29922" stroke-width="1.20" opacity="0.60" stroke-linecap="round"/>
<line x1="410.0" y1="410.0" x2="389.1" y2="307.1" stroke="#58a6ff" stroke-width="2.60" opacity="1.00" stroke-linecap="round"/>
<line x1="389.1" y1="307.1" x2="346.9" y2="254.4" stroke="#4f9ee0" stroke-width="2.25" opacity="0.90" stroke-linecap="round"/>
<line x1="346.9" y1="254.4" x2="302.3" y2="244.3" stroke="#3fb950" stroke-width="1.90" opacity="0.80" stroke-linecap="round"/>
<line x1="302.3" y1="244.3" x2="274.4" y2="255.3" stroke="#7bc96f" stroke-width="1.55" opacity="0.70" stroke-linecap="round"/>
<line x1="274.4" y1="255.3" x2="261.7" y2="270.2" stroke="#d29922" stroke-width="1.20" opacity="0.60" stroke-linecap="round"/>
<line x1="274.4" y1="255.3" x2="253.0" y2="253.3" stroke="#d29922" stroke-width="1.20" opacity="0.60" stroke-linecap="round"/>
<line x1="302.3" y1="244.3" x2="284.5" y2="220.0" stroke="#7bc96f" stroke-width="1.55" opacity="0.70" stroke-linecap="round"/>
<line x1="284.5" y1="220.0" x2="275.9" y2="200.3" stroke="#d29922" stroke-width="1.20" opacity="0.60" stroke-linecap="round"/>
<line x1="346.9" y1="254.4" x2="342.1" y2="210.5" stroke="#3fb950" stroke-width="1.90" opacity="0.80" stroke-linecap="round"/>
<line x1="342.1" y1="210.5" x2="320.6" y2="188.4" stroke="#7bc96f" stroke-width="1.55" opacity="0.70" stroke-linecap="round"/>
<line x1="320.6" y1="188.4" x2="308.0" y2="171.9" stroke="#d29922" stroke-width="1.20" opacity="0.60" stroke-linecap="round"/>
<line x1="342.1" y1="210.5" x2="356.2" y2="183.1" stroke="#7bc96f" stroke-width="1.55" opacity="0.70" stroke-linecap="round"/>
<line x1="356.2" y1="183.1" x2="355.4" y2="163.2" stroke="#d29922" stroke-width="1.20" opacity="0.60" stroke-linecap="round"/>
<line x1="356.2" y1="183.1" x2="373.2" y2="170.8" stroke="#d29922" stroke-width="1.20" opacity="0.60" stroke-linecap="round"/>
<line x1="389.1" y1="307.1" x2="405.5" y2="241.7" stroke="#4f9ee0" stroke-width="2.25" opacity="0.90" stroke-linecap="round"/>
<line x1="405.5" y1="241.7" x2="394.4" y2="195.8" stroke="#3fb950" stroke-width="1.90" opacity="0.80" stroke-linecap="round"/>
<line x1="394.4" y1="195.8" x2="371.8" y2="170.5" stroke="#7bc96f" stroke-width="1.55" opacity="0.70" stroke-linecap="round"/>
<line x1="371.8" y1="170.5" x2="351.9" y2="161.4" stroke="#d29922" stroke-width="1.20" opacity="0.60" stroke-linecap="round"/>
<line x1="371.8" y1="170.5" x2="367.4" y2="149.2" stroke="#d29922" stroke-width="1.20" opacity="0.60" stroke-linecap="round"/>
<line x1="394.4" y1="195.8" x2="403.0" y2="163.7" stroke="#7bc96f" stroke-width="1.55" opacity="0.70" stroke-linecap="round"/>
<line x1="403.0" y1="163.7" x2="397.5" y2="142.0" stroke="#d29922" stroke-width="1.20" opacity="0.60" stroke-linecap="round"/>
<line x1="403.0" y1="163.7" x2="418.2" y2="145.9" stroke="#d29922" stroke-width="1.20" opacity="0.60" stroke-linecap="round"/>
<line x1="405.5" y1="241.7" x2="437.7" y2="206.0" stroke="#3fb950" stroke-width="1.90" opacity="0.80" stroke-linecap="round"/>
<line x1="437.7" y1="206.0" x2="438.9" y2="172.1" stroke="#7bc96f" stroke-width="1.55" opacity="0.70" stroke-linecap="round"/>
<line x1="438.9" y1="172.1" x2="429.1" y2="153.2" stroke="#d29922" stroke-width="1.20" opacity="0.60" stroke-linecap="round"/>
<line x1="438.9" y1="172.1" x2="451.0" y2="153.2" stroke="#d29922" stroke-width="1.20" opacity="0.60" stroke-linecap="round"/>
<line x1="437.7" y1="206.0" x2="470.3" y2="198.1" stroke="#7bc96f" stroke-width="1.55" opacity="0.70" stroke-linecap="round"/>
<line x1="470.3" y1="198.1" x2="491.9" y2="195.2" stroke="#d29922" stroke-width="1.20" opacity="0.60" stroke-linecap="round"/>
<line x1="410.0" y1="410.0" x2="470.9" y2="324.5" stroke="#58a6ff" stroke-width="2.60" opacity="1.00" stroke-linecap="round"/>
<line x1="470.9" y1="324.5" x2="484.0" y2="253.9" stroke="#4f9ee0" stroke-width="2.25" opacity="0.90" stroke-linecap="round"/>
<line x1="484.0" y1="253.9" x2="466.5" y2="211.9" stroke="#3fb950" stroke-width="1.90" opacity="0.80" stroke-linecap="round"/>
<line x1="466.5" y1="211.9" x2="439.3" y2="199.1" stroke="#7bc96f" stroke-width="1.55" opacity="0.70" stroke-linecap="round"/>
<line x1="439.3" y1="199.1" x2="424.0" y2="188.0" stroke="#d29922" stroke-width="1.20" opacity="0.60" stroke-linecap="round"/>
<line x1="466.5" y1="211.9" x2="475.8" y2="183.0" stroke="#7bc96f" stroke-width="1.55" opacity="0.70" stroke-linecap="round"/>
<line x1="475.8" y1="183.0" x2="475.5" y2="164.0" stroke="#d29922" stroke-width="1.20" opacity="0.60" stroke-linecap="round"/>
<line x1="484.0" y1="253.9" x2="514.4" y2="221.0" stroke="#3fb950" stroke-width="1.90" opacity="0.80" stroke-linecap="round"/>
<line x1="514.4" y1="221.0" x2="516.4" y2="190.1" stroke="#7bc96f" stroke-width="1.55" opacity="0.70" stroke-linecap="round"/>
<line x1="516.4" y1="190.1" x2="505.1" y2="171.2" stroke="#d29922" stroke-width="1.20" opacity="0.60" stroke-linecap="round"/>
<line x1="516.4" y1="190.1" x2="527.2" y2="173.1" stroke="#d29922" stroke-width="1.20" opacity="0.60" stroke-linecap="round"/>
<line x1="514.4" y1="221.0" x2="543.3" y2="215.0" stroke="#7bc96f" stroke-width="1.55" opacity="0.70" stroke-linecap="round"/>
<line x1="543.3" y1="215.0" x2="558.2" y2="202.6" stroke="#d29922" stroke-width="1.20" opacity="0.60" stroke-linecap="round"/>
<line x1="543.3" y1="215.0" x2="563.4" y2="219.2" stroke="#d29922" stroke-width="1.20" opacity="0.60" stroke-linecap="round"/>
<line x1="470.9" y1="324.5" x2="528.6" y2="292.7" stroke="#4f9ee0" stroke-width="2.25" opacity="0.90" stroke-linecap="round"/>
<line x1="528.6" y1="292.7" x2="549.9" y2="255.6" stroke="#3fb950" stroke-width="1.90" opacity="0.80" stroke-linecap="round"/>
<line x1="549.9" y1="255.6" x2="547.7" y2="227.8" stroke="#7bc96f" stroke-width="1.55" opacity="0.70" stroke-linecap="round"/>
<line x1="547.7" y1="227.8" x2="537.4" y2="212.0" stroke="#d29922" stroke-width="1.20" opacity="0.60" stroke-linecap="round"/>
<line x1="547.7" y1="227.8" x2="555.6" y2="209.9" stroke="#d29922" stroke-width="1.20" opacity="0.60" stroke-linecap="round"/>
<line x1="549.9" y1="255.6" x2="574.6" y2="241.4" stroke="#7bc96f" stroke-width="1.55" opacity="0.70" stroke-linecap="round"/>
<line x1="574.6" y1="241.4" x2="583.7" y2="223.8" stroke="#d29922" stroke-width="1.20" opacity="0.60" stroke-linecap="round"/>
<line x1="574.6" y1="241.4" x2="594.6" y2="241.7" stroke="#d29922" stroke-width="1.20" opacity="0.60" stroke-linecap="round"/>
<line x1="528.6" y1="292.7" x2="573.7" y2="298.4" stroke="#3fb950" stroke-width="1.90" opacity="0.80" stroke-linecap="round"/>
<line x1="573.7" y1="298.4" x2="600.1" y2="281.3" stroke="#7bc96f" stroke-width="1.55" opacity="0.70" stroke-linecap="round"/>
<line x1="600.1" y1="281.3" x2="607.0" y2="262.3" stroke="#d29922" stroke-width="1.20" opacity="0.60" stroke-linecap="round"/>
<line x1="600.1" y1="281.3" x2="621.5" y2="284.4" stroke="#d29922" stroke-width="1.20" opacity="0.60" stroke-linecap="round"/>
<line x1="573.7" y1="298.4" x2="596.0" y2="318.2" stroke="#7bc96f" stroke-width="1.55" opacity="0.70" stroke-linecap="round"/>
<line x1="596.0" y1="318.2" x2="609.1" y2="334.9" stroke="#d29922" stroke-width="1.20" opacity="0.60" stroke-linecap="round"/>
<circle cx="514.8" cy="416.5" r="2.60" fill="#58a6ff" opacity="0.85"/>
<circle cx="581.7" cy="382.3" r="2.30" fill="#4f9ee0" opacity="0.85"/>
<circle cx="606.6" cy="337.5" r="2.00" fill="#3fb950" opacity="0.85"/>
<circle cx="609.0" cy="304.2" r="1.70" fill="#7bc96f" opacity="0.85"/>
<circle cx="637.7" cy="319.3" r="1.70" fill="#7bc96f" opacity="0.85"/>
<circle cx="633.2" cy="387.8" r="2.00" fill="#3fb950" opacity="0.85"/>
<circle cx="664.2" cy="371.5" r="1.70" fill="#7bc96f" opacity="0.85"/>
<circle cx="657.6" cy="410.5" r="1.70" fill="#7bc96f" opacity="0.85"/>
<circle cx="577.6" cy="453.2" r="2.30" fill="#4f9ee0" opacity="0.85"/>
<circle cx="628.2" cy="449.0" r="2.00" fill="#3fb950" opacity="0.85"/>
<circle cx="658.7" cy="429.7" r="1.70" fill="#7bc96f" opacity="0.85"/>
<circle cx="659.8" cy="462.0" r="1.70" fill="#7bc96f" opacity="0.85"/>
<circle cx="595.9" cy="494.8" r="2.00" fill="#3fb950" opacity="0.85"/>
<circle cx="622.0" cy="512.3" r="1.70" fill="#7bc96f" opacity="0.85"/>
<circle cx="592.1" cy="527.3" r="1.70" fill="#7bc96f" opacity="0.85"/>
<circle cx="472.9" cy="494.0" r="2.60" fill="#58a6ff" opacity="0.85"/>
<circle cx="541.0" cy="521.2" r="2.30" fill="#4f9ee0" opacity="0.85"/>
<circle cx="590.3" cy="503.4" r="2.00" fill="#3fb950" opacity="0.85"/>
<circle cx="610.8" cy="474.9" r="1.70" fill="#7bc96f" opacity="0.85"/>
<circle cx="626.2" cy="513.0" r="1.70" fill="#7bc96f" opacity="0.85"/>
<circle cx="567.8" cy="563.1" r="2.00" fill="#3fb950" opacity="0.85"/>
<circle cx="597.5" cy="581.0" r="1.70" fill="#7bc96f" opacity="0.85"/>
<circle cx="574.9" cy="598.1" r="1.70" fill="#7bc96f" opacity="0.85"/>
<circle cx="472.8" cy="566.1" r="2.30" fill="#4f9ee0" opacity="0.85"/>
<circle cx="502.6" cy="606.1" r="2.00" fill="#3fb950" opacity="0.85"/>
<circle cx="536.0" cy="618.5" r="1.70" fill="#7bc96f" opacity="0.85"/>
<circle cx="505.9" cy="637.2" r="1.70" fill="#7bc96f" opacity="0.85"/>
<circle cx="447.2" cy="603.1" r="2.00" fill="#3fb950" opacity="0.85"/>
<circle cx="440.7" cy="634.0" r="1.70" fill="#7bc96f" opacity="0.85"/>
<circle cx="422.6" cy="617.4" r="1.70" fill="#7bc96f" opacity="0.85"/>
<circle cx="386.2" cy="512.3" r="2.60" fill="#58a6ff" opacity="0.85"/>
<circle cx="400.7" cy="578.5" r="2.30" fill="#4f9ee0" opacity="0.85"/>
<circle cx="431.8" cy="614.2" r="2.00" fill="#3fb950" opacity="0.85"/>
<circle cx="462.5" cy="626.3" r="1.70" fill="#7bc96f" opacity="0.85"/>
<circle cx="436.4" cy="643.4" r="1.70" fill="#7bc96f" opacity="0.85"/>
<circle cx="386.8" cy="625.0" r="2.00" fill="#3fb950" opacity="0.85"/>
<circle cx="396.3" cy="654.1" r="1.70" fill="#7bc96f" opacity="0.85"/>
<circle cx="358.2" cy="644.4" r="1.70" fill="#7bc96f" opacity="0.85"/>
<circle cx="333.1" cy="565.0" r="2.30" fill="#4f9ee0" opacity="0.85"/>
<circle cx="319.1" cy="613.5" r="2.00" fill="#3fb950" opacity="0.85"/>
<circle cx="329.7" cy="647.2" r="1.70" fill="#7bc96f" opacity="0.85"/>
<circle cx="294.9" cy="636.6" r="1.70" fill="#7bc96f" opacity="0.85"/>
<circle cx="284.0" cy="575.8" r="2.00" fill="#3fb950" opacity="0.85"/>
<circle cx="255.5" cy="595.4" r="1.70" fill="#7bc96f" opacity="0.85"/>
<circle cx="250.8" cy="570.5" r="1.70" fill="#7bc96f" opacity="0.85"/>
<circle cx="315.2" cy="455.1" r="2.60" fill="#58a6ff" opacity="0.85"/>
<circle cx="263.5" cy="509.1" r="2.30" fill="#4f9ee0" opacity="0.85"/>
<circle cx="245.5" cy="554.8" r="2.00" fill="#3fb950" opacity="0.85"/>
<circle cx="246.7" cy="585.7" r="1.70" fill="#7bc96f" opacity="0.85"/>
<circle cx="220.8" cy="575.9" r="1.70" fill="#7bc96f" opacity="0.85"/>
<circle cx="217.7" cy="530.3" r="2.00" fill="#3fb950" opacity="0.85"/>
<circle cx="197.7" cy="557.2" r="1.70" fill="#7bc96f" opacity="0.85"/>
<circle cx="181.5" cy="527.5" r="1.70" fill="#7bc96f" opacity="0.85"/>
<circle cx="243.3" cy="454.9" r="2.30" fill="#4f9ee0" opacity="0.85"/>
<circle cx="202.8" cy="485.3" r="2.00" fill="#3fb950" opacity="0.85"/>
<circle cx="189.4" cy="514.1" r="1.70" fill="#7bc96f" opacity="0.85"/>
<circle cx="170.2" cy="491.0" r="1.70" fill="#7bc96f" opacity="0.85"/>
<circle cx="203.1" cy="428.6" r="2.00" fill="#3fb950" opacity="0.85"/>
<circle cx="172.5" cy="422.2" r="1.70" fill="#7bc96f" opacity="0.85"/>
<circle cx="188.5" cy="402.5" r="1.70" fill="#7bc96f" opacity="0.85"/>
<circle cx="314.6" cy="366.1" r="2.60" fill="#58a6ff" opacity="0.85"/>
<circle cx="243.8" cy="376.4" r="2.30" fill="#4f9ee0" opacity="0.85"/>
<circle cx="207.4" cy="407.6" r="2.00" fill="#3fb950" opacity="0.85"/>
<circle cx="200.9" cy="440.1" r="1.70" fill="#7bc96f" opacity="0.85"/>
<circle cx="174.9" cy="408.1" r="1.70" fill="#7bc96f" opacity="0.85"/>
<circle cx="199.4" cy="360.0" r="2.00" fill="#3fb950" opacity="0.85"/>
<circle cx="166.5" cy="364.3" r="1.70" fill="#7bc96f" opacity="0.85"/>
<circle cx="177.7" cy="335.9" r="1.70" fill="#7bc96f" opacity="0.85"/>
<circle cx="267.4" cy="308.0" r="2.30" fill="#4f9ee0" opacity="0.85"/>
<circle cx="222.0" cy="295.4" r="2.00" fill="#3fb950" opacity="0.85"/>
<circle cx="192.3" cy="305.6" r="1.70" fill="#7bc96f" opacity="0.85"/>
<circle cx="202.2" cy="268.4" r="1.70" fill="#7bc96f" opacity="0.85"/>
<circle cx="266.7" cy="256.9" r="2.00" fill="#3fb950" opacity="0.85"/>
<circle cx="243.3" cy="230.9" r="1.70" fill="#7bc96f" opacity="0.85"/>
<circle cx="288.8" cy="229.3" r="1.70" fill="#7bc96f" opacity="0.85"/>
<circle cx="389.1" cy="307.1" r="2.60" fill="#58a6ff" opacity="0.85"/>
<circle cx="346.9" cy="254.4" r="2.30" fill="#4f9ee0" opacity="0.85"/>
<circle cx="302.3" cy="244.3" r="2.00" fill="#3fb950" opacity="0.85"/>
<circle cx="274.4" cy="255.3" r="1.70" fill="#7bc96f" opacity="0.85"/>
<circle cx="284.5" cy="220.0" r="1.70" fill="#7bc96f" opacity="0.85"/>
<circle cx="342.1" cy="210.5" r="2.00" fill="#3fb950" opacity="0.85"/>
<circle cx="320.6" cy="188.4" r="1.70" fill="#7bc96f" opacity="0.85"/>
<circle cx="356.2" cy="183.1" r="1.70" fill="#7bc96f" opacity="0.85"/>
<circle cx="405.5" cy="241.7" r="2.30" fill="#4f9ee0" opacity="0.85"/>
<circle cx="394.4" cy="195.8" r="2.00" fill="#3fb950" opacity="0.85"/>
<circle cx="371.8" cy="170.5" r="1.70" fill="#7bc96f" opacity="0.85"/>
<circle cx="403.0" cy="163.7" r="1.70" fill="#7bc96f" opacity="0.85"/>
<circle cx="437.7" cy="206.0" r="2.00" fill="#3fb950" opacity="0.85"/>
<circle cx="438.9" cy="172.1" r="1.70" fill="#7bc96f" opacity="0.85"/>
<circle cx="470.3" cy="198.1" r="1.70" fill="#7bc96f" opacity="0.85"/>
<circle cx="470.9" cy="324.5" r="2.60" fill="#58a6ff" opacity="0.85"/>
<circle cx="484.0" cy="253.9" r="2.30" fill="#4f9ee0" opacity="0.85"/>
<circle cx="466.5" cy="211.9" r="2.00" fill="#3fb950" opacity="0.85"/>
<circle cx="439.3" cy="199.1" r="1.70" fill="#7bc96f" opacity="0.85"/>
<circle cx="475.8" cy="183.0" r="1.70" fill="#7bc96f" opacity="0.85"/>
<circle cx="514.4" cy="221.0" r="2.00" fill="#3fb950" opacity="0.85"/>
<circle cx="516.4" cy="190.1" r="1.70" fill="#7bc96f" opacity="0.85"/>
<circle cx="543.3" cy="215.0" r="1.70" fill="#7bc96f" opacity="0.85"/>
<circle cx="528.6" cy="292.7" r="2.30" fill="#4f9ee0" opacity="0.85"/>
<circle cx="549.9" cy="255.6" r="2.00" fill="#3fb950" opacity="0.85"/>
<circle cx="547.7" cy="227.8" r="1.70" fill="#7bc96f" opacity="0.85"/>
<circle cx="574.6" cy="241.4" r="1.70" fill="#7bc96f" opacity="0.85"/>
<circle cx="573.7" cy="298.4" r="2.00" fill="#3fb950" opacity="0.85"/>
<circle cx="600.1" cy="281.3" r="1.70" fill="#7bc96f" opacity="0.85"/>
<circle cx="596.0" cy="318.2" r="1.70" fill="#7bc96f" opacity="0.85"/>
<circle cx="610.2" cy="280.8" r="3" fill="none" stroke="#d29922" stroke-width="1" opacity="0.6"/>
<circle cx="653.7" cy="299.2" r="3" fill="none" stroke="#d29922" stroke-width="1" opacity="0.6"/>
<circle cx="663.1" cy="316.8" r="3" fill="none" stroke="#d29922" stroke-width="1" opacity="0.6"/>
<circle cx="682.1" cy="353.7" r="3" fill="none" stroke="#d29922" stroke-width="1" opacity="0.6"/>
<circle cx="679.4" cy="417.3" r="3" fill="none" stroke="#d29922" stroke-width="1" opacity="0.6"/>
<circle cx="664.6" cy="432.4" r="3" fill="none" stroke="#d29922" stroke-width="1" opacity="0.6"/>
<circle cx="669.6" cy="409.1" r="3" fill="none" stroke="#d29922" stroke-width="1" opacity="0.6"/>
<circle cx="684.1" cy="432.4" r="3" fill="none" stroke="#d29922" stroke-width="1" opacity="0.6"/>
<circle cx="681.9" cy="469.5" r="3" fill="none" stroke="#d29922" stroke-width="1" opacity="0.6"/>
<circle cx="634.1" cy="528.5" r="3" fill="none" stroke="#d29922" stroke-width="1" opacity="0.6"/>
<circle cx="599.1" cy="549.3" r="3" fill="none" stroke="#d29922" stroke-width="1" opacity="0.6"/>
<circle cx="580.1" cy="545.8" r="3" fill="none" stroke="#d29922" stroke-width="1" opacity="0.6"/>
<circle cx="610.2" cy="451.6" r="3" fill="none" stroke="#d29922" stroke-width="1" opacity="0.6"/>
<circle cx="632.2" cy="468.8" r="3" fill="none" stroke="#d29922" stroke-width="1" opacity="0.6"/>
<circle cx="651.6" cy="507.1" r="3" fill="none" stroke="#d29922" stroke-width="1" opacity="0.6"/>
<circle cx="646.0" cy="528.9" r="3" fill="none" stroke="#d29922" stroke-width="1" opacity="0.6"/>
<circle cx="621.0" cy="581.9" r="3" fill="none" stroke="#d29922" stroke-width="1" opacity="0.6"/>
<circle cx="610.0" cy="602.5" r="3" fill="none" stroke="#d29922" stroke-width="1" opacity="0.6"/>
<circle cx="573.8" cy="620.8" r="3" fill="none" stroke="#d29922" stroke-width="1" opacity="0.6"/>
<circle cx="554.2" cy="632.8" r="3" fill="none" stroke="#d29922" stroke-width="1" opacity="0.6"/>
<circle cx="509.7" cy="657.0" r="3" fill="none" stroke="#d29922" stroke-width="1" opacity="0.6"/>
<circle cx="437.7" cy="656.3" r="3" fill="none" stroke="#d29922" stroke-width="1" opacity="0.6"/>
<circle cx="413.8" cy="636.0" r="3" fill="none" stroke="#d29922" stroke-width="1" opacity="0.6"/>
<circle cx="402.7" cy="614.1" r="3" fill="none" stroke="#d29922" stroke-width="1" opacity="0.6"/>
<circle cx="485.2" cy="622.0" r="3" fill="none" stroke="#d29922" stroke-width="1" opacity="0.6"/>
<circle cx="476.1" cy="645.7" r="3" fill="none" stroke="#d29922" stroke-width="1" opacity="0.6"/>
<circle cx="447.4" cy="661.2" r="3" fill="none" stroke="#d29922" stroke-width="1" opacity="0.6"/>
<circle cx="430.3" cy="662.7" r="3" fill="none" stroke="#d29922" stroke-width="1" opacity="0.6"/>
<circle cx="412.0" cy="666.7" r="3" fill="none" stroke="#d29922" stroke-width="1" opacity="0.6"/>
<circle cx="390.0" cy="674.9" r="3" fill="none" stroke="#d29922" stroke-width="1" opacity="0.6"/>
<circle cx="336.5" cy="656.5" r="3" fill="none" stroke="#d29922" stroke-width="1" opacity="0.6"/>
<circle cx="337.7" cy="670.0" r="3" fill="none" stroke="#d29922" stroke-width="1" opacity="0.6"/>
<circle cx="274.8" cy="649.4" r="3" fill="none" stroke="#d29922" stroke-width="1" opacity="0.6"/>
<circle cx="239.9" cy="614.0" r="3" fill="none" stroke="#d29922" stroke-width="1" opacity="0.6"/>
<circle cx="229.0" cy="573.3" r="3" fill="none" stroke="#d29922" stroke-width="1" opacity="0.6"/>
<circle cx="255.2" cy="604.4" r="3" fill="none" stroke="#d29922" stroke-width="1" opacity="0.6"/>
<circle cx="237.4" cy="604.9" r="3" fill="none" stroke="#d29922" stroke-width="1" opacity="0.6"/>
<circle cx="214.1" cy="596.0" r="3" fill="none" stroke="#d29922" stroke-width="1" opacity="0.6"/>
<circle cx="199.3" cy="578.8" r="3" fill="none" stroke="#d29922" stroke-width="1" opacity="0.6"/>
<circle cx="197.9" cy="580.4" r="3" fill="none" stroke="#d29922" stroke-width="1" opacity="0.6"/>
<circle cx="174.7" cy="563.0" r="3" fill="none" stroke="#d29922" stroke-width="1" opacity="0.6"/>
<circle cx="158.6" cy="524.1" r="3" fill="none" stroke="#d29922" stroke-width="1" opacity="0.6"/>
<circle cx="195.5" cy="536.0" r="3" fill="none" stroke="#d29922" stroke-width="1" opacity="0.6"/>
<circle cx="171.7" cy="525.3" r="3" fill="none" stroke="#d29922" stroke-width="1" opacity="0.6"/>
<circle cx="153.9" cy="507.8" r="3" fill="none" stroke="#d29922" stroke-width="1" opacity="0.6"/>
<circle cx="150.9" cy="483.1" r="3" fill="none" stroke="#d29922" stroke-width="1" opacity="0.6"/>
<circle cx="152.8" cy="427.1" r="3" fill="none" stroke="#d29922" stroke-width="1" opacity="0.6"/>
<circle cx="156.2" cy="411.4" r="3" fill="none" stroke="#d29922" stroke-width="1" opacity="0.6"/>
<circle cx="173.0" cy="390.6" r="3" fill="none" stroke="#d29922" stroke-width="1" opacity="0.6"/>
<circle cx="187.9" cy="383.9" r="3" fill="none" stroke="#d29922" stroke-width="1" opacity="0.6"/>
<circle cx="194.8" cy="463.1" r="3" fill="none" stroke="#d29922" stroke-width="1" opacity="0.6"/>
<circle cx="154.7" cy="415.2" r="3" fill="none" stroke="#d29922" stroke-width="1" opacity="0.6"/>
<circle cx="149.7" cy="379.9" r="3" fill="none" stroke="#d29922" stroke-width="1" opacity="0.6"/>
<circle cx="147.2" cy="354.3" r="3" fill="none" stroke="#d29922" stroke-width="1" opacity="0.6"/>
<circle cx="167.8" cy="317.4" r="3" fill="none" stroke="#d29922" stroke-width="1" opacity="0.6"/>
<circle cx="173.6" cy="314.2" r="3" fill="none" stroke="#d29922" stroke-width="1" opacity="0.6"/>
<circle cx="179.8" cy="263.1" r="3" fill="none" stroke="#d29922" stroke-width="1" opacity="0.6"/>
<circle cx="203.2" cy="244.4" r="3" fill="none" stroke="#d29922" stroke-width="1" opacity="0.6"/>
<circle cx="223.3" cy="217.2" r="3" fill="none" stroke="#d29922" stroke-width="1" opacity="0.6"/>
<circle cx="286.8" cy="205.8" r="3" fill="none" stroke="#d29922" stroke-width="1" opacity="0.6"/>
<circle cx="312.8" cy="223.4" r="3" fill="none" stroke="#d29922" stroke-width="1" opacity="0.6"/>
<circle cx="261.7" cy="270.2" r="3" fill="none" stroke="#d29922" stroke-width="1" opacity="0.6"/>
<circle cx="253.0" cy="253.3" r="3" fill="none" stroke="#d29922" stroke-width="1" opacity="0.6"/>
<circle cx="275.9" cy="200.3" r="3" fill="none" stroke="#d29922" stroke-width="1" opacity="0.6"/>
<circle cx="308.0" cy="171.9" r="3" fill="none" stroke="#d29922" stroke-width="1" opacity="0.6"/>
<circle cx="355.4" cy="163.2" r="3" fill="none" stroke="#d29922" stroke-width="1" opacity="0.6"/>
<circle cx="373.2" cy="170.8" r="3" fill="none" stroke="#d29922" stroke-width="1" opacity="0.6"/>
<circle cx="351.9" cy="161.4" r="3" fill="none" stroke="#d29922" stroke-width="1" opacity="0.6"/>
<circle cx="367.4" cy="149.2" r="3" fill="none" stroke="#d29922" stroke-width="1" opacity="0.6"/>
<circle cx="397.5" cy="142.0" r="3" fill="none" stroke="#d29922" stroke-width="1" opacity="0.6"/>
<circle cx="418.2" cy="145.9" r="3" fill="none" stroke="#d29922" stroke-width="1" opacity="0.6"/>
<circle cx="429.1" cy="153.2" r="3" fill="none" stroke="#d29922" stroke-width="1" opacity="0.6"/>
<circle cx="451.0" cy="153.2" r="3" fill="none" stroke="#d29922" stroke-width="1" opacity="0.6"/>
<circle cx="491.9" cy="195.2" r="3" fill="none" stroke="#d29922" stroke-width="1" opacity="0.6"/>
<circle cx="424.0" cy="188.0" r="3" fill="none" stroke="#d29922" stroke-width="1" opacity="0.6"/>
<circle cx="475.5" cy="164.0" r="3" fill="none" stroke="#d29922" stroke-width="1" opacity="0.6"/>
<circle cx="505.1" cy="171.2" r="3" fill="none" stroke="#d29922" stroke-width="1" opacity="0.6"/>
<circle cx="527.2" cy="173.1" r="3" fill="none" stroke="#d29922" stroke-width="1" opacity="0.6"/>
<circle cx="558.2" cy="202.6" r="3" fill="none" stroke="#d29922" stroke-width="1" opacity="0.6"/>
<circle cx="563.4" cy="219.2" r="3" fill="none" stroke="#d29922" stroke-width="1" opacity="0.6"/>
<circle cx="537.4" cy="212.0" r="3" fill="none" stroke="#d29922" stroke-width="1" opacity="0.6"/>
<circle cx="555.6" cy="209.9" r="3" fill="none" stroke="#d29922" stroke-width="1" opacity="0.6"/>
<circle cx="583.7" cy="223.8" r="3" fill="none" stroke="#d29922" stroke-width="1" opacity="0.6"/>
<circle cx="594.6" cy="241.7" r="3" fill="none" stroke="#d29922" stroke-width="1" opacity="0.6"/>
<circle cx="607.0" cy="262.3" r="3" fill="none" stroke="#d29922" stroke-width="1" opacity="0.6"/>
<circle cx="621.5" cy="284.4" r="3" fill="none" stroke="#d29922" stroke-width="1" opacity="0.6"/>
<circle cx="609.1" cy="334.9" r="3" fill="none" stroke="#d29922" stroke-width="1" opacity="0.6"/>
<circle cx="410.0" cy="410.0" r="10" fill="#0d1117" stroke="#58a6ff" stroke-width="2"/>
<circle cx="410.0" cy="410.0" r="4" fill="#58a6ff"/>
<circle r="2.4" fill="#7ee787"><animateMotion dur="2.33s" begin="2.31s" repeatCount="indefinite" path="M342.1,210.5 L320.6,188.4"/></circle>
<circle r="2.4" fill="#f2cc60"><animateMotion dur="3.4s" begin="0.86s" repeatCount="indefinite" path="M536.0,618.5 L554.2,632.8"/></circle>
<circle r="2.4" fill="#79c0ff"><animateMotion dur="3.46s" begin="1.17s" repeatCount="indefinite" path="M438.9,172.1 L429.1,153.2"/></circle>
<circle r="2.4" fill="#7ee787"><animateMotion dur="3.95s" begin="0.88s" repeatCount="indefinite" path="M319.1,613.5 L294.9,636.6"/></circle>
<circle r="2.4" fill="#f2cc60"><animateMotion dur="2.59s" begin="1.18s" repeatCount="indefinite" path="M197.7,557.2 L197.9,580.4"/></circle>
<circle r="2.4" fill="#79c0ff"><animateMotion dur="3.32s" begin="2.44s" repeatCount="indefinite" path="M386.8,625.0 L396.3,654.1"/></circle>
<circle r="2.4" fill="#7ee787"><animateMotion dur="3.18s" begin="2.5s" repeatCount="indefinite" path="M255.5,595.4 L239.9,614.0"/></circle>
<text x="806" y="806" text-anchor="end" font-size="9" fill="#484f58" letter-spacing="1">// circuit_bloom.py — seed:20260730 — spokes:7 — regenerated daily</text>
</svg>