<svg viewBox="0 0 820 820" width="820" height="820" xmlns="http://www.w3.org/2000/svg" font-family="'Fira Code',monospace">
<defs>
<pattern id="g2" width="22" height="22" patternUnits="userSpaceOnUse">
<path d="M 22 0 L 0 0 0 22" fill="none" stroke="#30363d" stroke-width="0.4" opacity="0.3"/>
</pattern>
<radialGradient id="glow" cx="50%" cy="50%" r="50%">
<stop offset="0%" stop-color="#58a6ff" stop-opacity="0.35"/>
<stop offset="100%" stop-color="#58a6ff" stop-opacity="0"/>
</radialGradient>
</defs>
<rect x="0" y="0" width="820" height="820" fill="#0d1117"/>
<rect x="0" y="0" width="820" height="820" fill="url(#g2)"/>
<circle cx="410.0" cy="410.0" r="230" fill="url(#glow)"/>
<line x1="410.0" y1="410.0" x2="515.0" y2="408.2" stroke="#58a6ff" stroke-width="2.60" opacity="1.00" stroke-linecap="round"/>
<line x1="515.0" y1="408.2" x2="571.1" y2="370.6" stroke="#4f9ee0" stroke-width="2.25" opacity="0.90" stroke-linecap="round"/>
<line x1="571.1" y1="370.6" x2="588.1" y2="328.2" stroke="#3fb950" stroke-width="1.90" opacity="0.80" stroke-linecap="round"/>
<line x1="588.1" y1="328.2" x2="586.4" y2="298.3" stroke="#7bc96f" stroke-width="1.55" opacity="0.70" stroke-linecap="round"/>
<line x1="586.4" y1="298.3" x2="576.8" y2="279.3" stroke="#d29922" stroke-width="1.20" opacity="0.60" stroke-linecap="round"/>
<line x1="586.4" y1="298.3" x2="596.2" y2="279.6" stroke="#d29922" stroke-width="1.20" opacity="0.60" stroke-linecap="round"/>
<line x1="588.1" y1="328.2" x2="607.1" y2="306.9" stroke="#7bc96f" stroke-width="1.55" opacity="0.70" stroke-linecap="round"/>
<line x1="607.1" y1="306.9" x2="611.8" y2="288.0" stroke="#d29922" stroke-width="1.20" opacity="0.60" stroke-linecap="round"/>
<line x1="607.1" y1="306.9" x2="625.3" y2="300.9" stroke="#d29922" stroke-width="1.20" opacity="0.60" stroke-linecap="round"/>
<line x1="571.1" y1="370.6" x2="618.7" y2="369.0" stroke="#3fb950" stroke-width="1.90" opacity="0.80" stroke-linecap="round"/>
<line x1="618.7" y1="369.0" x2="645.0" y2="355.1" stroke="#7bc96f" stroke-width="1.55" opacity="0.70" stroke-linecap="round"/>
<line x1="645.0" y1="355.1" x2="656.5" y2="337.9" stroke="#d29922" stroke-width="1.20" opacity="0.60" stroke-linecap="round"/>
<line x1="645.0" y1="355.1" x2="663.4" y2="357.9" stroke="#d29922" stroke-width="1.20" opacity="0.60" stroke-linecap="round"/>
<line x1="618.7" y1="369.0" x2="646.8" y2="379.1" stroke="#7bc96f" stroke-width="1.55" opacity="0.70" stroke-linecap="round"/>
<line x1="646.8" y1="379.1" x2="664.7" y2="373.3" stroke="#d29922" stroke-width="1.20" opacity="0.60" stroke-linecap="round"/>
<line x1="646.8" y1="379.1" x2="659.4" y2="395.9" stroke="#d29922" stroke-width="1.20" opacity="0.60" stroke-linecap="round"/>
<line x1="515.0" y1="408.2" x2="578.6" y2="447.4" stroke="#4f9ee0" stroke-width="2.25" opacity="0.90" stroke-linecap="round"/>
<line x1="578.6" y1="447.4" x2="624.6" y2="455.3" stroke="#3fb950" stroke-width="1.90" opacity="0.80" stroke-linecap="round"/>
<line x1="624.6" y1="455.3" x2="652.9" y2="439.4" stroke="#7bc96f" stroke-width="1.55" opacity="0.70" stroke-linecap="round"/>
<line x1="652.9" y1="439.4" x2="661.1" y2="419.0" stroke="#d29922" stroke-width="1.20" opacity="0.60" stroke-linecap="round"/>
<line x1="652.9" y1="439.4" x2="673.0" y2="441.7" stroke="#d29922" stroke-width="1.20" opacity="0.60" stroke-linecap="round"/>
<line x1="624.6" y1="455.3" x2="645.8" y2="478.1" stroke="#7bc96f" stroke-width="1.55" opacity="0.70" stroke-linecap="round"/>
<line x1="645.8" y1="478.1" x2="660.4" y2="494.8" stroke="#d29922" stroke-width="1.20" opacity="0.60" stroke-linecap="round"/>
<line x1="578.6" y1="447.4" x2="608.3" y2="486.2" stroke="#3fb950" stroke-width="1.90" opacity="0.80" stroke-linecap="round"/>
<line x1="608.3" y1="486.2" x2="638.6" y2="498.5" stroke="#7bc96f" stroke-width="1.55" opacity="0.70" stroke-linecap="round"/>
<line x1="638.6" y1="498.5" x2="659.5" y2="496.6" stroke="#d29922" stroke-width="1.20" opacity="0.60" stroke-linecap="round"/>
<line x1="638.6" y1="498.5" x2="653.6" y2="514.2" stroke="#d29922" stroke-width="1.20" opacity="0.60" stroke-linecap="round"/>
<line x1="608.3" y1="486.2" x2="609.5" y2="519.8" stroke="#7bc96f" stroke-width="1.55" opacity="0.70" stroke-linecap="round"/>
<line x1="609.5" y1="519.8" x2="613.5" y2="540.8" stroke="#d29922" stroke-width="1.20" opacity="0.60" stroke-linecap="round"/>
<line x1="410.0" y1="410.0" x2="447.6" y2="508.0" stroke="#58a6ff" stroke-width="2.60" opacity="1.00" stroke-linecap="round"/>
<line x1="447.6" y1="508.0" x2="499.6" y2="559.2" stroke="#4f9ee0" stroke-width="2.25" opacity="0.90" stroke-linecap="round"/>
<line x1="499.6" y1="559.2" x2="550.9" y2="567.0" stroke="#3fb950" stroke-width="1.90" opacity="0.80" stroke-linecap="round"/>
<line x1="550.9" y1="567.0" x2="583.0" y2="552.8" stroke="#7bc96f" stroke-width="1.55" opacity="0.70" stroke-linecap="round"/>
<line x1="583.0" y1="552.8" x2="595.5" y2="531.2" stroke="#d29922" stroke-width="1.20" opacity="0.60" stroke-linecap="round"/>
<line x1="583.0" y1="552.8" x2="607.6" y2="558.2" stroke="#d29922" stroke-width="1.20" opacity="0.60" stroke-linecap="round"/>
<line x1="550.9" y1="567.0" x2="579.3" y2="589.4" stroke="#7bc96f" stroke-width="1.55" opacity="0.70" stroke-linecap="round"/>
<line x1="579.3" y1="589.4" x2="600.7" y2="598.4" stroke="#d29922" stroke-width="1.20" opacity="0.60" stroke-linecap="round"/>
<line x1="499.6" y1="559.2" x2="509.4" y2="608.8" stroke="#3fb950" stroke-width="1.90" opacity="0.80" stroke-linecap="round"/>
<line x1="509.4" y1="608.8" x2="528.5" y2="639.6" stroke="#7bc96f" stroke-width="1.55" opacity="0.70" stroke-linecap="round"/>
<line x1="528.5" y1="639.6" x2="549.6" y2="650.4" stroke="#d29922" stroke-width="1.20" opacity="0.60" stroke-linecap="round"/>
<line x1="528.5" y1="639.6" x2="529.0" y2="665.0" stroke="#d29922" stroke-width="1.20" opacity="0.60" stroke-linecap="round"/>
<line x1="509.4" y1="608.8" x2="502.9" y2="644.0" stroke="#7bc96f" stroke-width="1.55" opacity="0.70" stroke-linecap="round"/>
<line x1="502.9" y1="644.0" x2="514.0" y2="664.0" stroke="#d29922" stroke-width="1.20" opacity="0.60" stroke-linecap="round"/>
<line x1="502.9" y1="644.0" x2="486.4" y2="659.6" stroke="#d29922" stroke-width="1.20" opacity="0.60" stroke-linecap="round"/>
<line x1="447.6" y1="508.0" x2="438.8" y2="578.5" stroke="#4f9ee0" stroke-width="2.25" opacity="0.90" stroke-linecap="round"/>
<line x1="438.8" y1="578.5" x2="458.9" y2="618.0" stroke="#3fb950" stroke-width="1.90" opacity="0.80" stroke-linecap="round"/>
<line x1="458.9" y1="618.0" x2="485.7" y2="633.7" stroke="#7bc96f" stroke-width="1.55" opacity="0.70" stroke-linecap="round"/>
<line x1="485.7" y1="633.7" x2="507.5" y2="631.5" stroke="#d29922" stroke-width="1.20" opacity="0.60" stroke-linecap="round"/>
<line x1="485.7" y1="633.7" x2="493.6" y2="653.2" stroke="#d29922" stroke-width="1.20" opacity="0.60" stroke-linecap="round"/>
<line x1="458.9" y1="618.0" x2="457.1" y2="646.3" stroke="#7bc96f" stroke-width="1.55" opacity="0.70" stroke-linecap="round"/>
<line x1="457.1" y1="646.3" x2="465.6" y2="662.2" stroke="#d29922" stroke-width="1.20" opacity="0.60" stroke-linecap="round"/>
<line x1="457.1" y1="646.3" x2="448.1" y2="663.2" stroke="#d29922" stroke-width="1.20" opacity="0.60" stroke-linecap="round"/>
<line x1="438.8" y1="578.5" x2="402.1" y2="612.6" stroke="#3fb950" stroke-width="1.90" opacity="0.80" stroke-linecap="round"/>
<line x1="402.1" y1="612.6" x2="392.2" y2="643.1" stroke="#7bc96f" stroke-width="1.55" opacity="0.70" stroke-linecap="round"/>
<line x1="392.2" y1="643.1" x2="397.8" y2="662.9" stroke="#d29922" stroke-width="1.20" opacity="0.60" stroke-linecap="round"/>
<line x1="392.2" y1="643.1" x2="375.0" y2="656.8" stroke="#d29922" stroke-width="1.20" opacity="0.60" stroke-linecap="round"/>
<line x1="402.1" y1="612.6" x2="367.5" y2="621.3" stroke="#7bc96f" stroke-width="1.55" opacity="0.70" stroke-linecap="round"/>
<line x1="367.5" y1="621.3" x2="352.5" y2="640.5" stroke="#d29922" stroke-width="1.20" opacity="0.60" stroke-linecap="round"/>
<line x1="367.5" y1="621.3" x2="345.3" y2="613.3" stroke="#d29922" stroke-width="1.20" opacity="0.60" stroke-linecap="round"/>
<line x1="410.0" y1="410.0" x2="323.0" y2="468.8" stroke="#58a6ff" stroke-width="2.60" opacity="1.00" stroke-linecap="round"/>
<line x1="323.0" y1="468.8" x2="283.4" y2="529.2" stroke="#4f9ee0" stroke-width="2.25" opacity="0.90" stroke-linecap="round"/>
<line x1="283.4" y1="529.2" x2="280.0" y2="579.6" stroke="#3fb950" stroke-width="1.90" opacity="0.80" stroke-linecap="round"/>
<line x1="280.0" y1="579.6" x2="288.8" y2="612.5" stroke="#7bc96f" stroke-width="1.55" opacity="0.70" stroke-linecap="round"/>
<line x1="288.8" y1="612.5" x2="298.0" y2="635.1" stroke="#d29922" stroke-width="1.20" opacity="0.60" stroke-linecap="round"/>
<line x1="280.0" y1="579.6" x2="263.8" y2="609.9" stroke="#7bc96f" stroke-width="1.55" opacity="0.70" stroke-linecap="round"/>
<line x1="263.8" y1="609.9" x2="252.0" y2="629.0" stroke="#d29922" stroke-width="1.20" opacity="0.60" stroke-linecap="round"/>
<line x1="283.4" y1="529.2" x2="242.0" y2="550.2" stroke="#3fb950" stroke-width="1.90" opacity="0.80" stroke-linecap="round"/>
<line x1="242.0" y1="550.2" x2="223.0" y2="575.4" stroke="#7bc96f" stroke-width="1.55" opacity="0.70" stroke-linecap="round"/>
<line x1="223.0" y1="575.4" x2="210.5" y2="591.6" stroke="#d29922" stroke-width="1.20" opacity="0.60" stroke-linecap="round"/>
<line x1="242.0" y1="550.2" x2="213.3" y2="553.8" stroke="#7bc96f" stroke-width="1.55" opacity="0.70" stroke-linecap="round"/>
<line x1="213.3" y1="553.8" x2="199.3" y2="565.4" stroke="#d29922" stroke-width="1.20" opacity="0.60" stroke-linecap="round"/>
<line x1="213.3" y1="553.8" x2="195.2" y2="545.9" stroke="#d29922" stroke-width="1.20" opacity="0.60" stroke-linecap="round"/>
<line x1="323.0" y1="468.8" x2="255.5" y2="479.6" stroke="#4f9ee0" stroke-width="2.25" opacity="0.90" stroke-linecap="round"/>
<line x1="255.5" y1="479.6" x2="224.1" y2="512.6" stroke="#3fb950" stroke-width="1.90" opacity="0.80" stroke-linecap="round"/>
<line x1="224.1" y1="512.6" x2="213.8" y2="542.9" stroke="#7bc96f" stroke-width="1.55" opacity="0.70" stroke-linecap="round"/>
<line x1="213.8" y1="542.9" x2="213.9" y2="565.6" stroke="#d29922" stroke-width="1.20" opacity="0.60" stroke-linecap="round"/>
<line x1="224.1" y1="512.6" x2="195.2" y2="524.4" stroke="#7bc96f" stroke-width="1.55" opacity="0.70" stroke-linecap="round"/>
<line x1="195.2" y1="524.4" x2="186.1" y2="543.1" stroke="#d29922" stroke-width="1.20" opacity="0.60" stroke-linecap="round"/>
<line x1="195.2" y1="524.4" x2="175.3" y2="518.6" stroke="#d29922" stroke-width="1.20" opacity="0.60" stroke-linecap="round"/>
<line x1="255.5" y1="479.6" x2="214.4" y2="457.5" stroke="#3fb950" stroke-width="1.90" opacity="0.80" stroke-linecap="round"/>
<line x1="214.4" y1="457.5" x2="181.1" y2="458.2" stroke="#7bc96f" stroke-width="1.55" opacity="0.70" stroke-linecap="round"/>
<line x1="181.1" y1="458.2" x2="157.6" y2="455.2" stroke="#d29922" stroke-width="1.20" opacity="0.60" stroke-linecap="round"/>
<line x1="214.4" y1="457.5" x2="194.4" y2="432.3" stroke="#7bc96f" stroke-width="1.55" opacity="0.70" stroke-linecap="round"/>
<line x1="194.4" y1="432.3" x2="177.2" y2="417.2" stroke="#d29922" stroke-width="1.20" opacity="0.60" stroke-linecap="round"/>
<line x1="410.0" y1="410.0" x2="324.2" y2="349.4" stroke="#58a6ff" stroke-width="2.60" opacity="1.00" stroke-linecap="round"/>
<line x1="324.2" y1="349.4" x2="252.1" y2="339.4" stroke="#4f9ee0" stroke-width="2.25" opacity="0.90" stroke-linecap="round"/>
<line x1="252.1" y1="339.4" x2="208.3" y2="350.9" stroke="#3fb950" stroke-width="1.90" opacity="0.80" stroke-linecap="round"/>
<line x1="208.3" y1="350.9" x2="182.9" y2="371.0" stroke="#7bc96f" stroke-width="1.55" opacity="0.70" stroke-linecap="round"/>
<line x1="182.9" y1="371.0" x2="164.2" y2="382.0" stroke="#d29922" stroke-width="1.20" opacity="0.60" stroke-linecap="round"/>
<line x1="208.3" y1="350.9" x2="178.3" y2="346.9" stroke="#7bc96f" stroke-width="1.55" opacity="0.70" stroke-linecap="round"/>
<line x1="178.3" y1="346.9" x2="159.0" y2="337.2" stroke="#d29922" stroke-width="1.20" opacity="0.60" stroke-linecap="round"/>
<line x1="252.1" y1="339.4" x2="212.7" y2="312.2" stroke="#3fb950" stroke-width="1.90" opacity="0.80" stroke-linecap="round"/>
<line x1="212.7" y1="312.2" x2="182.2" y2="307.7" stroke="#7bc96f" stroke-width="1.55" opacity="0.70" stroke-linecap="round"/>
<line x1="182.2" y1="307.7" x2="161.1" y2="313.5" stroke="#d29922" stroke-width="1.20" opacity="0.60" stroke-linecap="round"/>
<line x1="182.2" y1="307.7" x2="166.2" y2="296.2" stroke="#d29922" stroke-width="1.20" opacity="0.60" stroke-linecap="round"/>
<line x1="212.7" y1="312.2" x2="198.8" y2="283.8" stroke="#7bc96f" stroke-width="1.55" opacity="0.70" stroke-linecap="round"/>
<line x1="198.8" y1="283.8" x2="191.5" y2="263.9" stroke="#d29922" stroke-width="1.20" opacity="0.60" stroke-linecap="round"/>
<line x1="324.2" y1="349.4" x2="301.3" y2="285.6" stroke="#4f9ee0" stroke-width="2.25" opacity="0.90" stroke-linecap="round"/>
<line x1="301.3" y1="285.6" x2="265.8" y2="252.4" stroke="#3fb950" stroke-width="1.90" opacity="0.80" stroke-linecap="round"/>
<line x1="265.8" y1="252.4" x2="231.9" y2="247.1" stroke="#7bc96f" stroke-width="1.55" opacity="0.70" stroke-linecap="round"/>
<line x1="231.9" y1="247.1" x2="208.5" y2="253.7" stroke="#d29922" stroke-width="1.20" opacity="0.60" stroke-linecap="round"/>
<line x1="231.9" y1="247.1" x2="214.2" y2="234.3" stroke="#d29922" stroke-width="1.20" opacity="0.60" stroke-linecap="round"/>
<line x1="265.8" y1="252.4" x2="254.8" y2="220.9" stroke="#7bc96f" stroke-width="1.55" opacity="0.70" stroke-linecap="round"/>
<line x1="254.8" y1="220.9" x2="240.7" y2="203.0" stroke="#d29922" stroke-width="1.20" opacity="0.60" stroke-linecap="round"/>
<line x1="301.3" y1="285.6" x2="302.6" y2="240.2" stroke="#3fb950" stroke-width="1.90" opacity="0.80" stroke-linecap="round"/>
<line x1="302.6" y1="240.2" x2="284.2" y2="215.8" stroke="#7bc96f" stroke-width="1.55" opacity="0.70" stroke-linecap="round"/>
<line x1="284.2" y1="215.8" x2="263.2" y2="209.6" stroke="#d29922" stroke-width="1.20" opacity="0.60" stroke-linecap="round"/>
<line x1="284.2" y1="215.8" x2="282.7" y2="195.6" stroke="#d29922" stroke-width="1.20" opacity="0.60" stroke-linecap="round"/>
<line x1="302.6" y1="240.2" x2="319.0" y2="215.0" stroke="#7bc96f" stroke-width="1.55" opacity="0.70" stroke-linecap="round"/>
<line x1="319.0" y1="215.0" x2="318.5" y2="195.3" stroke="#d29922" stroke-width="1.20" opacity="0.60" stroke-linecap="round"/>
<line x1="319.0" y1="215.0" x2="337.4" y2="207.9" stroke="#d29922" stroke-width="1.20" opacity="0.60" stroke-linecap="round"/>
<line x1="410.0" y1="410.0" x2="441.6" y2="309.9" stroke="#58a6ff" stroke-width="2.60" opacity="1.00" stroke-linecap="round"/>
<line x1="441.6" y1="309.9" x2="428.6" y2="240.4" stroke="#4f9ee0" stroke-width="2.25" opacity="0.90" stroke-linecap="round"/>
<line x1="428.6" y1="240.4" x2="393.2" y2="205.1" stroke="#3fb950" stroke-width="1.90" opacity="0.80" stroke-linecap="round"/>
<line x1="393.2" y1="205.1" x2="359.4" y2="199.7" stroke="#7bc96f" stroke-width="1.55" opacity="0.70" stroke-linecap="round"/>
<line x1="359.4" y1="199.7" x2="339.7" y2="207.9" stroke="#d29922" stroke-width="1.20" opacity="0.60" stroke-linecap="round"/>
<line x1="359.4" y1="199.7" x2="342.7" y2="185.3" stroke="#d29922" stroke-width="1.20" opacity="0.60" stroke-linecap="round"/>
<line x1="393.2" y1="205.1" x2="385.4" y2="173.5" stroke="#7bc96f" stroke-width="1.55" opacity="0.70" stroke-linecap="round"/>
<line x1="385.4" y1="173.5" x2="381.9" y2="150.5" stroke="#d29922" stroke-width="1.20" opacity="0.60" stroke-linecap="round"/>
<line x1="428.6" y1="240.4" x2="451.3" y2="198.8" stroke="#3fb950" stroke-width="1.90" opacity="0.80" stroke-linecap="round"/>
<line x1="451.3" y1="198.8" x2="456.6" y2="167.5" stroke="#7bc96f" stroke-width="1.55" opacity="0.70" stroke-linecap="round"/>
<line x1="456.6" y1="167.5" x2="451.0" y2="145.5" stroke="#d29922" stroke-width="1.20" opacity="0.60" stroke-linecap="round"/>
<line x1="456.6" y1="167.5" x2="468.1" y2="148.4" stroke="#d29922" stroke-width="1.20" opacity="0.60" stroke-linecap="round"/>
<line x1="451.3" y1="198.8" x2="477.4" y2="179.3" stroke="#7bc96f" stroke-width="1.55" opacity="0.70" stroke-linecap="round"/>
<line x1="477.4" y1="179.3" x2="486.7" y2="161.0" stroke="#d29922" stroke-width="1.20" opacity="0.60" stroke-linecap="round"/>
<line x1="477.4" y1="179.3" x2="497.5" y2="174.7" stroke="#d29922" stroke-width="1.20" opacity="0.60" stroke-linecap="round"/>
<line x1="441.6" y1="309.9" x2="487.3" y2="261.1" stroke="#4f9ee0" stroke-width="2.25" opacity="0.90" stroke-linecap="round"/>
<line x1="487.3" y1="261.1" x2="500.8" y2="216.4" stroke="#3fb950" stroke-width="1.90" opacity="0.80" stroke-linecap="round"/>
<line x1="500.8" y1="216.4" x2="487.0" y2="186.5" stroke="#7bc96f" stroke-width="1.55" opacity="0.70" stroke-linecap="round"/>
<line x1="487.0" y1="186.5" x2="469.5" y2="174.1" stroke="#d29922" stroke-width="1.20" opacity="0.60" stroke-linecap="round"/>
<line x1="487.0" y1="186.5" x2="487.1" y2="165.9" stroke="#d29922" stroke-width="1.20" opacity="0.60" stroke-linecap="round"/>
<line x1="500.8" y1="216.4" x2="527.7" y2="198.3" stroke="#7bc96f" stroke-width="1.55" opacity="0.70" stroke-linecap="round"/>
<line x1="527.7" y1="198.3" x2="546.9" y2="189.6" stroke="#d29922" stroke-width="1.20" opacity="0.60" stroke-linecap="round"/>
<line x1="487.3" y1="261.1" x2="531.8" y2="244.3" stroke="#3fb950" stroke-width="1.90" opacity="0.80" stroke-linecap="round"/>
<line x1="531.8" y1="244.3" x2="551.7" y2="218.0" stroke="#7bc96f" stroke-width="1.55" opacity="0.70" stroke-linecap="round"/>
<line x1="551.7" y1="218.0" x2="564.6" y2="198.5" stroke="#d29922" stroke-width="1.20" opacity="0.60" stroke-linecap="round"/>
<line x1="531.8" y1="244.3" x2="563.0" y2="249.3" stroke="#7bc96f" stroke-width="1.55" opacity="0.70" stroke-linecap="round"/>
<line x1="563.0" y1="249.3" x2="584.4" y2="248.0" stroke="#d29922" stroke-width="1.20" opacity="0.60" stroke-linecap="round"/>
<circle cx="515.0" cy="408.2" r="2.60" fill="#58a6ff" opacity="0.85"/>
<circle cx="571.1" cy="370.6" r="2.30" fill="#4f9ee0" opacity="0.85"/>
<circle cx="588.1" cy="328.2" r="2.00" fill="#3fb950" opacity="0.85"/>
<circle cx="586.4" cy="298.3" r="1.70" fill="#7bc96f" opacity="0.85"/>
<circle cx="607.1" cy="306.9" r="1.70" fill="#7bc96f" opacity="0.85"/>
<circle cx="618.7" cy="369.0" r="2.00" fill="#3fb950" opacity="0.85"/>
<circle cx="645.0" cy="355.1" r="1.70" fill="#7bc96f" opacity="0.85"/>
<circle cx="646.8" cy="379.1" r="1.70" fill="#7bc96f" opacity="0.85"/>
<circle cx="578.6" cy="447.4" r="2.30" fill="#4f9ee0" opacity="0.85"/>
<circle cx="624.6" cy="455.3" r="2.00" fill="#3fb950" opacity="0.85"/>
<circle cx="652.9" cy="439.4" r="1.70" fill="#7bc96f" opacity="0.85"/>
<circle cx="645.8" cy="478.1" r="1.70" fill="#7bc96f" opacity="0.85"/>
<circle cx="608.3" cy="486.2" r="2.00" fill="#3fb950" opacity="0.85"/>
<circle cx="638.6" cy="498.5" r="1.70" fill="#7bc96f" opacity="0.85"/>
<circle cx="609.5" cy="519.8" r="1.70" fill="#7bc96f" opacity="0.85"/>
<circle cx="447.6" cy="508.0" r="2.60" fill="#58a6ff" opacity="0.85"/>
<circle cx="499.6" cy="559.2" r="2.30" fill="#4f9ee0" opacity="0.85"/>
<circle cx="550.9" cy="567.0" r="2.00" fill="#3fb950" opacity="0.85"/>
<circle cx="583.0" cy="552.8" r="1.70" fill="#7bc96f" opacity="0.85"/>
<circle cx="579.3" cy="589.4" r="1.70" fill="#7bc96f" opacity="0.85"/>
<circle cx="509.4" cy="608.8" r="2.00" fill="#3fb950" opacity="0.85"/>
<circle cx="528.5" cy="639.6" r="1.70" fill="#7bc96f" opacity="0.85"/>
<circle cx="502.9" cy="644.0" r="1.70" fill="#7bc96f" opacity="0.85"/>
<circle cx="438.8" cy="578.5" r="2.30" fill="#4f9ee0" opacity="0.85"/>
<circle cx="458.9" cy="618.0" r="2.00" fill="#3fb950" opacity="0.85"/>
<circle cx="485.7" cy="633.7" r="1.70" fill="#7bc96f" opacity="0.85"/>
<circle cx="457.1" cy="646.3" r="1.70" fill="#7bc96f" opacity="0.85"/>
<circle cx="402.1" cy="612.6" r="2.00" fill="#3fb950" opacity="0.85"/>
<circle cx="392.2" cy="643.1" r="1.70" fill="#7bc96f" opacity="0.85"/>
<circle cx="367.5" cy="621.3" r="1.70" fill="#7bc96f" opacity="0.85"/>
<circle cx="323.0" cy="468.8" r="2.60" fill="#58a6ff" opacity="0.85"/>
<circle cx="283.4" cy="529.2" r="2.30" fill="#4f9ee0" opacity="0.85"/>
<circle cx="280.0" cy="579.6" r="2.00" fill="#3fb950" opacity="0.85"/>
<circle cx="288.8" cy="612.5" r="1.70" fill="#7bc96f" opacity="0.85"/>
<circle cx="263.8" cy="609.9" r="1.70" fill="#7bc96f" opacity="0.85"/>
<circle cx="242.0" cy="550.2" r="2.00" fill="#3fb950" opacity="0.85"/>
<circle cx="223.0" cy="575.4" r="1.70" fill="#7bc96f" opacity="0.85"/>
<circle cx="213.3" cy="553.8" r="1.70" fill="#7bc96f" opacity="0.85"/>
<circle cx="255.5" cy="479.6" r="2.30" fill="#4f9ee0" opacity="0.85"/>
<circle cx="224.1" cy="512.6" r="2.00" fill="#3fb950" opacity="0.85"/>
<circle cx="213.8" cy="542.9" r="1.70" fill="#7bc96f" opacity="0.85"/>
<circle cx="195.2" cy="524.4" r="1.70" fill="#7bc96f" opacity="0.85"/>
<circle cx="214.4" cy="457.5" r="2.00" fill="#3fb950" opacity="0.85"/>
<circle cx="181.1" cy="458.2" r="1.70" fill="#7bc96f" opacity="0.85"/>
<circle cx="194.4" cy="432.3" r="1.70" fill="#7bc96f" opacity="0.85"/>
<circle cx="324.2" cy="349.4" r="2.60" fill="#58a6ff" opacity="0.85"/>
<circle cx="252.1" cy="339.4" r="2.30" fill="#4f9ee0" opacity="0.85"/>
<circle cx="208.3" cy="350.9" r="2.00" fill="#3fb950" opacity="0.85"/>
<circle cx="182.9" cy="371.0" r="1.70" fill="#7bc96f" opacity="0.85"/>
<circle cx="178.3" cy="346.9" r="1.70" fill="#7bc96f" opacity="0.85"/>
<circle cx="212.7" cy="312.2" r="2.00" fill="#3fb950" opacity="0.85"/>
<circle cx="182.2" cy="307.7" r="1.70" fill="#7bc96f" opacity="0.85"/>
<circle cx="198.8" cy="283.8" r="1.70" fill="#7bc96f" opacity="0.85"/>
<circle cx="301.3" cy="285.6" r="2.30" fill="#4f9ee0" opacity="0.85"/>
<circle cx="265.8" cy="252.4" r="2.00" fill="#3fb950" opacity="0.85"/>
<circle cx="231.9" cy="247.1" r="1.70" fill="#7bc96f" opacity="0.85"/>
<circle cx="254.8" cy="220.9" r="1.70" fill="#7bc96f" opacity="0.85"/>
<circle cx="302.6" cy="240.2" r="2.00" fill="#3fb950" opacity="0.85"/>
<circle cx="284.2" cy="215.8" r="1.70" fill="#7bc96f" opacity="0.85"/>
<circle cx="319.0" cy="215.0" r="1.70" fill="#7bc96f" opacity="0.85"/>
<circle cx="441.6" cy="309.9" r="2.60" fill="#58a6ff" opacity="0.85"/>
<circle cx="428.6" cy="240.4" r="2.30" fill="#4f9ee0" opacity="0.85"/>
<circle cx="393.2" cy="205.1" r="2.00" fill="#3fb950" opacity="0.85"/>
<circle cx="359.4" cy="199.7" r="1.70" fill="#7bc96f" opacity="0.85"/>
<circle cx="385.4" cy="173.5" r="1.70" fill="#7bc96f" opacity="0.85"/>
<circle cx="451.3" cy="198.8" r="2.00" fill="#3fb950" opacity="0.85"/>
<circle cx="456.6" cy="167.5" r="1.70" fill="#7bc96f" opacity="0.85"/>
<circle cx="477.4" cy="179.3" r="1.70" fill="#7bc96f" opacity="0.85"/>
<circle cx="487.3" cy="261.1" r="2.30" fill="#4f9ee0" opacity="0.85"/>
<circle cx="500.8" cy="216.4" r="2.00" fill="#3fb950" opacity="0.85"/>
<circle cx="487.0" cy="186.5" r="1.70" fill="#7bc96f" opacity="0.85"/>
<circle cx="527.7" cy="198.3" r="1.70" fill="#7bc96f" opacity="0.85"/>
<circle cx="531.8" cy="244.3" r="2.00" fill="#3fb950" opacity="0.85"/>
<circle cx="551.7" cy="218.0" r="1.70" fill="#7bc96f" opacity="0.85"/>
<circle cx="563.0" cy="249.3" r="1.70" fill="#7bc96f" opacity="0.85"/>
<circle cx="576.8" cy="279.3" r="3" fill="none" stroke="#d29922" stroke-width="1" opacity="0.6"/>
<circle cx="596.2" cy="279.6" r="3" fill="none" stroke="#d29922" stroke-width="1" opacity="0.6"/>
<circle cx="611.8" cy="288.0" r="3" fill="none" stroke="#d29922" stroke-width="1" opacity="0.6"/>
<circle cx="625.3" cy="300.9" r="3" fill="none" stroke="#d29922" stroke-width="1" opacity="0.6"/>
<circle cx="656.5" cy="337.9" r="3" fill="none" stroke="#d29922" stroke-width="1" opacity="0.6"/>
<circle cx="663.4" cy="357.9" r="3" fill="none" stroke="#d29922" stroke-width="1" opacity="0.6"/>
<circle cx="664.7" cy="373.3" r="3" fill="none" stroke="#d29922" stroke-width="1" opacity="0.6"/>
<circle cx="659.4" cy="395.9" r="3" fill="none" stroke="#d29922" stroke-width="1" opacity="0.6"/>
<circle cx="661.1" cy="419.0" r="3" fill="none" stroke="#d29922" stroke-width="1" opacity="0.6"/>
<circle cx="673.0" cy="441.7" r="3" fill="none" stroke="#d29922" stroke-width="1" opacity="0.6"/>
<circle cx="660.4" cy="494.8" r="3" fill="none" stroke="#d29922" stroke-width="1" opacity="0.6"/>
<circle cx="659.5" cy="496.6" r="3" fill="none" stroke="#d29922" stroke-width="1" opacity="0.6"/>
<circle cx="653.6" cy="514.2" r="3" fill="none" stroke="#d29922" stroke-width="1" opacity="0.6"/>
<circle cx="613.5" cy="540.8" r="3" fill="none" stroke="#d29922" stroke-width="1" opacity="0.6"/>
<circle cx="595.5" cy="531.2" r="3" fill="none" stroke="#d29922" stroke-width="1" opacity="0.6"/>
<circle cx="607.6" cy="558.2" r="3" fill="none" stroke="#d29922" stroke-width="1" opacity="0.6"/>
<circle cx="600.7" cy="598.4" r="3" fill="none" stroke="#d29922" stroke-width="1" opacity="0.6"/>
<circle cx="549.6" cy="650.4" r="3" fill="none" stroke="#d29922" stroke-width="1" opacity="0.6"/>
<circle cx="529.0" cy="665.0" r="3" fill="none" stroke="#d29922" stroke-width="1" opacity="0.6"/>
<circle cx="514.0" cy="664.0" r="3" fill="none" stroke="#d29922" stroke-width="1" opacity="0.6"/>
<circle cx="486.4" cy="659.6" r="3" fill="none" stroke="#d29922" stroke-width="1" opacity="0.6"/>
<circle cx="507.5" cy="631.5" r="3" fill="none" stroke="#d29922" stroke-width="1" opacity="0.6"/>
<circle cx="493.6" cy="653.2" r="3" fill="none" stroke="#d29922" stroke-width="1" opacity="0.6"/>
<circle cx="465.6" cy="662.2" r="3" fill="none" stroke="#d29922" stroke-width="1" opacity="0.6"/>
<circle cx="448.1" cy="663.2" r="3" fill="none" stroke="#d29922" stroke-width="1" opacity="0.6"/>
<circle cx="397.8" cy="662.9" r="3" fill="none" stroke="#d29922" stroke-width="1" opacity="0.6"/>
<circle cx="375.0" cy="656.8" r="3" fill="none" stroke="#d29922" stroke-width="1" opacity="0.6"/>
<circle cx="352.5" cy="640.5" r="3" fill="none" stroke="#d29922" stroke-width="1" opacity="0.6"/>
<circle cx="345.3" cy="613.3" r="3" fill="none" stroke="#d29922" stroke-width="1" opacity="0.6"/>
<circle cx="298.0" cy="635.1" r="3" fill="none" stroke="#d29922" stroke-width="1" opacity="0.6"/>
<circle cx="252.0" cy="629.0" r="3" fill="none" stroke="#d29922" stroke-width="1" opacity="0.6"/>
<circle cx="210.5" cy="591.6" r="3" fill="none" stroke="#d29922" stroke-width="1" opacity="0.6"/>
<circle cx="199.3" cy="565.4" r="3" fill="none" stroke="#d29922" stroke-width="1" opacity="0.6"/>
<circle cx="195.2" cy="545.9" r="3" fill="none" stroke="#d29922" stroke-width="1" opacity="0.6"/>
<circle cx="213.9" cy="565.6" r="3" fill="none" stroke="#d29922" stroke-width="1" opacity="0.6"/>
<circle cx="186.1" cy="543.1" r="3" fill="none" stroke="#d29922" stroke-width="1" opacity="0.6"/>
<circle cx="175.3" cy="518.6" r="3" fill="none" stroke="#d29922" stroke-width="1" opacity="0.6"/>
<circle cx="157.6" cy="455.2" r="3" fill="none" stroke="#d29922" stroke-width="1" opacity="0.6"/>
<circle cx="177.2" cy="417.2" r="3" fill="none" stroke="#d29922" stroke-width="1" opacity="0.6"/>
<circle cx="164.2" cy="382.0" r="3" fill="none" stroke="#d29922" stroke-width="1" opacity="0.6"/>
<circle cx="159.0" cy="337.2" r="3" fill="none" stroke="#d29922" stroke-width="1" opacity="0.6"/>
<circle cx="161.1" cy="313.5" r="3" fill="none" stroke="#d29922" stroke-width="1" opacity="0.6"/>
<circle cx="166.2" cy="296.2" r="3" fill="none" stroke="#d29922" stroke-width="1" opacity="0.6"/>
<circle cx="191.5" cy="263.9" r="3" fill="none" stroke="#d29922" stroke-width="1" opacity="0.6"/>
<circle cx="208.5" cy="253.7" r="3" fill="none" stroke="#d29922" stroke-width="1" opacity="0.6"/>
<circle cx="214.2" cy="234.3" r="3" fill="none" stroke="#d29922" stroke-width="1" opacity="0.6"/>
<circle cx="240.7" cy="203.0" r="3" fill="none" stroke="#d29922" stroke-width="1" opacity="0.6"/>
<circle cx="263.2" cy="209.6" r="3" fill="none" stroke="#d29922" stroke-width="1" opacity="0.6"/>
<circle cx="282.7" cy="195.6" r="3" fill="none" stroke="#d29922" stroke-width="1" opacity="0.6"/>
<circle cx="318.5" cy="195.3" r="3" fill="none" stroke="#d29922" stroke-width="1" opacity="0.6"/>
<circle cx="337.4" cy="207.9" r="3" fill="none" stroke="#d29922" stroke-width="1" opacity="0.6"/>
<circle cx="339.7" cy="207.9" r="3" fill="none" stroke="#d29922" stroke-width="1" opacity="0.6"/>
<circle cx="342.7" cy="185.3" r="3" fill="none" stroke="#d29922" stroke-width="1" opacity="0.6"/>
<circle cx="381.9" cy="150.5" r="3" fill="none" stroke="#d29922" stroke-width="1" opacity="0.6"/>
<circle cx="451.0" cy="145.5" r="3" fill="none" stroke="#d29922" stroke-width="1" opacity="0.6"/>
<circle cx="468.1" cy="148.4" r="3" fill="none" stroke="#d29922" stroke-width="1" opacity="0.6"/>
<circle cx="486.7" cy="161.0" r="3" fill="none" stroke="#d29922" stroke-width="1" opacity="0.6"/>
<circle cx="497.5" cy="174.7" r="3" fill="none" stroke="#d29922" stroke-width="1" opacity="0.6"/>
<circle cx="469.5" cy="174.1" r="3" fill="none" stroke="#d29922" stroke-width="1" opacity="0.6"/>
<circle cx="487.1" cy="165.9" r="3" fill="none" stroke="#d29922" stroke-width="1" opacity="0.6"/>
<circle cx="546.9" cy="189.6" r="3" fill="none" stroke="#d29922" stroke-width="1" opacity="0.6"/>
<circle cx="564.6" cy="198.5" r="3" fill="none" stroke="#d29922" stroke-width="1" opacity="0.6"/>
<circle cx="584.4" cy="248.0" r="3" fill="none" stroke="#d29922" stroke-width="1" opacity="0.6"/>
<circle cx="410.0" cy="410.0" r="10" fill="#0d1117" stroke="#58a6ff" stroke-width="2"/>
<circle cx="410.0" cy="410.0" r="4" fill="#58a6ff"/>
<circle r="2.4" fill="#7ee787"><animateMotion dur="3.38s" begin="0.55s" repeatCount="indefinite" path="M487.3,261.1 L531.8,244.3"/></circle>
<circle r="2.4" fill="#f2cc60"><animateMotion dur="3.6s" begin="0.43s" repeatCount="indefinite" path="M456.6,167.5 L451.0,145.5"/></circle>
<circle r="2.4" fill="#79c0ff"><animateMotion dur="3.02s" begin="0.19s" repeatCount="indefinite" path="M242.0,550.2 L223.0,575.4"/></circle>
<circle r="2.4" fill="#7ee787"><animateMotion dur="2.64s" begin="0.79s" repeatCount="indefinite" path="M410.0,410.0 L323.0,468.8"/></circle>
<circle r="2.4" fill="#f2cc60"><animateMotion dur="3.99s" begin="2.11s" repeatCount="indefinite" path="M194.4,432.3 L177.2,417.2"/></circle>
<circle r="2.4" fill="#79c0ff"><animateMotion dur="3.49s" begin="1.3s" repeatCount="indefinite" path="M283.4,529.2 L280.0,579.6"/></circle>
<circle r="2.4" fill="#7ee787"><animateMotion dur="2.73s" begin="1.37s" repeatCount="indefinite" path="M515.0,408.2 L578.6,447.4"/></circle>
<text x="806" y="806" text-anchor="end" font-size="9" fill="#484f58" letter-spacing="1">// circuit_bloom.py — seed:20260711 — spokes:5 — regenerated daily</text>
</svg>