<svg viewBox="0 0 820 820" width="820" height="820" xmlns="http://www.w3.org/2000/svg" font-family="'Fira Code',monospace">
<defs>
<pattern id="g2" width="22" height="22" patternUnits="userSpaceOnUse">
<path d="M 22 0 L 0 0 0 22" fill="none" stroke="#30363d" stroke-width="0.4" opacity="0.3"/>
</pattern>
<radialGradient id="glow" cx="50%" cy="50%" r="50%">
<stop offset="0%" stop-color="#58a6ff" stop-opacity="0.35"/>
<stop offset="100%" stop-color="#58a6ff" stop-opacity="0"/>
</radialGradient>
</defs>
<rect x="0" y="0" width="820" height="820" fill="#0d1117"/>
<rect x="0" y="0" width="820" height="820" fill="url(#g2)"/>
<circle cx="410.0" cy="410.0" r="230" fill="url(#glow)"/>
<line x1="410.0" y1="410.0" x2="514.9" y2="405.3" stroke="#58a6ff" stroke-width="2.60" opacity="1.00" stroke-linecap="round"/>
<line x1="514.9" y1="405.3" x2="570.0" y2="357.6" stroke="#4f9ee0" stroke-width="2.25" opacity="0.90" stroke-linecap="round"/>
<line x1="570.0" y1="357.6" x2="589.0" y2="313.3" stroke="#3fb950" stroke-width="1.90" opacity="0.80" stroke-linecap="round"/>
<line x1="589.0" y1="313.3" x2="586.3" y2="279.0" stroke="#7bc96f" stroke-width="1.55" opacity="0.70" stroke-linecap="round"/>
<line x1="586.3" y1="279.0" x2="592.3" y2="257.0" stroke="#d29922" stroke-width="1.20" opacity="0.60" stroke-linecap="round"/>
<line x1="589.0" y1="313.3" x2="612.6" y2="293.7" stroke="#7bc96f" stroke-width="1.55" opacity="0.70" stroke-linecap="round"/>
<line x1="612.6" y1="293.7" x2="629.6" y2="280.1" stroke="#d29922" stroke-width="1.20" opacity="0.60" stroke-linecap="round"/>
<line x1="570.0" y1="357.6" x2="618.8" y2="344.0" stroke="#3fb950" stroke-width="1.90" opacity="0.80" stroke-linecap="round"/>
<line x1="618.8" y1="344.0" x2="644.6" y2="319.1" stroke="#7bc96f" stroke-width="1.55" opacity="0.70" stroke-linecap="round"/>
<line x1="644.6" y1="319.1" x2="650.2" y2="294.0" stroke="#d29922" stroke-width="1.20" opacity="0.60" stroke-linecap="round"/>
<line x1="644.6" y1="319.1" x2="670.2" y2="315.7" stroke="#d29922" stroke-width="1.20" opacity="0.60" stroke-linecap="round"/>
<line x1="618.8" y1="344.0" x2="649.8" y2="350.4" stroke="#7bc96f" stroke-width="1.55" opacity="0.70" stroke-linecap="round"/>
<line x1="649.8" y1="350.4" x2="670.2" y2="340.2" stroke="#d29922" stroke-width="1.20" opacity="0.60" stroke-linecap="round"/>
<line x1="649.8" y1="350.4" x2="664.5" y2="363.8" stroke="#d29922" stroke-width="1.20" opacity="0.60" stroke-linecap="round"/>
<line x1="514.9" y1="405.3" x2="575.7" y2="441.1" stroke="#4f9ee0" stroke-width="2.25" opacity="0.90" stroke-linecap="round"/>
<line x1="575.7" y1="441.1" x2="621.5" y2="441.9" stroke="#3fb950" stroke-width="1.90" opacity="0.80" stroke-linecap="round"/>
<line x1="621.5" y1="441.9" x2="651.3" y2="429.9" stroke="#7bc96f" stroke-width="1.55" opacity="0.70" stroke-linecap="round"/>
<line x1="651.3" y1="429.9" x2="671.2" y2="423.9" stroke="#d29922" stroke-width="1.20" opacity="0.60" stroke-linecap="round"/>
<line x1="621.5" y1="441.9" x2="647.0" y2="456.1" stroke="#7bc96f" stroke-width="1.55" opacity="0.70" stroke-linecap="round"/>
<line x1="647.0" y1="456.1" x2="667.8" y2="455.7" stroke="#d29922" stroke-width="1.20" opacity="0.60" stroke-linecap="round"/>
<line x1="647.0" y1="456.1" x2="659.1" y2="472.8" stroke="#d29922" stroke-width="1.20" opacity="0.60" stroke-linecap="round"/>
<line x1="575.7" y1="441.1" x2="597.4" y2="483.2" stroke="#3fb950" stroke-width="1.90" opacity="0.80" stroke-linecap="round"/>
<line x1="597.4" y1="483.2" x2="624.0" y2="503.9" stroke="#7bc96f" stroke-width="1.55" opacity="0.70" stroke-linecap="round"/>
<line x1="624.0" y1="503.9" x2="640.7" y2="519.8" stroke="#d29922" stroke-width="1.20" opacity="0.60" stroke-linecap="round"/>
<line x1="597.4" y1="483.2" x2="596.7" y2="516.1" stroke="#7bc96f" stroke-width="1.55" opacity="0.70" stroke-linecap="round"/>
<line x1="596.7" y1="516.1" x2="609.3" y2="534.3" stroke="#d29922" stroke-width="1.20" opacity="0.60" stroke-linecap="round"/>
<line x1="596.7" y1="516.1" x2="582.7" y2="534.6" stroke="#d29922" stroke-width="1.20" opacity="0.60" stroke-linecap="round"/>
<line x1="410.0" y1="410.0" x2="477.4" y2="490.5" stroke="#58a6ff" stroke-width="2.60" opacity="1.00" stroke-linecap="round"/>
<line x1="477.4" y1="490.5" x2="545.5" y2="516.4" stroke="#4f9ee0" stroke-width="2.25" opacity="0.90" stroke-linecap="round"/>
<line x1="545.5" y1="516.4" x2="594.3" y2="513.2" stroke="#3fb950" stroke-width="1.90" opacity="0.80" stroke-linecap="round"/>
<line x1="594.3" y1="513.2" x2="620.3" y2="493.1" stroke="#7bc96f" stroke-width="1.55" opacity="0.70" stroke-linecap="round"/>
<line x1="620.3" y1="493.1" x2="633.2" y2="477.3" stroke="#d29922" stroke-width="1.20" opacity="0.60" stroke-linecap="round"/>
<line x1="594.3" y1="513.2" x2="619.9" y2="531.2" stroke="#7bc96f" stroke-width="1.55" opacity="0.70" stroke-linecap="round"/>
<line x1="619.9" y1="531.2" x2="640.4" y2="534.4" stroke="#d29922" stroke-width="1.20" opacity="0.60" stroke-linecap="round"/>
<line x1="619.9" y1="531.2" x2="630.3" y2="551.0" stroke="#d29922" stroke-width="1.20" opacity="0.60" stroke-linecap="round"/>
<line x1="545.5" y1="516.4" x2="580.1" y2="548.2" stroke="#3fb950" stroke-width="1.90" opacity="0.80" stroke-linecap="round"/>
<line x1="580.1" y1="548.2" x2="612.2" y2="553.3" stroke="#7bc96f" stroke-width="1.55" opacity="0.70" stroke-linecap="round"/>
<line x1="612.2" y1="553.3" x2="632.1" y2="558.3" stroke="#d29922" stroke-width="1.20" opacity="0.60" stroke-linecap="round"/>
<line x1="580.1" y1="548.2" x2="585.4" y2="577.5" stroke="#7bc96f" stroke-width="1.55" opacity="0.70" stroke-linecap="round"/>
<line x1="585.4" y1="577.5" x2="597.4" y2="592.3" stroke="#d29922" stroke-width="1.20" opacity="0.60" stroke-linecap="round"/>
<line x1="585.4" y1="577.5" x2="577.5" y2="595.5" stroke="#d29922" stroke-width="1.20" opacity="0.60" stroke-linecap="round"/>
<line x1="477.4" y1="490.5" x2="491.8" y2="556.4" stroke="#4f9ee0" stroke-width="2.25" opacity="0.90" stroke-linecap="round"/>
<line x1="491.8" y1="556.4" x2="521.3" y2="588.8" stroke="#3fb950" stroke-width="1.90" opacity="0.80" stroke-linecap="round"/>
<line x1="521.3" y1="588.8" x2="550.0" y2="596.6" stroke="#7bc96f" stroke-width="1.55" opacity="0.70" stroke-linecap="round"/>
<line x1="550.0" y1="596.6" x2="569.5" y2="599.2" stroke="#d29922" stroke-width="1.20" opacity="0.60" stroke-linecap="round"/>
<line x1="521.3" y1="588.8" x2="528.4" y2="618.8" stroke="#7bc96f" stroke-width="1.55" opacity="0.70" stroke-linecap="round"/>
<line x1="528.4" y1="618.8" x2="534.9" y2="636.9" stroke="#d29922" stroke-width="1.20" opacity="0.60" stroke-linecap="round"/>
<line x1="491.8" y1="556.4" x2="481.8" y2="599.7" stroke="#3fb950" stroke-width="1.90" opacity="0.80" stroke-linecap="round"/>
<line x1="481.8" y1="599.7" x2="488.8" y2="630.5" stroke="#7bc96f" stroke-width="1.55" opacity="0.70" stroke-linecap="round"/>
<line x1="488.8" y1="630.5" x2="493.9" y2="652.3" stroke="#d29922" stroke-width="1.20" opacity="0.60" stroke-linecap="round"/>
<line x1="481.8" y1="599.7" x2="460.1" y2="623.2" stroke="#7bc96f" stroke-width="1.55" opacity="0.70" stroke-linecap="round"/>
<line x1="460.1" y1="623.2" x2="443.4" y2="635.0" stroke="#d29922" stroke-width="1.20" opacity="0.60" stroke-linecap="round"/>
<line x1="410.0" y1="410.0" x2="391.4" y2="513.3" stroke="#58a6ff" stroke-width="2.60" opacity="1.00" stroke-linecap="round"/>
<line x1="391.4" y1="513.3" x2="411.2" y2="580.9" stroke="#4f9ee0" stroke-width="2.25" opacity="0.90" stroke-linecap="round"/>
<line x1="411.2" y1="580.9" x2="441.4" y2="618.9" stroke="#3fb950" stroke-width="1.90" opacity="0.80" stroke-linecap="round"/>
<line x1="441.4" y1="618.9" x2="474.1" y2="629.3" stroke="#7bc96f" stroke-width="1.55" opacity="0.70" stroke-linecap="round"/>
<line x1="474.1" y1="629.3" x2="492.8" y2="641.7" stroke="#d29922" stroke-width="1.20" opacity="0.60" stroke-linecap="round"/>
<line x1="441.4" y1="618.9" x2="440.5" y2="649.7" stroke="#7bc96f" stroke-width="1.55" opacity="0.70" stroke-linecap="round"/>
<line x1="440.5" y1="649.7" x2="452.5" y2="667.4" stroke="#d29922" stroke-width="1.20" opacity="0.60" stroke-linecap="round"/>
<line x1="440.5" y1="649.7" x2="427.5" y2="667.2" stroke="#d29922" stroke-width="1.20" opacity="0.60" stroke-linecap="round"/>
<line x1="411.2" y1="580.9" x2="403.8" y2="625.5" stroke="#3fb950" stroke-width="1.90" opacity="0.80" stroke-linecap="round"/>
<line x1="403.8" y1="625.5" x2="413.2" y2="654.6" stroke="#7bc96f" stroke-width="1.55" opacity="0.70" stroke-linecap="round"/>
<line x1="413.2" y1="654.6" x2="429.0" y2="668.1" stroke="#d29922" stroke-width="1.20" opacity="0.60" stroke-linecap="round"/>
<line x1="413.2" y1="654.6" x2="407.0" y2="675.5" stroke="#d29922" stroke-width="1.20" opacity="0.60" stroke-linecap="round"/>
<line x1="403.8" y1="625.5" x2="386.4" y2="650.0" stroke="#7bc96f" stroke-width="1.55" opacity="0.70" stroke-linecap="round"/>
<line x1="386.4" y1="650.0" x2="383.5" y2="669.9" stroke="#d29922" stroke-width="1.20" opacity="0.60" stroke-linecap="round"/>
<line x1="386.4" y1="650.0" x2="369.2" y2="662.4" stroke="#d29922" stroke-width="1.20" opacity="0.60" stroke-linecap="round"/>
<line x1="391.4" y1="513.3" x2="349.3" y2="573.2" stroke="#4f9ee0" stroke-width="2.25" opacity="0.90" stroke-linecap="round"/>
<line x1="349.3" y1="573.2" x2="351.5" y2="622.0" stroke="#3fb950" stroke-width="1.90" opacity="0.80" stroke-linecap="round"/>
<line x1="351.5" y1="622.0" x2="364.5" y2="650.3" stroke="#7bc96f" stroke-width="1.55" opacity="0.70" stroke-linecap="round"/>
<line x1="364.5" y1="650.3" x2="374.6" y2="669.8" stroke="#d29922" stroke-width="1.20" opacity="0.60" stroke-linecap="round"/>
<line x1="351.5" y1="622.0" x2="338.0" y2="654.0" stroke="#7bc96f" stroke-width="1.55" opacity="0.70" stroke-linecap="round"/>
<line x1="338.0" y1="654.0" x2="341.3" y2="676.4" stroke="#d29922" stroke-width="1.20" opacity="0.60" stroke-linecap="round"/>
<line x1="338.0" y1="654.0" x2="318.2" y2="668.4" stroke="#d29922" stroke-width="1.20" opacity="0.60" stroke-linecap="round"/>
<line x1="349.3" y1="573.2" x2="301.4" y2="591.4" stroke="#3fb950" stroke-width="1.90" opacity="0.80" stroke-linecap="round"/>
<line x1="301.4" y1="591.4" x2="281.7" y2="618.6" stroke="#7bc96f" stroke-width="1.55" opacity="0.70" stroke-linecap="round"/>
<line x1="281.7" y1="618.6" x2="268.4" y2="637.2" stroke="#d29922" stroke-width="1.20" opacity="0.60" stroke-linecap="round"/>
<line x1="301.4" y1="591.4" x2="270.0" y2="586.6" stroke="#7bc96f" stroke-width="1.55" opacity="0.70" stroke-linecap="round"/>
<line x1="270.0" y1="586.6" x2="247.5" y2="590.1" stroke="#d29922" stroke-width="1.20" opacity="0.60" stroke-linecap="round"/>
<line x1="410.0" y1="410.0" x2="314.1" y2="452.7" stroke="#58a6ff" stroke-width="2.60" opacity="1.00" stroke-linecap="round"/>
<line x1="314.1" y1="452.7" x2="270.9" y2="506.7" stroke="#4f9ee0" stroke-width="2.25" opacity="0.90" stroke-linecap="round"/>
<line x1="270.9" y1="506.7" x2="271.3" y2="550.4" stroke="#3fb950" stroke-width="1.90" opacity="0.80" stroke-linecap="round"/>
<line x1="271.3" y1="550.4" x2="283.0" y2="575.8" stroke="#7bc96f" stroke-width="1.55" opacity="0.70" stroke-linecap="round"/>
<line x1="283.0" y1="575.8" x2="295.2" y2="588.5" stroke="#d29922" stroke-width="1.20" opacity="0.60" stroke-linecap="round"/>
<line x1="271.3" y1="550.4" x2="258.5" y2="574.6" stroke="#7bc96f" stroke-width="1.55" opacity="0.70" stroke-linecap="round"/>
<line x1="258.5" y1="574.6" x2="258.7" y2="593.0" stroke="#d29922" stroke-width="1.20" opacity="0.60" stroke-linecap="round"/>
<line x1="258.5" y1="574.6" x2="243.1" y2="584.6" stroke="#d29922" stroke-width="1.20" opacity="0.60" stroke-linecap="round"/>
<line x1="270.9" y1="506.7" x2="226.7" y2="518.3" stroke="#3fb950" stroke-width="1.90" opacity="0.80" stroke-linecap="round"/>
<line x1="226.7" y1="518.3" x2="210.0" y2="542.9" stroke="#7bc96f" stroke-width="1.55" opacity="0.70" stroke-linecap="round"/>
<line x1="210.0" y1="542.9" x2="200.4" y2="560.4" stroke="#d29922" stroke-width="1.20" opacity="0.60" stroke-linecap="round"/>
<line x1="226.7" y1="518.3" x2="197.5" y2="508.1" stroke="#7bc96f" stroke-width="1.55" opacity="0.70" stroke-linecap="round"/>
<line x1="197.5" y1="508.1" x2="175.8" y2="512.1" stroke="#d29922" stroke-width="1.20" opacity="0.60" stroke-linecap="round"/>
<line x1="197.5" y1="508.1" x2="185.5" y2="490.9" stroke="#d29922" stroke-width="1.20" opacity="0.60" stroke-linecap="round"/>
<line x1="314.1" y1="452.7" x2="238.8" y2="450.8" stroke="#4f9ee0" stroke-width="2.25" opacity="0.90" stroke-linecap="round"/>
<line x1="238.8" y1="450.8" x2="197.8" y2="475.1" stroke="#3fb950" stroke-width="1.90" opacity="0.80" stroke-linecap="round"/>
<line x1="197.8" y1="475.1" x2="180.8" y2="502.0" stroke="#7bc96f" stroke-width="1.55" opacity="0.70" stroke-linecap="round"/>
<line x1="180.8" y1="502.0" x2="168.4" y2="517.8" stroke="#d29922" stroke-width="1.20" opacity="0.60" stroke-linecap="round"/>
<line x1="197.8" y1="475.1" x2="166.9" y2="476.6" stroke="#7bc96f" stroke-width="1.55" opacity="0.70" stroke-linecap="round"/>
<line x1="166.9" y1="476.6" x2="147.0" y2="484.7" stroke="#d29922" stroke-width="1.20" opacity="0.60" stroke-linecap="round"/>
<line x1="238.8" y1="450.8" x2="198.9" y2="423.8" stroke="#3fb950" stroke-width="1.90" opacity="0.80" stroke-linecap="round"/>
<line x1="198.9" y1="423.8" x2="165.4" y2="421.7" stroke="#7bc96f" stroke-width="1.55" opacity="0.70" stroke-linecap="round"/>
<line x1="165.4" y1="421.7" x2="145.9" y2="432.9" stroke="#d29922" stroke-width="1.20" opacity="0.60" stroke-linecap="round"/>
<line x1="165.4" y1="421.7" x2="146.2" y2="408.0" stroke="#d29922" stroke-width="1.20" opacity="0.60" stroke-linecap="round"/>
<line x1="198.9" y1="423.8" x2="184.0" y2="397.4" stroke="#7bc96f" stroke-width="1.55" opacity="0.70" stroke-linecap="round"/>
<line x1="184.0" y1="397.4" x2="169.7" y2="384.4" stroke="#d29922" stroke-width="1.20" opacity="0.60" stroke-linecap="round"/>
<line x1="410.0" y1="410.0" x2="318.4" y2="358.6" stroke="#58a6ff" stroke-width="2.60" opacity="1.00" stroke-linecap="round"/>
<line x1="318.4" y1="358.6" x2="253.6" y2="349.4" stroke="#4f9ee0" stroke-width="2.25" opacity="0.90" stroke-linecap="round"/>
<line x1="253.6" y1="349.4" x2="210.5" y2="368.4" stroke="#3fb950" stroke-width="1.90" opacity="0.80" stroke-linecap="round"/>
<line x1="210.5" y1="368.4" x2="195.6" y2="395.2" stroke="#7bc96f" stroke-width="1.55" opacity="0.70" stroke-linecap="round"/>
<line x1="195.6" y1="395.2" x2="196.2" y2="414.5" stroke="#d29922" stroke-width="1.20" opacity="0.60" stroke-linecap="round"/>
<line x1="195.6" y1="395.2" x2="178.8" y2="406.1" stroke="#d29922" stroke-width="1.20" opacity="0.60" stroke-linecap="round"/>
<line x1="210.5" y1="368.4" x2="180.9" y2="365.3" stroke="#7bc96f" stroke-width="1.55" opacity="0.70" stroke-linecap="round"/>
<line x1="180.9" y1="365.3" x2="160.2" y2="366.9" stroke="#d29922" stroke-width="1.20" opacity="0.60" stroke-linecap="round"/>
<line x1="253.6" y1="349.4" x2="221.6" y2="319.1" stroke="#3fb950" stroke-width="1.90" opacity="0.80" stroke-linecap="round"/>
<line x1="221.6" y1="319.1" x2="193.3" y2="310.9" stroke="#7bc96f" stroke-width="1.55" opacity="0.70" stroke-linecap="round"/>
<line x1="193.3" y1="310.9" x2="174.4" y2="315.3" stroke="#d29922" stroke-width="1.20" opacity="0.60" stroke-linecap="round"/>
<line x1="193.3" y1="310.9" x2="180.9" y2="296.2" stroke="#d29922" stroke-width="1.20" opacity="0.60" stroke-linecap="round"/>
<line x1="221.6" y1="319.1" x2="212.2" y2="292.0" stroke="#7bc96f" stroke-width="1.55" opacity="0.70" stroke-linecap="round"/>
<line x1="212.2" y1="292.0" x2="196.8" y2="281.9" stroke="#d29922" stroke-width="1.20" opacity="0.60" stroke-linecap="round"/>
<line x1="212.2" y1="292.0" x2="219.1" y2="275.2" stroke="#d29922" stroke-width="1.20" opacity="0.60" stroke-linecap="round"/>
<line x1="318.4" y1="358.6" x2="272.6" y2="301.6" stroke="#4f9ee0" stroke-width="2.25" opacity="0.90" stroke-linecap="round"/>
<line x1="272.6" y1="301.6" x2="229.0" y2="283.3" stroke="#3fb950" stroke-width="1.90" opacity="0.80" stroke-linecap="round"/>
<line x1="229.0" y1="283.3" x2="199.0" y2="284.7" stroke="#7bc96f" stroke-width="1.55" opacity="0.70" stroke-linecap="round"/>
<line x1="199.0" y1="284.7" x2="180.4" y2="289.6" stroke="#d29922" stroke-width="1.20" opacity="0.60" stroke-linecap="round"/>
<line x1="229.0" y1="283.3" x2="208.1" y2="257.6" stroke="#7bc96f" stroke-width="1.55" opacity="0.70" stroke-linecap="round"/>
<line x1="208.1" y1="257.6" x2="185.1" y2="251.5" stroke="#d29922" stroke-width="1.20" opacity="0.60" stroke-linecap="round"/>
<line x1="208.1" y1="257.6" x2="206.7" y2="236.4" stroke="#d29922" stroke-width="1.20" opacity="0.60" stroke-linecap="round"/>
<line x1="272.6" y1="301.6" x2="264.4" y2="253.0" stroke="#3fb950" stroke-width="1.90" opacity="0.80" stroke-linecap="round"/>
<line x1="264.4" y1="253.0" x2="241.8" y2="231.4" stroke="#7bc96f" stroke-width="1.55" opacity="0.70" stroke-linecap="round"/>
<line x1="241.8" y1="231.4" x2="219.5" y2="230.0" stroke="#d29922" stroke-width="1.20" opacity="0.60" stroke-linecap="round"/>
<line x1="241.8" y1="231.4" x2="238.3" y2="211.4" stroke="#d29922" stroke-width="1.20" opacity="0.60" stroke-linecap="round"/>
<line x1="264.4" y1="253.0" x2="275.5" y2="220.2" stroke="#7bc96f" stroke-width="1.55" opacity="0.70" stroke-linecap="round"/>
<line x1="275.5" y1="220.2" x2="269.1" y2="197.3" stroke="#d29922" stroke-width="1.20" opacity="0.60" stroke-linecap="round"/>
<line x1="275.5" y1="220.2" x2="294.1" y2="204.0" stroke="#d29922" stroke-width="1.20" opacity="0.60" stroke-linecap="round"/>
<line x1="410.0" y1="410.0" x2="382.1" y2="308.8" stroke="#58a6ff" stroke-width="2.60" opacity="1.00" stroke-linecap="round"/>
<line x1="382.1" y1="308.8" x2="323.5" y2="262.3" stroke="#4f9ee0" stroke-width="2.25" opacity="0.90" stroke-linecap="round"/>
<line x1="323.5" y1="262.3" x2="271.8" y2="256.4" stroke="#3fb950" stroke-width="1.90" opacity="0.80" stroke-linecap="round"/>
<line x1="271.8" y1="256.4" x2="236.6" y2="265.8" stroke="#7bc96f" stroke-width="1.55" opacity="0.70" stroke-linecap="round"/>
<line x1="236.6" y1="265.8" x2="217.4" y2="279.7" stroke="#d29922" stroke-width="1.20" opacity="0.60" stroke-linecap="round"/>
<line x1="236.6" y1="265.8" x2="212.3" y2="261.2" stroke="#d29922" stroke-width="1.20" opacity="0.60" stroke-linecap="round"/>
<line x1="271.8" y1="256.4" x2="243.6" y2="236.1" stroke="#7bc96f" stroke-width="1.55" opacity="0.70" stroke-linecap="round"/>
<line x1="243.6" y1="236.1" x2="220.1" y2="230.9" stroke="#d29922" stroke-width="1.20" opacity="0.60" stroke-linecap="round"/>
<line x1="243.6" y1="236.1" x2="232.9" y2="216.2" stroke="#d29922" stroke-width="1.20" opacity="0.60" stroke-linecap="round"/>
<line x1="323.5" y1="262.3" x2="309.4" y2="211.3" stroke="#3fb950" stroke-width="1.90" opacity="0.80" stroke-linecap="round"/>
<line x1="309.4" y1="211.3" x2="285.3" y2="187.6" stroke="#7bc96f" stroke-width="1.55" opacity="0.70" stroke-linecap="round"/>
<line x1="285.3" y1="187.6" x2="264.2" y2="181.3" stroke="#d29922" stroke-width="1.20" opacity="0.60" stroke-linecap="round"/>
<line x1="285.3" y1="187.6" x2="280.2" y2="164.3" stroke="#d29922" stroke-width="1.20" opacity="0.60" stroke-linecap="round"/>
<line x1="309.4" y1="211.3" x2="321.6" y2="179.0" stroke="#7bc96f" stroke-width="1.55" opacity="0.70" stroke-linecap="round"/>
<line x1="321.6" y1="179.0" x2="322.4" y2="154.9" stroke="#d29922" stroke-width="1.20" opacity="0.60" stroke-linecap="round"/>
<line x1="382.1" y1="308.8" x2="403.1" y2="243.1" stroke="#4f9ee0" stroke-width="2.25" opacity="0.90" stroke-linecap="round"/>
<line x1="403.1" y1="243.1" x2="395.5" y2="197.5" stroke="#3fb950" stroke-width="1.90" opacity="0.80" stroke-linecap="round"/>
<line x1="395.5" y1="197.5" x2="378.1" y2="173.7" stroke="#7bc96f" stroke-width="1.55" opacity="0.70" stroke-linecap="round"/>
<line x1="378.1" y1="173.7" x2="362.7" y2="163.6" stroke="#d29922" stroke-width="1.20" opacity="0.60" stroke-linecap="round"/>
<line x1="378.1" y1="173.7" x2="373.2" y2="154.5" stroke="#d29922" stroke-width="1.20" opacity="0.60" stroke-linecap="round"/>
<line x1="395.5" y1="197.5" x2="405.6" y2="168.8" stroke="#7bc96f" stroke-width="1.55" opacity="0.70" stroke-linecap="round"/>
<line x1="405.6" y1="168.8" x2="413.0" y2="149.0" stroke="#d29922" stroke-width="1.20" opacity="0.60" stroke-linecap="round"/>
<line x1="403.1" y1="243.1" x2="436.5" y2="208.8" stroke="#3fb950" stroke-width="1.90" opacity="0.80" stroke-linecap="round"/>
<line x1="436.5" y1="208.8" x2="448.2" y2="179.7" stroke="#7bc96f" stroke-width="1.55" opacity="0.70" stroke-linecap="round"/>
<line x1="448.2" y1="179.7" x2="442.9" y2="160.3" stroke="#d29922" stroke-width="1.20" opacity="0.60" stroke-linecap="round"/>
<line x1="448.2" y1="179.7" x2="466.8" y2="167.7" stroke="#d29922" stroke-width="1.20" opacity="0.60" stroke-linecap="round"/>
<line x1="436.5" y1="208.8" x2="467.3" y2="195.2" stroke="#7bc96f" stroke-width="1.55" opacity="0.70" stroke-linecap="round"/>
<line x1="467.3" y1="195.2" x2="478.4" y2="173.9" stroke="#d29922" stroke-width="1.20" opacity="0.60" stroke-linecap="round"/>
<line x1="467.3" y1="195.2" x2="488.9" y2="197.8" stroke="#d29922" stroke-width="1.20" opacity="0.60" stroke-linecap="round"/>
<line x1="410.0" y1="410.0" x2="472.3" y2="325.5" stroke="#58a6ff" stroke-width="2.60" opacity="1.00" stroke-linecap="round"/>
<line x1="472.3" y1="325.5" x2="468.0" y2="258.1" stroke="#4f9ee0" stroke-width="2.25" opacity="0.90" stroke-linecap="round"/>
<line x1="468.0" y1="258.1" x2="446.2" y2="215.5" stroke="#3fb950" stroke-width="1.90" opacity="0.80" stroke-linecap="round"/>
<line x1="446.2" y1="215.5" x2="418.7" y2="199.3" stroke="#7bc96f" stroke-width="1.55" opacity="0.70" stroke-linecap="round"/>
<line x1="418.7" y1="199.3" x2="399.4" y2="192.8" stroke="#d29922" stroke-width="1.20" opacity="0.60" stroke-linecap="round"/>
<line x1="446.2" y1="215.5" x2="453.1" y2="185.2" stroke="#7bc96f" stroke-width="1.55" opacity="0.70" stroke-linecap="round"/>
<line x1="453.1" y1="185.2" x2="448.3" y2="165.1" stroke="#d29922" stroke-width="1.20" opacity="0.60" stroke-linecap="round"/>
<line x1="453.1" y1="185.2" x2="464.4" y2="168.3" stroke="#d29922" stroke-width="1.20" opacity="0.60" stroke-linecap="round"/>
<line x1="468.0" y1="258.1" x2="485.0" y2="218.7" stroke="#3fb950" stroke-width="1.90" opacity="0.80" stroke-linecap="round"/>
<line x1="485.0" y1="218.7" x2="484.9" y2="188.0" stroke="#7bc96f" stroke-width="1.55" opacity="0.70" stroke-linecap="round"/>
<line x1="484.9" y1="188.0" x2="490.3" y2="169.6" stroke="#d29922" stroke-width="1.20" opacity="0.60" stroke-linecap="round"/>
<line x1="485.0" y1="218.7" x2="504.9" y2="200.0" stroke="#7bc96f" stroke-width="1.55" opacity="0.70" stroke-linecap="round"/>
<line x1="504.9" y1="200.0" x2="520.4" y2="192.0" stroke="#d29922" stroke-width="1.20" opacity="0.60" stroke-linecap="round"/>
<line x1="472.3" y1="325.5" x2="537.6" y2="309.3" stroke="#4f9ee0" stroke-width="2.25" opacity="0.90" stroke-linecap="round"/>
<line x1="537.6" y1="309.3" x2="571.1" y2="281.5" stroke="#3fb950" stroke-width="1.90" opacity="0.80" stroke-linecap="round"/>
<line x1="571.1" y1="281.5" x2="581.6" y2="252.0" stroke="#7bc96f" stroke-width="1.55" opacity="0.70" stroke-linecap="round"/>
<line x1="581.6" y1="252.0" x2="579.8" y2="232.1" stroke="#d29922" stroke-width="1.20" opacity="0.60" stroke-linecap="round"/>
<line x1="581.6" y1="252.0" x2="598.3" y2="238.4" stroke="#d29922" stroke-width="1.20" opacity="0.60" stroke-linecap="round"/>
<line x1="571.1" y1="281.5" x2="601.8" y2="277.0" stroke="#7bc96f" stroke-width="1.55" opacity="0.70" stroke-linecap="round"/>
<line x1="601.8" y1="277.0" x2="623.9" y2="279.5" stroke="#d29922" stroke-width="1.20" opacity="0.60" stroke-linecap="round"/>
<line x1="537.6" y1="309.3" x2="584.3" y2="321.6" stroke="#3fb950" stroke-width="1.90" opacity="0.80" stroke-linecap="round"/>
<line x1="584.3" y1="321.6" x2="614.8" y2="314.6" stroke="#7bc96f" stroke-width="1.55" opacity="0.70" stroke-linecap="round"/>
<line x1="614.8" y1="314.6" x2="634.3" y2="312.6" stroke="#d29922" stroke-width="1.20" opacity="0.60" stroke-linecap="round"/>
<line x1="584.3" y1="321.6" x2="605.9" y2="347.2" stroke="#7bc96f" stroke-width="1.55" opacity="0.70" stroke-linecap="round"/>
<line x1="605.9" y1="347.2" x2="628.9" y2="350.5" stroke="#d29922" stroke-width="1.20" opacity="0.60" stroke-linecap="round"/>
<line x1="605.9" y1="347.2" x2="605.4" y2="368.7" stroke="#d29922" stroke-width="1.20" opacity="0.60" stroke-linecap="round"/>
<circle cx="514.9" cy="405.3" r="2.60" fill="#58a6ff" opacity="0.85"/>
<circle cx="570.0" cy="357.6" r="2.30" fill="#4f9ee0" opacity="0.85"/>
<circle cx="589.0" cy="313.3" r="2.00" fill="#3fb950" opacity="0.85"/>
<circle cx="586.3" cy="279.0" r="1.70" fill="#7bc96f" opacity="0.85"/>
<circle cx="612.6" cy="293.7" r="1.70" fill="#7bc96f" opacity="0.85"/>
<circle cx="618.8" cy="344.0" r="2.00" fill="#3fb950" opacity="0.85"/>
<circle cx="644.6" cy="319.1" r="1.70" fill="#7bc96f" opacity="0.85"/>
<circle cx="649.8" cy="350.4" r="1.70" fill="#7bc96f" opacity="0.85"/>
<circle cx="575.7" cy="441.1" r="2.30" fill="#4f9ee0" opacity="0.85"/>
<circle cx="621.5" cy="441.9" r="2.00" fill="#3fb950" opacity="0.85"/>
<circle cx="651.3" cy="429.9" r="1.70" fill="#7bc96f" opacity="0.85"/>
<circle cx="647.0" cy="456.1" r="1.70" fill="#7bc96f" opacity="0.85"/>
<circle cx="597.4" cy="483.2" r="2.00" fill="#3fb950" opacity="0.85"/>
<circle cx="624.0" cy="503.9" r="1.70" fill="#7bc96f" opacity="0.85"/>
<circle cx="596.7" cy="516.1" r="1.70" fill="#7bc96f" opacity="0.85"/>
<circle cx="477.4" cy="490.5" r="2.60" fill="#58a6ff" opacity="0.85"/>
<circle cx="545.5" cy="516.4" r="2.30" fill="#4f9ee0" opacity="0.85"/>
<circle cx="594.3" cy="513.2" r="2.00" fill="#3fb950" opacity="0.85"/>
<circle cx="620.3" cy="493.1" r="1.70" fill="#7bc96f" opacity="0.85"/>
<circle cx="619.9" cy="531.2" r="1.70" fill="#7bc96f" opacity="0.85"/>
<circle cx="580.1" cy="548.2" r="2.00" fill="#3fb950" opacity="0.85"/>
<circle cx="612.2" cy="553.3" r="1.70" fill="#7bc96f" opacity="0.85"/>
<circle cx="585.4" cy="577.5" r="1.70" fill="#7bc96f" opacity="0.85"/>
<circle cx="491.8" cy="556.4" r="2.30" fill="#4f9ee0" opacity="0.85"/>
<circle cx="521.3" cy="588.8" r="2.00" fill="#3fb950" opacity="0.85"/>
<circle cx="550.0" cy="596.6" r="1.70" fill="#7bc96f" opacity="0.85"/>
<circle cx="528.4" cy="618.8" r="1.70" fill="#7bc96f" opacity="0.85"/>
<circle cx="481.8" cy="599.7" r="2.00" fill="#3fb950" opacity="0.85"/>
<circle cx="488.8" cy="630.5" r="1.70" fill="#7bc96f" opacity="0.85"/>
<circle cx="460.1" cy="623.2" r="1.70" fill="#7bc96f" opacity="0.85"/>
<circle cx="391.4" cy="513.3" r="2.60" fill="#58a6ff" opacity="0.85"/>
<circle cx="411.2" cy="580.9" r="2.30" fill="#4f9ee0" opacity="0.85"/>
<circle cx="441.4" cy="618.9" r="2.00" fill="#3fb950" opacity="0.85"/>
<circle cx="474.1" cy="629.3" r="1.70" fill="#7bc96f" opacity="0.85"/>
<circle cx="440.5" cy="649.7" r="1.70" fill="#7bc96f" opacity="0.85"/>
<circle cx="403.8" cy="625.5" r="2.00" fill="#3fb950" opacity="0.85"/>
<circle cx="413.2" cy="654.6" r="1.70" fill="#7bc96f" opacity="0.85"/>
<circle cx="386.4" cy="650.0" r="1.70" fill="#7bc96f" opacity="0.85"/>
<circle cx="349.3" cy="573.2" r="2.30" fill="#4f9ee0" opacity="0.85"/>
<circle cx="351.5" cy="622.0" r="2.00" fill="#3fb950" opacity="0.85"/>
<circle cx="364.5" cy="650.3" r="1.70" fill="#7bc96f" opacity="0.85"/>
<circle cx="338.0" cy="654.0" r="1.70" fill="#7bc96f" opacity="0.85"/>
<circle cx="301.4" cy="591.4" r="2.00" fill="#3fb950" opacity="0.85"/>
<circle cx="281.7" cy="618.6" r="1.70" fill="#7bc96f" opacity="0.85"/>
<circle cx="270.0" cy="586.6" r="1.70" fill="#7bc96f" opacity="0.85"/>
<circle cx="314.1" cy="452.7" r="2.60" fill="#58a6ff" opacity="0.85"/>
<circle cx="270.9" cy="506.7" r="2.30" fill="#4f9ee0" opacity="0.85"/>
<circle cx="271.3" cy="550.4" r="2.00" fill="#3fb950" opacity="0.85"/>
<circle cx="283.0" cy="575.8" r="1.70" fill="#7bc96f" opacity="0.85"/>
<circle cx="258.5" cy="574.6" r="1.70" fill="#7bc96f" opacity="0.85"/>
<circle cx="226.7" cy="518.3" r="2.00" fill="#3fb950" opacity="0.85"/>
<circle cx="210.0" cy="542.9" r="1.70" fill="#7bc96f" opacity="0.85"/>
<circle cx="197.5" cy="508.1" r="1.70" fill="#7bc96f" opacity="0.85"/>
<circle cx="238.8" cy="450.8" r="2.30" fill="#4f9ee0" opacity="0.85"/>
<circle cx="197.8" cy="475.1" r="2.00" fill="#3fb950" opacity="0.85"/>
<circle cx="180.8" cy="502.0" r="1.70" fill="#7bc96f" opacity="0.85"/>
<circle cx="166.9" cy="476.6" r="1.70" fill="#7bc96f" opacity="0.85"/>
<circle cx="198.9" cy="423.8" r="2.00" fill="#3fb950" opacity="0.85"/>
<circle cx="165.4" cy="421.7" r="1.70" fill="#7bc96f" opacity="0.85"/>
<circle cx="184.0" cy="397.4" r="1.70" fill="#7bc96f" opacity="0.85"/>
<circle cx="318.4" cy="358.6" r="2.60" fill="#58a6ff" opacity="0.85"/>
<circle cx="253.6" cy="349.4" r="2.30" fill="#4f9ee0" opacity="0.85"/>
<circle cx="210.5" cy="368.4" r="2.00" fill="#3fb950" opacity="0.85"/>
<circle cx="195.6" cy="395.2" r="1.70" fill="#7bc96f" opacity="0.85"/>
<circle cx="180.9" cy="365.3" r="1.70" fill="#7bc96f" opacity="0.85"/>
<circle cx="221.6" cy="319.1" r="2.00" fill="#3fb950" opacity="0.85"/>
<circle cx="193.3" cy="310.9" r="1.70" fill="#7bc96f" opacity="0.85"/>
<circle cx="212.2" cy="292.0" r="1.70" fill="#7bc96f" opacity="0.85"/>
<circle cx="272.6" cy="301.6" r="2.30" fill="#4f9ee0" opacity="0.85"/>
<circle cx="229.0" cy="283.3" r="2.00" fill="#3fb950" opacity="0.85"/>
<circle cx="199.0" cy="284.7" r="1.70" fill="#7bc96f" opacity="0.85"/>
<circle cx="208.1" cy="257.6" r="1.70" fill="#7bc96f" opacity="0.85"/>
<circle cx="264.4" cy="253.0" r="2.00" fill="#3fb950" opacity="0.85"/>
<circle cx="241.8" cy="231.4" r="1.70" fill="#7bc96f" opacity="0.85"/>
<circle cx="275.5" cy="220.2" r="1.70" fill="#7bc96f" opacity="0.85"/>
<circle cx="382.1" cy="308.8" r="2.60" fill="#58a6ff" opacity="0.85"/>
<circle cx="323.5" cy="262.3" r="2.30" fill="#4f9ee0" opacity="0.85"/>
<circle cx="271.8" cy="256.4" r="2.00" fill="#3fb950" opacity="0.85"/>
<circle cx="236.6" cy="265.8" r="1.70" fill="#7bc96f" opacity="0.85"/>
<circle cx="243.6" cy="236.1" r="1.70" fill="#7bc96f" opacity="0.85"/>
<circle cx="309.4" cy="211.3" r="2.00" fill="#3fb950" opacity="0.85"/>
<circle cx="285.3" cy="187.6" r="1.70" fill="#7bc96f" opacity="0.85"/>
<circle cx="321.6" cy="179.0" r="1.70" fill="#7bc96f" opacity="0.85"/>
<circle cx="403.1" cy="243.1" r="2.30" fill="#4f9ee0" opacity="0.85"/>
<circle cx="395.5" cy="197.5" r="2.00" fill="#3fb950" opacity="0.85"/>
<circle cx="378.1" cy="173.7" r="1.70" fill="#7bc96f" opacity="0.85"/>
<circle cx="405.6" cy="168.8" r="1.70" fill="#7bc96f" opacity="0.85"/>
<circle cx="436.5" cy="208.8" r="2.00" fill="#3fb950" opacity="0.85"/>
<circle cx="448.2" cy="179.7" r="1.70" fill="#7bc96f" opacity="0.85"/>
<circle cx="467.3" cy="195.2" r="1.70" fill="#7bc96f" opacity="0.85"/>
<circle cx="472.3" cy="325.5" r="2.60" fill="#58a6ff" opacity="0.85"/>
<circle cx="468.0" cy="258.1" r="2.30" fill="#4f9ee0" opacity="0.85"/>
<circle cx="446.2" cy="215.5" r="2.00" fill="#3fb950" opacity="0.85"/>
<circle cx="418.7" cy="199.3" r="1.70" fill="#7bc96f" opacity="0.85"/>
<circle cx="453.1" cy="185.2" r="1.70" fill="#7bc96f" opacity="0.85"/>
<circle cx="485.0" cy="218.7" r="2.00" fill="#3fb950" opacity="0.85"/>
<circle cx="484.9" cy="188.0" r="1.70" fill="#7bc96f" opacity="0.85"/>
<circle cx="504.9" cy="200.0" r="1.70" fill="#7bc96f" opacity="0.85"/>
<circle cx="537.6" cy="309.3" r="2.30" fill="#4f9ee0" opacity="0.85"/>
<circle cx="571.1" cy="281.5" r="2.00" fill="#3fb950" opacity="0.85"/>
<circle cx="581.6" cy="252.0" r="1.70" fill="#7bc96f" opacity="0.85"/>
<circle cx="601.8" cy="277.0" r="1.70" fill="#7bc96f" opacity="0.85"/>
<circle cx="584.3" cy="321.6" r="2.00" fill="#3fb950" opacity="0.85"/>
<circle cx="614.8" cy="314.6" r="1.70" fill="#7bc96f" opacity="0.85"/>
<circle cx="605.9" cy="347.2" r="1.70" fill="#7bc96f" opacity="0.85"/>
<circle cx="592.3" cy="257.0" r="3" fill="none" stroke="#d29922" stroke-width="1" opacity="0.6"/>
<circle cx="629.6" cy="280.1" r="3" fill="none" stroke="#d29922" stroke-width="1" opacity="0.6"/>
<circle cx="650.2" cy="294.0" r="3" fill="none" stroke="#d29922" stroke-width="1" opacity="0.6"/>
<circle cx="670.2" cy="315.7" r="3" fill="none" stroke="#d29922" stroke-width="1" opacity="0.6"/>
<circle cx="670.2" cy="340.2" r="3" fill="none" stroke="#d29922" stroke-width="1" opacity="0.6"/>
<circle cx="664.5" cy="363.8" r="3" fill="none" stroke="#d29922" stroke-width="1" opacity="0.6"/>
<circle cx="671.2" cy="423.9" r="3" fill="none" stroke="#d29922" stroke-width="1" opacity="0.6"/>
<circle cx="667.8" cy="455.7" r="3" fill="none" stroke="#d29922" stroke-width="1" opacity="0.6"/>
<circle cx="659.1" cy="472.8" r="3" fill="none" stroke="#d29922" stroke-width="1" opacity="0.6"/>
<circle cx="640.7" cy="519.8" r="3" fill="none" stroke="#d29922" stroke-width="1" opacity="0.6"/>
<circle cx="609.3" cy="534.3" r="3" fill="none" stroke="#d29922" stroke-width="1" opacity="0.6"/>
<circle cx="582.7" cy="534.6" r="3" fill="none" stroke="#d29922" stroke-width="1" opacity="0.6"/>
<circle cx="633.2" cy="477.3" r="3" fill="none" stroke="#d29922" stroke-width="1" opacity="0.6"/>
<circle cx="640.4" cy="534.4" r="3" fill="none" stroke="#d29922" stroke-width="1" opacity="0.6"/>
<circle cx="630.3" cy="551.0" r="3" fill="none" stroke="#d29922" stroke-width="1" opacity="0.6"/>
<circle cx="632.1" cy="558.3" r="3" fill="none" stroke="#d29922" stroke-width="1" opacity="0.6"/>
<circle cx="597.4" cy="592.3" r="3" fill="none" stroke="#d29922" stroke-width="1" opacity="0.6"/>
<circle cx="577.5" cy="595.5" r="3" fill="none" stroke="#d29922" stroke-width="1" opacity="0.6"/>
<circle cx="569.5" cy="599.2" r="3" fill="none" stroke="#d29922" stroke-width="1" opacity="0.6"/>
<circle cx="534.9" cy="636.9" r="3" fill="none" stroke="#d29922" stroke-width="1" opacity="0.6"/>
<circle cx="493.9" cy="652.3" r="3" fill="none" stroke="#d29922" stroke-width="1" opacity="0.6"/>
<circle cx="443.4" cy="635.0" r="3" fill="none" stroke="#d29922" stroke-width="1" opacity="0.6"/>
<circle cx="492.8" cy="641.7" r="3" fill="none" stroke="#d29922" stroke-width="1" opacity="0.6"/>
<circle cx="452.5" cy="667.4" r="3" fill="none" stroke="#d29922" stroke-width="1" opacity="0.6"/>
<circle cx="427.5" cy="667.2" r="3" fill="none" stroke="#d29922" stroke-width="1" opacity="0.6"/>
<circle cx="429.0" cy="668.1" r="3" fill="none" stroke="#d29922" stroke-width="1" opacity="0.6"/>
<circle cx="407.0" cy="675.5" r="3" fill="none" stroke="#d29922" stroke-width="1" opacity="0.6"/>
<circle cx="383.5" cy="669.9" r="3" fill="none" stroke="#d29922" stroke-width="1" opacity="0.6"/>
<circle cx="369.2" cy="662.4" r="3" fill="none" stroke="#d29922" stroke-width="1" opacity="0.6"/>
<circle cx="374.6" cy="669.8" r="3" fill="none" stroke="#d29922" stroke-width="1" opacity="0.6"/>
<circle cx="341.3" cy="676.4" r="3" fill="none" stroke="#d29922" stroke-width="1" opacity="0.6"/>
<circle cx="318.2" cy="668.4" r="3" fill="none" stroke="#d29922" stroke-width="1" opacity="0.6"/>
<circle cx="268.4" cy="637.2" r="3" fill="none" stroke="#d29922" stroke-width="1" opacity="0.6"/>
<circle cx="247.5" cy="590.1" r="3" fill="none" stroke="#d29922" stroke-width="1" opacity="0.6"/>
<circle cx="295.2" cy="588.5" r="3" fill="none" stroke="#d29922" stroke-width="1" opacity="0.6"/>
<circle cx="258.7" cy="593.0" r="3" fill="none" stroke="#d29922" stroke-width="1" opacity="0.6"/>
<circle cx="243.1" cy="584.6" r="3" fill="none" stroke="#d29922" stroke-width="1" opacity="0.6"/>
<circle cx="200.4" cy="560.4" r="3" fill="none" stroke="#d29922" stroke-width="1" opacity="0.6"/>
<circle cx="175.8" cy="512.1" r="3" fill="none" stroke="#d29922" stroke-width="1" opacity="0.6"/>
<circle cx="185.5" cy="490.9" r="3" fill="none" stroke="#d29922" stroke-width="1" opacity="0.6"/>
<circle cx="168.4" cy="517.8" r="3" fill="none" stroke="#d29922" stroke-width="1" opacity="0.6"/>
<circle cx="147.0" cy="484.7" r="3" fill="none" stroke="#d29922" stroke-width="1" opacity="0.6"/>
<circle cx="145.9" cy="432.9" r="3" fill="none" stroke="#d29922" stroke-width="1" opacity="0.6"/>
<circle cx="146.2" cy="408.0" r="3" fill="none" stroke="#d29922" stroke-width="1" opacity="0.6"/>
<circle cx="169.7" cy="384.4" r="3" fill="none" stroke="#d29922" stroke-width="1" opacity="0.6"/>
<circle cx="196.2" cy="414.5" r="3" fill="none" stroke="#d29922" stroke-width="1" opacity="0.6"/>
<circle cx="178.8" cy="406.1" r="3" fill="none" stroke="#d29922" stroke-width="1" opacity="0.6"/>
<circle cx="160.2" cy="366.9" r="3" fill="none" stroke="#d29922" stroke-width="1" opacity="0.6"/>
<circle cx="174.4" cy="315.3" r="3" fill="none" stroke="#d29922" stroke-width="1" opacity="0.6"/>
<circle cx="180.9" cy="296.2" r="3" fill="none" stroke="#d29922" stroke-width="1" opacity="0.6"/>
<circle cx="196.8" cy="281.9" r="3" fill="none" stroke="#d29922" stroke-width="1" opacity="0.6"/>
<circle cx="219.1" cy="275.2" r="3" fill="none" stroke="#d29922" stroke-width="1" opacity="0.6"/>
<circle cx="180.4" cy="289.6" r="3" fill="none" stroke="#d29922" stroke-width="1" opacity="0.6"/>
<circle cx="185.1" cy="251.5" r="3" fill="none" stroke="#d29922" stroke-width="1" opacity="0.6"/>
<circle cx="206.7" cy="236.4" r="3" fill="none" stroke="#d29922" stroke-width="1" opacity="0.6"/>
<circle cx="219.5" cy="230.0" r="3" fill="none" stroke="#d29922" stroke-width="1" opacity="0.6"/>
<circle cx="238.3" cy="211.4" r="3" fill="none" stroke="#d29922" stroke-width="1" opacity="0.6"/>
<circle cx="269.1" cy="197.3" r="3" fill="none" stroke="#d29922" stroke-width="1" opacity="0.6"/>
<circle cx="294.1" cy="204.0" r="3" fill="none" stroke="#d29922" stroke-width="1" opacity="0.6"/>
<circle cx="217.4" cy="279.7" r="3" fill="none" stroke="#d29922" stroke-width="1" opacity="0.6"/>
<circle cx="212.3" cy="261.2" r="3" fill="none" stroke="#d29922" stroke-width="1" opacity="0.6"/>
<circle cx="220.1" cy="230.9" r="3" fill="none" stroke="#d29922" stroke-width="1" opacity="0.6"/>
<circle cx="232.9" cy="216.2" r="3" fill="none" stroke="#d29922" stroke-width="1" opacity="0.6"/>
<circle cx="264.2" cy="181.3" r="3" fill="none" stroke="#d29922" stroke-width="1" opacity="0.6"/>
<circle cx="280.2" cy="164.3" r="3" fill="none" stroke="#d29922" stroke-width="1" opacity="0.6"/>
<circle cx="322.4" cy="154.9" r="3" fill="none" stroke="#d29922" stroke-width="1" opacity="0.6"/>
<circle cx="362.7" cy="163.6" r="3" fill="none" stroke="#d29922" stroke-width="1" opacity="0.6"/>
<circle cx="373.2" cy="154.5" r="3" fill="none" stroke="#d29922" stroke-width="1" opacity="0.6"/>
<circle cx="413.0" cy="149.0" r="3" fill="none" stroke="#d29922" stroke-width="1" opacity="0.6"/>
<circle cx="442.9" cy="160.3" r="3" fill="none" stroke="#d29922" stroke-width="1" opacity="0.6"/>
<circle cx="466.8" cy="167.7" r="3" fill="none" stroke="#d29922" stroke-width="1" opacity="0.6"/>
<circle cx="478.4" cy="173.9" r="3" fill="none" stroke="#d29922" stroke-width="1" opacity="0.6"/>
<circle cx="488.9" cy="197.8" r="3" fill="none" stroke="#d29922" stroke-width="1" opacity="0.6"/>
<circle cx="399.4" cy="192.8" r="3" fill="none" stroke="#d29922" stroke-width="1" opacity="0.6"/>
<circle cx="448.3" cy="165.1" r="3" fill="none" stroke="#d29922" stroke-width="1" opacity="0.6"/>
<circle cx="464.4" cy="168.3" r="3" fill="none" stroke="#d29922" stroke-width="1" opacity="0.6"/>
<circle cx="490.3" cy="169.6" r="3" fill="none" stroke="#d29922" stroke-width="1" opacity="0.6"/>
<circle cx="520.4" cy="192.0" r="3" fill="none" stroke="#d29922" stroke-width="1" opacity="0.6"/>
<circle cx="579.8" cy="232.1" r="3" fill="none" stroke="#d29922" stroke-width="1" opacity="0.6"/>
<circle cx="598.3" cy="238.4" r="3" fill="none" stroke="#d29922" stroke-width="1" opacity="0.6"/>
<circle cx="623.9" cy="279.5" r="3" fill="none" stroke="#d29922" stroke-width="1" opacity="0.6"/>
<circle cx="634.3" cy="312.6" r="3" fill="none" stroke="#d29922" stroke-width="1" opacity="0.6"/>
<circle cx="628.9" cy="350.5" r="3" fill="none" stroke="#d29922" stroke-width="1" opacity="0.6"/>
<circle cx="605.4" cy="368.7" r="3" fill="none" stroke="#d29922" stroke-width="1" opacity="0.6"/>
<circle cx="410.0" cy="410.0" r="10" fill="#0d1117" stroke="#58a6ff" stroke-width="2"/>
<circle cx="410.0" cy="410.0" r="4" fill="#58a6ff"/>
<circle r="2.4" fill="#7ee787"><animateMotion dur="3.4s" begin="0.02s" repeatCount="indefinite" path="M481.8,599.7 L460.1,623.2"/></circle>
<circle r="2.4" fill="#f2cc60"><animateMotion dur="2.89s" begin="0.26s" repeatCount="indefinite" path="M309.4,211.3 L285.3,187.6"/></circle>
<circle r="2.4" fill="#79c0ff"><animateMotion dur="2.9s" begin="2.21s" repeatCount="indefinite" path="M271.8,256.4 L243.6,236.1"/></circle>
<circle r="2.4" fill="#7ee787"><animateMotion dur="3.88s" begin="0.6s" repeatCount="indefinite" path="M605.9,347.2 L605.4,368.7"/></circle>
<circle r="2.4" fill="#f2cc60"><animateMotion dur="2.68s" begin="1.2s" repeatCount="indefinite" path="M184.0,397.4 L169.7,384.4"/></circle>
<circle r="2.4" fill="#79c0ff"><animateMotion dur="2.2s" begin="0.11s" repeatCount="indefinite" path="M537.6,309.3 L584.3,321.6"/></circle>
<circle r="2.4" fill="#7ee787"><animateMotion dur="3.26s" begin="0.51s" repeatCount="indefinite" path="M448.2,179.7 L466.8,167.7"/></circle>
<text x="806" y="806" text-anchor="end" font-size="9" fill="#484f58" letter-spacing="1">// circuit_bloom.py — seed:20260719 — spokes:7 — regenerated daily</text>
</svg>