<svg viewBox="0 0 820 820" width="820" height="820" xmlns="http://www.w3.org/2000/svg" font-family="'Fira Code',monospace">
<defs>
<pattern id="g2" width="22" height="22" patternUnits="userSpaceOnUse">
<path d="M 22 0 L 0 0 0 22" fill="none" stroke="#30363d" stroke-width="0.4" opacity="0.3"/>
</pattern>
<radialGradient id="glow" cx="50%" cy="50%" r="50%">
<stop offset="0%" stop-color="#58a6ff" stop-opacity="0.35"/>
<stop offset="100%" stop-color="#58a6ff" stop-opacity="0"/>
</radialGradient>
</defs>
<rect x="0" y="0" width="820" height="820" fill="#0d1117"/>
<rect x="0" y="0" width="820" height="820" fill="url(#g2)"/>
<circle cx="410.0" cy="410.0" r="230" fill="url(#glow)"/>
<line x1="410.0" y1="410.0" x2="515.0" y2="408.9" stroke="#58a6ff" stroke-width="2.60" opacity="1.00" stroke-linecap="round"/>
<line x1="515.0" y1="408.9" x2="581.4" y2="374.9" stroke="#4f9ee0" stroke-width="2.25" opacity="0.90" stroke-linecap="round"/>
<line x1="581.4" y1="374.9" x2="600.1" y2="326.1" stroke="#3fb950" stroke-width="1.90" opacity="0.80" stroke-linecap="round"/>
<line x1="600.1" y1="326.1" x2="596.5" y2="288.7" stroke="#7bc96f" stroke-width="1.55" opacity="0.70" stroke-linecap="round"/>
<line x1="596.5" y1="288.7" x2="588.0" y2="266.8" stroke="#d29922" stroke-width="1.20" opacity="0.60" stroke-linecap="round"/>
<line x1="600.1" y1="326.1" x2="628.1" y2="304.1" stroke="#7bc96f" stroke-width="1.55" opacity="0.70" stroke-linecap="round"/>
<line x1="628.1" y1="304.1" x2="645.0" y2="287.4" stroke="#d29922" stroke-width="1.20" opacity="0.60" stroke-linecap="round"/>
<line x1="581.4" y1="374.9" x2="631.5" y2="385.1" stroke="#3fb950" stroke-width="1.90" opacity="0.80" stroke-linecap="round"/>
<line x1="631.5" y1="385.1" x2="665.9" y2="374.5" stroke="#7bc96f" stroke-width="1.55" opacity="0.70" stroke-linecap="round"/>
<line x1="665.9" y1="374.5" x2="681.6" y2="358.4" stroke="#d29922" stroke-width="1.20" opacity="0.60" stroke-linecap="round"/>
<line x1="665.9" y1="374.5" x2="690.0" y2="383.6" stroke="#d29922" stroke-width="1.20" opacity="0.60" stroke-linecap="round"/>
<line x1="631.5" y1="385.1" x2="657.7" y2="409.2" stroke="#7bc96f" stroke-width="1.55" opacity="0.70" stroke-linecap="round"/>
<line x1="657.7" y1="409.2" x2="676.2" y2="421.6" stroke="#d29922" stroke-width="1.20" opacity="0.60" stroke-linecap="round"/>
<line x1="515.0" y1="408.9" x2="579.8" y2="447.7" stroke="#4f9ee0" stroke-width="2.25" opacity="0.90" stroke-linecap="round"/>
<line x1="579.8" y1="447.7" x2="633.8" y2="447.2" stroke="#3fb950" stroke-width="1.90" opacity="0.80" stroke-linecap="round"/>
<line x1="633.8" y1="447.2" x2="668.0" y2="430.9" stroke="#7bc96f" stroke-width="1.55" opacity="0.70" stroke-linecap="round"/>
<line x1="668.0" y1="430.9" x2="684.3" y2="409.4" stroke="#d29922" stroke-width="1.20" opacity="0.60" stroke-linecap="round"/>
<line x1="668.0" y1="430.9" x2="692.6" y2="429.7" stroke="#d29922" stroke-width="1.20" opacity="0.60" stroke-linecap="round"/>
<line x1="633.8" y1="447.2" x2="663.4" y2="463.7" stroke="#7bc96f" stroke-width="1.55" opacity="0.70" stroke-linecap="round"/>
<line x1="663.4" y1="463.7" x2="683.3" y2="473.7" stroke="#d29922" stroke-width="1.20" opacity="0.60" stroke-linecap="round"/>
<line x1="579.8" y1="447.7" x2="604.7" y2="487.7" stroke="#3fb950" stroke-width="1.90" opacity="0.80" stroke-linecap="round"/>
<line x1="604.7" y1="487.7" x2="632.1" y2="500.6" stroke="#7bc96f" stroke-width="1.55" opacity="0.70" stroke-linecap="round"/>
<line x1="632.1" y1="500.6" x2="652.2" y2="508.5" stroke="#d29922" stroke-width="1.20" opacity="0.60" stroke-linecap="round"/>
<line x1="604.7" y1="487.7" x2="602.4" y2="519.6" stroke="#7bc96f" stroke-width="1.55" opacity="0.70" stroke-linecap="round"/>
<line x1="602.4" y1="519.6" x2="607.8" y2="539.4" stroke="#d29922" stroke-width="1.20" opacity="0.60" stroke-linecap="round"/>
<line x1="410.0" y1="410.0" x2="474.9" y2="492.6" stroke="#58a6ff" stroke-width="2.60" opacity="1.00" stroke-linecap="round"/>
<line x1="474.9" y1="492.6" x2="545.7" y2="507.0" stroke="#4f9ee0" stroke-width="2.25" opacity="0.90" stroke-linecap="round"/>
<line x1="545.7" y1="507.0" x2="593.4" y2="494.4" stroke="#3fb950" stroke-width="1.90" opacity="0.80" stroke-linecap="round"/>
<line x1="593.4" y1="494.4" x2="619.7" y2="473.7" stroke="#7bc96f" stroke-width="1.55" opacity="0.70" stroke-linecap="round"/>
<line x1="619.7" y1="473.7" x2="630.6" y2="455.3" stroke="#d29922" stroke-width="1.20" opacity="0.60" stroke-linecap="round"/>
<line x1="619.7" y1="473.7" x2="642.4" y2="468.5" stroke="#d29922" stroke-width="1.20" opacity="0.60" stroke-linecap="round"/>
<line x1="593.4" y1="494.4" x2="628.2" y2="500.6" stroke="#7bc96f" stroke-width="1.55" opacity="0.70" stroke-linecap="round"/>
<line x1="628.2" y1="500.6" x2="651.8" y2="493.9" stroke="#d29922" stroke-width="1.20" opacity="0.60" stroke-linecap="round"/>
<line x1="628.2" y1="500.6" x2="645.7" y2="515.3" stroke="#d29922" stroke-width="1.20" opacity="0.60" stroke-linecap="round"/>
<line x1="545.7" y1="507.0" x2="584.3" y2="538.0" stroke="#3fb950" stroke-width="1.90" opacity="0.80" stroke-linecap="round"/>
<line x1="584.3" y1="538.0" x2="616.4" y2="537.4" stroke="#7bc96f" stroke-width="1.55" opacity="0.70" stroke-linecap="round"/>
<line x1="616.4" y1="537.4" x2="636.5" y2="542.4" stroke="#d29922" stroke-width="1.20" opacity="0.60" stroke-linecap="round"/>
<line x1="584.3" y1="538.0" x2="595.3" y2="571.0" stroke="#7bc96f" stroke-width="1.55" opacity="0.70" stroke-linecap="round"/>
<line x1="595.3" y1="571.0" x2="606.4" y2="590.6" stroke="#d29922" stroke-width="1.20" opacity="0.60" stroke-linecap="round"/>
<line x1="474.9" y1="492.6" x2="474.6" y2="561.4" stroke="#4f9ee0" stroke-width="2.25" opacity="0.90" stroke-linecap="round"/>
<line x1="474.6" y1="561.4" x2="500.6" y2="603.4" stroke="#3fb950" stroke-width="1.90" opacity="0.80" stroke-linecap="round"/>
<line x1="500.6" y1="603.4" x2="532.0" y2="619.3" stroke="#7bc96f" stroke-width="1.55" opacity="0.70" stroke-linecap="round"/>
<line x1="532.0" y1="619.3" x2="552.7" y2="628.4" stroke="#d29922" stroke-width="1.20" opacity="0.60" stroke-linecap="round"/>
<line x1="500.6" y1="603.4" x2="497.8" y2="637.6" stroke="#7bc96f" stroke-width="1.55" opacity="0.70" stroke-linecap="round"/>
<line x1="497.8" y1="637.6" x2="502.8" y2="660.1" stroke="#d29922" stroke-width="1.20" opacity="0.60" stroke-linecap="round"/>
<line x1="474.6" y1="561.4" x2="448.6" y2="603.4" stroke="#3fb950" stroke-width="1.90" opacity="0.80" stroke-linecap="round"/>
<line x1="448.6" y1="603.4" x2="452.2" y2="637.5" stroke="#7bc96f" stroke-width="1.55" opacity="0.70" stroke-linecap="round"/>
<line x1="452.2" y1="637.5" x2="468.5" y2="654.0" stroke="#d29922" stroke-width="1.20" opacity="0.60" stroke-linecap="round"/>
<line x1="452.2" y1="637.5" x2="442.5" y2="657.1" stroke="#d29922" stroke-width="1.20" opacity="0.60" stroke-linecap="round"/>
<line x1="448.6" y1="603.4" x2="417.4" y2="615.8" stroke="#7bc96f" stroke-width="1.55" opacity="0.70" stroke-linecap="round"/>
<line x1="417.4" y1="615.8" x2="399.3" y2="626.9" stroke="#d29922" stroke-width="1.20" opacity="0.60" stroke-linecap="round"/>
<line x1="410.0" y1="410.0" x2="393.5" y2="513.7" stroke="#58a6ff" stroke-width="2.60" opacity="1.00" stroke-linecap="round"/>
<line x1="393.5" y1="513.7" x2="407.3" y2="583.7" stroke="#4f9ee0" stroke-width="2.25" opacity="0.90" stroke-linecap="round"/>
<line x1="407.3" y1="583.7" x2="445.1" y2="616.1" stroke="#3fb950" stroke-width="1.90" opacity="0.80" stroke-linecap="round"/>
<line x1="445.1" y1="616.1" x2="476.7" y2="621.5" stroke="#7bc96f" stroke-width="1.55" opacity="0.70" stroke-linecap="round"/>
<line x1="476.7" y1="621.5" x2="495.1" y2="613.5" stroke="#d29922" stroke-width="1.20" opacity="0.60" stroke-linecap="round"/>
<line x1="476.7" y1="621.5" x2="492.4" y2="637.5" stroke="#d29922" stroke-width="1.20" opacity="0.60" stroke-linecap="round"/>
<line x1="445.1" y1="616.1" x2="457.0" y2="648.8" stroke="#7bc96f" stroke-width="1.55" opacity="0.70" stroke-linecap="round"/>
<line x1="457.0" y1="648.8" x2="470.9" y2="669.0" stroke="#d29922" stroke-width="1.20" opacity="0.60" stroke-linecap="round"/>
<line x1="407.3" y1="583.7" x2="388.3" y2="626.9" stroke="#3fb950" stroke-width="1.90" opacity="0.80" stroke-linecap="round"/>
<line x1="388.3" y1="626.9" x2="391.9" y2="656.9" stroke="#7bc96f" stroke-width="1.55" opacity="0.70" stroke-linecap="round"/>
<line x1="391.9" y1="656.9" x2="406.6" y2="671.2" stroke="#d29922" stroke-width="1.20" opacity="0.60" stroke-linecap="round"/>
<line x1="391.9" y1="656.9" x2="380.4" y2="673.0" stroke="#d29922" stroke-width="1.20" opacity="0.60" stroke-linecap="round"/>
<line x1="388.3" y1="626.9" x2="364.9" y2="645.2" stroke="#7bc96f" stroke-width="1.55" opacity="0.70" stroke-linecap="round"/>
<line x1="364.9" y1="645.2" x2="355.9" y2="663.7" stroke="#d29922" stroke-width="1.20" opacity="0.60" stroke-linecap="round"/>
<line x1="364.9" y1="645.2" x2="345.2" y2="650.3" stroke="#d29922" stroke-width="1.20" opacity="0.60" stroke-linecap="round"/>
<line x1="393.5" y1="513.7" x2="352.0" y2="571.7" stroke="#4f9ee0" stroke-width="2.25" opacity="0.90" stroke-linecap="round"/>
<line x1="352.0" y1="571.7" x2="339.2" y2="619.2" stroke="#3fb950" stroke-width="1.90" opacity="0.80" stroke-linecap="round"/>
<line x1="339.2" y1="619.2" x2="350.1" y2="652.5" stroke="#7bc96f" stroke-width="1.55" opacity="0.70" stroke-linecap="round"/>
<line x1="350.1" y1="652.5" x2="360.6" y2="672.3" stroke="#d29922" stroke-width="1.20" opacity="0.60" stroke-linecap="round"/>
<line x1="339.2" y1="619.2" x2="316.5" y2="644.5" stroke="#7bc96f" stroke-width="1.55" opacity="0.70" stroke-linecap="round"/>
<line x1="316.5" y1="644.5" x2="311.9" y2="665.2" stroke="#d29922" stroke-width="1.20" opacity="0.60" stroke-linecap="round"/>
<line x1="316.5" y1="644.5" x2="293.6" y2="651.3" stroke="#d29922" stroke-width="1.20" opacity="0.60" stroke-linecap="round"/>
<line x1="352.0" y1="571.7" x2="315.0" y2="596.0" stroke="#3fb950" stroke-width="1.90" opacity="0.80" stroke-linecap="round"/>
<line x1="315.0" y1="596.0" x2="297.5" y2="618.9" stroke="#7bc96f" stroke-width="1.55" opacity="0.70" stroke-linecap="round"/>
<line x1="297.5" y1="618.9" x2="298.7" y2="638.6" stroke="#d29922" stroke-width="1.20" opacity="0.60" stroke-linecap="round"/>
<line x1="297.5" y1="618.9" x2="278.4" y2="624.4" stroke="#d29922" stroke-width="1.20" opacity="0.60" stroke-linecap="round"/>
<line x1="315.0" y1="596.0" x2="286.2" y2="601.4" stroke="#7bc96f" stroke-width="1.55" opacity="0.70" stroke-linecap="round"/>
<line x1="286.2" y1="601.4" x2="272.3" y2="615.8" stroke="#d29922" stroke-width="1.20" opacity="0.60" stroke-linecap="round"/>
<line x1="286.2" y1="601.4" x2="266.6" y2="595.2" stroke="#d29922" stroke-width="1.20" opacity="0.60" stroke-linecap="round"/>
<line x1="410.0" y1="410.0" x2="313.0" y2="450.2" stroke="#58a6ff" stroke-width="2.60" opacity="1.00" stroke-linecap="round"/>
<line x1="313.0" y1="450.2" x2="268.9" y2="508.7" stroke="#4f9ee0" stroke-width="2.25" opacity="0.90" stroke-linecap="round"/>
<line x1="268.9" y1="508.7" x2="258.8" y2="553.0" stroke="#3fb950" stroke-width="1.90" opacity="0.80" stroke-linecap="round"/>
<line x1="258.8" y1="553.0" x2="266.4" y2="581.0" stroke="#7bc96f" stroke-width="1.55" opacity="0.70" stroke-linecap="round"/>
<line x1="266.4" y1="581.0" x2="279.9" y2="596.3" stroke="#d29922" stroke-width="1.20" opacity="0.60" stroke-linecap="round"/>
<line x1="266.4" y1="581.0" x2="261.1" y2="601.1" stroke="#d29922" stroke-width="1.20" opacity="0.60" stroke-linecap="round"/>
<line x1="258.8" y1="553.0" x2="240.3" y2="577.9" stroke="#7bc96f" stroke-width="1.55" opacity="0.70" stroke-linecap="round"/>
<line x1="240.3" y1="577.9" x2="236.7" y2="599.1" stroke="#d29922" stroke-width="1.20" opacity="0.60" stroke-linecap="round"/>
<line x1="240.3" y1="577.9" x2="223.7" y2="588.1" stroke="#d29922" stroke-width="1.20" opacity="0.60" stroke-linecap="round"/>
<line x1="268.9" y1="508.7" x2="226.4" y2="532.4" stroke="#3fb950" stroke-width="1.90" opacity="0.80" stroke-linecap="round"/>
<line x1="226.4" y1="532.4" x2="212.7" y2="561.1" stroke="#7bc96f" stroke-width="1.55" opacity="0.70" stroke-linecap="round"/>
<line x1="212.7" y1="561.1" x2="201.2" y2="578.4" stroke="#d29922" stroke-width="1.20" opacity="0.60" stroke-linecap="round"/>
<line x1="226.4" y1="532.4" x2="192.5" y2="526.3" stroke="#7bc96f" stroke-width="1.55" opacity="0.70" stroke-linecap="round"/>
<line x1="192.5" y1="526.3" x2="170.5" y2="529.7" stroke="#d29922" stroke-width="1.20" opacity="0.60" stroke-linecap="round"/>
<line x1="313.0" y1="450.2" x2="248.8" y2="436.8" stroke="#4f9ee0" stroke-width="2.25" opacity="0.90" stroke-linecap="round"/>
<line x1="248.8" y1="436.8" x2="202.4" y2="444.6" stroke="#3fb950" stroke-width="1.90" opacity="0.80" stroke-linecap="round"/>
<line x1="202.4" y1="444.6" x2="180.5" y2="468.4" stroke="#7bc96f" stroke-width="1.55" opacity="0.70" stroke-linecap="round"/>
<line x1="180.5" y1="468.4" x2="166.6" y2="482.9" stroke="#d29922" stroke-width="1.20" opacity="0.60" stroke-linecap="round"/>
<line x1="202.4" y1="444.6" x2="174.6" y2="431.6" stroke="#7bc96f" stroke-width="1.55" opacity="0.70" stroke-linecap="round"/>
<line x1="174.6" y1="431.6" x2="155.4" y2="431.4" stroke="#d29922" stroke-width="1.20" opacity="0.60" stroke-linecap="round"/>
<line x1="174.6" y1="431.6" x2="161.9" y2="414.8" stroke="#d29922" stroke-width="1.20" opacity="0.60" stroke-linecap="round"/>
<line x1="248.8" y1="436.8" x2="213.7" y2="412.9" stroke="#3fb950" stroke-width="1.90" opacity="0.80" stroke-linecap="round"/>
<line x1="213.7" y1="412.9" x2="187.1" y2="413.7" stroke="#7bc96f" stroke-width="1.55" opacity="0.70" stroke-linecap="round"/>
<line x1="187.1" y1="413.7" x2="173.0" y2="423.5" stroke="#d29922" stroke-width="1.20" opacity="0.60" stroke-linecap="round"/>
<line x1="187.1" y1="413.7" x2="171.6" y2="404.8" stroke="#d29922" stroke-width="1.20" opacity="0.60" stroke-linecap="round"/>
<line x1="213.7" y1="412.9" x2="204.7" y2="383.7" stroke="#7bc96f" stroke-width="1.55" opacity="0.70" stroke-linecap="round"/>
<line x1="204.7" y1="383.7" x2="192.1" y2="369.1" stroke="#d29922" stroke-width="1.20" opacity="0.60" stroke-linecap="round"/>
<line x1="204.7" y1="383.7" x2="205.5" y2="363.9" stroke="#d29922" stroke-width="1.20" opacity="0.60" stroke-linecap="round"/>
<line x1="410.0" y1="410.0" x2="318.6" y2="358.4" stroke="#58a6ff" stroke-width="2.60" opacity="1.00" stroke-linecap="round"/>
<line x1="318.6" y1="358.4" x2="251.9" y2="366.6" stroke="#4f9ee0" stroke-width="2.25" opacity="0.90" stroke-linecap="round"/>
<line x1="251.9" y1="366.6" x2="220.6" y2="401.4" stroke="#3fb950" stroke-width="1.90" opacity="0.80" stroke-linecap="round"/>
<line x1="220.6" y1="401.4" x2="213.3" y2="432.1" stroke="#7bc96f" stroke-width="1.55" opacity="0.70" stroke-linecap="round"/>
<line x1="213.3" y1="432.1" x2="221.0" y2="451.6" stroke="#d29922" stroke-width="1.20" opacity="0.60" stroke-linecap="round"/>
<line x1="213.3" y1="432.1" x2="198.7" y2="445.8" stroke="#d29922" stroke-width="1.20" opacity="0.60" stroke-linecap="round"/>
<line x1="220.6" y1="401.4" x2="190.5" y2="416.2" stroke="#7bc96f" stroke-width="1.55" opacity="0.70" stroke-linecap="round"/>
<line x1="190.5" y1="416.2" x2="168.6" y2="426.0" stroke="#d29922" stroke-width="1.20" opacity="0.60" stroke-linecap="round"/>
<line x1="251.9" y1="366.6" x2="215.8" y2="345.8" stroke="#3fb950" stroke-width="1.90" opacity="0.80" stroke-linecap="round"/>
<line x1="215.8" y1="345.8" x2="189.0" y2="343.7" stroke="#7bc96f" stroke-width="1.55" opacity="0.70" stroke-linecap="round"/>
<line x1="189.0" y1="343.7" x2="170.8" y2="342.4" stroke="#d29922" stroke-width="1.20" opacity="0.60" stroke-linecap="round"/>
<line x1="215.8" y1="345.8" x2="198.1" y2="321.8" stroke="#7bc96f" stroke-width="1.55" opacity="0.70" stroke-linecap="round"/>
<line x1="198.1" y1="321.8" x2="178.2" y2="316.3" stroke="#d29922" stroke-width="1.20" opacity="0.60" stroke-linecap="round"/>
<line x1="198.1" y1="321.8" x2="197.3" y2="303.0" stroke="#d29922" stroke-width="1.20" opacity="0.60" stroke-linecap="round"/>
<line x1="318.6" y1="358.4" x2="285.8" y2="296.9" stroke="#4f9ee0" stroke-width="2.25" opacity="0.90" stroke-linecap="round"/>
<line x1="285.8" y1="296.9" x2="249.8" y2="264.9" stroke="#3fb950" stroke-width="1.90" opacity="0.80" stroke-linecap="round"/>
<line x1="249.8" y1="264.9" x2="218.0" y2="259.8" stroke="#7bc96f" stroke-width="1.55" opacity="0.70" stroke-linecap="round"/>
<line x1="218.0" y1="259.8" x2="195.4" y2="260.6" stroke="#d29922" stroke-width="1.20" opacity="0.60" stroke-linecap="round"/>
<line x1="249.8" y1="264.9" x2="239.9" y2="235.2" stroke="#7bc96f" stroke-width="1.55" opacity="0.70" stroke-linecap="round"/>
<line x1="239.9" y1="235.2" x2="226.9" y2="218.2" stroke="#d29922" stroke-width="1.20" opacity="0.60" stroke-linecap="round"/>
<line x1="285.8" y1="296.9" x2="279.6" y2="249.8" stroke="#3fb950" stroke-width="1.90" opacity="0.80" stroke-linecap="round"/>
<line x1="279.6" y1="249.8" x2="264.2" y2="219.6" stroke="#7bc96f" stroke-width="1.55" opacity="0.70" stroke-linecap="round"/>
<line x1="264.2" y1="219.6" x2="259.4" y2="198.3" stroke="#d29922" stroke-width="1.20" opacity="0.60" stroke-linecap="round"/>
<line x1="279.6" y1="249.8" x2="288.2" y2="217.1" stroke="#7bc96f" stroke-width="1.55" opacity="0.70" stroke-linecap="round"/>
<line x1="288.2" y1="217.1" x2="281.8" y2="195.7" stroke="#d29922" stroke-width="1.20" opacity="0.60" stroke-linecap="round"/>
<line x1="288.2" y1="217.1" x2="304.3" y2="203.2" stroke="#d29922" stroke-width="1.20" opacity="0.60" stroke-linecap="round"/>
<line x1="410.0" y1="410.0" x2="385.5" y2="307.9" stroke="#58a6ff" stroke-width="2.60" opacity="1.00" stroke-linecap="round"/>
<line x1="385.5" y1="307.9" x2="332.2" y2="258.5" stroke="#4f9ee0" stroke-width="2.25" opacity="0.90" stroke-linecap="round"/>
<line x1="332.2" y1="258.5" x2="286.9" y2="246.6" stroke="#3fb950" stroke-width="1.90" opacity="0.80" stroke-linecap="round"/>
<line x1="286.9" y1="246.6" x2="256.2" y2="252.3" stroke="#7bc96f" stroke-width="1.55" opacity="0.70" stroke-linecap="round"/>
<line x1="256.2" y1="252.3" x2="241.0" y2="266.2" stroke="#d29922" stroke-width="1.20" opacity="0.60" stroke-linecap="round"/>
<line x1="256.2" y1="252.3" x2="235.6" y2="244.6" stroke="#d29922" stroke-width="1.20" opacity="0.60" stroke-linecap="round"/>
<line x1="286.9" y1="246.6" x2="262.6" y2="229.8" stroke="#7bc96f" stroke-width="1.55" opacity="0.70" stroke-linecap="round"/>
<line x1="262.6" y1="229.8" x2="242.3" y2="223.8" stroke="#d29922" stroke-width="1.20" opacity="0.60" stroke-linecap="round"/>
<line x1="262.6" y1="229.8" x2="252.5" y2="211.8" stroke="#d29922" stroke-width="1.20" opacity="0.60" stroke-linecap="round"/>
<line x1="332.2" y1="258.5" x2="317.3" y2="212.9" stroke="#3fb950" stroke-width="1.90" opacity="0.80" stroke-linecap="round"/>
<line x1="317.3" y1="212.9" x2="290.6" y2="195.3" stroke="#7bc96f" stroke-width="1.55" opacity="0.70" stroke-linecap="round"/>
<line x1="290.6" y1="195.3" x2="268.1" y2="193.6" stroke="#d29922" stroke-width="1.20" opacity="0.60" stroke-linecap="round"/>
<line x1="290.6" y1="195.3" x2="280.6" y2="175.3" stroke="#d29922" stroke-width="1.20" opacity="0.60" stroke-linecap="round"/>
<line x1="317.3" y1="212.9" x2="326.3" y2="180.3" stroke="#7bc96f" stroke-width="1.55" opacity="0.70" stroke-linecap="round"/>
<line x1="326.3" y1="180.3" x2="322.6" y2="159.4" stroke="#d29922" stroke-width="1.20" opacity="0.60" stroke-linecap="round"/>
<line x1="326.3" y1="180.3" x2="342.1" y2="162.6" stroke="#d29922" stroke-width="1.20" opacity="0.60" stroke-linecap="round"/>
<line x1="385.5" y1="307.9" x2="411.1" y2="240.7" stroke="#4f9ee0" stroke-width="2.25" opacity="0.90" stroke-linecap="round"/>
<line x1="411.1" y1="240.7" x2="405.3" y2="189.4" stroke="#3fb950" stroke-width="1.90" opacity="0.80" stroke-linecap="round"/>
<line x1="405.3" y1="189.4" x2="383.6" y2="164.1" stroke="#7bc96f" stroke-width="1.55" opacity="0.70" stroke-linecap="round"/>
<line x1="383.6" y1="164.1" x2="361.2" y2="155.8" stroke="#d29922" stroke-width="1.20" opacity="0.60" stroke-linecap="round"/>
<line x1="383.6" y1="164.1" x2="378.7" y2="143.7" stroke="#d29922" stroke-width="1.20" opacity="0.60" stroke-linecap="round"/>
<line x1="405.3" y1="189.4" x2="424.9" y2="158.5" stroke="#7bc96f" stroke-width="1.55" opacity="0.70" stroke-linecap="round"/>
<line x1="424.9" y1="158.5" x2="423.1" y2="133.7" stroke="#d29922" stroke-width="1.20" opacity="0.60" stroke-linecap="round"/>
<line x1="424.9" y1="158.5" x2="447.3" y2="151.3" stroke="#d29922" stroke-width="1.20" opacity="0.60" stroke-linecap="round"/>
<line x1="411.1" y1="240.7" x2="451.2" y2="210.4" stroke="#3fb950" stroke-width="1.90" opacity="0.80" stroke-linecap="round"/>
<line x1="451.2" y1="210.4" x2="470.5" y2="182.2" stroke="#7bc96f" stroke-width="1.55" opacity="0.70" stroke-linecap="round"/>
<line x1="470.5" y1="182.2" x2="473.5" y2="159.5" stroke="#d29922" stroke-width="1.20" opacity="0.60" stroke-linecap="round"/>
<line x1="470.5" y1="182.2" x2="491.4" y2="174.2" stroke="#d29922" stroke-width="1.20" opacity="0.60" stroke-linecap="round"/>
<line x1="451.2" y1="210.4" x2="481.4" y2="202.4" stroke="#7bc96f" stroke-width="1.55" opacity="0.70" stroke-linecap="round"/>
<line x1="481.4" y1="202.4" x2="494.3" y2="187.9" stroke="#d29922" stroke-width="1.20" opacity="0.60" stroke-linecap="round"/>
<line x1="481.4" y1="202.4" x2="500.6" y2="208.8" stroke="#d29922" stroke-width="1.20" opacity="0.60" stroke-linecap="round"/>
<line x1="410.0" y1="410.0" x2="474.7" y2="327.3" stroke="#58a6ff" stroke-width="2.60" opacity="1.00" stroke-linecap="round"/>
<line x1="474.7" y1="327.3" x2="488.2" y2="261.7" stroke="#4f9ee0" stroke-width="2.25" opacity="0.90" stroke-linecap="round"/>
<line x1="488.2" y1="261.7" x2="475.4" y2="216.0" stroke="#3fb950" stroke-width="1.90" opacity="0.80" stroke-linecap="round"/>
<line x1="475.4" y1="216.0" x2="452.5" y2="193.7" stroke="#7bc96f" stroke-width="1.55" opacity="0.70" stroke-linecap="round"/>
<line x1="452.5" y1="193.7" x2="434.7" y2="181.9" stroke="#d29922" stroke-width="1.20" opacity="0.60" stroke-linecap="round"/>
<line x1="475.4" y1="216.0" x2="482.2" y2="186.6" stroke="#7bc96f" stroke-width="1.55" opacity="0.70" stroke-linecap="round"/>
<line x1="482.2" y1="186.6" x2="490.7" y2="168.4" stroke="#d29922" stroke-width="1.20" opacity="0.60" stroke-linecap="round"/>
<line x1="488.2" y1="261.7" x2="516.0" y2="227.0" stroke="#3fb950" stroke-width="1.90" opacity="0.80" stroke-linecap="round"/>
<line x1="516.0" y1="227.0" x2="520.8" y2="195.4" stroke="#7bc96f" stroke-width="1.55" opacity="0.70" stroke-linecap="round"/>
<line x1="520.8" y1="195.4" x2="523.2" y2="173.2" stroke="#d29922" stroke-width="1.20" opacity="0.60" stroke-linecap="round"/>
<line x1="516.0" y1="227.0" x2="544.3" y2="217.5" stroke="#7bc96f" stroke-width="1.55" opacity="0.70" stroke-linecap="round"/>
<line x1="544.3" y1="217.5" x2="555.7" y2="202.0" stroke="#d29922" stroke-width="1.20" opacity="0.60" stroke-linecap="round"/>
<line x1="544.3" y1="217.5" x2="561.7" y2="224.1" stroke="#d29922" stroke-width="1.20" opacity="0.60" stroke-linecap="round"/>
<line x1="474.7" y1="327.3" x2="535.9" y2="293.4" stroke="#4f9ee0" stroke-width="2.25" opacity="0.90" stroke-linecap="round"/>
<line x1="535.9" y1="293.4" x2="557.9" y2="253.9" stroke="#3fb950" stroke-width="1.90" opacity="0.80" stroke-linecap="round"/>
<line x1="557.9" y1="253.9" x2="558.5" y2="222.6" stroke="#7bc96f" stroke-width="1.55" opacity="0.70" stroke-linecap="round"/>
<line x1="558.5" y1="222.6" x2="549.0" y2="203.7" stroke="#d29922" stroke-width="1.20" opacity="0.60" stroke-linecap="round"/>
<line x1="558.5" y1="222.6" x2="567.9" y2="204.3" stroke="#d29922" stroke-width="1.20" opacity="0.60" stroke-linecap="round"/>
<line x1="557.9" y1="253.9" x2="580.5" y2="235.9" stroke="#7bc96f" stroke-width="1.55" opacity="0.70" stroke-linecap="round"/>
<line x1="580.5" y1="235.9" x2="589.9" y2="219.8" stroke="#d29922" stroke-width="1.20" opacity="0.60" stroke-linecap="round"/>
<line x1="580.5" y1="235.9" x2="598.9" y2="231.0" stroke="#d29922" stroke-width="1.20" opacity="0.60" stroke-linecap="round"/>
<line x1="535.9" y1="293.4" x2="579.9" y2="299.9" stroke="#3fb950" stroke-width="1.90" opacity="0.80" stroke-linecap="round"/>
<line x1="579.9" y1="299.9" x2="608.7" y2="288.8" stroke="#7bc96f" stroke-width="1.55" opacity="0.70" stroke-linecap="round"/>
<line x1="608.7" y1="288.8" x2="628.9" y2="286.5" stroke="#d29922" stroke-width="1.20" opacity="0.60" stroke-linecap="round"/>
<line x1="579.9" y1="299.9" x2="604.8" y2="318.3" stroke="#7bc96f" stroke-width="1.55" opacity="0.70" stroke-linecap="round"/>
<line x1="604.8" y1="318.3" x2="621.2" y2="329.8" stroke="#d29922" stroke-width="1.20" opacity="0.60" stroke-linecap="round"/>
<circle cx="515.0" cy="408.9" r="2.60" fill="#58a6ff" opacity="0.85"/>
<circle cx="581.4" cy="374.9" r="2.30" fill="#4f9ee0" opacity="0.85"/>
<circle cx="600.1" cy="326.1" r="2.00" fill="#3fb950" opacity="0.85"/>
<circle cx="596.5" cy="288.7" r="1.70" fill="#7bc96f" opacity="0.85"/>
<circle cx="628.1" cy="304.1" r="1.70" fill="#7bc96f" opacity="0.85"/>
<circle cx="631.5" cy="385.1" r="2.00" fill="#3fb950" opacity="0.85"/>
<circle cx="665.9" cy="374.5" r="1.70" fill="#7bc96f" opacity="0.85"/>
<circle cx="657.7" cy="409.2" r="1.70" fill="#7bc96f" opacity="0.85"/>
<circle cx="579.8" cy="447.7" r="2.30" fill="#4f9ee0" opacity="0.85"/>
<circle cx="633.8" cy="447.2" r="2.00" fill="#3fb950" opacity="0.85"/>
<circle cx="668.0" cy="430.9" r="1.70" fill="#7bc96f" opacity="0.85"/>
<circle cx="663.4" cy="463.7" r="1.70" fill="#7bc96f" opacity="0.85"/>
<circle cx="604.7" cy="487.7" r="2.00" fill="#3fb950" opacity="0.85"/>
<circle cx="632.1" cy="500.6" r="1.70" fill="#7bc96f" opacity="0.85"/>
<circle cx="602.4" cy="519.6" r="1.70" fill="#7bc96f" opacity="0.85"/>
<circle cx="474.9" cy="492.6" r="2.60" fill="#58a6ff" opacity="0.85"/>
<circle cx="545.7" cy="507.0" r="2.30" fill="#4f9ee0" opacity="0.85"/>
<circle cx="593.4" cy="494.4" r="2.00" fill="#3fb950" opacity="0.85"/>
<circle cx="619.7" cy="473.7" r="1.70" fill="#7bc96f" opacity="0.85"/>
<circle cx="628.2" cy="500.6" r="1.70" fill="#7bc96f" opacity="0.85"/>
<circle cx="584.3" cy="538.0" r="2.00" fill="#3fb950" opacity="0.85"/>
<circle cx="616.4" cy="537.4" r="1.70" fill="#7bc96f" opacity="0.85"/>
<circle cx="595.3" cy="571.0" r="1.70" fill="#7bc96f" opacity="0.85"/>
<circle cx="474.6" cy="561.4" r="2.30" fill="#4f9ee0" opacity="0.85"/>
<circle cx="500.6" cy="603.4" r="2.00" fill="#3fb950" opacity="0.85"/>
<circle cx="532.0" cy="619.3" r="1.70" fill="#7bc96f" opacity="0.85"/>
<circle cx="497.8" cy="637.6" r="1.70" fill="#7bc96f" opacity="0.85"/>
<circle cx="448.6" cy="603.4" r="2.00" fill="#3fb950" opacity="0.85"/>
<circle cx="452.2" cy="637.5" r="1.70" fill="#7bc96f" opacity="0.85"/>
<circle cx="417.4" cy="615.8" r="1.70" fill="#7bc96f" opacity="0.85"/>
<circle cx="393.5" cy="513.7" r="2.60" fill="#58a6ff" opacity="0.85"/>
<circle cx="407.3" cy="583.7" r="2.30" fill="#4f9ee0" opacity="0.85"/>
<circle cx="445.1" cy="616.1" r="2.00" fill="#3fb950" opacity="0.85"/>
<circle cx="476.7" cy="621.5" r="1.70" fill="#7bc96f" opacity="0.85"/>
<circle cx="457.0" cy="648.8" r="1.70" fill="#7bc96f" opacity="0.85"/>
<circle cx="388.3" cy="626.9" r="2.00" fill="#3fb950" opacity="0.85"/>
<circle cx="391.9" cy="656.9" r="1.70" fill="#7bc96f" opacity="0.85"/>
<circle cx="364.9" cy="645.2" r="1.70" fill="#7bc96f" opacity="0.85"/>
<circle cx="352.0" cy="571.7" r="2.30" fill="#4f9ee0" opacity="0.85"/>
<circle cx="339.2" cy="619.2" r="2.00" fill="#3fb950" opacity="0.85"/>
<circle cx="350.1" cy="652.5" r="1.70" fill="#7bc96f" opacity="0.85"/>
<circle cx="316.5" cy="644.5" r="1.70" fill="#7bc96f" opacity="0.85"/>
<circle cx="315.0" cy="596.0" r="2.00" fill="#3fb950" opacity="0.85"/>
<circle cx="297.5" cy="618.9" r="1.70" fill="#7bc96f" opacity="0.85"/>
<circle cx="286.2" cy="601.4" r="1.70" fill="#7bc96f" opacity="0.85"/>
<circle cx="313.0" cy="450.2" r="2.60" fill="#58a6ff" opacity="0.85"/>
<circle cx="268.9" cy="508.7" r="2.30" fill="#4f9ee0" opacity="0.85"/>
<circle cx="258.8" cy="553.0" r="2.00" fill="#3fb950" opacity="0.85"/>
<circle cx="266.4" cy="581.0" r="1.70" fill="#7bc96f" opacity="0.85"/>
<circle cx="240.3" cy="577.9" r="1.70" fill="#7bc96f" opacity="0.85"/>
<circle cx="226.4" cy="532.4" r="2.00" fill="#3fb950" opacity="0.85"/>
<circle cx="212.7" cy="561.1" r="1.70" fill="#7bc96f" opacity="0.85"/>
<circle cx="192.5" cy="526.3" r="1.70" fill="#7bc96f" opacity="0.85"/>
<circle cx="248.8" cy="436.8" r="2.30" fill="#4f9ee0" opacity="0.85"/>
<circle cx="202.4" cy="444.6" r="2.00" fill="#3fb950" opacity="0.85"/>
<circle cx="180.5" cy="468.4" r="1.70" fill="#7bc96f" opacity="0.85"/>
<circle cx="174.6" cy="431.6" r="1.70" fill="#7bc96f" opacity="0.85"/>
<circle cx="213.7" cy="412.9" r="2.00" fill="#3fb950" opacity="0.85"/>
<circle cx="187.1" cy="413.7" r="1.70" fill="#7bc96f" opacity="0.85"/>
<circle cx="204.7" cy="383.7" r="1.70" fill="#7bc96f" opacity="0.85"/>
<circle cx="318.6" cy="358.4" r="2.60" fill="#58a6ff" opacity="0.85"/>
<circle cx="251.9" cy="366.6" r="2.30" fill="#4f9ee0" opacity="0.85"/>
<circle cx="220.6" cy="401.4" r="2.00" fill="#3fb950" opacity="0.85"/>
<circle cx="213.3" cy="432.1" r="1.70" fill="#7bc96f" opacity="0.85"/>
<circle cx="190.5" cy="416.2" r="1.70" fill="#7bc96f" opacity="0.85"/>
<circle cx="215.8" cy="345.8" r="2.00" fill="#3fb950" opacity="0.85"/>
<circle cx="189.0" cy="343.7" r="1.70" fill="#7bc96f" opacity="0.85"/>
<circle cx="198.1" cy="321.8" r="1.70" fill="#7bc96f" opacity="0.85"/>
<circle cx="285.8" cy="296.9" r="2.30" fill="#4f9ee0" opacity="0.85"/>
<circle cx="249.8" cy="264.9" r="2.00" fill="#3fb950" opacity="0.85"/>
<circle cx="218.0" cy="259.8" r="1.70" fill="#7bc96f" opacity="0.85"/>
<circle cx="239.9" cy="235.2" r="1.70" fill="#7bc96f" opacity="0.85"/>
<circle cx="279.6" cy="249.8" r="2.00" fill="#3fb950" opacity="0.85"/>
<circle cx="264.2" cy="219.6" r="1.70" fill="#7bc96f" opacity="0.85"/>
<circle cx="288.2" cy="217.1" r="1.70" fill="#7bc96f" opacity="0.85"/>
<circle cx="385.5" cy="307.9" r="2.60" fill="#58a6ff" opacity="0.85"/>
<circle cx="332.2" cy="258.5" r="2.30" fill="#4f9ee0" opacity="0.85"/>
<circle cx="286.9" cy="246.6" r="2.00" fill="#3fb950" opacity="0.85"/>
<circle cx="256.2" cy="252.3" r="1.70" fill="#7bc96f" opacity="0.85"/>
<circle cx="262.6" cy="229.8" r="1.70" fill="#7bc96f" opacity="0.85"/>
<circle cx="317.3" cy="212.9" r="2.00" fill="#3fb950" opacity="0.85"/>
<circle cx="290.6" cy="195.3" r="1.70" fill="#7bc96f" opacity="0.85"/>
<circle cx="326.3" cy="180.3" r="1.70" fill="#7bc96f" opacity="0.85"/>
<circle cx="411.1" cy="240.7" r="2.30" fill="#4f9ee0" opacity="0.85"/>
<circle cx="405.3" cy="189.4" r="2.00" fill="#3fb950" opacity="0.85"/>
<circle cx="383.6" cy="164.1" r="1.70" fill="#7bc96f" opacity="0.85"/>
<circle cx="424.9" cy="158.5" r="1.70" fill="#7bc96f" opacity="0.85"/>
<circle cx="451.2" cy="210.4" r="2.00" fill="#3fb950" opacity="0.85"/>
<circle cx="470.5" cy="182.2" r="1.70" fill="#7bc96f" opacity="0.85"/>
<circle cx="481.4" cy="202.4" r="1.70" fill="#7bc96f" opacity="0.85"/>
<circle cx="474.7" cy="327.3" r="2.60" fill="#58a6ff" opacity="0.85"/>
<circle cx="488.2" cy="261.7" r="2.30" fill="#4f9ee0" opacity="0.85"/>
<circle cx="475.4" cy="216.0" r="2.00" fill="#3fb950" opacity="0.85"/>
<circle cx="452.5" cy="193.7" r="1.70" fill="#7bc96f" opacity="0.85"/>
<circle cx="482.2" cy="186.6" r="1.70" fill="#7bc96f" opacity="0.85"/>
<circle cx="516.0" cy="227.0" r="2.00" fill="#3fb950" opacity="0.85"/>
<circle cx="520.8" cy="195.4" r="1.70" fill="#7bc96f" opacity="0.85"/>
<circle cx="544.3" cy="217.5" r="1.70" fill="#7bc96f" opacity="0.85"/>
<circle cx="535.9" cy="293.4" r="2.30" fill="#4f9ee0" opacity="0.85"/>
<circle cx="557.9" cy="253.9" r="2.00" fill="#3fb950" opacity="0.85"/>
<circle cx="558.5" cy="222.6" r="1.70" fill="#7bc96f" opacity="0.85"/>
<circle cx="580.5" cy="235.9" r="1.70" fill="#7bc96f" opacity="0.85"/>
<circle cx="579.9" cy="299.9" r="2.00" fill="#3fb950" opacity="0.85"/>
<circle cx="608.7" cy="288.8" r="1.70" fill="#7bc96f" opacity="0.85"/>
<circle cx="604.8" cy="318.3" r="1.70" fill="#7bc96f" opacity="0.85"/>
<circle cx="588.0" cy="266.8" r="3" fill="none" stroke="#d29922" stroke-width="1" opacity="0.6"/>
<circle cx="645.0" cy="287.4" r="3" fill="none" stroke="#d29922" stroke-width="1" opacity="0.6"/>
<circle cx="681.6" cy="358.4" r="3" fill="none" stroke="#d29922" stroke-width="1" opacity="0.6"/>
<circle cx="690.0" cy="383.6" r="3" fill="none" stroke="#d29922" stroke-width="1" opacity="0.6"/>
<circle cx="676.2" cy="421.6" r="3" fill="none" stroke="#d29922" stroke-width="1" opacity="0.6"/>
<circle cx="684.3" cy="409.4" r="3" fill="none" stroke="#d29922" stroke-width="1" opacity="0.6"/>
<circle cx="692.6" cy="429.7" r="3" fill="none" stroke="#d29922" stroke-width="1" opacity="0.6"/>
<circle cx="683.3" cy="473.7" r="3" fill="none" stroke="#d29922" stroke-width="1" opacity="0.6"/>
<circle cx="652.2" cy="508.5" r="3" fill="none" stroke="#d29922" stroke-width="1" opacity="0.6"/>
<circle cx="607.8" cy="539.4" r="3" fill="none" stroke="#d29922" stroke-width="1" opacity="0.6"/>
<circle cx="630.6" cy="455.3" r="3" fill="none" stroke="#d29922" stroke-width="1" opacity="0.6"/>
<circle cx="642.4" cy="468.5" r="3" fill="none" stroke="#d29922" stroke-width="1" opacity="0.6"/>
<circle cx="651.8" cy="493.9" r="3" fill="none" stroke="#d29922" stroke-width="1" opacity="0.6"/>
<circle cx="645.7" cy="515.3" r="3" fill="none" stroke="#d29922" stroke-width="1" opacity="0.6"/>
<circle cx="636.5" cy="542.4" r="3" fill="none" stroke="#d29922" stroke-width="1" opacity="0.6"/>
<circle cx="606.4" cy="590.6" r="3" fill="none" stroke="#d29922" stroke-width="1" opacity="0.6"/>
<circle cx="552.7" cy="628.4" r="3" fill="none" stroke="#d29922" stroke-width="1" opacity="0.6"/>
<circle cx="502.8" cy="660.1" r="3" fill="none" stroke="#d29922" stroke-width="1" opacity="0.6"/>
<circle cx="468.5" cy="654.0" r="3" fill="none" stroke="#d29922" stroke-width="1" opacity="0.6"/>
<circle cx="442.5" cy="657.1" r="3" fill="none" stroke="#d29922" stroke-width="1" opacity="0.6"/>
<circle cx="399.3" cy="626.9" r="3" fill="none" stroke="#d29922" stroke-width="1" opacity="0.6"/>
<circle cx="495.1" cy="613.5" r="3" fill="none" stroke="#d29922" stroke-width="1" opacity="0.6"/>
<circle cx="492.4" cy="637.5" r="3" fill="none" stroke="#d29922" stroke-width="1" opacity="0.6"/>
<circle cx="470.9" cy="669.0" r="3" fill="none" stroke="#d29922" stroke-width="1" opacity="0.6"/>
<circle cx="406.6" cy="671.2" r="3" fill="none" stroke="#d29922" stroke-width="1" opacity="0.6"/>
<circle cx="380.4" cy="673.0" r="3" fill="none" stroke="#d29922" stroke-width="1" opacity="0.6"/>
<circle cx="355.9" cy="663.7" r="3" fill="none" stroke="#d29922" stroke-width="1" opacity="0.6"/>
<circle cx="345.2" cy="650.3" r="3" fill="none" stroke="#d29922" stroke-width="1" opacity="0.6"/>
<circle cx="360.6" cy="672.3" r="3" fill="none" stroke="#d29922" stroke-width="1" opacity="0.6"/>
<circle cx="311.9" cy="665.2" r="3" fill="none" stroke="#d29922" stroke-width="1" opacity="0.6"/>
<circle cx="293.6" cy="651.3" r="3" fill="none" stroke="#d29922" stroke-width="1" opacity="0.6"/>
<circle cx="298.7" cy="638.6" r="3" fill="none" stroke="#d29922" stroke-width="1" opacity="0.6"/>
<circle cx="278.4" cy="624.4" r="3" fill="none" stroke="#d29922" stroke-width="1" opacity="0.6"/>
<circle cx="272.3" cy="615.8" r="3" fill="none" stroke="#d29922" stroke-width="1" opacity="0.6"/>
<circle cx="266.6" cy="595.2" r="3" fill="none" stroke="#d29922" stroke-width="1" opacity="0.6"/>
<circle cx="279.9" cy="596.3" r="3" fill="none" stroke="#d29922" stroke-width="1" opacity="0.6"/>
<circle cx="261.1" cy="601.1" r="3" fill="none" stroke="#d29922" stroke-width="1" opacity="0.6"/>
<circle cx="236.7" cy="599.1" r="3" fill="none" stroke="#d29922" stroke-width="1" opacity="0.6"/>
<circle cx="223.7" cy="588.1" r="3" fill="none" stroke="#d29922" stroke-width="1" opacity="0.6"/>
<circle cx="201.2" cy="578.4" r="3" fill="none" stroke="#d29922" stroke-width="1" opacity="0.6"/>
<circle cx="170.5" cy="529.7" r="3" fill="none" stroke="#d29922" stroke-width="1" opacity="0.6"/>
<circle cx="166.6" cy="482.9" r="3" fill="none" stroke="#d29922" stroke-width="1" opacity="0.6"/>
<circle cx="155.4" cy="431.4" r="3" fill="none" stroke="#d29922" stroke-width="1" opacity="0.6"/>
<circle cx="161.9" cy="414.8" r="3" fill="none" stroke="#d29922" stroke-width="1" opacity="0.6"/>
<circle cx="173.0" cy="423.5" r="3" fill="none" stroke="#d29922" stroke-width="1" opacity="0.6"/>
<circle cx="171.6" cy="404.8" r="3" fill="none" stroke="#d29922" stroke-width="1" opacity="0.6"/>
<circle cx="192.1" cy="369.1" r="3" fill="none" stroke="#d29922" stroke-width="1" opacity="0.6"/>
<circle cx="205.5" cy="363.9" r="3" fill="none" stroke="#d29922" stroke-width="1" opacity="0.6"/>
<circle cx="221.0" cy="451.6" r="3" fill="none" stroke="#d29922" stroke-width="1" opacity="0.6"/>
<circle cx="198.7" cy="445.8" r="3" fill="none" stroke="#d29922" stroke-width="1" opacity="0.6"/>
<circle cx="168.6" cy="426.0" r="3" fill="none" stroke="#d29922" stroke-width="1" opacity="0.6"/>
<circle cx="170.8" cy="342.4" r="3" fill="none" stroke="#d29922" stroke-width="1" opacity="0.6"/>
<circle cx="178.2" cy="316.3" r="3" fill="none" stroke="#d29922" stroke-width="1" opacity="0.6"/>
<circle cx="197.3" cy="303.0" r="3" fill="none" stroke="#d29922" stroke-width="1" opacity="0.6"/>
<circle cx="195.4" cy="260.6" r="3" fill="none" stroke="#d29922" stroke-width="1" opacity="0.6"/>
<circle cx="226.9" cy="218.2" r="3" fill="none" stroke="#d29922" stroke-width="1" opacity="0.6"/>
<circle cx="259.4" cy="198.3" r="3" fill="none" stroke="#d29922" stroke-width="1" opacity="0.6"/>
<circle cx="281.8" cy="195.7" r="3" fill="none" stroke="#d29922" stroke-width="1" opacity="0.6"/>
<circle cx="304.3" cy="203.2" r="3" fill="none" stroke="#d29922" stroke-width="1" opacity="0.6"/>
<circle cx="241.0" cy="266.2" r="3" fill="none" stroke="#d29922" stroke-width="1" opacity="0.6"/>
<circle cx="235.6" cy="244.6" r="3" fill="none" stroke="#d29922" stroke-width="1" opacity="0.6"/>
<circle cx="242.3" cy="223.8" r="3" fill="none" stroke="#d29922" stroke-width="1" opacity="0.6"/>
<circle cx="252.5" cy="211.8" r="3" fill="none" stroke="#d29922" stroke-width="1" opacity="0.6"/>
<circle cx="268.1" cy="193.6" r="3" fill="none" stroke="#d29922" stroke-width="1" opacity="0.6"/>
<circle cx="280.6" cy="175.3" r="3" fill="none" stroke="#d29922" stroke-width="1" opacity="0.6"/>
<circle cx="322.6" cy="159.4" r="3" fill="none" stroke="#d29922" stroke-width="1" opacity="0.6"/>
<circle cx="342.1" cy="162.6" r="3" fill="none" stroke="#d29922" stroke-width="1" opacity="0.6"/>
<circle cx="361.2" cy="155.8" r="3" fill="none" stroke="#d29922" stroke-width="1" opacity="0.6"/>
<circle cx="378.7" cy="143.7" r="3" fill="none" stroke="#d29922" stroke-width="1" opacity="0.6"/>
<circle cx="423.1" cy="133.7" r="3" fill="none" stroke="#d29922" stroke-width="1" opacity="0.6"/>
<circle cx="447.3" cy="151.3" r="3" fill="none" stroke="#d29922" stroke-width="1" opacity="0.6"/>
<circle cx="473.5" cy="159.5" r="3" fill="none" stroke="#d29922" stroke-width="1" opacity="0.6"/>
<circle cx="491.4" cy="174.2" r="3" fill="none" stroke="#d29922" stroke-width="1" opacity="0.6"/>
<circle cx="494.3" cy="187.9" r="3" fill="none" stroke="#d29922" stroke-width="1" opacity="0.6"/>
<circle cx="500.6" cy="208.8" r="3" fill="none" stroke="#d29922" stroke-width="1" opacity="0.6"/>
<circle cx="434.7" cy="181.9" r="3" fill="none" stroke="#d29922" stroke-width="1" opacity="0.6"/>
<circle cx="490.7" cy="168.4" r="3" fill="none" stroke="#d29922" stroke-width="1" opacity="0.6"/>
<circle cx="523.2" cy="173.2" r="3" fill="none" stroke="#d29922" stroke-width="1" opacity="0.6"/>
<circle cx="555.7" cy="202.0" r="3" fill="none" stroke="#d29922" stroke-width="1" opacity="0.6"/>
<circle cx="561.7" cy="224.1" r="3" fill="none" stroke="#d29922" stroke-width="1" opacity="0.6"/>
<circle cx="549.0" cy="203.7" r="3" fill="none" stroke="#d29922" stroke-width="1" opacity="0.6"/>
<circle cx="567.9" cy="204.3" r="3" fill="none" stroke="#d29922" stroke-width="1" opacity="0.6"/>
<circle cx="589.9" cy="219.8" r="3" fill="none" stroke="#d29922" stroke-width="1" opacity="0.6"/>
<circle cx="598.9" cy="231.0" r="3" fill="none" stroke="#d29922" stroke-width="1" opacity="0.6"/>
<circle cx="628.9" cy="286.5" r="3" fill="none" stroke="#d29922" stroke-width="1" opacity="0.6"/>
<circle cx="621.2" cy="329.8" r="3" fill="none" stroke="#d29922" stroke-width="1" opacity="0.6"/>
<circle cx="410.0" cy="410.0" r="10" fill="#0d1117" stroke="#58a6ff" stroke-width="2"/>
<circle cx="410.0" cy="410.0" r="4" fill="#58a6ff"/>
<circle r="2.4" fill="#7ee787"><animateMotion dur="3.5s" begin="2.06s" repeatCount="indefinite" path="M290.6,195.3 L280.6,175.3"/></circle>
<circle r="2.4" fill="#f2cc60"><animateMotion dur="3.5s" begin="0.22s" repeatCount="indefinite" path="M410.0,410.0 L313.0,450.2"/></circle>
<circle r="2.4" fill="#79c0ff"><animateMotion dur="2.94s" begin="0.24s" repeatCount="indefinite" path="M213.7,412.9 L204.7,383.7"/></circle>
<circle r="2.4" fill="#7ee787"><animateMotion dur="2.83s" begin="1.92s" repeatCount="indefinite" path="M240.3,577.9 L223.7,588.1"/></circle>
<circle r="2.4" fill="#f2cc60"><animateMotion dur="2.21s" begin="0.44s" repeatCount="indefinite" path="M411.1,240.7 L451.2,210.4"/></circle>
<circle r="2.4" fill="#79c0ff"><animateMotion dur="3.34s" begin="1.98s" repeatCount="indefinite" path="M579.9,299.9 L604.8,318.3"/></circle>
<circle r="2.4" fill="#7ee787"><animateMotion dur="3.3s" begin="2.12s" repeatCount="indefinite" path="M424.9,158.5 L423.1,133.7"/></circle>
<text x="806" y="806" text-anchor="end" font-size="9" fill="#484f58" letter-spacing="1">// circuit_bloom.py — seed:20260801 — spokes:7 — regenerated daily</text>
</svg>