<svg viewBox="0 0 820 820" width="820" height="820" xmlns="http://www.w3.org/2000/svg" font-family="'Fira Code',monospace">
<defs>
<pattern id="g2" width="22" height="22" patternUnits="userSpaceOnUse">
<path d="M 22 0 L 0 0 0 22" fill="none" stroke="#30363d" stroke-width="0.4" opacity="0.3"/>
</pattern>
<radialGradient id="glow" cx="50%" cy="50%" r="50%">
<stop offset="0%" stop-color="#58a6ff" stop-opacity="0.35"/>
<stop offset="100%" stop-color="#58a6ff" stop-opacity="0"/>
</radialGradient>
</defs>
<rect x="0" y="0" width="820" height="820" fill="#0d1117"/>
<rect x="0" y="0" width="820" height="820" fill="url(#g2)"/>
<circle cx="410.0" cy="410.0" r="230" fill="url(#glow)"/>
<line x1="410.0" y1="410.0" x2="514.8" y2="415.8" stroke="#58a6ff" stroke-width="2.60" opacity="1.00" stroke-linecap="round"/>
<line x1="514.8" y1="415.8" x2="574.3" y2="374.2" stroke="#4f9ee0" stroke-width="2.25" opacity="0.90" stroke-linecap="round"/>
<line x1="574.3" y1="374.2" x2="592.7" y2="326.5" stroke="#3fb950" stroke-width="1.90" opacity="0.80" stroke-linecap="round"/>
<line x1="592.7" y1="326.5" x2="582.4" y2="296.1" stroke="#7bc96f" stroke-width="1.55" opacity="0.70" stroke-linecap="round"/>
<line x1="582.4" y1="296.1" x2="577.0" y2="276.5" stroke="#d29922" stroke-width="1.20" opacity="0.60" stroke-linecap="round"/>
<line x1="592.7" y1="326.5" x2="621.1" y2="310.1" stroke="#7bc96f" stroke-width="1.55" opacity="0.70" stroke-linecap="round"/>
<line x1="621.1" y1="310.1" x2="631.0" y2="289.9" stroke="#d29922" stroke-width="1.20" opacity="0.60" stroke-linecap="round"/>
<line x1="621.1" y1="310.1" x2="642.2" y2="311.0" stroke="#d29922" stroke-width="1.20" opacity="0.60" stroke-linecap="round"/>
<line x1="574.3" y1="374.2" x2="624.7" y2="367.4" stroke="#3fb950" stroke-width="1.90" opacity="0.80" stroke-linecap="round"/>
<line x1="624.7" y1="367.4" x2="646.8" y2="341.7" stroke="#7bc96f" stroke-width="1.55" opacity="0.70" stroke-linecap="round"/>
<line x1="646.8" y1="341.7" x2="661.5" y2="326.5" stroke="#d29922" stroke-width="1.20" opacity="0.60" stroke-linecap="round"/>
<line x1="624.7" y1="367.4" x2="656.7" y2="385.0" stroke="#7bc96f" stroke-width="1.55" opacity="0.70" stroke-linecap="round"/>
<line x1="656.7" y1="385.0" x2="677.4" y2="397.8" stroke="#d29922" stroke-width="1.20" opacity="0.60" stroke-linecap="round"/>
<line x1="514.8" y1="415.8" x2="571.9" y2="465.4" stroke="#4f9ee0" stroke-width="2.25" opacity="0.90" stroke-linecap="round"/>
<line x1="571.9" y1="465.4" x2="625.6" y2="465.8" stroke="#3fb950" stroke-width="1.90" opacity="0.80" stroke-linecap="round"/>
<line x1="625.6" y1="465.8" x2="653.4" y2="441.8" stroke="#7bc96f" stroke-width="1.55" opacity="0.70" stroke-linecap="round"/>
<line x1="653.4" y1="441.8" x2="669.3" y2="423.6" stroke="#d29922" stroke-width="1.20" opacity="0.60" stroke-linecap="round"/>
<line x1="625.6" y1="465.8" x2="656.4" y2="488.1" stroke="#7bc96f" stroke-width="1.55" opacity="0.70" stroke-linecap="round"/>
<line x1="656.4" y1="488.1" x2="682.7" y2="488.5" stroke="#d29922" stroke-width="1.20" opacity="0.60" stroke-linecap="round"/>
<line x1="656.4" y1="488.1" x2="662.1" y2="511.2" stroke="#d29922" stroke-width="1.20" opacity="0.60" stroke-linecap="round"/>
<line x1="571.9" y1="465.4" x2="579.6" y2="518.0" stroke="#3fb950" stroke-width="1.90" opacity="0.80" stroke-linecap="round"/>
<line x1="579.6" y1="518.0" x2="604.0" y2="544.5" stroke="#7bc96f" stroke-width="1.55" opacity="0.70" stroke-linecap="round"/>
<line x1="604.0" y1="544.5" x2="627.3" y2="554.4" stroke="#d29922" stroke-width="1.20" opacity="0.60" stroke-linecap="round"/>
<line x1="604.0" y1="544.5" x2="611.0" y2="565.8" stroke="#d29922" stroke-width="1.20" opacity="0.60" stroke-linecap="round"/>
<line x1="579.6" y1="518.0" x2="563.3" y2="552.1" stroke="#7bc96f" stroke-width="1.55" opacity="0.70" stroke-linecap="round"/>
<line x1="563.3" y1="552.1" x2="565.1" y2="577.7" stroke="#d29922" stroke-width="1.20" opacity="0.60" stroke-linecap="round"/>
<line x1="563.3" y1="552.1" x2="539.6" y2="564.3" stroke="#d29922" stroke-width="1.20" opacity="0.60" stroke-linecap="round"/>
<line x1="410.0" y1="410.0" x2="472.4" y2="494.5" stroke="#58a6ff" stroke-width="2.60" opacity="1.00" stroke-linecap="round"/>
<line x1="472.4" y1="494.5" x2="533.7" y2="522.3" stroke="#4f9ee0" stroke-width="2.25" opacity="0.90" stroke-linecap="round"/>
<line x1="533.7" y1="522.3" x2="580.2" y2="515.1" stroke="#3fb950" stroke-width="1.90" opacity="0.80" stroke-linecap="round"/>
<line x1="580.2" y1="515.1" x2="605.6" y2="494.6" stroke="#7bc96f" stroke-width="1.55" opacity="0.70" stroke-linecap="round"/>
<line x1="605.6" y1="494.6" x2="613.9" y2="473.5" stroke="#d29922" stroke-width="1.20" opacity="0.60" stroke-linecap="round"/>
<line x1="605.6" y1="494.6" x2="627.2" y2="490.7" stroke="#d29922" stroke-width="1.20" opacity="0.60" stroke-linecap="round"/>
<line x1="580.2" y1="515.1" x2="606.2" y2="529.6" stroke="#7bc96f" stroke-width="1.55" opacity="0.70" stroke-linecap="round"/>
<line x1="606.2" y1="529.6" x2="626.4" y2="531.4" stroke="#d29922" stroke-width="1.20" opacity="0.60" stroke-linecap="round"/>
<line x1="606.2" y1="529.6" x2="617.2" y2="545.1" stroke="#d29922" stroke-width="1.20" opacity="0.60" stroke-linecap="round"/>
<line x1="533.7" y1="522.3" x2="555.7" y2="563.5" stroke="#3fb950" stroke-width="1.90" opacity="0.80" stroke-linecap="round"/>
<line x1="555.7" y1="563.5" x2="581.0" y2="577.7" stroke="#7bc96f" stroke-width="1.55" opacity="0.70" stroke-linecap="round"/>
<line x1="581.0" y1="577.7" x2="595.4" y2="591.5" stroke="#d29922" stroke-width="1.20" opacity="0.60" stroke-linecap="round"/>
<line x1="555.7" y1="563.5" x2="554.7" y2="593.9" stroke="#7bc96f" stroke-width="1.55" opacity="0.70" stroke-linecap="round"/>
<line x1="554.7" y1="593.9" x2="555.4" y2="614.0" stroke="#d29922" stroke-width="1.20" opacity="0.60" stroke-linecap="round"/>
<line x1="472.4" y1="494.5" x2="472.7" y2="561.7" stroke="#4f9ee0" stroke-width="2.25" opacity="0.90" stroke-linecap="round"/>
<line x1="472.7" y1="561.7" x2="495.1" y2="599.0" stroke="#3fb950" stroke-width="1.90" opacity="0.80" stroke-linecap="round"/>
<line x1="495.1" y1="599.0" x2="521.6" y2="614.8" stroke="#7bc96f" stroke-width="1.55" opacity="0.70" stroke-linecap="round"/>
<line x1="521.6" y1="614.8" x2="541.5" y2="613.9" stroke="#d29922" stroke-width="1.20" opacity="0.60" stroke-linecap="round"/>
<line x1="521.6" y1="614.8" x2="532.5" y2="633.2" stroke="#d29922" stroke-width="1.20" opacity="0.60" stroke-linecap="round"/>
<line x1="495.1" y1="599.0" x2="498.7" y2="626.6" stroke="#7bc96f" stroke-width="1.55" opacity="0.70" stroke-linecap="round"/>
<line x1="498.7" y1="626.6" x2="509.3" y2="642.2" stroke="#d29922" stroke-width="1.20" opacity="0.60" stroke-linecap="round"/>
<line x1="498.7" y1="626.6" x2="492.9" y2="643.8" stroke="#d29922" stroke-width="1.20" opacity="0.60" stroke-linecap="round"/>
<line x1="472.7" y1="561.7" x2="444.8" y2="599.7" stroke="#3fb950" stroke-width="1.90" opacity="0.80" stroke-linecap="round"/>
<line x1="444.8" y1="599.7" x2="443.6" y2="631.6" stroke="#7bc96f" stroke-width="1.55" opacity="0.70" stroke-linecap="round"/>
<line x1="443.6" y1="631.6" x2="439.8" y2="653.1" stroke="#d29922" stroke-width="1.20" opacity="0.60" stroke-linecap="round"/>
<line x1="444.8" y1="599.7" x2="414.5" y2="612.0" stroke="#7bc96f" stroke-width="1.55" opacity="0.70" stroke-linecap="round"/>
<line x1="414.5" y1="612.0" x2="404.5" y2="632.7" stroke="#d29922" stroke-width="1.20" opacity="0.60" stroke-linecap="round"/>
<line x1="414.5" y1="612.0" x2="393.7" y2="604.7" stroke="#d29922" stroke-width="1.20" opacity="0.60" stroke-linecap="round"/>
<line x1="410.0" y1="410.0" x2="385.8" y2="512.2" stroke="#58a6ff" stroke-width="2.60" opacity="1.00" stroke-linecap="round"/>
<line x1="385.8" y1="512.2" x2="411.1" y2="578.5" stroke="#4f9ee0" stroke-width="2.25" opacity="0.90" stroke-linecap="round"/>
<line x1="411.1" y1="578.5" x2="455.6" y2="601.8" stroke="#3fb950" stroke-width="1.90" opacity="0.80" stroke-linecap="round"/>
<line x1="455.6" y1="601.8" x2="488.9" y2="600.4" stroke="#7bc96f" stroke-width="1.55" opacity="0.70" stroke-linecap="round"/>
<line x1="488.9" y1="600.4" x2="511.1" y2="606.2" stroke="#d29922" stroke-width="1.20" opacity="0.60" stroke-linecap="round"/>
<line x1="455.6" y1="601.8" x2="472.2" y2="629.8" stroke="#7bc96f" stroke-width="1.55" opacity="0.70" stroke-linecap="round"/>
<line x1="472.2" y1="629.8" x2="485.9" y2="645.6" stroke="#d29922" stroke-width="1.20" opacity="0.60" stroke-linecap="round"/>
<line x1="411.1" y1="578.5" x2="395.8" y2="626.0" stroke="#3fb950" stroke-width="1.90" opacity="0.80" stroke-linecap="round"/>
<line x1="395.8" y1="626.0" x2="404.0" y2="657.7" stroke="#7bc96f" stroke-width="1.55" opacity="0.70" stroke-linecap="round"/>
<line x1="404.0" y1="657.7" x2="422.5" y2="671.8" stroke="#d29922" stroke-width="1.20" opacity="0.60" stroke-linecap="round"/>
<line x1="404.0" y1="657.7" x2="393.6" y2="678.6" stroke="#d29922" stroke-width="1.20" opacity="0.60" stroke-linecap="round"/>
<line x1="395.8" y1="626.0" x2="369.0" y2="644.8" stroke="#7bc96f" stroke-width="1.55" opacity="0.70" stroke-linecap="round"/>
<line x1="369.0" y1="644.8" x2="359.9" y2="664.0" stroke="#d29922" stroke-width="1.20" opacity="0.60" stroke-linecap="round"/>
<line x1="369.0" y1="644.8" x2="347.1" y2="645.1" stroke="#d29922" stroke-width="1.20" opacity="0.60" stroke-linecap="round"/>
<line x1="385.8" y1="512.2" x2="333.8" y2="555.3" stroke="#4f9ee0" stroke-width="2.25" opacity="0.90" stroke-linecap="round"/>
<line x1="333.8" y1="555.3" x2="323.5" y2="600.7" stroke="#3fb950" stroke-width="1.90" opacity="0.80" stroke-linecap="round"/>
<line x1="323.5" y1="600.7" x2="337.4" y2="630.4" stroke="#7bc96f" stroke-width="1.55" opacity="0.70" stroke-linecap="round"/>
<line x1="337.4" y1="630.4" x2="347.1" y2="650.5" stroke="#d29922" stroke-width="1.20" opacity="0.60" stroke-linecap="round"/>
<line x1="323.5" y1="600.7" x2="300.8" y2="619.5" stroke="#7bc96f" stroke-width="1.55" opacity="0.70" stroke-linecap="round"/>
<line x1="300.8" y1="619.5" x2="293.7" y2="637.2" stroke="#d29922" stroke-width="1.20" opacity="0.60" stroke-linecap="round"/>
<line x1="300.8" y1="619.5" x2="280.5" y2="624.2" stroke="#d29922" stroke-width="1.20" opacity="0.60" stroke-linecap="round"/>
<line x1="333.8" y1="555.3" x2="289.7" y2="557.8" stroke="#3fb950" stroke-width="1.90" opacity="0.80" stroke-linecap="round"/>
<line x1="289.7" y1="557.8" x2="265.3" y2="572.0" stroke="#7bc96f" stroke-width="1.55" opacity="0.70" stroke-linecap="round"/>
<line x1="265.3" y1="572.0" x2="248.5" y2="578.1" stroke="#d29922" stroke-width="1.20" opacity="0.60" stroke-linecap="round"/>
<line x1="289.7" y1="557.8" x2="263.3" y2="546.6" stroke="#7bc96f" stroke-width="1.55" opacity="0.70" stroke-linecap="round"/>
<line x1="263.3" y1="546.6" x2="244.3" y2="541.9" stroke="#d29922" stroke-width="1.20" opacity="0.60" stroke-linecap="round"/>
<line x1="410.0" y1="410.0" x2="318.3" y2="461.2" stroke="#58a6ff" stroke-width="2.60" opacity="1.00" stroke-linecap="round"/>
<line x1="318.3" y1="461.2" x2="276.8" y2="516.1" stroke="#4f9ee0" stroke-width="2.25" opacity="0.90" stroke-linecap="round"/>
<line x1="276.8" y1="516.1" x2="279.6" y2="558.7" stroke="#3fb950" stroke-width="1.90" opacity="0.80" stroke-linecap="round"/>
<line x1="279.6" y1="558.7" x2="290.7" y2="583.7" stroke="#7bc96f" stroke-width="1.55" opacity="0.70" stroke-linecap="round"/>
<line x1="290.7" y1="583.7" x2="305.2" y2="593.7" stroke="#d29922" stroke-width="1.20" opacity="0.60" stroke-linecap="round"/>
<line x1="290.7" y1="583.7" x2="287.5" y2="600.6" stroke="#d29922" stroke-width="1.20" opacity="0.60" stroke-linecap="round"/>
<line x1="279.6" y1="558.7" x2="267.8" y2="587.0" stroke="#7bc96f" stroke-width="1.55" opacity="0.70" stroke-linecap="round"/>
<line x1="267.8" y1="587.0" x2="273.3" y2="606.7" stroke="#d29922" stroke-width="1.20" opacity="0.60" stroke-linecap="round"/>
<line x1="267.8" y1="587.0" x2="249.2" y2="597.9" stroke="#d29922" stroke-width="1.20" opacity="0.60" stroke-linecap="round"/>
<line x1="276.8" y1="516.1" x2="232.4" y2="530.3" stroke="#3fb950" stroke-width="1.90" opacity="0.80" stroke-linecap="round"/>
<line x1="232.4" y1="530.3" x2="208.7" y2="549.4" stroke="#7bc96f" stroke-width="1.55" opacity="0.70" stroke-linecap="round"/>
<line x1="208.7" y1="549.4" x2="191.3" y2="560.2" stroke="#d29922" stroke-width="1.20" opacity="0.60" stroke-linecap="round"/>
<line x1="232.4" y1="530.3" x2="202.1" y2="524.1" stroke="#7bc96f" stroke-width="1.55" opacity="0.70" stroke-linecap="round"/>
<line x1="202.1" y1="524.1" x2="183.2" y2="530.1" stroke="#d29922" stroke-width="1.20" opacity="0.60" stroke-linecap="round"/>
<line x1="202.1" y1="524.1" x2="186.3" y2="509.4" stroke="#d29922" stroke-width="1.20" opacity="0.60" stroke-linecap="round"/>
<line x1="318.3" y1="461.2" x2="252.5" y2="467.0" stroke="#4f9ee0" stroke-width="2.25" opacity="0.90" stroke-linecap="round"/>
<line x1="252.5" y1="467.0" x2="220.6" y2="494.9" stroke="#3fb950" stroke-width="1.90" opacity="0.80" stroke-linecap="round"/>
<line x1="220.6" y1="494.9" x2="209.7" y2="522.1" stroke="#7bc96f" stroke-width="1.55" opacity="0.70" stroke-linecap="round"/>
<line x1="209.7" y1="522.1" x2="199.2" y2="538.8" stroke="#d29922" stroke-width="1.20" opacity="0.60" stroke-linecap="round"/>
<line x1="220.6" y1="494.9" x2="190.8" y2="499.0" stroke="#7bc96f" stroke-width="1.55" opacity="0.70" stroke-linecap="round"/>
<line x1="190.8" y1="499.0" x2="174.8" y2="510.9" stroke="#d29922" stroke-width="1.20" opacity="0.60" stroke-linecap="round"/>
<line x1="190.8" y1="499.0" x2="171.9" y2="492.7" stroke="#d29922" stroke-width="1.20" opacity="0.60" stroke-linecap="round"/>
<line x1="252.5" y1="467.0" x2="217.4" y2="444.6" stroke="#3fb950" stroke-width="1.90" opacity="0.80" stroke-linecap="round"/>
<line x1="217.4" y1="444.6" x2="190.9" y2="440.2" stroke="#7bc96f" stroke-width="1.55" opacity="0.70" stroke-linecap="round"/>
<line x1="190.9" y1="440.2" x2="173.7" y2="435.7" stroke="#d29922" stroke-width="1.20" opacity="0.60" stroke-linecap="round"/>
<line x1="217.4" y1="444.6" x2="204.0" y2="419.7" stroke="#7bc96f" stroke-width="1.55" opacity="0.70" stroke-linecap="round"/>
<line x1="204.0" y1="419.7" x2="187.9" y2="409.5" stroke="#d29922" stroke-width="1.20" opacity="0.60" stroke-linecap="round"/>
<line x1="204.0" y1="419.7" x2="203.1" y2="401.3" stroke="#d29922" stroke-width="1.20" opacity="0.60" stroke-linecap="round"/>
<line x1="410.0" y1="410.0" x2="313.0" y2="369.7" stroke="#58a6ff" stroke-width="2.60" opacity="1.00" stroke-linecap="round"/>
<line x1="313.0" y1="369.7" x2="239.8" y2="373.6" stroke="#4f9ee0" stroke-width="2.25" opacity="0.90" stroke-linecap="round"/>
<line x1="239.8" y1="373.6" x2="200.8" y2="398.5" stroke="#3fb950" stroke-width="1.90" opacity="0.80" stroke-linecap="round"/>
<line x1="200.8" y1="398.5" x2="184.5" y2="423.7" stroke="#7bc96f" stroke-width="1.55" opacity="0.70" stroke-linecap="round"/>
<line x1="184.5" y1="423.7" x2="180.3" y2="443.4" stroke="#d29922" stroke-width="1.20" opacity="0.60" stroke-linecap="round"/>
<line x1="184.5" y1="423.7" x2="168.6" y2="434.4" stroke="#d29922" stroke-width="1.20" opacity="0.60" stroke-linecap="round"/>
<line x1="200.8" y1="398.5" x2="170.1" y2="403.9" stroke="#7bc96f" stroke-width="1.55" opacity="0.70" stroke-linecap="round"/>
<line x1="170.1" y1="403.9" x2="150.2" y2="400.5" stroke="#d29922" stroke-width="1.20" opacity="0.60" stroke-linecap="round"/>
<line x1="239.8" y1="373.6" x2="196.4" y2="350.9" stroke="#3fb950" stroke-width="1.90" opacity="0.80" stroke-linecap="round"/>
<line x1="196.4" y1="350.9" x2="165.1" y2="355.8" stroke="#7bc96f" stroke-width="1.55" opacity="0.70" stroke-linecap="round"/>
<line x1="165.1" y1="355.8" x2="146.2" y2="362.4" stroke="#d29922" stroke-width="1.20" opacity="0.60" stroke-linecap="round"/>
<line x1="196.4" y1="350.9" x2="182.8" y2="319.9" stroke="#7bc96f" stroke-width="1.55" opacity="0.70" stroke-linecap="round"/>
<line x1="182.8" y1="319.9" x2="172.1" y2="300.2" stroke="#d29922" stroke-width="1.20" opacity="0.60" stroke-linecap="round"/>
<line x1="313.0" y1="369.7" x2="268.0" y2="319.2" stroke="#4f9ee0" stroke-width="2.25" opacity="0.90" stroke-linecap="round"/>
<line x1="268.0" y1="319.2" x2="228.1" y2="305.1" stroke="#3fb950" stroke-width="1.90" opacity="0.80" stroke-linecap="round"/>
<line x1="228.1" y1="305.1" x2="202.9" y2="315.0" stroke="#7bc96f" stroke-width="1.55" opacity="0.70" stroke-linecap="round"/>
<line x1="202.9" y1="315.0" x2="185.4" y2="322.0" stroke="#d29922" stroke-width="1.20" opacity="0.60" stroke-linecap="round"/>
<line x1="228.1" y1="305.1" x2="212.7" y2="282.8" stroke="#7bc96f" stroke-width="1.55" opacity="0.70" stroke-linecap="round"/>
<line x1="212.7" y1="282.8" x2="204.5" y2="266.0" stroke="#d29922" stroke-width="1.20" opacity="0.60" stroke-linecap="round"/>
<line x1="268.0" y1="319.2" x2="257.1" y2="276.0" stroke="#3fb950" stroke-width="1.90" opacity="0.80" stroke-linecap="round"/>
<line x1="257.1" y1="276.0" x2="235.5" y2="254.9" stroke="#7bc96f" stroke-width="1.55" opacity="0.70" stroke-linecap="round"/>
<line x1="235.5" y1="254.9" x2="218.8" y2="245.4" stroke="#d29922" stroke-width="1.20" opacity="0.60" stroke-linecap="round"/>
<line x1="257.1" y1="276.0" x2="266.2" y2="247.4" stroke="#7bc96f" stroke-width="1.55" opacity="0.70" stroke-linecap="round"/>
<line x1="266.2" y1="247.4" x2="265.8" y2="226.5" stroke="#d29922" stroke-width="1.20" opacity="0.60" stroke-linecap="round"/>
<line x1="410.0" y1="410.0" x2="380.0" y2="309.4" stroke="#58a6ff" stroke-width="2.60" opacity="1.00" stroke-linecap="round"/>
<line x1="380.0" y1="309.4" x2="317.1" y2="272.2" stroke="#4f9ee0" stroke-width="2.25" opacity="0.90" stroke-linecap="round"/>
<line x1="317.1" y1="272.2" x2="265.4" y2="280.3" stroke="#3fb950" stroke-width="1.90" opacity="0.80" stroke-linecap="round"/>
<line x1="265.4" y1="280.3" x2="237.9" y2="305.0" stroke="#7bc96f" stroke-width="1.55" opacity="0.70" stroke-linecap="round"/>
<line x1="237.9" y1="305.0" x2="229.3" y2="330.1" stroke="#d29922" stroke-width="1.20" opacity="0.60" stroke-linecap="round"/>
<line x1="237.9" y1="305.0" x2="214.5" y2="310.2" stroke="#d29922" stroke-width="1.20" opacity="0.60" stroke-linecap="round"/>
<line x1="265.4" y1="280.3" x2="233.7" y2="266.7" stroke="#7bc96f" stroke-width="1.55" opacity="0.70" stroke-linecap="round"/>
<line x1="233.7" y1="266.7" x2="209.7" y2="263.7" stroke="#d29922" stroke-width="1.20" opacity="0.60" stroke-linecap="round"/>
<line x1="317.1" y1="272.2" x2="297.4" y2="230.1" stroke="#3fb950" stroke-width="1.90" opacity="0.80" stroke-linecap="round"/>
<line x1="297.4" y1="230.1" x2="272.0" y2="213.1" stroke="#7bc96f" stroke-width="1.55" opacity="0.70" stroke-linecap="round"/>
<line x1="272.0" y1="213.1" x2="252.6" y2="214.6" stroke="#d29922" stroke-width="1.20" opacity="0.60" stroke-linecap="round"/>
<line x1="272.0" y1="213.1" x2="265.9" y2="193.5" stroke="#d29922" stroke-width="1.20" opacity="0.60" stroke-linecap="round"/>
<line x1="297.4" y1="230.1" x2="299.7" y2="201.3" stroke="#7bc96f" stroke-width="1.55" opacity="0.70" stroke-linecap="round"/>
<line x1="299.7" y1="201.3" x2="288.8" y2="184.9" stroke="#d29922" stroke-width="1.20" opacity="0.60" stroke-linecap="round"/>
<line x1="299.7" y1="201.3" x2="313.0" y2="186.0" stroke="#d29922" stroke-width="1.20" opacity="0.60" stroke-linecap="round"/>
<line x1="380.0" y1="309.4" x2="404.4" y2="248.8" stroke="#4f9ee0" stroke-width="2.25" opacity="0.90" stroke-linecap="round"/>
<line x1="404.4" y1="248.8" x2="393.8" y2="208.9" stroke="#3fb950" stroke-width="1.90" opacity="0.80" stroke-linecap="round"/>
<line x1="393.8" y1="208.9" x2="374.2" y2="191.0" stroke="#7bc96f" stroke-width="1.55" opacity="0.70" stroke-linecap="round"/>
<line x1="374.2" y1="191.0" x2="362.9" y2="177.5" stroke="#d29922" stroke-width="1.20" opacity="0.60" stroke-linecap="round"/>
<line x1="393.8" y1="208.9" x2="402.1" y2="180.5" stroke="#7bc96f" stroke-width="1.55" opacity="0.70" stroke-linecap="round"/>
<line x1="402.1" y1="180.5" x2="399.7" y2="161.9" stroke="#d29922" stroke-width="1.20" opacity="0.60" stroke-linecap="round"/>
<line x1="402.1" y1="180.5" x2="415.7" y2="165.9" stroke="#d29922" stroke-width="1.20" opacity="0.60" stroke-linecap="round"/>
<line x1="404.4" y1="248.8" x2="439.6" y2="225.6" stroke="#3fb950" stroke-width="1.90" opacity="0.80" stroke-linecap="round"/>
<line x1="439.6" y1="225.6" x2="454.5" y2="204.0" stroke="#7bc96f" stroke-width="1.55" opacity="0.70" stroke-linecap="round"/>
<line x1="454.5" y1="204.0" x2="465.8" y2="190.6" stroke="#d29922" stroke-width="1.20" opacity="0.60" stroke-linecap="round"/>
<line x1="439.6" y1="225.6" x2="469.0" y2="222.5" stroke="#7bc96f" stroke-width="1.55" opacity="0.70" stroke-linecap="round"/>
<line x1="469.0" y1="222.5" x2="487.0" y2="213.6" stroke="#d29922" stroke-width="1.20" opacity="0.60" stroke-linecap="round"/>
<line x1="469.0" y1="222.5" x2="486.7" y2="228.3" stroke="#d29922" stroke-width="1.20" opacity="0.60" stroke-linecap="round"/>
<line x1="410.0" y1="410.0" x2="476.6" y2="328.8" stroke="#58a6ff" stroke-width="2.60" opacity="1.00" stroke-linecap="round"/>
<line x1="476.6" y1="328.8" x2="480.7" y2="259.6" stroke="#4f9ee0" stroke-width="2.25" opacity="0.90" stroke-linecap="round"/>
<line x1="480.7" y1="259.6" x2="457.5" y2="216.7" stroke="#3fb950" stroke-width="1.90" opacity="0.80" stroke-linecap="round"/>
<line x1="457.5" y1="216.7" x2="429.8" y2="198.0" stroke="#7bc96f" stroke-width="1.55" opacity="0.70" stroke-linecap="round"/>
<line x1="429.8" y1="198.0" x2="406.8" y2="199.1" stroke="#d29922" stroke-width="1.20" opacity="0.60" stroke-linecap="round"/>
<line x1="429.8" y1="198.0" x2="422.6" y2="177.6" stroke="#d29922" stroke-width="1.20" opacity="0.60" stroke-linecap="round"/>
<line x1="457.5" y1="216.7" x2="458.3" y2="184.6" stroke="#7bc96f" stroke-width="1.55" opacity="0.70" stroke-linecap="round"/>
<line x1="458.3" y1="184.6" x2="444.8" y2="166.4" stroke="#d29922" stroke-width="1.20" opacity="0.60" stroke-linecap="round"/>
<line x1="458.3" y1="184.6" x2="472.5" y2="166.7" stroke="#d29922" stroke-width="1.20" opacity="0.60" stroke-linecap="round"/>
<line x1="480.7" y1="259.6" x2="503.1" y2="219.9" stroke="#3fb950" stroke-width="1.90" opacity="0.80" stroke-linecap="round"/>
<line x1="503.1" y1="219.9" x2="502.4" y2="190.1" stroke="#7bc96f" stroke-width="1.55" opacity="0.70" stroke-linecap="round"/>
<line x1="502.4" y1="190.1" x2="494.0" y2="172.9" stroke="#d29922" stroke-width="1.20" opacity="0.60" stroke-linecap="round"/>
<line x1="502.4" y1="190.1" x2="510.5" y2="171.0" stroke="#d29922" stroke-width="1.20" opacity="0.60" stroke-linecap="round"/>
<line x1="503.1" y1="219.9" x2="528.5" y2="207.5" stroke="#7bc96f" stroke-width="1.55" opacity="0.70" stroke-linecap="round"/>
<line x1="528.5" y1="207.5" x2="544.4" y2="199.5" stroke="#d29922" stroke-width="1.20" opacity="0.60" stroke-linecap="round"/>
<line x1="476.6" y1="328.8" x2="551.5" y2="319.3" stroke="#4f9ee0" stroke-width="2.25" opacity="0.90" stroke-linecap="round"/>
<line x1="551.5" y1="319.3" x2="596.8" y2="293.2" stroke="#3fb950" stroke-width="1.90" opacity="0.80" stroke-linecap="round"/>
<line x1="596.8" y1="293.2" x2="617.6" y2="265.0" stroke="#7bc96f" stroke-width="1.55" opacity="0.70" stroke-linecap="round"/>
<line x1="617.6" y1="265.0" x2="623.7" y2="241.3" stroke="#d29922" stroke-width="1.20" opacity="0.60" stroke-linecap="round"/>
<line x1="617.6" y1="265.0" x2="637.7" y2="255.0" stroke="#d29922" stroke-width="1.20" opacity="0.60" stroke-linecap="round"/>
<line x1="596.8" y1="293.2" x2="634.0" y2="288.9" stroke="#7bc96f" stroke-width="1.55" opacity="0.70" stroke-linecap="round"/>
<line x1="634.0" y1="288.9" x2="654.0" y2="275.6" stroke="#d29922" stroke-width="1.20" opacity="0.60" stroke-linecap="round"/>
<line x1="634.0" y1="288.9" x2="655.7" y2="300.0" stroke="#d29922" stroke-width="1.20" opacity="0.60" stroke-linecap="round"/>
<line x1="551.5" y1="319.3" x2="600.8" y2="338.5" stroke="#3fb950" stroke-width="1.90" opacity="0.80" stroke-linecap="round"/>
<line x1="600.8" y1="338.5" x2="637.5" y2="330.2" stroke="#7bc96f" stroke-width="1.55" opacity="0.70" stroke-linecap="round"/>
<line x1="637.5" y1="330.2" x2="655.0" y2="309.9" stroke="#d29922" stroke-width="1.20" opacity="0.60" stroke-linecap="round"/>
<line x1="637.5" y1="330.2" x2="660.5" y2="338.9" stroke="#d29922" stroke-width="1.20" opacity="0.60" stroke-linecap="round"/>
<line x1="600.8" y1="338.5" x2="622.5" y2="365.9" stroke="#7bc96f" stroke-width="1.55" opacity="0.70" stroke-linecap="round"/>
<line x1="622.5" y1="365.9" x2="639.4" y2="381.9" stroke="#d29922" stroke-width="1.20" opacity="0.60" stroke-linecap="round"/>
<circle cx="514.8" cy="415.8" r="2.60" fill="#58a6ff" opacity="0.85"/>
<circle cx="574.3" cy="374.2" r="2.30" fill="#4f9ee0" opacity="0.85"/>
<circle cx="592.7" cy="326.5" r="2.00" fill="#3fb950" opacity="0.85"/>
<circle cx="582.4" cy="296.1" r="1.70" fill="#7bc96f" opacity="0.85"/>
<circle cx="621.1" cy="310.1" r="1.70" fill="#7bc96f" opacity="0.85"/>
<circle cx="624.7" cy="367.4" r="2.00" fill="#3fb950" opacity="0.85"/>
<circle cx="646.8" cy="341.7" r="1.70" fill="#7bc96f" opacity="0.85"/>
<circle cx="656.7" cy="385.0" r="1.70" fill="#7bc96f" opacity="0.85"/>
<circle cx="571.9" cy="465.4" r="2.30" fill="#4f9ee0" opacity="0.85"/>
<circle cx="625.6" cy="465.8" r="2.00" fill="#3fb950" opacity="0.85"/>
<circle cx="653.4" cy="441.8" r="1.70" fill="#7bc96f" opacity="0.85"/>
<circle cx="656.4" cy="488.1" r="1.70" fill="#7bc96f" opacity="0.85"/>
<circle cx="579.6" cy="518.0" r="2.00" fill="#3fb950" opacity="0.85"/>
<circle cx="604.0" cy="544.5" r="1.70" fill="#7bc96f" opacity="0.85"/>
<circle cx="563.3" cy="552.1" r="1.70" fill="#7bc96f" opacity="0.85"/>
<circle cx="472.4" cy="494.5" r="2.60" fill="#58a6ff" opacity="0.85"/>
<circle cx="533.7" cy="522.3" r="2.30" fill="#4f9ee0" opacity="0.85"/>
<circle cx="580.2" cy="515.1" r="2.00" fill="#3fb950" opacity="0.85"/>
<circle cx="605.6" cy="494.6" r="1.70" fill="#7bc96f" opacity="0.85"/>
<circle cx="606.2" cy="529.6" r="1.70" fill="#7bc96f" opacity="0.85"/>
<circle cx="555.7" cy="563.5" r="2.00" fill="#3fb950" opacity="0.85"/>
<circle cx="581.0" cy="577.7" r="1.70" fill="#7bc96f" opacity="0.85"/>
<circle cx="554.7" cy="593.9" r="1.70" fill="#7bc96f" opacity="0.85"/>
<circle cx="472.7" cy="561.7" r="2.30" fill="#4f9ee0" opacity="0.85"/>
<circle cx="495.1" cy="599.0" r="2.00" fill="#3fb950" opacity="0.85"/>
<circle cx="521.6" cy="614.8" r="1.70" fill="#7bc96f" opacity="0.85"/>
<circle cx="498.7" cy="626.6" r="1.70" fill="#7bc96f" opacity="0.85"/>
<circle cx="444.8" cy="599.7" r="2.00" fill="#3fb950" opacity="0.85"/>
<circle cx="443.6" cy="631.6" r="1.70" fill="#7bc96f" opacity="0.85"/>
<circle cx="414.5" cy="612.0" r="1.70" fill="#7bc96f" opacity="0.85"/>
<circle cx="385.8" cy="512.2" r="2.60" fill="#58a6ff" opacity="0.85"/>
<circle cx="411.1" cy="578.5" r="2.30" fill="#4f9ee0" opacity="0.85"/>
<circle cx="455.6" cy="601.8" r="2.00" fill="#3fb950" opacity="0.85"/>
<circle cx="488.9" cy="600.4" r="1.70" fill="#7bc96f" opacity="0.85"/>
<circle cx="472.2" cy="629.8" r="1.70" fill="#7bc96f" opacity="0.85"/>
<circle cx="395.8" cy="626.0" r="2.00" fill="#3fb950" opacity="0.85"/>
<circle cx="404.0" cy="657.7" r="1.70" fill="#7bc96f" opacity="0.85"/>
<circle cx="369.0" cy="644.8" r="1.70" fill="#7bc96f" opacity="0.85"/>
<circle cx="333.8" cy="555.3" r="2.30" fill="#4f9ee0" opacity="0.85"/>
<circle cx="323.5" cy="600.7" r="2.00" fill="#3fb950" opacity="0.85"/>
<circle cx="337.4" cy="630.4" r="1.70" fill="#7bc96f" opacity="0.85"/>
<circle cx="300.8" cy="619.5" r="1.70" fill="#7bc96f" opacity="0.85"/>
<circle cx="289.7" cy="557.8" r="2.00" fill="#3fb950" opacity="0.85"/>
<circle cx="265.3" cy="572.0" r="1.70" fill="#7bc96f" opacity="0.85"/>
<circle cx="263.3" cy="546.6" r="1.70" fill="#7bc96f" opacity="0.85"/>
<circle cx="318.3" cy="461.2" r="2.60" fill="#58a6ff" opacity="0.85"/>
<circle cx="276.8" cy="516.1" r="2.30" fill="#4f9ee0" opacity="0.85"/>
<circle cx="279.6" cy="558.7" r="2.00" fill="#3fb950" opacity="0.85"/>
<circle cx="290.7" cy="583.7" r="1.70" fill="#7bc96f" opacity="0.85"/>
<circle cx="267.8" cy="587.0" r="1.70" fill="#7bc96f" opacity="0.85"/>
<circle cx="232.4" cy="530.3" r="2.00" fill="#3fb950" opacity="0.85"/>
<circle cx="208.7" cy="549.4" r="1.70" fill="#7bc96f" opacity="0.85"/>
<circle cx="202.1" cy="524.1" r="1.70" fill="#7bc96f" opacity="0.85"/>
<circle cx="252.5" cy="467.0" r="2.30" fill="#4f9ee0" opacity="0.85"/>
<circle cx="220.6" cy="494.9" r="2.00" fill="#3fb950" opacity="0.85"/>
<circle cx="209.7" cy="522.1" r="1.70" fill="#7bc96f" opacity="0.85"/>
<circle cx="190.8" cy="499.0" r="1.70" fill="#7bc96f" opacity="0.85"/>
<circle cx="217.4" cy="444.6" r="2.00" fill="#3fb950" opacity="0.85"/>
<circle cx="190.9" cy="440.2" r="1.70" fill="#7bc96f" opacity="0.85"/>
<circle cx="204.0" cy="419.7" r="1.70" fill="#7bc96f" opacity="0.85"/>
<circle cx="313.0" cy="369.7" r="2.60" fill="#58a6ff" opacity="0.85"/>
<circle cx="239.8" cy="373.6" r="2.30" fill="#4f9ee0" opacity="0.85"/>
<circle cx="200.8" cy="398.5" r="2.00" fill="#3fb950" opacity="0.85"/>
<circle cx="184.5" cy="423.7" r="1.70" fill="#7bc96f" opacity="0.85"/>
<circle cx="170.1" cy="403.9" r="1.70" fill="#7bc96f" opacity="0.85"/>
<circle cx="196.4" cy="350.9" r="2.00" fill="#3fb950" opacity="0.85"/>
<circle cx="165.1" cy="355.8" r="1.70" fill="#7bc96f" opacity="0.85"/>
<circle cx="182.8" cy="319.9" r="1.70" fill="#7bc96f" opacity="0.85"/>
<circle cx="268.0" cy="319.2" r="2.30" fill="#4f9ee0" opacity="0.85"/>
<circle cx="228.1" cy="305.1" r="2.00" fill="#3fb950" opacity="0.85"/>
<circle cx="202.9" cy="315.0" r="1.70" fill="#7bc96f" opacity="0.85"/>
<circle cx="212.7" cy="282.8" r="1.70" fill="#7bc96f" opacity="0.85"/>
<circle cx="257.1" cy="276.0" r="2.00" fill="#3fb950" opacity="0.85"/>
<circle cx="235.5" cy="254.9" r="1.70" fill="#7bc96f" opacity="0.85"/>
<circle cx="266.2" cy="247.4" r="1.70" fill="#7bc96f" opacity="0.85"/>
<circle cx="380.0" cy="309.4" r="2.60" fill="#58a6ff" opacity="0.85"/>
<circle cx="317.1" cy="272.2" r="2.30" fill="#4f9ee0" opacity="0.85"/>
<circle cx="265.4" cy="280.3" r="2.00" fill="#3fb950" opacity="0.85"/>
<circle cx="237.9" cy="305.0" r="1.70" fill="#7bc96f" opacity="0.85"/>
<circle cx="233.7" cy="266.7" r="1.70" fill="#7bc96f" opacity="0.85"/>
<circle cx="297.4" cy="230.1" r="2.00" fill="#3fb950" opacity="0.85"/>
<circle cx="272.0" cy="213.1" r="1.70" fill="#7bc96f" opacity="0.85"/>
<circle cx="299.7" cy="201.3" r="1.70" fill="#7bc96f" opacity="0.85"/>
<circle cx="404.4" cy="248.8" r="2.30" fill="#4f9ee0" opacity="0.85"/>
<circle cx="393.8" cy="208.9" r="2.00" fill="#3fb950" opacity="0.85"/>
<circle cx="374.2" cy="191.0" r="1.70" fill="#7bc96f" opacity="0.85"/>
<circle cx="402.1" cy="180.5" r="1.70" fill="#7bc96f" opacity="0.85"/>
<circle cx="439.6" cy="225.6" r="2.00" fill="#3fb950" opacity="0.85"/>
<circle cx="454.5" cy="204.0" r="1.70" fill="#7bc96f" opacity="0.85"/>
<circle cx="469.0" cy="222.5" r="1.70" fill="#7bc96f" opacity="0.85"/>
<circle cx="476.6" cy="328.8" r="2.60" fill="#58a6ff" opacity="0.85"/>
<circle cx="480.7" cy="259.6" r="2.30" fill="#4f9ee0" opacity="0.85"/>
<circle cx="457.5" cy="216.7" r="2.00" fill="#3fb950" opacity="0.85"/>
<circle cx="429.8" cy="198.0" r="1.70" fill="#7bc96f" opacity="0.85"/>
<circle cx="458.3" cy="184.6" r="1.70" fill="#7bc96f" opacity="0.85"/>
<circle cx="503.1" cy="219.9" r="2.00" fill="#3fb950" opacity="0.85"/>
<circle cx="502.4" cy="190.1" r="1.70" fill="#7bc96f" opacity="0.85"/>
<circle cx="528.5" cy="207.5" r="1.70" fill="#7bc96f" opacity="0.85"/>
<circle cx="551.5" cy="319.3" r="2.30" fill="#4f9ee0" opacity="0.85"/>
<circle cx="596.8" cy="293.2" r="2.00" fill="#3fb950" opacity="0.85"/>
<circle cx="617.6" cy="265.0" r="1.70" fill="#7bc96f" opacity="0.85"/>
<circle cx="634.0" cy="288.9" r="1.70" fill="#7bc96f" opacity="0.85"/>
<circle cx="600.8" cy="338.5" r="2.00" fill="#3fb950" opacity="0.85"/>
<circle cx="637.5" cy="330.2" r="1.70" fill="#7bc96f" opacity="0.85"/>
<circle cx="622.5" cy="365.9" r="1.70" fill="#7bc96f" opacity="0.85"/>
<circle cx="577.0" cy="276.5" r="3" fill="none" stroke="#d29922" stroke-width="1" opacity="0.6"/>
<circle cx="631.0" cy="289.9" r="3" fill="none" stroke="#d29922" stroke-width="1" opacity="0.6"/>
<circle cx="642.2" cy="311.0" r="3" fill="none" stroke="#d29922" stroke-width="1" opacity="0.6"/>
<circle cx="661.5" cy="326.5" r="3" fill="none" stroke="#d29922" stroke-width="1" opacity="0.6"/>
<circle cx="677.4" cy="397.8" r="3" fill="none" stroke="#d29922" stroke-width="1" opacity="0.6"/>
<circle cx="669.3" cy="423.6" r="3" fill="none" stroke="#d29922" stroke-width="1" opacity="0.6"/>
<circle cx="682.7" cy="488.5" r="3" fill="none" stroke="#d29922" stroke-width="1" opacity="0.6"/>
<circle cx="662.1" cy="511.2" r="3" fill="none" stroke="#d29922" stroke-width="1" opacity="0.6"/>
<circle cx="627.3" cy="554.4" r="3" fill="none" stroke="#d29922" stroke-width="1" opacity="0.6"/>
<circle cx="611.0" cy="565.8" r="3" fill="none" stroke="#d29922" stroke-width="1" opacity="0.6"/>
<circle cx="565.1" cy="577.7" r="3" fill="none" stroke="#d29922" stroke-width="1" opacity="0.6"/>
<circle cx="539.6" cy="564.3" r="3" fill="none" stroke="#d29922" stroke-width="1" opacity="0.6"/>
<circle cx="613.9" cy="473.5" r="3" fill="none" stroke="#d29922" stroke-width="1" opacity="0.6"/>
<circle cx="627.2" cy="490.7" r="3" fill="none" stroke="#d29922" stroke-width="1" opacity="0.6"/>
<circle cx="626.4" cy="531.4" r="3" fill="none" stroke="#d29922" stroke-width="1" opacity="0.6"/>
<circle cx="617.2" cy="545.1" r="3" fill="none" stroke="#d29922" stroke-width="1" opacity="0.6"/>
<circle cx="595.4" cy="591.5" r="3" fill="none" stroke="#d29922" stroke-width="1" opacity="0.6"/>
<circle cx="555.4" cy="614.0" r="3" fill="none" stroke="#d29922" stroke-width="1" opacity="0.6"/>
<circle cx="541.5" cy="613.9" r="3" fill="none" stroke="#d29922" stroke-width="1" opacity="0.6"/>
<circle cx="532.5" cy="633.2" r="3" fill="none" stroke="#d29922" stroke-width="1" opacity="0.6"/>
<circle cx="509.3" cy="642.2" r="3" fill="none" stroke="#d29922" stroke-width="1" opacity="0.6"/>
<circle cx="492.9" cy="643.8" r="3" fill="none" stroke="#d29922" stroke-width="1" opacity="0.6"/>
<circle cx="439.8" cy="653.1" r="3" fill="none" stroke="#d29922" stroke-width="1" opacity="0.6"/>
<circle cx="404.5" cy="632.7" r="3" fill="none" stroke="#d29922" stroke-width="1" opacity="0.6"/>
<circle cx="393.7" cy="604.7" r="3" fill="none" stroke="#d29922" stroke-width="1" opacity="0.6"/>
<circle cx="511.1" cy="606.2" r="3" fill="none" stroke="#d29922" stroke-width="1" opacity="0.6"/>
<circle cx="485.9" cy="645.6" r="3" fill="none" stroke="#d29922" stroke-width="1" opacity="0.6"/>
<circle cx="422.5" cy="671.8" r="3" fill="none" stroke="#d29922" stroke-width="1" opacity="0.6"/>
<circle cx="393.6" cy="678.6" r="3" fill="none" stroke="#d29922" stroke-width="1" opacity="0.6"/>
<circle cx="359.9" cy="664.0" r="3" fill="none" stroke="#d29922" stroke-width="1" opacity="0.6"/>
<circle cx="347.1" cy="645.1" r="3" fill="none" stroke="#d29922" stroke-width="1" opacity="0.6"/>
<circle cx="347.1" cy="650.5" r="3" fill="none" stroke="#d29922" stroke-width="1" opacity="0.6"/>
<circle cx="293.7" cy="637.2" r="3" fill="none" stroke="#d29922" stroke-width="1" opacity="0.6"/>
<circle cx="280.5" cy="624.2" r="3" fill="none" stroke="#d29922" stroke-width="1" opacity="0.6"/>
<circle cx="248.5" cy="578.1" r="3" fill="none" stroke="#d29922" stroke-width="1" opacity="0.6"/>
<circle cx="244.3" cy="541.9" r="3" fill="none" stroke="#d29922" stroke-width="1" opacity="0.6"/>
<circle cx="305.2" cy="593.7" r="3" fill="none" stroke="#d29922" stroke-width="1" opacity="0.6"/>
<circle cx="287.5" cy="600.6" r="3" fill="none" stroke="#d29922" stroke-width="1" opacity="0.6"/>
<circle cx="273.3" cy="606.7" r="3" fill="none" stroke="#d29922" stroke-width="1" opacity="0.6"/>
<circle cx="249.2" cy="597.9" r="3" fill="none" stroke="#d29922" stroke-width="1" opacity="0.6"/>
<circle cx="191.3" cy="560.2" r="3" fill="none" stroke="#d29922" stroke-width="1" opacity="0.6"/>
<circle cx="183.2" cy="530.1" r="3" fill="none" stroke="#d29922" stroke-width="1" opacity="0.6"/>
<circle cx="186.3" cy="509.4" r="3" fill="none" stroke="#d29922" stroke-width="1" opacity="0.6"/>
<circle cx="199.2" cy="538.8" r="3" fill="none" stroke="#d29922" stroke-width="1" opacity="0.6"/>
<circle cx="174.8" cy="510.9" r="3" fill="none" stroke="#d29922" stroke-width="1" opacity="0.6"/>
<circle cx="171.9" cy="492.7" r="3" fill="none" stroke="#d29922" stroke-width="1" opacity="0.6"/>
<circle cx="173.7" cy="435.7" r="3" fill="none" stroke="#d29922" stroke-width="1" opacity="0.6"/>
<circle cx="187.9" cy="409.5" r="3" fill="none" stroke="#d29922" stroke-width="1" opacity="0.6"/>
<circle cx="203.1" cy="401.3" r="3" fill="none" stroke="#d29922" stroke-width="1" opacity="0.6"/>
<circle cx="180.3" cy="443.4" r="3" fill="none" stroke="#d29922" stroke-width="1" opacity="0.6"/>
<circle cx="168.6" cy="434.4" r="3" fill="none" stroke="#d29922" stroke-width="1" opacity="0.6"/>
<circle cx="150.2" cy="400.5" r="3" fill="none" stroke="#d29922" stroke-width="1" opacity="0.6"/>
<circle cx="146.2" cy="362.4" r="3" fill="none" stroke="#d29922" stroke-width="1" opacity="0.6"/>
<circle cx="172.1" cy="300.2" r="3" fill="none" stroke="#d29922" stroke-width="1" opacity="0.6"/>
<circle cx="185.4" cy="322.0" r="3" fill="none" stroke="#d29922" stroke-width="1" opacity="0.6"/>
<circle cx="204.5" cy="266.0" r="3" fill="none" stroke="#d29922" stroke-width="1" opacity="0.6"/>
<circle cx="218.8" cy="245.4" r="3" fill="none" stroke="#d29922" stroke-width="1" opacity="0.6"/>
<circle cx="265.8" cy="226.5" r="3" fill="none" stroke="#d29922" stroke-width="1" opacity="0.6"/>
<circle cx="229.3" cy="330.1" r="3" fill="none" stroke="#d29922" stroke-width="1" opacity="0.6"/>
<circle cx="214.5" cy="310.2" r="3" fill="none" stroke="#d29922" stroke-width="1" opacity="0.6"/>
<circle cx="209.7" cy="263.7" r="3" fill="none" stroke="#d29922" stroke-width="1" opacity="0.6"/>
<circle cx="252.6" cy="214.6" r="3" fill="none" stroke="#d29922" stroke-width="1" opacity="0.6"/>
<circle cx="265.9" cy="193.5" r="3" fill="none" stroke="#d29922" stroke-width="1" opacity="0.6"/>
<circle cx="288.8" cy="184.9" r="3" fill="none" stroke="#d29922" stroke-width="1" opacity="0.6"/>
<circle cx="313.0" cy="186.0" r="3" fill="none" stroke="#d29922" stroke-width="1" opacity="0.6"/>
<circle cx="362.9" cy="177.5" r="3" fill="none" stroke="#d29922" stroke-width="1" opacity="0.6"/>
<circle cx="399.7" cy="161.9" r="3" fill="none" stroke="#d29922" stroke-width="1" opacity="0.6"/>
<circle cx="415.7" cy="165.9" r="3" fill="none" stroke="#d29922" stroke-width="1" opacity="0.6"/>
<circle cx="465.8" cy="190.6" r="3" fill="none" stroke="#d29922" stroke-width="1" opacity="0.6"/>
<circle cx="487.0" cy="213.6" r="3" fill="none" stroke="#d29922" stroke-width="1" opacity="0.6"/>
<circle cx="486.7" cy="228.3" r="3" fill="none" stroke="#d29922" stroke-width="1" opacity="0.6"/>
<circle cx="406.8" cy="199.1" r="3" fill="none" stroke="#d29922" stroke-width="1" opacity="0.6"/>
<circle cx="422.6" cy="177.6" r="3" fill="none" stroke="#d29922" stroke-width="1" opacity="0.6"/>
<circle cx="444.8" cy="166.4" r="3" fill="none" stroke="#d29922" stroke-width="1" opacity="0.6"/>
<circle cx="472.5" cy="166.7" r="3" fill="none" stroke="#d29922" stroke-width="1" opacity="0.6"/>
<circle cx="494.0" cy="172.9" r="3" fill="none" stroke="#d29922" stroke-width="1" opacity="0.6"/>
<circle cx="510.5" cy="171.0" r="3" fill="none" stroke="#d29922" stroke-width="1" opacity="0.6"/>
<circle cx="544.4" cy="199.5" r="3" fill="none" stroke="#d29922" stroke-width="1" opacity="0.6"/>
<circle cx="623.7" cy="241.3" r="3" fill="none" stroke="#d29922" stroke-width="1" opacity="0.6"/>
<circle cx="637.7" cy="255.0" r="3" fill="none" stroke="#d29922" stroke-width="1" opacity="0.6"/>
<circle cx="654.0" cy="275.6" r="3" fill="none" stroke="#d29922" stroke-width="1" opacity="0.6"/>
<circle cx="655.7" cy="300.0" r="3" fill="none" stroke="#d29922" stroke-width="1" opacity="0.6"/>
<circle cx="655.0" cy="309.9" r="3" fill="none" stroke="#d29922" stroke-width="1" opacity="0.6"/>
<circle cx="660.5" cy="338.9" r="3" fill="none" stroke="#d29922" stroke-width="1" opacity="0.6"/>
<circle cx="639.4" cy="381.9" r="3" fill="none" stroke="#d29922" stroke-width="1" opacity="0.6"/>
<circle cx="410.0" cy="410.0" r="10" fill="#0d1117" stroke="#58a6ff" stroke-width="2"/>
<circle cx="410.0" cy="410.0" r="4" fill="#58a6ff"/>
<circle r="2.4" fill="#7ee787"><animateMotion dur="3.48s" begin="1.07s" repeatCount="indefinite" path="M410.0,410.0 L313.0,369.7"/></circle>
<circle r="2.4" fill="#f2cc60"><animateMotion dur="2.43s" begin="1.95s" repeatCount="indefinite" path="M196.4,350.9 L165.1,355.8"/></circle>
<circle r="2.4" fill="#79c0ff"><animateMotion dur="2.89s" begin="0.73s" repeatCount="indefinite" path="M621.1,310.1 L642.2,311.0"/></circle>
<circle r="2.4" fill="#7ee787"><animateMotion dur="2.46s" begin="1.96s" repeatCount="indefinite" path="M554.7,593.9 L555.4,614.0"/></circle>
<circle r="2.4" fill="#f2cc60"><animateMotion dur="3.01s" begin="1.24s" repeatCount="indefinite" path="M404.4,248.8 L439.6,225.6"/></circle>
<circle r="2.4" fill="#79c0ff"><animateMotion dur="3.1s" begin="0.57s" repeatCount="indefinite" path="M232.4,530.3 L202.1,524.1"/></circle>
<circle r="2.4" fill="#7ee787"><animateMotion dur="3.48s" begin="1.09s" repeatCount="indefinite" path="M498.7,626.6 L509.3,642.2"/></circle>
<text x="806" y="806" text-anchor="end" font-size="9" fill="#484f58" letter-spacing="1">// circuit_bloom.py — seed:20260908 — spokes:7 — regenerated daily</text>
</svg>