<svg viewBox="0 0 820 820" width="820" height="820" xmlns="http://www.w3.org/2000/svg" font-family="'Fira Code',monospace">
<defs>
<pattern id="g2" width="22" height="22" patternUnits="userSpaceOnUse">
<path d="M 22 0 L 0 0 0 22" fill="none" stroke="#30363d" stroke-width="0.4" opacity="0.3"/>
</pattern>
<radialGradient id="glow" cx="50%" cy="50%" r="50%">
<stop offset="0%" stop-color="#58a6ff" stop-opacity="0.35"/>
<stop offset="100%" stop-color="#58a6ff" stop-opacity="0"/>
</radialGradient>
</defs>
<rect x="0" y="0" width="820" height="820" fill="#0d1117"/>
<rect x="0" y="0" width="820" height="820" fill="url(#g2)"/>
<circle cx="410.0" cy="410.0" r="230" fill="url(#glow)"/>
<line x1="410.0" y1="410.0" x2="514.8" y2="403.5" stroke="#58a6ff" stroke-width="2.60" opacity="1.00" stroke-linecap="round"/>
<line x1="514.8" y1="403.5" x2="571.1" y2="364.2" stroke="#4f9ee0" stroke-width="2.25" opacity="0.90" stroke-linecap="round"/>
<line x1="571.1" y1="364.2" x2="580.4" y2="321.8" stroke="#3fb950" stroke-width="1.90" opacity="0.80" stroke-linecap="round"/>
<line x1="580.4" y1="321.8" x2="567.8" y2="295.6" stroke="#7bc96f" stroke-width="1.55" opacity="0.70" stroke-linecap="round"/>
<line x1="567.8" y1="295.6" x2="557.1" y2="279.7" stroke="#d29922" stroke-width="1.20" opacity="0.60" stroke-linecap="round"/>
<line x1="580.4" y1="321.8" x2="606.0" y2="304.5" stroke="#7bc96f" stroke-width="1.55" opacity="0.70" stroke-linecap="round"/>
<line x1="606.0" y1="304.5" x2="613.8" y2="286.1" stroke="#d29922" stroke-width="1.20" opacity="0.60" stroke-linecap="round"/>
<line x1="606.0" y1="304.5" x2="626.2" y2="305.5" stroke="#d29922" stroke-width="1.20" opacity="0.60" stroke-linecap="round"/>
<line x1="571.1" y1="364.2" x2="617.1" y2="366.0" stroke="#3fb950" stroke-width="1.90" opacity="0.80" stroke-linecap="round"/>
<line x1="617.1" y1="366.0" x2="642.9" y2="349.3" stroke="#7bc96f" stroke-width="1.55" opacity="0.70" stroke-linecap="round"/>
<line x1="642.9" y1="349.3" x2="651.1" y2="331.3" stroke="#d29922" stroke-width="1.20" opacity="0.60" stroke-linecap="round"/>
<line x1="642.9" y1="349.3" x2="664.4" y2="347.8" stroke="#d29922" stroke-width="1.20" opacity="0.60" stroke-linecap="round"/>
<line x1="617.1" y1="366.0" x2="641.1" y2="385.2" stroke="#7bc96f" stroke-width="1.55" opacity="0.70" stroke-linecap="round"/>
<line x1="641.1" y1="385.2" x2="653.2" y2="402.2" stroke="#d29922" stroke-width="1.20" opacity="0.60" stroke-linecap="round"/>
<line x1="514.8" y1="403.5" x2="572.6" y2="438.5" stroke="#4f9ee0" stroke-width="2.25" opacity="0.90" stroke-linecap="round"/>
<line x1="572.6" y1="438.5" x2="615.5" y2="435.2" stroke="#3fb950" stroke-width="1.90" opacity="0.80" stroke-linecap="round"/>
<line x1="615.5" y1="435.2" x2="638.9" y2="416.2" stroke="#7bc96f" stroke-width="1.55" opacity="0.70" stroke-linecap="round"/>
<line x1="638.9" y1="416.2" x2="645.7" y2="397.5" stroke="#d29922" stroke-width="1.20" opacity="0.60" stroke-linecap="round"/>
<line x1="638.9" y1="416.2" x2="658.3" y2="414.1" stroke="#d29922" stroke-width="1.20" opacity="0.60" stroke-linecap="round"/>
<line x1="615.5" y1="435.2" x2="639.6" y2="451.5" stroke="#7bc96f" stroke-width="1.55" opacity="0.70" stroke-linecap="round"/>
<line x1="639.6" y1="451.5" x2="660.3" y2="452.0" stroke="#d29922" stroke-width="1.20" opacity="0.60" stroke-linecap="round"/>
<line x1="639.6" y1="451.5" x2="648.7" y2="470.0" stroke="#d29922" stroke-width="1.20" opacity="0.60" stroke-linecap="round"/>
<line x1="572.6" y1="438.5" x2="587.0" y2="484.1" stroke="#3fb950" stroke-width="1.90" opacity="0.80" stroke-linecap="round"/>
<line x1="587.0" y1="484.1" x2="610.3" y2="506.5" stroke="#7bc96f" stroke-width="1.55" opacity="0.70" stroke-linecap="round"/>
<line x1="610.3" y1="506.5" x2="625.3" y2="520.8" stroke="#d29922" stroke-width="1.20" opacity="0.60" stroke-linecap="round"/>
<line x1="587.0" y1="484.1" x2="582.3" y2="514.5" stroke="#7bc96f" stroke-width="1.55" opacity="0.70" stroke-linecap="round"/>
<line x1="582.3" y1="514.5" x2="592.8" y2="531.8" stroke="#d29922" stroke-width="1.20" opacity="0.60" stroke-linecap="round"/>
<line x1="582.3" y1="514.5" x2="567.4" y2="527.6" stroke="#d29922" stroke-width="1.20" opacity="0.60" stroke-linecap="round"/>
<line x1="410.0" y1="410.0" x2="466.0" y2="498.8" stroke="#58a6ff" stroke-width="2.60" opacity="1.00" stroke-linecap="round"/>
<line x1="466.0" y1="498.8" x2="528.5" y2="533.9" stroke="#4f9ee0" stroke-width="2.25" opacity="0.90" stroke-linecap="round"/>
<line x1="528.5" y1="533.9" x2="579.7" y2="530.0" stroke="#3fb950" stroke-width="1.90" opacity="0.80" stroke-linecap="round"/>
<line x1="579.7" y1="530.0" x2="606.7" y2="511.9" stroke="#7bc96f" stroke-width="1.55" opacity="0.70" stroke-linecap="round"/>
<line x1="606.7" y1="511.9" x2="615.5" y2="493.7" stroke="#d29922" stroke-width="1.20" opacity="0.60" stroke-linecap="round"/>
<line x1="606.7" y1="511.9" x2="629.2" y2="509.4" stroke="#d29922" stroke-width="1.20" opacity="0.60" stroke-linecap="round"/>
<line x1="579.7" y1="530.0" x2="612.1" y2="545.1" stroke="#7bc96f" stroke-width="1.55" opacity="0.70" stroke-linecap="round"/>
<line x1="612.1" y1="545.1" x2="632.1" y2="560.6" stroke="#d29922" stroke-width="1.20" opacity="0.60" stroke-linecap="round"/>
<line x1="528.5" y1="533.9" x2="544.4" y2="580.8" stroke="#3fb950" stroke-width="1.90" opacity="0.80" stroke-linecap="round"/>
<line x1="544.4" y1="580.8" x2="572.3" y2="599.8" stroke="#7bc96f" stroke-width="1.55" opacity="0.70" stroke-linecap="round"/>
<line x1="572.3" y1="599.8" x2="588.8" y2="614.1" stroke="#d29922" stroke-width="1.20" opacity="0.60" stroke-linecap="round"/>
<line x1="544.4" y1="580.8" x2="533.3" y2="613.3" stroke="#7bc96f" stroke-width="1.55" opacity="0.70" stroke-linecap="round"/>
<line x1="533.3" y1="613.3" x2="540.4" y2="636.6" stroke="#d29922" stroke-width="1.20" opacity="0.60" stroke-linecap="round"/>
<line x1="533.3" y1="613.3" x2="513.3" y2="625.9" stroke="#d29922" stroke-width="1.20" opacity="0.60" stroke-linecap="round"/>
<line x1="466.0" y1="498.8" x2="471.0" y2="564.1" stroke="#4f9ee0" stroke-width="2.25" opacity="0.90" stroke-linecap="round"/>
<line x1="471.0" y1="564.1" x2="496.4" y2="599.4" stroke="#3fb950" stroke-width="1.90" opacity="0.80" stroke-linecap="round"/>
<line x1="496.4" y1="599.4" x2="523.5" y2="614.5" stroke="#7bc96f" stroke-width="1.55" opacity="0.70" stroke-linecap="round"/>
<line x1="523.5" y1="614.5" x2="538.6" y2="627.7" stroke="#d29922" stroke-width="1.20" opacity="0.60" stroke-linecap="round"/>
<line x1="496.4" y1="599.4" x2="502.6" y2="627.5" stroke="#7bc96f" stroke-width="1.55" opacity="0.70" stroke-linecap="round"/>
<line x1="502.6" y1="627.5" x2="513.6" y2="642.9" stroke="#d29922" stroke-width="1.20" opacity="0.60" stroke-linecap="round"/>
<line x1="502.6" y1="627.5" x2="499.6" y2="647.3" stroke="#d29922" stroke-width="1.20" opacity="0.60" stroke-linecap="round"/>
<line x1="471.0" y1="564.1" x2="449.5" y2="602.3" stroke="#3fb950" stroke-width="1.90" opacity="0.80" stroke-linecap="round"/>
<line x1="449.5" y1="602.3" x2="450.3" y2="631.9" stroke="#7bc96f" stroke-width="1.55" opacity="0.70" stroke-linecap="round"/>
<line x1="450.3" y1="631.9" x2="446.3" y2="650.5" stroke="#d29922" stroke-width="1.20" opacity="0.60" stroke-linecap="round"/>
<line x1="449.5" y1="602.3" x2="424.0" y2="617.0" stroke="#7bc96f" stroke-width="1.55" opacity="0.70" stroke-linecap="round"/>
<line x1="424.0" y1="617.0" x2="404.1" y2="622.9" stroke="#d29922" stroke-width="1.20" opacity="0.60" stroke-linecap="round"/>
<line x1="410.0" y1="410.0" x2="362.1" y2="503.5" stroke="#58a6ff" stroke-width="2.60" opacity="1.00" stroke-linecap="round"/>
<line x1="362.1" y1="503.5" x2="362.2" y2="572.3" stroke="#4f9ee0" stroke-width="2.25" opacity="0.90" stroke-linecap="round"/>
<line x1="362.2" y1="572.3" x2="378.0" y2="612.0" stroke="#3fb950" stroke-width="1.90" opacity="0.80" stroke-linecap="round"/>
<line x1="378.0" y1="612.0" x2="401.0" y2="629.5" stroke="#7bc96f" stroke-width="1.55" opacity="0.70" stroke-linecap="round"/>
<line x1="401.0" y1="629.5" x2="418.1" y2="635.7" stroke="#d29922" stroke-width="1.20" opacity="0.60" stroke-linecap="round"/>
<line x1="378.0" y1="612.0" x2="373.2" y2="641.2" stroke="#7bc96f" stroke-width="1.55" opacity="0.70" stroke-linecap="round"/>
<line x1="373.2" y1="641.2" x2="371.2" y2="660.7" stroke="#d29922" stroke-width="1.20" opacity="0.60" stroke-linecap="round"/>
<line x1="362.2" y1="572.3" x2="347.4" y2="612.9" stroke="#3fb950" stroke-width="1.90" opacity="0.80" stroke-linecap="round"/>
<line x1="347.4" y1="612.9" x2="350.8" y2="639.7" stroke="#7bc96f" stroke-width="1.55" opacity="0.70" stroke-linecap="round"/>
<line x1="350.8" y1="639.7" x2="350.9" y2="659.1" stroke="#d29922" stroke-width="1.20" opacity="0.60" stroke-linecap="round"/>
<line x1="347.4" y1="612.9" x2="326.6" y2="633.2" stroke="#7bc96f" stroke-width="1.55" opacity="0.70" stroke-linecap="round"/>
<line x1="326.6" y1="633.2" x2="310.1" y2="644.5" stroke="#d29922" stroke-width="1.20" opacity="0.60" stroke-linecap="round"/>
<line x1="362.1" y1="503.5" x2="312.8" y2="546.0" stroke="#4f9ee0" stroke-width="2.25" opacity="0.90" stroke-linecap="round"/>
<line x1="312.8" y1="546.0" x2="294.3" y2="588.0" stroke="#3fb950" stroke-width="1.90" opacity="0.80" stroke-linecap="round"/>
<line x1="294.3" y1="588.0" x2="301.9" y2="617.6" stroke="#7bc96f" stroke-width="1.55" opacity="0.70" stroke-linecap="round"/>
<line x1="301.9" y1="617.6" x2="318.5" y2="631.1" stroke="#d29922" stroke-width="1.20" opacity="0.60" stroke-linecap="round"/>
<line x1="301.9" y1="617.6" x2="293.7" y2="636.5" stroke="#d29922" stroke-width="1.20" opacity="0.60" stroke-linecap="round"/>
<line x1="294.3" y1="588.0" x2="266.6" y2="604.3" stroke="#7bc96f" stroke-width="1.55" opacity="0.70" stroke-linecap="round"/>
<line x1="266.6" y1="604.3" x2="246.8" y2="610.8" stroke="#d29922" stroke-width="1.20" opacity="0.60" stroke-linecap="round"/>
<line x1="312.8" y1="546.0" x2="273.0" y2="560.3" stroke="#3fb950" stroke-width="1.90" opacity="0.80" stroke-linecap="round"/>
<line x1="273.0" y1="560.3" x2="257.0" y2="581.8" stroke="#7bc96f" stroke-width="1.55" opacity="0.70" stroke-linecap="round"/>
<line x1="257.0" y1="581.8" x2="244.1" y2="594.3" stroke="#d29922" stroke-width="1.20" opacity="0.60" stroke-linecap="round"/>
<line x1="273.0" y1="560.3" x2="245.7" y2="554.6" stroke="#7bc96f" stroke-width="1.55" opacity="0.70" stroke-linecap="round"/>
<line x1="245.7" y1="554.6" x2="228.0" y2="561.0" stroke="#d29922" stroke-width="1.20" opacity="0.60" stroke-linecap="round"/>
<line x1="245.7" y1="554.6" x2="234.3" y2="541.4" stroke="#d29922" stroke-width="1.20" opacity="0.60" stroke-linecap="round"/>
<line x1="410.0" y1="410.0" x2="305.2" y2="417.1" stroke="#58a6ff" stroke-width="2.60" opacity="1.00" stroke-linecap="round"/>
<line x1="305.2" y1="417.1" x2="249.5" y2="458.0" stroke="#4f9ee0" stroke-width="2.25" opacity="0.90" stroke-linecap="round"/>
<line x1="249.5" y1="458.0" x2="236.1" y2="499.9" stroke="#3fb950" stroke-width="1.90" opacity="0.80" stroke-linecap="round"/>
<line x1="236.1" y1="499.9" x2="240.1" y2="527.7" stroke="#7bc96f" stroke-width="1.55" opacity="0.70" stroke-linecap="round"/>
<line x1="240.1" y1="527.7" x2="243.3" y2="547.3" stroke="#d29922" stroke-width="1.20" opacity="0.60" stroke-linecap="round"/>
<line x1="236.1" y1="499.9" x2="213.6" y2="521.0" stroke="#7bc96f" stroke-width="1.55" opacity="0.70" stroke-linecap="round"/>
<line x1="213.6" y1="521.0" x2="204.2" y2="539.3" stroke="#d29922" stroke-width="1.20" opacity="0.60" stroke-linecap="round"/>
<line x1="249.5" y1="458.0" x2="200.5" y2="455.9" stroke="#3fb950" stroke-width="1.90" opacity="0.80" stroke-linecap="round"/>
<line x1="200.5" y1="455.9" x2="176.7" y2="476.3" stroke="#7bc96f" stroke-width="1.55" opacity="0.70" stroke-linecap="round"/>
<line x1="176.7" y1="476.3" x2="165.2" y2="494.9" stroke="#d29922" stroke-width="1.20" opacity="0.60" stroke-linecap="round"/>
<line x1="200.5" y1="455.9" x2="176.7" y2="435.7" stroke="#7bc96f" stroke-width="1.55" opacity="0.70" stroke-linecap="round"/>
<line x1="176.7" y1="435.7" x2="154.7" y2="431.5" stroke="#d29922" stroke-width="1.20" opacity="0.60" stroke-linecap="round"/>
<line x1="176.7" y1="435.7" x2="167.9" y2="415.3" stroke="#d29922" stroke-width="1.20" opacity="0.60" stroke-linecap="round"/>
<line x1="305.2" y1="417.1" x2="241.6" y2="384.0" stroke="#4f9ee0" stroke-width="2.25" opacity="0.90" stroke-linecap="round"/>
<line x1="241.6" y1="384.0" x2="194.1" y2="390.4" stroke="#3fb950" stroke-width="1.90" opacity="0.80" stroke-linecap="round"/>
<line x1="194.1" y1="390.4" x2="168.4" y2="407.5" stroke="#7bc96f" stroke-width="1.55" opacity="0.70" stroke-linecap="round"/>
<line x1="168.4" y1="407.5" x2="157.0" y2="424.2" stroke="#d29922" stroke-width="1.20" opacity="0.60" stroke-linecap="round"/>
<line x1="168.4" y1="407.5" x2="149.0" y2="410.1" stroke="#d29922" stroke-width="1.20" opacity="0.60" stroke-linecap="round"/>
<line x1="194.1" y1="390.4" x2="166.1" y2="378.4" stroke="#7bc96f" stroke-width="1.55" opacity="0.70" stroke-linecap="round"/>
<line x1="166.1" y1="378.4" x2="146.9" y2="382.9" stroke="#d29922" stroke-width="1.20" opacity="0.60" stroke-linecap="round"/>
<line x1="166.1" y1="378.4" x2="155.1" y2="360.9" stroke="#d29922" stroke-width="1.20" opacity="0.60" stroke-linecap="round"/>
<line x1="241.6" y1="384.0" x2="218.6" y2="338.1" stroke="#3fb950" stroke-width="1.90" opacity="0.80" stroke-linecap="round"/>
<line x1="218.6" y1="338.1" x2="189.0" y2="324.3" stroke="#7bc96f" stroke-width="1.55" opacity="0.70" stroke-linecap="round"/>
<line x1="189.0" y1="324.3" x2="168.2" y2="324.7" stroke="#d29922" stroke-width="1.20" opacity="0.60" stroke-linecap="round"/>
<line x1="189.0" y1="324.3" x2="176.1" y2="308.1" stroke="#d29922" stroke-width="1.20" opacity="0.60" stroke-linecap="round"/>
<line x1="218.6" y1="338.1" x2="226.2" y2="304.9" stroke="#7bc96f" stroke-width="1.55" opacity="0.70" stroke-linecap="round"/>
<line x1="226.2" y1="304.9" x2="221.5" y2="283.9" stroke="#d29922" stroke-width="1.20" opacity="0.60" stroke-linecap="round"/>
<line x1="226.2" y1="304.9" x2="239.2" y2="288.1" stroke="#d29922" stroke-width="1.20" opacity="0.60" stroke-linecap="round"/>
<line x1="410.0" y1="410.0" x2="358.2" y2="318.6" stroke="#58a6ff" stroke-width="2.60" opacity="1.00" stroke-linecap="round"/>
<line x1="358.2" y1="318.6" x2="295.9" y2="293.8" stroke="#4f9ee0" stroke-width="2.25" opacity="0.90" stroke-linecap="round"/>
<line x1="295.9" y1="293.8" x2="250.9" y2="303.6" stroke="#3fb950" stroke-width="1.90" opacity="0.80" stroke-linecap="round"/>
<line x1="250.9" y1="303.6" x2="231.4" y2="324.5" stroke="#7bc96f" stroke-width="1.55" opacity="0.70" stroke-linecap="round"/>
<line x1="231.4" y1="324.5" x2="216.5" y2="337.6" stroke="#d29922" stroke-width="1.20" opacity="0.60" stroke-linecap="round"/>
<line x1="250.9" y1="303.6" x2="221.6" y2="291.5" stroke="#7bc96f" stroke-width="1.55" opacity="0.70" stroke-linecap="round"/>
<line x1="221.6" y1="291.5" x2="204.6" y2="276.5" stroke="#d29922" stroke-width="1.20" opacity="0.60" stroke-linecap="round"/>
<line x1="295.9" y1="293.8" x2="267.7" y2="255.0" stroke="#3fb950" stroke-width="1.90" opacity="0.80" stroke-linecap="round"/>
<line x1="267.7" y1="255.0" x2="238.4" y2="243.0" stroke="#7bc96f" stroke-width="1.55" opacity="0.70" stroke-linecap="round"/>
<line x1="238.4" y1="243.0" x2="218.1" y2="246.5" stroke="#d29922" stroke-width="1.20" opacity="0.60" stroke-linecap="round"/>
<line x1="238.4" y1="243.0" x2="226.6" y2="226.1" stroke="#d29922" stroke-width="1.20" opacity="0.60" stroke-linecap="round"/>
<line x1="267.7" y1="255.0" x2="265.3" y2="225.0" stroke="#7bc96f" stroke-width="1.55" opacity="0.70" stroke-linecap="round"/>
<line x1="265.3" y1="225.0" x2="269.3" y2="203.7" stroke="#d29922" stroke-width="1.20" opacity="0.60" stroke-linecap="round"/>
<line x1="358.2" y1="318.6" x2="368.6" y2="250.3" stroke="#4f9ee0" stroke-width="2.25" opacity="0.90" stroke-linecap="round"/>
<line x1="368.6" y1="250.3" x2="344.5" y2="207.5" stroke="#3fb950" stroke-width="1.90" opacity="0.80" stroke-linecap="round"/>
<line x1="344.5" y1="207.5" x2="313.9" y2="195.2" stroke="#7bc96f" stroke-width="1.55" opacity="0.70" stroke-linecap="round"/>
<line x1="313.9" y1="195.2" x2="292.4" y2="200.7" stroke="#d29922" stroke-width="1.20" opacity="0.60" stroke-linecap="round"/>
<line x1="313.9" y1="195.2" x2="302.9" y2="176.9" stroke="#d29922" stroke-width="1.20" opacity="0.60" stroke-linecap="round"/>
<line x1="344.5" y1="207.5" x2="350.6" y2="176.2" stroke="#7bc96f" stroke-width="1.55" opacity="0.70" stroke-linecap="round"/>
<line x1="350.6" y1="176.2" x2="356.8" y2="156.6" stroke="#d29922" stroke-width="1.20" opacity="0.60" stroke-linecap="round"/>
<line x1="368.6" y1="250.3" x2="402.6" y2="221.5" stroke="#3fb950" stroke-width="1.90" opacity="0.80" stroke-linecap="round"/>
<line x1="402.6" y1="221.5" x2="415.3" y2="192.9" stroke="#7bc96f" stroke-width="1.55" opacity="0.70" stroke-linecap="round"/>
<line x1="415.3" y1="192.9" x2="410.2" y2="171.3" stroke="#d29922" stroke-width="1.20" opacity="0.60" stroke-linecap="round"/>
<line x1="415.3" y1="192.9" x2="433.6" y2="183.7" stroke="#d29922" stroke-width="1.20" opacity="0.60" stroke-linecap="round"/>
<line x1="402.6" y1="221.5" x2="429.0" y2="211.6" stroke="#7bc96f" stroke-width="1.55" opacity="0.70" stroke-linecap="round"/>
<line x1="429.0" y1="211.6" x2="443.2" y2="198.5" stroke="#d29922" stroke-width="1.20" opacity="0.60" stroke-linecap="round"/>
<line x1="429.0" y1="211.6" x2="448.1" y2="211.6" stroke="#d29922" stroke-width="1.20" opacity="0.60" stroke-linecap="round"/>
<line x1="410.0" y1="410.0" x2="463.4" y2="319.6" stroke="#58a6ff" stroke-width="2.60" opacity="1.00" stroke-linecap="round"/>
<line x1="463.4" y1="319.6" x2="460.0" y2="250.4" stroke="#4f9ee0" stroke-width="2.25" opacity="0.90" stroke-linecap="round"/>
<line x1="460.0" y1="250.4" x2="437.0" y2="212.7" stroke="#3fb950" stroke-width="1.90" opacity="0.80" stroke-linecap="round"/>
<line x1="437.0" y1="212.7" x2="410.6" y2="200.7" stroke="#7bc96f" stroke-width="1.55" opacity="0.70" stroke-linecap="round"/>
<line x1="410.6" y1="200.7" x2="396.1" y2="186.6" stroke="#d29922" stroke-width="1.20" opacity="0.60" stroke-linecap="round"/>
<line x1="437.0" y1="212.7" x2="441.1" y2="184.6" stroke="#7bc96f" stroke-width="1.55" opacity="0.70" stroke-linecap="round"/>
<line x1="441.1" y1="184.6" x2="439.1" y2="166.9" stroke="#d29922" stroke-width="1.20" opacity="0.60" stroke-linecap="round"/>
<line x1="460.0" y1="250.4" x2="477.1" y2="210.0" stroke="#3fb950" stroke-width="1.90" opacity="0.80" stroke-linecap="round"/>
<line x1="477.1" y1="210.0" x2="477.8" y2="181.2" stroke="#7bc96f" stroke-width="1.55" opacity="0.70" stroke-linecap="round"/>
<line x1="477.8" y1="181.2" x2="468.1" y2="165.2" stroke="#d29922" stroke-width="1.20" opacity="0.60" stroke-linecap="round"/>
<line x1="477.8" y1="181.2" x2="487.7" y2="165.6" stroke="#d29922" stroke-width="1.20" opacity="0.60" stroke-linecap="round"/>
<line x1="477.1" y1="210.0" x2="498.9" y2="188.7" stroke="#7bc96f" stroke-width="1.55" opacity="0.70" stroke-linecap="round"/>
<line x1="498.9" y1="188.7" x2="515.9" y2="176.3" stroke="#d29922" stroke-width="1.20" opacity="0.60" stroke-linecap="round"/>
<line x1="463.4" y1="319.6" x2="529.7" y2="293.3" stroke="#4f9ee0" stroke-width="2.25" opacity="0.90" stroke-linecap="round"/>
<line x1="529.7" y1="293.3" x2="559.1" y2="258.1" stroke="#3fb950" stroke-width="1.90" opacity="0.80" stroke-linecap="round"/>
<line x1="559.1" y1="258.1" x2="562.2" y2="226.6" stroke="#7bc96f" stroke-width="1.55" opacity="0.70" stroke-linecap="round"/>
<line x1="562.2" y1="226.6" x2="566.5" y2="207.0" stroke="#d29922" stroke-width="1.20" opacity="0.60" stroke-linecap="round"/>
<line x1="559.1" y1="258.1" x2="589.0" y2="249.5" stroke="#7bc96f" stroke-width="1.55" opacity="0.70" stroke-linecap="round"/>
<line x1="589.0" y1="249.5" x2="604.1" y2="234.3" stroke="#d29922" stroke-width="1.20" opacity="0.60" stroke-linecap="round"/>
<line x1="589.0" y1="249.5" x2="607.7" y2="254.7" stroke="#d29922" stroke-width="1.20" opacity="0.60" stroke-linecap="round"/>
<line x1="529.7" y1="293.3" x2="574.1" y2="301.3" stroke="#3fb950" stroke-width="1.90" opacity="0.80" stroke-linecap="round"/>
<line x1="574.1" y1="301.3" x2="602.5" y2="289.2" stroke="#7bc96f" stroke-width="1.55" opacity="0.70" stroke-linecap="round"/>
<line x1="602.5" y1="289.2" x2="620.9" y2="278.7" stroke="#d29922" stroke-width="1.20" opacity="0.60" stroke-linecap="round"/>
<line x1="574.1" y1="301.3" x2="593.6" y2="323.1" stroke="#7bc96f" stroke-width="1.55" opacity="0.70" stroke-linecap="round"/>
<line x1="593.6" y1="323.1" x2="611.9" y2="327.6" stroke="#d29922" stroke-width="1.20" opacity="0.60" stroke-linecap="round"/>
<line x1="593.6" y1="323.1" x2="593.7" y2="344.0" stroke="#d29922" stroke-width="1.20" opacity="0.60" stroke-linecap="round"/>
<circle cx="514.8" cy="403.5" r="2.60" fill="#58a6ff" opacity="0.85"/>
<circle cx="571.1" cy="364.2" r="2.30" fill="#4f9ee0" opacity="0.85"/>
<circle cx="580.4" cy="321.8" r="2.00" fill="#3fb950" opacity="0.85"/>
<circle cx="567.8" cy="295.6" r="1.70" fill="#7bc96f" opacity="0.85"/>
<circle cx="606.0" cy="304.5" r="1.70" fill="#7bc96f" opacity="0.85"/>
<circle cx="617.1" cy="366.0" r="2.00" fill="#3fb950" opacity="0.85"/>
<circle cx="642.9" cy="349.3" r="1.70" fill="#7bc96f" opacity="0.85"/>
<circle cx="641.1" cy="385.2" r="1.70" fill="#7bc96f" opacity="0.85"/>
<circle cx="572.6" cy="438.5" r="2.30" fill="#4f9ee0" opacity="0.85"/>
<circle cx="615.5" cy="435.2" r="2.00" fill="#3fb950" opacity="0.85"/>
<circle cx="638.9" cy="416.2" r="1.70" fill="#7bc96f" opacity="0.85"/>
<circle cx="639.6" cy="451.5" r="1.70" fill="#7bc96f" opacity="0.85"/>
<circle cx="587.0" cy="484.1" r="2.00" fill="#3fb950" opacity="0.85"/>
<circle cx="610.3" cy="506.5" r="1.70" fill="#7bc96f" opacity="0.85"/>
<circle cx="582.3" cy="514.5" r="1.70" fill="#7bc96f" opacity="0.85"/>
<circle cx="466.0" cy="498.8" r="2.60" fill="#58a6ff" opacity="0.85"/>
<circle cx="528.5" cy="533.9" r="2.30" fill="#4f9ee0" opacity="0.85"/>
<circle cx="579.7" cy="530.0" r="2.00" fill="#3fb950" opacity="0.85"/>
<circle cx="606.7" cy="511.9" r="1.70" fill="#7bc96f" opacity="0.85"/>
<circle cx="612.1" cy="545.1" r="1.70" fill="#7bc96f" opacity="0.85"/>
<circle cx="544.4" cy="580.8" r="2.00" fill="#3fb950" opacity="0.85"/>
<circle cx="572.3" cy="599.8" r="1.70" fill="#7bc96f" opacity="0.85"/>
<circle cx="533.3" cy="613.3" r="1.70" fill="#7bc96f" opacity="0.85"/>
<circle cx="471.0" cy="564.1" r="2.30" fill="#4f9ee0" opacity="0.85"/>
<circle cx="496.4" cy="599.4" r="2.00" fill="#3fb950" opacity="0.85"/>
<circle cx="523.5" cy="614.5" r="1.70" fill="#7bc96f" opacity="0.85"/>
<circle cx="502.6" cy="627.5" r="1.70" fill="#7bc96f" opacity="0.85"/>
<circle cx="449.5" cy="602.3" r="2.00" fill="#3fb950" opacity="0.85"/>
<circle cx="450.3" cy="631.9" r="1.70" fill="#7bc96f" opacity="0.85"/>
<circle cx="424.0" cy="617.0" r="1.70" fill="#7bc96f" opacity="0.85"/>
<circle cx="362.1" cy="503.5" r="2.60" fill="#58a6ff" opacity="0.85"/>
<circle cx="362.2" cy="572.3" r="2.30" fill="#4f9ee0" opacity="0.85"/>
<circle cx="378.0" cy="612.0" r="2.00" fill="#3fb950" opacity="0.85"/>
<circle cx="401.0" cy="629.5" r="1.70" fill="#7bc96f" opacity="0.85"/>
<circle cx="373.2" cy="641.2" r="1.70" fill="#7bc96f" opacity="0.85"/>
<circle cx="347.4" cy="612.9" r="2.00" fill="#3fb950" opacity="0.85"/>
<circle cx="350.8" cy="639.7" r="1.70" fill="#7bc96f" opacity="0.85"/>
<circle cx="326.6" cy="633.2" r="1.70" fill="#7bc96f" opacity="0.85"/>
<circle cx="312.8" cy="546.0" r="2.30" fill="#4f9ee0" opacity="0.85"/>
<circle cx="294.3" cy="588.0" r="2.00" fill="#3fb950" opacity="0.85"/>
<circle cx="301.9" cy="617.6" r="1.70" fill="#7bc96f" opacity="0.85"/>
<circle cx="266.6" cy="604.3" r="1.70" fill="#7bc96f" opacity="0.85"/>
<circle cx="273.0" cy="560.3" r="2.00" fill="#3fb950" opacity="0.85"/>
<circle cx="257.0" cy="581.8" r="1.70" fill="#7bc96f" opacity="0.85"/>
<circle cx="245.7" cy="554.6" r="1.70" fill="#7bc96f" opacity="0.85"/>
<circle cx="305.2" cy="417.1" r="2.60" fill="#58a6ff" opacity="0.85"/>
<circle cx="249.5" cy="458.0" r="2.30" fill="#4f9ee0" opacity="0.85"/>
<circle cx="236.1" cy="499.9" r="2.00" fill="#3fb950" opacity="0.85"/>
<circle cx="240.1" cy="527.7" r="1.70" fill="#7bc96f" opacity="0.85"/>
<circle cx="213.6" cy="521.0" r="1.70" fill="#7bc96f" opacity="0.85"/>
<circle cx="200.5" cy="455.9" r="2.00" fill="#3fb950" opacity="0.85"/>
<circle cx="176.7" cy="476.3" r="1.70" fill="#7bc96f" opacity="0.85"/>
<circle cx="176.7" cy="435.7" r="1.70" fill="#7bc96f" opacity="0.85"/>
<circle cx="241.6" cy="384.0" r="2.30" fill="#4f9ee0" opacity="0.85"/>
<circle cx="194.1" cy="390.4" r="2.00" fill="#3fb950" opacity="0.85"/>
<circle cx="168.4" cy="407.5" r="1.70" fill="#7bc96f" opacity="0.85"/>
<circle cx="166.1" cy="378.4" r="1.70" fill="#7bc96f" opacity="0.85"/>
<circle cx="218.6" cy="338.1" r="2.00" fill="#3fb950" opacity="0.85"/>
<circle cx="189.0" cy="324.3" r="1.70" fill="#7bc96f" opacity="0.85"/>
<circle cx="226.2" cy="304.9" r="1.70" fill="#7bc96f" opacity="0.85"/>
<circle cx="358.2" cy="318.6" r="2.60" fill="#58a6ff" opacity="0.85"/>
<circle cx="295.9" cy="293.8" r="2.30" fill="#4f9ee0" opacity="0.85"/>
<circle cx="250.9" cy="303.6" r="2.00" fill="#3fb950" opacity="0.85"/>
<circle cx="231.4" cy="324.5" r="1.70" fill="#7bc96f" opacity="0.85"/>
<circle cx="221.6" cy="291.5" r="1.70" fill="#7bc96f" opacity="0.85"/>
<circle cx="267.7" cy="255.0" r="2.00" fill="#3fb950" opacity="0.85"/>
<circle cx="238.4" cy="243.0" r="1.70" fill="#7bc96f" opacity="0.85"/>
<circle cx="265.3" cy="225.0" r="1.70" fill="#7bc96f" opacity="0.85"/>
<circle cx="368.6" cy="250.3" r="2.30" fill="#4f9ee0" opacity="0.85"/>
<circle cx="344.5" cy="207.5" r="2.00" fill="#3fb950" opacity="0.85"/>
<circle cx="313.9" cy="195.2" r="1.70" fill="#7bc96f" opacity="0.85"/>
<circle cx="350.6" cy="176.2" r="1.70" fill="#7bc96f" opacity="0.85"/>
<circle cx="402.6" cy="221.5" r="2.00" fill="#3fb950" opacity="0.85"/>
<circle cx="415.3" cy="192.9" r="1.70" fill="#7bc96f" opacity="0.85"/>
<circle cx="429.0" cy="211.6" r="1.70" fill="#7bc96f" opacity="0.85"/>
<circle cx="463.4" cy="319.6" r="2.60" fill="#58a6ff" opacity="0.85"/>
<circle cx="460.0" cy="250.4" r="2.30" fill="#4f9ee0" opacity="0.85"/>
<circle cx="437.0" cy="212.7" r="2.00" fill="#3fb950" opacity="0.85"/>
<circle cx="410.6" cy="200.7" r="1.70" fill="#7bc96f" opacity="0.85"/>
<circle cx="441.1" cy="184.6" r="1.70" fill="#7bc96f" opacity="0.85"/>
<circle cx="477.1" cy="210.0" r="2.00" fill="#3fb950" opacity="0.85"/>
<circle cx="477.8" cy="181.2" r="1.70" fill="#7bc96f" opacity="0.85"/>
<circle cx="498.9" cy="188.7" r="1.70" fill="#7bc96f" opacity="0.85"/>
<circle cx="529.7" cy="293.3" r="2.30" fill="#4f9ee0" opacity="0.85"/>
<circle cx="559.1" cy="258.1" r="2.00" fill="#3fb950" opacity="0.85"/>
<circle cx="562.2" cy="226.6" r="1.70" fill="#7bc96f" opacity="0.85"/>
<circle cx="589.0" cy="249.5" r="1.70" fill="#7bc96f" opacity="0.85"/>
<circle cx="574.1" cy="301.3" r="2.00" fill="#3fb950" opacity="0.85"/>
<circle cx="602.5" cy="289.2" r="1.70" fill="#7bc96f" opacity="0.85"/>
<circle cx="593.6" cy="323.1" r="1.70" fill="#7bc96f" opacity="0.85"/>
<circle cx="557.1" cy="279.7" r="3" fill="none" stroke="#d29922" stroke-width="1" opacity="0.6"/>
<circle cx="613.8" cy="286.1" r="3" fill="none" stroke="#d29922" stroke-width="1" opacity="0.6"/>
<circle cx="626.2" cy="305.5" r="3" fill="none" stroke="#d29922" stroke-width="1" opacity="0.6"/>
<circle cx="651.1" cy="331.3" r="3" fill="none" stroke="#d29922" stroke-width="1" opacity="0.6"/>
<circle cx="664.4" cy="347.8" r="3" fill="none" stroke="#d29922" stroke-width="1" opacity="0.6"/>
<circle cx="653.2" cy="402.2" r="3" fill="none" stroke="#d29922" stroke-width="1" opacity="0.6"/>
<circle cx="645.7" cy="397.5" r="3" fill="none" stroke="#d29922" stroke-width="1" opacity="0.6"/>
<circle cx="658.3" cy="414.1" r="3" fill="none" stroke="#d29922" stroke-width="1" opacity="0.6"/>
<circle cx="660.3" cy="452.0" r="3" fill="none" stroke="#d29922" stroke-width="1" opacity="0.6"/>
<circle cx="648.7" cy="470.0" r="3" fill="none" stroke="#d29922" stroke-width="1" opacity="0.6"/>
<circle cx="625.3" cy="520.8" r="3" fill="none" stroke="#d29922" stroke-width="1" opacity="0.6"/>
<circle cx="592.8" cy="531.8" r="3" fill="none" stroke="#d29922" stroke-width="1" opacity="0.6"/>
<circle cx="567.4" cy="527.6" r="3" fill="none" stroke="#d29922" stroke-width="1" opacity="0.6"/>
<circle cx="615.5" cy="493.7" r="3" fill="none" stroke="#d29922" stroke-width="1" opacity="0.6"/>
<circle cx="629.2" cy="509.4" r="3" fill="none" stroke="#d29922" stroke-width="1" opacity="0.6"/>
<circle cx="632.1" cy="560.6" r="3" fill="none" stroke="#d29922" stroke-width="1" opacity="0.6"/>
<circle cx="588.8" cy="614.1" r="3" fill="none" stroke="#d29922" stroke-width="1" opacity="0.6"/>
<circle cx="540.4" cy="636.6" r="3" fill="none" stroke="#d29922" stroke-width="1" opacity="0.6"/>
<circle cx="513.3" cy="625.9" r="3" fill="none" stroke="#d29922" stroke-width="1" opacity="0.6"/>
<circle cx="538.6" cy="627.7" r="3" fill="none" stroke="#d29922" stroke-width="1" opacity="0.6"/>
<circle cx="513.6" cy="642.9" r="3" fill="none" stroke="#d29922" stroke-width="1" opacity="0.6"/>
<circle cx="499.6" cy="647.3" r="3" fill="none" stroke="#d29922" stroke-width="1" opacity="0.6"/>
<circle cx="446.3" cy="650.5" r="3" fill="none" stroke="#d29922" stroke-width="1" opacity="0.6"/>
<circle cx="404.1" cy="622.9" r="3" fill="none" stroke="#d29922" stroke-width="1" opacity="0.6"/>
<circle cx="418.1" cy="635.7" r="3" fill="none" stroke="#d29922" stroke-width="1" opacity="0.6"/>
<circle cx="371.2" cy="660.7" r="3" fill="none" stroke="#d29922" stroke-width="1" opacity="0.6"/>
<circle cx="350.9" cy="659.1" r="3" fill="none" stroke="#d29922" stroke-width="1" opacity="0.6"/>
<circle cx="310.1" cy="644.5" r="3" fill="none" stroke="#d29922" stroke-width="1" opacity="0.6"/>
<circle cx="318.5" cy="631.1" r="3" fill="none" stroke="#d29922" stroke-width="1" opacity="0.6"/>
<circle cx="293.7" cy="636.5" r="3" fill="none" stroke="#d29922" stroke-width="1" opacity="0.6"/>
<circle cx="246.8" cy="610.8" r="3" fill="none" stroke="#d29922" stroke-width="1" opacity="0.6"/>
<circle cx="244.1" cy="594.3" r="3" fill="none" stroke="#d29922" stroke-width="1" opacity="0.6"/>
<circle cx="228.0" cy="561.0" r="3" fill="none" stroke="#d29922" stroke-width="1" opacity="0.6"/>
<circle cx="234.3" cy="541.4" r="3" fill="none" stroke="#d29922" stroke-width="1" opacity="0.6"/>
<circle cx="243.3" cy="547.3" r="3" fill="none" stroke="#d29922" stroke-width="1" opacity="0.6"/>
<circle cx="204.2" cy="539.3" r="3" fill="none" stroke="#d29922" stroke-width="1" opacity="0.6"/>
<circle cx="165.2" cy="494.9" r="3" fill="none" stroke="#d29922" stroke-width="1" opacity="0.6"/>
<circle cx="154.7" cy="431.5" r="3" fill="none" stroke="#d29922" stroke-width="1" opacity="0.6"/>
<circle cx="167.9" cy="415.3" r="3" fill="none" stroke="#d29922" stroke-width="1" opacity="0.6"/>
<circle cx="157.0" cy="424.2" r="3" fill="none" stroke="#d29922" stroke-width="1" opacity="0.6"/>
<circle cx="149.0" cy="410.1" r="3" fill="none" stroke="#d29922" stroke-width="1" opacity="0.6"/>
<circle cx="146.9" cy="382.9" r="3" fill="none" stroke="#d29922" stroke-width="1" opacity="0.6"/>
<circle cx="155.1" cy="360.9" r="3" fill="none" stroke="#d29922" stroke-width="1" opacity="0.6"/>
<circle cx="168.2" cy="324.7" r="3" fill="none" stroke="#d29922" stroke-width="1" opacity="0.6"/>
<circle cx="176.1" cy="308.1" r="3" fill="none" stroke="#d29922" stroke-width="1" opacity="0.6"/>
<circle cx="221.5" cy="283.9" r="3" fill="none" stroke="#d29922" stroke-width="1" opacity="0.6"/>
<circle cx="239.2" cy="288.1" r="3" fill="none" stroke="#d29922" stroke-width="1" opacity="0.6"/>
<circle cx="216.5" cy="337.6" r="3" fill="none" stroke="#d29922" stroke-width="1" opacity="0.6"/>
<circle cx="204.6" cy="276.5" r="3" fill="none" stroke="#d29922" stroke-width="1" opacity="0.6"/>
<circle cx="218.1" cy="246.5" r="3" fill="none" stroke="#d29922" stroke-width="1" opacity="0.6"/>
<circle cx="226.6" cy="226.1" r="3" fill="none" stroke="#d29922" stroke-width="1" opacity="0.6"/>
<circle cx="269.3" cy="203.7" r="3" fill="none" stroke="#d29922" stroke-width="1" opacity="0.6"/>
<circle cx="292.4" cy="200.7" r="3" fill="none" stroke="#d29922" stroke-width="1" opacity="0.6"/>
<circle cx="302.9" cy="176.9" r="3" fill="none" stroke="#d29922" stroke-width="1" opacity="0.6"/>
<circle cx="356.8" cy="156.6" r="3" fill="none" stroke="#d29922" stroke-width="1" opacity="0.6"/>
<circle cx="410.2" cy="171.3" r="3" fill="none" stroke="#d29922" stroke-width="1" opacity="0.6"/>
<circle cx="433.6" cy="183.7" r="3" fill="none" stroke="#d29922" stroke-width="1" opacity="0.6"/>
<circle cx="443.2" cy="198.5" r="3" fill="none" stroke="#d29922" stroke-width="1" opacity="0.6"/>
<circle cx="448.1" cy="211.6" r="3" fill="none" stroke="#d29922" stroke-width="1" opacity="0.6"/>
<circle cx="396.1" cy="186.6" r="3" fill="none" stroke="#d29922" stroke-width="1" opacity="0.6"/>
<circle cx="439.1" cy="166.9" r="3" fill="none" stroke="#d29922" stroke-width="1" opacity="0.6"/>
<circle cx="468.1" cy="165.2" r="3" fill="none" stroke="#d29922" stroke-width="1" opacity="0.6"/>
<circle cx="487.7" cy="165.6" r="3" fill="none" stroke="#d29922" stroke-width="1" opacity="0.6"/>
<circle cx="515.9" cy="176.3" r="3" fill="none" stroke="#d29922" stroke-width="1" opacity="0.6"/>
<circle cx="566.5" cy="207.0" r="3" fill="none" stroke="#d29922" stroke-width="1" opacity="0.6"/>
<circle cx="604.1" cy="234.3" r="3" fill="none" stroke="#d29922" stroke-width="1" opacity="0.6"/>
<circle cx="607.7" cy="254.7" r="3" fill="none" stroke="#d29922" stroke-width="1" opacity="0.6"/>
<circle cx="620.9" cy="278.7" r="3" fill="none" stroke="#d29922" stroke-width="1" opacity="0.6"/>
<circle cx="611.9" cy="327.6" r="3" fill="none" stroke="#d29922" stroke-width="1" opacity="0.6"/>
<circle cx="593.7" cy="344.0" r="3" fill="none" stroke="#d29922" stroke-width="1" opacity="0.6"/>
<circle cx="410.0" cy="410.0" r="10" fill="#0d1117" stroke="#58a6ff" stroke-width="2"/>
<circle cx="410.0" cy="410.0" r="4" fill="#58a6ff"/>
<circle r="2.4" fill="#7ee787"><animateMotion dur="3.92s" begin="0.99s" repeatCount="indefinite" path="M514.8,403.5 L571.1,364.2"/></circle>
<circle r="2.4" fill="#f2cc60"><animateMotion dur="3.2s" begin="2.01s" repeatCount="indefinite" path="M238.4,243.0 L218.1,246.5"/></circle>
<circle r="2.4" fill="#79c0ff"><animateMotion dur="2.22s" begin="0.15s" repeatCount="indefinite" path="M477.8,181.2 L468.1,165.2"/></circle>
<circle r="2.4" fill="#7ee787"><animateMotion dur="2.2s" begin="2.19s" repeatCount="indefinite" path="M312.8,546.0 L294.3,588.0"/></circle>
<circle r="2.4" fill="#f2cc60"><animateMotion dur="2.27s" begin="1.02s" repeatCount="indefinite" path="M267.7,255.0 L265.3,225.0"/></circle>
<circle r="2.4" fill="#79c0ff"><animateMotion dur="3.14s" begin="1.97s" repeatCount="indefinite" path="M266.6,604.3 L246.8,610.8"/></circle>
<circle r="2.4" fill="#7ee787"><animateMotion dur="3.11s" begin="0.36s" repeatCount="indefinite" path="M559.1,258.1 L589.0,249.5"/></circle>
<text x="806" y="806" text-anchor="end" font-size="9" fill="#484f58" letter-spacing="1">// circuit_bloom.py — seed:20260818 — spokes:6 — regenerated daily</text>
</svg>