<svg viewBox="0 0 820 820" width="820" height="820" xmlns="http://www.w3.org/2000/svg" font-family="'Fira Code',monospace">
<defs>
<pattern id="g2" width="22" height="22" patternUnits="userSpaceOnUse">
<path d="M 22 0 L 0 0 0 22" fill="none" stroke="#30363d" stroke-width="0.4" opacity="0.3"/>
</pattern>
<radialGradient id="glow" cx="50%" cy="50%" r="50%">
<stop offset="0%" stop-color="#58a6ff" stop-opacity="0.35"/>
<stop offset="100%" stop-color="#58a6ff" stop-opacity="0"/>
</radialGradient>
</defs>
<rect x="0" y="0" width="820" height="820" fill="#0d1117"/>
<rect x="0" y="0" width="820" height="820" fill="url(#g2)"/>
<circle cx="410.0" cy="410.0" r="230" fill="url(#glow)"/>
<line x1="410.0" y1="410.0" x2="514.9" y2="414.3" stroke="#58a6ff" stroke-width="2.60" opacity="1.00" stroke-linecap="round"/>
<line x1="514.9" y1="414.3" x2="573.5" y2="376.7" stroke="#4f9ee0" stroke-width="2.25" opacity="0.90" stroke-linecap="round"/>
<line x1="573.5" y1="376.7" x2="593.4" y2="336.6" stroke="#3fb950" stroke-width="1.90" opacity="0.80" stroke-linecap="round"/>
<line x1="593.4" y1="336.6" x2="588.3" y2="305.5" stroke="#7bc96f" stroke-width="1.55" opacity="0.70" stroke-linecap="round"/>
<line x1="588.3" y1="305.5" x2="582.0" y2="286.8" stroke="#d29922" stroke-width="1.20" opacity="0.60" stroke-linecap="round"/>
<line x1="593.4" y1="336.6" x2="617.6" y2="320.2" stroke="#7bc96f" stroke-width="1.55" opacity="0.70" stroke-linecap="round"/>
<line x1="617.6" y1="320.2" x2="625.9" y2="301.3" stroke="#d29922" stroke-width="1.20" opacity="0.60" stroke-linecap="round"/>
<line x1="617.6" y1="320.2" x2="636.7" y2="318.9" stroke="#d29922" stroke-width="1.20" opacity="0.60" stroke-linecap="round"/>
<line x1="573.5" y1="376.7" x2="621.0" y2="379.9" stroke="#3fb950" stroke-width="1.90" opacity="0.80" stroke-linecap="round"/>
<line x1="621.0" y1="379.9" x2="648.0" y2="364.1" stroke="#7bc96f" stroke-width="1.55" opacity="0.70" stroke-linecap="round"/>
<line x1="648.0" y1="364.1" x2="655.5" y2="345.9" stroke="#d29922" stroke-width="1.20" opacity="0.60" stroke-linecap="round"/>
<line x1="648.0" y1="364.1" x2="667.5" y2="364.6" stroke="#d29922" stroke-width="1.20" opacity="0.60" stroke-linecap="round"/>
<line x1="621.0" y1="379.9" x2="643.8" y2="401.3" stroke="#7bc96f" stroke-width="1.55" opacity="0.70" stroke-linecap="round"/>
<line x1="643.8" y1="401.3" x2="666.0" y2="403.7" stroke="#d29922" stroke-width="1.20" opacity="0.60" stroke-linecap="round"/>
<line x1="643.8" y1="401.3" x2="648.9" y2="421.0" stroke="#d29922" stroke-width="1.20" opacity="0.60" stroke-linecap="round"/>
<line x1="514.9" y1="414.3" x2="564.1" y2="460.6" stroke="#4f9ee0" stroke-width="2.25" opacity="0.90" stroke-linecap="round"/>
<line x1="564.1" y1="460.6" x2="608.1" y2="466.0" stroke="#3fb950" stroke-width="1.90" opacity="0.80" stroke-linecap="round"/>
<line x1="608.1" y1="466.0" x2="638.0" y2="456.5" stroke="#7bc96f" stroke-width="1.55" opacity="0.70" stroke-linecap="round"/>
<line x1="638.0" y1="456.5" x2="649.8" y2="439.3" stroke="#d29922" stroke-width="1.20" opacity="0.60" stroke-linecap="round"/>
<line x1="638.0" y1="456.5" x2="657.6" y2="465.3" stroke="#d29922" stroke-width="1.20" opacity="0.60" stroke-linecap="round"/>
<line x1="608.1" y1="466.0" x2="633.9" y2="480.8" stroke="#7bc96f" stroke-width="1.55" opacity="0.70" stroke-linecap="round"/>
<line x1="633.9" y1="480.8" x2="653.2" y2="488.4" stroke="#d29922" stroke-width="1.20" opacity="0.60" stroke-linecap="round"/>
<line x1="564.1" y1="460.6" x2="570.5" y2="504.7" stroke="#3fb950" stroke-width="1.90" opacity="0.80" stroke-linecap="round"/>
<line x1="570.5" y1="504.7" x2="591.9" y2="525.3" stroke="#7bc96f" stroke-width="1.55" opacity="0.70" stroke-linecap="round"/>
<line x1="591.9" y1="525.3" x2="612.3" y2="530.7" stroke="#d29922" stroke-width="1.20" opacity="0.60" stroke-linecap="round"/>
<line x1="591.9" y1="525.3" x2="598.4" y2="544.9" stroke="#d29922" stroke-width="1.20" opacity="0.60" stroke-linecap="round"/>
<line x1="570.5" y1="504.7" x2="556.7" y2="532.6" stroke="#7bc96f" stroke-width="1.55" opacity="0.70" stroke-linecap="round"/>
<line x1="556.7" y1="532.6" x2="543.7" y2="549.2" stroke="#d29922" stroke-width="1.20" opacity="0.60" stroke-linecap="round"/>
<line x1="410.0" y1="410.0" x2="458.4" y2="503.2" stroke="#58a6ff" stroke-width="2.60" opacity="1.00" stroke-linecap="round"/>
<line x1="458.4" y1="503.2" x2="517.4" y2="533.2" stroke="#4f9ee0" stroke-width="2.25" opacity="0.90" stroke-linecap="round"/>
<line x1="517.4" y1="533.2" x2="564.2" y2="526.8" stroke="#3fb950" stroke-width="1.90" opacity="0.80" stroke-linecap="round"/>
<line x1="564.2" y1="526.8" x2="593.5" y2="510.6" stroke="#7bc96f" stroke-width="1.55" opacity="0.70" stroke-linecap="round"/>
<line x1="593.5" y1="510.6" x2="603.8" y2="490.7" stroke="#d29922" stroke-width="1.20" opacity="0.60" stroke-linecap="round"/>
<line x1="593.5" y1="510.6" x2="615.1" y2="512.4" stroke="#d29922" stroke-width="1.20" opacity="0.60" stroke-linecap="round"/>
<line x1="564.2" y1="526.8" x2="594.2" y2="534.6" stroke="#7bc96f" stroke-width="1.55" opacity="0.70" stroke-linecap="round"/>
<line x1="594.2" y1="534.6" x2="614.5" y2="538.4" stroke="#d29922" stroke-width="1.20" opacity="0.60" stroke-linecap="round"/>
<line x1="517.4" y1="533.2" x2="538.5" y2="574.1" stroke="#3fb950" stroke-width="1.90" opacity="0.80" stroke-linecap="round"/>
<line x1="538.5" y1="574.1" x2="562.4" y2="594.4" stroke="#7bc96f" stroke-width="1.55" opacity="0.70" stroke-linecap="round"/>
<line x1="562.4" y1="594.4" x2="581.2" y2="599.4" stroke="#d29922" stroke-width="1.20" opacity="0.60" stroke-linecap="round"/>
<line x1="562.4" y1="594.4" x2="569.9" y2="612.6" stroke="#d29922" stroke-width="1.20" opacity="0.60" stroke-linecap="round"/>
<line x1="538.5" y1="574.1" x2="538.2" y2="603.6" stroke="#7bc96f" stroke-width="1.55" opacity="0.70" stroke-linecap="round"/>
<line x1="538.2" y1="603.6" x2="542.1" y2="622.8" stroke="#d29922" stroke-width="1.20" opacity="0.60" stroke-linecap="round"/>
<line x1="458.4" y1="503.2" x2="453.8" y2="572.9" stroke="#4f9ee0" stroke-width="2.25" opacity="0.90" stroke-linecap="round"/>
<line x1="453.8" y1="572.9" x2="470.6" y2="619.1" stroke="#3fb950" stroke-width="1.90" opacity="0.80" stroke-linecap="round"/>
<line x1="470.6" y1="619.1" x2="498.4" y2="639.2" stroke="#7bc96f" stroke-width="1.55" opacity="0.70" stroke-linecap="round"/>
<line x1="498.4" y1="639.2" x2="522.5" y2="640.2" stroke="#d29922" stroke-width="1.20" opacity="0.60" stroke-linecap="round"/>
<line x1="498.4" y1="639.2" x2="506.4" y2="659.0" stroke="#d29922" stroke-width="1.20" opacity="0.60" stroke-linecap="round"/>
<line x1="470.6" y1="619.1" x2="460.3" y2="652.2" stroke="#7bc96f" stroke-width="1.55" opacity="0.70" stroke-linecap="round"/>
<line x1="460.3" y1="652.2" x2="461.3" y2="676.8" stroke="#d29922" stroke-width="1.20" opacity="0.60" stroke-linecap="round"/>
<line x1="460.3" y1="652.2" x2="444.3" y2="669.3" stroke="#d29922" stroke-width="1.20" opacity="0.60" stroke-linecap="round"/>
<line x1="453.8" y1="572.9" x2="434.1" y2="613.8" stroke="#3fb950" stroke-width="1.90" opacity="0.80" stroke-linecap="round"/>
<line x1="434.1" y1="613.8" x2="431.8" y2="643.9" stroke="#7bc96f" stroke-width="1.55" opacity="0.70" stroke-linecap="round"/>
<line x1="431.8" y1="643.9" x2="442.4" y2="662.2" stroke="#d29922" stroke-width="1.20" opacity="0.60" stroke-linecap="round"/>
<line x1="431.8" y1="643.9" x2="419.6" y2="658.4" stroke="#d29922" stroke-width="1.20" opacity="0.60" stroke-linecap="round"/>
<line x1="434.1" y1="613.8" x2="408.7" y2="634.5" stroke="#7bc96f" stroke-width="1.55" opacity="0.70" stroke-linecap="round"/>
<line x1="408.7" y1="634.5" x2="399.2" y2="655.1" stroke="#d29922" stroke-width="1.20" opacity="0.60" stroke-linecap="round"/>
<line x1="408.7" y1="634.5" x2="387.2" y2="638.5" stroke="#d29922" stroke-width="1.20" opacity="0.60" stroke-linecap="round"/>
<line x1="410.0" y1="410.0" x2="352.6" y2="497.9" stroke="#58a6ff" stroke-width="2.60" opacity="1.00" stroke-linecap="round"/>
<line x1="352.6" y1="497.9" x2="346.7" y2="572.9" stroke="#4f9ee0" stroke-width="2.25" opacity="0.90" stroke-linecap="round"/>
<line x1="346.7" y1="572.9" x2="369.1" y2="615.4" stroke="#3fb950" stroke-width="1.90" opacity="0.80" stroke-linecap="round"/>
<line x1="369.1" y1="615.4" x2="397.3" y2="629.3" stroke="#7bc96f" stroke-width="1.55" opacity="0.70" stroke-linecap="round"/>
<line x1="397.3" y1="629.3" x2="419.5" y2="631.4" stroke="#d29922" stroke-width="1.20" opacity="0.60" stroke-linecap="round"/>
<line x1="397.3" y1="629.3" x2="411.3" y2="646.9" stroke="#d29922" stroke-width="1.20" opacity="0.60" stroke-linecap="round"/>
<line x1="369.1" y1="615.4" x2="363.1" y2="645.6" stroke="#7bc96f" stroke-width="1.55" opacity="0.70" stroke-linecap="round"/>
<line x1="363.1" y1="645.6" x2="362.2" y2="666.5" stroke="#d29922" stroke-width="1.20" opacity="0.60" stroke-linecap="round"/>
<line x1="346.7" y1="572.9" x2="317.0" y2="609.9" stroke="#3fb950" stroke-width="1.90" opacity="0.80" stroke-linecap="round"/>
<line x1="317.0" y1="609.9" x2="316.3" y2="642.4" stroke="#7bc96f" stroke-width="1.55" opacity="0.70" stroke-linecap="round"/>
<line x1="316.3" y1="642.4" x2="314.0" y2="663.1" stroke="#d29922" stroke-width="1.20" opacity="0.60" stroke-linecap="round"/>
<line x1="317.0" y1="609.9" x2="288.0" y2="615.2" stroke="#7bc96f" stroke-width="1.55" opacity="0.70" stroke-linecap="round"/>
<line x1="288.0" y1="615.2" x2="268.7" y2="617.0" stroke="#d29922" stroke-width="1.20" opacity="0.60" stroke-linecap="round"/>
<line x1="352.6" y1="497.9" x2="287.1" y2="533.3" stroke="#4f9ee0" stroke-width="2.25" opacity="0.90" stroke-linecap="round"/>
<line x1="287.1" y1="533.3" x2="263.9" y2="573.4" stroke="#3fb950" stroke-width="1.90" opacity="0.80" stroke-linecap="round"/>
<line x1="263.9" y1="573.4" x2="268.3" y2="605.8" stroke="#7bc96f" stroke-width="1.55" opacity="0.70" stroke-linecap="round"/>
<line x1="268.3" y1="605.8" x2="280.3" y2="623.0" stroke="#d29922" stroke-width="1.20" opacity="0.60" stroke-linecap="round"/>
<line x1="268.3" y1="605.8" x2="261.7" y2="627.9" stroke="#d29922" stroke-width="1.20" opacity="0.60" stroke-linecap="round"/>
<line x1="263.9" y1="573.4" x2="234.3" y2="587.0" stroke="#7bc96f" stroke-width="1.55" opacity="0.70" stroke-linecap="round"/>
<line x1="234.3" y1="587.0" x2="211.3" y2="590.3" stroke="#d29922" stroke-width="1.20" opacity="0.60" stroke-linecap="round"/>
<line x1="287.1" y1="533.3" x2="240.6" y2="532.7" stroke="#3fb950" stroke-width="1.90" opacity="0.80" stroke-linecap="round"/>
<line x1="240.6" y1="532.7" x2="213.5" y2="545.8" stroke="#7bc96f" stroke-width="1.55" opacity="0.70" stroke-linecap="round"/>
<line x1="213.5" y1="545.8" x2="194.2" y2="553.7" stroke="#d29922" stroke-width="1.20" opacity="0.60" stroke-linecap="round"/>
<line x1="240.6" y1="532.7" x2="211.5" y2="518.7" stroke="#7bc96f" stroke-width="1.55" opacity="0.70" stroke-linecap="round"/>
<line x1="211.5" y1="518.7" x2="191.5" y2="513.3" stroke="#d29922" stroke-width="1.20" opacity="0.60" stroke-linecap="round"/>
<line x1="410.0" y1="410.0" x2="305.1" y2="405.4" stroke="#58a6ff" stroke-width="2.60" opacity="1.00" stroke-linecap="round"/>
<line x1="305.1" y1="405.4" x2="247.7" y2="436.2" stroke="#4f9ee0" stroke-width="2.25" opacity="0.90" stroke-linecap="round"/>
<line x1="247.7" y1="436.2" x2="227.6" y2="477.3" stroke="#3fb950" stroke-width="1.90" opacity="0.80" stroke-linecap="round"/>
<line x1="227.6" y1="477.3" x2="224.6" y2="507.8" stroke="#7bc96f" stroke-width="1.55" opacity="0.70" stroke-linecap="round"/>
<line x1="224.6" y1="507.8" x2="217.9" y2="527.4" stroke="#d29922" stroke-width="1.20" opacity="0.60" stroke-linecap="round"/>
<line x1="227.6" y1="477.3" x2="204.7" y2="497.4" stroke="#7bc96f" stroke-width="1.55" opacity="0.70" stroke-linecap="round"/>
<line x1="204.7" y1="497.4" x2="189.5" y2="510.1" stroke="#d29922" stroke-width="1.20" opacity="0.60" stroke-linecap="round"/>
<line x1="247.7" y1="436.2" x2="204.8" y2="429.4" stroke="#3fb950" stroke-width="1.90" opacity="0.80" stroke-linecap="round"/>
<line x1="204.8" y1="429.4" x2="178.2" y2="439.6" stroke="#7bc96f" stroke-width="1.55" opacity="0.70" stroke-linecap="round"/>
<line x1="178.2" y1="439.6" x2="166.4" y2="454.1" stroke="#d29922" stroke-width="1.20" opacity="0.60" stroke-linecap="round"/>
<line x1="178.2" y1="439.6" x2="158.5" y2="434.4" stroke="#d29922" stroke-width="1.20" opacity="0.60" stroke-linecap="round"/>
<line x1="204.8" y1="429.4" x2="179.7" y2="413.3" stroke="#7bc96f" stroke-width="1.55" opacity="0.70" stroke-linecap="round"/>
<line x1="179.7" y1="413.3" x2="159.7" y2="410.0" stroke="#d29922" stroke-width="1.20" opacity="0.60" stroke-linecap="round"/>
<line x1="179.7" y1="413.3" x2="168.5" y2="395.5" stroke="#d29922" stroke-width="1.20" opacity="0.60" stroke-linecap="round"/>
<line x1="305.1" y1="405.4" x2="245.9" y2="367.0" stroke="#4f9ee0" stroke-width="2.25" opacity="0.90" stroke-linecap="round"/>
<line x1="245.9" y1="367.0" x2="201.0" y2="374.3" stroke="#3fb950" stroke-width="1.90" opacity="0.80" stroke-linecap="round"/>
<line x1="201.0" y1="374.3" x2="180.9" y2="394.5" stroke="#7bc96f" stroke-width="1.55" opacity="0.70" stroke-linecap="round"/>
<line x1="180.9" y1="394.5" x2="164.5" y2="402.3" stroke="#d29922" stroke-width="1.20" opacity="0.60" stroke-linecap="round"/>
<line x1="201.0" y1="374.3" x2="175.9" y2="361.2" stroke="#7bc96f" stroke-width="1.55" opacity="0.70" stroke-linecap="round"/>
<line x1="175.9" y1="361.2" x2="161.1" y2="351.3" stroke="#d29922" stroke-width="1.20" opacity="0.60" stroke-linecap="round"/>
<line x1="245.9" y1="367.0" x2="230.8" y2="322.3" stroke="#3fb950" stroke-width="1.90" opacity="0.80" stroke-linecap="round"/>
<line x1="230.8" y1="322.3" x2="208.3" y2="298.5" stroke="#7bc96f" stroke-width="1.55" opacity="0.70" stroke-linecap="round"/>
<line x1="208.3" y1="298.5" x2="189.0" y2="286.1" stroke="#d29922" stroke-width="1.20" opacity="0.60" stroke-linecap="round"/>
<line x1="230.8" y1="322.3" x2="234.2" y2="290.3" stroke="#7bc96f" stroke-width="1.55" opacity="0.70" stroke-linecap="round"/>
<line x1="234.2" y1="290.3" x2="238.4" y2="268.7" stroke="#d29922" stroke-width="1.20" opacity="0.60" stroke-linecap="round"/>
<line x1="410.0" y1="410.0" x2="358.2" y2="318.6" stroke="#58a6ff" stroke-width="2.60" opacity="1.00" stroke-linecap="round"/>
<line x1="358.2" y1="318.6" x2="299.1" y2="281.5" stroke="#4f9ee0" stroke-width="2.25" opacity="0.90" stroke-linecap="round"/>
<line x1="299.1" y1="281.5" x2="249.1" y2="285.3" stroke="#3fb950" stroke-width="1.90" opacity="0.80" stroke-linecap="round"/>
<line x1="249.1" y1="285.3" x2="225.5" y2="305.9" stroke="#7bc96f" stroke-width="1.55" opacity="0.70" stroke-linecap="round"/>
<line x1="225.5" y1="305.9" x2="210.2" y2="320.3" stroke="#d29922" stroke-width="1.20" opacity="0.60" stroke-linecap="round"/>
<line x1="249.1" y1="285.3" x2="220.3" y2="267.1" stroke="#7bc96f" stroke-width="1.55" opacity="0.70" stroke-linecap="round"/>
<line x1="220.3" y1="267.1" x2="198.5" y2="271.3" stroke="#d29922" stroke-width="1.20" opacity="0.60" stroke-linecap="round"/>
<line x1="220.3" y1="267.1" x2="214.0" y2="246.6" stroke="#d29922" stroke-width="1.20" opacity="0.60" stroke-linecap="round"/>
<line x1="299.1" y1="281.5" x2="285.6" y2="236.2" stroke="#3fb950" stroke-width="1.90" opacity="0.80" stroke-linecap="round"/>
<line x1="285.6" y1="236.2" x2="263.8" y2="210.4" stroke="#7bc96f" stroke-width="1.55" opacity="0.70" stroke-linecap="round"/>
<line x1="263.8" y1="210.4" x2="254.6" y2="191.4" stroke="#d29922" stroke-width="1.20" opacity="0.60" stroke-linecap="round"/>
<line x1="285.6" y1="236.2" x2="290.8" y2="205.3" stroke="#7bc96f" stroke-width="1.55" opacity="0.70" stroke-linecap="round"/>
<line x1="290.8" y1="205.3" x2="294.4" y2="184.1" stroke="#d29922" stroke-width="1.20" opacity="0.60" stroke-linecap="round"/>
<line x1="358.2" y1="318.6" x2="361.9" y2="248.5" stroke="#4f9ee0" stroke-width="2.25" opacity="0.90" stroke-linecap="round"/>
<line x1="361.9" y1="248.5" x2="340.4" y2="208.2" stroke="#3fb950" stroke-width="1.90" opacity="0.80" stroke-linecap="round"/>
<line x1="340.4" y1="208.2" x2="316.5" y2="191.0" stroke="#7bc96f" stroke-width="1.55" opacity="0.70" stroke-linecap="round"/>
<line x1="316.5" y1="191.0" x2="301.6" y2="177.5" stroke="#d29922" stroke-width="1.20" opacity="0.60" stroke-linecap="round"/>
<line x1="340.4" y1="208.2" x2="339.1" y2="177.4" stroke="#7bc96f" stroke-width="1.55" opacity="0.70" stroke-linecap="round"/>
<line x1="339.1" y1="177.4" x2="328.4" y2="158.4" stroke="#d29922" stroke-width="1.20" opacity="0.60" stroke-linecap="round"/>
<line x1="339.1" y1="177.4" x2="347.9" y2="157.1" stroke="#d29922" stroke-width="1.20" opacity="0.60" stroke-linecap="round"/>
<line x1="361.9" y1="248.5" x2="387.1" y2="209.1" stroke="#3fb950" stroke-width="1.90" opacity="0.80" stroke-linecap="round"/>
<line x1="387.1" y1="209.1" x2="391.0" y2="180.2" stroke="#7bc96f" stroke-width="1.55" opacity="0.70" stroke-linecap="round"/>
<line x1="391.0" y1="180.2" x2="387.8" y2="161.3" stroke="#d29922" stroke-width="1.20" opacity="0.60" stroke-linecap="round"/>
<line x1="387.1" y1="209.1" x2="413.7" y2="190.6" stroke="#7bc96f" stroke-width="1.55" opacity="0.70" stroke-linecap="round"/>
<line x1="413.7" y1="190.6" x2="421.2" y2="171.2" stroke="#d29922" stroke-width="1.20" opacity="0.60" stroke-linecap="round"/>
<line x1="413.7" y1="190.6" x2="434.4" y2="191.3" stroke="#d29922" stroke-width="1.20" opacity="0.60" stroke-linecap="round"/>
<line x1="410.0" y1="410.0" x2="460.0" y2="317.7" stroke="#58a6ff" stroke-width="2.60" opacity="1.00" stroke-linecap="round"/>
<line x1="460.0" y1="317.7" x2="448.9" y2="248.1" stroke="#4f9ee0" stroke-width="2.25" opacity="0.90" stroke-linecap="round"/>
<line x1="448.9" y1="248.1" x2="411.5" y2="216.1" stroke="#3fb950" stroke-width="1.90" opacity="0.80" stroke-linecap="round"/>
<line x1="411.5" y1="216.1" x2="379.9" y2="214.8" stroke="#7bc96f" stroke-width="1.55" opacity="0.70" stroke-linecap="round"/>
<line x1="379.9" y1="214.8" x2="362.0" y2="226.8" stroke="#d29922" stroke-width="1.20" opacity="0.60" stroke-linecap="round"/>
<line x1="379.9" y1="214.8" x2="362.5" y2="202.5" stroke="#d29922" stroke-width="1.20" opacity="0.60" stroke-linecap="round"/>
<line x1="411.5" y1="216.1" x2="401.5" y2="183.4" stroke="#7bc96f" stroke-width="1.55" opacity="0.70" stroke-linecap="round"/>
<line x1="401.5" y1="183.4" x2="387.1" y2="165.5" stroke="#d29922" stroke-width="1.20" opacity="0.60" stroke-linecap="round"/>
<line x1="401.5" y1="183.4" x2="403.6" y2="159.5" stroke="#d29922" stroke-width="1.20" opacity="0.60" stroke-linecap="round"/>
<line x1="448.9" y1="248.1" x2="472.2" y2="203.6" stroke="#3fb950" stroke-width="1.90" opacity="0.80" stroke-linecap="round"/>
<line x1="472.2" y1="203.6" x2="465.1" y2="172.2" stroke="#7bc96f" stroke-width="1.55" opacity="0.70" stroke-linecap="round"/>
<line x1="465.1" y1="172.2" x2="451.8" y2="153.4" stroke="#d29922" stroke-width="1.20" opacity="0.60" stroke-linecap="round"/>
<line x1="465.1" y1="172.2" x2="469.9" y2="151.2" stroke="#d29922" stroke-width="1.20" opacity="0.60" stroke-linecap="round"/>
<line x1="472.2" y1="203.6" x2="500.3" y2="190.1" stroke="#7bc96f" stroke-width="1.55" opacity="0.70" stroke-linecap="round"/>
<line x1="500.3" y1="190.1" x2="514.6" y2="174.5" stroke="#d29922" stroke-width="1.20" opacity="0.60" stroke-linecap="round"/>
<line x1="500.3" y1="190.1" x2="519.7" y2="189.7" stroke="#d29922" stroke-width="1.20" opacity="0.60" stroke-linecap="round"/>
<line x1="460.0" y1="317.7" x2="524.9" y2="288.4" stroke="#4f9ee0" stroke-width="2.25" opacity="0.90" stroke-linecap="round"/>
<line x1="524.9" y1="288.4" x2="549.1" y2="246.9" stroke="#3fb950" stroke-width="1.90" opacity="0.80" stroke-linecap="round"/>
<line x1="549.1" y1="246.9" x2="545.5" y2="215.7" stroke="#7bc96f" stroke-width="1.55" opacity="0.70" stroke-linecap="round"/>
<line x1="545.5" y1="215.7" x2="531.2" y2="198.8" stroke="#d29922" stroke-width="1.20" opacity="0.60" stroke-linecap="round"/>
<line x1="545.5" y1="215.7" x2="555.7" y2="196.4" stroke="#d29922" stroke-width="1.20" opacity="0.60" stroke-linecap="round"/>
<line x1="549.1" y1="246.9" x2="577.4" y2="233.2" stroke="#7bc96f" stroke-width="1.55" opacity="0.70" stroke-linecap="round"/>
<line x1="577.4" y1="233.2" x2="599.0" y2="230.9" stroke="#d29922" stroke-width="1.20" opacity="0.60" stroke-linecap="round"/>
<line x1="524.9" y1="288.4" x2="575.1" y2="293.3" stroke="#3fb950" stroke-width="1.90" opacity="0.80" stroke-linecap="round"/>
<line x1="575.1" y1="293.3" x2="606.4" y2="283.1" stroke="#7bc96f" stroke-width="1.55" opacity="0.70" stroke-linecap="round"/>
<line x1="606.4" y1="283.1" x2="626.1" y2="272.5" stroke="#d29922" stroke-width="1.20" opacity="0.60" stroke-linecap="round"/>
<line x1="575.1" y1="293.3" x2="604.6" y2="309.4" stroke="#7bc96f" stroke-width="1.55" opacity="0.70" stroke-linecap="round"/>
<line x1="604.6" y1="309.4" x2="626.5" y2="318.6" stroke="#d29922" stroke-width="1.20" opacity="0.60" stroke-linecap="round"/>
<circle cx="514.9" cy="414.3" r="2.60" fill="#58a6ff" opacity="0.85"/>
<circle cx="573.5" cy="376.7" r="2.30" fill="#4f9ee0" opacity="0.85"/>
<circle cx="593.4" cy="336.6" r="2.00" fill="#3fb950" opacity="0.85"/>
<circle cx="588.3" cy="305.5" r="1.70" fill="#7bc96f" opacity="0.85"/>
<circle cx="617.6" cy="320.2" r="1.70" fill="#7bc96f" opacity="0.85"/>
<circle cx="621.0" cy="379.9" r="2.00" fill="#3fb950" opacity="0.85"/>
<circle cx="648.0" cy="364.1" r="1.70" fill="#7bc96f" opacity="0.85"/>
<circle cx="643.8" cy="401.3" r="1.70" fill="#7bc96f" opacity="0.85"/>
<circle cx="564.1" cy="460.6" r="2.30" fill="#4f9ee0" opacity="0.85"/>
<circle cx="608.1" cy="466.0" r="2.00" fill="#3fb950" opacity="0.85"/>
<circle cx="638.0" cy="456.5" r="1.70" fill="#7bc96f" opacity="0.85"/>
<circle cx="633.9" cy="480.8" r="1.70" fill="#7bc96f" opacity="0.85"/>
<circle cx="570.5" cy="504.7" r="2.00" fill="#3fb950" opacity="0.85"/>
<circle cx="591.9" cy="525.3" r="1.70" fill="#7bc96f" opacity="0.85"/>
<circle cx="556.7" cy="532.6" r="1.70" fill="#7bc96f" opacity="0.85"/>
<circle cx="458.4" cy="503.2" r="2.60" fill="#58a6ff" opacity="0.85"/>
<circle cx="517.4" cy="533.2" r="2.30" fill="#4f9ee0" opacity="0.85"/>
<circle cx="564.2" cy="526.8" r="2.00" fill="#3fb950" opacity="0.85"/>
<circle cx="593.5" cy="510.6" r="1.70" fill="#7bc96f" opacity="0.85"/>
<circle cx="594.2" cy="534.6" r="1.70" fill="#7bc96f" opacity="0.85"/>
<circle cx="538.5" cy="574.1" r="2.00" fill="#3fb950" opacity="0.85"/>
<circle cx="562.4" cy="594.4" r="1.70" fill="#7bc96f" opacity="0.85"/>
<circle cx="538.2" cy="603.6" r="1.70" fill="#7bc96f" opacity="0.85"/>
<circle cx="453.8" cy="572.9" r="2.30" fill="#4f9ee0" opacity="0.85"/>
<circle cx="470.6" cy="619.1" r="2.00" fill="#3fb950" opacity="0.85"/>
<circle cx="498.4" cy="639.2" r="1.70" fill="#7bc96f" opacity="0.85"/>
<circle cx="460.3" cy="652.2" r="1.70" fill="#7bc96f" opacity="0.85"/>
<circle cx="434.1" cy="613.8" r="2.00" fill="#3fb950" opacity="0.85"/>
<circle cx="431.8" cy="643.9" r="1.70" fill="#7bc96f" opacity="0.85"/>
<circle cx="408.7" cy="634.5" r="1.70" fill="#7bc96f" opacity="0.85"/>
<circle cx="352.6" cy="497.9" r="2.60" fill="#58a6ff" opacity="0.85"/>
<circle cx="346.7" cy="572.9" r="2.30" fill="#4f9ee0" opacity="0.85"/>
<circle cx="369.1" cy="615.4" r="2.00" fill="#3fb950" opacity="0.85"/>
<circle cx="397.3" cy="629.3" r="1.70" fill="#7bc96f" opacity="0.85"/>
<circle cx="363.1" cy="645.6" r="1.70" fill="#7bc96f" opacity="0.85"/>
<circle cx="317.0" cy="609.9" r="2.00" fill="#3fb950" opacity="0.85"/>
<circle cx="316.3" cy="642.4" r="1.70" fill="#7bc96f" opacity="0.85"/>
<circle cx="288.0" cy="615.2" r="1.70" fill="#7bc96f" opacity="0.85"/>
<circle cx="287.1" cy="533.3" r="2.30" fill="#4f9ee0" opacity="0.85"/>
<circle cx="263.9" cy="573.4" r="2.00" fill="#3fb950" opacity="0.85"/>
<circle cx="268.3" cy="605.8" r="1.70" fill="#7bc96f" opacity="0.85"/>
<circle cx="234.3" cy="587.0" r="1.70" fill="#7bc96f" opacity="0.85"/>
<circle cx="240.6" cy="532.7" r="2.00" fill="#3fb950" opacity="0.85"/>
<circle cx="213.5" cy="545.8" r="1.70" fill="#7bc96f" opacity="0.85"/>
<circle cx="211.5" cy="518.7" r="1.70" fill="#7bc96f" opacity="0.85"/>
<circle cx="305.1" cy="405.4" r="2.60" fill="#58a6ff" opacity="0.85"/>
<circle cx="247.7" cy="436.2" r="2.30" fill="#4f9ee0" opacity="0.85"/>
<circle cx="227.6" cy="477.3" r="2.00" fill="#3fb950" opacity="0.85"/>
<circle cx="224.6" cy="507.8" r="1.70" fill="#7bc96f" opacity="0.85"/>
<circle cx="204.7" cy="497.4" r="1.70" fill="#7bc96f" opacity="0.85"/>
<circle cx="204.8" cy="429.4" r="2.00" fill="#3fb950" opacity="0.85"/>
<circle cx="178.2" cy="439.6" r="1.70" fill="#7bc96f" opacity="0.85"/>
<circle cx="179.7" cy="413.3" r="1.70" fill="#7bc96f" opacity="0.85"/>
<circle cx="245.9" cy="367.0" r="2.30" fill="#4f9ee0" opacity="0.85"/>
<circle cx="201.0" cy="374.3" r="2.00" fill="#3fb950" opacity="0.85"/>
<circle cx="180.9" cy="394.5" r="1.70" fill="#7bc96f" opacity="0.85"/>
<circle cx="175.9" cy="361.2" r="1.70" fill="#7bc96f" opacity="0.85"/>
<circle cx="230.8" cy="322.3" r="2.00" fill="#3fb950" opacity="0.85"/>
<circle cx="208.3" cy="298.5" r="1.70" fill="#7bc96f" opacity="0.85"/>
<circle cx="234.2" cy="290.3" r="1.70" fill="#7bc96f" opacity="0.85"/>
<circle cx="358.2" cy="318.6" r="2.60" fill="#58a6ff" opacity="0.85"/>
<circle cx="299.1" cy="281.5" r="2.30" fill="#4f9ee0" opacity="0.85"/>
<circle cx="249.1" cy="285.3" r="2.00" fill="#3fb950" opacity="0.85"/>
<circle cx="225.5" cy="305.9" r="1.70" fill="#7bc96f" opacity="0.85"/>
<circle cx="220.3" cy="267.1" r="1.70" fill="#7bc96f" opacity="0.85"/>
<circle cx="285.6" cy="236.2" r="2.00" fill="#3fb950" opacity="0.85"/>
<circle cx="263.8" cy="210.4" r="1.70" fill="#7bc96f" opacity="0.85"/>
<circle cx="290.8" cy="205.3" r="1.70" fill="#7bc96f" opacity="0.85"/>
<circle cx="361.9" cy="248.5" r="2.30" fill="#4f9ee0" opacity="0.85"/>
<circle cx="340.4" cy="208.2" r="2.00" fill="#3fb950" opacity="0.85"/>
<circle cx="316.5" cy="191.0" r="1.70" fill="#7bc96f" opacity="0.85"/>
<circle cx="339.1" cy="177.4" r="1.70" fill="#7bc96f" opacity="0.85"/>
<circle cx="387.1" cy="209.1" r="2.00" fill="#3fb950" opacity="0.85"/>
<circle cx="391.0" cy="180.2" r="1.70" fill="#7bc96f" opacity="0.85"/>
<circle cx="413.7" cy="190.6" r="1.70" fill="#7bc96f" opacity="0.85"/>
<circle cx="460.0" cy="317.7" r="2.60" fill="#58a6ff" opacity="0.85"/>
<circle cx="448.9" cy="248.1" r="2.30" fill="#4f9ee0" opacity="0.85"/>
<circle cx="411.5" cy="216.1" r="2.00" fill="#3fb950" opacity="0.85"/>
<circle cx="379.9" cy="214.8" r="1.70" fill="#7bc96f" opacity="0.85"/>
<circle cx="401.5" cy="183.4" r="1.70" fill="#7bc96f" opacity="0.85"/>
<circle cx="472.2" cy="203.6" r="2.00" fill="#3fb950" opacity="0.85"/>
<circle cx="465.1" cy="172.2" r="1.70" fill="#7bc96f" opacity="0.85"/>
<circle cx="500.3" cy="190.1" r="1.70" fill="#7bc96f" opacity="0.85"/>
<circle cx="524.9" cy="288.4" r="2.30" fill="#4f9ee0" opacity="0.85"/>
<circle cx="549.1" cy="246.9" r="2.00" fill="#3fb950" opacity="0.85"/>
<circle cx="545.5" cy="215.7" r="1.70" fill="#7bc96f" opacity="0.85"/>
<circle cx="577.4" cy="233.2" r="1.70" fill="#7bc96f" opacity="0.85"/>
<circle cx="575.1" cy="293.3" r="2.00" fill="#3fb950" opacity="0.85"/>
<circle cx="606.4" cy="283.1" r="1.70" fill="#7bc96f" opacity="0.85"/>
<circle cx="604.6" cy="309.4" r="1.70" fill="#7bc96f" opacity="0.85"/>
<circle cx="582.0" cy="286.8" r="3" fill="none" stroke="#d29922" stroke-width="1" opacity="0.6"/>
<circle cx="625.9" cy="301.3" r="3" fill="none" stroke="#d29922" stroke-width="1" opacity="0.6"/>
<circle cx="636.7" cy="318.9" r="3" fill="none" stroke="#d29922" stroke-width="1" opacity="0.6"/>
<circle cx="655.5" cy="345.9" r="3" fill="none" stroke="#d29922" stroke-width="1" opacity="0.6"/>
<circle cx="667.5" cy="364.6" r="3" fill="none" stroke="#d29922" stroke-width="1" opacity="0.6"/>
<circle cx="666.0" cy="403.7" r="3" fill="none" stroke="#d29922" stroke-width="1" opacity="0.6"/>
<circle cx="648.9" cy="421.0" r="3" fill="none" stroke="#d29922" stroke-width="1" opacity="0.6"/>
<circle cx="649.8" cy="439.3" r="3" fill="none" stroke="#d29922" stroke-width="1" opacity="0.6"/>
<circle cx="657.6" cy="465.3" r="3" fill="none" stroke="#d29922" stroke-width="1" opacity="0.6"/>
<circle cx="653.2" cy="488.4" r="3" fill="none" stroke="#d29922" stroke-width="1" opacity="0.6"/>
<circle cx="612.3" cy="530.7" r="3" fill="none" stroke="#d29922" stroke-width="1" opacity="0.6"/>
<circle cx="598.4" cy="544.9" r="3" fill="none" stroke="#d29922" stroke-width="1" opacity="0.6"/>
<circle cx="543.7" cy="549.2" r="3" fill="none" stroke="#d29922" stroke-width="1" opacity="0.6"/>
<circle cx="603.8" cy="490.7" r="3" fill="none" stroke="#d29922" stroke-width="1" opacity="0.6"/>
<circle cx="615.1" cy="512.4" r="3" fill="none" stroke="#d29922" stroke-width="1" opacity="0.6"/>
<circle cx="614.5" cy="538.4" r="3" fill="none" stroke="#d29922" stroke-width="1" opacity="0.6"/>
<circle cx="581.2" cy="599.4" r="3" fill="none" stroke="#d29922" stroke-width="1" opacity="0.6"/>
<circle cx="569.9" cy="612.6" r="3" fill="none" stroke="#d29922" stroke-width="1" opacity="0.6"/>
<circle cx="542.1" cy="622.8" r="3" fill="none" stroke="#d29922" stroke-width="1" opacity="0.6"/>
<circle cx="522.5" cy="640.2" r="3" fill="none" stroke="#d29922" stroke-width="1" opacity="0.6"/>
<circle cx="506.4" cy="659.0" r="3" fill="none" stroke="#d29922" stroke-width="1" opacity="0.6"/>
<circle cx="461.3" cy="676.8" r="3" fill="none" stroke="#d29922" stroke-width="1" opacity="0.6"/>
<circle cx="444.3" cy="669.3" r="3" fill="none" stroke="#d29922" stroke-width="1" opacity="0.6"/>
<circle cx="442.4" cy="662.2" r="3" fill="none" stroke="#d29922" stroke-width="1" opacity="0.6"/>
<circle cx="419.6" cy="658.4" r="3" fill="none" stroke="#d29922" stroke-width="1" opacity="0.6"/>
<circle cx="399.2" cy="655.1" r="3" fill="none" stroke="#d29922" stroke-width="1" opacity="0.6"/>
<circle cx="387.2" cy="638.5" r="3" fill="none" stroke="#d29922" stroke-width="1" opacity="0.6"/>
<circle cx="419.5" cy="631.4" r="3" fill="none" stroke="#d29922" stroke-width="1" opacity="0.6"/>
<circle cx="411.3" cy="646.9" r="3" fill="none" stroke="#d29922" stroke-width="1" opacity="0.6"/>
<circle cx="362.2" cy="666.5" r="3" fill="none" stroke="#d29922" stroke-width="1" opacity="0.6"/>
<circle cx="314.0" cy="663.1" r="3" fill="none" stroke="#d29922" stroke-width="1" opacity="0.6"/>
<circle cx="268.7" cy="617.0" r="3" fill="none" stroke="#d29922" stroke-width="1" opacity="0.6"/>
<circle cx="280.3" cy="623.0" r="3" fill="none" stroke="#d29922" stroke-width="1" opacity="0.6"/>
<circle cx="261.7" cy="627.9" r="3" fill="none" stroke="#d29922" stroke-width="1" opacity="0.6"/>
<circle cx="211.3" cy="590.3" r="3" fill="none" stroke="#d29922" stroke-width="1" opacity="0.6"/>
<circle cx="194.2" cy="553.7" r="3" fill="none" stroke="#d29922" stroke-width="1" opacity="0.6"/>
<circle cx="191.5" cy="513.3" r="3" fill="none" stroke="#d29922" stroke-width="1" opacity="0.6"/>
<circle cx="217.9" cy="527.4" r="3" fill="none" stroke="#d29922" stroke-width="1" opacity="0.6"/>
<circle cx="189.5" cy="510.1" r="3" fill="none" stroke="#d29922" stroke-width="1" opacity="0.6"/>
<circle cx="166.4" cy="454.1" r="3" fill="none" stroke="#d29922" stroke-width="1" opacity="0.6"/>
<circle cx="158.5" cy="434.4" r="3" fill="none" stroke="#d29922" stroke-width="1" opacity="0.6"/>
<circle cx="159.7" cy="410.0" r="3" fill="none" stroke="#d29922" stroke-width="1" opacity="0.6"/>
<circle cx="168.5" cy="395.5" r="3" fill="none" stroke="#d29922" stroke-width="1" opacity="0.6"/>
<circle cx="164.5" cy="402.3" r="3" fill="none" stroke="#d29922" stroke-width="1" opacity="0.6"/>
<circle cx="161.1" cy="351.3" r="3" fill="none" stroke="#d29922" stroke-width="1" opacity="0.6"/>
<circle cx="189.0" cy="286.1" r="3" fill="none" stroke="#d29922" stroke-width="1" opacity="0.6"/>
<circle cx="238.4" cy="268.7" r="3" fill="none" stroke="#d29922" stroke-width="1" opacity="0.6"/>
<circle cx="210.2" cy="320.3" r="3" fill="none" stroke="#d29922" stroke-width="1" opacity="0.6"/>
<circle cx="198.5" cy="271.3" r="3" fill="none" stroke="#d29922" stroke-width="1" opacity="0.6"/>
<circle cx="214.0" cy="246.6" r="3" fill="none" stroke="#d29922" stroke-width="1" opacity="0.6"/>
<circle cx="254.6" cy="191.4" r="3" fill="none" stroke="#d29922" stroke-width="1" opacity="0.6"/>
<circle cx="294.4" cy="184.1" r="3" fill="none" stroke="#d29922" stroke-width="1" opacity="0.6"/>
<circle cx="301.6" cy="177.5" r="3" fill="none" stroke="#d29922" stroke-width="1" opacity="0.6"/>
<circle cx="328.4" cy="158.4" r="3" fill="none" stroke="#d29922" stroke-width="1" opacity="0.6"/>
<circle cx="347.9" cy="157.1" r="3" fill="none" stroke="#d29922" stroke-width="1" opacity="0.6"/>
<circle cx="387.8" cy="161.3" r="3" fill="none" stroke="#d29922" stroke-width="1" opacity="0.6"/>
<circle cx="421.2" cy="171.2" r="3" fill="none" stroke="#d29922" stroke-width="1" opacity="0.6"/>
<circle cx="434.4" cy="191.3" r="3" fill="none" stroke="#d29922" stroke-width="1" opacity="0.6"/>
<circle cx="362.0" cy="226.8" r="3" fill="none" stroke="#d29922" stroke-width="1" opacity="0.6"/>
<circle cx="362.5" cy="202.5" r="3" fill="none" stroke="#d29922" stroke-width="1" opacity="0.6"/>
<circle cx="387.1" cy="165.5" r="3" fill="none" stroke="#d29922" stroke-width="1" opacity="0.6"/>
<circle cx="403.6" cy="159.5" r="3" fill="none" stroke="#d29922" stroke-width="1" opacity="0.6"/>
<circle cx="451.8" cy="153.4" r="3" fill="none" stroke="#d29922" stroke-width="1" opacity="0.6"/>
<circle cx="469.9" cy="151.2" r="3" fill="none" stroke="#d29922" stroke-width="1" opacity="0.6"/>
<circle cx="514.6" cy="174.5" r="3" fill="none" stroke="#d29922" stroke-width="1" opacity="0.6"/>
<circle cx="519.7" cy="189.7" r="3" fill="none" stroke="#d29922" stroke-width="1" opacity="0.6"/>
<circle cx="531.2" cy="198.8" r="3" fill="none" stroke="#d29922" stroke-width="1" opacity="0.6"/>
<circle cx="555.7" cy="196.4" r="3" fill="none" stroke="#d29922" stroke-width="1" opacity="0.6"/>
<circle cx="599.0" cy="230.9" r="3" fill="none" stroke="#d29922" stroke-width="1" opacity="0.6"/>
<circle cx="626.1" cy="272.5" r="3" fill="none" stroke="#d29922" stroke-width="1" opacity="0.6"/>
<circle cx="626.5" cy="318.6" r="3" fill="none" stroke="#d29922" stroke-width="1" opacity="0.6"/>
<circle cx="410.0" cy="410.0" r="10" fill="#0d1117" stroke="#58a6ff" stroke-width="2"/>
<circle cx="410.0" cy="410.0" r="4" fill="#58a6ff"/>
<circle r="2.4" fill="#7ee787"><animateMotion dur="2.87s" begin="0.62s" repeatCount="indefinite" path="M180.9,394.5 L164.5,402.3"/></circle>
<circle r="2.4" fill="#f2cc60"><animateMotion dur="3.67s" begin="0.17s" repeatCount="indefinite" path="M434.1,613.8 L408.7,634.5"/></circle>
<circle r="2.4" fill="#79c0ff"><animateMotion dur="3.95s" begin="1.51s" repeatCount="indefinite" path="M263.8,210.4 L254.6,191.4"/></circle>
<circle r="2.4" fill="#7ee787"><animateMotion dur="3.69s" begin="0.73s" repeatCount="indefinite" path="M460.3,652.2 L444.3,669.3"/></circle>
<circle r="2.4" fill="#f2cc60"><animateMotion dur="2.96s" begin="2.01s" repeatCount="indefinite" path="M363.1,645.6 L362.2,666.5"/></circle>
<circle r="2.4" fill="#79c0ff"><animateMotion dur="3.09s" begin="0.49s" repeatCount="indefinite" path="M358.2,318.6 L361.9,248.5"/></circle>
<circle r="2.4" fill="#7ee787"><animateMotion dur="2.72s" begin="1.33s" repeatCount="indefinite" path="M305.1,405.4 L245.9,367.0"/></circle>
<text x="806" y="806" text-anchor="end" font-size="9" fill="#484f58" letter-spacing="1">// circuit_bloom.py — seed:20260710 — spokes:6 — regenerated daily</text>
</svg>