<svg viewBox="0 0 820 820" width="820" height="820" xmlns="http://www.w3.org/2000/svg" font-family="'Fira Code',monospace">
<defs>
<pattern id="g2" width="22" height="22" patternUnits="userSpaceOnUse">
<path d="M 22 0 L 0 0 0 22" fill="none" stroke="#30363d" stroke-width="0.4" opacity="0.3"/>
</pattern>
<radialGradient id="glow" cx="50%" cy="50%" r="50%">
<stop offset="0%" stop-color="#58a6ff" stop-opacity="0.35"/>
<stop offset="100%" stop-color="#58a6ff" stop-opacity="0"/>
</radialGradient>
</defs>
<rect x="0" y="0" width="820" height="820" fill="#0d1117"/>
<rect x="0" y="0" width="820" height="820" fill="url(#g2)"/>
<circle cx="410.0" cy="410.0" r="230" fill="url(#glow)"/>
<line x1="410.0" y1="410.0" x2="515.0" y2="413.0" stroke="#58a6ff" stroke-width="2.60" opacity="1.00" stroke-linecap="round"/>
<line x1="515.0" y1="413.0" x2="580.3" y2="385.1" stroke="#4f9ee0" stroke-width="2.25" opacity="0.90" stroke-linecap="round"/>
<line x1="580.3" y1="385.1" x2="607.3" y2="344.0" stroke="#3fb950" stroke-width="1.90" opacity="0.80" stroke-linecap="round"/>
<line x1="607.3" y1="344.0" x2="604.0" y2="313.1" stroke="#7bc96f" stroke-width="1.55" opacity="0.70" stroke-linecap="round"/>
<line x1="604.0" y1="313.1" x2="595.0" y2="292.8" stroke="#d29922" stroke-width="1.20" opacity="0.60" stroke-linecap="round"/>
<line x1="607.3" y1="344.0" x2="639.6" y2="330.5" stroke="#7bc96f" stroke-width="1.55" opacity="0.70" stroke-linecap="round"/>
<line x1="639.6" y1="330.5" x2="655.2" y2="311.4" stroke="#d29922" stroke-width="1.20" opacity="0.60" stroke-linecap="round"/>
<line x1="639.6" y1="330.5" x2="662.4" y2="330.6" stroke="#d29922" stroke-width="1.20" opacity="0.60" stroke-linecap="round"/>
<line x1="580.3" y1="385.1" x2="628.1" y2="393.4" stroke="#3fb950" stroke-width="1.90" opacity="0.80" stroke-linecap="round"/>
<line x1="628.1" y1="393.4" x2="655.7" y2="379.9" stroke="#7bc96f" stroke-width="1.55" opacity="0.70" stroke-linecap="round"/>
<line x1="655.7" y1="379.9" x2="675.8" y2="373.1" stroke="#d29922" stroke-width="1.20" opacity="0.60" stroke-linecap="round"/>
<line x1="628.1" y1="393.4" x2="649.3" y2="415.5" stroke="#7bc96f" stroke-width="1.55" opacity="0.70" stroke-linecap="round"/>
<line x1="649.3" y1="415.5" x2="667.0" y2="426.1" stroke="#d29922" stroke-width="1.20" opacity="0.60" stroke-linecap="round"/>
<line x1="515.0" y1="413.0" x2="575.5" y2="442.2" stroke="#4f9ee0" stroke-width="2.25" opacity="0.90" stroke-linecap="round"/>
<line x1="575.5" y1="442.2" x2="618.4" y2="434.4" stroke="#3fb950" stroke-width="1.90" opacity="0.80" stroke-linecap="round"/>
<line x1="618.4" y1="434.4" x2="640.0" y2="416.2" stroke="#7bc96f" stroke-width="1.55" opacity="0.70" stroke-linecap="round"/>
<line x1="640.0" y1="416.2" x2="657.4" y2="409.8" stroke="#d29922" stroke-width="1.20" opacity="0.60" stroke-linecap="round"/>
<line x1="618.4" y1="434.4" x2="644.6" y2="447.6" stroke="#7bc96f" stroke-width="1.55" opacity="0.70" stroke-linecap="round"/>
<line x1="644.6" y1="447.6" x2="662.0" y2="456.3" stroke="#d29922" stroke-width="1.20" opacity="0.60" stroke-linecap="round"/>
<line x1="575.5" y1="442.2" x2="600.6" y2="478.9" stroke="#3fb950" stroke-width="1.90" opacity="0.80" stroke-linecap="round"/>
<line x1="600.6" y1="478.9" x2="627.4" y2="485.7" stroke="#7bc96f" stroke-width="1.55" opacity="0.70" stroke-linecap="round"/>
<line x1="627.4" y1="485.7" x2="645.2" y2="482.2" stroke="#d29922" stroke-width="1.20" opacity="0.60" stroke-linecap="round"/>
<line x1="627.4" y1="485.7" x2="642.4" y2="496.5" stroke="#d29922" stroke-width="1.20" opacity="0.60" stroke-linecap="round"/>
<line x1="600.6" y1="478.9" x2="596.7" y2="510.3" stroke="#7bc96f" stroke-width="1.55" opacity="0.70" stroke-linecap="round"/>
<line x1="596.7" y1="510.3" x2="588.9" y2="530.1" stroke="#d29922" stroke-width="1.20" opacity="0.60" stroke-linecap="round"/>
<line x1="410.0" y1="410.0" x2="460.5" y2="502.1" stroke="#58a6ff" stroke-width="2.60" opacity="1.00" stroke-linecap="round"/>
<line x1="460.5" y1="502.1" x2="522.1" y2="537.2" stroke="#4f9ee0" stroke-width="2.25" opacity="0.90" stroke-linecap="round"/>
<line x1="522.1" y1="537.2" x2="566.4" y2="537.6" stroke="#3fb950" stroke-width="1.90" opacity="0.80" stroke-linecap="round"/>
<line x1="566.4" y1="537.6" x2="593.5" y2="525.4" stroke="#7bc96f" stroke-width="1.55" opacity="0.70" stroke-linecap="round"/>
<line x1="593.5" y1="525.4" x2="613.3" y2="522.8" stroke="#d29922" stroke-width="1.20" opacity="0.60" stroke-linecap="round"/>
<line x1="566.4" y1="537.6" x2="593.9" y2="547.8" stroke="#7bc96f" stroke-width="1.55" opacity="0.70" stroke-linecap="round"/>
<line x1="593.9" y1="547.8" x2="614.0" y2="549.8" stroke="#d29922" stroke-width="1.20" opacity="0.60" stroke-linecap="round"/>
<line x1="522.1" y1="537.2" x2="551.6" y2="578.6" stroke="#3fb950" stroke-width="1.90" opacity="0.80" stroke-linecap="round"/>
<line x1="551.6" y1="578.6" x2="585.3" y2="587.7" stroke="#7bc96f" stroke-width="1.55" opacity="0.70" stroke-linecap="round"/>
<line x1="585.3" y1="587.7" x2="607.9" y2="598.6" stroke="#d29922" stroke-width="1.20" opacity="0.60" stroke-linecap="round"/>
<line x1="551.6" y1="578.6" x2="550.9" y2="612.5" stroke="#7bc96f" stroke-width="1.55" opacity="0.70" stroke-linecap="round"/>
<line x1="550.9" y1="612.5" x2="555.4" y2="633.5" stroke="#d29922" stroke-width="1.20" opacity="0.60" stroke-linecap="round"/>
<line x1="460.5" y1="502.1" x2="455.8" y2="573.7" stroke="#4f9ee0" stroke-width="2.25" opacity="0.90" stroke-linecap="round"/>
<line x1="455.8" y1="573.7" x2="478.3" y2="613.2" stroke="#3fb950" stroke-width="1.90" opacity="0.80" stroke-linecap="round"/>
<line x1="478.3" y1="613.2" x2="507.5" y2="626.5" stroke="#7bc96f" stroke-width="1.55" opacity="0.70" stroke-linecap="round"/>
<line x1="507.5" y1="626.5" x2="527.8" y2="631.1" stroke="#d29922" stroke-width="1.20" opacity="0.60" stroke-linecap="round"/>
<line x1="478.3" y1="613.2" x2="475.6" y2="642.8" stroke="#7bc96f" stroke-width="1.55" opacity="0.70" stroke-linecap="round"/>
<line x1="475.6" y1="642.8" x2="474.1" y2="663.9" stroke="#d29922" stroke-width="1.20" opacity="0.60" stroke-linecap="round"/>
<line x1="455.8" y1="573.7" x2="424.7" y2="606.2" stroke="#3fb950" stroke-width="1.90" opacity="0.80" stroke-linecap="round"/>
<line x1="424.7" y1="606.2" x2="414.1" y2="635.5" stroke="#7bc96f" stroke-width="1.55" opacity="0.70" stroke-linecap="round"/>
<line x1="414.1" y1="635.5" x2="419.5" y2="655.4" stroke="#d29922" stroke-width="1.20" opacity="0.60" stroke-linecap="round"/>
<line x1="414.1" y1="635.5" x2="398.0" y2="648.8" stroke="#d29922" stroke-width="1.20" opacity="0.60" stroke-linecap="round"/>
<line x1="424.7" y1="606.2" x2="394.6" y2="618.1" stroke="#7bc96f" stroke-width="1.55" opacity="0.70" stroke-linecap="round"/>
<line x1="394.6" y1="618.1" x2="376.0" y2="629.2" stroke="#d29922" stroke-width="1.20" opacity="0.60" stroke-linecap="round"/>
<line x1="410.0" y1="410.0" x2="362.8" y2="503.8" stroke="#58a6ff" stroke-width="2.60" opacity="1.00" stroke-linecap="round"/>
<line x1="362.8" y1="503.8" x2="366.6" y2="579.2" stroke="#4f9ee0" stroke-width="2.25" opacity="0.90" stroke-linecap="round"/>
<line x1="366.6" y1="579.2" x2="390.6" y2="621.3" stroke="#3fb950" stroke-width="1.90" opacity="0.80" stroke-linecap="round"/>
<line x1="390.6" y1="621.3" x2="416.1" y2="638.6" stroke="#7bc96f" stroke-width="1.55" opacity="0.70" stroke-linecap="round"/>
<line x1="416.1" y1="638.6" x2="436.0" y2="642.5" stroke="#d29922" stroke-width="1.20" opacity="0.60" stroke-linecap="round"/>
<line x1="416.1" y1="638.6" x2="426.6" y2="656.8" stroke="#d29922" stroke-width="1.20" opacity="0.60" stroke-linecap="round"/>
<line x1="390.6" y1="621.3" x2="391.7" y2="655.9" stroke="#7bc96f" stroke-width="1.55" opacity="0.70" stroke-linecap="round"/>
<line x1="391.7" y1="655.9" x2="399.7" y2="678.7" stroke="#d29922" stroke-width="1.20" opacity="0.60" stroke-linecap="round"/>
<line x1="366.6" y1="579.2" x2="346.1" y2="625.6" stroke="#3fb950" stroke-width="1.90" opacity="0.80" stroke-linecap="round"/>
<line x1="346.1" y1="625.6" x2="349.2" y2="659.5" stroke="#7bc96f" stroke-width="1.55" opacity="0.70" stroke-linecap="round"/>
<line x1="349.2" y1="659.5" x2="354.8" y2="682.4" stroke="#d29922" stroke-width="1.20" opacity="0.60" stroke-linecap="round"/>
<line x1="346.1" y1="625.6" x2="317.8" y2="648.4" stroke="#7bc96f" stroke-width="1.55" opacity="0.70" stroke-linecap="round"/>
<line x1="317.8" y1="648.4" x2="303.4" y2="667.6" stroke="#d29922" stroke-width="1.20" opacity="0.60" stroke-linecap="round"/>
<line x1="362.8" y1="503.8" x2="304.6" y2="540.2" stroke="#4f9ee0" stroke-width="2.25" opacity="0.90" stroke-linecap="round"/>
<line x1="304.6" y1="540.2" x2="280.1" y2="581.8" stroke="#3fb950" stroke-width="1.90" opacity="0.80" stroke-linecap="round"/>
<line x1="280.1" y1="581.8" x2="279.6" y2="616.4" stroke="#7bc96f" stroke-width="1.55" opacity="0.70" stroke-linecap="round"/>
<line x1="279.6" y1="616.4" x2="288.1" y2="636.9" stroke="#d29922" stroke-width="1.20" opacity="0.60" stroke-linecap="round"/>
<line x1="279.6" y1="616.4" x2="266.5" y2="637.3" stroke="#d29922" stroke-width="1.20" opacity="0.60" stroke-linecap="round"/>
<line x1="280.1" y1="581.8" x2="251.2" y2="593.7" stroke="#7bc96f" stroke-width="1.55" opacity="0.70" stroke-linecap="round"/>
<line x1="251.2" y1="593.7" x2="241.1" y2="613.6" stroke="#d29922" stroke-width="1.20" opacity="0.60" stroke-linecap="round"/>
<line x1="251.2" y1="593.7" x2="232.8" y2="586.7" stroke="#d29922" stroke-width="1.20" opacity="0.60" stroke-linecap="round"/>
<line x1="304.6" y1="540.2" x2="258.7" y2="541.8" stroke="#3fb950" stroke-width="1.90" opacity="0.80" stroke-linecap="round"/>
<line x1="258.7" y1="541.8" x2="232.4" y2="561.9" stroke="#7bc96f" stroke-width="1.55" opacity="0.70" stroke-linecap="round"/>
<line x1="232.4" y1="561.9" x2="219.2" y2="581.0" stroke="#d29922" stroke-width="1.20" opacity="0.60" stroke-linecap="round"/>
<line x1="258.7" y1="541.8" x2="230.9" y2="526.3" stroke="#7bc96f" stroke-width="1.55" opacity="0.70" stroke-linecap="round"/>
<line x1="230.9" y1="526.3" x2="214.1" y2="511.6" stroke="#d29922" stroke-width="1.20" opacity="0.60" stroke-linecap="round"/>
<line x1="410.0" y1="410.0" x2="305.2" y2="404.0" stroke="#58a6ff" stroke-width="2.60" opacity="1.00" stroke-linecap="round"/>
<line x1="305.2" y1="404.0" x2="243.6" y2="433.2" stroke="#4f9ee0" stroke-width="2.25" opacity="0.90" stroke-linecap="round"/>
<line x1="243.6" y1="433.2" x2="216.6" y2="467.1" stroke="#3fb950" stroke-width="1.90" opacity="0.80" stroke-linecap="round"/>
<line x1="216.6" y1="467.1" x2="213.0" y2="497.0" stroke="#7bc96f" stroke-width="1.55" opacity="0.70" stroke-linecap="round"/>
<line x1="213.0" y1="497.0" x2="215.4" y2="515.8" stroke="#d29922" stroke-width="1.20" opacity="0.60" stroke-linecap="round"/>
<line x1="216.6" y1="467.1" x2="189.8" y2="476.7" stroke="#7bc96f" stroke-width="1.55" opacity="0.70" stroke-linecap="round"/>
<line x1="189.8" y1="476.7" x2="176.8" y2="489.1" stroke="#d29922" stroke-width="1.20" opacity="0.60" stroke-linecap="round"/>
<line x1="189.8" y1="476.7" x2="171.3" y2="476.0" stroke="#d29922" stroke-width="1.20" opacity="0.60" stroke-linecap="round"/>
<line x1="243.6" y1="433.2" x2="198.6" y2="432.9" stroke="#3fb950" stroke-width="1.90" opacity="0.80" stroke-linecap="round"/>
<line x1="198.6" y1="432.9" x2="176.8" y2="451.6" stroke="#7bc96f" stroke-width="1.55" opacity="0.70" stroke-linecap="round"/>
<line x1="176.8" y1="451.6" x2="164.3" y2="464.2" stroke="#d29922" stroke-width="1.20" opacity="0.60" stroke-linecap="round"/>
<line x1="198.6" y1="432.9" x2="174.9" y2="411.2" stroke="#7bc96f" stroke-width="1.55" opacity="0.70" stroke-linecap="round"/>
<line x1="174.9" y1="411.2" x2="159.6" y2="395.4" stroke="#d29922" stroke-width="1.20" opacity="0.60" stroke-linecap="round"/>
<line x1="305.2" y1="404.0" x2="244.9" y2="368.0" stroke="#4f9ee0" stroke-width="2.25" opacity="0.90" stroke-linecap="round"/>
<line x1="244.9" y1="368.0" x2="197.5" y2="363.3" stroke="#3fb950" stroke-width="1.90" opacity="0.80" stroke-linecap="round"/>
<line x1="197.5" y1="363.3" x2="165.8" y2="375.3" stroke="#7bc96f" stroke-width="1.55" opacity="0.70" stroke-linecap="round"/>
<line x1="165.8" y1="375.3" x2="144.3" y2="385.7" stroke="#d29922" stroke-width="1.20" opacity="0.60" stroke-linecap="round"/>
<line x1="197.5" y1="363.3" x2="170.7" y2="345.0" stroke="#7bc96f" stroke-width="1.55" opacity="0.70" stroke-linecap="round"/>
<line x1="170.7" y1="345.0" x2="151.0" y2="336.0" stroke="#d29922" stroke-width="1.20" opacity="0.60" stroke-linecap="round"/>
<line x1="244.9" y1="368.0" x2="219.8" y2="329.3" stroke="#3fb950" stroke-width="1.90" opacity="0.80" stroke-linecap="round"/>
<line x1="219.8" y1="329.3" x2="191.2" y2="312.7" stroke="#7bc96f" stroke-width="1.55" opacity="0.70" stroke-linecap="round"/>
<line x1="191.2" y1="312.7" x2="168.0" y2="314.0" stroke="#d29922" stroke-width="1.20" opacity="0.60" stroke-linecap="round"/>
<line x1="191.2" y1="312.7" x2="182.3" y2="294.1" stroke="#d29922" stroke-width="1.20" opacity="0.60" stroke-linecap="round"/>
<line x1="219.8" y1="329.3" x2="214.6" y2="296.8" stroke="#7bc96f" stroke-width="1.55" opacity="0.70" stroke-linecap="round"/>
<line x1="214.6" y1="296.8" x2="206.9" y2="276.4" stroke="#d29922" stroke-width="1.20" opacity="0.60" stroke-linecap="round"/>
<line x1="410.0" y1="410.0" x2="353.0" y2="321.8" stroke="#58a6ff" stroke-width="2.60" opacity="1.00" stroke-linecap="round"/>
<line x1="353.0" y1="321.8" x2="284.2" y2="292.5" stroke="#4f9ee0" stroke-width="2.25" opacity="0.90" stroke-linecap="round"/>
<line x1="284.2" y1="292.5" x2="231.6" y2="295.1" stroke="#3fb950" stroke-width="1.90" opacity="0.80" stroke-linecap="round"/>
<line x1="231.6" y1="295.1" x2="203.1" y2="319.6" stroke="#7bc96f" stroke-width="1.55" opacity="0.70" stroke-linecap="round"/>
<line x1="203.1" y1="319.6" x2="185.4" y2="337.7" stroke="#d29922" stroke-width="1.20" opacity="0.60" stroke-linecap="round"/>
<line x1="231.6" y1="295.1" x2="204.6" y2="274.2" stroke="#7bc96f" stroke-width="1.55" opacity="0.70" stroke-linecap="round"/>
<line x1="204.6" y1="274.2" x2="190.9" y2="254.9" stroke="#d29922" stroke-width="1.20" opacity="0.60" stroke-linecap="round"/>
<line x1="284.2" y1="292.5" x2="248.1" y2="259.6" stroke="#3fb950" stroke-width="1.90" opacity="0.80" stroke-linecap="round"/>
<line x1="248.1" y1="259.6" x2="214.1" y2="253.9" stroke="#7bc96f" stroke-width="1.55" opacity="0.70" stroke-linecap="round"/>
<line x1="214.1" y1="253.9" x2="191.4" y2="263.4" stroke="#d29922" stroke-width="1.20" opacity="0.60" stroke-linecap="round"/>
<line x1="214.1" y1="253.9" x2="198.0" y2="237.2" stroke="#d29922" stroke-width="1.20" opacity="0.60" stroke-linecap="round"/>
<line x1="248.1" y1="259.6" x2="238.2" y2="230.6" stroke="#7bc96f" stroke-width="1.55" opacity="0.70" stroke-linecap="round"/>
<line x1="238.2" y1="230.6" x2="227.7" y2="214.5" stroke="#d29922" stroke-width="1.20" opacity="0.60" stroke-linecap="round"/>
<line x1="353.0" y1="321.8" x2="353.8" y2="252.4" stroke="#4f9ee0" stroke-width="2.25" opacity="0.90" stroke-linecap="round"/>
<line x1="353.8" y1="252.4" x2="325.5" y2="211.5" stroke="#3fb950" stroke-width="1.90" opacity="0.80" stroke-linecap="round"/>
<line x1="325.5" y1="211.5" x2="293.1" y2="198.9" stroke="#7bc96f" stroke-width="1.55" opacity="0.70" stroke-linecap="round"/>
<line x1="293.1" y1="198.9" x2="270.8" y2="197.0" stroke="#d29922" stroke-width="1.20" opacity="0.60" stroke-linecap="round"/>
<line x1="325.5" y1="211.5" x2="323.6" y2="177.6" stroke="#7bc96f" stroke-width="1.55" opacity="0.70" stroke-linecap="round"/>
<line x1="323.6" y1="177.6" x2="329.4" y2="156.5" stroke="#d29922" stroke-width="1.20" opacity="0.60" stroke-linecap="round"/>
<line x1="353.8" y1="252.4" x2="378.0" y2="210.9" stroke="#3fb950" stroke-width="1.90" opacity="0.80" stroke-linecap="round"/>
<line x1="378.0" y1="210.9" x2="375.2" y2="176.6" stroke="#7bc96f" stroke-width="1.55" opacity="0.70" stroke-linecap="round"/>
<line x1="375.2" y1="176.6" x2="373.3" y2="153.3" stroke="#d29922" stroke-width="1.20" opacity="0.60" stroke-linecap="round"/>
<line x1="378.0" y1="210.9" x2="407.5" y2="197.4" stroke="#7bc96f" stroke-width="1.55" opacity="0.70" stroke-linecap="round"/>
<line x1="407.5" y1="197.4" x2="420.7" y2="179.7" stroke="#d29922" stroke-width="1.20" opacity="0.60" stroke-linecap="round"/>
<line x1="407.5" y1="197.4" x2="428.8" y2="199.8" stroke="#d29922" stroke-width="1.20" opacity="0.60" stroke-linecap="round"/>
<line x1="410.0" y1="410.0" x2="457.5" y2="316.4" stroke="#58a6ff" stroke-width="2.60" opacity="1.00" stroke-linecap="round"/>
<line x1="457.5" y1="316.4" x2="441.4" y2="242.9" stroke="#4f9ee0" stroke-width="2.25" opacity="0.90" stroke-linecap="round"/>
<line x1="441.4" y1="242.9" x2="408.0" y2="208.1" stroke="#3fb950" stroke-width="1.90" opacity="0.80" stroke-linecap="round"/>
<line x1="408.0" y1="208.1" x2="373.8" y2="204.8" stroke="#7bc96f" stroke-width="1.55" opacity="0.70" stroke-linecap="round"/>
<line x1="373.8" y1="204.8" x2="349.9" y2="206.8" stroke="#d29922" stroke-width="1.20" opacity="0.60" stroke-linecap="round"/>
<line x1="408.0" y1="208.1" x2="404.5" y2="176.4" stroke="#7bc96f" stroke-width="1.55" opacity="0.70" stroke-linecap="round"/>
<line x1="404.5" y1="176.4" x2="393.7" y2="158.9" stroke="#d29922" stroke-width="1.20" opacity="0.60" stroke-linecap="round"/>
<line x1="404.5" y1="176.4" x2="413.1" y2="156.9" stroke="#d29922" stroke-width="1.20" opacity="0.60" stroke-linecap="round"/>
<line x1="441.4" y1="242.9" x2="462.4" y2="196.6" stroke="#3fb950" stroke-width="1.90" opacity="0.80" stroke-linecap="round"/>
<line x1="462.4" y1="196.6" x2="458.4" y2="163.2" stroke="#7bc96f" stroke-width="1.55" opacity="0.70" stroke-linecap="round"/>
<line x1="458.4" y1="163.2" x2="443.8" y2="147.7" stroke="#d29922" stroke-width="1.20" opacity="0.60" stroke-linecap="round"/>
<line x1="458.4" y1="163.2" x2="469.3" y2="145.2" stroke="#d29922" stroke-width="1.20" opacity="0.60" stroke-linecap="round"/>
<line x1="462.4" y1="196.6" x2="487.7" y2="177.7" stroke="#7bc96f" stroke-width="1.55" opacity="0.70" stroke-linecap="round"/>
<line x1="487.7" y1="177.7" x2="492.4" y2="158.1" stroke="#d29922" stroke-width="1.20" opacity="0.60" stroke-linecap="round"/>
<line x1="487.7" y1="177.7" x2="509.0" y2="179.7" stroke="#d29922" stroke-width="1.20" opacity="0.60" stroke-linecap="round"/>
<line x1="457.5" y1="316.4" x2="524.1" y2="280.7" stroke="#4f9ee0" stroke-width="2.25" opacity="0.90" stroke-linecap="round"/>
<line x1="524.1" y1="280.7" x2="547.2" y2="235.5" stroke="#3fb950" stroke-width="1.90" opacity="0.80" stroke-linecap="round"/>
<line x1="547.2" y1="235.5" x2="544.6" y2="202.7" stroke="#7bc96f" stroke-width="1.55" opacity="0.70" stroke-linecap="round"/>
<line x1="544.6" y1="202.7" x2="532.6" y2="184.5" stroke="#d29922" stroke-width="1.20" opacity="0.60" stroke-linecap="round"/>
<line x1="544.6" y1="202.7" x2="552.8" y2="182.7" stroke="#d29922" stroke-width="1.20" opacity="0.60" stroke-linecap="round"/>
<line x1="547.2" y1="235.5" x2="578.5" y2="218.2" stroke="#7bc96f" stroke-width="1.55" opacity="0.70" stroke-linecap="round"/>
<line x1="578.5" y1="218.2" x2="591.0" y2="196.9" stroke="#d29922" stroke-width="1.20" opacity="0.60" stroke-linecap="round"/>
<line x1="578.5" y1="218.2" x2="601.9" y2="218.1" stroke="#d29922" stroke-width="1.20" opacity="0.60" stroke-linecap="round"/>
<line x1="524.1" y1="280.7" x2="572.1" y2="284.7" stroke="#3fb950" stroke-width="1.90" opacity="0.80" stroke-linecap="round"/>
<line x1="572.1" y1="284.7" x2="600.3" y2="268.0" stroke="#7bc96f" stroke-width="1.55" opacity="0.70" stroke-linecap="round"/>
<line x1="600.3" y1="268.0" x2="619.5" y2="257.8" stroke="#d29922" stroke-width="1.20" opacity="0.60" stroke-linecap="round"/>
<line x1="572.1" y1="284.7" x2="595.3" y2="305.4" stroke="#7bc96f" stroke-width="1.55" opacity="0.70" stroke-linecap="round"/>
<line x1="595.3" y1="305.4" x2="614.7" y2="311.0" stroke="#d29922" stroke-width="1.20" opacity="0.60" stroke-linecap="round"/>
<line x1="595.3" y1="305.4" x2="603.1" y2="323.6" stroke="#d29922" stroke-width="1.20" opacity="0.60" stroke-linecap="round"/>
<circle cx="515.0" cy="413.0" r="2.60" fill="#58a6ff" opacity="0.85"/>
<circle cx="580.3" cy="385.1" r="2.30" fill="#4f9ee0" opacity="0.85"/>
<circle cx="607.3" cy="344.0" r="2.00" fill="#3fb950" opacity="0.85"/>
<circle cx="604.0" cy="313.1" r="1.70" fill="#7bc96f" opacity="0.85"/>
<circle cx="639.6" cy="330.5" r="1.70" fill="#7bc96f" opacity="0.85"/>
<circle cx="628.1" cy="393.4" r="2.00" fill="#3fb950" opacity="0.85"/>
<circle cx="655.7" cy="379.9" r="1.70" fill="#7bc96f" opacity="0.85"/>
<circle cx="649.3" cy="415.5" r="1.70" fill="#7bc96f" opacity="0.85"/>
<circle cx="575.5" cy="442.2" r="2.30" fill="#4f9ee0" opacity="0.85"/>
<circle cx="618.4" cy="434.4" r="2.00" fill="#3fb950" opacity="0.85"/>
<circle cx="640.0" cy="416.2" r="1.70" fill="#7bc96f" opacity="0.85"/>
<circle cx="644.6" cy="447.6" r="1.70" fill="#7bc96f" opacity="0.85"/>
<circle cx="600.6" cy="478.9" r="2.00" fill="#3fb950" opacity="0.85"/>
<circle cx="627.4" cy="485.7" r="1.70" fill="#7bc96f" opacity="0.85"/>
<circle cx="596.7" cy="510.3" r="1.70" fill="#7bc96f" opacity="0.85"/>
<circle cx="460.5" cy="502.1" r="2.60" fill="#58a6ff" opacity="0.85"/>
<circle cx="522.1" cy="537.2" r="2.30" fill="#4f9ee0" opacity="0.85"/>
<circle cx="566.4" cy="537.6" r="2.00" fill="#3fb950" opacity="0.85"/>
<circle cx="593.5" cy="525.4" r="1.70" fill="#7bc96f" opacity="0.85"/>
<circle cx="593.9" cy="547.8" r="1.70" fill="#7bc96f" opacity="0.85"/>
<circle cx="551.6" cy="578.6" r="2.00" fill="#3fb950" opacity="0.85"/>
<circle cx="585.3" cy="587.7" r="1.70" fill="#7bc96f" opacity="0.85"/>
<circle cx="550.9" cy="612.5" r="1.70" fill="#7bc96f" opacity="0.85"/>
<circle cx="455.8" cy="573.7" r="2.30" fill="#4f9ee0" opacity="0.85"/>
<circle cx="478.3" cy="613.2" r="2.00" fill="#3fb950" opacity="0.85"/>
<circle cx="507.5" cy="626.5" r="1.70" fill="#7bc96f" opacity="0.85"/>
<circle cx="475.6" cy="642.8" r="1.70" fill="#7bc96f" opacity="0.85"/>
<circle cx="424.7" cy="606.2" r="2.00" fill="#3fb950" opacity="0.85"/>
<circle cx="414.1" cy="635.5" r="1.70" fill="#7bc96f" opacity="0.85"/>
<circle cx="394.6" cy="618.1" r="1.70" fill="#7bc96f" opacity="0.85"/>
<circle cx="362.8" cy="503.8" r="2.60" fill="#58a6ff" opacity="0.85"/>
<circle cx="366.6" cy="579.2" r="2.30" fill="#4f9ee0" opacity="0.85"/>
<circle cx="390.6" cy="621.3" r="2.00" fill="#3fb950" opacity="0.85"/>
<circle cx="416.1" cy="638.6" r="1.70" fill="#7bc96f" opacity="0.85"/>
<circle cx="391.7" cy="655.9" r="1.70" fill="#7bc96f" opacity="0.85"/>
<circle cx="346.1" cy="625.6" r="2.00" fill="#3fb950" opacity="0.85"/>
<circle cx="349.2" cy="659.5" r="1.70" fill="#7bc96f" opacity="0.85"/>
<circle cx="317.8" cy="648.4" r="1.70" fill="#7bc96f" opacity="0.85"/>
<circle cx="304.6" cy="540.2" r="2.30" fill="#4f9ee0" opacity="0.85"/>
<circle cx="280.1" cy="581.8" r="2.00" fill="#3fb950" opacity="0.85"/>
<circle cx="279.6" cy="616.4" r="1.70" fill="#7bc96f" opacity="0.85"/>
<circle cx="251.2" cy="593.7" r="1.70" fill="#7bc96f" opacity="0.85"/>
<circle cx="258.7" cy="541.8" r="2.00" fill="#3fb950" opacity="0.85"/>
<circle cx="232.4" cy="561.9" r="1.70" fill="#7bc96f" opacity="0.85"/>
<circle cx="230.9" cy="526.3" r="1.70" fill="#7bc96f" opacity="0.85"/>
<circle cx="305.2" cy="404.0" r="2.60" fill="#58a6ff" opacity="0.85"/>
<circle cx="243.6" cy="433.2" r="2.30" fill="#4f9ee0" opacity="0.85"/>
<circle cx="216.6" cy="467.1" r="2.00" fill="#3fb950" opacity="0.85"/>
<circle cx="213.0" cy="497.0" r="1.70" fill="#7bc96f" opacity="0.85"/>
<circle cx="189.8" cy="476.7" r="1.70" fill="#7bc96f" opacity="0.85"/>
<circle cx="198.6" cy="432.9" r="2.00" fill="#3fb950" opacity="0.85"/>
<circle cx="176.8" cy="451.6" r="1.70" fill="#7bc96f" opacity="0.85"/>
<circle cx="174.9" cy="411.2" r="1.70" fill="#7bc96f" opacity="0.85"/>
<circle cx="244.9" cy="368.0" r="2.30" fill="#4f9ee0" opacity="0.85"/>
<circle cx="197.5" cy="363.3" r="2.00" fill="#3fb950" opacity="0.85"/>
<circle cx="165.8" cy="375.3" r="1.70" fill="#7bc96f" opacity="0.85"/>
<circle cx="170.7" cy="345.0" r="1.70" fill="#7bc96f" opacity="0.85"/>
<circle cx="219.8" cy="329.3" r="2.00" fill="#3fb950" opacity="0.85"/>
<circle cx="191.2" cy="312.7" r="1.70" fill="#7bc96f" opacity="0.85"/>
<circle cx="214.6" cy="296.8" r="1.70" fill="#7bc96f" opacity="0.85"/>
<circle cx="353.0" cy="321.8" r="2.60" fill="#58a6ff" opacity="0.85"/>
<circle cx="284.2" cy="292.5" r="2.30" fill="#4f9ee0" opacity="0.85"/>
<circle cx="231.6" cy="295.1" r="2.00" fill="#3fb950" opacity="0.85"/>
<circle cx="203.1" cy="319.6" r="1.70" fill="#7bc96f" opacity="0.85"/>
<circle cx="204.6" cy="274.2" r="1.70" fill="#7bc96f" opacity="0.85"/>
<circle cx="248.1" cy="259.6" r="2.00" fill="#3fb950" opacity="0.85"/>
<circle cx="214.1" cy="253.9" r="1.70" fill="#7bc96f" opacity="0.85"/>
<circle cx="238.2" cy="230.6" r="1.70" fill="#7bc96f" opacity="0.85"/>
<circle cx="353.8" cy="252.4" r="2.30" fill="#4f9ee0" opacity="0.85"/>
<circle cx="325.5" cy="211.5" r="2.00" fill="#3fb950" opacity="0.85"/>
<circle cx="293.1" cy="198.9" r="1.70" fill="#7bc96f" opacity="0.85"/>
<circle cx="323.6" cy="177.6" r="1.70" fill="#7bc96f" opacity="0.85"/>
<circle cx="378.0" cy="210.9" r="2.00" fill="#3fb950" opacity="0.85"/>
<circle cx="375.2" cy="176.6" r="1.70" fill="#7bc96f" opacity="0.85"/>
<circle cx="407.5" cy="197.4" r="1.70" fill="#7bc96f" opacity="0.85"/>
<circle cx="457.5" cy="316.4" r="2.60" fill="#58a6ff" opacity="0.85"/>
<circle cx="441.4" cy="242.9" r="2.30" fill="#4f9ee0" opacity="0.85"/>
<circle cx="408.0" cy="208.1" r="2.00" fill="#3fb950" opacity="0.85"/>
<circle cx="373.8" cy="204.8" r="1.70" fill="#7bc96f" opacity="0.85"/>
<circle cx="404.5" cy="176.4" r="1.70" fill="#7bc96f" opacity="0.85"/>
<circle cx="462.4" cy="196.6" r="2.00" fill="#3fb950" opacity="0.85"/>
<circle cx="458.4" cy="163.2" r="1.70" fill="#7bc96f" opacity="0.85"/>
<circle cx="487.7" cy="177.7" r="1.70" fill="#7bc96f" opacity="0.85"/>
<circle cx="524.1" cy="280.7" r="2.30" fill="#4f9ee0" opacity="0.85"/>
<circle cx="547.2" cy="235.5" r="2.00" fill="#3fb950" opacity="0.85"/>
<circle cx="544.6" cy="202.7" r="1.70" fill="#7bc96f" opacity="0.85"/>
<circle cx="578.5" cy="218.2" r="1.70" fill="#7bc96f" opacity="0.85"/>
<circle cx="572.1" cy="284.7" r="2.00" fill="#3fb950" opacity="0.85"/>
<circle cx="600.3" cy="268.0" r="1.70" fill="#7bc96f" opacity="0.85"/>
<circle cx="595.3" cy="305.4" r="1.70" fill="#7bc96f" opacity="0.85"/>
<circle cx="595.0" cy="292.8" r="3" fill="none" stroke="#d29922" stroke-width="1" opacity="0.6"/>
<circle cx="655.2" cy="311.4" r="3" fill="none" stroke="#d29922" stroke-width="1" opacity="0.6"/>
<circle cx="662.4" cy="330.6" r="3" fill="none" stroke="#d29922" stroke-width="1" opacity="0.6"/>
<circle cx="675.8" cy="373.1" r="3" fill="none" stroke="#d29922" stroke-width="1" opacity="0.6"/>
<circle cx="667.0" cy="426.1" r="3" fill="none" stroke="#d29922" stroke-width="1" opacity="0.6"/>
<circle cx="657.4" cy="409.8" r="3" fill="none" stroke="#d29922" stroke-width="1" opacity="0.6"/>
<circle cx="662.0" cy="456.3" r="3" fill="none" stroke="#d29922" stroke-width="1" opacity="0.6"/>
<circle cx="645.2" cy="482.2" r="3" fill="none" stroke="#d29922" stroke-width="1" opacity="0.6"/>
<circle cx="642.4" cy="496.5" r="3" fill="none" stroke="#d29922" stroke-width="1" opacity="0.6"/>
<circle cx="588.9" cy="530.1" r="3" fill="none" stroke="#d29922" stroke-width="1" opacity="0.6"/>
<circle cx="613.3" cy="522.8" r="3" fill="none" stroke="#d29922" stroke-width="1" opacity="0.6"/>
<circle cx="614.0" cy="549.8" r="3" fill="none" stroke="#d29922" stroke-width="1" opacity="0.6"/>
<circle cx="607.9" cy="598.6" r="3" fill="none" stroke="#d29922" stroke-width="1" opacity="0.6"/>
<circle cx="555.4" cy="633.5" r="3" fill="none" stroke="#d29922" stroke-width="1" opacity="0.6"/>
<circle cx="527.8" cy="631.1" r="3" fill="none" stroke="#d29922" stroke-width="1" opacity="0.6"/>
<circle cx="474.1" cy="663.9" r="3" fill="none" stroke="#d29922" stroke-width="1" opacity="0.6"/>
<circle cx="419.5" cy="655.4" r="3" fill="none" stroke="#d29922" stroke-width="1" opacity="0.6"/>
<circle cx="398.0" cy="648.8" r="3" fill="none" stroke="#d29922" stroke-width="1" opacity="0.6"/>
<circle cx="376.0" cy="629.2" r="3" fill="none" stroke="#d29922" stroke-width="1" opacity="0.6"/>
<circle cx="436.0" cy="642.5" r="3" fill="none" stroke="#d29922" stroke-width="1" opacity="0.6"/>
<circle cx="426.6" cy="656.8" r="3" fill="none" stroke="#d29922" stroke-width="1" opacity="0.6"/>
<circle cx="399.7" cy="678.7" r="3" fill="none" stroke="#d29922" stroke-width="1" opacity="0.6"/>
<circle cx="354.8" cy="682.4" r="3" fill="none" stroke="#d29922" stroke-width="1" opacity="0.6"/>
<circle cx="303.4" cy="667.6" r="3" fill="none" stroke="#d29922" stroke-width="1" opacity="0.6"/>
<circle cx="288.1" cy="636.9" r="3" fill="none" stroke="#d29922" stroke-width="1" opacity="0.6"/>
<circle cx="266.5" cy="637.3" r="3" fill="none" stroke="#d29922" stroke-width="1" opacity="0.6"/>
<circle cx="241.1" cy="613.6" r="3" fill="none" stroke="#d29922" stroke-width="1" opacity="0.6"/>
<circle cx="232.8" cy="586.7" r="3" fill="none" stroke="#d29922" stroke-width="1" opacity="0.6"/>
<circle cx="219.2" cy="581.0" r="3" fill="none" stroke="#d29922" stroke-width="1" opacity="0.6"/>
<circle cx="214.1" cy="511.6" r="3" fill="none" stroke="#d29922" stroke-width="1" opacity="0.6"/>
<circle cx="215.4" cy="515.8" r="3" fill="none" stroke="#d29922" stroke-width="1" opacity="0.6"/>
<circle cx="176.8" cy="489.1" r="3" fill="none" stroke="#d29922" stroke-width="1" opacity="0.6"/>
<circle cx="171.3" cy="476.0" r="3" fill="none" stroke="#d29922" stroke-width="1" opacity="0.6"/>
<circle cx="164.3" cy="464.2" r="3" fill="none" stroke="#d29922" stroke-width="1" opacity="0.6"/>
<circle cx="159.6" cy="395.4" r="3" fill="none" stroke="#d29922" stroke-width="1" opacity="0.6"/>
<circle cx="144.3" cy="385.7" r="3" fill="none" stroke="#d29922" stroke-width="1" opacity="0.6"/>
<circle cx="151.0" cy="336.0" r="3" fill="none" stroke="#d29922" stroke-width="1" opacity="0.6"/>
<circle cx="168.0" cy="314.0" r="3" fill="none" stroke="#d29922" stroke-width="1" opacity="0.6"/>
<circle cx="182.3" cy="294.1" r="3" fill="none" stroke="#d29922" stroke-width="1" opacity="0.6"/>
<circle cx="206.9" cy="276.4" r="3" fill="none" stroke="#d29922" stroke-width="1" opacity="0.6"/>
<circle cx="185.4" cy="337.7" r="3" fill="none" stroke="#d29922" stroke-width="1" opacity="0.6"/>
<circle cx="190.9" cy="254.9" r="3" fill="none" stroke="#d29922" stroke-width="1" opacity="0.6"/>
<circle cx="191.4" cy="263.4" r="3" fill="none" stroke="#d29922" stroke-width="1" opacity="0.6"/>
<circle cx="198.0" cy="237.2" r="3" fill="none" stroke="#d29922" stroke-width="1" opacity="0.6"/>
<circle cx="227.7" cy="214.5" r="3" fill="none" stroke="#d29922" stroke-width="1" opacity="0.6"/>
<circle cx="270.8" cy="197.0" r="3" fill="none" stroke="#d29922" stroke-width="1" opacity="0.6"/>
<circle cx="329.4" cy="156.5" r="3" fill="none" stroke="#d29922" stroke-width="1" opacity="0.6"/>
<circle cx="373.3" cy="153.3" r="3" fill="none" stroke="#d29922" stroke-width="1" opacity="0.6"/>
<circle cx="420.7" cy="179.7" r="3" fill="none" stroke="#d29922" stroke-width="1" opacity="0.6"/>
<circle cx="428.8" cy="199.8" r="3" fill="none" stroke="#d29922" stroke-width="1" opacity="0.6"/>
<circle cx="349.9" cy="206.8" r="3" fill="none" stroke="#d29922" stroke-width="1" opacity="0.6"/>
<circle cx="393.7" cy="158.9" r="3" fill="none" stroke="#d29922" stroke-width="1" opacity="0.6"/>
<circle cx="413.1" cy="156.9" r="3" fill="none" stroke="#d29922" stroke-width="1" opacity="0.6"/>
<circle cx="443.8" cy="147.7" r="3" fill="none" stroke="#d29922" stroke-width="1" opacity="0.6"/>
<circle cx="469.3" cy="145.2" r="3" fill="none" stroke="#d29922" stroke-width="1" opacity="0.6"/>
<circle cx="492.4" cy="158.1" r="3" fill="none" stroke="#d29922" stroke-width="1" opacity="0.6"/>
<circle cx="509.0" cy="179.7" r="3" fill="none" stroke="#d29922" stroke-width="1" opacity="0.6"/>
<circle cx="532.6" cy="184.5" r="3" fill="none" stroke="#d29922" stroke-width="1" opacity="0.6"/>
<circle cx="552.8" cy="182.7" r="3" fill="none" stroke="#d29922" stroke-width="1" opacity="0.6"/>
<circle cx="591.0" cy="196.9" r="3" fill="none" stroke="#d29922" stroke-width="1" opacity="0.6"/>
<circle cx="601.9" cy="218.1" r="3" fill="none" stroke="#d29922" stroke-width="1" opacity="0.6"/>
<circle cx="619.5" cy="257.8" r="3" fill="none" stroke="#d29922" stroke-width="1" opacity="0.6"/>
<circle cx="614.7" cy="311.0" r="3" fill="none" stroke="#d29922" stroke-width="1" opacity="0.6"/>
<circle cx="603.1" cy="323.6" r="3" fill="none" stroke="#d29922" stroke-width="1" opacity="0.6"/>
<circle cx="410.0" cy="410.0" r="10" fill="#0d1117" stroke="#58a6ff" stroke-width="2"/>
<circle cx="410.0" cy="410.0" r="4" fill="#58a6ff"/>
<circle r="2.4" fill="#7ee787"><animateMotion dur="2.73s" begin="1.95s" repeatCount="indefinite" path="M390.6,621.3 L416.1,638.6"/></circle>
<circle r="2.4" fill="#f2cc60"><animateMotion dur="3.55s" begin="1.77s" repeatCount="indefinite" path="M280.1,581.8 L279.6,616.4"/></circle>
<circle r="2.4" fill="#79c0ff"><animateMotion dur="2.69s" begin="2.47s" repeatCount="indefinite" path="M522.1,537.2 L566.4,537.6"/></circle>
<circle r="2.4" fill="#7ee787"><animateMotion dur="3.44s" begin="1.66s" repeatCount="indefinite" path="M191.2,312.7 L168.0,314.0"/></circle>
<circle r="2.4" fill="#f2cc60"><animateMotion dur="2.81s" begin="0.64s" repeatCount="indefinite" path="M243.6,433.2 L216.6,467.1"/></circle>
<circle r="2.4" fill="#79c0ff"><animateMotion dur="3.34s" begin="1.59s" repeatCount="indefinite" path="M578.5,218.2 L591.0,196.9"/></circle>
<circle r="2.4" fill="#7ee787"><animateMotion dur="3.09s" begin="0.11s" repeatCount="indefinite" path="M230.9,526.3 L214.1,511.6"/></circle>
<text x="806" y="806" text-anchor="end" font-size="9" fill="#484f58" letter-spacing="1">// circuit_bloom.py — seed:20260714 — spokes:6 — regenerated daily</text>
</svg>