<svg viewBox="0 0 820 820" width="820" height="820" xmlns="http://www.w3.org/2000/svg" font-family="'Fira Code',monospace">
<defs>
<pattern id="g2" width="22" height="22" patternUnits="userSpaceOnUse">
<path d="M 22 0 L 0 0 0 22" fill="none" stroke="#30363d" stroke-width="0.4" opacity="0.3"/>
</pattern>
<radialGradient id="glow" cx="50%" cy="50%" r="50%">
<stop offset="0%" stop-color="#58a6ff" stop-opacity="0.35"/>
<stop offset="100%" stop-color="#58a6ff" stop-opacity="0"/>
</radialGradient>
</defs>
<rect x="0" y="0" width="820" height="820" fill="#0d1117"/>
<rect x="0" y="0" width="820" height="820" fill="url(#g2)"/>
<circle cx="410.0" cy="410.0" r="230" fill="url(#glow)"/>
<line x1="410.0" y1="410.0" x2="515.0" y2="412.3" stroke="#58a6ff" stroke-width="2.60" opacity="1.00" stroke-linecap="round"/>
<line x1="515.0" y1="412.3" x2="572.8" y2="375.5" stroke="#4f9ee0" stroke-width="2.25" opacity="0.90" stroke-linecap="round"/>
<line x1="572.8" y1="375.5" x2="591.0" y2="331.8" stroke="#3fb950" stroke-width="1.90" opacity="0.80" stroke-linecap="round"/>
<line x1="591.0" y1="331.8" x2="583.5" y2="300.7" stroke="#7bc96f" stroke-width="1.55" opacity="0.70" stroke-linecap="round"/>
<line x1="583.5" y1="300.7" x2="567.8" y2="284.9" stroke="#d29922" stroke-width="1.20" opacity="0.60" stroke-linecap="round"/>
<line x1="583.5" y1="300.7" x2="590.5" y2="278.9" stroke="#d29922" stroke-width="1.20" opacity="0.60" stroke-linecap="round"/>
<line x1="591.0" y1="331.8" x2="615.6" y2="314.6" stroke="#7bc96f" stroke-width="1.55" opacity="0.70" stroke-linecap="round"/>
<line x1="615.6" y1="314.6" x2="630.3" y2="299.5" stroke="#d29922" stroke-width="1.20" opacity="0.60" stroke-linecap="round"/>
<line x1="572.8" y1="375.5" x2="620.3" y2="374.1" stroke="#3fb950" stroke-width="1.90" opacity="0.80" stroke-linecap="round"/>
<line x1="620.3" y1="374.1" x2="650.4" y2="357.9" stroke="#7bc96f" stroke-width="1.55" opacity="0.70" stroke-linecap="round"/>
<line x1="650.4" y1="357.9" x2="662.4" y2="338.6" stroke="#d29922" stroke-width="1.20" opacity="0.60" stroke-linecap="round"/>
<line x1="650.4" y1="357.9" x2="674.0" y2="360.7" stroke="#d29922" stroke-width="1.20" opacity="0.60" stroke-linecap="round"/>
<line x1="620.3" y1="374.1" x2="650.2" y2="385.1" stroke="#7bc96f" stroke-width="1.55" opacity="0.70" stroke-linecap="round"/>
<line x1="650.2" y1="385.1" x2="672.0" y2="382.3" stroke="#d29922" stroke-width="1.20" opacity="0.60" stroke-linecap="round"/>
<line x1="650.2" y1="385.1" x2="666.5" y2="401.1" stroke="#d29922" stroke-width="1.20" opacity="0.60" stroke-linecap="round"/>
<line x1="515.0" y1="412.3" x2="574.5" y2="442.6" stroke="#4f9ee0" stroke-width="2.25" opacity="0.90" stroke-linecap="round"/>
<line x1="574.5" y1="442.6" x2="620.9" y2="446.0" stroke="#3fb950" stroke-width="1.90" opacity="0.80" stroke-linecap="round"/>
<line x1="620.9" y1="446.0" x2="648.5" y2="433.6" stroke="#7bc96f" stroke-width="1.55" opacity="0.70" stroke-linecap="round"/>
<line x1="648.5" y1="433.6" x2="665.8" y2="423.7" stroke="#d29922" stroke-width="1.20" opacity="0.60" stroke-linecap="round"/>
<line x1="620.9" y1="446.0" x2="645.4" y2="466.7" stroke="#7bc96f" stroke-width="1.55" opacity="0.70" stroke-linecap="round"/>
<line x1="645.4" y1="466.7" x2="665.7" y2="470.5" stroke="#d29922" stroke-width="1.20" opacity="0.60" stroke-linecap="round"/>
<line x1="645.4" y1="466.7" x2="653.3" y2="486.5" stroke="#d29922" stroke-width="1.20" opacity="0.60" stroke-linecap="round"/>
<line x1="574.5" y1="442.6" x2="601.7" y2="479.2" stroke="#3fb950" stroke-width="1.90" opacity="0.80" stroke-linecap="round"/>
<line x1="601.7" y1="479.2" x2="630.4" y2="494.2" stroke="#7bc96f" stroke-width="1.55" opacity="0.70" stroke-linecap="round"/>
<line x1="630.4" y1="494.2" x2="648.7" y2="508.0" stroke="#d29922" stroke-width="1.20" opacity="0.60" stroke-linecap="round"/>
<line x1="601.7" y1="479.2" x2="603.1" y2="510.6" stroke="#7bc96f" stroke-width="1.55" opacity="0.70" stroke-linecap="round"/>
<line x1="603.1" y1="510.6" x2="608.4" y2="530.6" stroke="#d29922" stroke-width="1.20" opacity="0.60" stroke-linecap="round"/>
<line x1="410.0" y1="410.0" x2="445.6" y2="508.8" stroke="#58a6ff" stroke-width="2.60" opacity="1.00" stroke-linecap="round"/>
<line x1="445.6" y1="508.8" x2="497.2" y2="549.6" stroke="#4f9ee0" stroke-width="2.25" opacity="0.90" stroke-linecap="round"/>
<line x1="497.2" y1="549.6" x2="543.4" y2="552.3" stroke="#3fb950" stroke-width="1.90" opacity="0.80" stroke-linecap="round"/>
<line x1="543.4" y1="552.3" x2="568.8" y2="536.7" stroke="#7bc96f" stroke-width="1.55" opacity="0.70" stroke-linecap="round"/>
<line x1="568.8" y1="536.7" x2="574.6" y2="516.8" stroke="#d29922" stroke-width="1.20" opacity="0.60" stroke-linecap="round"/>
<line x1="568.8" y1="536.7" x2="589.8" y2="540.3" stroke="#d29922" stroke-width="1.20" opacity="0.60" stroke-linecap="round"/>
<line x1="543.4" y1="552.3" x2="566.3" y2="569.6" stroke="#7bc96f" stroke-width="1.55" opacity="0.70" stroke-linecap="round"/>
<line x1="566.3" y1="569.6" x2="583.9" y2="578.5" stroke="#d29922" stroke-width="1.20" opacity="0.60" stroke-linecap="round"/>
<line x1="497.2" y1="549.6" x2="509.8" y2="593.2" stroke="#3fb950" stroke-width="1.90" opacity="0.80" stroke-linecap="round"/>
<line x1="509.8" y1="593.2" x2="531.1" y2="616.7" stroke="#7bc96f" stroke-width="1.55" opacity="0.70" stroke-linecap="round"/>
<line x1="531.1" y1="616.7" x2="549.5" y2="629.8" stroke="#d29922" stroke-width="1.20" opacity="0.60" stroke-linecap="round"/>
<line x1="509.8" y1="593.2" x2="503.6" y2="624.9" stroke="#7bc96f" stroke-width="1.55" opacity="0.70" stroke-linecap="round"/>
<line x1="503.6" y1="624.9" x2="502.6" y2="646.7" stroke="#d29922" stroke-width="1.20" opacity="0.60" stroke-linecap="round"/>
<line x1="445.6" y1="508.8" x2="435.9" y2="579.0" stroke="#4f9ee0" stroke-width="2.25" opacity="0.90" stroke-linecap="round"/>
<line x1="435.9" y1="579.0" x2="449.6" y2="622.2" stroke="#3fb950" stroke-width="1.90" opacity="0.80" stroke-linecap="round"/>
<line x1="449.6" y1="622.2" x2="469.1" y2="647.3" stroke="#7bc96f" stroke-width="1.55" opacity="0.70" stroke-linecap="round"/>
<line x1="469.1" y1="647.3" x2="478.3" y2="665.0" stroke="#d29922" stroke-width="1.20" opacity="0.60" stroke-linecap="round"/>
<line x1="449.6" y1="622.2" x2="444.5" y2="653.8" stroke="#7bc96f" stroke-width="1.55" opacity="0.70" stroke-linecap="round"/>
<line x1="444.5" y1="653.8" x2="443.5" y2="674.8" stroke="#d29922" stroke-width="1.20" opacity="0.60" stroke-linecap="round"/>
<line x1="435.9" y1="579.0" x2="408.3" y2="613.3" stroke="#3fb950" stroke-width="1.90" opacity="0.80" stroke-linecap="round"/>
<line x1="408.3" y1="613.3" x2="406.7" y2="643.6" stroke="#7bc96f" stroke-width="1.55" opacity="0.70" stroke-linecap="round"/>
<line x1="406.7" y1="643.6" x2="409.1" y2="663.3" stroke="#d29922" stroke-width="1.20" opacity="0.60" stroke-linecap="round"/>
<line x1="408.3" y1="613.3" x2="380.1" y2="621.4" stroke="#7bc96f" stroke-width="1.55" opacity="0.70" stroke-linecap="round"/>
<line x1="380.1" y1="621.4" x2="367.5" y2="637.2" stroke="#d29922" stroke-width="1.20" opacity="0.60" stroke-linecap="round"/>
<line x1="380.1" y1="621.4" x2="361.5" y2="616.8" stroke="#d29922" stroke-width="1.20" opacity="0.60" stroke-linecap="round"/>
<line x1="410.0" y1="410.0" x2="327.0" y2="474.4" stroke="#58a6ff" stroke-width="2.60" opacity="1.00" stroke-linecap="round"/>
<line x1="327.0" y1="474.4" x2="297.8" y2="532.9" stroke="#4f9ee0" stroke-width="2.25" opacity="0.90" stroke-linecap="round"/>
<line x1="297.8" y1="532.9" x2="309.4" y2="576.6" stroke="#3fb950" stroke-width="1.90" opacity="0.80" stroke-linecap="round"/>
<line x1="309.4" y1="576.6" x2="329.0" y2="601.1" stroke="#7bc96f" stroke-width="1.55" opacity="0.70" stroke-linecap="round"/>
<line x1="329.0" y1="601.1" x2="340.8" y2="618.0" stroke="#d29922" stroke-width="1.20" opacity="0.60" stroke-linecap="round"/>
<line x1="309.4" y1="576.6" x2="305.7" y2="606.5" stroke="#7bc96f" stroke-width="1.55" opacity="0.70" stroke-linecap="round"/>
<line x1="305.7" y1="606.5" x2="301.7" y2="627.7" stroke="#d29922" stroke-width="1.20" opacity="0.60" stroke-linecap="round"/>
<line x1="297.8" y1="532.9" x2="255.7" y2="553.3" stroke="#3fb950" stroke-width="1.90" opacity="0.80" stroke-linecap="round"/>
<line x1="255.7" y1="553.3" x2="238.7" y2="579.0" stroke="#7bc96f" stroke-width="1.55" opacity="0.70" stroke-linecap="round"/>
<line x1="238.7" y1="579.0" x2="241.3" y2="598.6" stroke="#d29922" stroke-width="1.20" opacity="0.60" stroke-linecap="round"/>
<line x1="238.7" y1="579.0" x2="220.1" y2="586.4" stroke="#d29922" stroke-width="1.20" opacity="0.60" stroke-linecap="round"/>
<line x1="255.7" y1="553.3" x2="225.7" y2="550.7" stroke="#7bc96f" stroke-width="1.55" opacity="0.70" stroke-linecap="round"/>
<line x1="225.7" y1="550.7" x2="204.9" y2="553.3" stroke="#d29922" stroke-width="1.20" opacity="0.60" stroke-linecap="round"/>
<line x1="327.0" y1="474.4" x2="254.5" y2="487.6" stroke="#4f9ee0" stroke-width="2.25" opacity="0.90" stroke-linecap="round"/>
<line x1="254.5" y1="487.6" x2="214.1" y2="514.7" stroke="#3fb950" stroke-width="1.90" opacity="0.80" stroke-linecap="round"/>
<line x1="214.1" y1="514.7" x2="201.0" y2="541.9" stroke="#7bc96f" stroke-width="1.55" opacity="0.70" stroke-linecap="round"/>
<line x1="201.0" y1="541.9" x2="203.4" y2="563.3" stroke="#d29922" stroke-width="1.20" opacity="0.60" stroke-linecap="round"/>
<line x1="201.0" y1="541.9" x2="184.6" y2="554.1" stroke="#d29922" stroke-width="1.20" opacity="0.60" stroke-linecap="round"/>
<line x1="214.1" y1="514.7" x2="179.9" y2="515.1" stroke="#7bc96f" stroke-width="1.55" opacity="0.70" stroke-linecap="round"/>
<line x1="179.9" y1="515.1" x2="160.9" y2="528.2" stroke="#d29922" stroke-width="1.20" opacity="0.60" stroke-linecap="round"/>
<line x1="179.9" y1="515.1" x2="160.0" y2="501.8" stroke="#d29922" stroke-width="1.20" opacity="0.60" stroke-linecap="round"/>
<line x1="254.5" y1="487.6" x2="207.6" y2="472.8" stroke="#3fb950" stroke-width="1.90" opacity="0.80" stroke-linecap="round"/>
<line x1="207.6" y1="472.8" x2="178.4" y2="482.1" stroke="#7bc96f" stroke-width="1.55" opacity="0.70" stroke-linecap="round"/>
<line x1="178.4" y1="482.1" x2="164.6" y2="499.3" stroke="#d29922" stroke-width="1.20" opacity="0.60" stroke-linecap="round"/>
<line x1="178.4" y1="482.1" x2="156.6" y2="478.7" stroke="#d29922" stroke-width="1.20" opacity="0.60" stroke-linecap="round"/>
<line x1="207.6" y1="472.8" x2="187.6" y2="445.8" stroke="#7bc96f" stroke-width="1.55" opacity="0.70" stroke-linecap="round"/>
<line x1="187.6" y1="445.8" x2="170.6" y2="431.6" stroke="#d29922" stroke-width="1.20" opacity="0.60" stroke-linecap="round"/>
<line x1="410.0" y1="410.0" x2="321.8" y2="353.0" stroke="#58a6ff" stroke-width="2.60" opacity="1.00" stroke-linecap="round"/>
<line x1="321.8" y1="353.0" x2="251.3" y2="348.7" stroke="#4f9ee0" stroke-width="2.25" opacity="0.90" stroke-linecap="round"/>
<line x1="251.3" y1="348.7" x2="210.4" y2="367.2" stroke="#3fb950" stroke-width="1.90" opacity="0.80" stroke-linecap="round"/>
<line x1="210.4" y1="367.2" x2="196.2" y2="392.1" stroke="#7bc96f" stroke-width="1.55" opacity="0.70" stroke-linecap="round"/>
<line x1="196.2" y1="392.1" x2="196.5" y2="410.1" stroke="#d29922" stroke-width="1.20" opacity="0.60" stroke-linecap="round"/>
<line x1="196.2" y1="392.1" x2="178.4" y2="400.9" stroke="#d29922" stroke-width="1.20" opacity="0.60" stroke-linecap="round"/>
<line x1="210.4" y1="367.2" x2="182.4" y2="361.3" stroke="#7bc96f" stroke-width="1.55" opacity="0.70" stroke-linecap="round"/>
<line x1="182.4" y1="361.3" x2="165.0" y2="351.8" stroke="#d29922" stroke-width="1.20" opacity="0.60" stroke-linecap="round"/>
<line x1="251.3" y1="348.7" x2="210.3" y2="320.1" stroke="#3fb950" stroke-width="1.90" opacity="0.80" stroke-linecap="round"/>
<line x1="210.3" y1="320.1" x2="176.4" y2="310.1" stroke="#7bc96f" stroke-width="1.55" opacity="0.70" stroke-linecap="round"/>
<line x1="176.4" y1="310.1" x2="153.7" y2="319.4" stroke="#d29922" stroke-width="1.20" opacity="0.60" stroke-linecap="round"/>
<line x1="176.4" y1="310.1" x2="162.5" y2="289.5" stroke="#d29922" stroke-width="1.20" opacity="0.60" stroke-linecap="round"/>
<line x1="210.3" y1="320.1" x2="191.8" y2="291.0" stroke="#7bc96f" stroke-width="1.55" opacity="0.70" stroke-linecap="round"/>
<line x1="191.8" y1="291.0" x2="171.2" y2="278.5" stroke="#d29922" stroke-width="1.20" opacity="0.60" stroke-linecap="round"/>
<line x1="191.8" y1="291.0" x2="189.2" y2="269.4" stroke="#d29922" stroke-width="1.20" opacity="0.60" stroke-linecap="round"/>
<line x1="321.8" y1="353.0" x2="288.7" y2="285.4" stroke="#4f9ee0" stroke-width="2.25" opacity="0.90" stroke-linecap="round"/>
<line x1="288.7" y1="285.4" x2="246.1" y2="264.6" stroke="#3fb950" stroke-width="1.90" opacity="0.80" stroke-linecap="round"/>
<line x1="246.1" y1="264.6" x2="212.8" y2="263.1" stroke="#7bc96f" stroke-width="1.55" opacity="0.70" stroke-linecap="round"/>
<line x1="212.8" y1="263.1" x2="191.6" y2="270.6" stroke="#d29922" stroke-width="1.20" opacity="0.60" stroke-linecap="round"/>
<line x1="212.8" y1="263.1" x2="193.8" y2="253.7" stroke="#d29922" stroke-width="1.20" opacity="0.60" stroke-linecap="round"/>
<line x1="246.1" y1="264.6" x2="226.1" y2="239.9" stroke="#7bc96f" stroke-width="1.55" opacity="0.70" stroke-linecap="round"/>
<line x1="226.1" y1="239.9" x2="215.0" y2="222.0" stroke="#d29922" stroke-width="1.20" opacity="0.60" stroke-linecap="round"/>
<line x1="288.7" y1="285.4" x2="299.3" y2="234.4" stroke="#3fb950" stroke-width="1.90" opacity="0.80" stroke-linecap="round"/>
<line x1="299.3" y1="234.4" x2="289.2" y2="202.6" stroke="#7bc96f" stroke-width="1.55" opacity="0.70" stroke-linecap="round"/>
<line x1="289.2" y1="202.6" x2="284.5" y2="182.4" stroke="#d29922" stroke-width="1.20" opacity="0.60" stroke-linecap="round"/>
<line x1="299.3" y1="234.4" x2="324.3" y2="206.4" stroke="#7bc96f" stroke-width="1.55" opacity="0.70" stroke-linecap="round"/>
<line x1="324.3" y1="206.4" x2="331.2" y2="183.0" stroke="#d29922" stroke-width="1.20" opacity="0.60" stroke-linecap="round"/>
<line x1="324.3" y1="206.4" x2="346.9" y2="194.7" stroke="#d29922" stroke-width="1.20" opacity="0.60" stroke-linecap="round"/>
<line x1="410.0" y1="410.0" x2="436.0" y2="308.3" stroke="#58a6ff" stroke-width="2.60" opacity="1.00" stroke-linecap="round"/>
<line x1="436.0" y1="308.3" x2="405.2" y2="250.9" stroke="#4f9ee0" stroke-width="2.25" opacity="0.90" stroke-linecap="round"/>
<line x1="405.2" y1="250.9" x2="369.8" y2="229.7" stroke="#3fb950" stroke-width="1.90" opacity="0.80" stroke-linecap="round"/>
<line x1="369.8" y1="229.7" x2="340.9" y2="230.9" stroke="#7bc96f" stroke-width="1.55" opacity="0.70" stroke-linecap="round"/>
<line x1="340.9" y1="230.9" x2="324.9" y2="241.4" stroke="#d29922" stroke-width="1.20" opacity="0.60" stroke-linecap="round"/>
<line x1="340.9" y1="230.9" x2="323.7" y2="221.4" stroke="#d29922" stroke-width="1.20" opacity="0.60" stroke-linecap="round"/>
<line x1="369.8" y1="229.7" x2="359.7" y2="203.6" stroke="#7bc96f" stroke-width="1.55" opacity="0.70" stroke-linecap="round"/>
<line x1="359.7" y1="203.6" x2="344.0" y2="192.5" stroke="#d29922" stroke-width="1.20" opacity="0.60" stroke-linecap="round"/>
<line x1="359.7" y1="203.6" x2="364.6" y2="184.6" stroke="#d29922" stroke-width="1.20" opacity="0.60" stroke-linecap="round"/>
<line x1="405.2" y1="250.9" x2="406.1" y2="206.6" stroke="#3fb950" stroke-width="1.90" opacity="0.80" stroke-linecap="round"/>
<line x1="406.1" y1="206.6" x2="391.7" y2="179.1" stroke="#7bc96f" stroke-width="1.55" opacity="0.70" stroke-linecap="round"/>
<line x1="391.7" y1="179.1" x2="380.2" y2="161.3" stroke="#d29922" stroke-width="1.20" opacity="0.60" stroke-linecap="round"/>
<line x1="406.1" y1="206.6" x2="420.2" y2="178.2" stroke="#7bc96f" stroke-width="1.55" opacity="0.70" stroke-linecap="round"/>
<line x1="420.2" y1="178.2" x2="416.1" y2="157.3" stroke="#d29922" stroke-width="1.20" opacity="0.60" stroke-linecap="round"/>
<line x1="420.2" y1="178.2" x2="437.7" y2="167.5" stroke="#d29922" stroke-width="1.20" opacity="0.60" stroke-linecap="round"/>
<line x1="436.0" y1="308.3" x2="497.3" y2="266.1" stroke="#4f9ee0" stroke-width="2.25" opacity="0.90" stroke-linecap="round"/>
<line x1="497.3" y1="266.1" x2="513.0" y2="220.3" stroke="#3fb950" stroke-width="1.90" opacity="0.80" stroke-linecap="round"/>
<line x1="513.0" y1="220.3" x2="504.7" y2="191.2" stroke="#7bc96f" stroke-width="1.55" opacity="0.70" stroke-linecap="round"/>
<line x1="504.7" y1="191.2" x2="489.4" y2="176.6" stroke="#d29922" stroke-width="1.20" opacity="0.60" stroke-linecap="round"/>
<line x1="504.7" y1="191.2" x2="510.4" y2="170.4" stroke="#d29922" stroke-width="1.20" opacity="0.60" stroke-linecap="round"/>
<line x1="513.0" y1="220.3" x2="539.2" y2="200.9" stroke="#7bc96f" stroke-width="1.55" opacity="0.70" stroke-linecap="round"/>
<line x1="539.2" y1="200.9" x2="554.6" y2="185.4" stroke="#d29922" stroke-width="1.20" opacity="0.60" stroke-linecap="round"/>
<line x1="497.3" y1="266.1" x2="549.8" y2="265.0" stroke="#3fb950" stroke-width="1.90" opacity="0.80" stroke-linecap="round"/>
<line x1="549.8" y1="265.0" x2="579.6" y2="243.4" stroke="#7bc96f" stroke-width="1.55" opacity="0.70" stroke-linecap="round"/>
<line x1="579.6" y1="243.4" x2="591.2" y2="219.9" stroke="#d29922" stroke-width="1.20" opacity="0.60" stroke-linecap="round"/>
<line x1="579.6" y1="243.4" x2="603.5" y2="243.5" stroke="#d29922" stroke-width="1.20" opacity="0.60" stroke-linecap="round"/>
<line x1="549.8" y1="265.0" x2="577.4" y2="282.8" stroke="#7bc96f" stroke-width="1.55" opacity="0.70" stroke-linecap="round"/>
<line x1="577.4" y1="282.8" x2="600.0" y2="279.2" stroke="#d29922" stroke-width="1.20" opacity="0.60" stroke-linecap="round"/>
<line x1="577.4" y1="282.8" x2="585.3" y2="303.3" stroke="#d29922" stroke-width="1.20" opacity="0.60" stroke-linecap="round"/>
<circle cx="515.0" cy="412.3" r="2.60" fill="#58a6ff" opacity="0.85"/>
<circle cx="572.8" cy="375.5" r="2.30" fill="#4f9ee0" opacity="0.85"/>
<circle cx="591.0" cy="331.8" r="2.00" fill="#3fb950" opacity="0.85"/>
<circle cx="583.5" cy="300.7" r="1.70" fill="#7bc96f" opacity="0.85"/>
<circle cx="615.6" cy="314.6" r="1.70" fill="#7bc96f" opacity="0.85"/>
<circle cx="620.3" cy="374.1" r="2.00" fill="#3fb950" opacity="0.85"/>
<circle cx="650.4" cy="357.9" r="1.70" fill="#7bc96f" opacity="0.85"/>
<circle cx="650.2" cy="385.1" r="1.70" fill="#7bc96f" opacity="0.85"/>
<circle cx="574.5" cy="442.6" r="2.30" fill="#4f9ee0" opacity="0.85"/>
<circle cx="620.9" cy="446.0" r="2.00" fill="#3fb950" opacity="0.85"/>
<circle cx="648.5" cy="433.6" r="1.70" fill="#7bc96f" opacity="0.85"/>
<circle cx="645.4" cy="466.7" r="1.70" fill="#7bc96f" opacity="0.85"/>
<circle cx="601.7" cy="479.2" r="2.00" fill="#3fb950" opacity="0.85"/>
<circle cx="630.4" cy="494.2" r="1.70" fill="#7bc96f" opacity="0.85"/>
<circle cx="603.1" cy="510.6" r="1.70" fill="#7bc96f" opacity="0.85"/>
<circle cx="445.6" cy="508.8" r="2.60" fill="#58a6ff" opacity="0.85"/>
<circle cx="497.2" cy="549.6" r="2.30" fill="#4f9ee0" opacity="0.85"/>
<circle cx="543.4" cy="552.3" r="2.00" fill="#3fb950" opacity="0.85"/>
<circle cx="568.8" cy="536.7" r="1.70" fill="#7bc96f" opacity="0.85"/>
<circle cx="566.3" cy="569.6" r="1.70" fill="#7bc96f" opacity="0.85"/>
<circle cx="509.8" cy="593.2" r="2.00" fill="#3fb950" opacity="0.85"/>
<circle cx="531.1" cy="616.7" r="1.70" fill="#7bc96f" opacity="0.85"/>
<circle cx="503.6" cy="624.9" r="1.70" fill="#7bc96f" opacity="0.85"/>
<circle cx="435.9" cy="579.0" r="2.30" fill="#4f9ee0" opacity="0.85"/>
<circle cx="449.6" cy="622.2" r="2.00" fill="#3fb950" opacity="0.85"/>
<circle cx="469.1" cy="647.3" r="1.70" fill="#7bc96f" opacity="0.85"/>
<circle cx="444.5" cy="653.8" r="1.70" fill="#7bc96f" opacity="0.85"/>
<circle cx="408.3" cy="613.3" r="2.00" fill="#3fb950" opacity="0.85"/>
<circle cx="406.7" cy="643.6" r="1.70" fill="#7bc96f" opacity="0.85"/>
<circle cx="380.1" cy="621.4" r="1.70" fill="#7bc96f" opacity="0.85"/>
<circle cx="327.0" cy="474.4" r="2.60" fill="#58a6ff" opacity="0.85"/>
<circle cx="297.8" cy="532.9" r="2.30" fill="#4f9ee0" opacity="0.85"/>
<circle cx="309.4" cy="576.6" r="2.00" fill="#3fb950" opacity="0.85"/>
<circle cx="329.0" cy="601.1" r="1.70" fill="#7bc96f" opacity="0.85"/>
<circle cx="305.7" cy="606.5" r="1.70" fill="#7bc96f" opacity="0.85"/>
<circle cx="255.7" cy="553.3" r="2.00" fill="#3fb950" opacity="0.85"/>
<circle cx="238.7" cy="579.0" r="1.70" fill="#7bc96f" opacity="0.85"/>
<circle cx="225.7" cy="550.7" r="1.70" fill="#7bc96f" opacity="0.85"/>
<circle cx="254.5" cy="487.6" r="2.30" fill="#4f9ee0" opacity="0.85"/>
<circle cx="214.1" cy="514.7" r="2.00" fill="#3fb950" opacity="0.85"/>
<circle cx="201.0" cy="541.9" r="1.70" fill="#7bc96f" opacity="0.85"/>
<circle cx="179.9" cy="515.1" r="1.70" fill="#7bc96f" opacity="0.85"/>
<circle cx="207.6" cy="472.8" r="2.00" fill="#3fb950" opacity="0.85"/>
<circle cx="178.4" cy="482.1" r="1.70" fill="#7bc96f" opacity="0.85"/>
<circle cx="187.6" cy="445.8" r="1.70" fill="#7bc96f" opacity="0.85"/>
<circle cx="321.8" cy="353.0" r="2.60" fill="#58a6ff" opacity="0.85"/>
<circle cx="251.3" cy="348.7" r="2.30" fill="#4f9ee0" opacity="0.85"/>
<circle cx="210.4" cy="367.2" r="2.00" fill="#3fb950" opacity="0.85"/>
<circle cx="196.2" cy="392.1" r="1.70" fill="#7bc96f" opacity="0.85"/>
<circle cx="182.4" cy="361.3" r="1.70" fill="#7bc96f" opacity="0.85"/>
<circle cx="210.3" cy="320.1" r="2.00" fill="#3fb950" opacity="0.85"/>
<circle cx="176.4" cy="310.1" r="1.70" fill="#7bc96f" opacity="0.85"/>
<circle cx="191.8" cy="291.0" r="1.70" fill="#7bc96f" opacity="0.85"/>
<circle cx="288.7" cy="285.4" r="2.30" fill="#4f9ee0" opacity="0.85"/>
<circle cx="246.1" cy="264.6" r="2.00" fill="#3fb950" opacity="0.85"/>
<circle cx="212.8" cy="263.1" r="1.70" fill="#7bc96f" opacity="0.85"/>
<circle cx="226.1" cy="239.9" r="1.70" fill="#7bc96f" opacity="0.85"/>
<circle cx="299.3" cy="234.4" r="2.00" fill="#3fb950" opacity="0.85"/>
<circle cx="289.2" cy="202.6" r="1.70" fill="#7bc96f" opacity="0.85"/>
<circle cx="324.3" cy="206.4" r="1.70" fill="#7bc96f" opacity="0.85"/>
<circle cx="436.0" cy="308.3" r="2.60" fill="#58a6ff" opacity="0.85"/>
<circle cx="405.2" cy="250.9" r="2.30" fill="#4f9ee0" opacity="0.85"/>
<circle cx="369.8" cy="229.7" r="2.00" fill="#3fb950" opacity="0.85"/>
<circle cx="340.9" cy="230.9" r="1.70" fill="#7bc96f" opacity="0.85"/>
<circle cx="359.7" cy="203.6" r="1.70" fill="#7bc96f" opacity="0.85"/>
<circle cx="406.1" cy="206.6" r="2.00" fill="#3fb950" opacity="0.85"/>
<circle cx="391.7" cy="179.1" r="1.70" fill="#7bc96f" opacity="0.85"/>
<circle cx="420.2" cy="178.2" r="1.70" fill="#7bc96f" opacity="0.85"/>
<circle cx="497.3" cy="266.1" r="2.30" fill="#4f9ee0" opacity="0.85"/>
<circle cx="513.0" cy="220.3" r="2.00" fill="#3fb950" opacity="0.85"/>
<circle cx="504.7" cy="191.2" r="1.70" fill="#7bc96f" opacity="0.85"/>
<circle cx="539.2" cy="200.9" r="1.70" fill="#7bc96f" opacity="0.85"/>
<circle cx="549.8" cy="265.0" r="2.00" fill="#3fb950" opacity="0.85"/>
<circle cx="579.6" cy="243.4" r="1.70" fill="#7bc96f" opacity="0.85"/>
<circle cx="577.4" cy="282.8" r="1.70" fill="#7bc96f" opacity="0.85"/>
<circle cx="567.8" cy="284.9" r="3" fill="none" stroke="#d29922" stroke-width="1" opacity="0.6"/>
<circle cx="590.5" cy="278.9" r="3" fill="none" stroke="#d29922" stroke-width="1" opacity="0.6"/>
<circle cx="630.3" cy="299.5" r="3" fill="none" stroke="#d29922" stroke-width="1" opacity="0.6"/>
<circle cx="662.4" cy="338.6" r="3" fill="none" stroke="#d29922" stroke-width="1" opacity="0.6"/>
<circle cx="674.0" cy="360.7" r="3" fill="none" stroke="#d29922" stroke-width="1" opacity="0.6"/>
<circle cx="672.0" cy="382.3" r="3" fill="none" stroke="#d29922" stroke-width="1" opacity="0.6"/>
<circle cx="666.5" cy="401.1" r="3" fill="none" stroke="#d29922" stroke-width="1" opacity="0.6"/>
<circle cx="665.8" cy="423.7" r="3" fill="none" stroke="#d29922" stroke-width="1" opacity="0.6"/>
<circle cx="665.7" cy="470.5" r="3" fill="none" stroke="#d29922" stroke-width="1" opacity="0.6"/>
<circle cx="653.3" cy="486.5" r="3" fill="none" stroke="#d29922" stroke-width="1" opacity="0.6"/>
<circle cx="648.7" cy="508.0" r="3" fill="none" stroke="#d29922" stroke-width="1" opacity="0.6"/>
<circle cx="608.4" cy="530.6" r="3" fill="none" stroke="#d29922" stroke-width="1" opacity="0.6"/>
<circle cx="574.6" cy="516.8" r="3" fill="none" stroke="#d29922" stroke-width="1" opacity="0.6"/>
<circle cx="589.8" cy="540.3" r="3" fill="none" stroke="#d29922" stroke-width="1" opacity="0.6"/>
<circle cx="583.9" cy="578.5" r="3" fill="none" stroke="#d29922" stroke-width="1" opacity="0.6"/>
<circle cx="549.5" cy="629.8" r="3" fill="none" stroke="#d29922" stroke-width="1" opacity="0.6"/>
<circle cx="502.6" cy="646.7" r="3" fill="none" stroke="#d29922" stroke-width="1" opacity="0.6"/>
<circle cx="478.3" cy="665.0" r="3" fill="none" stroke="#d29922" stroke-width="1" opacity="0.6"/>
<circle cx="443.5" cy="674.8" r="3" fill="none" stroke="#d29922" stroke-width="1" opacity="0.6"/>
<circle cx="409.1" cy="663.3" r="3" fill="none" stroke="#d29922" stroke-width="1" opacity="0.6"/>
<circle cx="367.5" cy="637.2" r="3" fill="none" stroke="#d29922" stroke-width="1" opacity="0.6"/>
<circle cx="361.5" cy="616.8" r="3" fill="none" stroke="#d29922" stroke-width="1" opacity="0.6"/>
<circle cx="340.8" cy="618.0" r="3" fill="none" stroke="#d29922" stroke-width="1" opacity="0.6"/>
<circle cx="301.7" cy="627.7" r="3" fill="none" stroke="#d29922" stroke-width="1" opacity="0.6"/>
<circle cx="241.3" cy="598.6" r="3" fill="none" stroke="#d29922" stroke-width="1" opacity="0.6"/>
<circle cx="220.1" cy="586.4" r="3" fill="none" stroke="#d29922" stroke-width="1" opacity="0.6"/>
<circle cx="204.9" cy="553.3" r="3" fill="none" stroke="#d29922" stroke-width="1" opacity="0.6"/>
<circle cx="203.4" cy="563.3" r="3" fill="none" stroke="#d29922" stroke-width="1" opacity="0.6"/>
<circle cx="184.6" cy="554.1" r="3" fill="none" stroke="#d29922" stroke-width="1" opacity="0.6"/>
<circle cx="160.9" cy="528.2" r="3" fill="none" stroke="#d29922" stroke-width="1" opacity="0.6"/>
<circle cx="160.0" cy="501.8" r="3" fill="none" stroke="#d29922" stroke-width="1" opacity="0.6"/>
<circle cx="164.6" cy="499.3" r="3" fill="none" stroke="#d29922" stroke-width="1" opacity="0.6"/>
<circle cx="156.6" cy="478.7" r="3" fill="none" stroke="#d29922" stroke-width="1" opacity="0.6"/>
<circle cx="170.6" cy="431.6" r="3" fill="none" stroke="#d29922" stroke-width="1" opacity="0.6"/>
<circle cx="196.5" cy="410.1" r="3" fill="none" stroke="#d29922" stroke-width="1" opacity="0.6"/>
<circle cx="178.4" cy="400.9" r="3" fill="none" stroke="#d29922" stroke-width="1" opacity="0.6"/>
<circle cx="165.0" cy="351.8" r="3" fill="none" stroke="#d29922" stroke-width="1" opacity="0.6"/>
<circle cx="153.7" cy="319.4" r="3" fill="none" stroke="#d29922" stroke-width="1" opacity="0.6"/>
<circle cx="162.5" cy="289.5" r="3" fill="none" stroke="#d29922" stroke-width="1" opacity="0.6"/>
<circle cx="171.2" cy="278.5" r="3" fill="none" stroke="#d29922" stroke-width="1" opacity="0.6"/>
<circle cx="189.2" cy="269.4" r="3" fill="none" stroke="#d29922" stroke-width="1" opacity="0.6"/>
<circle cx="191.6" cy="270.6" r="3" fill="none" stroke="#d29922" stroke-width="1" opacity="0.6"/>
<circle cx="193.8" cy="253.7" r="3" fill="none" stroke="#d29922" stroke-width="1" opacity="0.6"/>
<circle cx="215.0" cy="222.0" r="3" fill="none" stroke="#d29922" stroke-width="1" opacity="0.6"/>
<circle cx="284.5" cy="182.4" r="3" fill="none" stroke="#d29922" stroke-width="1" opacity="0.6"/>
<circle cx="331.2" cy="183.0" r="3" fill="none" stroke="#d29922" stroke-width="1" opacity="0.6"/>
<circle cx="346.9" cy="194.7" r="3" fill="none" stroke="#d29922" stroke-width="1" opacity="0.6"/>
<circle cx="324.9" cy="241.4" r="3" fill="none" stroke="#d29922" stroke-width="1" opacity="0.6"/>
<circle cx="323.7" cy="221.4" r="3" fill="none" stroke="#d29922" stroke-width="1" opacity="0.6"/>
<circle cx="344.0" cy="192.5" r="3" fill="none" stroke="#d29922" stroke-width="1" opacity="0.6"/>
<circle cx="364.6" cy="184.6" r="3" fill="none" stroke="#d29922" stroke-width="1" opacity="0.6"/>
<circle cx="380.2" cy="161.3" r="3" fill="none" stroke="#d29922" stroke-width="1" opacity="0.6"/>
<circle cx="416.1" cy="157.3" r="3" fill="none" stroke="#d29922" stroke-width="1" opacity="0.6"/>
<circle cx="437.7" cy="167.5" r="3" fill="none" stroke="#d29922" stroke-width="1" opacity="0.6"/>
<circle cx="489.4" cy="176.6" r="3" fill="none" stroke="#d29922" stroke-width="1" opacity="0.6"/>
<circle cx="510.4" cy="170.4" r="3" fill="none" stroke="#d29922" stroke-width="1" opacity="0.6"/>
<circle cx="554.6" cy="185.4" r="3" fill="none" stroke="#d29922" stroke-width="1" opacity="0.6"/>
<circle cx="591.2" cy="219.9" r="3" fill="none" stroke="#d29922" stroke-width="1" opacity="0.6"/>
<circle cx="603.5" cy="243.5" r="3" fill="none" stroke="#d29922" stroke-width="1" opacity="0.6"/>
<circle cx="600.0" cy="279.2" r="3" fill="none" stroke="#d29922" stroke-width="1" opacity="0.6"/>
<circle cx="585.3" cy="303.3" r="3" fill="none" stroke="#d29922" stroke-width="1" opacity="0.6"/>
<circle cx="410.0" cy="410.0" r="10" fill="#0d1117" stroke="#58a6ff" stroke-width="2"/>
<circle cx="410.0" cy="410.0" r="4" fill="#58a6ff"/>
<circle r="2.4" fill="#7ee787"><animateMotion dur="3.21s" begin="0.62s" repeatCount="indefinite" path="M410.0,410.0 L445.6,508.8"/></circle>
<circle r="2.4" fill="#f2cc60"><animateMotion dur="3.28s" begin="0.29s" repeatCount="indefinite" path="M449.6,622.2 L444.5,653.8"/></circle>
<circle r="2.4" fill="#79c0ff"><animateMotion dur="2.31s" begin="0.78s" repeatCount="indefinite" path="M549.8,265.0 L579.6,243.4"/></circle>
<circle r="2.4" fill="#7ee787"><animateMotion dur="3.01s" begin="0.72s" repeatCount="indefinite" path="M568.8,536.7 L589.8,540.3"/></circle>
<circle r="2.4" fill="#f2cc60"><animateMotion dur="3.64s" begin="0.07s" repeatCount="indefinite" path="M504.7,191.2 L489.4,176.6"/></circle>
<circle r="2.4" fill="#79c0ff"><animateMotion dur="2.98s" begin="0.56s" repeatCount="indefinite" path="M178.4,482.1 L164.6,499.3"/></circle>
<circle r="2.4" fill="#7ee787"><animateMotion dur="3.95s" begin="0.63s" repeatCount="indefinite" path="M620.9,446.0 L648.5,433.6"/></circle>
<text x="806" y="806" text-anchor="end" font-size="9" fill="#484f58" letter-spacing="1">// circuit_bloom.py — seed:20260926 — spokes:5 — regenerated daily</text>
</svg>