<svg viewBox="0 0 820 820" width="820" height="820" xmlns="http://www.w3.org/2000/svg" font-family="'Fira Code',monospace">
<defs>
<pattern id="g2" width="22" height="22" patternUnits="userSpaceOnUse">
<path d="M 22 0 L 0 0 0 22" fill="none" stroke="#30363d" stroke-width="0.4" opacity="0.3"/>
</pattern>
<radialGradient id="glow" cx="50%" cy="50%" r="50%">
<stop offset="0%" stop-color="#58a6ff" stop-opacity="0.35"/>
<stop offset="100%" stop-color="#58a6ff" stop-opacity="0"/>
</radialGradient>
</defs>
<rect x="0" y="0" width="820" height="820" fill="#0d1117"/>
<rect x="0" y="0" width="820" height="820" fill="url(#g2)"/>
<circle cx="410.0" cy="410.0" r="230" fill="url(#glow)"/>
<line x1="410.0" y1="410.0" x2="514.9" y2="404.6" stroke="#58a6ff" stroke-width="2.60" opacity="1.00" stroke-linecap="round"/>
<line x1="514.9" y1="404.6" x2="570.1" y2="368.3" stroke="#4f9ee0" stroke-width="2.25" opacity="0.90" stroke-linecap="round"/>
<line x1="570.1" y1="368.3" x2="592.8" y2="329.6" stroke="#3fb950" stroke-width="1.90" opacity="0.80" stroke-linecap="round"/>
<line x1="592.8" y1="329.6" x2="593.9" y2="300.6" stroke="#7bc96f" stroke-width="1.55" opacity="0.70" stroke-linecap="round"/>
<line x1="593.9" y1="300.6" x2="599.9" y2="282.0" stroke="#d29922" stroke-width="1.20" opacity="0.60" stroke-linecap="round"/>
<line x1="592.8" y1="329.6" x2="616.2" y2="314.4" stroke="#7bc96f" stroke-width="1.55" opacity="0.70" stroke-linecap="round"/>
<line x1="616.2" y1="314.4" x2="627.1" y2="297.6" stroke="#d29922" stroke-width="1.20" opacity="0.60" stroke-linecap="round"/>
<line x1="616.2" y1="314.4" x2="634.1" y2="311.1" stroke="#d29922" stroke-width="1.20" opacity="0.60" stroke-linecap="round"/>
<line x1="570.1" y1="368.3" x2="617.1" y2="362.1" stroke="#3fb950" stroke-width="1.90" opacity="0.80" stroke-linecap="round"/>
<line x1="617.1" y1="362.1" x2="643.1" y2="344.2" stroke="#7bc96f" stroke-width="1.55" opacity="0.70" stroke-linecap="round"/>
<line x1="643.1" y1="344.2" x2="662.0" y2="334.2" stroke="#d29922" stroke-width="1.20" opacity="0.60" stroke-linecap="round"/>
<line x1="617.1" y1="362.1" x2="645.6" y2="369.5" stroke="#7bc96f" stroke-width="1.55" opacity="0.70" stroke-linecap="round"/>
<line x1="645.6" y1="369.5" x2="664.7" y2="361.1" stroke="#d29922" stroke-width="1.20" opacity="0.60" stroke-linecap="round"/>
<line x1="645.6" y1="369.5" x2="659.5" y2="385.7" stroke="#d29922" stroke-width="1.20" opacity="0.60" stroke-linecap="round"/>
<line x1="514.9" y1="404.6" x2="580.5" y2="436.2" stroke="#4f9ee0" stroke-width="2.25" opacity="0.90" stroke-linecap="round"/>
<line x1="580.5" y1="436.2" x2="627.5" y2="432.7" stroke="#3fb950" stroke-width="1.90" opacity="0.80" stroke-linecap="round"/>
<line x1="627.5" y1="432.7" x2="655.1" y2="417.2" stroke="#7bc96f" stroke-width="1.55" opacity="0.70" stroke-linecap="round"/>
<line x1="655.1" y1="417.2" x2="670.6" y2="402.2" stroke="#d29922" stroke-width="1.20" opacity="0.60" stroke-linecap="round"/>
<line x1="627.5" y1="432.7" x2="657.0" y2="446.4" stroke="#7bc96f" stroke-width="1.55" opacity="0.70" stroke-linecap="round"/>
<line x1="657.0" y1="446.4" x2="676.8" y2="452.2" stroke="#d29922" stroke-width="1.20" opacity="0.60" stroke-linecap="round"/>
<line x1="580.5" y1="436.2" x2="607.9" y2="475.1" stroke="#3fb950" stroke-width="1.90" opacity="0.80" stroke-linecap="round"/>
<line x1="607.9" y1="475.1" x2="638.2" y2="484.9" stroke="#7bc96f" stroke-width="1.55" opacity="0.70" stroke-linecap="round"/>
<line x1="638.2" y1="484.9" x2="657.6" y2="479.2" stroke="#d29922" stroke-width="1.20" opacity="0.60" stroke-linecap="round"/>
<line x1="638.2" y1="484.9" x2="650.7" y2="501.0" stroke="#d29922" stroke-width="1.20" opacity="0.60" stroke-linecap="round"/>
<line x1="607.9" y1="475.1" x2="608.3" y2="508.4" stroke="#7bc96f" stroke-width="1.55" opacity="0.70" stroke-linecap="round"/>
<line x1="608.3" y1="508.4" x2="618.5" y2="528.4" stroke="#d29922" stroke-width="1.20" opacity="0.60" stroke-linecap="round"/>
<line x1="608.3" y1="508.4" x2="599.6" y2="528.8" stroke="#d29922" stroke-width="1.20" opacity="0.60" stroke-linecap="round"/>
<line x1="410.0" y1="410.0" x2="457.5" y2="503.7" stroke="#58a6ff" stroke-width="2.60" opacity="1.00" stroke-linecap="round"/>
<line x1="457.5" y1="503.7" x2="524.4" y2="534.7" stroke="#4f9ee0" stroke-width="2.25" opacity="0.90" stroke-linecap="round"/>
<line x1="524.4" y1="534.7" x2="575.8" y2="527.8" stroke="#3fb950" stroke-width="1.90" opacity="0.80" stroke-linecap="round"/>
<line x1="575.8" y1="527.8" x2="598.1" y2="504.0" stroke="#7bc96f" stroke-width="1.55" opacity="0.70" stroke-linecap="round"/>
<line x1="598.1" y1="504.0" x2="603.1" y2="483.4" stroke="#d29922" stroke-width="1.20" opacity="0.60" stroke-linecap="round"/>
<line x1="598.1" y1="504.0" x2="618.4" y2="496.7" stroke="#d29922" stroke-width="1.20" opacity="0.60" stroke-linecap="round"/>
<line x1="575.8" y1="527.8" x2="603.3" y2="546.5" stroke="#7bc96f" stroke-width="1.55" opacity="0.70" stroke-linecap="round"/>
<line x1="603.3" y1="546.5" x2="626.3" y2="551.6" stroke="#d29922" stroke-width="1.20" opacity="0.60" stroke-linecap="round"/>
<line x1="603.3" y1="546.5" x2="614.9" y2="567.0" stroke="#d29922" stroke-width="1.20" opacity="0.60" stroke-linecap="round"/>
<line x1="524.4" y1="534.7" x2="553.0" y2="575.5" stroke="#3fb950" stroke-width="1.90" opacity="0.80" stroke-linecap="round"/>
<line x1="553.0" y1="575.5" x2="582.1" y2="589.2" stroke="#7bc96f" stroke-width="1.55" opacity="0.70" stroke-linecap="round"/>
<line x1="582.1" y1="589.2" x2="602.8" y2="585.7" stroke="#d29922" stroke-width="1.20" opacity="0.60" stroke-linecap="round"/>
<line x1="582.1" y1="589.2" x2="591.0" y2="608.3" stroke="#d29922" stroke-width="1.20" opacity="0.60" stroke-linecap="round"/>
<line x1="553.0" y1="575.5" x2="554.1" y2="607.2" stroke="#7bc96f" stroke-width="1.55" opacity="0.70" stroke-linecap="round"/>
<line x1="554.1" y1="607.2" x2="567.8" y2="624.4" stroke="#d29922" stroke-width="1.20" opacity="0.60" stroke-linecap="round"/>
<line x1="554.1" y1="607.2" x2="543.9" y2="625.2" stroke="#d29922" stroke-width="1.20" opacity="0.60" stroke-linecap="round"/>
<line x1="457.5" y1="503.7" x2="441.0" y2="572.0" stroke="#4f9ee0" stroke-width="2.25" opacity="0.90" stroke-linecap="round"/>
<line x1="441.0" y1="572.0" x2="463.4" y2="611.5" stroke="#3fb950" stroke-width="1.90" opacity="0.80" stroke-linecap="round"/>
<line x1="463.4" y1="611.5" x2="490.9" y2="622.3" stroke="#7bc96f" stroke-width="1.55" opacity="0.70" stroke-linecap="round"/>
<line x1="490.9" y1="622.3" x2="505.8" y2="633.7" stroke="#d29922" stroke-width="1.20" opacity="0.60" stroke-linecap="round"/>
<line x1="463.4" y1="611.5" x2="456.9" y2="642.5" stroke="#7bc96f" stroke-width="1.55" opacity="0.70" stroke-linecap="round"/>
<line x1="456.9" y1="642.5" x2="451.1" y2="662.9" stroke="#d29922" stroke-width="1.20" opacity="0.60" stroke-linecap="round"/>
<line x1="441.0" y1="572.0" x2="401.7" y2="601.6" stroke="#3fb950" stroke-width="1.90" opacity="0.80" stroke-linecap="round"/>
<line x1="401.7" y1="601.6" x2="388.4" y2="629.4" stroke="#7bc96f" stroke-width="1.55" opacity="0.70" stroke-linecap="round"/>
<line x1="388.4" y1="629.4" x2="394.4" y2="648.7" stroke="#d29922" stroke-width="1.20" opacity="0.60" stroke-linecap="round"/>
<line x1="388.4" y1="629.4" x2="370.6" y2="637.6" stroke="#d29922" stroke-width="1.20" opacity="0.60" stroke-linecap="round"/>
<line x1="401.7" y1="601.6" x2="371.2" y2="607.1" stroke="#7bc96f" stroke-width="1.55" opacity="0.70" stroke-linecap="round"/>
<line x1="371.2" y1="607.1" x2="355.1" y2="618.5" stroke="#d29922" stroke-width="1.20" opacity="0.60" stroke-linecap="round"/>
<line x1="371.2" y1="607.1" x2="350.2" y2="600.5" stroke="#d29922" stroke-width="1.20" opacity="0.60" stroke-linecap="round"/>
<line x1="410.0" y1="410.0" x2="359.8" y2="502.2" stroke="#58a6ff" stroke-width="2.60" opacity="1.00" stroke-linecap="round"/>
<line x1="359.8" y1="502.2" x2="358.6" y2="568.9" stroke="#4f9ee0" stroke-width="2.25" opacity="0.90" stroke-linecap="round"/>
<line x1="358.6" y1="568.9" x2="381.3" y2="607.0" stroke="#3fb950" stroke-width="1.90" opacity="0.80" stroke-linecap="round"/>
<line x1="381.3" y1="607.0" x2="407.7" y2="619.3" stroke="#7bc96f" stroke-width="1.55" opacity="0.70" stroke-linecap="round"/>
<line x1="407.7" y1="619.3" x2="424.1" y2="630.6" stroke="#d29922" stroke-width="1.20" opacity="0.60" stroke-linecap="round"/>
<line x1="381.3" y1="607.0" x2="381.5" y2="638.1" stroke="#7bc96f" stroke-width="1.55" opacity="0.70" stroke-linecap="round"/>
<line x1="381.5" y1="638.1" x2="392.4" y2="654.8" stroke="#d29922" stroke-width="1.20" opacity="0.60" stroke-linecap="round"/>
<line x1="381.5" y1="638.1" x2="369.4" y2="656.6" stroke="#d29922" stroke-width="1.20" opacity="0.60" stroke-linecap="round"/>
<line x1="358.6" y1="568.9" x2="337.2" y2="610.8" stroke="#3fb950" stroke-width="1.90" opacity="0.80" stroke-linecap="round"/>
<line x1="337.2" y1="610.8" x2="338.2" y2="640.2" stroke="#7bc96f" stroke-width="1.55" opacity="0.70" stroke-linecap="round"/>
<line x1="338.2" y1="640.2" x2="352.5" y2="655.3" stroke="#d29922" stroke-width="1.20" opacity="0.60" stroke-linecap="round"/>
<line x1="338.2" y1="640.2" x2="326.1" y2="654.6" stroke="#d29922" stroke-width="1.20" opacity="0.60" stroke-linecap="round"/>
<line x1="337.2" y1="610.8" x2="309.5" y2="628.3" stroke="#7bc96f" stroke-width="1.55" opacity="0.70" stroke-linecap="round"/>
<line x1="309.5" y1="628.3" x2="290.6" y2="641.5" stroke="#d29922" stroke-width="1.20" opacity="0.60" stroke-linecap="round"/>
<line x1="359.8" y1="502.2" x2="306.7" y2="543.2" stroke="#4f9ee0" stroke-width="2.25" opacity="0.90" stroke-linecap="round"/>
<line x1="306.7" y1="543.2" x2="284.2" y2="579.4" stroke="#3fb950" stroke-width="1.90" opacity="0.80" stroke-linecap="round"/>
<line x1="284.2" y1="579.4" x2="283.6" y2="606.4" stroke="#7bc96f" stroke-width="1.55" opacity="0.70" stroke-linecap="round"/>
<line x1="283.6" y1="606.4" x2="292.6" y2="621.0" stroke="#d29922" stroke-width="1.20" opacity="0.60" stroke-linecap="round"/>
<line x1="283.6" y1="606.4" x2="274.8" y2="621.5" stroke="#d29922" stroke-width="1.20" opacity="0.60" stroke-linecap="round"/>
<line x1="284.2" y1="579.4" x2="258.5" y2="592.1" stroke="#7bc96f" stroke-width="1.55" opacity="0.70" stroke-linecap="round"/>
<line x1="258.5" y1="592.1" x2="244.1" y2="603.5" stroke="#d29922" stroke-width="1.20" opacity="0.60" stroke-linecap="round"/>
<line x1="306.7" y1="543.2" x2="264.8" y2="552.6" stroke="#3fb950" stroke-width="1.90" opacity="0.80" stroke-linecap="round"/>
<line x1="264.8" y1="552.6" x2="245.2" y2="573.5" stroke="#7bc96f" stroke-width="1.55" opacity="0.70" stroke-linecap="round"/>
<line x1="245.2" y1="573.5" x2="233.7" y2="588.2" stroke="#d29922" stroke-width="1.20" opacity="0.60" stroke-linecap="round"/>
<line x1="264.8" y1="552.6" x2="238.3" y2="542.9" stroke="#7bc96f" stroke-width="1.55" opacity="0.70" stroke-linecap="round"/>
<line x1="238.3" y1="542.9" x2="218.9" y2="547.5" stroke="#d29922" stroke-width="1.20" opacity="0.60" stroke-linecap="round"/>
<line x1="238.3" y1="542.9" x2="228.6" y2="527.6" stroke="#d29922" stroke-width="1.20" opacity="0.60" stroke-linecap="round"/>
<line x1="410.0" y1="410.0" x2="305.1" y2="406.1" stroke="#58a6ff" stroke-width="2.60" opacity="1.00" stroke-linecap="round"/>
<line x1="305.1" y1="406.1" x2="241.2" y2="445.9" stroke="#4f9ee0" stroke-width="2.25" opacity="0.90" stroke-linecap="round"/>
<line x1="241.2" y1="445.9" x2="224.0" y2="491.5" stroke="#3fb950" stroke-width="1.90" opacity="0.80" stroke-linecap="round"/>
<line x1="224.0" y1="491.5" x2="232.4" y2="524.6" stroke="#7bc96f" stroke-width="1.55" opacity="0.70" stroke-linecap="round"/>
<line x1="232.4" y1="524.6" x2="234.0" y2="546.9" stroke="#d29922" stroke-width="1.20" opacity="0.60" stroke-linecap="round"/>
<line x1="224.0" y1="491.5" x2="197.1" y2="509.7" stroke="#7bc96f" stroke-width="1.55" opacity="0.70" stroke-linecap="round"/>
<line x1="197.1" y1="509.7" x2="175.9" y2="515.4" stroke="#d29922" stroke-width="1.20" opacity="0.60" stroke-linecap="round"/>
<line x1="241.2" y1="445.9" x2="187.2" y2="443.6" stroke="#3fb950" stroke-width="1.90" opacity="0.80" stroke-linecap="round"/>
<line x1="187.2" y1="443.6" x2="156.4" y2="463.3" stroke="#7bc96f" stroke-width="1.55" opacity="0.70" stroke-linecap="round"/>
<line x1="156.4" y1="463.3" x2="137.6" y2="476.0" stroke="#d29922" stroke-width="1.20" opacity="0.60" stroke-linecap="round"/>
<line x1="187.2" y1="443.6" x2="157.6" y2="422.4" stroke="#7bc96f" stroke-width="1.55" opacity="0.70" stroke-linecap="round"/>
<line x1="157.6" y1="422.4" x2="134.9" y2="413.7" stroke="#d29922" stroke-width="1.20" opacity="0.60" stroke-linecap="round"/>
<line x1="305.1" y1="406.1" x2="250.1" y2="357.4" stroke="#4f9ee0" stroke-width="2.25" opacity="0.90" stroke-linecap="round"/>
<line x1="250.1" y1="357.4" x2="206.6" y2="342.6" stroke="#3fb950" stroke-width="1.90" opacity="0.80" stroke-linecap="round"/>
<line x1="206.6" y1="342.6" x2="175.1" y2="351.6" stroke="#7bc96f" stroke-width="1.55" opacity="0.70" stroke-linecap="round"/>
<line x1="175.1" y1="351.6" x2="161.6" y2="367.3" stroke="#d29922" stroke-width="1.20" opacity="0.60" stroke-linecap="round"/>
<line x1="175.1" y1="351.6" x2="152.7" y2="345.1" stroke="#d29922" stroke-width="1.20" opacity="0.60" stroke-linecap="round"/>
<line x1="206.6" y1="342.6" x2="190.2" y2="318.6" stroke="#7bc96f" stroke-width="1.55" opacity="0.70" stroke-linecap="round"/>
<line x1="190.2" y1="318.6" x2="172.3" y2="312.4" stroke="#d29922" stroke-width="1.20" opacity="0.60" stroke-linecap="round"/>
<line x1="190.2" y1="318.6" x2="192.0" y2="300.2" stroke="#d29922" stroke-width="1.20" opacity="0.60" stroke-linecap="round"/>
<line x1="250.1" y1="357.4" x2="227.4" y2="312.5" stroke="#3fb950" stroke-width="1.90" opacity="0.80" stroke-linecap="round"/>
<line x1="227.4" y1="312.5" x2="198.0" y2="301.0" stroke="#7bc96f" stroke-width="1.55" opacity="0.70" stroke-linecap="round"/>
<line x1="198.0" y1="301.0" x2="177.3" y2="308.2" stroke="#d29922" stroke-width="1.20" opacity="0.60" stroke-linecap="round"/>
<line x1="198.0" y1="301.0" x2="187.1" y2="283.6" stroke="#d29922" stroke-width="1.20" opacity="0.60" stroke-linecap="round"/>
<line x1="227.4" y1="312.5" x2="235.6" y2="279.5" stroke="#7bc96f" stroke-width="1.55" opacity="0.70" stroke-linecap="round"/>
<line x1="235.6" y1="279.5" x2="245.9" y2="260.9" stroke="#d29922" stroke-width="1.20" opacity="0.60" stroke-linecap="round"/>
<line x1="410.0" y1="410.0" x2="359.6" y2="317.9" stroke="#58a6ff" stroke-width="2.60" opacity="1.00" stroke-linecap="round"/>
<line x1="359.6" y1="317.9" x2="305.8" y2="276.6" stroke="#4f9ee0" stroke-width="2.25" opacity="0.90" stroke-linecap="round"/>
<line x1="305.8" y1="276.6" x2="261.9" y2="272.5" stroke="#3fb950" stroke-width="1.90" opacity="0.80" stroke-linecap="round"/>
<line x1="261.9" y1="272.5" x2="238.8" y2="288.1" stroke="#7bc96f" stroke-width="1.55" opacity="0.70" stroke-linecap="round"/>
<line x1="238.8" y1="288.1" x2="222.0" y2="294.4" stroke="#d29922" stroke-width="1.20" opacity="0.60" stroke-linecap="round"/>
<line x1="261.9" y1="272.5" x2="239.8" y2="251.3" stroke="#7bc96f" stroke-width="1.55" opacity="0.70" stroke-linecap="round"/>
<line x1="239.8" y1="251.3" x2="221.5" y2="239.4" stroke="#d29922" stroke-width="1.20" opacity="0.60" stroke-linecap="round"/>
<line x1="305.8" y1="276.6" x2="287.1" y2="234.5" stroke="#3fb950" stroke-width="1.90" opacity="0.80" stroke-linecap="round"/>
<line x1="287.1" y1="234.5" x2="265.4" y2="215.5" stroke="#7bc96f" stroke-width="1.55" opacity="0.70" stroke-linecap="round"/>
<line x1="265.4" y1="215.5" x2="247.7" y2="205.0" stroke="#d29922" stroke-width="1.20" opacity="0.60" stroke-linecap="round"/>
<line x1="287.1" y1="234.5" x2="286.3" y2="204.1" stroke="#7bc96f" stroke-width="1.55" opacity="0.70" stroke-linecap="round"/>
<line x1="286.3" y1="204.1" x2="292.6" y2="185.0" stroke="#d29922" stroke-width="1.20" opacity="0.60" stroke-linecap="round"/>
<line x1="359.6" y1="317.9" x2="354.7" y2="246.7" stroke="#4f9ee0" stroke-width="2.25" opacity="0.90" stroke-linecap="round"/>
<line x1="354.7" y1="246.7" x2="331.3" y2="203.5" stroke="#3fb950" stroke-width="1.90" opacity="0.80" stroke-linecap="round"/>
<line x1="331.3" y1="203.5" x2="302.6" y2="183.1" stroke="#7bc96f" stroke-width="1.55" opacity="0.70" stroke-linecap="round"/>
<line x1="302.6" y1="183.1" x2="280.3" y2="184.4" stroke="#d29922" stroke-width="1.20" opacity="0.60" stroke-linecap="round"/>
<line x1="302.6" y1="183.1" x2="296.5" y2="158.6" stroke="#d29922" stroke-width="1.20" opacity="0.60" stroke-linecap="round"/>
<line x1="331.3" y1="203.5" x2="328.1" y2="172.3" stroke="#7bc96f" stroke-width="1.55" opacity="0.70" stroke-linecap="round"/>
<line x1="328.1" y1="172.3" x2="319.1" y2="151.6" stroke="#d29922" stroke-width="1.20" opacity="0.60" stroke-linecap="round"/>
<line x1="354.7" y1="246.7" x2="373.7" y2="204.3" stroke="#3fb950" stroke-width="1.90" opacity="0.80" stroke-linecap="round"/>
<line x1="373.7" y1="204.3" x2="368.6" y2="171.5" stroke="#7bc96f" stroke-width="1.55" opacity="0.70" stroke-linecap="round"/>
<line x1="368.6" y1="171.5" x2="354.7" y2="153.5" stroke="#d29922" stroke-width="1.20" opacity="0.60" stroke-linecap="round"/>
<line x1="368.6" y1="171.5" x2="373.9" y2="151.0" stroke="#d29922" stroke-width="1.20" opacity="0.60" stroke-linecap="round"/>
<line x1="373.7" y1="204.3" x2="400.7" y2="186.2" stroke="#7bc96f" stroke-width="1.55" opacity="0.70" stroke-linecap="round"/>
<line x1="400.7" y1="186.2" x2="410.1" y2="167.6" stroke="#d29922" stroke-width="1.20" opacity="0.60" stroke-linecap="round"/>
<line x1="400.7" y1="186.2" x2="421.0" y2="186.3" stroke="#d29922" stroke-width="1.20" opacity="0.60" stroke-linecap="round"/>
<line x1="410.0" y1="410.0" x2="458.2" y2="316.7" stroke="#58a6ff" stroke-width="2.60" opacity="1.00" stroke-linecap="round"/>
<line x1="458.2" y1="316.7" x2="445.7" y2="247.9" stroke="#4f9ee0" stroke-width="2.25" opacity="0.90" stroke-linecap="round"/>
<line x1="445.7" y1="247.9" x2="411.5" y2="213.9" stroke="#3fb950" stroke-width="1.90" opacity="0.80" stroke-linecap="round"/>
<line x1="411.5" y1="213.9" x2="381.3" y2="209.3" stroke="#7bc96f" stroke-width="1.55" opacity="0.70" stroke-linecap="round"/>
<line x1="381.3" y1="209.3" x2="361.6" y2="207.8" stroke="#d29922" stroke-width="1.20" opacity="0.60" stroke-linecap="round"/>
<line x1="411.5" y1="213.9" x2="403.0" y2="184.0" stroke="#7bc96f" stroke-width="1.55" opacity="0.70" stroke-linecap="round"/>
<line x1="403.0" y1="184.0" x2="387.4" y2="168.7" stroke="#d29922" stroke-width="1.20" opacity="0.60" stroke-linecap="round"/>
<line x1="403.0" y1="184.0" x2="406.8" y2="164.1" stroke="#d29922" stroke-width="1.20" opacity="0.60" stroke-linecap="round"/>
<line x1="445.7" y1="247.9" x2="460.1" y2="205.0" stroke="#3fb950" stroke-width="1.90" opacity="0.80" stroke-linecap="round"/>
<line x1="460.1" y1="205.0" x2="450.8" y2="177.0" stroke="#7bc96f" stroke-width="1.55" opacity="0.70" stroke-linecap="round"/>
<line x1="450.8" y1="177.0" x2="436.6" y2="161.8" stroke="#d29922" stroke-width="1.20" opacity="0.60" stroke-linecap="round"/>
<line x1="450.8" y1="177.0" x2="454.3" y2="156.1" stroke="#d29922" stroke-width="1.20" opacity="0.60" stroke-linecap="round"/>
<line x1="460.1" y1="205.0" x2="481.9" y2="185.8" stroke="#7bc96f" stroke-width="1.55" opacity="0.70" stroke-linecap="round"/>
<line x1="481.9" y1="185.8" x2="487.7" y2="168.0" stroke="#d29922" stroke-width="1.20" opacity="0.60" stroke-linecap="round"/>
<line x1="481.9" y1="185.8" x2="499.6" y2="181.9" stroke="#d29922" stroke-width="1.20" opacity="0.60" stroke-linecap="round"/>
<line x1="458.2" y1="316.7" x2="529.5" y2="292.6" stroke="#4f9ee0" stroke-width="2.25" opacity="0.90" stroke-linecap="round"/>
<line x1="529.5" y1="292.6" x2="556.3" y2="249.0" stroke="#3fb950" stroke-width="1.90" opacity="0.80" stroke-linecap="round"/>
<line x1="556.3" y1="249.0" x2="560.5" y2="214.2" stroke="#7bc96f" stroke-width="1.55" opacity="0.70" stroke-linecap="round"/>
<line x1="560.5" y1="214.2" x2="553.5" y2="192.8" stroke="#d29922" stroke-width="1.20" opacity="0.60" stroke-linecap="round"/>
<line x1="560.5" y1="214.2" x2="574.3" y2="195.4" stroke="#d29922" stroke-width="1.20" opacity="0.60" stroke-linecap="round"/>
<line x1="556.3" y1="249.0" x2="586.4" y2="230.3" stroke="#7bc96f" stroke-width="1.55" opacity="0.70" stroke-linecap="round"/>
<line x1="586.4" y1="230.3" x2="607.8" y2="216.6" stroke="#d29922" stroke-width="1.20" opacity="0.60" stroke-linecap="round"/>
<line x1="529.5" y1="292.6" x2="576.4" y2="307.1" stroke="#3fb950" stroke-width="1.90" opacity="0.80" stroke-linecap="round"/>
<line x1="576.4" y1="307.1" x2="609.6" y2="297.7" stroke="#7bc96f" stroke-width="1.55" opacity="0.70" stroke-linecap="round"/>
<line x1="609.6" y1="297.7" x2="633.9" y2="299.0" stroke="#d29922" stroke-width="1.20" opacity="0.60" stroke-linecap="round"/>
<line x1="576.4" y1="307.1" x2="598.6" y2="329.1" stroke="#7bc96f" stroke-width="1.55" opacity="0.70" stroke-linecap="round"/>
<line x1="598.6" y1="329.1" x2="611.8" y2="344.3" stroke="#d29922" stroke-width="1.20" opacity="0.60" stroke-linecap="round"/>
<circle cx="514.9" cy="404.6" r="2.60" fill="#58a6ff" opacity="0.85"/>
<circle cx="570.1" cy="368.3" r="2.30" fill="#4f9ee0" opacity="0.85"/>
<circle cx="592.8" cy="329.6" r="2.00" fill="#3fb950" opacity="0.85"/>
<circle cx="593.9" cy="300.6" r="1.70" fill="#7bc96f" opacity="0.85"/>
<circle cx="616.2" cy="314.4" r="1.70" fill="#7bc96f" opacity="0.85"/>
<circle cx="617.1" cy="362.1" r="2.00" fill="#3fb950" opacity="0.85"/>
<circle cx="643.1" cy="344.2" r="1.70" fill="#7bc96f" opacity="0.85"/>
<circle cx="645.6" cy="369.5" r="1.70" fill="#7bc96f" opacity="0.85"/>
<circle cx="580.5" cy="436.2" r="2.30" fill="#4f9ee0" opacity="0.85"/>
<circle cx="627.5" cy="432.7" r="2.00" fill="#3fb950" opacity="0.85"/>
<circle cx="655.1" cy="417.2" r="1.70" fill="#7bc96f" opacity="0.85"/>
<circle cx="657.0" cy="446.4" r="1.70" fill="#7bc96f" opacity="0.85"/>
<circle cx="607.9" cy="475.1" r="2.00" fill="#3fb950" opacity="0.85"/>
<circle cx="638.2" cy="484.9" r="1.70" fill="#7bc96f" opacity="0.85"/>
<circle cx="608.3" cy="508.4" r="1.70" fill="#7bc96f" opacity="0.85"/>
<circle cx="457.5" cy="503.7" r="2.60" fill="#58a6ff" opacity="0.85"/>
<circle cx="524.4" cy="534.7" r="2.30" fill="#4f9ee0" opacity="0.85"/>
<circle cx="575.8" cy="527.8" r="2.00" fill="#3fb950" opacity="0.85"/>
<circle cx="598.1" cy="504.0" r="1.70" fill="#7bc96f" opacity="0.85"/>
<circle cx="603.3" cy="546.5" r="1.70" fill="#7bc96f" opacity="0.85"/>
<circle cx="553.0" cy="575.5" r="2.00" fill="#3fb950" opacity="0.85"/>
<circle cx="582.1" cy="589.2" r="1.70" fill="#7bc96f" opacity="0.85"/>
<circle cx="554.1" cy="607.2" r="1.70" fill="#7bc96f" opacity="0.85"/>
<circle cx="441.0" cy="572.0" r="2.30" fill="#4f9ee0" opacity="0.85"/>
<circle cx="463.4" cy="611.5" r="2.00" fill="#3fb950" opacity="0.85"/>
<circle cx="490.9" cy="622.3" r="1.70" fill="#7bc96f" opacity="0.85"/>
<circle cx="456.9" cy="642.5" r="1.70" fill="#7bc96f" opacity="0.85"/>
<circle cx="401.7" cy="601.6" r="2.00" fill="#3fb950" opacity="0.85"/>
<circle cx="388.4" cy="629.4" r="1.70" fill="#7bc96f" opacity="0.85"/>
<circle cx="371.2" cy="607.1" r="1.70" fill="#7bc96f" opacity="0.85"/>
<circle cx="359.8" cy="502.2" r="2.60" fill="#58a6ff" opacity="0.85"/>
<circle cx="358.6" cy="568.9" r="2.30" fill="#4f9ee0" opacity="0.85"/>
<circle cx="381.3" cy="607.0" r="2.00" fill="#3fb950" opacity="0.85"/>
<circle cx="407.7" cy="619.3" r="1.70" fill="#7bc96f" opacity="0.85"/>
<circle cx="381.5" cy="638.1" r="1.70" fill="#7bc96f" opacity="0.85"/>
<circle cx="337.2" cy="610.8" r="2.00" fill="#3fb950" opacity="0.85"/>
<circle cx="338.2" cy="640.2" r="1.70" fill="#7bc96f" opacity="0.85"/>
<circle cx="309.5" cy="628.3" r="1.70" fill="#7bc96f" opacity="0.85"/>
<circle cx="306.7" cy="543.2" r="2.30" fill="#4f9ee0" opacity="0.85"/>
<circle cx="284.2" cy="579.4" r="2.00" fill="#3fb950" opacity="0.85"/>
<circle cx="283.6" cy="606.4" r="1.70" fill="#7bc96f" opacity="0.85"/>
<circle cx="258.5" cy="592.1" r="1.70" fill="#7bc96f" opacity="0.85"/>
<circle cx="264.8" cy="552.6" r="2.00" fill="#3fb950" opacity="0.85"/>
<circle cx="245.2" cy="573.5" r="1.70" fill="#7bc96f" opacity="0.85"/>
<circle cx="238.3" cy="542.9" r="1.70" fill="#7bc96f" opacity="0.85"/>
<circle cx="305.1" cy="406.1" r="2.60" fill="#58a6ff" opacity="0.85"/>
<circle cx="241.2" cy="445.9" r="2.30" fill="#4f9ee0" opacity="0.85"/>
<circle cx="224.0" cy="491.5" r="2.00" fill="#3fb950" opacity="0.85"/>
<circle cx="232.4" cy="524.6" r="1.70" fill="#7bc96f" opacity="0.85"/>
<circle cx="197.1" cy="509.7" r="1.70" fill="#7bc96f" opacity="0.85"/>
<circle cx="187.2" cy="443.6" r="2.00" fill="#3fb950" opacity="0.85"/>
<circle cx="156.4" cy="463.3" r="1.70" fill="#7bc96f" opacity="0.85"/>
<circle cx="157.6" cy="422.4" r="1.70" fill="#7bc96f" opacity="0.85"/>
<circle cx="250.1" cy="357.4" r="2.30" fill="#4f9ee0" opacity="0.85"/>
<circle cx="206.6" cy="342.6" r="2.00" fill="#3fb950" opacity="0.85"/>
<circle cx="175.1" cy="351.6" r="1.70" fill="#7bc96f" opacity="0.85"/>
<circle cx="190.2" cy="318.6" r="1.70" fill="#7bc96f" opacity="0.85"/>
<circle cx="227.4" cy="312.5" r="2.00" fill="#3fb950" opacity="0.85"/>
<circle cx="198.0" cy="301.0" r="1.70" fill="#7bc96f" opacity="0.85"/>
<circle cx="235.6" cy="279.5" r="1.70" fill="#7bc96f" opacity="0.85"/>
<circle cx="359.6" cy="317.9" r="2.60" fill="#58a6ff" opacity="0.85"/>
<circle cx="305.8" cy="276.6" r="2.30" fill="#4f9ee0" opacity="0.85"/>
<circle cx="261.9" cy="272.5" r="2.00" fill="#3fb950" opacity="0.85"/>
<circle cx="238.8" cy="288.1" r="1.70" fill="#7bc96f" opacity="0.85"/>
<circle cx="239.8" cy="251.3" r="1.70" fill="#7bc96f" opacity="0.85"/>
<circle cx="287.1" cy="234.5" r="2.00" fill="#3fb950" opacity="0.85"/>
<circle cx="265.4" cy="215.5" r="1.70" fill="#7bc96f" opacity="0.85"/>
<circle cx="286.3" cy="204.1" r="1.70" fill="#7bc96f" opacity="0.85"/>
<circle cx="354.7" cy="246.7" r="2.30" fill="#4f9ee0" opacity="0.85"/>
<circle cx="331.3" cy="203.5" r="2.00" fill="#3fb950" opacity="0.85"/>
<circle cx="302.6" cy="183.1" r="1.70" fill="#7bc96f" opacity="0.85"/>
<circle cx="328.1" cy="172.3" r="1.70" fill="#7bc96f" opacity="0.85"/>
<circle cx="373.7" cy="204.3" r="2.00" fill="#3fb950" opacity="0.85"/>
<circle cx="368.6" cy="171.5" r="1.70" fill="#7bc96f" opacity="0.85"/>
<circle cx="400.7" cy="186.2" r="1.70" fill="#7bc96f" opacity="0.85"/>
<circle cx="458.2" cy="316.7" r="2.60" fill="#58a6ff" opacity="0.85"/>
<circle cx="445.7" cy="247.9" r="2.30" fill="#4f9ee0" opacity="0.85"/>
<circle cx="411.5" cy="213.9" r="2.00" fill="#3fb950" opacity="0.85"/>
<circle cx="381.3" cy="209.3" r="1.70" fill="#7bc96f" opacity="0.85"/>
<circle cx="403.0" cy="184.0" r="1.70" fill="#7bc96f" opacity="0.85"/>
<circle cx="460.1" cy="205.0" r="2.00" fill="#3fb950" opacity="0.85"/>
<circle cx="450.8" cy="177.0" r="1.70" fill="#7bc96f" opacity="0.85"/>
<circle cx="481.9" cy="185.8" r="1.70" fill="#7bc96f" opacity="0.85"/>
<circle cx="529.5" cy="292.6" r="2.30" fill="#4f9ee0" opacity="0.85"/>
<circle cx="556.3" cy="249.0" r="2.00" fill="#3fb950" opacity="0.85"/>
<circle cx="560.5" cy="214.2" r="1.70" fill="#7bc96f" opacity="0.85"/>
<circle cx="586.4" cy="230.3" r="1.70" fill="#7bc96f" opacity="0.85"/>
<circle cx="576.4" cy="307.1" r="2.00" fill="#3fb950" opacity="0.85"/>
<circle cx="609.6" cy="297.7" r="1.70" fill="#7bc96f" opacity="0.85"/>
<circle cx="598.6" cy="329.1" r="1.70" fill="#7bc96f" opacity="0.85"/>
<circle cx="599.9" cy="282.0" r="3" fill="none" stroke="#d29922" stroke-width="1" opacity="0.6"/>
<circle cx="627.1" cy="297.6" r="3" fill="none" stroke="#d29922" stroke-width="1" opacity="0.6"/>
<circle cx="634.1" cy="311.1" r="3" fill="none" stroke="#d29922" stroke-width="1" opacity="0.6"/>
<circle cx="662.0" cy="334.2" r="3" fill="none" stroke="#d29922" stroke-width="1" opacity="0.6"/>
<circle cx="664.7" cy="361.1" r="3" fill="none" stroke="#d29922" stroke-width="1" opacity="0.6"/>
<circle cx="659.5" cy="385.7" r="3" fill="none" stroke="#d29922" stroke-width="1" opacity="0.6"/>
<circle cx="670.6" cy="402.2" r="3" fill="none" stroke="#d29922" stroke-width="1" opacity="0.6"/>
<circle cx="676.8" cy="452.2" r="3" fill="none" stroke="#d29922" stroke-width="1" opacity="0.6"/>
<circle cx="657.6" cy="479.2" r="3" fill="none" stroke="#d29922" stroke-width="1" opacity="0.6"/>
<circle cx="650.7" cy="501.0" r="3" fill="none" stroke="#d29922" stroke-width="1" opacity="0.6"/>
<circle cx="618.5" cy="528.4" r="3" fill="none" stroke="#d29922" stroke-width="1" opacity="0.6"/>
<circle cx="599.6" cy="528.8" r="3" fill="none" stroke="#d29922" stroke-width="1" opacity="0.6"/>
<circle cx="603.1" cy="483.4" r="3" fill="none" stroke="#d29922" stroke-width="1" opacity="0.6"/>
<circle cx="618.4" cy="496.7" r="3" fill="none" stroke="#d29922" stroke-width="1" opacity="0.6"/>
<circle cx="626.3" cy="551.6" r="3" fill="none" stroke="#d29922" stroke-width="1" opacity="0.6"/>
<circle cx="614.9" cy="567.0" r="3" fill="none" stroke="#d29922" stroke-width="1" opacity="0.6"/>
<circle cx="602.8" cy="585.7" r="3" fill="none" stroke="#d29922" stroke-width="1" opacity="0.6"/>
<circle cx="591.0" cy="608.3" r="3" fill="none" stroke="#d29922" stroke-width="1" opacity="0.6"/>
<circle cx="567.8" cy="624.4" r="3" fill="none" stroke="#d29922" stroke-width="1" opacity="0.6"/>
<circle cx="543.9" cy="625.2" r="3" fill="none" stroke="#d29922" stroke-width="1" opacity="0.6"/>
<circle cx="505.8" cy="633.7" r="3" fill="none" stroke="#d29922" stroke-width="1" opacity="0.6"/>
<circle cx="451.1" cy="662.9" r="3" fill="none" stroke="#d29922" stroke-width="1" opacity="0.6"/>
<circle cx="394.4" cy="648.7" r="3" fill="none" stroke="#d29922" stroke-width="1" opacity="0.6"/>
<circle cx="370.6" cy="637.6" r="3" fill="none" stroke="#d29922" stroke-width="1" opacity="0.6"/>
<circle cx="355.1" cy="618.5" r="3" fill="none" stroke="#d29922" stroke-width="1" opacity="0.6"/>
<circle cx="350.2" cy="600.5" r="3" fill="none" stroke="#d29922" stroke-width="1" opacity="0.6"/>
<circle cx="424.1" cy="630.6" r="3" fill="none" stroke="#d29922" stroke-width="1" opacity="0.6"/>
<circle cx="392.4" cy="654.8" r="3" fill="none" stroke="#d29922" stroke-width="1" opacity="0.6"/>
<circle cx="369.4" cy="656.6" r="3" fill="none" stroke="#d29922" stroke-width="1" opacity="0.6"/>
<circle cx="352.5" cy="655.3" r="3" fill="none" stroke="#d29922" stroke-width="1" opacity="0.6"/>
<circle cx="326.1" cy="654.6" r="3" fill="none" stroke="#d29922" stroke-width="1" opacity="0.6"/>
<circle cx="290.6" cy="641.5" r="3" fill="none" stroke="#d29922" stroke-width="1" opacity="0.6"/>
<circle cx="292.6" cy="621.0" r="3" fill="none" stroke="#d29922" stroke-width="1" opacity="0.6"/>
<circle cx="274.8" cy="621.5" r="3" fill="none" stroke="#d29922" stroke-width="1" opacity="0.6"/>
<circle cx="244.1" cy="603.5" r="3" fill="none" stroke="#d29922" stroke-width="1" opacity="0.6"/>
<circle cx="233.7" cy="588.2" r="3" fill="none" stroke="#d29922" stroke-width="1" opacity="0.6"/>
<circle cx="218.9" cy="547.5" r="3" fill="none" stroke="#d29922" stroke-width="1" opacity="0.6"/>
<circle cx="228.6" cy="527.6" r="3" fill="none" stroke="#d29922" stroke-width="1" opacity="0.6"/>
<circle cx="234.0" cy="546.9" r="3" fill="none" stroke="#d29922" stroke-width="1" opacity="0.6"/>
<circle cx="175.9" cy="515.4" r="3" fill="none" stroke="#d29922" stroke-width="1" opacity="0.6"/>
<circle cx="137.6" cy="476.0" r="3" fill="none" stroke="#d29922" stroke-width="1" opacity="0.6"/>
<circle cx="134.9" cy="413.7" r="3" fill="none" stroke="#d29922" stroke-width="1" opacity="0.6"/>
<circle cx="161.6" cy="367.3" r="3" fill="none" stroke="#d29922" stroke-width="1" opacity="0.6"/>
<circle cx="152.7" cy="345.1" r="3" fill="none" stroke="#d29922" stroke-width="1" opacity="0.6"/>
<circle cx="172.3" cy="312.4" r="3" fill="none" stroke="#d29922" stroke-width="1" opacity="0.6"/>
<circle cx="192.0" cy="300.2" r="3" fill="none" stroke="#d29922" stroke-width="1" opacity="0.6"/>
<circle cx="177.3" cy="308.2" r="3" fill="none" stroke="#d29922" stroke-width="1" opacity="0.6"/>
<circle cx="187.1" cy="283.6" r="3" fill="none" stroke="#d29922" stroke-width="1" opacity="0.6"/>
<circle cx="245.9" cy="260.9" r="3" fill="none" stroke="#d29922" stroke-width="1" opacity="0.6"/>
<circle cx="222.0" cy="294.4" r="3" fill="none" stroke="#d29922" stroke-width="1" opacity="0.6"/>
<circle cx="221.5" cy="239.4" r="3" fill="none" stroke="#d29922" stroke-width="1" opacity="0.6"/>
<circle cx="247.7" cy="205.0" r="3" fill="none" stroke="#d29922" stroke-width="1" opacity="0.6"/>
<circle cx="292.6" cy="185.0" r="3" fill="none" stroke="#d29922" stroke-width="1" opacity="0.6"/>
<circle cx="280.3" cy="184.4" r="3" fill="none" stroke="#d29922" stroke-width="1" opacity="0.6"/>
<circle cx="296.5" cy="158.6" r="3" fill="none" stroke="#d29922" stroke-width="1" opacity="0.6"/>
<circle cx="319.1" cy="151.6" r="3" fill="none" stroke="#d29922" stroke-width="1" opacity="0.6"/>
<circle cx="354.7" cy="153.5" r="3" fill="none" stroke="#d29922" stroke-width="1" opacity="0.6"/>
<circle cx="373.9" cy="151.0" r="3" fill="none" stroke="#d29922" stroke-width="1" opacity="0.6"/>
<circle cx="410.1" cy="167.6" r="3" fill="none" stroke="#d29922" stroke-width="1" opacity="0.6"/>
<circle cx="421.0" cy="186.3" r="3" fill="none" stroke="#d29922" stroke-width="1" opacity="0.6"/>
<circle cx="361.6" cy="207.8" r="3" fill="none" stroke="#d29922" stroke-width="1" opacity="0.6"/>
<circle cx="387.4" cy="168.7" r="3" fill="none" stroke="#d29922" stroke-width="1" opacity="0.6"/>
<circle cx="406.8" cy="164.1" r="3" fill="none" stroke="#d29922" stroke-width="1" opacity="0.6"/>
<circle cx="436.6" cy="161.8" r="3" fill="none" stroke="#d29922" stroke-width="1" opacity="0.6"/>
<circle cx="454.3" cy="156.1" r="3" fill="none" stroke="#d29922" stroke-width="1" opacity="0.6"/>
<circle cx="487.7" cy="168.0" r="3" fill="none" stroke="#d29922" stroke-width="1" opacity="0.6"/>
<circle cx="499.6" cy="181.9" r="3" fill="none" stroke="#d29922" stroke-width="1" opacity="0.6"/>
<circle cx="553.5" cy="192.8" r="3" fill="none" stroke="#d29922" stroke-width="1" opacity="0.6"/>
<circle cx="574.3" cy="195.4" r="3" fill="none" stroke="#d29922" stroke-width="1" opacity="0.6"/>
<circle cx="607.8" cy="216.6" r="3" fill="none" stroke="#d29922" stroke-width="1" opacity="0.6"/>
<circle cx="633.9" cy="299.0" r="3" fill="none" stroke="#d29922" stroke-width="1" opacity="0.6"/>
<circle cx="611.8" cy="344.3" r="3" fill="none" stroke="#d29922" stroke-width="1" opacity="0.6"/>
<circle cx="410.0" cy="410.0" r="10" fill="#0d1117" stroke="#58a6ff" stroke-width="2"/>
<circle cx="410.0" cy="410.0" r="4" fill="#58a6ff"/>
<circle r="2.4" fill="#7ee787"><animateMotion dur="3.62s" begin="0.3s" repeatCount="indefinite" path="M608.3,508.4 L618.5,528.4"/></circle>
<circle r="2.4" fill="#f2cc60"><animateMotion dur="2.51s" begin="1.13s" repeatCount="indefinite" path="M458.2,316.7 L445.7,247.9"/></circle>
<circle r="2.4" fill="#79c0ff"><animateMotion dur="3.86s" begin="0.43s" repeatCount="indefinite" path="M514.9,404.6 L580.5,436.2"/></circle>
<circle r="2.4" fill="#7ee787"><animateMotion dur="2.35s" begin="0.74s" repeatCount="indefinite" path="M359.8,502.2 L358.6,568.9"/></circle>
<circle r="2.4" fill="#f2cc60"><animateMotion dur="3.03s" begin="2.39s" repeatCount="indefinite" path="M284.2,579.4 L258.5,592.1"/></circle>
<circle r="2.4" fill="#79c0ff"><animateMotion dur="3.54s" begin="1.71s" repeatCount="indefinite" path="M264.8,552.6 L238.3,542.9"/></circle>
<circle r="2.4" fill="#7ee787"><animateMotion dur="3.41s" begin="2.33s" repeatCount="indefinite" path="M157.6,422.4 L134.9,413.7"/></circle>
<text x="806" y="806" text-anchor="end" font-size="9" fill="#484f58" letter-spacing="1">// circuit_bloom.py — seed:20260721 — spokes:6 — regenerated daily</text>
</svg>