<svg viewBox="0 0 820 820" width="820" height="820" xmlns="http://www.w3.org/2000/svg" font-family="'Fira Code',monospace">
<defs>
<pattern id="g2" width="22" height="22" patternUnits="userSpaceOnUse">
<path d="M 22 0 L 0 0 0 22" fill="none" stroke="#30363d" stroke-width="0.4" opacity="0.3"/>
</pattern>
<radialGradient id="glow" cx="50%" cy="50%" r="50%">
<stop offset="0%" stop-color="#58a6ff" stop-opacity="0.35"/>
<stop offset="100%" stop-color="#58a6ff" stop-opacity="0"/>
</radialGradient>
</defs>
<rect x="0" y="0" width="820" height="820" fill="#0d1117"/>
<rect x="0" y="0" width="820" height="820" fill="url(#g2)"/>
<circle cx="410.0" cy="410.0" r="230" fill="url(#glow)"/>
<line x1="410.0" y1="410.0" x2="515.0" y2="406.9" stroke="#58a6ff" stroke-width="2.60" opacity="1.00" stroke-linecap="round"/>
<line x1="515.0" y1="406.9" x2="568.2" y2="365.7" stroke="#4f9ee0" stroke-width="2.25" opacity="0.90" stroke-linecap="round"/>
<line x1="568.2" y1="365.7" x2="579.8" y2="321.8" stroke="#3fb950" stroke-width="1.90" opacity="0.80" stroke-linecap="round"/>
<line x1="579.8" y1="321.8" x2="573.8" y2="291.3" stroke="#7bc96f" stroke-width="1.55" opacity="0.70" stroke-linecap="round"/>
<line x1="573.8" y1="291.3" x2="574.4" y2="271.8" stroke="#d29922" stroke-width="1.20" opacity="0.60" stroke-linecap="round"/>
<line x1="579.8" y1="321.8" x2="598.0" y2="300.1" stroke="#7bc96f" stroke-width="1.55" opacity="0.70" stroke-linecap="round"/>
<line x1="598.0" y1="300.1" x2="599.9" y2="282.6" stroke="#d29922" stroke-width="1.20" opacity="0.60" stroke-linecap="round"/>
<line x1="598.0" y1="300.1" x2="614.9" y2="294.2" stroke="#d29922" stroke-width="1.20" opacity="0.60" stroke-linecap="round"/>
<line x1="568.2" y1="365.7" x2="610.2" y2="363.6" stroke="#3fb950" stroke-width="1.90" opacity="0.80" stroke-linecap="round"/>
<line x1="610.2" y1="363.6" x2="634.7" y2="349.0" stroke="#7bc96f" stroke-width="1.55" opacity="0.70" stroke-linecap="round"/>
<line x1="634.7" y1="349.0" x2="651.3" y2="340.7" stroke="#d29922" stroke-width="1.20" opacity="0.60" stroke-linecap="round"/>
<line x1="610.2" y1="363.6" x2="634.9" y2="375.1" stroke="#7bc96f" stroke-width="1.55" opacity="0.70" stroke-linecap="round"/>
<line x1="634.9" y1="375.1" x2="654.2" y2="372.9" stroke="#d29922" stroke-width="1.20" opacity="0.60" stroke-linecap="round"/>
<line x1="634.9" y1="375.1" x2="643.1" y2="391.0" stroke="#d29922" stroke-width="1.20" opacity="0.60" stroke-linecap="round"/>
<line x1="515.0" y1="406.9" x2="569.6" y2="452.2" stroke="#4f9ee0" stroke-width="2.25" opacity="0.90" stroke-linecap="round"/>
<line x1="569.6" y1="452.2" x2="615.4" y2="454.2" stroke="#3fb950" stroke-width="1.90" opacity="0.80" stroke-linecap="round"/>
<line x1="615.4" y1="454.2" x2="642.3" y2="435.9" stroke="#7bc96f" stroke-width="1.55" opacity="0.70" stroke-linecap="round"/>
<line x1="642.3" y1="435.9" x2="652.6" y2="415.7" stroke="#d29922" stroke-width="1.20" opacity="0.60" stroke-linecap="round"/>
<line x1="642.3" y1="435.9" x2="663.6" y2="435.6" stroke="#d29922" stroke-width="1.20" opacity="0.60" stroke-linecap="round"/>
<line x1="615.4" y1="454.2" x2="642.2" y2="473.1" stroke="#7bc96f" stroke-width="1.55" opacity="0.70" stroke-linecap="round"/>
<line x1="642.2" y1="473.1" x2="660.1" y2="485.4" stroke="#d29922" stroke-width="1.20" opacity="0.60" stroke-linecap="round"/>
<line x1="569.6" y1="452.2" x2="585.4" y2="499.5" stroke="#3fb950" stroke-width="1.90" opacity="0.80" stroke-linecap="round"/>
<line x1="585.4" y1="499.5" x2="611.2" y2="517.7" stroke="#7bc96f" stroke-width="1.55" opacity="0.70" stroke-linecap="round"/>
<line x1="611.2" y1="517.7" x2="633.8" y2="517.6" stroke="#d29922" stroke-width="1.20" opacity="0.60" stroke-linecap="round"/>
<line x1="611.2" y1="517.7" x2="618.8" y2="537.6" stroke="#d29922" stroke-width="1.20" opacity="0.60" stroke-linecap="round"/>
<line x1="585.4" y1="499.5" x2="574.3" y2="529.5" stroke="#7bc96f" stroke-width="1.55" opacity="0.70" stroke-linecap="round"/>
<line x1="574.3" y1="529.5" x2="562.2" y2="546.8" stroke="#d29922" stroke-width="1.20" opacity="0.60" stroke-linecap="round"/>
<line x1="410.0" y1="410.0" x2="478.7" y2="489.4" stroke="#58a6ff" stroke-width="2.60" opacity="1.00" stroke-linecap="round"/>
<line x1="478.7" y1="489.4" x2="545.6" y2="507.3" stroke="#4f9ee0" stroke-width="2.25" opacity="0.90" stroke-linecap="round"/>
<line x1="545.6" y1="507.3" x2="589.2" y2="501.2" stroke="#3fb950" stroke-width="1.90" opacity="0.80" stroke-linecap="round"/>
<line x1="589.2" y1="501.2" x2="611.7" y2="484.9" stroke="#7bc96f" stroke-width="1.55" opacity="0.70" stroke-linecap="round"/>
<line x1="611.7" y1="484.9" x2="623.9" y2="472.1" stroke="#d29922" stroke-width="1.20" opacity="0.60" stroke-linecap="round"/>
<line x1="589.2" y1="501.2" x2="614.9" y2="512.0" stroke="#7bc96f" stroke-width="1.55" opacity="0.70" stroke-linecap="round"/>
<line x1="614.9" y1="512.0" x2="632.6" y2="520.0" stroke="#d29922" stroke-width="1.20" opacity="0.60" stroke-linecap="round"/>
<line x1="545.6" y1="507.3" x2="580.8" y2="532.8" stroke="#3fb950" stroke-width="1.90" opacity="0.80" stroke-linecap="round"/>
<line x1="580.8" y1="532.8" x2="608.9" y2="537.8" stroke="#7bc96f" stroke-width="1.55" opacity="0.70" stroke-linecap="round"/>
<line x1="608.9" y1="537.8" x2="626.3" y2="545.7" stroke="#d29922" stroke-width="1.20" opacity="0.60" stroke-linecap="round"/>
<line x1="580.8" y1="532.8" x2="593.4" y2="558.9" stroke="#7bc96f" stroke-width="1.55" opacity="0.70" stroke-linecap="round"/>
<line x1="593.4" y1="558.9" x2="610.8" y2="569.5" stroke="#d29922" stroke-width="1.20" opacity="0.60" stroke-linecap="round"/>
<line x1="593.4" y1="558.9" x2="590.7" y2="578.0" stroke="#d29922" stroke-width="1.20" opacity="0.60" stroke-linecap="round"/>
<line x1="478.7" y1="489.4" x2="479.8" y2="556.9" stroke="#4f9ee0" stroke-width="2.25" opacity="0.90" stroke-linecap="round"/>
<line x1="479.8" y1="556.9" x2="512.6" y2="591.6" stroke="#3fb950" stroke-width="1.90" opacity="0.80" stroke-linecap="round"/>
<line x1="512.6" y1="591.6" x2="545.5" y2="597.9" stroke="#7bc96f" stroke-width="1.55" opacity="0.70" stroke-linecap="round"/>
<line x1="545.5" y1="597.9" x2="568.3" y2="600.3" stroke="#d29922" stroke-width="1.20" opacity="0.60" stroke-linecap="round"/>
<line x1="512.6" y1="591.6" x2="516.0" y2="623.7" stroke="#7bc96f" stroke-width="1.55" opacity="0.70" stroke-linecap="round"/>
<line x1="516.0" y1="623.7" x2="519.6" y2="646.4" stroke="#d29922" stroke-width="1.20" opacity="0.60" stroke-linecap="round"/>
<line x1="479.8" y1="556.9" x2="452.7" y2="590.4" stroke="#3fb950" stroke-width="1.90" opacity="0.80" stroke-linecap="round"/>
<line x1="452.7" y1="590.4" x2="448.3" y2="618.8" stroke="#7bc96f" stroke-width="1.55" opacity="0.70" stroke-linecap="round"/>
<line x1="448.3" y1="618.8" x2="459.1" y2="635.3" stroke="#d29922" stroke-width="1.20" opacity="0.60" stroke-linecap="round"/>
<line x1="448.3" y1="618.8" x2="435.2" y2="631.5" stroke="#d29922" stroke-width="1.20" opacity="0.60" stroke-linecap="round"/>
<line x1="452.7" y1="590.4" x2="426.4" y2="597.8" stroke="#7bc96f" stroke-width="1.55" opacity="0.70" stroke-linecap="round"/>
<line x1="426.4" y1="597.8" x2="409.0" y2="597.7" stroke="#d29922" stroke-width="1.20" opacity="0.60" stroke-linecap="round"/>
<line x1="410.0" y1="410.0" x2="387.6" y2="512.6" stroke="#58a6ff" stroke-width="2.60" opacity="1.00" stroke-linecap="round"/>
<line x1="387.6" y1="512.6" x2="423.0" y2="575.7" stroke="#4f9ee0" stroke-width="2.25" opacity="0.90" stroke-linecap="round"/>
<line x1="423.0" y1="575.7" x2="465.6" y2="600.1" stroke="#3fb950" stroke-width="1.90" opacity="0.80" stroke-linecap="round"/>
<line x1="465.6" y1="600.1" x2="497.3" y2="604.7" stroke="#7bc96f" stroke-width="1.55" opacity="0.70" stroke-linecap="round"/>
<line x1="497.3" y1="604.7" x2="517.3" y2="594.2" stroke="#d29922" stroke-width="1.20" opacity="0.60" stroke-linecap="round"/>
<line x1="497.3" y1="604.7" x2="510.2" y2="620.2" stroke="#d29922" stroke-width="1.20" opacity="0.60" stroke-linecap="round"/>
<line x1="465.6" y1="600.1" x2="483.9" y2="624.5" stroke="#7bc96f" stroke-width="1.55" opacity="0.70" stroke-linecap="round"/>
<line x1="483.9" y1="624.5" x2="504.7" y2="630.8" stroke="#d29922" stroke-width="1.20" opacity="0.60" stroke-linecap="round"/>
<line x1="483.9" y1="624.5" x2="484.8" y2="644.8" stroke="#d29922" stroke-width="1.20" opacity="0.60" stroke-linecap="round"/>
<line x1="423.0" y1="575.7" x2="421.2" y2="623.9" stroke="#3fb950" stroke-width="1.90" opacity="0.80" stroke-linecap="round"/>
<line x1="421.2" y1="623.9" x2="440.9" y2="647.3" stroke="#7bc96f" stroke-width="1.55" opacity="0.70" stroke-linecap="round"/>
<line x1="440.9" y1="647.3" x2="458.6" y2="655.0" stroke="#d29922" stroke-width="1.20" opacity="0.60" stroke-linecap="round"/>
<line x1="440.9" y1="647.3" x2="447.7" y2="665.7" stroke="#d29922" stroke-width="1.20" opacity="0.60" stroke-linecap="round"/>
<line x1="421.2" y1="623.9" x2="402.9" y2="648.2" stroke="#7bc96f" stroke-width="1.55" opacity="0.70" stroke-linecap="round"/>
<line x1="402.9" y1="648.2" x2="400.7" y2="668.2" stroke="#d29922" stroke-width="1.20" opacity="0.60" stroke-linecap="round"/>
<line x1="402.9" y1="648.2" x2="384.8" y2="654.9" stroke="#d29922" stroke-width="1.20" opacity="0.60" stroke-linecap="round"/>
<line x1="387.6" y1="512.6" x2="334.9" y2="552.0" stroke="#4f9ee0" stroke-width="2.25" opacity="0.90" stroke-linecap="round"/>
<line x1="334.9" y1="552.0" x2="321.7" y2="593.3" stroke="#3fb950" stroke-width="1.90" opacity="0.80" stroke-linecap="round"/>
<line x1="321.7" y1="593.3" x2="327.5" y2="622.8" stroke="#7bc96f" stroke-width="1.55" opacity="0.70" stroke-linecap="round"/>
<line x1="327.5" y1="622.8" x2="340.2" y2="637.3" stroke="#d29922" stroke-width="1.20" opacity="0.60" stroke-linecap="round"/>
<line x1="327.5" y1="622.8" x2="320.6" y2="642.3" stroke="#d29922" stroke-width="1.20" opacity="0.60" stroke-linecap="round"/>
<line x1="321.7" y1="593.3" x2="299.7" y2="612.2" stroke="#7bc96f" stroke-width="1.55" opacity="0.70" stroke-linecap="round"/>
<line x1="299.7" y1="612.2" x2="284.0" y2="622.2" stroke="#d29922" stroke-width="1.20" opacity="0.60" stroke-linecap="round"/>
<line x1="334.9" y1="552.0" x2="288.6" y2="557.4" stroke="#3fb950" stroke-width="1.90" opacity="0.80" stroke-linecap="round"/>
<line x1="288.6" y1="557.4" x2="265.8" y2="576.6" stroke="#7bc96f" stroke-width="1.55" opacity="0.70" stroke-linecap="round"/>
<line x1="265.8" y1="576.6" x2="254.7" y2="593.9" stroke="#d29922" stroke-width="1.20" opacity="0.60" stroke-linecap="round"/>
<line x1="288.6" y1="557.4" x2="259.7" y2="546.9" stroke="#7bc96f" stroke-width="1.55" opacity="0.70" stroke-linecap="round"/>
<line x1="259.7" y1="546.9" x2="239.7" y2="548.4" stroke="#d29922" stroke-width="1.20" opacity="0.60" stroke-linecap="round"/>
<line x1="259.7" y1="546.9" x2="243.8" y2="532.3" stroke="#d29922" stroke-width="1.20" opacity="0.60" stroke-linecap="round"/>
<line x1="410.0" y1="410.0" x2="316.3" y2="457.5" stroke="#58a6ff" stroke-width="2.60" opacity="1.00" stroke-linecap="round"/>
<line x1="316.3" y1="457.5" x2="272.5" y2="514.4" stroke="#4f9ee0" stroke-width="2.25" opacity="0.90" stroke-linecap="round"/>
<line x1="272.5" y1="514.4" x2="268.1" y2="559.7" stroke="#3fb950" stroke-width="1.90" opacity="0.80" stroke-linecap="round"/>
<line x1="268.1" y1="559.7" x2="283.0" y2="586.9" stroke="#7bc96f" stroke-width="1.55" opacity="0.70" stroke-linecap="round"/>
<line x1="283.0" y1="586.9" x2="299.2" y2="599.7" stroke="#d29922" stroke-width="1.20" opacity="0.60" stroke-linecap="round"/>
<line x1="283.0" y1="586.9" x2="284.4" y2="607.4" stroke="#d29922" stroke-width="1.20" opacity="0.60" stroke-linecap="round"/>
<line x1="268.1" y1="559.7" x2="249.5" y2="584.9" stroke="#7bc96f" stroke-width="1.55" opacity="0.70" stroke-linecap="round"/>
<line x1="249.5" y1="584.9" x2="231.9" y2="597.5" stroke="#d29922" stroke-width="1.20" opacity="0.60" stroke-linecap="round"/>
<line x1="272.5" y1="514.4" x2="227.1" y2="536.9" stroke="#3fb950" stroke-width="1.90" opacity="0.80" stroke-linecap="round"/>
<line x1="227.1" y1="536.9" x2="207.9" y2="564.4" stroke="#7bc96f" stroke-width="1.55" opacity="0.70" stroke-linecap="round"/>
<line x1="207.9" y1="564.4" x2="195.0" y2="583.7" stroke="#d29922" stroke-width="1.20" opacity="0.60" stroke-linecap="round"/>
<line x1="227.1" y1="536.9" x2="192.5" y2="532.9" stroke="#7bc96f" stroke-width="1.55" opacity="0.70" stroke-linecap="round"/>
<line x1="192.5" y1="532.9" x2="168.4" y2="527.4" stroke="#d29922" stroke-width="1.20" opacity="0.60" stroke-linecap="round"/>
<line x1="316.3" y1="457.5" x2="244.6" y2="463.9" stroke="#4f9ee0" stroke-width="2.25" opacity="0.90" stroke-linecap="round"/>
<line x1="244.6" y1="463.9" x2="201.4" y2="488.5" stroke="#3fb950" stroke-width="1.90" opacity="0.80" stroke-linecap="round"/>
<line x1="201.4" y1="488.5" x2="187.6" y2="520.4" stroke="#7bc96f" stroke-width="1.55" opacity="0.70" stroke-linecap="round"/>
<line x1="187.6" y1="520.4" x2="193.8" y2="542.5" stroke="#d29922" stroke-width="1.20" opacity="0.60" stroke-linecap="round"/>
<line x1="187.6" y1="520.4" x2="168.1" y2="533.1" stroke="#d29922" stroke-width="1.20" opacity="0.60" stroke-linecap="round"/>
<line x1="201.4" y1="488.5" x2="170.1" y2="483.9" stroke="#7bc96f" stroke-width="1.55" opacity="0.70" stroke-linecap="round"/>
<line x1="170.1" y1="483.9" x2="151.4" y2="492.1" stroke="#d29922" stroke-width="1.20" opacity="0.60" stroke-linecap="round"/>
<line x1="170.1" y1="483.9" x2="153.5" y2="473.5" stroke="#d29922" stroke-width="1.20" opacity="0.60" stroke-linecap="round"/>
<line x1="244.6" y1="463.9" x2="195.6" y2="448.8" stroke="#3fb950" stroke-width="1.90" opacity="0.80" stroke-linecap="round"/>
<line x1="195.6" y1="448.8" x2="163.5" y2="460.1" stroke="#7bc96f" stroke-width="1.55" opacity="0.70" stroke-linecap="round"/>
<line x1="163.5" y1="460.1" x2="141.1" y2="462.3" stroke="#d29922" stroke-width="1.20" opacity="0.60" stroke-linecap="round"/>
<line x1="195.6" y1="448.8" x2="178.3" y2="420.1" stroke="#7bc96f" stroke-width="1.55" opacity="0.70" stroke-linecap="round"/>
<line x1="178.3" y1="420.1" x2="164.1" y2="402.6" stroke="#d29922" stroke-width="1.20" opacity="0.60" stroke-linecap="round"/>
<line x1="410.0" y1="410.0" x2="313.8" y2="367.9" stroke="#58a6ff" stroke-width="2.60" opacity="1.00" stroke-linecap="round"/>
<line x1="313.8" y1="367.9" x2="245.7" y2="372.5" stroke="#4f9ee0" stroke-width="2.25" opacity="0.90" stroke-linecap="round"/>
<line x1="245.7" y1="372.5" x2="205.6" y2="400.2" stroke="#3fb950" stroke-width="1.90" opacity="0.80" stroke-linecap="round"/>
<line x1="205.6" y1="400.2" x2="188.7" y2="427.2" stroke="#7bc96f" stroke-width="1.55" opacity="0.70" stroke-linecap="round"/>
<line x1="188.7" y1="427.2" x2="176.0" y2="445.5" stroke="#d29922" stroke-width="1.20" opacity="0.60" stroke-linecap="round"/>
<line x1="205.6" y1="400.2" x2="172.6" y2="406.9" stroke="#7bc96f" stroke-width="1.55" opacity="0.70" stroke-linecap="round"/>
<line x1="172.6" y1="406.9" x2="155.4" y2="418.9" stroke="#d29922" stroke-width="1.20" opacity="0.60" stroke-linecap="round"/>
<line x1="172.6" y1="406.9" x2="151.0" y2="403.8" stroke="#d29922" stroke-width="1.20" opacity="0.60" stroke-linecap="round"/>
<line x1="245.7" y1="372.5" x2="201.8" y2="350.8" stroke="#3fb950" stroke-width="1.90" opacity="0.80" stroke-linecap="round"/>
<line x1="201.8" y1="350.8" x2="171.8" y2="356.5" stroke="#7bc96f" stroke-width="1.55" opacity="0.70" stroke-linecap="round"/>
<line x1="171.8" y1="356.5" x2="156.4" y2="367.7" stroke="#d29922" stroke-width="1.20" opacity="0.60" stroke-linecap="round"/>
<line x1="171.8" y1="356.5" x2="152.3" y2="351.3" stroke="#d29922" stroke-width="1.20" opacity="0.60" stroke-linecap="round"/>
<line x1="201.8" y1="350.8" x2="187.5" y2="320.3" stroke="#7bc96f" stroke-width="1.55" opacity="0.70" stroke-linecap="round"/>
<line x1="187.5" y1="320.3" x2="174.4" y2="300.5" stroke="#d29922" stroke-width="1.20" opacity="0.60" stroke-linecap="round"/>
<line x1="313.8" y1="367.9" x2="262.1" y2="313.9" stroke="#4f9ee0" stroke-width="2.25" opacity="0.90" stroke-linecap="round"/>
<line x1="262.1" y1="313.9" x2="216.6" y2="297.5" stroke="#3fb950" stroke-width="1.90" opacity="0.80" stroke-linecap="round"/>
<line x1="216.6" y1="297.5" x2="184.0" y2="306.6" stroke="#7bc96f" stroke-width="1.55" opacity="0.70" stroke-linecap="round"/>
<line x1="184.0" y1="306.6" x2="167.5" y2="322.9" stroke="#d29922" stroke-width="1.20" opacity="0.60" stroke-linecap="round"/>
<line x1="184.0" y1="306.6" x2="160.9" y2="301.7" stroke="#d29922" stroke-width="1.20" opacity="0.60" stroke-linecap="round"/>
<line x1="216.6" y1="297.5" x2="199.3" y2="269.6" stroke="#7bc96f" stroke-width="1.55" opacity="0.70" stroke-linecap="round"/>
<line x1="199.3" y1="269.6" x2="183.5" y2="255.5" stroke="#d29922" stroke-width="1.20" opacity="0.60" stroke-linecap="round"/>
<line x1="262.1" y1="313.9" x2="246.1" y2="263.5" stroke="#3fb950" stroke-width="1.90" opacity="0.80" stroke-linecap="round"/>
<line x1="246.1" y1="263.5" x2="221.7" y2="234.5" stroke="#7bc96f" stroke-width="1.55" opacity="0.70" stroke-linecap="round"/>
<line x1="221.7" y1="234.5" x2="197.7" y2="227.9" stroke="#d29922" stroke-width="1.20" opacity="0.60" stroke-linecap="round"/>
<line x1="221.7" y1="234.5" x2="221.4" y2="209.2" stroke="#d29922" stroke-width="1.20" opacity="0.60" stroke-linecap="round"/>
<line x1="246.1" y1="263.5" x2="251.1" y2="228.6" stroke="#7bc96f" stroke-width="1.55" opacity="0.70" stroke-linecap="round"/>
<line x1="251.1" y1="228.6" x2="243.0" y2="204.6" stroke="#d29922" stroke-width="1.20" opacity="0.60" stroke-linecap="round"/>
<line x1="251.1" y1="228.6" x2="265.6" y2="209.9" stroke="#d29922" stroke-width="1.20" opacity="0.60" stroke-linecap="round"/>
<line x1="410.0" y1="410.0" x2="393.0" y2="306.4" stroke="#58a6ff" stroke-width="2.60" opacity="1.00" stroke-linecap="round"/>
<line x1="393.0" y1="306.4" x2="347.8" y2="248.1" stroke="#4f9ee0" stroke-width="2.25" opacity="0.90" stroke-linecap="round"/>
<line x1="347.8" y1="248.1" x2="302.0" y2="227.1" stroke="#3fb950" stroke-width="1.90" opacity="0.80" stroke-linecap="round"/>
<line x1="302.0" y1="227.1" x2="268.2" y2="234.0" stroke="#7bc96f" stroke-width="1.55" opacity="0.70" stroke-linecap="round"/>
<line x1="268.2" y1="234.0" x2="250.3" y2="249.0" stroke="#d29922" stroke-width="1.20" opacity="0.60" stroke-linecap="round"/>
<line x1="268.2" y1="234.0" x2="244.1" y2="228.6" stroke="#d29922" stroke-width="1.20" opacity="0.60" stroke-linecap="round"/>
<line x1="302.0" y1="227.1" x2="286.8" y2="199.2" stroke="#7bc96f" stroke-width="1.55" opacity="0.70" stroke-linecap="round"/>
<line x1="286.8" y1="199.2" x2="268.6" y2="189.3" stroke="#d29922" stroke-width="1.20" opacity="0.60" stroke-linecap="round"/>
<line x1="286.8" y1="199.2" x2="289.3" y2="179.2" stroke="#d29922" stroke-width="1.20" opacity="0.60" stroke-linecap="round"/>
<line x1="347.8" y1="248.1" x2="337.6" y2="199.0" stroke="#3fb950" stroke-width="1.90" opacity="0.80" stroke-linecap="round"/>
<line x1="337.6" y1="199.0" x2="310.8" y2="175.8" stroke="#7bc96f" stroke-width="1.55" opacity="0.70" stroke-linecap="round"/>
<line x1="310.8" y1="175.8" x2="296.3" y2="156.0" stroke="#d29922" stroke-width="1.20" opacity="0.60" stroke-linecap="round"/>
<line x1="337.6" y1="199.0" x2="349.5" y2="169.9" stroke="#7bc96f" stroke-width="1.55" opacity="0.70" stroke-linecap="round"/>
<line x1="349.5" y1="169.9" x2="347.2" y2="147.5" stroke="#d29922" stroke-width="1.20" opacity="0.60" stroke-linecap="round"/>
<line x1="349.5" y1="169.9" x2="365.2" y2="158.0" stroke="#d29922" stroke-width="1.20" opacity="0.60" stroke-linecap="round"/>
<line x1="393.0" y1="306.4" x2="417.6" y2="241.9" stroke="#4f9ee0" stroke-width="2.25" opacity="0.90" stroke-linecap="round"/>
<line x1="417.6" y1="241.9" x2="410.9" y2="195.8" stroke="#3fb950" stroke-width="1.90" opacity="0.80" stroke-linecap="round"/>
<line x1="410.9" y1="195.8" x2="388.8" y2="176.3" stroke="#7bc96f" stroke-width="1.55" opacity="0.70" stroke-linecap="round"/>
<line x1="388.8" y1="176.3" x2="368.7" y2="172.3" stroke="#d29922" stroke-width="1.20" opacity="0.60" stroke-linecap="round"/>
<line x1="388.8" y1="176.3" x2="382.9" y2="156.8" stroke="#d29922" stroke-width="1.20" opacity="0.60" stroke-linecap="round"/>
<line x1="410.9" y1="195.8" x2="426.8" y2="168.4" stroke="#7bc96f" stroke-width="1.55" opacity="0.70" stroke-linecap="round"/>
<line x1="426.8" y1="168.4" x2="426.8" y2="146.3" stroke="#d29922" stroke-width="1.20" opacity="0.60" stroke-linecap="round"/>
<line x1="426.8" y1="168.4" x2="443.8" y2="155.9" stroke="#d29922" stroke-width="1.20" opacity="0.60" stroke-linecap="round"/>
<line x1="417.6" y1="241.9" x2="452.6" y2="206.8" stroke="#3fb950" stroke-width="1.90" opacity="0.80" stroke-linecap="round"/>
<line x1="452.6" y1="206.8" x2="465.0" y2="178.5" stroke="#7bc96f" stroke-width="1.55" opacity="0.70" stroke-linecap="round"/>
<line x1="465.0" y1="178.5" x2="460.7" y2="159.2" stroke="#d29922" stroke-width="1.20" opacity="0.60" stroke-linecap="round"/>
<line x1="465.0" y1="178.5" x2="483.8" y2="168.3" stroke="#d29922" stroke-width="1.20" opacity="0.60" stroke-linecap="round"/>
<line x1="452.6" y1="206.8" x2="482.2" y2="194.2" stroke="#7bc96f" stroke-width="1.55" opacity="0.70" stroke-linecap="round"/>
<line x1="482.2" y1="194.2" x2="497.3" y2="178.2" stroke="#d29922" stroke-width="1.20" opacity="0.60" stroke-linecap="round"/>
<line x1="482.2" y1="194.2" x2="503.2" y2="194.8" stroke="#d29922" stroke-width="1.20" opacity="0.60" stroke-linecap="round"/>
<line x1="410.0" y1="410.0" x2="476.0" y2="328.3" stroke="#58a6ff" stroke-width="2.60" opacity="1.00" stroke-linecap="round"/>
<line x1="476.0" y1="328.3" x2="475.1" y2="260.1" stroke="#4f9ee0" stroke-width="2.25" opacity="0.90" stroke-linecap="round"/>
<line x1="475.1" y1="260.1" x2="448.2" y2="224.4" stroke="#3fb950" stroke-width="1.90" opacity="0.80" stroke-linecap="round"/>
<line x1="448.2" y1="224.4" x2="421.3" y2="210.5" stroke="#7bc96f" stroke-width="1.55" opacity="0.70" stroke-linecap="round"/>
<line x1="421.3" y1="210.5" x2="404.0" y2="198.2" stroke="#d29922" stroke-width="1.20" opacity="0.60" stroke-linecap="round"/>
<line x1="448.2" y1="224.4" x2="442.5" y2="193.1" stroke="#7bc96f" stroke-width="1.55" opacity="0.70" stroke-linecap="round"/>
<line x1="442.5" y1="193.1" x2="429.6" y2="176.9" stroke="#d29922" stroke-width="1.20" opacity="0.60" stroke-linecap="round"/>
<line x1="442.5" y1="193.1" x2="448.5" y2="171.2" stroke="#d29922" stroke-width="1.20" opacity="0.60" stroke-linecap="round"/>
<line x1="475.1" y1="260.1" x2="504.7" y2="223.4" stroke="#3fb950" stroke-width="1.90" opacity="0.80" stroke-linecap="round"/>
<line x1="504.7" y1="223.4" x2="504.9" y2="189.5" stroke="#7bc96f" stroke-width="1.55" opacity="0.70" stroke-linecap="round"/>
<line x1="504.9" y1="189.5" x2="491.6" y2="171.7" stroke="#d29922" stroke-width="1.20" opacity="0.60" stroke-linecap="round"/>
<line x1="504.9" y1="189.5" x2="518.4" y2="170.5" stroke="#d29922" stroke-width="1.20" opacity="0.60" stroke-linecap="round"/>
<line x1="504.7" y1="223.4" x2="533.8" y2="215.3" stroke="#7bc96f" stroke-width="1.55" opacity="0.70" stroke-linecap="round"/>
<line x1="533.8" y1="215.3" x2="553.8" y2="210.7" stroke="#d29922" stroke-width="1.20" opacity="0.60" stroke-linecap="round"/>
<line x1="476.0" y1="328.3" x2="540.7" y2="316.5" stroke="#4f9ee0" stroke-width="2.25" opacity="0.90" stroke-linecap="round"/>
<line x1="540.7" y1="316.5" x2="574.9" y2="283.7" stroke="#3fb950" stroke-width="1.90" opacity="0.80" stroke-linecap="round"/>
<line x1="574.9" y1="283.7" x2="576.8" y2="251.5" stroke="#7bc96f" stroke-width="1.55" opacity="0.70" stroke-linecap="round"/>
<line x1="576.8" y1="251.5" x2="570.2" y2="230.1" stroke="#d29922" stroke-width="1.20" opacity="0.60" stroke-linecap="round"/>
<line x1="576.8" y1="251.5" x2="586.4" y2="232.4" stroke="#d29922" stroke-width="1.20" opacity="0.60" stroke-linecap="round"/>
<line x1="574.9" y1="283.7" x2="605.1" y2="282.6" stroke="#7bc96f" stroke-width="1.55" opacity="0.70" stroke-linecap="round"/>
<line x1="605.1" y1="282.6" x2="622.1" y2="270.4" stroke="#d29922" stroke-width="1.20" opacity="0.60" stroke-linecap="round"/>
<line x1="605.1" y1="282.6" x2="622.0" y2="292.2" stroke="#d29922" stroke-width="1.20" opacity="0.60" stroke-linecap="round"/>
<line x1="540.7" y1="316.5" x2="582.6" y2="337.4" stroke="#3fb950" stroke-width="1.90" opacity="0.80" stroke-linecap="round"/>
<line x1="582.6" y1="337.4" x2="613.2" y2="333.6" stroke="#7bc96f" stroke-width="1.55" opacity="0.70" stroke-linecap="round"/>
<line x1="613.2" y1="333.6" x2="634.9" y2="331.1" stroke="#d29922" stroke-width="1.20" opacity="0.60" stroke-linecap="round"/>
<line x1="582.6" y1="337.4" x2="597.4" y2="362.9" stroke="#7bc96f" stroke-width="1.55" opacity="0.70" stroke-linecap="round"/>
<line x1="597.4" y1="362.9" x2="613.2" y2="373.9" stroke="#d29922" stroke-width="1.20" opacity="0.60" stroke-linecap="round"/>
<line x1="597.4" y1="362.9" x2="598.8" y2="383.4" stroke="#d29922" stroke-width="1.20" opacity="0.60" stroke-linecap="round"/>
<circle cx="515.0" cy="406.9" r="2.60" fill="#58a6ff" opacity="0.85"/>
<circle cx="568.2" cy="365.7" r="2.30" fill="#4f9ee0" opacity="0.85"/>
<circle cx="579.8" cy="321.8" r="2.00" fill="#3fb950" opacity="0.85"/>
<circle cx="573.8" cy="291.3" r="1.70" fill="#7bc96f" opacity="0.85"/>
<circle cx="598.0" cy="300.1" r="1.70" fill="#7bc96f" opacity="0.85"/>
<circle cx="610.2" cy="363.6" r="2.00" fill="#3fb950" opacity="0.85"/>
<circle cx="634.7" cy="349.0" r="1.70" fill="#7bc96f" opacity="0.85"/>
<circle cx="634.9" cy="375.1" r="1.70" fill="#7bc96f" opacity="0.85"/>
<circle cx="569.6" cy="452.2" r="2.30" fill="#4f9ee0" opacity="0.85"/>
<circle cx="615.4" cy="454.2" r="2.00" fill="#3fb950" opacity="0.85"/>
<circle cx="642.3" cy="435.9" r="1.70" fill="#7bc96f" opacity="0.85"/>
<circle cx="642.2" cy="473.1" r="1.70" fill="#7bc96f" opacity="0.85"/>
<circle cx="585.4" cy="499.5" r="2.00" fill="#3fb950" opacity="0.85"/>
<circle cx="611.2" cy="517.7" r="1.70" fill="#7bc96f" opacity="0.85"/>
<circle cx="574.3" cy="529.5" r="1.70" fill="#7bc96f" opacity="0.85"/>
<circle cx="478.7" cy="489.4" r="2.60" fill="#58a6ff" opacity="0.85"/>
<circle cx="545.6" cy="507.3" r="2.30" fill="#4f9ee0" opacity="0.85"/>
<circle cx="589.2" cy="501.2" r="2.00" fill="#3fb950" opacity="0.85"/>
<circle cx="611.7" cy="484.9" r="1.70" fill="#7bc96f" opacity="0.85"/>
<circle cx="614.9" cy="512.0" r="1.70" fill="#7bc96f" opacity="0.85"/>
<circle cx="580.8" cy="532.8" r="2.00" fill="#3fb950" opacity="0.85"/>
<circle cx="608.9" cy="537.8" r="1.70" fill="#7bc96f" opacity="0.85"/>
<circle cx="593.4" cy="558.9" r="1.70" fill="#7bc96f" opacity="0.85"/>
<circle cx="479.8" cy="556.9" r="2.30" fill="#4f9ee0" opacity="0.85"/>
<circle cx="512.6" cy="591.6" r="2.00" fill="#3fb950" opacity="0.85"/>
<circle cx="545.5" cy="597.9" r="1.70" fill="#7bc96f" opacity="0.85"/>
<circle cx="516.0" cy="623.7" r="1.70" fill="#7bc96f" opacity="0.85"/>
<circle cx="452.7" cy="590.4" r="2.00" fill="#3fb950" opacity="0.85"/>
<circle cx="448.3" cy="618.8" r="1.70" fill="#7bc96f" opacity="0.85"/>
<circle cx="426.4" cy="597.8" r="1.70" fill="#7bc96f" opacity="0.85"/>
<circle cx="387.6" cy="512.6" r="2.60" fill="#58a6ff" opacity="0.85"/>
<circle cx="423.0" cy="575.7" r="2.30" fill="#4f9ee0" opacity="0.85"/>
<circle cx="465.6" cy="600.1" r="2.00" fill="#3fb950" opacity="0.85"/>
<circle cx="497.3" cy="604.7" r="1.70" fill="#7bc96f" opacity="0.85"/>
<circle cx="483.9" cy="624.5" r="1.70" fill="#7bc96f" opacity="0.85"/>
<circle cx="421.2" cy="623.9" r="2.00" fill="#3fb950" opacity="0.85"/>
<circle cx="440.9" cy="647.3" r="1.70" fill="#7bc96f" opacity="0.85"/>
<circle cx="402.9" cy="648.2" r="1.70" fill="#7bc96f" opacity="0.85"/>
<circle cx="334.9" cy="552.0" r="2.30" fill="#4f9ee0" opacity="0.85"/>
<circle cx="321.7" cy="593.3" r="2.00" fill="#3fb950" opacity="0.85"/>
<circle cx="327.5" cy="622.8" r="1.70" fill="#7bc96f" opacity="0.85"/>
<circle cx="299.7" cy="612.2" r="1.70" fill="#7bc96f" opacity="0.85"/>
<circle cx="288.6" cy="557.4" r="2.00" fill="#3fb950" opacity="0.85"/>
<circle cx="265.8" cy="576.6" r="1.70" fill="#7bc96f" opacity="0.85"/>
<circle cx="259.7" cy="546.9" r="1.70" fill="#7bc96f" opacity="0.85"/>
<circle cx="316.3" cy="457.5" r="2.60" fill="#58a6ff" opacity="0.85"/>
<circle cx="272.5" cy="514.4" r="2.30" fill="#4f9ee0" opacity="0.85"/>
<circle cx="268.1" cy="559.7" r="2.00" fill="#3fb950" opacity="0.85"/>
<circle cx="283.0" cy="586.9" r="1.70" fill="#7bc96f" opacity="0.85"/>
<circle cx="249.5" cy="584.9" r="1.70" fill="#7bc96f" opacity="0.85"/>
<circle cx="227.1" cy="536.9" r="2.00" fill="#3fb950" opacity="0.85"/>
<circle cx="207.9" cy="564.4" r="1.70" fill="#7bc96f" opacity="0.85"/>
<circle cx="192.5" cy="532.9" r="1.70" fill="#7bc96f" opacity="0.85"/>
<circle cx="244.6" cy="463.9" r="2.30" fill="#4f9ee0" opacity="0.85"/>
<circle cx="201.4" cy="488.5" r="2.00" fill="#3fb950" opacity="0.85"/>
<circle cx="187.6" cy="520.4" r="1.70" fill="#7bc96f" opacity="0.85"/>
<circle cx="170.1" cy="483.9" r="1.70" fill="#7bc96f" opacity="0.85"/>
<circle cx="195.6" cy="448.8" r="2.00" fill="#3fb950" opacity="0.85"/>
<circle cx="163.5" cy="460.1" r="1.70" fill="#7bc96f" opacity="0.85"/>
<circle cx="178.3" cy="420.1" r="1.70" fill="#7bc96f" opacity="0.85"/>
<circle cx="313.8" cy="367.9" r="2.60" fill="#58a6ff" opacity="0.85"/>
<circle cx="245.7" cy="372.5" r="2.30" fill="#4f9ee0" opacity="0.85"/>
<circle cx="205.6" cy="400.2" r="2.00" fill="#3fb950" opacity="0.85"/>
<circle cx="188.7" cy="427.2" r="1.70" fill="#7bc96f" opacity="0.85"/>
<circle cx="172.6" cy="406.9" r="1.70" fill="#7bc96f" opacity="0.85"/>
<circle cx="201.8" cy="350.8" r="2.00" fill="#3fb950" opacity="0.85"/>
<circle cx="171.8" cy="356.5" r="1.70" fill="#7bc96f" opacity="0.85"/>
<circle cx="187.5" cy="320.3" r="1.70" fill="#7bc96f" opacity="0.85"/>
<circle cx="262.1" cy="313.9" r="2.30" fill="#4f9ee0" opacity="0.85"/>
<circle cx="216.6" cy="297.5" r="2.00" fill="#3fb950" opacity="0.85"/>
<circle cx="184.0" cy="306.6" r="1.70" fill="#7bc96f" opacity="0.85"/>
<circle cx="199.3" cy="269.6" r="1.70" fill="#7bc96f" opacity="0.85"/>
<circle cx="246.1" cy="263.5" r="2.00" fill="#3fb950" opacity="0.85"/>
<circle cx="221.7" cy="234.5" r="1.70" fill="#7bc96f" opacity="0.85"/>
<circle cx="251.1" cy="228.6" r="1.70" fill="#7bc96f" opacity="0.85"/>
<circle cx="393.0" cy="306.4" r="2.60" fill="#58a6ff" opacity="0.85"/>
<circle cx="347.8" cy="248.1" r="2.30" fill="#4f9ee0" opacity="0.85"/>
<circle cx="302.0" cy="227.1" r="2.00" fill="#3fb950" opacity="0.85"/>
<circle cx="268.2" cy="234.0" r="1.70" fill="#7bc96f" opacity="0.85"/>
<circle cx="286.8" cy="199.2" r="1.70" fill="#7bc96f" opacity="0.85"/>
<circle cx="337.6" cy="199.0" r="2.00" fill="#3fb950" opacity="0.85"/>
<circle cx="310.8" cy="175.8" r="1.70" fill="#7bc96f" opacity="0.85"/>
<circle cx="349.5" cy="169.9" r="1.70" fill="#7bc96f" opacity="0.85"/>
<circle cx="417.6" cy="241.9" r="2.30" fill="#4f9ee0" opacity="0.85"/>
<circle cx="410.9" cy="195.8" r="2.00" fill="#3fb950" opacity="0.85"/>
<circle cx="388.8" cy="176.3" r="1.70" fill="#7bc96f" opacity="0.85"/>
<circle cx="426.8" cy="168.4" r="1.70" fill="#7bc96f" opacity="0.85"/>
<circle cx="452.6" cy="206.8" r="2.00" fill="#3fb950" opacity="0.85"/>
<circle cx="465.0" cy="178.5" r="1.70" fill="#7bc96f" opacity="0.85"/>
<circle cx="482.2" cy="194.2" r="1.70" fill="#7bc96f" opacity="0.85"/>
<circle cx="476.0" cy="328.3" r="2.60" fill="#58a6ff" opacity="0.85"/>
<circle cx="475.1" cy="260.1" r="2.30" fill="#4f9ee0" opacity="0.85"/>
<circle cx="448.2" cy="224.4" r="2.00" fill="#3fb950" opacity="0.85"/>
<circle cx="421.3" cy="210.5" r="1.70" fill="#7bc96f" opacity="0.85"/>
<circle cx="442.5" cy="193.1" r="1.70" fill="#7bc96f" opacity="0.85"/>
<circle cx="504.7" cy="223.4" r="2.00" fill="#3fb950" opacity="0.85"/>
<circle cx="504.9" cy="189.5" r="1.70" fill="#7bc96f" opacity="0.85"/>
<circle cx="533.8" cy="215.3" r="1.70" fill="#7bc96f" opacity="0.85"/>
<circle cx="540.7" cy="316.5" r="2.30" fill="#4f9ee0" opacity="0.85"/>
<circle cx="574.9" cy="283.7" r="2.00" fill="#3fb950" opacity="0.85"/>
<circle cx="576.8" cy="251.5" r="1.70" fill="#7bc96f" opacity="0.85"/>
<circle cx="605.1" cy="282.6" r="1.70" fill="#7bc96f" opacity="0.85"/>
<circle cx="582.6" cy="337.4" r="2.00" fill="#3fb950" opacity="0.85"/>
<circle cx="613.2" cy="333.6" r="1.70" fill="#7bc96f" opacity="0.85"/>
<circle cx="597.4" cy="362.9" r="1.70" fill="#7bc96f" opacity="0.85"/>
<circle cx="574.4" cy="271.8" r="3" fill="none" stroke="#d29922" stroke-width="1" opacity="0.6"/>
<circle cx="599.9" cy="282.6" r="3" fill="none" stroke="#d29922" stroke-width="1" opacity="0.6"/>
<circle cx="614.9" cy="294.2" r="3" fill="none" stroke="#d29922" stroke-width="1" opacity="0.6"/>
<circle cx="651.3" cy="340.7" r="3" fill="none" stroke="#d29922" stroke-width="1" opacity="0.6"/>
<circle cx="654.2" cy="372.9" r="3" fill="none" stroke="#d29922" stroke-width="1" opacity="0.6"/>
<circle cx="643.1" cy="391.0" r="3" fill="none" stroke="#d29922" stroke-width="1" opacity="0.6"/>
<circle cx="652.6" cy="415.7" r="3" fill="none" stroke="#d29922" stroke-width="1" opacity="0.6"/>
<circle cx="663.6" cy="435.6" r="3" fill="none" stroke="#d29922" stroke-width="1" opacity="0.6"/>
<circle cx="660.1" cy="485.4" r="3" fill="none" stroke="#d29922" stroke-width="1" opacity="0.6"/>
<circle cx="633.8" cy="517.6" r="3" fill="none" stroke="#d29922" stroke-width="1" opacity="0.6"/>
<circle cx="618.8" cy="537.6" r="3" fill="none" stroke="#d29922" stroke-width="1" opacity="0.6"/>
<circle cx="562.2" cy="546.8" r="3" fill="none" stroke="#d29922" stroke-width="1" opacity="0.6"/>
<circle cx="623.9" cy="472.1" r="3" fill="none" stroke="#d29922" stroke-width="1" opacity="0.6"/>
<circle cx="632.6" cy="520.0" r="3" fill="none" stroke="#d29922" stroke-width="1" opacity="0.6"/>
<circle cx="626.3" cy="545.7" r="3" fill="none" stroke="#d29922" stroke-width="1" opacity="0.6"/>
<circle cx="610.8" cy="569.5" r="3" fill="none" stroke="#d29922" stroke-width="1" opacity="0.6"/>
<circle cx="590.7" cy="578.0" r="3" fill="none" stroke="#d29922" stroke-width="1" opacity="0.6"/>
<circle cx="568.3" cy="600.3" r="3" fill="none" stroke="#d29922" stroke-width="1" opacity="0.6"/>
<circle cx="519.6" cy="646.4" r="3" fill="none" stroke="#d29922" stroke-width="1" opacity="0.6"/>
<circle cx="459.1" cy="635.3" r="3" fill="none" stroke="#d29922" stroke-width="1" opacity="0.6"/>
<circle cx="435.2" cy="631.5" r="3" fill="none" stroke="#d29922" stroke-width="1" opacity="0.6"/>
<circle cx="409.0" cy="597.7" r="3" fill="none" stroke="#d29922" stroke-width="1" opacity="0.6"/>
<circle cx="517.3" cy="594.2" r="3" fill="none" stroke="#d29922" stroke-width="1" opacity="0.6"/>
<circle cx="510.2" cy="620.2" r="3" fill="none" stroke="#d29922" stroke-width="1" opacity="0.6"/>
<circle cx="504.7" cy="630.8" r="3" fill="none" stroke="#d29922" stroke-width="1" opacity="0.6"/>
<circle cx="484.8" cy="644.8" r="3" fill="none" stroke="#d29922" stroke-width="1" opacity="0.6"/>
<circle cx="458.6" cy="655.0" r="3" fill="none" stroke="#d29922" stroke-width="1" opacity="0.6"/>
<circle cx="447.7" cy="665.7" r="3" fill="none" stroke="#d29922" stroke-width="1" opacity="0.6"/>
<circle cx="400.7" cy="668.2" r="3" fill="none" stroke="#d29922" stroke-width="1" opacity="0.6"/>
<circle cx="384.8" cy="654.9" r="3" fill="none" stroke="#d29922" stroke-width="1" opacity="0.6"/>
<circle cx="340.2" cy="637.3" r="3" fill="none" stroke="#d29922" stroke-width="1" opacity="0.6"/>
<circle cx="320.6" cy="642.3" r="3" fill="none" stroke="#d29922" stroke-width="1" opacity="0.6"/>
<circle cx="284.0" cy="622.2" r="3" fill="none" stroke="#d29922" stroke-width="1" opacity="0.6"/>
<circle cx="254.7" cy="593.9" r="3" fill="none" stroke="#d29922" stroke-width="1" opacity="0.6"/>
<circle cx="239.7" cy="548.4" r="3" fill="none" stroke="#d29922" stroke-width="1" opacity="0.6"/>
<circle cx="243.8" cy="532.3" r="3" fill="none" stroke="#d29922" stroke-width="1" opacity="0.6"/>
<circle cx="299.2" cy="599.7" r="3" fill="none" stroke="#d29922" stroke-width="1" opacity="0.6"/>
<circle cx="284.4" cy="607.4" r="3" fill="none" stroke="#d29922" stroke-width="1" opacity="0.6"/>
<circle cx="231.9" cy="597.5" r="3" fill="none" stroke="#d29922" stroke-width="1" opacity="0.6"/>
<circle cx="195.0" cy="583.7" r="3" fill="none" stroke="#d29922" stroke-width="1" opacity="0.6"/>
<circle cx="168.4" cy="527.4" r="3" fill="none" stroke="#d29922" stroke-width="1" opacity="0.6"/>
<circle cx="193.8" cy="542.5" r="3" fill="none" stroke="#d29922" stroke-width="1" opacity="0.6"/>
<circle cx="168.1" cy="533.1" r="3" fill="none" stroke="#d29922" stroke-width="1" opacity="0.6"/>
<circle cx="151.4" cy="492.1" r="3" fill="none" stroke="#d29922" stroke-width="1" opacity="0.6"/>
<circle cx="153.5" cy="473.5" r="3" fill="none" stroke="#d29922" stroke-width="1" opacity="0.6"/>
<circle cx="141.1" cy="462.3" r="3" fill="none" stroke="#d29922" stroke-width="1" opacity="0.6"/>
<circle cx="164.1" cy="402.6" r="3" fill="none" stroke="#d29922" stroke-width="1" opacity="0.6"/>
<circle cx="176.0" cy="445.5" r="3" fill="none" stroke="#d29922" stroke-width="1" opacity="0.6"/>
<circle cx="155.4" cy="418.9" r="3" fill="none" stroke="#d29922" stroke-width="1" opacity="0.6"/>
<circle cx="151.0" cy="403.8" r="3" fill="none" stroke="#d29922" stroke-width="1" opacity="0.6"/>
<circle cx="156.4" cy="367.7" r="3" fill="none" stroke="#d29922" stroke-width="1" opacity="0.6"/>
<circle cx="152.3" cy="351.3" r="3" fill="none" stroke="#d29922" stroke-width="1" opacity="0.6"/>
<circle cx="174.4" cy="300.5" r="3" fill="none" stroke="#d29922" stroke-width="1" opacity="0.6"/>
<circle cx="167.5" cy="322.9" r="3" fill="none" stroke="#d29922" stroke-width="1" opacity="0.6"/>
<circle cx="160.9" cy="301.7" r="3" fill="none" stroke="#d29922" stroke-width="1" opacity="0.6"/>
<circle cx="183.5" cy="255.5" r="3" fill="none" stroke="#d29922" stroke-width="1" opacity="0.6"/>
<circle cx="197.7" cy="227.9" r="3" fill="none" stroke="#d29922" stroke-width="1" opacity="0.6"/>
<circle cx="221.4" cy="209.2" r="3" fill="none" stroke="#d29922" stroke-width="1" opacity="0.6"/>
<circle cx="243.0" cy="204.6" r="3" fill="none" stroke="#d29922" stroke-width="1" opacity="0.6"/>
<circle cx="265.6" cy="209.9" r="3" fill="none" stroke="#d29922" stroke-width="1" opacity="0.6"/>
<circle cx="250.3" cy="249.0" r="3" fill="none" stroke="#d29922" stroke-width="1" opacity="0.6"/>
<circle cx="244.1" cy="228.6" r="3" fill="none" stroke="#d29922" stroke-width="1" opacity="0.6"/>
<circle cx="268.6" cy="189.3" r="3" fill="none" stroke="#d29922" stroke-width="1" opacity="0.6"/>
<circle cx="289.3" cy="179.2" r="3" fill="none" stroke="#d29922" stroke-width="1" opacity="0.6"/>
<circle cx="296.3" cy="156.0" r="3" fill="none" stroke="#d29922" stroke-width="1" opacity="0.6"/>
<circle cx="347.2" cy="147.5" r="3" fill="none" stroke="#d29922" stroke-width="1" opacity="0.6"/>
<circle cx="365.2" cy="158.0" r="3" fill="none" stroke="#d29922" stroke-width="1" opacity="0.6"/>
<circle cx="368.7" cy="172.3" r="3" fill="none" stroke="#d29922" stroke-width="1" opacity="0.6"/>
<circle cx="382.9" cy="156.8" r="3" fill="none" stroke="#d29922" stroke-width="1" opacity="0.6"/>
<circle cx="426.8" cy="146.3" r="3" fill="none" stroke="#d29922" stroke-width="1" opacity="0.6"/>
<circle cx="443.8" cy="155.9" r="3" fill="none" stroke="#d29922" stroke-width="1" opacity="0.6"/>
<circle cx="460.7" cy="159.2" r="3" fill="none" stroke="#d29922" stroke-width="1" opacity="0.6"/>
<circle cx="483.8" cy="168.3" r="3" fill="none" stroke="#d29922" stroke-width="1" opacity="0.6"/>
<circle cx="497.3" cy="178.2" r="3" fill="none" stroke="#d29922" stroke-width="1" opacity="0.6"/>
<circle cx="503.2" cy="194.8" r="3" fill="none" stroke="#d29922" stroke-width="1" opacity="0.6"/>
<circle cx="404.0" cy="198.2" r="3" fill="none" stroke="#d29922" stroke-width="1" opacity="0.6"/>
<circle cx="429.6" cy="176.9" r="3" fill="none" stroke="#d29922" stroke-width="1" opacity="0.6"/>
<circle cx="448.5" cy="171.2" r="3" fill="none" stroke="#d29922" stroke-width="1" opacity="0.6"/>
<circle cx="491.6" cy="171.7" r="3" fill="none" stroke="#d29922" stroke-width="1" opacity="0.6"/>
<circle cx="518.4" cy="170.5" r="3" fill="none" stroke="#d29922" stroke-width="1" opacity="0.6"/>
<circle cx="553.8" cy="210.7" r="3" fill="none" stroke="#d29922" stroke-width="1" opacity="0.6"/>
<circle cx="570.2" cy="230.1" r="3" fill="none" stroke="#d29922" stroke-width="1" opacity="0.6"/>
<circle cx="586.4" cy="232.4" r="3" fill="none" stroke="#d29922" stroke-width="1" opacity="0.6"/>
<circle cx="622.1" cy="270.4" r="3" fill="none" stroke="#d29922" stroke-width="1" opacity="0.6"/>
<circle cx="622.0" cy="292.2" r="3" fill="none" stroke="#d29922" stroke-width="1" opacity="0.6"/>
<circle cx="634.9" cy="331.1" r="3" fill="none" stroke="#d29922" stroke-width="1" opacity="0.6"/>
<circle cx="613.2" cy="373.9" r="3" fill="none" stroke="#d29922" stroke-width="1" opacity="0.6"/>
<circle cx="598.8" cy="383.4" r="3" fill="none" stroke="#d29922" stroke-width="1" opacity="0.6"/>
<circle cx="410.0" cy="410.0" r="10" fill="#0d1117" stroke="#58a6ff" stroke-width="2"/>
<circle cx="410.0" cy="410.0" r="4" fill="#58a6ff"/>
<circle r="2.4" fill="#7ee787"><animateMotion dur="2.35s" begin="0.26s" repeatCount="indefinite" path="M262.1,313.9 L246.1,263.5"/></circle>
<circle r="2.4" fill="#f2cc60"><animateMotion dur="3.11s" begin="2.14s" repeatCount="indefinite" path="M172.6,406.9 L155.4,418.9"/></circle>
<circle r="2.4" fill="#79c0ff"><animateMotion dur="3.75s" begin="1.9s" repeatCount="indefinite" path="M452.7,590.4 L448.3,618.8"/></circle>
<circle r="2.4" fill="#7ee787"><animateMotion dur="2.79s" begin="0.29s" repeatCount="indefinite" path="M249.5,584.9 L231.9,597.5"/></circle>
<circle r="2.4" fill="#f2cc60"><animateMotion dur="3.93s" begin="1.63s" repeatCount="indefinite" path="M316.3,457.5 L272.5,514.4"/></circle>
<circle r="2.4" fill="#79c0ff"><animateMotion dur="2.52s" begin="2.11s" repeatCount="indefinite" path="M288.6,557.4 L265.8,576.6"/></circle>
<circle r="2.4" fill="#7ee787"><animateMotion dur="3.46s" begin="1.53s" repeatCount="indefinite" path="M423.0,575.7 L421.2,623.9"/></circle>
<text x="806" y="806" text-anchor="end" font-size="9" fill="#484f58" letter-spacing="1">// circuit_bloom.py — seed:20260720 — spokes:7 — regenerated daily</text>
</svg>