<svg viewBox="0 0 820 820" width="820" height="820" xmlns="http://www.w3.org/2000/svg" font-family="'Fira Code',monospace">
<defs>
<pattern id="g2" width="22" height="22" patternUnits="userSpaceOnUse">
<path d="M 22 0 L 0 0 0 22" fill="none" stroke="#30363d" stroke-width="0.4" opacity="0.3"/>
</pattern>
<radialGradient id="glow" cx="50%" cy="50%" r="50%">
<stop offset="0%" stop-color="#58a6ff" stop-opacity="0.35"/>
<stop offset="100%" stop-color="#58a6ff" stop-opacity="0"/>
</radialGradient>
</defs>
<rect x="0" y="0" width="820" height="820" fill="#0d1117"/>
<rect x="0" y="0" width="820" height="820" fill="url(#g2)"/>
<circle cx="410.0" cy="410.0" r="230" fill="url(#glow)"/>
<line x1="410.0" y1="410.0" x2="515.0" y2="411.5" stroke="#58a6ff" stroke-width="2.60" opacity="1.00" stroke-linecap="round"/>
<line x1="515.0" y1="411.5" x2="572.8" y2="363.7" stroke="#4f9ee0" stroke-width="2.25" opacity="0.90" stroke-linecap="round"/>
<line x1="572.8" y1="363.7" x2="585.4" y2="316.5" stroke="#3fb950" stroke-width="1.90" opacity="0.80" stroke-linecap="round"/>
<line x1="585.4" y1="316.5" x2="569.6" y2="286.5" stroke="#7bc96f" stroke-width="1.55" opacity="0.70" stroke-linecap="round"/>
<line x1="569.6" y1="286.5" x2="549.8" y2="276.0" stroke="#d29922" stroke-width="1.20" opacity="0.60" stroke-linecap="round"/>
<line x1="569.6" y1="286.5" x2="572.3" y2="264.0" stroke="#d29922" stroke-width="1.20" opacity="0.60" stroke-linecap="round"/>
<line x1="585.4" y1="316.5" x2="611.8" y2="295.6" stroke="#7bc96f" stroke-width="1.55" opacity="0.70" stroke-linecap="round"/>
<line x1="611.8" y1="295.6" x2="622.1" y2="276.2" stroke="#d29922" stroke-width="1.20" opacity="0.60" stroke-linecap="round"/>
<line x1="611.8" y1="295.6" x2="634.5" y2="288.1" stroke="#d29922" stroke-width="1.20" opacity="0.60" stroke-linecap="round"/>
<line x1="572.8" y1="363.7" x2="624.7" y2="353.6" stroke="#3fb950" stroke-width="1.90" opacity="0.80" stroke-linecap="round"/>
<line x1="624.7" y1="353.6" x2="651.1" y2="326.9" stroke="#7bc96f" stroke-width="1.55" opacity="0.70" stroke-linecap="round"/>
<line x1="651.1" y1="326.9" x2="664.5" y2="306.7" stroke="#d29922" stroke-width="1.20" opacity="0.60" stroke-linecap="round"/>
<line x1="624.7" y1="353.6" x2="658.7" y2="366.3" stroke="#7bc96f" stroke-width="1.55" opacity="0.70" stroke-linecap="round"/>
<line x1="658.7" y1="366.3" x2="684.2" y2="365.2" stroke="#d29922" stroke-width="1.20" opacity="0.60" stroke-linecap="round"/>
<line x1="658.7" y1="366.3" x2="676.1" y2="382.5" stroke="#d29922" stroke-width="1.20" opacity="0.60" stroke-linecap="round"/>
<line x1="515.0" y1="411.5" x2="573.2" y2="459.8" stroke="#4f9ee0" stroke-width="2.25" opacity="0.90" stroke-linecap="round"/>
<line x1="573.2" y1="459.8" x2="625.3" y2="474.1" stroke="#3fb950" stroke-width="1.90" opacity="0.80" stroke-linecap="round"/>
<line x1="625.3" y1="474.1" x2="658.3" y2="468.2" stroke="#7bc96f" stroke-width="1.55" opacity="0.70" stroke-linecap="round"/>
<line x1="658.3" y1="468.2" x2="674.7" y2="452.0" stroke="#d29922" stroke-width="1.20" opacity="0.60" stroke-linecap="round"/>
<line x1="658.3" y1="468.2" x2="679.1" y2="479.5" stroke="#d29922" stroke-width="1.20" opacity="0.60" stroke-linecap="round"/>
<line x1="625.3" y1="474.1" x2="651.4" y2="497.1" stroke="#7bc96f" stroke-width="1.55" opacity="0.70" stroke-linecap="round"/>
<line x1="651.4" y1="497.1" x2="673.6" y2="501.2" stroke="#d29922" stroke-width="1.20" opacity="0.60" stroke-linecap="round"/>
<line x1="651.4" y1="497.1" x2="658.1" y2="520.3" stroke="#d29922" stroke-width="1.20" opacity="0.60" stroke-linecap="round"/>
<line x1="573.2" y1="459.8" x2="591.5" y2="503.3" stroke="#3fb950" stroke-width="1.90" opacity="0.80" stroke-linecap="round"/>
<line x1="591.5" y1="503.3" x2="617.1" y2="518.6" stroke="#7bc96f" stroke-width="1.55" opacity="0.70" stroke-linecap="round"/>
<line x1="617.1" y1="518.6" x2="636.8" y2="517.4" stroke="#d29922" stroke-width="1.20" opacity="0.60" stroke-linecap="round"/>
<line x1="617.1" y1="518.6" x2="626.9" y2="535.4" stroke="#d29922" stroke-width="1.20" opacity="0.60" stroke-linecap="round"/>
<line x1="591.5" y1="503.3" x2="583.1" y2="535.4" stroke="#7bc96f" stroke-width="1.55" opacity="0.70" stroke-linecap="round"/>
<line x1="583.1" y1="535.4" x2="580.4" y2="556.1" stroke="#d29922" stroke-width="1.20" opacity="0.60" stroke-linecap="round"/>
<line x1="410.0" y1="410.0" x2="468.2" y2="497.4" stroke="#58a6ff" stroke-width="2.60" opacity="1.00" stroke-linecap="round"/>
<line x1="468.2" y1="497.4" x2="532.3" y2="531.6" stroke="#4f9ee0" stroke-width="2.25" opacity="0.90" stroke-linecap="round"/>
<line x1="532.3" y1="531.6" x2="583.8" y2="535.2" stroke="#3fb950" stroke-width="1.90" opacity="0.80" stroke-linecap="round"/>
<line x1="583.8" y1="535.2" x2="611.9" y2="517.9" stroke="#7bc96f" stroke-width="1.55" opacity="0.70" stroke-linecap="round"/>
<line x1="611.9" y1="517.9" x2="629.6" y2="507.2" stroke="#d29922" stroke-width="1.20" opacity="0.60" stroke-linecap="round"/>
<line x1="583.8" y1="535.2" x2="609.5" y2="560.4" stroke="#7bc96f" stroke-width="1.55" opacity="0.70" stroke-linecap="round"/>
<line x1="609.5" y1="560.4" x2="632.4" y2="566.9" stroke="#d29922" stroke-width="1.20" opacity="0.60" stroke-linecap="round"/>
<line x1="609.5" y1="560.4" x2="614.7" y2="583.3" stroke="#d29922" stroke-width="1.20" opacity="0.60" stroke-linecap="round"/>
<line x1="532.3" y1="531.6" x2="561.3" y2="572.0" stroke="#3fb950" stroke-width="1.90" opacity="0.80" stroke-linecap="round"/>
<line x1="561.3" y1="572.0" x2="591.6" y2="581.7" stroke="#7bc96f" stroke-width="1.55" opacity="0.70" stroke-linecap="round"/>
<line x1="591.6" y1="581.7" x2="612.2" y2="575.3" stroke="#d29922" stroke-width="1.20" opacity="0.60" stroke-linecap="round"/>
<line x1="591.6" y1="581.7" x2="605.8" y2="597.5" stroke="#d29922" stroke-width="1.20" opacity="0.60" stroke-linecap="round"/>
<line x1="561.3" y1="572.0" x2="563.3" y2="604.4" stroke="#7bc96f" stroke-width="1.55" opacity="0.70" stroke-linecap="round"/>
<line x1="563.3" y1="604.4" x2="563.0" y2="627.4" stroke="#d29922" stroke-width="1.20" opacity="0.60" stroke-linecap="round"/>
<line x1="468.2" y1="497.4" x2="480.5" y2="568.6" stroke="#4f9ee0" stroke-width="2.25" opacity="0.90" stroke-linecap="round"/>
<line x1="480.5" y1="568.6" x2="512.3" y2="607.0" stroke="#3fb950" stroke-width="1.90" opacity="0.80" stroke-linecap="round"/>
<line x1="512.3" y1="607.0" x2="545.2" y2="615.8" stroke="#7bc96f" stroke-width="1.55" opacity="0.70" stroke-linecap="round"/>
<line x1="545.2" y1="615.8" x2="567.1" y2="613.0" stroke="#d29922" stroke-width="1.20" opacity="0.60" stroke-linecap="round"/>
<line x1="545.2" y1="615.8" x2="562.6" y2="630.1" stroke="#d29922" stroke-width="1.20" opacity="0.60" stroke-linecap="round"/>
<line x1="512.3" y1="607.0" x2="515.5" y2="642.3" stroke="#7bc96f" stroke-width="1.55" opacity="0.70" stroke-linecap="round"/>
<line x1="515.5" y1="642.3" x2="510.2" y2="665.7" stroke="#d29922" stroke-width="1.20" opacity="0.60" stroke-linecap="round"/>
<line x1="480.5" y1="568.6" x2="457.5" y2="611.6" stroke="#3fb950" stroke-width="1.90" opacity="0.80" stroke-linecap="round"/>
<line x1="457.5" y1="611.6" x2="458.3" y2="642.7" stroke="#7bc96f" stroke-width="1.55" opacity="0.70" stroke-linecap="round"/>
<line x1="458.3" y1="642.7" x2="460.5" y2="664.8" stroke="#d29922" stroke-width="1.20" opacity="0.60" stroke-linecap="round"/>
<line x1="457.5" y1="611.6" x2="427.6" y2="627.5" stroke="#7bc96f" stroke-width="1.55" opacity="0.70" stroke-linecap="round"/>
<line x1="427.6" y1="627.5" x2="407.2" y2="635.4" stroke="#d29922" stroke-width="1.20" opacity="0.60" stroke-linecap="round"/>
<line x1="410.0" y1="410.0" x2="353.4" y2="498.4" stroke="#58a6ff" stroke-width="2.60" opacity="1.00" stroke-linecap="round"/>
<line x1="353.4" y1="498.4" x2="364.3" y2="564.4" stroke="#4f9ee0" stroke-width="2.25" opacity="0.90" stroke-linecap="round"/>
<line x1="364.3" y1="564.4" x2="387.0" y2="603.1" stroke="#3fb950" stroke-width="1.90" opacity="0.80" stroke-linecap="round"/>
<line x1="387.0" y1="603.1" x2="414.4" y2="614.4" stroke="#7bc96f" stroke-width="1.55" opacity="0.70" stroke-linecap="round"/>
<line x1="414.4" y1="614.4" x2="434.4" y2="612.6" stroke="#d29922" stroke-width="1.20" opacity="0.60" stroke-linecap="round"/>
<line x1="414.4" y1="614.4" x2="426.0" y2="631.4" stroke="#d29922" stroke-width="1.20" opacity="0.60" stroke-linecap="round"/>
<line x1="387.0" y1="603.1" x2="384.3" y2="633.0" stroke="#7bc96f" stroke-width="1.55" opacity="0.70" stroke-linecap="round"/>
<line x1="384.3" y1="633.0" x2="377.9" y2="653.3" stroke="#d29922" stroke-width="1.20" opacity="0.60" stroke-linecap="round"/>
<line x1="364.3" y1="564.4" x2="354.1" y2="609.2" stroke="#3fb950" stroke-width="1.90" opacity="0.80" stroke-linecap="round"/>
<line x1="354.1" y1="609.2" x2="362.9" y2="638.2" stroke="#7bc96f" stroke-width="1.55" opacity="0.70" stroke-linecap="round"/>
<line x1="362.9" y1="638.2" x2="365.9" y2="659.0" stroke="#d29922" stroke-width="1.20" opacity="0.60" stroke-linecap="round"/>
<line x1="354.1" y1="609.2" x2="333.9" y2="635.2" stroke="#7bc96f" stroke-width="1.55" opacity="0.70" stroke-linecap="round"/>
<line x1="333.9" y1="635.2" x2="333.6" y2="655.7" stroke="#d29922" stroke-width="1.20" opacity="0.60" stroke-linecap="round"/>
<line x1="333.9" y1="635.2" x2="313.2" y2="642.0" stroke="#d29922" stroke-width="1.20" opacity="0.60" stroke-linecap="round"/>
<line x1="353.4" y1="498.4" x2="287.9" y2="515.9" stroke="#4f9ee0" stroke-width="2.25" opacity="0.90" stroke-linecap="round"/>
<line x1="287.9" y1="515.9" x2="254.3" y2="550.3" stroke="#3fb950" stroke-width="1.90" opacity="0.80" stroke-linecap="round"/>
<line x1="254.3" y1="550.3" x2="250.3" y2="583.0" stroke="#7bc96f" stroke-width="1.55" opacity="0.70" stroke-linecap="round"/>
<line x1="250.3" y1="583.0" x2="260.5" y2="604.3" stroke="#d29922" stroke-width="1.20" opacity="0.60" stroke-linecap="round"/>
<line x1="250.3" y1="583.0" x2="238.0" y2="599.5" stroke="#d29922" stroke-width="1.20" opacity="0.60" stroke-linecap="round"/>
<line x1="254.3" y1="550.3" x2="221.9" y2="556.8" stroke="#7bc96f" stroke-width="1.55" opacity="0.70" stroke-linecap="round"/>
<line x1="221.9" y1="556.8" x2="202.9" y2="566.0" stroke="#d29922" stroke-width="1.20" opacity="0.60" stroke-linecap="round"/>
<line x1="287.9" y1="515.9" x2="247.1" y2="499.3" stroke="#3fb950" stroke-width="1.90" opacity="0.80" stroke-linecap="round"/>
<line x1="247.1" y1="499.3" x2="216.7" y2="504.0" stroke="#7bc96f" stroke-width="1.55" opacity="0.70" stroke-linecap="round"/>
<line x1="216.7" y1="504.0" x2="200.1" y2="518.0" stroke="#d29922" stroke-width="1.20" opacity="0.60" stroke-linecap="round"/>
<line x1="216.7" y1="504.0" x2="197.2" y2="497.1" stroke="#d29922" stroke-width="1.20" opacity="0.60" stroke-linecap="round"/>
<line x1="247.1" y1="499.3" x2="229.0" y2="476.3" stroke="#7bc96f" stroke-width="1.55" opacity="0.70" stroke-linecap="round"/>
<line x1="229.0" y1="476.3" x2="210.1" y2="469.9" stroke="#d29922" stroke-width="1.20" opacity="0.60" stroke-linecap="round"/>
<line x1="229.0" y1="476.3" x2="229.2" y2="456.6" stroke="#d29922" stroke-width="1.20" opacity="0.60" stroke-linecap="round"/>
<line x1="410.0" y1="410.0" x2="305.1" y2="405.0" stroke="#58a6ff" stroke-width="2.60" opacity="1.00" stroke-linecap="round"/>
<line x1="305.1" y1="405.0" x2="246.7" y2="445.6" stroke="#4f9ee0" stroke-width="2.25" opacity="0.90" stroke-linecap="round"/>
<line x1="246.7" y1="445.6" x2="233.5" y2="490.1" stroke="#3fb950" stroke-width="1.90" opacity="0.80" stroke-linecap="round"/>
<line x1="233.5" y1="490.1" x2="234.8" y2="519.7" stroke="#7bc96f" stroke-width="1.55" opacity="0.70" stroke-linecap="round"/>
<line x1="234.8" y1="519.7" x2="236.2" y2="539.6" stroke="#d29922" stroke-width="1.20" opacity="0.60" stroke-linecap="round"/>
<line x1="233.5" y1="490.1" x2="212.8" y2="515.8" stroke="#7bc96f" stroke-width="1.55" opacity="0.70" stroke-linecap="round"/>
<line x1="212.8" y1="515.8" x2="205.7" y2="537.8" stroke="#d29922" stroke-width="1.20" opacity="0.60" stroke-linecap="round"/>
<line x1="212.8" y1="515.8" x2="191.3" y2="525.2" stroke="#d29922" stroke-width="1.20" opacity="0.60" stroke-linecap="round"/>
<line x1="246.7" y1="445.6" x2="202.0" y2="442.9" stroke="#3fb950" stroke-width="1.90" opacity="0.80" stroke-linecap="round"/>
<line x1="202.0" y1="442.9" x2="178.6" y2="460.9" stroke="#7bc96f" stroke-width="1.55" opacity="0.70" stroke-linecap="round"/>
<line x1="178.6" y1="460.9" x2="170.4" y2="479.9" stroke="#d29922" stroke-width="1.20" opacity="0.60" stroke-linecap="round"/>
<line x1="178.6" y1="460.9" x2="159.1" y2="463.2" stroke="#d29922" stroke-width="1.20" opacity="0.60" stroke-linecap="round"/>
<line x1="202.0" y1="442.9" x2="178.8" y2="420.5" stroke="#7bc96f" stroke-width="1.55" opacity="0.70" stroke-linecap="round"/>
<line x1="178.8" y1="420.5" x2="161.1" y2="409.1" stroke="#d29922" stroke-width="1.20" opacity="0.60" stroke-linecap="round"/>
<line x1="305.1" y1="405.0" x2="250.5" y2="356.3" stroke="#4f9ee0" stroke-width="2.25" opacity="0.90" stroke-linecap="round"/>
<line x1="250.5" y1="356.3" x2="200.5" y2="343.1" stroke="#3fb950" stroke-width="1.90" opacity="0.80" stroke-linecap="round"/>
<line x1="200.5" y1="343.1" x2="167.5" y2="352.1" stroke="#7bc96f" stroke-width="1.55" opacity="0.70" stroke-linecap="round"/>
<line x1="167.5" y1="352.1" x2="144.9" y2="350.4" stroke="#d29922" stroke-width="1.20" opacity="0.60" stroke-linecap="round"/>
<line x1="200.5" y1="343.1" x2="173.1" y2="322.8" stroke="#7bc96f" stroke-width="1.55" opacity="0.70" stroke-linecap="round"/>
<line x1="173.1" y1="322.8" x2="151.6" y2="321.9" stroke="#d29922" stroke-width="1.20" opacity="0.60" stroke-linecap="round"/>
<line x1="173.1" y1="322.8" x2="166.8" y2="301.9" stroke="#d29922" stroke-width="1.20" opacity="0.60" stroke-linecap="round"/>
<line x1="250.5" y1="356.3" x2="239.5" y2="312.2" stroke="#3fb950" stroke-width="1.90" opacity="0.80" stroke-linecap="round"/>
<line x1="239.5" y1="312.2" x2="221.2" y2="287.3" stroke="#7bc96f" stroke-width="1.55" opacity="0.70" stroke-linecap="round"/>
<line x1="221.2" y1="287.3" x2="204.4" y2="274.9" stroke="#d29922" stroke-width="1.20" opacity="0.60" stroke-linecap="round"/>
<line x1="239.5" y1="312.2" x2="243.7" y2="283.3" stroke="#7bc96f" stroke-width="1.55" opacity="0.70" stroke-linecap="round"/>
<line x1="243.7" y1="283.3" x2="235.6" y2="266.6" stroke="#d29922" stroke-width="1.20" opacity="0.60" stroke-linecap="round"/>
<line x1="243.7" y1="283.3" x2="257.7" y2="268.1" stroke="#d29922" stroke-width="1.20" opacity="0.60" stroke-linecap="round"/>
<line x1="410.0" y1="410.0" x2="363.9" y2="315.7" stroke="#58a6ff" stroke-width="2.60" opacity="1.00" stroke-linecap="round"/>
<line x1="363.9" y1="315.7" x2="302.6" y2="277.2" stroke="#4f9ee0" stroke-width="2.25" opacity="0.90" stroke-linecap="round"/>
<line x1="302.6" y1="277.2" x2="255.7" y2="275.6" stroke="#3fb950" stroke-width="1.90" opacity="0.80" stroke-linecap="round"/>
<line x1="255.7" y1="275.6" x2="230.3" y2="291.2" stroke="#7bc96f" stroke-width="1.55" opacity="0.70" stroke-linecap="round"/>
<line x1="230.3" y1="291.2" x2="212.0" y2="299.9" stroke="#d29922" stroke-width="1.20" opacity="0.60" stroke-linecap="round"/>
<line x1="255.7" y1="275.6" x2="229.7" y2="260.2" stroke="#7bc96f" stroke-width="1.55" opacity="0.70" stroke-linecap="round"/>
<line x1="229.7" y1="260.2" x2="210.8" y2="250.1" stroke="#d29922" stroke-width="1.20" opacity="0.60" stroke-linecap="round"/>
<line x1="302.6" y1="277.2" x2="278.8" y2="238.7" stroke="#3fb950" stroke-width="1.90" opacity="0.80" stroke-linecap="round"/>
<line x1="278.8" y1="238.7" x2="252.3" y2="225.6" stroke="#7bc96f" stroke-width="1.55" opacity="0.70" stroke-linecap="round"/>
<line x1="252.3" y1="225.6" x2="235.7" y2="217.1" stroke="#d29922" stroke-width="1.20" opacity="0.60" stroke-linecap="round"/>
<line x1="278.8" y1="238.7" x2="278.6" y2="210.4" stroke="#7bc96f" stroke-width="1.55" opacity="0.70" stroke-linecap="round"/>
<line x1="278.6" y1="210.4" x2="274.9" y2="190.8" stroke="#d29922" stroke-width="1.20" opacity="0.60" stroke-linecap="round"/>
<line x1="363.9" y1="315.7" x2="367.4" y2="249.2" stroke="#4f9ee0" stroke-width="2.25" opacity="0.90" stroke-linecap="round"/>
<line x1="367.4" y1="249.2" x2="341.1" y2="211.5" stroke="#3fb950" stroke-width="1.90" opacity="0.80" stroke-linecap="round"/>
<line x1="341.1" y1="211.5" x2="316.8" y2="193.2" stroke="#7bc96f" stroke-width="1.55" opacity="0.70" stroke-linecap="round"/>
<line x1="316.8" y1="193.2" x2="295.6" y2="191.8" stroke="#d29922" stroke-width="1.20" opacity="0.60" stroke-linecap="round"/>
<line x1="316.8" y1="193.2" x2="309.8" y2="174.2" stroke="#d29922" stroke-width="1.20" opacity="0.60" stroke-linecap="round"/>
<line x1="341.1" y1="211.5" x2="336.8" y2="181.3" stroke="#7bc96f" stroke-width="1.55" opacity="0.70" stroke-linecap="round"/>
<line x1="336.8" y1="181.3" x2="321.4" y2="167.1" stroke="#d29922" stroke-width="1.20" opacity="0.60" stroke-linecap="round"/>
<line x1="336.8" y1="181.3" x2="348.0" y2="162.9" stroke="#d29922" stroke-width="1.20" opacity="0.60" stroke-linecap="round"/>
<line x1="367.4" y1="249.2" x2="396.7" y2="219.4" stroke="#3fb950" stroke-width="1.90" opacity="0.80" stroke-linecap="round"/>
<line x1="396.7" y1="219.4" x2="400.9" y2="190.4" stroke="#7bc96f" stroke-width="1.55" opacity="0.70" stroke-linecap="round"/>
<line x1="400.9" y1="190.4" x2="392.4" y2="174.2" stroke="#d29922" stroke-width="1.20" opacity="0.60" stroke-linecap="round"/>
<line x1="400.9" y1="190.4" x2="414.2" y2="176.2" stroke="#d29922" stroke-width="1.20" opacity="0.60" stroke-linecap="round"/>
<line x1="396.7" y1="219.4" x2="425.4" y2="216.4" stroke="#7bc96f" stroke-width="1.55" opacity="0.70" stroke-linecap="round"/>
<line x1="425.4" y1="216.4" x2="441.3" y2="206.0" stroke="#d29922" stroke-width="1.20" opacity="0.60" stroke-linecap="round"/>
<line x1="425.4" y1="216.4" x2="443.8" y2="225.9" stroke="#d29922" stroke-width="1.20" opacity="0.60" stroke-linecap="round"/>
<line x1="410.0" y1="410.0" x2="457.8" y2="316.5" stroke="#58a6ff" stroke-width="2.60" opacity="1.00" stroke-linecap="round"/>
<line x1="457.8" y1="316.5" x2="456.5" y2="248.8" stroke="#4f9ee0" stroke-width="2.25" opacity="0.90" stroke-linecap="round"/>
<line x1="456.5" y1="248.8" x2="434.0" y2="207.0" stroke="#3fb950" stroke-width="1.90" opacity="0.80" stroke-linecap="round"/>
<line x1="434.0" y1="207.0" x2="408.3" y2="191.4" stroke="#7bc96f" stroke-width="1.55" opacity="0.70" stroke-linecap="round"/>
<line x1="408.3" y1="191.4" x2="395.4" y2="176.1" stroke="#d29922" stroke-width="1.20" opacity="0.60" stroke-linecap="round"/>
<line x1="434.0" y1="207.0" x2="437.4" y2="174.1" stroke="#7bc96f" stroke-width="1.55" opacity="0.70" stroke-linecap="round"/>
<line x1="437.4" y1="174.1" x2="427.0" y2="153.5" stroke="#d29922" stroke-width="1.20" opacity="0.60" stroke-linecap="round"/>
<line x1="437.4" y1="174.1" x2="451.3" y2="156.7" stroke="#d29922" stroke-width="1.20" opacity="0.60" stroke-linecap="round"/>
<line x1="456.5" y1="248.8" x2="479.2" y2="207.6" stroke="#3fb950" stroke-width="1.90" opacity="0.80" stroke-linecap="round"/>
<line x1="479.2" y1="207.6" x2="476.4" y2="177.5" stroke="#7bc96f" stroke-width="1.55" opacity="0.70" stroke-linecap="round"/>
<line x1="476.4" y1="177.5" x2="464.8" y2="162.5" stroke="#d29922" stroke-width="1.20" opacity="0.60" stroke-linecap="round"/>
<line x1="476.4" y1="177.5" x2="486.9" y2="159.3" stroke="#d29922" stroke-width="1.20" opacity="0.60" stroke-linecap="round"/>
<line x1="479.2" y1="207.6" x2="507.4" y2="191.8" stroke="#7bc96f" stroke-width="1.55" opacity="0.70" stroke-linecap="round"/>
<line x1="507.4" y1="191.8" x2="514.5" y2="171.5" stroke="#d29922" stroke-width="1.20" opacity="0.60" stroke-linecap="round"/>
<line x1="507.4" y1="191.8" x2="528.9" y2="194.1" stroke="#d29922" stroke-width="1.20" opacity="0.60" stroke-linecap="round"/>
<line x1="457.8" y1="316.5" x2="512.2" y2="279.0" stroke="#4f9ee0" stroke-width="2.25" opacity="0.90" stroke-linecap="round"/>
<line x1="512.2" y1="279.0" x2="534.7" y2="237.7" stroke="#3fb950" stroke-width="1.90" opacity="0.80" stroke-linecap="round"/>
<line x1="534.7" y1="237.7" x2="532.2" y2="206.2" stroke="#7bc96f" stroke-width="1.55" opacity="0.70" stroke-linecap="round"/>
<line x1="532.2" y1="206.2" x2="535.7" y2="185.0" stroke="#d29922" stroke-width="1.20" opacity="0.60" stroke-linecap="round"/>
<line x1="534.7" y1="237.7" x2="561.0" y2="219.5" stroke="#7bc96f" stroke-width="1.55" opacity="0.70" stroke-linecap="round"/>
<line x1="561.0" y1="219.5" x2="582.0" y2="214.0" stroke="#d29922" stroke-width="1.20" opacity="0.60" stroke-linecap="round"/>
<line x1="512.2" y1="279.0" x2="554.1" y2="276.5" stroke="#3fb950" stroke-width="1.90" opacity="0.80" stroke-linecap="round"/>
<line x1="554.1" y1="276.5" x2="578.6" y2="260.6" stroke="#7bc96f" stroke-width="1.55" opacity="0.70" stroke-linecap="round"/>
<line x1="578.6" y1="260.6" x2="584.9" y2="243.0" stroke="#d29922" stroke-width="1.20" opacity="0.60" stroke-linecap="round"/>
<line x1="578.6" y1="260.6" x2="597.9" y2="262.5" stroke="#d29922" stroke-width="1.20" opacity="0.60" stroke-linecap="round"/>
<line x1="554.1" y1="276.5" x2="581.0" y2="289.8" stroke="#7bc96f" stroke-width="1.55" opacity="0.70" stroke-linecap="round"/>
<line x1="581.0" y1="289.8" x2="602.5" y2="287.9" stroke="#d29922" stroke-width="1.20" opacity="0.60" stroke-linecap="round"/>
<line x1="581.0" y1="289.8" x2="593.3" y2="306.8" stroke="#d29922" stroke-width="1.20" opacity="0.60" stroke-linecap="round"/>
<circle cx="515.0" cy="411.5" r="2.60" fill="#58a6ff" opacity="0.85"/>
<circle cx="572.8" cy="363.7" r="2.30" fill="#4f9ee0" opacity="0.85"/>
<circle cx="585.4" cy="316.5" r="2.00" fill="#3fb950" opacity="0.85"/>
<circle cx="569.6" cy="286.5" r="1.70" fill="#7bc96f" opacity="0.85"/>
<circle cx="611.8" cy="295.6" r="1.70" fill="#7bc96f" opacity="0.85"/>
<circle cx="624.7" cy="353.6" r="2.00" fill="#3fb950" opacity="0.85"/>
<circle cx="651.1" cy="326.9" r="1.70" fill="#7bc96f" opacity="0.85"/>
<circle cx="658.7" cy="366.3" r="1.70" fill="#7bc96f" opacity="0.85"/>
<circle cx="573.2" cy="459.8" r="2.30" fill="#4f9ee0" opacity="0.85"/>
<circle cx="625.3" cy="474.1" r="2.00" fill="#3fb950" opacity="0.85"/>
<circle cx="658.3" cy="468.2" r="1.70" fill="#7bc96f" opacity="0.85"/>
<circle cx="651.4" cy="497.1" r="1.70" fill="#7bc96f" opacity="0.85"/>
<circle cx="591.5" cy="503.3" r="2.00" fill="#3fb950" opacity="0.85"/>
<circle cx="617.1" cy="518.6" r="1.70" fill="#7bc96f" opacity="0.85"/>
<circle cx="583.1" cy="535.4" r="1.70" fill="#7bc96f" opacity="0.85"/>
<circle cx="468.2" cy="497.4" r="2.60" fill="#58a6ff" opacity="0.85"/>
<circle cx="532.3" cy="531.6" r="2.30" fill="#4f9ee0" opacity="0.85"/>
<circle cx="583.8" cy="535.2" r="2.00" fill="#3fb950" opacity="0.85"/>
<circle cx="611.9" cy="517.9" r="1.70" fill="#7bc96f" opacity="0.85"/>
<circle cx="609.5" cy="560.4" r="1.70" fill="#7bc96f" opacity="0.85"/>
<circle cx="561.3" cy="572.0" r="2.00" fill="#3fb950" opacity="0.85"/>
<circle cx="591.6" cy="581.7" r="1.70" fill="#7bc96f" opacity="0.85"/>
<circle cx="563.3" cy="604.4" r="1.70" fill="#7bc96f" opacity="0.85"/>
<circle cx="480.5" cy="568.6" r="2.30" fill="#4f9ee0" opacity="0.85"/>
<circle cx="512.3" cy="607.0" r="2.00" fill="#3fb950" opacity="0.85"/>
<circle cx="545.2" cy="615.8" r="1.70" fill="#7bc96f" opacity="0.85"/>
<circle cx="515.5" cy="642.3" r="1.70" fill="#7bc96f" opacity="0.85"/>
<circle cx="457.5" cy="611.6" r="2.00" fill="#3fb950" opacity="0.85"/>
<circle cx="458.3" cy="642.7" r="1.70" fill="#7bc96f" opacity="0.85"/>
<circle cx="427.6" cy="627.5" r="1.70" fill="#7bc96f" opacity="0.85"/>
<circle cx="353.4" cy="498.4" r="2.60" fill="#58a6ff" opacity="0.85"/>
<circle cx="364.3" cy="564.4" r="2.30" fill="#4f9ee0" opacity="0.85"/>
<circle cx="387.0" cy="603.1" r="2.00" fill="#3fb950" opacity="0.85"/>
<circle cx="414.4" cy="614.4" r="1.70" fill="#7bc96f" opacity="0.85"/>
<circle cx="384.3" cy="633.0" r="1.70" fill="#7bc96f" opacity="0.85"/>
<circle cx="354.1" cy="609.2" r="2.00" fill="#3fb950" opacity="0.85"/>
<circle cx="362.9" cy="638.2" r="1.70" fill="#7bc96f" opacity="0.85"/>
<circle cx="333.9" cy="635.2" r="1.70" fill="#7bc96f" opacity="0.85"/>
<circle cx="287.9" cy="515.9" r="2.30" fill="#4f9ee0" opacity="0.85"/>
<circle cx="254.3" cy="550.3" r="2.00" fill="#3fb950" opacity="0.85"/>
<circle cx="250.3" cy="583.0" r="1.70" fill="#7bc96f" opacity="0.85"/>
<circle cx="221.9" cy="556.8" r="1.70" fill="#7bc96f" opacity="0.85"/>
<circle cx="247.1" cy="499.3" r="2.00" fill="#3fb950" opacity="0.85"/>
<circle cx="216.7" cy="504.0" r="1.70" fill="#7bc96f" opacity="0.85"/>
<circle cx="229.0" cy="476.3" r="1.70" fill="#7bc96f" opacity="0.85"/>
<circle cx="305.1" cy="405.0" r="2.60" fill="#58a6ff" opacity="0.85"/>
<circle cx="246.7" cy="445.6" r="2.30" fill="#4f9ee0" opacity="0.85"/>
<circle cx="233.5" cy="490.1" r="2.00" fill="#3fb950" opacity="0.85"/>
<circle cx="234.8" cy="519.7" r="1.70" fill="#7bc96f" opacity="0.85"/>
<circle cx="212.8" cy="515.8" r="1.70" fill="#7bc96f" opacity="0.85"/>
<circle cx="202.0" cy="442.9" r="2.00" fill="#3fb950" opacity="0.85"/>
<circle cx="178.6" cy="460.9" r="1.70" fill="#7bc96f" opacity="0.85"/>
<circle cx="178.8" cy="420.5" r="1.70" fill="#7bc96f" opacity="0.85"/>
<circle cx="250.5" cy="356.3" r="2.30" fill="#4f9ee0" opacity="0.85"/>
<circle cx="200.5" cy="343.1" r="2.00" fill="#3fb950" opacity="0.85"/>
<circle cx="167.5" cy="352.1" r="1.70" fill="#7bc96f" opacity="0.85"/>
<circle cx="173.1" cy="322.8" r="1.70" fill="#7bc96f" opacity="0.85"/>
<circle cx="239.5" cy="312.2" r="2.00" fill="#3fb950" opacity="0.85"/>
<circle cx="221.2" cy="287.3" r="1.70" fill="#7bc96f" opacity="0.85"/>
<circle cx="243.7" cy="283.3" r="1.70" fill="#7bc96f" opacity="0.85"/>
<circle cx="363.9" cy="315.7" r="2.60" fill="#58a6ff" opacity="0.85"/>
<circle cx="302.6" cy="277.2" r="2.30" fill="#4f9ee0" opacity="0.85"/>
<circle cx="255.7" cy="275.6" r="2.00" fill="#3fb950" opacity="0.85"/>
<circle cx="230.3" cy="291.2" r="1.70" fill="#7bc96f" opacity="0.85"/>
<circle cx="229.7" cy="260.2" r="1.70" fill="#7bc96f" opacity="0.85"/>
<circle cx="278.8" cy="238.7" r="2.00" fill="#3fb950" opacity="0.85"/>
<circle cx="252.3" cy="225.6" r="1.70" fill="#7bc96f" opacity="0.85"/>
<circle cx="278.6" cy="210.4" r="1.70" fill="#7bc96f" opacity="0.85"/>
<circle cx="367.4" cy="249.2" r="2.30" fill="#4f9ee0" opacity="0.85"/>
<circle cx="341.1" cy="211.5" r="2.00" fill="#3fb950" opacity="0.85"/>
<circle cx="316.8" cy="193.2" r="1.70" fill="#7bc96f" opacity="0.85"/>
<circle cx="336.8" cy="181.3" r="1.70" fill="#7bc96f" opacity="0.85"/>
<circle cx="396.7" cy="219.4" r="2.00" fill="#3fb950" opacity="0.85"/>
<circle cx="400.9" cy="190.4" r="1.70" fill="#7bc96f" opacity="0.85"/>
<circle cx="425.4" cy="216.4" r="1.70" fill="#7bc96f" opacity="0.85"/>
<circle cx="457.8" cy="316.5" r="2.60" fill="#58a6ff" opacity="0.85"/>
<circle cx="456.5" cy="248.8" r="2.30" fill="#4f9ee0" opacity="0.85"/>
<circle cx="434.0" cy="207.0" r="2.00" fill="#3fb950" opacity="0.85"/>
<circle cx="408.3" cy="191.4" r="1.70" fill="#7bc96f" opacity="0.85"/>
<circle cx="437.4" cy="174.1" r="1.70" fill="#7bc96f" opacity="0.85"/>
<circle cx="479.2" cy="207.6" r="2.00" fill="#3fb950" opacity="0.85"/>
<circle cx="476.4" cy="177.5" r="1.70" fill="#7bc96f" opacity="0.85"/>
<circle cx="507.4" cy="191.8" r="1.70" fill="#7bc96f" opacity="0.85"/>
<circle cx="512.2" cy="279.0" r="2.30" fill="#4f9ee0" opacity="0.85"/>
<circle cx="534.7" cy="237.7" r="2.00" fill="#3fb950" opacity="0.85"/>
<circle cx="532.2" cy="206.2" r="1.70" fill="#7bc96f" opacity="0.85"/>
<circle cx="561.0" cy="219.5" r="1.70" fill="#7bc96f" opacity="0.85"/>
<circle cx="554.1" cy="276.5" r="2.00" fill="#3fb950" opacity="0.85"/>
<circle cx="578.6" cy="260.6" r="1.70" fill="#7bc96f" opacity="0.85"/>
<circle cx="581.0" cy="289.8" r="1.70" fill="#7bc96f" opacity="0.85"/>
<circle cx="549.8" cy="276.0" r="3" fill="none" stroke="#d29922" stroke-width="1" opacity="0.6"/>
<circle cx="572.3" cy="264.0" r="3" fill="none" stroke="#d29922" stroke-width="1" opacity="0.6"/>
<circle cx="622.1" cy="276.2" r="3" fill="none" stroke="#d29922" stroke-width="1" opacity="0.6"/>
<circle cx="634.5" cy="288.1" r="3" fill="none" stroke="#d29922" stroke-width="1" opacity="0.6"/>
<circle cx="664.5" cy="306.7" r="3" fill="none" stroke="#d29922" stroke-width="1" opacity="0.6"/>
<circle cx="684.2" cy="365.2" r="3" fill="none" stroke="#d29922" stroke-width="1" opacity="0.6"/>
<circle cx="676.1" cy="382.5" r="3" fill="none" stroke="#d29922" stroke-width="1" opacity="0.6"/>
<circle cx="674.7" cy="452.0" r="3" fill="none" stroke="#d29922" stroke-width="1" opacity="0.6"/>
<circle cx="679.1" cy="479.5" r="3" fill="none" stroke="#d29922" stroke-width="1" opacity="0.6"/>
<circle cx="673.6" cy="501.2" r="3" fill="none" stroke="#d29922" stroke-width="1" opacity="0.6"/>
<circle cx="658.1" cy="520.3" r="3" fill="none" stroke="#d29922" stroke-width="1" opacity="0.6"/>
<circle cx="636.8" cy="517.4" r="3" fill="none" stroke="#d29922" stroke-width="1" opacity="0.6"/>
<circle cx="626.9" cy="535.4" r="3" fill="none" stroke="#d29922" stroke-width="1" opacity="0.6"/>
<circle cx="580.4" cy="556.1" r="3" fill="none" stroke="#d29922" stroke-width="1" opacity="0.6"/>
<circle cx="629.6" cy="507.2" r="3" fill="none" stroke="#d29922" stroke-width="1" opacity="0.6"/>
<circle cx="632.4" cy="566.9" r="3" fill="none" stroke="#d29922" stroke-width="1" opacity="0.6"/>
<circle cx="614.7" cy="583.3" r="3" fill="none" stroke="#d29922" stroke-width="1" opacity="0.6"/>
<circle cx="612.2" cy="575.3" r="3" fill="none" stroke="#d29922" stroke-width="1" opacity="0.6"/>
<circle cx="605.8" cy="597.5" r="3" fill="none" stroke="#d29922" stroke-width="1" opacity="0.6"/>
<circle cx="563.0" cy="627.4" r="3" fill="none" stroke="#d29922" stroke-width="1" opacity="0.6"/>
<circle cx="567.1" cy="613.0" r="3" fill="none" stroke="#d29922" stroke-width="1" opacity="0.6"/>
<circle cx="562.6" cy="630.1" r="3" fill="none" stroke="#d29922" stroke-width="1" opacity="0.6"/>
<circle cx="510.2" cy="665.7" r="3" fill="none" stroke="#d29922" stroke-width="1" opacity="0.6"/>
<circle cx="460.5" cy="664.8" r="3" fill="none" stroke="#d29922" stroke-width="1" opacity="0.6"/>
<circle cx="407.2" cy="635.4" r="3" fill="none" stroke="#d29922" stroke-width="1" opacity="0.6"/>
<circle cx="434.4" cy="612.6" r="3" fill="none" stroke="#d29922" stroke-width="1" opacity="0.6"/>
<circle cx="426.0" cy="631.4" r="3" fill="none" stroke="#d29922" stroke-width="1" opacity="0.6"/>
<circle cx="377.9" cy="653.3" r="3" fill="none" stroke="#d29922" stroke-width="1" opacity="0.6"/>
<circle cx="365.9" cy="659.0" r="3" fill="none" stroke="#d29922" stroke-width="1" opacity="0.6"/>
<circle cx="333.6" cy="655.7" r="3" fill="none" stroke="#d29922" stroke-width="1" opacity="0.6"/>
<circle cx="313.2" cy="642.0" r="3" fill="none" stroke="#d29922" stroke-width="1" opacity="0.6"/>
<circle cx="260.5" cy="604.3" r="3" fill="none" stroke="#d29922" stroke-width="1" opacity="0.6"/>
<circle cx="238.0" cy="599.5" r="3" fill="none" stroke="#d29922" stroke-width="1" opacity="0.6"/>
<circle cx="202.9" cy="566.0" r="3" fill="none" stroke="#d29922" stroke-width="1" opacity="0.6"/>
<circle cx="200.1" cy="518.0" r="3" fill="none" stroke="#d29922" stroke-width="1" opacity="0.6"/>
<circle cx="197.2" cy="497.1" r="3" fill="none" stroke="#d29922" stroke-width="1" opacity="0.6"/>
<circle cx="210.1" cy="469.9" r="3" fill="none" stroke="#d29922" stroke-width="1" opacity="0.6"/>
<circle cx="229.2" cy="456.6" r="3" fill="none" stroke="#d29922" stroke-width="1" opacity="0.6"/>
<circle cx="236.2" cy="539.6" r="3" fill="none" stroke="#d29922" stroke-width="1" opacity="0.6"/>
<circle cx="205.7" cy="537.8" r="3" fill="none" stroke="#d29922" stroke-width="1" opacity="0.6"/>
<circle cx="191.3" cy="525.2" r="3" fill="none" stroke="#d29922" stroke-width="1" opacity="0.6"/>
<circle cx="170.4" cy="479.9" r="3" fill="none" stroke="#d29922" stroke-width="1" opacity="0.6"/>
<circle cx="159.1" cy="463.2" r="3" fill="none" stroke="#d29922" stroke-width="1" opacity="0.6"/>
<circle cx="161.1" cy="409.1" r="3" fill="none" stroke="#d29922" stroke-width="1" opacity="0.6"/>
<circle cx="144.9" cy="350.4" r="3" fill="none" stroke="#d29922" stroke-width="1" opacity="0.6"/>
<circle cx="151.6" cy="321.9" r="3" fill="none" stroke="#d29922" stroke-width="1" opacity="0.6"/>
<circle cx="166.8" cy="301.9" r="3" fill="none" stroke="#d29922" stroke-width="1" opacity="0.6"/>
<circle cx="204.4" cy="274.9" r="3" fill="none" stroke="#d29922" stroke-width="1" opacity="0.6"/>
<circle cx="235.6" cy="266.6" r="3" fill="none" stroke="#d29922" stroke-width="1" opacity="0.6"/>
<circle cx="257.7" cy="268.1" r="3" fill="none" stroke="#d29922" stroke-width="1" opacity="0.6"/>
<circle cx="212.0" cy="299.9" r="3" fill="none" stroke="#d29922" stroke-width="1" opacity="0.6"/>
<circle cx="210.8" cy="250.1" r="3" fill="none" stroke="#d29922" stroke-width="1" opacity="0.6"/>
<circle cx="235.7" cy="217.1" r="3" fill="none" stroke="#d29922" stroke-width="1" opacity="0.6"/>
<circle cx="274.9" cy="190.8" r="3" fill="none" stroke="#d29922" stroke-width="1" opacity="0.6"/>
<circle cx="295.6" cy="191.8" r="3" fill="none" stroke="#d29922" stroke-width="1" opacity="0.6"/>
<circle cx="309.8" cy="174.2" r="3" fill="none" stroke="#d29922" stroke-width="1" opacity="0.6"/>
<circle cx="321.4" cy="167.1" r="3" fill="none" stroke="#d29922" stroke-width="1" opacity="0.6"/>
<circle cx="348.0" cy="162.9" r="3" fill="none" stroke="#d29922" stroke-width="1" opacity="0.6"/>
<circle cx="392.4" cy="174.2" r="3" fill="none" stroke="#d29922" stroke-width="1" opacity="0.6"/>
<circle cx="414.2" cy="176.2" r="3" fill="none" stroke="#d29922" stroke-width="1" opacity="0.6"/>
<circle cx="441.3" cy="206.0" r="3" fill="none" stroke="#d29922" stroke-width="1" opacity="0.6"/>
<circle cx="443.8" cy="225.9" r="3" fill="none" stroke="#d29922" stroke-width="1" opacity="0.6"/>
<circle cx="395.4" cy="176.1" r="3" fill="none" stroke="#d29922" stroke-width="1" opacity="0.6"/>
<circle cx="427.0" cy="153.5" r="3" fill="none" stroke="#d29922" stroke-width="1" opacity="0.6"/>
<circle cx="451.3" cy="156.7" r="3" fill="none" stroke="#d29922" stroke-width="1" opacity="0.6"/>
<circle cx="464.8" cy="162.5" r="3" fill="none" stroke="#d29922" stroke-width="1" opacity="0.6"/>
<circle cx="486.9" cy="159.3" r="3" fill="none" stroke="#d29922" stroke-width="1" opacity="0.6"/>
<circle cx="514.5" cy="171.5" r="3" fill="none" stroke="#d29922" stroke-width="1" opacity="0.6"/>
<circle cx="528.9" cy="194.1" r="3" fill="none" stroke="#d29922" stroke-width="1" opacity="0.6"/>
<circle cx="535.7" cy="185.0" r="3" fill="none" stroke="#d29922" stroke-width="1" opacity="0.6"/>
<circle cx="582.0" cy="214.0" r="3" fill="none" stroke="#d29922" stroke-width="1" opacity="0.6"/>
<circle cx="584.9" cy="243.0" r="3" fill="none" stroke="#d29922" stroke-width="1" opacity="0.6"/>
<circle cx="597.9" cy="262.5" r="3" fill="none" stroke="#d29922" stroke-width="1" opacity="0.6"/>
<circle cx="602.5" cy="287.9" r="3" fill="none" stroke="#d29922" stroke-width="1" opacity="0.6"/>
<circle cx="593.3" cy="306.8" r="3" fill="none" stroke="#d29922" stroke-width="1" opacity="0.6"/>
<circle cx="410.0" cy="410.0" r="10" fill="#0d1117" stroke="#58a6ff" stroke-width="2"/>
<circle cx="410.0" cy="410.0" r="4" fill="#58a6ff"/>
<circle r="2.4" fill="#7ee787"><animateMotion dur="3.7s" begin="2.11s" repeatCount="indefinite" path="M651.4,497.1 L673.6,501.2"/></circle>
<circle r="2.4" fill="#f2cc60"><animateMotion dur="2.38s" begin="1.75s" repeatCount="indefinite" path="M247.1,499.3 L216.7,504.0"/></circle>
<circle r="2.4" fill="#79c0ff"><animateMotion dur="3.25s" begin="1.85s" repeatCount="indefinite" path="M410.0,410.0 L468.2,497.4"/></circle>
<circle r="2.4" fill="#7ee787"><animateMotion dur="3.26s" begin="1.97s" repeatCount="indefinite" path="M611.8,295.6 L622.1,276.2"/></circle>
<circle r="2.4" fill="#f2cc60"><animateMotion dur="2.54s" begin="1.48s" repeatCount="indefinite" path="M333.9,635.2 L333.6,655.7"/></circle>
<circle r="2.4" fill="#79c0ff"><animateMotion dur="3.67s" begin="2.39s" repeatCount="indefinite" path="M458.3,642.7 L460.5,664.8"/></circle>
<circle r="2.4" fill="#7ee787"><animateMotion dur="3.11s" begin="2.09s" repeatCount="indefinite" path="M410.0,410.0 L457.8,316.5"/></circle>
<text x="806" y="806" text-anchor="end" font-size="9" fill="#484f58" letter-spacing="1">// circuit_bloom.py — seed:20260806 — spokes:6 — regenerated daily</text>
</svg>