<svg viewBox="0 0 820 820" width="820" height="820" xmlns="http://www.w3.org/2000/svg" font-family="'Fira Code',monospace">
<defs>
<pattern id="g2" width="22" height="22" patternUnits="userSpaceOnUse">
<path d="M 22 0 L 0 0 0 22" fill="none" stroke="#30363d" stroke-width="0.4" opacity="0.3"/>
</pattern>
<radialGradient id="glow" cx="50%" cy="50%" r="50%">
<stop offset="0%" stop-color="#58a6ff" stop-opacity="0.35"/>
<stop offset="100%" stop-color="#58a6ff" stop-opacity="0"/>
</radialGradient>
</defs>
<rect x="0" y="0" width="820" height="820" fill="#0d1117"/>
<rect x="0" y="0" width="820" height="820" fill="url(#g2)"/>
<circle cx="410.0" cy="410.0" r="230" fill="url(#glow)"/>
<line x1="410.0" y1="410.0" x2="515.0" y2="412.5" stroke="#58a6ff" stroke-width="2.60" opacity="1.00" stroke-linecap="round"/>
<line x1="515.0" y1="412.5" x2="574.9" y2="384.3" stroke="#4f9ee0" stroke-width="2.25" opacity="0.90" stroke-linecap="round"/>
<line x1="574.9" y1="384.3" x2="596.5" y2="346.6" stroke="#3fb950" stroke-width="1.90" opacity="0.80" stroke-linecap="round"/>
<line x1="596.5" y1="346.6" x2="591.7" y2="318.4" stroke="#7bc96f" stroke-width="1.55" opacity="0.70" stroke-linecap="round"/>
<line x1="591.7" y1="318.4" x2="582.3" y2="302.4" stroke="#d29922" stroke-width="1.20" opacity="0.60" stroke-linecap="round"/>
<line x1="591.7" y1="318.4" x2="595.0" y2="300.9" stroke="#d29922" stroke-width="1.20" opacity="0.60" stroke-linecap="round"/>
<line x1="596.5" y1="346.6" x2="620.7" y2="332.9" stroke="#7bc96f" stroke-width="1.55" opacity="0.70" stroke-linecap="round"/>
<line x1="620.7" y1="332.9" x2="630.2" y2="315.7" stroke="#d29922" stroke-width="1.20" opacity="0.60" stroke-linecap="round"/>
<line x1="620.7" y1="332.9" x2="638.5" y2="333.7" stroke="#d29922" stroke-width="1.20" opacity="0.60" stroke-linecap="round"/>
<line x1="574.9" y1="384.3" x2="618.2" y2="393.6" stroke="#3fb950" stroke-width="1.90" opacity="0.80" stroke-linecap="round"/>
<line x1="618.2" y1="393.6" x2="642.2" y2="380.0" stroke="#7bc96f" stroke-width="1.55" opacity="0.70" stroke-linecap="round"/>
<line x1="642.2" y1="380.0" x2="661.4" y2="375.3" stroke="#d29922" stroke-width="1.20" opacity="0.60" stroke-linecap="round"/>
<line x1="618.2" y1="393.6" x2="639.3" y2="416.5" stroke="#7bc96f" stroke-width="1.55" opacity="0.70" stroke-linecap="round"/>
<line x1="639.3" y1="416.5" x2="656.2" y2="429.9" stroke="#d29922" stroke-width="1.20" opacity="0.60" stroke-linecap="round"/>
<line x1="515.0" y1="412.5" x2="570.7" y2="448.3" stroke="#4f9ee0" stroke-width="2.25" opacity="0.90" stroke-linecap="round"/>
<line x1="570.7" y1="448.3" x2="615.9" y2="452.4" stroke="#3fb950" stroke-width="1.90" opacity="0.80" stroke-linecap="round"/>
<line x1="615.9" y1="452.4" x2="642.7" y2="439.8" stroke="#7bc96f" stroke-width="1.55" opacity="0.70" stroke-linecap="round"/>
<line x1="642.7" y1="439.8" x2="659.2" y2="431.2" stroke="#d29922" stroke-width="1.20" opacity="0.60" stroke-linecap="round"/>
<line x1="615.9" y1="452.4" x2="643.0" y2="469.4" stroke="#7bc96f" stroke-width="1.55" opacity="0.70" stroke-linecap="round"/>
<line x1="643.0" y1="469.4" x2="664.8" y2="477.0" stroke="#d29922" stroke-width="1.20" opacity="0.60" stroke-linecap="round"/>
<line x1="570.7" y1="448.3" x2="594.1" y2="487.2" stroke="#3fb950" stroke-width="1.90" opacity="0.80" stroke-linecap="round"/>
<line x1="594.1" y1="487.2" x2="619.9" y2="502.5" stroke="#7bc96f" stroke-width="1.55" opacity="0.70" stroke-linecap="round"/>
<line x1="619.9" y1="502.5" x2="641.1" y2="504.0" stroke="#d29922" stroke-width="1.20" opacity="0.60" stroke-linecap="round"/>
<line x1="619.9" y1="502.5" x2="631.0" y2="519.1" stroke="#d29922" stroke-width="1.20" opacity="0.60" stroke-linecap="round"/>
<line x1="594.1" y1="487.2" x2="594.6" y2="515.7" stroke="#7bc96f" stroke-width="1.55" opacity="0.70" stroke-linecap="round"/>
<line x1="594.6" y1="515.7" x2="596.9" y2="534.5" stroke="#d29922" stroke-width="1.20" opacity="0.60" stroke-linecap="round"/>
<line x1="410.0" y1="410.0" x2="456.9" y2="503.9" stroke="#58a6ff" stroke-width="2.60" opacity="1.00" stroke-linecap="round"/>
<line x1="456.9" y1="503.9" x2="513.5" y2="541.9" stroke="#4f9ee0" stroke-width="2.25" opacity="0.90" stroke-linecap="round"/>
<line x1="513.5" y1="541.9" x2="558.3" y2="544.3" stroke="#3fb950" stroke-width="1.90" opacity="0.80" stroke-linecap="round"/>
<line x1="558.3" y1="544.3" x2="586.0" y2="531.1" stroke="#7bc96f" stroke-width="1.55" opacity="0.70" stroke-linecap="round"/>
<line x1="586.0" y1="531.1" x2="602.6" y2="519.2" stroke="#d29922" stroke-width="1.20" opacity="0.60" stroke-linecap="round"/>
<line x1="558.3" y1="544.3" x2="583.8" y2="563.1" stroke="#7bc96f" stroke-width="1.55" opacity="0.70" stroke-linecap="round"/>
<line x1="583.8" y1="563.1" x2="603.7" y2="572.6" stroke="#d29922" stroke-width="1.20" opacity="0.60" stroke-linecap="round"/>
<line x1="513.5" y1="541.9" x2="530.5" y2="583.9" stroke="#3fb950" stroke-width="1.90" opacity="0.80" stroke-linecap="round"/>
<line x1="530.5" y1="583.9" x2="554.5" y2="598.8" stroke="#7bc96f" stroke-width="1.55" opacity="0.70" stroke-linecap="round"/>
<line x1="554.5" y1="598.8" x2="570.3" y2="607.3" stroke="#d29922" stroke-width="1.20" opacity="0.60" stroke-linecap="round"/>
<line x1="530.5" y1="583.9" x2="523.6" y2="615.8" stroke="#7bc96f" stroke-width="1.55" opacity="0.70" stroke-linecap="round"/>
<line x1="523.6" y1="615.8" x2="519.0" y2="637.8" stroke="#d29922" stroke-width="1.20" opacity="0.60" stroke-linecap="round"/>
<line x1="456.9" y1="503.9" x2="463.2" y2="574.5" stroke="#4f9ee0" stroke-width="2.25" opacity="0.90" stroke-linecap="round"/>
<line x1="463.2" y1="574.5" x2="486.5" y2="616.0" stroke="#3fb950" stroke-width="1.90" opacity="0.80" stroke-linecap="round"/>
<line x1="486.5" y1="616.0" x2="516.5" y2="628.9" stroke="#7bc96f" stroke-width="1.55" opacity="0.70" stroke-linecap="round"/>
<line x1="516.5" y1="628.9" x2="538.5" y2="627.6" stroke="#d29922" stroke-width="1.20" opacity="0.60" stroke-linecap="round"/>
<line x1="516.5" y1="628.9" x2="530.6" y2="646.7" stroke="#d29922" stroke-width="1.20" opacity="0.60" stroke-linecap="round"/>
<line x1="486.5" y1="616.0" x2="484.9" y2="647.7" stroke="#7bc96f" stroke-width="1.55" opacity="0.70" stroke-linecap="round"/>
<line x1="484.9" y1="647.7" x2="494.5" y2="666.2" stroke="#d29922" stroke-width="1.20" opacity="0.60" stroke-linecap="round"/>
<line x1="484.9" y1="647.7" x2="474.7" y2="664.7" stroke="#d29922" stroke-width="1.20" opacity="0.60" stroke-linecap="round"/>
<line x1="463.2" y1="574.5" x2="447.8" y2="616.9" stroke="#3fb950" stroke-width="1.90" opacity="0.80" stroke-linecap="round"/>
<line x1="447.8" y1="616.9" x2="451.4" y2="645.4" stroke="#7bc96f" stroke-width="1.55" opacity="0.70" stroke-linecap="round"/>
<line x1="451.4" y1="645.4" x2="462.3" y2="660.0" stroke="#d29922" stroke-width="1.20" opacity="0.60" stroke-linecap="round"/>
<line x1="451.4" y1="645.4" x2="444.3" y2="662.1" stroke="#d29922" stroke-width="1.20" opacity="0.60" stroke-linecap="round"/>
<line x1="447.8" y1="616.9" x2="426.8" y2="639.1" stroke="#7bc96f" stroke-width="1.55" opacity="0.70" stroke-linecap="round"/>
<line x1="426.8" y1="639.1" x2="418.8" y2="657.7" stroke="#d29922" stroke-width="1.20" opacity="0.60" stroke-linecap="round"/>
<line x1="426.8" y1="639.1" x2="408.5" y2="646.7" stroke="#d29922" stroke-width="1.20" opacity="0.60" stroke-linecap="round"/>
<line x1="410.0" y1="410.0" x2="361.7" y2="503.3" stroke="#58a6ff" stroke-width="2.60" opacity="1.00" stroke-linecap="round"/>
<line x1="361.7" y1="503.3" x2="364.2" y2="570.0" stroke="#4f9ee0" stroke-width="2.25" opacity="0.90" stroke-linecap="round"/>
<line x1="364.2" y1="570.0" x2="386.8" y2="611.0" stroke="#3fb950" stroke-width="1.90" opacity="0.80" stroke-linecap="round"/>
<line x1="386.8" y1="611.0" x2="410.2" y2="628.6" stroke="#7bc96f" stroke-width="1.55" opacity="0.70" stroke-linecap="round"/>
<line x1="410.2" y1="628.6" x2="430.8" y2="629.8" stroke="#d29922" stroke-width="1.20" opacity="0.60" stroke-linecap="round"/>
<line x1="410.2" y1="628.6" x2="415.1" y2="648.5" stroke="#d29922" stroke-width="1.20" opacity="0.60" stroke-linecap="round"/>
<line x1="386.8" y1="611.0" x2="391.4" y2="641.3" stroke="#7bc96f" stroke-width="1.55" opacity="0.70" stroke-linecap="round"/>
<line x1="391.4" y1="641.3" x2="395.0" y2="661.1" stroke="#d29922" stroke-width="1.20" opacity="0.60" stroke-linecap="round"/>
<line x1="364.2" y1="570.0" x2="346.1" y2="612.8" stroke="#3fb950" stroke-width="1.90" opacity="0.80" stroke-linecap="round"/>
<line x1="346.1" y1="612.8" x2="347.1" y2="641.6" stroke="#7bc96f" stroke-width="1.55" opacity="0.70" stroke-linecap="round"/>
<line x1="347.1" y1="641.6" x2="355.7" y2="657.6" stroke="#d29922" stroke-width="1.20" opacity="0.60" stroke-linecap="round"/>
<line x1="347.1" y1="641.6" x2="340.6" y2="658.2" stroke="#d29922" stroke-width="1.20" opacity="0.60" stroke-linecap="round"/>
<line x1="346.1" y1="612.8" x2="323.8" y2="636.9" stroke="#7bc96f" stroke-width="1.55" opacity="0.70" stroke-linecap="round"/>
<line x1="323.8" y1="636.9" x2="320.6" y2="657.0" stroke="#d29922" stroke-width="1.20" opacity="0.60" stroke-linecap="round"/>
<line x1="323.8" y1="636.9" x2="303.3" y2="640.3" stroke="#d29922" stroke-width="1.20" opacity="0.60" stroke-linecap="round"/>
<line x1="361.7" y1="503.3" x2="302.3" y2="547.4" stroke="#4f9ee0" stroke-width="2.25" opacity="0.90" stroke-linecap="round"/>
<line x1="302.3" y1="547.4" x2="281.4" y2="596.0" stroke="#3fb950" stroke-width="1.90" opacity="0.80" stroke-linecap="round"/>
<line x1="281.4" y1="596.0" x2="291.4" y2="627.3" stroke="#7bc96f" stroke-width="1.55" opacity="0.70" stroke-linecap="round"/>
<line x1="291.4" y1="627.3" x2="302.9" y2="646.9" stroke="#d29922" stroke-width="1.20" opacity="0.60" stroke-linecap="round"/>
<line x1="281.4" y1="596.0" x2="248.1" y2="611.5" stroke="#7bc96f" stroke-width="1.55" opacity="0.70" stroke-linecap="round"/>
<line x1="248.1" y1="611.5" x2="228.6" y2="624.6" stroke="#d29922" stroke-width="1.20" opacity="0.60" stroke-linecap="round"/>
<line x1="302.3" y1="547.4" x2="255.2" y2="552.5" stroke="#3fb950" stroke-width="1.90" opacity="0.80" stroke-linecap="round"/>
<line x1="255.2" y1="552.5" x2="230.8" y2="573.7" stroke="#7bc96f" stroke-width="1.55" opacity="0.70" stroke-linecap="round"/>
<line x1="230.8" y1="573.7" x2="221.2" y2="593.7" stroke="#d29922" stroke-width="1.20" opacity="0.60" stroke-linecap="round"/>
<line x1="230.8" y1="573.7" x2="209.9" y2="577.9" stroke="#d29922" stroke-width="1.20" opacity="0.60" stroke-linecap="round"/>
<line x1="255.2" y1="552.5" x2="230.1" y2="536.7" stroke="#7bc96f" stroke-width="1.55" opacity="0.70" stroke-linecap="round"/>
<line x1="230.1" y1="536.7" x2="209.7" y2="540.2" stroke="#d29922" stroke-width="1.20" opacity="0.60" stroke-linecap="round"/>
<line x1="230.1" y1="536.7" x2="224.1" y2="517.1" stroke="#d29922" stroke-width="1.20" opacity="0.60" stroke-linecap="round"/>
<line x1="410.0" y1="410.0" x2="305.1" y2="413.7" stroke="#58a6ff" stroke-width="2.60" opacity="1.00" stroke-linecap="round"/>
<line x1="305.1" y1="413.7" x2="249.2" y2="447.9" stroke="#4f9ee0" stroke-width="2.25" opacity="0.90" stroke-linecap="round"/>
<line x1="249.2" y1="447.9" x2="228.2" y2="488.7" stroke="#3fb950" stroke-width="1.90" opacity="0.80" stroke-linecap="round"/>
<line x1="228.2" y1="488.7" x2="227.0" y2="521.1" stroke="#7bc96f" stroke-width="1.55" opacity="0.70" stroke-linecap="round"/>
<line x1="227.0" y1="521.1" x2="222.9" y2="542.9" stroke="#d29922" stroke-width="1.20" opacity="0.60" stroke-linecap="round"/>
<line x1="228.2" y1="488.7" x2="204.8" y2="505.7" stroke="#7bc96f" stroke-width="1.55" opacity="0.70" stroke-linecap="round"/>
<line x1="204.8" y1="505.7" x2="196.3" y2="523.8" stroke="#d29922" stroke-width="1.20" opacity="0.60" stroke-linecap="round"/>
<line x1="204.8" y1="505.7" x2="185.1" y2="506.8" stroke="#d29922" stroke-width="1.20" opacity="0.60" stroke-linecap="round"/>
<line x1="249.2" y1="447.9" x2="202.7" y2="449.6" stroke="#3fb950" stroke-width="1.90" opacity="0.80" stroke-linecap="round"/>
<line x1="202.7" y1="449.6" x2="175.0" y2="468.0" stroke="#7bc96f" stroke-width="1.55" opacity="0.70" stroke-linecap="round"/>
<line x1="175.0" y1="468.0" x2="153.2" y2="475.3" stroke="#d29922" stroke-width="1.20" opacity="0.60" stroke-linecap="round"/>
<line x1="202.7" y1="449.6" x2="178.2" y2="433.6" stroke="#7bc96f" stroke-width="1.55" opacity="0.70" stroke-linecap="round"/>
<line x1="178.2" y1="433.6" x2="160.5" y2="424.4" stroke="#d29922" stroke-width="1.20" opacity="0.60" stroke-linecap="round"/>
<line x1="305.1" y1="413.7" x2="240.8" y2="388.4" stroke="#4f9ee0" stroke-width="2.25" opacity="0.90" stroke-linecap="round"/>
<line x1="240.8" y1="388.4" x2="193.5" y2="394.5" stroke="#3fb950" stroke-width="1.90" opacity="0.80" stroke-linecap="round"/>
<line x1="193.5" y1="394.5" x2="167.5" y2="414.2" stroke="#7bc96f" stroke-width="1.55" opacity="0.70" stroke-linecap="round"/>
<line x1="167.5" y1="414.2" x2="153.4" y2="430.7" stroke="#d29922" stroke-width="1.20" opacity="0.60" stroke-linecap="round"/>
<line x1="193.5" y1="394.5" x2="166.2" y2="381.9" stroke="#7bc96f" stroke-width="1.55" opacity="0.70" stroke-linecap="round"/>
<line x1="166.2" y1="381.9" x2="149.9" y2="372.5" stroke="#d29922" stroke-width="1.20" opacity="0.60" stroke-linecap="round"/>
<line x1="240.8" y1="388.4" x2="213.4" y2="350.6" stroke="#3fb950" stroke-width="1.90" opacity="0.80" stroke-linecap="round"/>
<line x1="213.4" y1="350.6" x2="186.4" y2="339.6" stroke="#7bc96f" stroke-width="1.55" opacity="0.70" stroke-linecap="round"/>
<line x1="186.4" y1="339.6" x2="168.4" y2="329.1" stroke="#d29922" stroke-width="1.20" opacity="0.60" stroke-linecap="round"/>
<line x1="213.4" y1="350.6" x2="213.5" y2="319.7" stroke="#7bc96f" stroke-width="1.55" opacity="0.70" stroke-linecap="round"/>
<line x1="213.5" y1="319.7" x2="202.1" y2="301.2" stroke="#d29922" stroke-width="1.20" opacity="0.60" stroke-linecap="round"/>
<line x1="213.5" y1="319.7" x2="226.2" y2="302.2" stroke="#d29922" stroke-width="1.20" opacity="0.60" stroke-linecap="round"/>
<line x1="410.0" y1="410.0" x2="351.4" y2="322.9" stroke="#58a6ff" stroke-width="2.60" opacity="1.00" stroke-linecap="round"/>
<line x1="351.4" y1="322.9" x2="288.7" y2="293.5" stroke="#4f9ee0" stroke-width="2.25" opacity="0.90" stroke-linecap="round"/>
<line x1="288.7" y1="293.5" x2="240.0" y2="294.5" stroke="#3fb950" stroke-width="1.90" opacity="0.80" stroke-linecap="round"/>
<line x1="240.0" y1="294.5" x2="212.2" y2="309.0" stroke="#7bc96f" stroke-width="1.55" opacity="0.70" stroke-linecap="round"/>
<line x1="212.2" y1="309.0" x2="200.8" y2="327.8" stroke="#d29922" stroke-width="1.20" opacity="0.60" stroke-linecap="round"/>
<line x1="212.2" y1="309.0" x2="191.2" y2="306.7" stroke="#d29922" stroke-width="1.20" opacity="0.60" stroke-linecap="round"/>
<line x1="240.0" y1="294.5" x2="213.2" y2="279.0" stroke="#7bc96f" stroke-width="1.55" opacity="0.70" stroke-linecap="round"/>
<line x1="213.2" y1="279.0" x2="193.1" y2="281.4" stroke="#d29922" stroke-width="1.20" opacity="0.60" stroke-linecap="round"/>
<line x1="213.2" y1="279.0" x2="205.7" y2="258.6" stroke="#d29922" stroke-width="1.20" opacity="0.60" stroke-linecap="round"/>
<line x1="288.7" y1="293.5" x2="260.1" y2="257.0" stroke="#3fb950" stroke-width="1.90" opacity="0.80" stroke-linecap="round"/>
<line x1="260.1" y1="257.0" x2="231.0" y2="245.8" stroke="#7bc96f" stroke-width="1.55" opacity="0.70" stroke-linecap="round"/>
<line x1="231.0" y1="245.8" x2="213.0" y2="234.4" stroke="#d29922" stroke-width="1.20" opacity="0.60" stroke-linecap="round"/>
<line x1="260.1" y1="257.0" x2="255.9" y2="225.0" stroke="#7bc96f" stroke-width="1.55" opacity="0.70" stroke-linecap="round"/>
<line x1="255.9" y1="225.0" x2="246.2" y2="206.0" stroke="#d29922" stroke-width="1.20" opacity="0.60" stroke-linecap="round"/>
<line x1="255.9" y1="225.0" x2="262.0" y2="203.9" stroke="#d29922" stroke-width="1.20" opacity="0.60" stroke-linecap="round"/>
<line x1="351.4" y1="322.9" x2="352.3" y2="252.1" stroke="#4f9ee0" stroke-width="2.25" opacity="0.90" stroke-linecap="round"/>
<line x1="352.3" y1="252.1" x2="331.4" y2="208.7" stroke="#3fb950" stroke-width="1.90" opacity="0.80" stroke-linecap="round"/>
<line x1="331.4" y1="208.7" x2="300.8" y2="197.0" stroke="#7bc96f" stroke-width="1.55" opacity="0.70" stroke-linecap="round"/>
<line x1="300.8" y1="197.0" x2="281.9" y2="186.2" stroke="#d29922" stroke-width="1.20" opacity="0.60" stroke-linecap="round"/>
<line x1="331.4" y1="208.7" x2="338.0" y2="178.2" stroke="#7bc96f" stroke-width="1.55" opacity="0.70" stroke-linecap="round"/>
<line x1="338.0" y1="178.2" x2="345.2" y2="157.8" stroke="#d29922" stroke-width="1.20" opacity="0.60" stroke-linecap="round"/>
<line x1="352.3" y1="252.1" x2="374.9" y2="214.1" stroke="#3fb950" stroke-width="1.90" opacity="0.80" stroke-linecap="round"/>
<line x1="374.9" y1="214.1" x2="371.6" y2="185.2" stroke="#7bc96f" stroke-width="1.55" opacity="0.70" stroke-linecap="round"/>
<line x1="371.6" y1="185.2" x2="358.6" y2="171.1" stroke="#d29922" stroke-width="1.20" opacity="0.60" stroke-linecap="round"/>
<line x1="371.6" y1="185.2" x2="380.2" y2="169.0" stroke="#d29922" stroke-width="1.20" opacity="0.60" stroke-linecap="round"/>
<line x1="374.9" y1="214.1" x2="403.7" y2="203.5" stroke="#7bc96f" stroke-width="1.55" opacity="0.70" stroke-linecap="round"/>
<line x1="403.7" y1="203.5" x2="423.4" y2="201.3" stroke="#d29922" stroke-width="1.20" opacity="0.60" stroke-linecap="round"/>
<line x1="410.0" y1="410.0" x2="459.9" y2="317.6" stroke="#58a6ff" stroke-width="2.60" opacity="1.00" stroke-linecap="round"/>
<line x1="459.9" y1="317.6" x2="465.0" y2="249.1" stroke="#4f9ee0" stroke-width="2.25" opacity="0.90" stroke-linecap="round"/>
<line x1="465.0" y1="249.1" x2="440.7" y2="211.8" stroke="#3fb950" stroke-width="1.90" opacity="0.80" stroke-linecap="round"/>
<line x1="440.7" y1="211.8" x2="411.2" y2="202.2" stroke="#7bc96f" stroke-width="1.55" opacity="0.70" stroke-linecap="round"/>
<line x1="411.2" y1="202.2" x2="389.9" y2="207.4" stroke="#d29922" stroke-width="1.20" opacity="0.60" stroke-linecap="round"/>
<line x1="411.2" y1="202.2" x2="395.5" y2="187.4" stroke="#d29922" stroke-width="1.20" opacity="0.60" stroke-linecap="round"/>
<line x1="440.7" y1="211.8" x2="443.9" y2="180.4" stroke="#7bc96f" stroke-width="1.55" opacity="0.70" stroke-linecap="round"/>
<line x1="443.9" y1="180.4" x2="451.8" y2="161.8" stroke="#d29922" stroke-width="1.20" opacity="0.60" stroke-linecap="round"/>
<line x1="465.0" y1="249.1" x2="494.9" y2="214.9" stroke="#3fb950" stroke-width="1.90" opacity="0.80" stroke-linecap="round"/>
<line x1="494.9" y1="214.9" x2="496.9" y2="186.8" stroke="#7bc96f" stroke-width="1.55" opacity="0.70" stroke-linecap="round"/>
<line x1="496.9" y1="186.8" x2="503.7" y2="167.9" stroke="#d29922" stroke-width="1.20" opacity="0.60" stroke-linecap="round"/>
<line x1="494.9" y1="214.9" x2="525.4" y2="203.7" stroke="#7bc96f" stroke-width="1.55" opacity="0.70" stroke-linecap="round"/>
<line x1="525.4" y1="203.7" x2="546.0" y2="196.5" stroke="#d29922" stroke-width="1.20" opacity="0.60" stroke-linecap="round"/>
<line x1="459.9" y1="317.6" x2="515.6" y2="269.2" stroke="#4f9ee0" stroke-width="2.25" opacity="0.90" stroke-linecap="round"/>
<line x1="515.6" y1="269.2" x2="529.4" y2="218.0" stroke="#3fb950" stroke-width="1.90" opacity="0.80" stroke-linecap="round"/>
<line x1="529.4" y1="218.0" x2="517.9" y2="187.1" stroke="#7bc96f" stroke-width="1.55" opacity="0.70" stroke-linecap="round"/>
<line x1="517.9" y1="187.1" x2="500.8" y2="174.2" stroke="#d29922" stroke-width="1.20" opacity="0.60" stroke-linecap="round"/>
<line x1="517.9" y1="187.1" x2="522.7" y2="165.8" stroke="#d29922" stroke-width="1.20" opacity="0.60" stroke-linecap="round"/>
<line x1="529.4" y1="218.0" x2="556.5" y2="194.8" stroke="#7bc96f" stroke-width="1.55" opacity="0.70" stroke-linecap="round"/>
<line x1="556.5" y1="194.8" x2="574.0" y2="179.8" stroke="#d29922" stroke-width="1.20" opacity="0.60" stroke-linecap="round"/>
<line x1="515.6" y1="269.2" x2="560.6" y2="260.1" stroke="#3fb950" stroke-width="1.90" opacity="0.80" stroke-linecap="round"/>
<line x1="560.6" y1="260.1" x2="584.4" y2="238.5" stroke="#7bc96f" stroke-width="1.55" opacity="0.70" stroke-linecap="round"/>
<line x1="584.4" y1="238.5" x2="599.3" y2="221.1" stroke="#d29922" stroke-width="1.20" opacity="0.60" stroke-linecap="round"/>
<line x1="560.6" y1="260.1" x2="590.1" y2="269.6" stroke="#7bc96f" stroke-width="1.55" opacity="0.70" stroke-linecap="round"/>
<line x1="590.1" y1="269.6" x2="611.8" y2="265.3" stroke="#d29922" stroke-width="1.20" opacity="0.60" stroke-linecap="round"/>
<line x1="590.1" y1="269.6" x2="604.2" y2="285.3" stroke="#d29922" stroke-width="1.20" opacity="0.60" stroke-linecap="round"/>
<circle cx="515.0" cy="412.5" r="2.60" fill="#58a6ff" opacity="0.85"/>
<circle cx="574.9" cy="384.3" r="2.30" fill="#4f9ee0" opacity="0.85"/>
<circle cx="596.5" cy="346.6" r="2.00" fill="#3fb950" opacity="0.85"/>
<circle cx="591.7" cy="318.4" r="1.70" fill="#7bc96f" opacity="0.85"/>
<circle cx="620.7" cy="332.9" r="1.70" fill="#7bc96f" opacity="0.85"/>
<circle cx="618.2" cy="393.6" r="2.00" fill="#3fb950" opacity="0.85"/>
<circle cx="642.2" cy="380.0" r="1.70" fill="#7bc96f" opacity="0.85"/>
<circle cx="639.3" cy="416.5" r="1.70" fill="#7bc96f" opacity="0.85"/>
<circle cx="570.7" cy="448.3" r="2.30" fill="#4f9ee0" opacity="0.85"/>
<circle cx="615.9" cy="452.4" r="2.00" fill="#3fb950" opacity="0.85"/>
<circle cx="642.7" cy="439.8" r="1.70" fill="#7bc96f" opacity="0.85"/>
<circle cx="643.0" cy="469.4" r="1.70" fill="#7bc96f" opacity="0.85"/>
<circle cx="594.1" cy="487.2" r="2.00" fill="#3fb950" opacity="0.85"/>
<circle cx="619.9" cy="502.5" r="1.70" fill="#7bc96f" opacity="0.85"/>
<circle cx="594.6" cy="515.7" r="1.70" fill="#7bc96f" opacity="0.85"/>
<circle cx="456.9" cy="503.9" r="2.60" fill="#58a6ff" opacity="0.85"/>
<circle cx="513.5" cy="541.9" r="2.30" fill="#4f9ee0" opacity="0.85"/>
<circle cx="558.3" cy="544.3" r="2.00" fill="#3fb950" opacity="0.85"/>
<circle cx="586.0" cy="531.1" r="1.70" fill="#7bc96f" opacity="0.85"/>
<circle cx="583.8" cy="563.1" r="1.70" fill="#7bc96f" opacity="0.85"/>
<circle cx="530.5" cy="583.9" r="2.00" fill="#3fb950" opacity="0.85"/>
<circle cx="554.5" cy="598.8" r="1.70" fill="#7bc96f" opacity="0.85"/>
<circle cx="523.6" cy="615.8" r="1.70" fill="#7bc96f" opacity="0.85"/>
<circle cx="463.2" cy="574.5" r="2.30" fill="#4f9ee0" opacity="0.85"/>
<circle cx="486.5" cy="616.0" r="2.00" fill="#3fb950" opacity="0.85"/>
<circle cx="516.5" cy="628.9" r="1.70" fill="#7bc96f" opacity="0.85"/>
<circle cx="484.9" cy="647.7" r="1.70" fill="#7bc96f" opacity="0.85"/>
<circle cx="447.8" cy="616.9" r="2.00" fill="#3fb950" opacity="0.85"/>
<circle cx="451.4" cy="645.4" r="1.70" fill="#7bc96f" opacity="0.85"/>
<circle cx="426.8" cy="639.1" r="1.70" fill="#7bc96f" opacity="0.85"/>
<circle cx="361.7" cy="503.3" r="2.60" fill="#58a6ff" opacity="0.85"/>
<circle cx="364.2" cy="570.0" r="2.30" fill="#4f9ee0" opacity="0.85"/>
<circle cx="386.8" cy="611.0" r="2.00" fill="#3fb950" opacity="0.85"/>
<circle cx="410.2" cy="628.6" r="1.70" fill="#7bc96f" opacity="0.85"/>
<circle cx="391.4" cy="641.3" r="1.70" fill="#7bc96f" opacity="0.85"/>
<circle cx="346.1" cy="612.8" r="2.00" fill="#3fb950" opacity="0.85"/>
<circle cx="347.1" cy="641.6" r="1.70" fill="#7bc96f" opacity="0.85"/>
<circle cx="323.8" cy="636.9" r="1.70" fill="#7bc96f" opacity="0.85"/>
<circle cx="302.3" cy="547.4" r="2.30" fill="#4f9ee0" opacity="0.85"/>
<circle cx="281.4" cy="596.0" r="2.00" fill="#3fb950" opacity="0.85"/>
<circle cx="291.4" cy="627.3" r="1.70" fill="#7bc96f" opacity="0.85"/>
<circle cx="248.1" cy="611.5" r="1.70" fill="#7bc96f" opacity="0.85"/>
<circle cx="255.2" cy="552.5" r="2.00" fill="#3fb950" opacity="0.85"/>
<circle cx="230.8" cy="573.7" r="1.70" fill="#7bc96f" opacity="0.85"/>
<circle cx="230.1" cy="536.7" r="1.70" fill="#7bc96f" opacity="0.85"/>
<circle cx="305.1" cy="413.7" r="2.60" fill="#58a6ff" opacity="0.85"/>
<circle cx="249.2" cy="447.9" r="2.30" fill="#4f9ee0" opacity="0.85"/>
<circle cx="228.2" cy="488.7" r="2.00" fill="#3fb950" opacity="0.85"/>
<circle cx="227.0" cy="521.1" r="1.70" fill="#7bc96f" opacity="0.85"/>
<circle cx="204.8" cy="505.7" r="1.70" fill="#7bc96f" opacity="0.85"/>
<circle cx="202.7" cy="449.6" r="2.00" fill="#3fb950" opacity="0.85"/>
<circle cx="175.0" cy="468.0" r="1.70" fill="#7bc96f" opacity="0.85"/>
<circle cx="178.2" cy="433.6" r="1.70" fill="#7bc96f" opacity="0.85"/>
<circle cx="240.8" cy="388.4" r="2.30" fill="#4f9ee0" opacity="0.85"/>
<circle cx="193.5" cy="394.5" r="2.00" fill="#3fb950" opacity="0.85"/>
<circle cx="167.5" cy="414.2" r="1.70" fill="#7bc96f" opacity="0.85"/>
<circle cx="166.2" cy="381.9" r="1.70" fill="#7bc96f" opacity="0.85"/>
<circle cx="213.4" cy="350.6" r="2.00" fill="#3fb950" opacity="0.85"/>
<circle cx="186.4" cy="339.6" r="1.70" fill="#7bc96f" opacity="0.85"/>
<circle cx="213.5" cy="319.7" r="1.70" fill="#7bc96f" opacity="0.85"/>
<circle cx="351.4" cy="322.9" r="2.60" fill="#58a6ff" opacity="0.85"/>
<circle cx="288.7" cy="293.5" r="2.30" fill="#4f9ee0" opacity="0.85"/>
<circle cx="240.0" cy="294.5" r="2.00" fill="#3fb950" opacity="0.85"/>
<circle cx="212.2" cy="309.0" r="1.70" fill="#7bc96f" opacity="0.85"/>
<circle cx="213.2" cy="279.0" r="1.70" fill="#7bc96f" opacity="0.85"/>
<circle cx="260.1" cy="257.0" r="2.00" fill="#3fb950" opacity="0.85"/>
<circle cx="231.0" cy="245.8" r="1.70" fill="#7bc96f" opacity="0.85"/>
<circle cx="255.9" cy="225.0" r="1.70" fill="#7bc96f" opacity="0.85"/>
<circle cx="352.3" cy="252.1" r="2.30" fill="#4f9ee0" opacity="0.85"/>
<circle cx="331.4" cy="208.7" r="2.00" fill="#3fb950" opacity="0.85"/>
<circle cx="300.8" cy="197.0" r="1.70" fill="#7bc96f" opacity="0.85"/>
<circle cx="338.0" cy="178.2" r="1.70" fill="#7bc96f" opacity="0.85"/>
<circle cx="374.9" cy="214.1" r="2.00" fill="#3fb950" opacity="0.85"/>
<circle cx="371.6" cy="185.2" r="1.70" fill="#7bc96f" opacity="0.85"/>
<circle cx="403.7" cy="203.5" r="1.70" fill="#7bc96f" opacity="0.85"/>
<circle cx="459.9" cy="317.6" r="2.60" fill="#58a6ff" opacity="0.85"/>
<circle cx="465.0" cy="249.1" r="2.30" fill="#4f9ee0" opacity="0.85"/>
<circle cx="440.7" cy="211.8" r="2.00" fill="#3fb950" opacity="0.85"/>
<circle cx="411.2" cy="202.2" r="1.70" fill="#7bc96f" opacity="0.85"/>
<circle cx="443.9" cy="180.4" r="1.70" fill="#7bc96f" opacity="0.85"/>
<circle cx="494.9" cy="214.9" r="2.00" fill="#3fb950" opacity="0.85"/>
<circle cx="496.9" cy="186.8" r="1.70" fill="#7bc96f" opacity="0.85"/>
<circle cx="525.4" cy="203.7" r="1.70" fill="#7bc96f" opacity="0.85"/>
<circle cx="515.6" cy="269.2" r="2.30" fill="#4f9ee0" opacity="0.85"/>
<circle cx="529.4" cy="218.0" r="2.00" fill="#3fb950" opacity="0.85"/>
<circle cx="517.9" cy="187.1" r="1.70" fill="#7bc96f" opacity="0.85"/>
<circle cx="556.5" cy="194.8" r="1.70" fill="#7bc96f" opacity="0.85"/>
<circle cx="560.6" cy="260.1" r="2.00" fill="#3fb950" opacity="0.85"/>
<circle cx="584.4" cy="238.5" r="1.70" fill="#7bc96f" opacity="0.85"/>
<circle cx="590.1" cy="269.6" r="1.70" fill="#7bc96f" opacity="0.85"/>
<circle cx="582.3" cy="302.4" r="3" fill="none" stroke="#d29922" stroke-width="1" opacity="0.6"/>
<circle cx="595.0" cy="300.9" r="3" fill="none" stroke="#d29922" stroke-width="1" opacity="0.6"/>
<circle cx="630.2" cy="315.7" r="3" fill="none" stroke="#d29922" stroke-width="1" opacity="0.6"/>
<circle cx="638.5" cy="333.7" r="3" fill="none" stroke="#d29922" stroke-width="1" opacity="0.6"/>
<circle cx="661.4" cy="375.3" r="3" fill="none" stroke="#d29922" stroke-width="1" opacity="0.6"/>
<circle cx="656.2" cy="429.9" r="3" fill="none" stroke="#d29922" stroke-width="1" opacity="0.6"/>
<circle cx="659.2" cy="431.2" r="3" fill="none" stroke="#d29922" stroke-width="1" opacity="0.6"/>
<circle cx="664.8" cy="477.0" r="3" fill="none" stroke="#d29922" stroke-width="1" opacity="0.6"/>
<circle cx="641.1" cy="504.0" r="3" fill="none" stroke="#d29922" stroke-width="1" opacity="0.6"/>
<circle cx="631.0" cy="519.1" r="3" fill="none" stroke="#d29922" stroke-width="1" opacity="0.6"/>
<circle cx="596.9" cy="534.5" r="3" fill="none" stroke="#d29922" stroke-width="1" opacity="0.6"/>
<circle cx="602.6" cy="519.2" r="3" fill="none" stroke="#d29922" stroke-width="1" opacity="0.6"/>
<circle cx="603.7" cy="572.6" r="3" fill="none" stroke="#d29922" stroke-width="1" opacity="0.6"/>
<circle cx="570.3" cy="607.3" r="3" fill="none" stroke="#d29922" stroke-width="1" opacity="0.6"/>
<circle cx="519.0" cy="637.8" r="3" fill="none" stroke="#d29922" stroke-width="1" opacity="0.6"/>
<circle cx="538.5" cy="627.6" r="3" fill="none" stroke="#d29922" stroke-width="1" opacity="0.6"/>
<circle cx="530.6" cy="646.7" r="3" fill="none" stroke="#d29922" stroke-width="1" opacity="0.6"/>
<circle cx="494.5" cy="666.2" r="3" fill="none" stroke="#d29922" stroke-width="1" opacity="0.6"/>
<circle cx="474.7" cy="664.7" r="3" fill="none" stroke="#d29922" stroke-width="1" opacity="0.6"/>
<circle cx="462.3" cy="660.0" r="3" fill="none" stroke="#d29922" stroke-width="1" opacity="0.6"/>
<circle cx="444.3" cy="662.1" r="3" fill="none" stroke="#d29922" stroke-width="1" opacity="0.6"/>
<circle cx="418.8" cy="657.7" r="3" fill="none" stroke="#d29922" stroke-width="1" opacity="0.6"/>
<circle cx="408.5" cy="646.7" r="3" fill="none" stroke="#d29922" stroke-width="1" opacity="0.6"/>
<circle cx="430.8" cy="629.8" r="3" fill="none" stroke="#d29922" stroke-width="1" opacity="0.6"/>
<circle cx="415.1" cy="648.5" r="3" fill="none" stroke="#d29922" stroke-width="1" opacity="0.6"/>
<circle cx="395.0" cy="661.1" r="3" fill="none" stroke="#d29922" stroke-width="1" opacity="0.6"/>
<circle cx="355.7" cy="657.6" r="3" fill="none" stroke="#d29922" stroke-width="1" opacity="0.6"/>
<circle cx="340.6" cy="658.2" r="3" fill="none" stroke="#d29922" stroke-width="1" opacity="0.6"/>
<circle cx="320.6" cy="657.0" r="3" fill="none" stroke="#d29922" stroke-width="1" opacity="0.6"/>
<circle cx="303.3" cy="640.3" r="3" fill="none" stroke="#d29922" stroke-width="1" opacity="0.6"/>
<circle cx="302.9" cy="646.9" r="3" fill="none" stroke="#d29922" stroke-width="1" opacity="0.6"/>
<circle cx="228.6" cy="624.6" r="3" fill="none" stroke="#d29922" stroke-width="1" opacity="0.6"/>
<circle cx="221.2" cy="593.7" r="3" fill="none" stroke="#d29922" stroke-width="1" opacity="0.6"/>
<circle cx="209.9" cy="577.9" r="3" fill="none" stroke="#d29922" stroke-width="1" opacity="0.6"/>
<circle cx="209.7" cy="540.2" r="3" fill="none" stroke="#d29922" stroke-width="1" opacity="0.6"/>
<circle cx="224.1" cy="517.1" r="3" fill="none" stroke="#d29922" stroke-width="1" opacity="0.6"/>
<circle cx="222.9" cy="542.9" r="3" fill="none" stroke="#d29922" stroke-width="1" opacity="0.6"/>
<circle cx="196.3" cy="523.8" r="3" fill="none" stroke="#d29922" stroke-width="1" opacity="0.6"/>
<circle cx="185.1" cy="506.8" r="3" fill="none" stroke="#d29922" stroke-width="1" opacity="0.6"/>
<circle cx="153.2" cy="475.3" r="3" fill="none" stroke="#d29922" stroke-width="1" opacity="0.6"/>
<circle cx="160.5" cy="424.4" r="3" fill="none" stroke="#d29922" stroke-width="1" opacity="0.6"/>
<circle cx="153.4" cy="430.7" r="3" fill="none" stroke="#d29922" stroke-width="1" opacity="0.6"/>
<circle cx="149.9" cy="372.5" r="3" fill="none" stroke="#d29922" stroke-width="1" opacity="0.6"/>
<circle cx="168.4" cy="329.1" r="3" fill="none" stroke="#d29922" stroke-width="1" opacity="0.6"/>
<circle cx="202.1" cy="301.2" r="3" fill="none" stroke="#d29922" stroke-width="1" opacity="0.6"/>
<circle cx="226.2" cy="302.2" r="3" fill="none" stroke="#d29922" stroke-width="1" opacity="0.6"/>
<circle cx="200.8" cy="327.8" r="3" fill="none" stroke="#d29922" stroke-width="1" opacity="0.6"/>
<circle cx="191.2" cy="306.7" r="3" fill="none" stroke="#d29922" stroke-width="1" opacity="0.6"/>
<circle cx="193.1" cy="281.4" r="3" fill="none" stroke="#d29922" stroke-width="1" opacity="0.6"/>
<circle cx="205.7" cy="258.6" r="3" fill="none" stroke="#d29922" stroke-width="1" opacity="0.6"/>
<circle cx="213.0" cy="234.4" r="3" fill="none" stroke="#d29922" stroke-width="1" opacity="0.6"/>
<circle cx="246.2" cy="206.0" r="3" fill="none" stroke="#d29922" stroke-width="1" opacity="0.6"/>
<circle cx="262.0" cy="203.9" r="3" fill="none" stroke="#d29922" stroke-width="1" opacity="0.6"/>
<circle cx="281.9" cy="186.2" r="3" fill="none" stroke="#d29922" stroke-width="1" opacity="0.6"/>
<circle cx="345.2" cy="157.8" r="3" fill="none" stroke="#d29922" stroke-width="1" opacity="0.6"/>
<circle cx="358.6" cy="171.1" r="3" fill="none" stroke="#d29922" stroke-width="1" opacity="0.6"/>
<circle cx="380.2" cy="169.0" r="3" fill="none" stroke="#d29922" stroke-width="1" opacity="0.6"/>
<circle cx="423.4" cy="201.3" r="3" fill="none" stroke="#d29922" stroke-width="1" opacity="0.6"/>
<circle cx="389.9" cy="207.4" r="3" fill="none" stroke="#d29922" stroke-width="1" opacity="0.6"/>
<circle cx="395.5" cy="187.4" r="3" fill="none" stroke="#d29922" stroke-width="1" opacity="0.6"/>
<circle cx="451.8" cy="161.8" r="3" fill="none" stroke="#d29922" stroke-width="1" opacity="0.6"/>
<circle cx="503.7" cy="167.9" r="3" fill="none" stroke="#d29922" stroke-width="1" opacity="0.6"/>
<circle cx="546.0" cy="196.5" r="3" fill="none" stroke="#d29922" stroke-width="1" opacity="0.6"/>
<circle cx="500.8" cy="174.2" r="3" fill="none" stroke="#d29922" stroke-width="1" opacity="0.6"/>
<circle cx="522.7" cy="165.8" r="3" fill="none" stroke="#d29922" stroke-width="1" opacity="0.6"/>
<circle cx="574.0" cy="179.8" r="3" fill="none" stroke="#d29922" stroke-width="1" opacity="0.6"/>
<circle cx="599.3" cy="221.1" r="3" fill="none" stroke="#d29922" stroke-width="1" opacity="0.6"/>
<circle cx="611.8" cy="265.3" r="3" fill="none" stroke="#d29922" stroke-width="1" opacity="0.6"/>
<circle cx="604.2" cy="285.3" r="3" fill="none" stroke="#d29922" stroke-width="1" opacity="0.6"/>
<circle cx="410.0" cy="410.0" r="10" fill="#0d1117" stroke="#58a6ff" stroke-width="2"/>
<circle cx="410.0" cy="410.0" r="4" fill="#58a6ff"/>
<circle r="2.4" fill="#7ee787"><animateMotion dur="4.0s" begin="0.28s" repeatCount="indefinite" path="M570.7,448.3 L594.1,487.2"/></circle>
<circle r="2.4" fill="#f2cc60"><animateMotion dur="3.28s" begin="2.16s" repeatCount="indefinite" path="M228.2,488.7 L204.8,505.7"/></circle>
<circle r="2.4" fill="#79c0ff"><animateMotion dur="3.06s" begin="2.38s" repeatCount="indefinite" path="M410.0,410.0 L361.7,503.3"/></circle>
<circle r="2.4" fill="#7ee787"><animateMotion dur="2.49s" begin="1.47s" repeatCount="indefinite" path="M618.2,393.6 L642.2,380.0"/></circle>
<circle r="2.4" fill="#f2cc60"><animateMotion dur="2.31s" begin="1.5s" repeatCount="indefinite" path="M590.1,269.6 L604.2,285.3"/></circle>
<circle r="2.4" fill="#79c0ff"><animateMotion dur="2.27s" begin="1.47s" repeatCount="indefinite" path="M213.5,319.7 L226.2,302.2"/></circle>
<circle r="2.4" fill="#7ee787"><animateMotion dur="2.53s" begin="1.24s" repeatCount="indefinite" path="M347.1,641.6 L340.6,658.2"/></circle>
<text x="806" y="806" text-anchor="end" font-size="9" fill="#484f58" letter-spacing="1">// circuit_bloom.py — seed:20260927 — spokes:6 — regenerated daily</text>
</svg>