<svg viewBox="0 0 820 820" width="820" height="820" xmlns="http://www.w3.org/2000/svg" font-family="'Fira Code',monospace">
<defs>
<pattern id="g2" width="22" height="22" patternUnits="userSpaceOnUse">
<path d="M 22 0 L 0 0 0 22" fill="none" stroke="#30363d" stroke-width="0.4" opacity="0.3"/>
</pattern>
<radialGradient id="glow" cx="50%" cy="50%" r="50%">
<stop offset="0%" stop-color="#58a6ff" stop-opacity="0.35"/>
<stop offset="100%" stop-color="#58a6ff" stop-opacity="0"/>
</radialGradient>
</defs>
<rect x="0" y="0" width="820" height="820" fill="#0d1117"/>
<rect x="0" y="0" width="820" height="820" fill="url(#g2)"/>
<circle cx="410.0" cy="410.0" r="230" fill="url(#glow)"/>
<line x1="410.0" y1="410.0" x2="514.9" y2="405.5" stroke="#58a6ff" stroke-width="2.60" opacity="1.00" stroke-linecap="round"/>
<line x1="514.9" y1="405.5" x2="571.1" y2="367.6" stroke="#4f9ee0" stroke-width="2.25" opacity="0.90" stroke-linecap="round"/>
<line x1="571.1" y1="367.6" x2="599.6" y2="329.6" stroke="#3fb950" stroke-width="1.90" opacity="0.80" stroke-linecap="round"/>
<line x1="599.6" y1="329.6" x2="600.0" y2="298.2" stroke="#7bc96f" stroke-width="1.55" opacity="0.70" stroke-linecap="round"/>
<line x1="600.0" y1="298.2" x2="589.8" y2="278.6" stroke="#d29922" stroke-width="1.20" opacity="0.60" stroke-linecap="round"/>
<line x1="600.0" y1="298.2" x2="610.9" y2="279.0" stroke="#d29922" stroke-width="1.20" opacity="0.60" stroke-linecap="round"/>
<line x1="599.6" y1="329.6" x2="632.0" y2="320.9" stroke="#7bc96f" stroke-width="1.55" opacity="0.70" stroke-linecap="round"/>
<line x1="632.0" y1="320.9" x2="652.5" y2="314.9" stroke="#d29922" stroke-width="1.20" opacity="0.60" stroke-linecap="round"/>
<line x1="571.1" y1="367.6" x2="618.1" y2="358.5" stroke="#3fb950" stroke-width="1.90" opacity="0.80" stroke-linecap="round"/>
<line x1="618.1" y1="358.5" x2="639.4" y2="332.6" stroke="#7bc96f" stroke-width="1.55" opacity="0.70" stroke-linecap="round"/>
<line x1="639.4" y1="332.6" x2="644.9" y2="311.1" stroke="#d29922" stroke-width="1.20" opacity="0.60" stroke-linecap="round"/>
<line x1="639.4" y1="332.6" x2="660.9" y2="321.9" stroke="#d29922" stroke-width="1.20" opacity="0.60" stroke-linecap="round"/>
<line x1="618.1" y1="358.5" x2="649.2" y2="372.5" stroke="#7bc96f" stroke-width="1.55" opacity="0.70" stroke-linecap="round"/>
<line x1="649.2" y1="372.5" x2="670.8" y2="374.6" stroke="#d29922" stroke-width="1.20" opacity="0.60" stroke-linecap="round"/>
<line x1="649.2" y1="372.5" x2="665.6" y2="390.0" stroke="#d29922" stroke-width="1.20" opacity="0.60" stroke-linecap="round"/>
<line x1="514.9" y1="405.5" x2="581.8" y2="438.0" stroke="#4f9ee0" stroke-width="2.25" opacity="0.90" stroke-linecap="round"/>
<line x1="581.8" y1="438.0" x2="630.7" y2="435.5" stroke="#3fb950" stroke-width="1.90" opacity="0.80" stroke-linecap="round"/>
<line x1="630.7" y1="435.5" x2="659.0" y2="418.5" stroke="#7bc96f" stroke-width="1.55" opacity="0.70" stroke-linecap="round"/>
<line x1="659.0" y1="418.5" x2="668.8" y2="397.1" stroke="#d29922" stroke-width="1.20" opacity="0.60" stroke-linecap="round"/>
<line x1="659.0" y1="418.5" x2="681.2" y2="418.0" stroke="#d29922" stroke-width="1.20" opacity="0.60" stroke-linecap="round"/>
<line x1="630.7" y1="435.5" x2="657.8" y2="453.0" stroke="#7bc96f" stroke-width="1.55" opacity="0.70" stroke-linecap="round"/>
<line x1="657.8" y1="453.0" x2="678.4" y2="454.1" stroke="#d29922" stroke-width="1.20" opacity="0.60" stroke-linecap="round"/>
<line x1="657.8" y1="453.0" x2="666.7" y2="473.6" stroke="#d29922" stroke-width="1.20" opacity="0.60" stroke-linecap="round"/>
<line x1="581.8" y1="438.0" x2="612.3" y2="479.1" stroke="#3fb950" stroke-width="1.90" opacity="0.80" stroke-linecap="round"/>
<line x1="612.3" y1="479.1" x2="642.7" y2="494.2" stroke="#7bc96f" stroke-width="1.55" opacity="0.70" stroke-linecap="round"/>
<line x1="642.7" y1="494.2" x2="665.6" y2="498.1" stroke="#d29922" stroke-width="1.20" opacity="0.60" stroke-linecap="round"/>
<line x1="612.3" y1="479.1" x2="620.5" y2="510.4" stroke="#7bc96f" stroke-width="1.55" opacity="0.70" stroke-linecap="round"/>
<line x1="620.5" y1="510.4" x2="624.7" y2="530.0" stroke="#d29922" stroke-width="1.20" opacity="0.60" stroke-linecap="round"/>
<line x1="410.0" y1="410.0" x2="472.4" y2="494.4" stroke="#58a6ff" stroke-width="2.60" opacity="1.00" stroke-linecap="round"/>
<line x1="472.4" y1="494.4" x2="535.0" y2="530.2" stroke="#4f9ee0" stroke-width="2.25" opacity="0.90" stroke-linecap="round"/>
<line x1="535.0" y1="530.2" x2="582.5" y2="533.6" stroke="#3fb950" stroke-width="1.90" opacity="0.80" stroke-linecap="round"/>
<line x1="582.5" y1="533.6" x2="611.0" y2="520.4" stroke="#7bc96f" stroke-width="1.55" opacity="0.70" stroke-linecap="round"/>
<line x1="611.0" y1="520.4" x2="632.1" y2="518.5" stroke="#d29922" stroke-width="1.20" opacity="0.60" stroke-linecap="round"/>
<line x1="582.5" y1="533.6" x2="607.2" y2="555.8" stroke="#7bc96f" stroke-width="1.55" opacity="0.70" stroke-linecap="round"/>
<line x1="607.2" y1="555.8" x2="625.5" y2="568.8" stroke="#d29922" stroke-width="1.20" opacity="0.60" stroke-linecap="round"/>
<line x1="535.0" y1="530.2" x2="560.1" y2="567.6" stroke="#3fb950" stroke-width="1.90" opacity="0.80" stroke-linecap="round"/>
<line x1="560.1" y1="567.6" x2="586.2" y2="583.5" stroke="#7bc96f" stroke-width="1.55" opacity="0.70" stroke-linecap="round"/>
<line x1="586.2" y1="583.5" x2="606.0" y2="586.8" stroke="#d29922" stroke-width="1.20" opacity="0.60" stroke-linecap="round"/>
<line x1="586.2" y1="583.5" x2="599.7" y2="600.7" stroke="#d29922" stroke-width="1.20" opacity="0.60" stroke-linecap="round"/>
<line x1="560.1" y1="567.6" x2="566.5" y2="596.3" stroke="#7bc96f" stroke-width="1.55" opacity="0.70" stroke-linecap="round"/>
<line x1="566.5" y1="596.3" x2="576.8" y2="613.3" stroke="#d29922" stroke-width="1.20" opacity="0.60" stroke-linecap="round"/>
<line x1="472.4" y1="494.4" x2="482.3" y2="560.0" stroke="#4f9ee0" stroke-width="2.25" opacity="0.90" stroke-linecap="round"/>
<line x1="482.3" y1="560.0" x2="502.5" y2="597.1" stroke="#3fb950" stroke-width="1.90" opacity="0.80" stroke-linecap="round"/>
<line x1="502.5" y1="597.1" x2="529.3" y2="609.6" stroke="#7bc96f" stroke-width="1.55" opacity="0.70" stroke-linecap="round"/>
<line x1="529.3" y1="609.6" x2="548.9" y2="606.0" stroke="#d29922" stroke-width="1.20" opacity="0.60" stroke-linecap="round"/>
<line x1="529.3" y1="609.6" x2="538.8" y2="627.1" stroke="#d29922" stroke-width="1.20" opacity="0.60" stroke-linecap="round"/>
<line x1="502.5" y1="597.1" x2="501.1" y2="625.8" stroke="#7bc96f" stroke-width="1.55" opacity="0.70" stroke-linecap="round"/>
<line x1="501.1" y1="625.8" x2="497.1" y2="645.5" stroke="#d29922" stroke-width="1.20" opacity="0.60" stroke-linecap="round"/>
<line x1="482.3" y1="560.0" x2="474.4" y2="606.0" stroke="#3fb950" stroke-width="1.90" opacity="0.80" stroke-linecap="round"/>
<line x1="474.4" y1="606.0" x2="488.4" y2="636.4" stroke="#7bc96f" stroke-width="1.55" opacity="0.70" stroke-linecap="round"/>
<line x1="488.4" y1="636.4" x2="495.3" y2="656.9" stroke="#d29922" stroke-width="1.20" opacity="0.60" stroke-linecap="round"/>
<line x1="474.4" y1="606.0" x2="451.0" y2="627.5" stroke="#7bc96f" stroke-width="1.55" opacity="0.70" stroke-linecap="round"/>
<line x1="451.0" y1="627.5" x2="440.2" y2="647.3" stroke="#d29922" stroke-width="1.20" opacity="0.60" stroke-linecap="round"/>
<line x1="410.0" y1="410.0" x2="390.8" y2="513.2" stroke="#58a6ff" stroke-width="2.60" opacity="1.00" stroke-linecap="round"/>
<line x1="390.8" y1="513.2" x2="419.7" y2="576.5" stroke="#4f9ee0" stroke-width="2.25" opacity="0.90" stroke-linecap="round"/>
<line x1="419.7" y1="576.5" x2="458.4" y2="596.8" stroke="#3fb950" stroke-width="1.90" opacity="0.80" stroke-linecap="round"/>
<line x1="458.4" y1="596.8" x2="486.6" y2="594.8" stroke="#7bc96f" stroke-width="1.55" opacity="0.70" stroke-linecap="round"/>
<line x1="486.6" y1="594.8" x2="502.4" y2="581.9" stroke="#d29922" stroke-width="1.20" opacity="0.60" stroke-linecap="round"/>
<line x1="486.6" y1="594.8" x2="502.3" y2="603.9" stroke="#d29922" stroke-width="1.20" opacity="0.60" stroke-linecap="round"/>
<line x1="458.4" y1="596.8" x2="471.3" y2="625.0" stroke="#7bc96f" stroke-width="1.55" opacity="0.70" stroke-linecap="round"/>
<line x1="471.3" y1="625.0" x2="483.2" y2="640.3" stroke="#d29922" stroke-width="1.20" opacity="0.60" stroke-linecap="round"/>
<line x1="419.7" y1="576.5" x2="408.1" y2="623.0" stroke="#3fb950" stroke-width="1.90" opacity="0.80" stroke-linecap="round"/>
<line x1="408.1" y1="623.0" x2="418.0" y2="654.9" stroke="#7bc96f" stroke-width="1.55" opacity="0.70" stroke-linecap="round"/>
<line x1="418.0" y1="654.9" x2="435.8" y2="669.1" stroke="#d29922" stroke-width="1.20" opacity="0.60" stroke-linecap="round"/>
<line x1="418.0" y1="654.9" x2="409.7" y2="676.6" stroke="#d29922" stroke-width="1.20" opacity="0.60" stroke-linecap="round"/>
<line x1="408.1" y1="623.0" x2="383.4" y2="646.5" stroke="#7bc96f" stroke-width="1.55" opacity="0.70" stroke-linecap="round"/>
<line x1="383.4" y1="646.5" x2="368.7" y2="663.2" stroke="#d29922" stroke-width="1.20" opacity="0.60" stroke-linecap="round"/>
<line x1="390.8" y1="513.2" x2="335.3" y2="558.6" stroke="#4f9ee0" stroke-width="2.25" opacity="0.90" stroke-linecap="round"/>
<line x1="335.3" y1="558.6" x2="318.1" y2="606.3" stroke="#3fb950" stroke-width="1.90" opacity="0.80" stroke-linecap="round"/>
<line x1="318.1" y1="606.3" x2="329.7" y2="635.7" stroke="#7bc96f" stroke-width="1.55" opacity="0.70" stroke-linecap="round"/>
<line x1="329.7" y1="635.7" x2="338.9" y2="654.1" stroke="#d29922" stroke-width="1.20" opacity="0.60" stroke-linecap="round"/>
<line x1="318.1" y1="606.3" x2="291.0" y2="624.1" stroke="#7bc96f" stroke-width="1.55" opacity="0.70" stroke-linecap="round"/>
<line x1="291.0" y1="624.1" x2="283.8" y2="643.8" stroke="#d29922" stroke-width="1.20" opacity="0.60" stroke-linecap="round"/>
<line x1="291.0" y1="624.1" x2="269.0" y2="624.9" stroke="#d29922" stroke-width="1.20" opacity="0.60" stroke-linecap="round"/>
<line x1="335.3" y1="558.6" x2="288.2" y2="563.6" stroke="#3fb950" stroke-width="1.90" opacity="0.80" stroke-linecap="round"/>
<line x1="288.2" y1="563.6" x2="263.9" y2="583.0" stroke="#7bc96f" stroke-width="1.55" opacity="0.70" stroke-linecap="round"/>
<line x1="263.9" y1="583.0" x2="247.8" y2="595.8" stroke="#d29922" stroke-width="1.20" opacity="0.60" stroke-linecap="round"/>
<line x1="288.2" y1="563.6" x2="258.8" y2="550.6" stroke="#7bc96f" stroke-width="1.55" opacity="0.70" stroke-linecap="round"/>
<line x1="258.8" y1="550.6" x2="238.3" y2="551.5" stroke="#d29922" stroke-width="1.20" opacity="0.60" stroke-linecap="round"/>
<line x1="258.8" y1="550.6" x2="246.0" y2="532.8" stroke="#d29922" stroke-width="1.20" opacity="0.60" stroke-linecap="round"/>
<line x1="410.0" y1="410.0" x2="312.8" y2="449.8" stroke="#58a6ff" stroke-width="2.60" opacity="1.00" stroke-linecap="round"/>
<line x1="312.8" y1="449.8" x2="261.7" y2="504.0" stroke="#4f9ee0" stroke-width="2.25" opacity="0.90" stroke-linecap="round"/>
<line x1="261.7" y1="504.0" x2="244.8" y2="552.3" stroke="#3fb950" stroke-width="1.90" opacity="0.80" stroke-linecap="round"/>
<line x1="244.8" y1="552.3" x2="255.4" y2="585.4" stroke="#7bc96f" stroke-width="1.55" opacity="0.70" stroke-linecap="round"/>
<line x1="255.4" y1="585.4" x2="271.2" y2="601.0" stroke="#d29922" stroke-width="1.20" opacity="0.60" stroke-linecap="round"/>
<line x1="255.4" y1="585.4" x2="251.8" y2="609.6" stroke="#d29922" stroke-width="1.20" opacity="0.60" stroke-linecap="round"/>
<line x1="244.8" y1="552.3" x2="215.7" y2="570.6" stroke="#7bc96f" stroke-width="1.55" opacity="0.70" stroke-linecap="round"/>
<line x1="215.7" y1="570.6" x2="203.3" y2="590.6" stroke="#d29922" stroke-width="1.20" opacity="0.60" stroke-linecap="round"/>
<line x1="215.7" y1="570.6" x2="193.8" y2="575.4" stroke="#d29922" stroke-width="1.20" opacity="0.60" stroke-linecap="round"/>
<line x1="261.7" y1="504.0" x2="215.9" y2="524.7" stroke="#3fb950" stroke-width="1.90" opacity="0.80" stroke-linecap="round"/>
<line x1="215.9" y1="524.7" x2="198.4" y2="555.8" stroke="#7bc96f" stroke-width="1.55" opacity="0.70" stroke-linecap="round"/>
<line x1="198.4" y1="555.8" x2="200.2" y2="578.9" stroke="#d29922" stroke-width="1.20" opacity="0.60" stroke-linecap="round"/>
<line x1="198.4" y1="555.8" x2="176.4" y2="566.3" stroke="#d29922" stroke-width="1.20" opacity="0.60" stroke-linecap="round"/>
<line x1="215.9" y1="524.7" x2="182.5" y2="518.4" stroke="#7bc96f" stroke-width="1.55" opacity="0.70" stroke-linecap="round"/>
<line x1="182.5" y1="518.4" x2="163.1" y2="509.5" stroke="#d29922" stroke-width="1.20" opacity="0.60" stroke-linecap="round"/>
<line x1="312.8" y1="449.8" x2="239.0" y2="438.0" stroke="#4f9ee0" stroke-width="2.25" opacity="0.90" stroke-linecap="round"/>
<line x1="239.0" y1="438.0" x2="196.0" y2="456.6" stroke="#3fb950" stroke-width="1.90" opacity="0.80" stroke-linecap="round"/>
<line x1="196.0" y1="456.6" x2="179.9" y2="482.6" stroke="#7bc96f" stroke-width="1.55" opacity="0.70" stroke-linecap="round"/>
<line x1="179.9" y1="482.6" x2="166.6" y2="499.1" stroke="#d29922" stroke-width="1.20" opacity="0.60" stroke-linecap="round"/>
<line x1="196.0" y1="456.6" x2="166.9" y2="449.0" stroke="#7bc96f" stroke-width="1.55" opacity="0.70" stroke-linecap="round"/>
<line x1="166.9" y1="449.0" x2="148.6" y2="445.9" stroke="#d29922" stroke-width="1.20" opacity="0.60" stroke-linecap="round"/>
<line x1="239.0" y1="438.0" x2="196.2" y2="406.6" stroke="#3fb950" stroke-width="1.90" opacity="0.80" stroke-linecap="round"/>
<line x1="196.2" y1="406.6" x2="161.8" y2="400.2" stroke="#7bc96f" stroke-width="1.55" opacity="0.70" stroke-linecap="round"/>
<line x1="161.8" y1="400.2" x2="138.8" y2="410.4" stroke="#d29922" stroke-width="1.20" opacity="0.60" stroke-linecap="round"/>
<line x1="161.8" y1="400.2" x2="143.6" y2="384.6" stroke="#d29922" stroke-width="1.20" opacity="0.60" stroke-linecap="round"/>
<line x1="196.2" y1="406.6" x2="181.0" y2="376.7" stroke="#7bc96f" stroke-width="1.55" opacity="0.70" stroke-linecap="round"/>
<line x1="181.0" y1="376.7" x2="174.5" y2="355.8" stroke="#d29922" stroke-width="1.20" opacity="0.60" stroke-linecap="round"/>
<line x1="410.0" y1="410.0" x2="313.5" y2="368.6" stroke="#58a6ff" stroke-width="2.60" opacity="1.00" stroke-linecap="round"/>
<line x1="313.5" y1="368.6" x2="244.6" y2="372.7" stroke="#4f9ee0" stroke-width="2.25" opacity="0.90" stroke-linecap="round"/>
<line x1="244.6" y1="372.7" x2="206.4" y2="398.3" stroke="#3fb950" stroke-width="1.90" opacity="0.80" stroke-linecap="round"/>
<line x1="206.4" y1="398.3" x2="190.1" y2="424.6" stroke="#7bc96f" stroke-width="1.55" opacity="0.70" stroke-linecap="round"/>
<line x1="190.1" y1="424.6" x2="178.8" y2="442.1" stroke="#d29922" stroke-width="1.20" opacity="0.60" stroke-linecap="round"/>
<line x1="206.4" y1="398.3" x2="177.2" y2="401.5" stroke="#7bc96f" stroke-width="1.55" opacity="0.70" stroke-linecap="round"/>
<line x1="177.2" y1="401.5" x2="160.9" y2="413.1" stroke="#d29922" stroke-width="1.20" opacity="0.60" stroke-linecap="round"/>
<line x1="177.2" y1="401.5" x2="158.5" y2="393.2" stroke="#d29922" stroke-width="1.20" opacity="0.60" stroke-linecap="round"/>
<line x1="244.6" y1="372.7" x2="205.3" y2="348.7" stroke="#3fb950" stroke-width="1.90" opacity="0.80" stroke-linecap="round"/>
<line x1="205.3" y1="348.7" x2="172.4" y2="348.7" stroke="#7bc96f" stroke-width="1.55" opacity="0.70" stroke-linecap="round"/>
<line x1="172.4" y1="348.7" x2="151.3" y2="359.2" stroke="#d29922" stroke-width="1.20" opacity="0.60" stroke-linecap="round"/>
<line x1="172.4" y1="348.7" x2="153.3" y2="337.7" stroke="#d29922" stroke-width="1.20" opacity="0.60" stroke-linecap="round"/>
<line x1="205.3" y1="348.7" x2="188.1" y2="320.6" stroke="#7bc96f" stroke-width="1.55" opacity="0.70" stroke-linecap="round"/>
<line x1="188.1" y1="320.6" x2="166.4" y2="311.3" stroke="#d29922" stroke-width="1.20" opacity="0.60" stroke-linecap="round"/>
<line x1="188.1" y1="320.6" x2="190.1" y2="299.9" stroke="#d29922" stroke-width="1.20" opacity="0.60" stroke-linecap="round"/>
<line x1="313.5" y1="368.6" x2="259.0" y2="317.4" stroke="#4f9ee0" stroke-width="2.25" opacity="0.90" stroke-linecap="round"/>
<line x1="259.0" y1="317.4" x2="209.7" y2="297.6" stroke="#3fb950" stroke-width="1.90" opacity="0.80" stroke-linecap="round"/>
<line x1="209.7" y1="297.6" x2="175.1" y2="300.8" stroke="#7bc96f" stroke-width="1.55" opacity="0.70" stroke-linecap="round"/>
<line x1="175.1" y1="300.8" x2="152.7" y2="309.9" stroke="#d29922" stroke-width="1.20" opacity="0.60" stroke-linecap="round"/>
<line x1="209.7" y1="297.6" x2="185.9" y2="270.5" stroke="#7bc96f" stroke-width="1.55" opacity="0.70" stroke-linecap="round"/>
<line x1="185.9" y1="270.5" x2="164.3" y2="256.7" stroke="#d29922" stroke-width="1.20" opacity="0.60" stroke-linecap="round"/>
<line x1="259.0" y1="317.4" x2="238.2" y2="273.6" stroke="#3fb950" stroke-width="1.90" opacity="0.80" stroke-linecap="round"/>
<line x1="238.2" y1="273.6" x2="209.9" y2="257.0" stroke="#7bc96f" stroke-width="1.55" opacity="0.70" stroke-linecap="round"/>
<line x1="209.9" y1="257.0" x2="186.8" y2="255.6" stroke="#d29922" stroke-width="1.20" opacity="0.60" stroke-linecap="round"/>
<line x1="209.9" y1="257.0" x2="200.3" y2="237.2" stroke="#d29922" stroke-width="1.20" opacity="0.60" stroke-linecap="round"/>
<line x1="238.2" y1="273.6" x2="241.1" y2="243.3" stroke="#7bc96f" stroke-width="1.55" opacity="0.70" stroke-linecap="round"/>
<line x1="241.1" y1="243.3" x2="240.7" y2="224.2" stroke="#d29922" stroke-width="1.20" opacity="0.60" stroke-linecap="round"/>
<line x1="410.0" y1="410.0" x2="381.4" y2="309.0" stroke="#58a6ff" stroke-width="2.60" opacity="1.00" stroke-linecap="round"/>
<line x1="381.4" y1="309.0" x2="329.4" y2="269.2" stroke="#4f9ee0" stroke-width="2.25" opacity="0.90" stroke-linecap="round"/>
<line x1="329.4" y1="269.2" x2="288.1" y2="273.2" stroke="#3fb950" stroke-width="1.90" opacity="0.80" stroke-linecap="round"/>
<line x1="288.1" y1="273.2" x2="266.0" y2="289.2" stroke="#7bc96f" stroke-width="1.55" opacity="0.70" stroke-linecap="round"/>
<line x1="266.0" y1="289.2" x2="258.6" y2="305.4" stroke="#d29922" stroke-width="1.20" opacity="0.60" stroke-linecap="round"/>
<line x1="266.0" y1="289.2" x2="247.1" y2="291.6" stroke="#d29922" stroke-width="1.20" opacity="0.60" stroke-linecap="round"/>
<line x1="288.1" y1="273.2" x2="264.1" y2="263.7" stroke="#7bc96f" stroke-width="1.55" opacity="0.70" stroke-linecap="round"/>
<line x1="264.1" y1="263.7" x2="247.3" y2="259.7" stroke="#d29922" stroke-width="1.20" opacity="0.60" stroke-linecap="round"/>
<line x1="329.4" y1="269.2" x2="322.0" y2="229.0" stroke="#3fb950" stroke-width="1.90" opacity="0.80" stroke-linecap="round"/>
<line x1="322.0" y1="229.0" x2="304.7" y2="205.5" stroke="#7bc96f" stroke-width="1.55" opacity="0.70" stroke-linecap="round"/>
<line x1="304.7" y1="205.5" x2="295.5" y2="188.6" stroke="#d29922" stroke-width="1.20" opacity="0.60" stroke-linecap="round"/>
<line x1="322.0" y1="229.0" x2="328.8" y2="204.4" stroke="#7bc96f" stroke-width="1.55" opacity="0.70" stroke-linecap="round"/>
<line x1="328.8" y1="204.4" x2="324.9" y2="187.4" stroke="#d29922" stroke-width="1.20" opacity="0.60" stroke-linecap="round"/>
<line x1="328.8" y1="204.4" x2="341.1" y2="192.6" stroke="#d29922" stroke-width="1.20" opacity="0.60" stroke-linecap="round"/>
<line x1="381.4" y1="309.0" x2="407.8" y2="244.1" stroke="#4f9ee0" stroke-width="2.25" opacity="0.90" stroke-linecap="round"/>
<line x1="407.8" y1="244.1" x2="400.9" y2="195.1" stroke="#3fb950" stroke-width="1.90" opacity="0.80" stroke-linecap="round"/>
<line x1="400.9" y1="195.1" x2="382.0" y2="170.7" stroke="#7bc96f" stroke-width="1.55" opacity="0.70" stroke-linecap="round"/>
<line x1="382.0" y1="170.7" x2="361.0" y2="165.0" stroke="#d29922" stroke-width="1.20" opacity="0.60" stroke-linecap="round"/>
<line x1="382.0" y1="170.7" x2="383.4" y2="151.2" stroke="#d29922" stroke-width="1.20" opacity="0.60" stroke-linecap="round"/>
<line x1="400.9" y1="195.1" x2="411.7" y2="162.3" stroke="#7bc96f" stroke-width="1.55" opacity="0.70" stroke-linecap="round"/>
<line x1="411.7" y1="162.3" x2="406.0" y2="138.8" stroke="#d29922" stroke-width="1.20" opacity="0.60" stroke-linecap="round"/>
<line x1="411.7" y1="162.3" x2="429.6" y2="146.5" stroke="#d29922" stroke-width="1.20" opacity="0.60" stroke-linecap="round"/>
<line x1="407.8" y1="244.1" x2="445.6" y2="215.7" stroke="#3fb950" stroke-width="1.90" opacity="0.80" stroke-linecap="round"/>
<line x1="445.6" y1="215.7" x2="458.9" y2="187.0" stroke="#7bc96f" stroke-width="1.55" opacity="0.70" stroke-linecap="round"/>
<line x1="458.9" y1="187.0" x2="465.1" y2="166.8" stroke="#d29922" stroke-width="1.20" opacity="0.60" stroke-linecap="round"/>
<line x1="445.6" y1="215.7" x2="475.1" y2="212.5" stroke="#7bc96f" stroke-width="1.55" opacity="0.70" stroke-linecap="round"/>
<line x1="475.1" y1="212.5" x2="494.5" y2="205.9" stroke="#d29922" stroke-width="1.20" opacity="0.60" stroke-linecap="round"/>
<line x1="410.0" y1="410.0" x2="472.4" y2="325.6" stroke="#58a6ff" stroke-width="2.60" opacity="1.00" stroke-linecap="round"/>
<line x1="472.4" y1="325.6" x2="489.6" y2="256.6" stroke="#4f9ee0" stroke-width="2.25" opacity="0.90" stroke-linecap="round"/>
<line x1="489.6" y1="256.6" x2="472.9" y2="209.9" stroke="#3fb950" stroke-width="1.90" opacity="0.80" stroke-linecap="round"/>
<line x1="472.9" y1="209.9" x2="448.3" y2="187.7" stroke="#7bc96f" stroke-width="1.55" opacity="0.70" stroke-linecap="round"/>
<line x1="448.3" y1="187.7" x2="427.5" y2="182.4" stroke="#d29922" stroke-width="1.20" opacity="0.60" stroke-linecap="round"/>
<line x1="448.3" y1="187.7" x2="439.6" y2="167.4" stroke="#d29922" stroke-width="1.20" opacity="0.60" stroke-linecap="round"/>
<line x1="472.9" y1="209.9" x2="477.7" y2="176.2" stroke="#7bc96f" stroke-width="1.55" opacity="0.70" stroke-linecap="round"/>
<line x1="477.7" y1="176.2" x2="469.2" y2="155.6" stroke="#d29922" stroke-width="1.20" opacity="0.60" stroke-linecap="round"/>
<line x1="477.7" y1="176.2" x2="488.8" y2="158.2" stroke="#d29922" stroke-width="1.20" opacity="0.60" stroke-linecap="round"/>
<line x1="489.6" y1="256.6" x2="526.6" y2="226.2" stroke="#3fb950" stroke-width="1.90" opacity="0.80" stroke-linecap="round"/>
<line x1="526.6" y1="226.2" x2="543.8" y2="198.2" stroke="#7bc96f" stroke-width="1.55" opacity="0.70" stroke-linecap="round"/>
<line x1="543.8" y1="198.2" x2="557.8" y2="180.1" stroke="#d29922" stroke-width="1.20" opacity="0.60" stroke-linecap="round"/>
<line x1="526.6" y1="226.2" x2="556.5" y2="218.0" stroke="#7bc96f" stroke-width="1.55" opacity="0.70" stroke-linecap="round"/>
<line x1="556.5" y1="218.0" x2="572.9" y2="207.2" stroke="#d29922" stroke-width="1.20" opacity="0.60" stroke-linecap="round"/>
<line x1="556.5" y1="218.0" x2="576.7" y2="220.4" stroke="#d29922" stroke-width="1.20" opacity="0.60" stroke-linecap="round"/>
<line x1="472.4" y1="325.6" x2="538.9" y2="293.2" stroke="#4f9ee0" stroke-width="2.25" opacity="0.90" stroke-linecap="round"/>
<line x1="538.9" y1="293.2" x2="571.4" y2="259.3" stroke="#3fb950" stroke-width="1.90" opacity="0.80" stroke-linecap="round"/>
<line x1="571.4" y1="259.3" x2="578.2" y2="229.2" stroke="#7bc96f" stroke-width="1.55" opacity="0.70" stroke-linecap="round"/>
<line x1="578.2" y1="229.2" x2="588.8" y2="212.1" stroke="#d29922" stroke-width="1.20" opacity="0.60" stroke-linecap="round"/>
<line x1="571.4" y1="259.3" x2="600.8" y2="249.2" stroke="#7bc96f" stroke-width="1.55" opacity="0.70" stroke-linecap="round"/>
<line x1="600.8" y1="249.2" x2="616.7" y2="238.0" stroke="#d29922" stroke-width="1.20" opacity="0.60" stroke-linecap="round"/>
<line x1="538.9" y1="293.2" x2="589.3" y2="294.4" stroke="#3fb950" stroke-width="1.90" opacity="0.80" stroke-linecap="round"/>
<line x1="589.3" y1="294.4" x2="622.3" y2="280.8" stroke="#7bc96f" stroke-width="1.55" opacity="0.70" stroke-linecap="round"/>
<line x1="622.3" y1="280.8" x2="644.8" y2="272.8" stroke="#d29922" stroke-width="1.20" opacity="0.60" stroke-linecap="round"/>
<line x1="589.3" y1="294.4" x2="621.0" y2="306.6" stroke="#7bc96f" stroke-width="1.55" opacity="0.70" stroke-linecap="round"/>
<line x1="621.0" y1="306.6" x2="643.7" y2="299.8" stroke="#d29922" stroke-width="1.20" opacity="0.60" stroke-linecap="round"/>
<line x1="621.0" y1="306.6" x2="633.0" y2="325.7" stroke="#d29922" stroke-width="1.20" opacity="0.60" stroke-linecap="round"/>
<circle cx="514.9" cy="405.5" r="2.60" fill="#58a6ff" opacity="0.85"/>
<circle cx="571.1" cy="367.6" r="2.30" fill="#4f9ee0" opacity="0.85"/>
<circle cx="599.6" cy="329.6" r="2.00" fill="#3fb950" opacity="0.85"/>
<circle cx="600.0" cy="298.2" r="1.70" fill="#7bc96f" opacity="0.85"/>
<circle cx="632.0" cy="320.9" r="1.70" fill="#7bc96f" opacity="0.85"/>
<circle cx="618.1" cy="358.5" r="2.00" fill="#3fb950" opacity="0.85"/>
<circle cx="639.4" cy="332.6" r="1.70" fill="#7bc96f" opacity="0.85"/>
<circle cx="649.2" cy="372.5" r="1.70" fill="#7bc96f" opacity="0.85"/>
<circle cx="581.8" cy="438.0" r="2.30" fill="#4f9ee0" opacity="0.85"/>
<circle cx="630.7" cy="435.5" r="2.00" fill="#3fb950" opacity="0.85"/>
<circle cx="659.0" cy="418.5" r="1.70" fill="#7bc96f" opacity="0.85"/>
<circle cx="657.8" cy="453.0" r="1.70" fill="#7bc96f" opacity="0.85"/>
<circle cx="612.3" cy="479.1" r="2.00" fill="#3fb950" opacity="0.85"/>
<circle cx="642.7" cy="494.2" r="1.70" fill="#7bc96f" opacity="0.85"/>
<circle cx="620.5" cy="510.4" r="1.70" fill="#7bc96f" opacity="0.85"/>
<circle cx="472.4" cy="494.4" r="2.60" fill="#58a6ff" opacity="0.85"/>
<circle cx="535.0" cy="530.2" r="2.30" fill="#4f9ee0" opacity="0.85"/>
<circle cx="582.5" cy="533.6" r="2.00" fill="#3fb950" opacity="0.85"/>
<circle cx="611.0" cy="520.4" r="1.70" fill="#7bc96f" opacity="0.85"/>
<circle cx="607.2" cy="555.8" r="1.70" fill="#7bc96f" opacity="0.85"/>
<circle cx="560.1" cy="567.6" r="2.00" fill="#3fb950" opacity="0.85"/>
<circle cx="586.2" cy="583.5" r="1.70" fill="#7bc96f" opacity="0.85"/>
<circle cx="566.5" cy="596.3" r="1.70" fill="#7bc96f" opacity="0.85"/>
<circle cx="482.3" cy="560.0" r="2.30" fill="#4f9ee0" opacity="0.85"/>
<circle cx="502.5" cy="597.1" r="2.00" fill="#3fb950" opacity="0.85"/>
<circle cx="529.3" cy="609.6" r="1.70" fill="#7bc96f" opacity="0.85"/>
<circle cx="501.1" cy="625.8" r="1.70" fill="#7bc96f" opacity="0.85"/>
<circle cx="474.4" cy="606.0" r="2.00" fill="#3fb950" opacity="0.85"/>
<circle cx="488.4" cy="636.4" r="1.70" fill="#7bc96f" opacity="0.85"/>
<circle cx="451.0" cy="627.5" r="1.70" fill="#7bc96f" opacity="0.85"/>
<circle cx="390.8" cy="513.2" r="2.60" fill="#58a6ff" opacity="0.85"/>
<circle cx="419.7" cy="576.5" r="2.30" fill="#4f9ee0" opacity="0.85"/>
<circle cx="458.4" cy="596.8" r="2.00" fill="#3fb950" opacity="0.85"/>
<circle cx="486.6" cy="594.8" r="1.70" fill="#7bc96f" opacity="0.85"/>
<circle cx="471.3" cy="625.0" r="1.70" fill="#7bc96f" opacity="0.85"/>
<circle cx="408.1" cy="623.0" r="2.00" fill="#3fb950" opacity="0.85"/>
<circle cx="418.0" cy="654.9" r="1.70" fill="#7bc96f" opacity="0.85"/>
<circle cx="383.4" cy="646.5" r="1.70" fill="#7bc96f" opacity="0.85"/>
<circle cx="335.3" cy="558.6" r="2.30" fill="#4f9ee0" opacity="0.85"/>
<circle cx="318.1" cy="606.3" r="2.00" fill="#3fb950" opacity="0.85"/>
<circle cx="329.7" cy="635.7" r="1.70" fill="#7bc96f" opacity="0.85"/>
<circle cx="291.0" cy="624.1" r="1.70" fill="#7bc96f" opacity="0.85"/>
<circle cx="288.2" cy="563.6" r="2.00" fill="#3fb950" opacity="0.85"/>
<circle cx="263.9" cy="583.0" r="1.70" fill="#7bc96f" opacity="0.85"/>
<circle cx="258.8" cy="550.6" r="1.70" fill="#7bc96f" opacity="0.85"/>
<circle cx="312.8" cy="449.8" r="2.60" fill="#58a6ff" opacity="0.85"/>
<circle cx="261.7" cy="504.0" r="2.30" fill="#4f9ee0" opacity="0.85"/>
<circle cx="244.8" cy="552.3" r="2.00" fill="#3fb950" opacity="0.85"/>
<circle cx="255.4" cy="585.4" r="1.70" fill="#7bc96f" opacity="0.85"/>
<circle cx="215.7" cy="570.6" r="1.70" fill="#7bc96f" opacity="0.85"/>
<circle cx="215.9" cy="524.7" r="2.00" fill="#3fb950" opacity="0.85"/>
<circle cx="198.4" cy="555.8" r="1.70" fill="#7bc96f" opacity="0.85"/>
<circle cx="182.5" cy="518.4" r="1.70" fill="#7bc96f" opacity="0.85"/>
<circle cx="239.0" cy="438.0" r="2.30" fill="#4f9ee0" opacity="0.85"/>
<circle cx="196.0" cy="456.6" r="2.00" fill="#3fb950" opacity="0.85"/>
<circle cx="179.9" cy="482.6" r="1.70" fill="#7bc96f" opacity="0.85"/>
<circle cx="166.9" cy="449.0" r="1.70" fill="#7bc96f" opacity="0.85"/>
<circle cx="196.2" cy="406.6" r="2.00" fill="#3fb950" opacity="0.85"/>
<circle cx="161.8" cy="400.2" r="1.70" fill="#7bc96f" opacity="0.85"/>
<circle cx="181.0" cy="376.7" r="1.70" fill="#7bc96f" opacity="0.85"/>
<circle cx="313.5" cy="368.6" r="2.60" fill="#58a6ff" opacity="0.85"/>
<circle cx="244.6" cy="372.7" r="2.30" fill="#4f9ee0" opacity="0.85"/>
<circle cx="206.4" cy="398.3" r="2.00" fill="#3fb950" opacity="0.85"/>
<circle cx="190.1" cy="424.6" r="1.70" fill="#7bc96f" opacity="0.85"/>
<circle cx="177.2" cy="401.5" r="1.70" fill="#7bc96f" opacity="0.85"/>
<circle cx="205.3" cy="348.7" r="2.00" fill="#3fb950" opacity="0.85"/>
<circle cx="172.4" cy="348.7" r="1.70" fill="#7bc96f" opacity="0.85"/>
<circle cx="188.1" cy="320.6" r="1.70" fill="#7bc96f" opacity="0.85"/>
<circle cx="259.0" cy="317.4" r="2.30" fill="#4f9ee0" opacity="0.85"/>
<circle cx="209.7" cy="297.6" r="2.00" fill="#3fb950" opacity="0.85"/>
<circle cx="175.1" cy="300.8" r="1.70" fill="#7bc96f" opacity="0.85"/>
<circle cx="185.9" cy="270.5" r="1.70" fill="#7bc96f" opacity="0.85"/>
<circle cx="238.2" cy="273.6" r="2.00" fill="#3fb950" opacity="0.85"/>
<circle cx="209.9" cy="257.0" r="1.70" fill="#7bc96f" opacity="0.85"/>
<circle cx="241.1" cy="243.3" r="1.70" fill="#7bc96f" opacity="0.85"/>
<circle cx="381.4" cy="309.0" r="2.60" fill="#58a6ff" opacity="0.85"/>
<circle cx="329.4" cy="269.2" r="2.30" fill="#4f9ee0" opacity="0.85"/>
<circle cx="288.1" cy="273.2" r="2.00" fill="#3fb950" opacity="0.85"/>
<circle cx="266.0" cy="289.2" r="1.70" fill="#7bc96f" opacity="0.85"/>
<circle cx="264.1" cy="263.7" r="1.70" fill="#7bc96f" opacity="0.85"/>
<circle cx="322.0" cy="229.0" r="2.00" fill="#3fb950" opacity="0.85"/>
<circle cx="304.7" cy="205.5" r="1.70" fill="#7bc96f" opacity="0.85"/>
<circle cx="328.8" cy="204.4" r="1.70" fill="#7bc96f" opacity="0.85"/>
<circle cx="407.8" cy="244.1" r="2.30" fill="#4f9ee0" opacity="0.85"/>
<circle cx="400.9" cy="195.1" r="2.00" fill="#3fb950" opacity="0.85"/>
<circle cx="382.0" cy="170.7" r="1.70" fill="#7bc96f" opacity="0.85"/>
<circle cx="411.7" cy="162.3" r="1.70" fill="#7bc96f" opacity="0.85"/>
<circle cx="445.6" cy="215.7" r="2.00" fill="#3fb950" opacity="0.85"/>
<circle cx="458.9" cy="187.0" r="1.70" fill="#7bc96f" opacity="0.85"/>
<circle cx="475.1" cy="212.5" r="1.70" fill="#7bc96f" opacity="0.85"/>
<circle cx="472.4" cy="325.6" r="2.60" fill="#58a6ff" opacity="0.85"/>
<circle cx="489.6" cy="256.6" r="2.30" fill="#4f9ee0" opacity="0.85"/>
<circle cx="472.9" cy="209.9" r="2.00" fill="#3fb950" opacity="0.85"/>
<circle cx="448.3" cy="187.7" r="1.70" fill="#7bc96f" opacity="0.85"/>
<circle cx="477.7" cy="176.2" r="1.70" fill="#7bc96f" opacity="0.85"/>
<circle cx="526.6" cy="226.2" r="2.00" fill="#3fb950" opacity="0.85"/>
<circle cx="543.8" cy="198.2" r="1.70" fill="#7bc96f" opacity="0.85"/>
<circle cx="556.5" cy="218.0" r="1.70" fill="#7bc96f" opacity="0.85"/>
<circle cx="538.9" cy="293.2" r="2.30" fill="#4f9ee0" opacity="0.85"/>
<circle cx="571.4" cy="259.3" r="2.00" fill="#3fb950" opacity="0.85"/>
<circle cx="578.2" cy="229.2" r="1.70" fill="#7bc96f" opacity="0.85"/>
<circle cx="600.8" cy="249.2" r="1.70" fill="#7bc96f" opacity="0.85"/>
<circle cx="589.3" cy="294.4" r="2.00" fill="#3fb950" opacity="0.85"/>
<circle cx="622.3" cy="280.8" r="1.70" fill="#7bc96f" opacity="0.85"/>
<circle cx="621.0" cy="306.6" r="1.70" fill="#7bc96f" opacity="0.85"/>
<circle cx="589.8" cy="278.6" r="3" fill="none" stroke="#d29922" stroke-width="1" opacity="0.6"/>
<circle cx="610.9" cy="279.0" r="3" fill="none" stroke="#d29922" stroke-width="1" opacity="0.6"/>
<circle cx="652.5" cy="314.9" r="3" fill="none" stroke="#d29922" stroke-width="1" opacity="0.6"/>
<circle cx="644.9" cy="311.1" r="3" fill="none" stroke="#d29922" stroke-width="1" opacity="0.6"/>
<circle cx="660.9" cy="321.9" r="3" fill="none" stroke="#d29922" stroke-width="1" opacity="0.6"/>
<circle cx="670.8" cy="374.6" r="3" fill="none" stroke="#d29922" stroke-width="1" opacity="0.6"/>
<circle cx="665.6" cy="390.0" r="3" fill="none" stroke="#d29922" stroke-width="1" opacity="0.6"/>
<circle cx="668.8" cy="397.1" r="3" fill="none" stroke="#d29922" stroke-width="1" opacity="0.6"/>
<circle cx="681.2" cy="418.0" r="3" fill="none" stroke="#d29922" stroke-width="1" opacity="0.6"/>
<circle cx="678.4" cy="454.1" r="3" fill="none" stroke="#d29922" stroke-width="1" opacity="0.6"/>
<circle cx="666.7" cy="473.6" r="3" fill="none" stroke="#d29922" stroke-width="1" opacity="0.6"/>
<circle cx="665.6" cy="498.1" r="3" fill="none" stroke="#d29922" stroke-width="1" opacity="0.6"/>
<circle cx="624.7" cy="530.0" r="3" fill="none" stroke="#d29922" stroke-width="1" opacity="0.6"/>
<circle cx="632.1" cy="518.5" r="3" fill="none" stroke="#d29922" stroke-width="1" opacity="0.6"/>
<circle cx="625.5" cy="568.8" r="3" fill="none" stroke="#d29922" stroke-width="1" opacity="0.6"/>
<circle cx="606.0" cy="586.8" r="3" fill="none" stroke="#d29922" stroke-width="1" opacity="0.6"/>
<circle cx="599.7" cy="600.7" r="3" fill="none" stroke="#d29922" stroke-width="1" opacity="0.6"/>
<circle cx="576.8" cy="613.3" r="3" fill="none" stroke="#d29922" stroke-width="1" opacity="0.6"/>
<circle cx="548.9" cy="606.0" r="3" fill="none" stroke="#d29922" stroke-width="1" opacity="0.6"/>
<circle cx="538.8" cy="627.1" r="3" fill="none" stroke="#d29922" stroke-width="1" opacity="0.6"/>
<circle cx="497.1" cy="645.5" r="3" fill="none" stroke="#d29922" stroke-width="1" opacity="0.6"/>
<circle cx="495.3" cy="656.9" r="3" fill="none" stroke="#d29922" stroke-width="1" opacity="0.6"/>
<circle cx="440.2" cy="647.3" r="3" fill="none" stroke="#d29922" stroke-width="1" opacity="0.6"/>
<circle cx="502.4" cy="581.9" r="3" fill="none" stroke="#d29922" stroke-width="1" opacity="0.6"/>
<circle cx="502.3" cy="603.9" r="3" fill="none" stroke="#d29922" stroke-width="1" opacity="0.6"/>
<circle cx="483.2" cy="640.3" r="3" fill="none" stroke="#d29922" stroke-width="1" opacity="0.6"/>
<circle cx="435.8" cy="669.1" r="3" fill="none" stroke="#d29922" stroke-width="1" opacity="0.6"/>
<circle cx="409.7" cy="676.6" r="3" fill="none" stroke="#d29922" stroke-width="1" opacity="0.6"/>
<circle cx="368.7" cy="663.2" r="3" fill="none" stroke="#d29922" stroke-width="1" opacity="0.6"/>
<circle cx="338.9" cy="654.1" r="3" fill="none" stroke="#d29922" stroke-width="1" opacity="0.6"/>
<circle cx="283.8" cy="643.8" r="3" fill="none" stroke="#d29922" stroke-width="1" opacity="0.6"/>
<circle cx="269.0" cy="624.9" r="3" fill="none" stroke="#d29922" stroke-width="1" opacity="0.6"/>
<circle cx="247.8" cy="595.8" r="3" fill="none" stroke="#d29922" stroke-width="1" opacity="0.6"/>
<circle cx="238.3" cy="551.5" r="3" fill="none" stroke="#d29922" stroke-width="1" opacity="0.6"/>
<circle cx="246.0" cy="532.8" r="3" fill="none" stroke="#d29922" stroke-width="1" opacity="0.6"/>
<circle cx="271.2" cy="601.0" r="3" fill="none" stroke="#d29922" stroke-width="1" opacity="0.6"/>
<circle cx="251.8" cy="609.6" r="3" fill="none" stroke="#d29922" stroke-width="1" opacity="0.6"/>
<circle cx="203.3" cy="590.6" r="3" fill="none" stroke="#d29922" stroke-width="1" opacity="0.6"/>
<circle cx="193.8" cy="575.4" r="3" fill="none" stroke="#d29922" stroke-width="1" opacity="0.6"/>
<circle cx="200.2" cy="578.9" r="3" fill="none" stroke="#d29922" stroke-width="1" opacity="0.6"/>
<circle cx="176.4" cy="566.3" r="3" fill="none" stroke="#d29922" stroke-width="1" opacity="0.6"/>
<circle cx="163.1" cy="509.5" r="3" fill="none" stroke="#d29922" stroke-width="1" opacity="0.6"/>
<circle cx="166.6" cy="499.1" r="3" fill="none" stroke="#d29922" stroke-width="1" opacity="0.6"/>
<circle cx="148.6" cy="445.9" r="3" fill="none" stroke="#d29922" stroke-width="1" opacity="0.6"/>
<circle cx="138.8" cy="410.4" r="3" fill="none" stroke="#d29922" stroke-width="1" opacity="0.6"/>
<circle cx="143.6" cy="384.6" r="3" fill="none" stroke="#d29922" stroke-width="1" opacity="0.6"/>
<circle cx="174.5" cy="355.8" r="3" fill="none" stroke="#d29922" stroke-width="1" opacity="0.6"/>
<circle cx="178.8" cy="442.1" r="3" fill="none" stroke="#d29922" stroke-width="1" opacity="0.6"/>
<circle cx="160.9" cy="413.1" r="3" fill="none" stroke="#d29922" stroke-width="1" opacity="0.6"/>
<circle cx="158.5" cy="393.2" r="3" fill="none" stroke="#d29922" stroke-width="1" opacity="0.6"/>
<circle cx="151.3" cy="359.2" r="3" fill="none" stroke="#d29922" stroke-width="1" opacity="0.6"/>
<circle cx="153.3" cy="337.7" r="3" fill="none" stroke="#d29922" stroke-width="1" opacity="0.6"/>
<circle cx="166.4" cy="311.3" r="3" fill="none" stroke="#d29922" stroke-width="1" opacity="0.6"/>
<circle cx="190.1" cy="299.9" r="3" fill="none" stroke="#d29922" stroke-width="1" opacity="0.6"/>
<circle cx="152.7" cy="309.9" r="3" fill="none" stroke="#d29922" stroke-width="1" opacity="0.6"/>
<circle cx="164.3" cy="256.7" r="3" fill="none" stroke="#d29922" stroke-width="1" opacity="0.6"/>
<circle cx="186.8" cy="255.6" r="3" fill="none" stroke="#d29922" stroke-width="1" opacity="0.6"/>
<circle cx="200.3" cy="237.2" r="3" fill="none" stroke="#d29922" stroke-width="1" opacity="0.6"/>
<circle cx="240.7" cy="224.2" r="3" fill="none" stroke="#d29922" stroke-width="1" opacity="0.6"/>
<circle cx="258.6" cy="305.4" r="3" fill="none" stroke="#d29922" stroke-width="1" opacity="0.6"/>
<circle cx="247.1" cy="291.6" r="3" fill="none" stroke="#d29922" stroke-width="1" opacity="0.6"/>
<circle cx="247.3" cy="259.7" r="3" fill="none" stroke="#d29922" stroke-width="1" opacity="0.6"/>
<circle cx="295.5" cy="188.6" r="3" fill="none" stroke="#d29922" stroke-width="1" opacity="0.6"/>
<circle cx="324.9" cy="187.4" r="3" fill="none" stroke="#d29922" stroke-width="1" opacity="0.6"/>
<circle cx="341.1" cy="192.6" r="3" fill="none" stroke="#d29922" stroke-width="1" opacity="0.6"/>
<circle cx="361.0" cy="165.0" r="3" fill="none" stroke="#d29922" stroke-width="1" opacity="0.6"/>
<circle cx="383.4" cy="151.2" r="3" fill="none" stroke="#d29922" stroke-width="1" opacity="0.6"/>
<circle cx="406.0" cy="138.8" r="3" fill="none" stroke="#d29922" stroke-width="1" opacity="0.6"/>
<circle cx="429.6" cy="146.5" r="3" fill="none" stroke="#d29922" stroke-width="1" opacity="0.6"/>
<circle cx="465.1" cy="166.8" r="3" fill="none" stroke="#d29922" stroke-width="1" opacity="0.6"/>
<circle cx="494.5" cy="205.9" r="3" fill="none" stroke="#d29922" stroke-width="1" opacity="0.6"/>
<circle cx="427.5" cy="182.4" r="3" fill="none" stroke="#d29922" stroke-width="1" opacity="0.6"/>
<circle cx="439.6" cy="167.4" r="3" fill="none" stroke="#d29922" stroke-width="1" opacity="0.6"/>
<circle cx="469.2" cy="155.6" r="3" fill="none" stroke="#d29922" stroke-width="1" opacity="0.6"/>
<circle cx="488.8" cy="158.2" r="3" fill="none" stroke="#d29922" stroke-width="1" opacity="0.6"/>
<circle cx="557.8" cy="180.1" r="3" fill="none" stroke="#d29922" stroke-width="1" opacity="0.6"/>
<circle cx="572.9" cy="207.2" r="3" fill="none" stroke="#d29922" stroke-width="1" opacity="0.6"/>
<circle cx="576.7" cy="220.4" r="3" fill="none" stroke="#d29922" stroke-width="1" opacity="0.6"/>
<circle cx="588.8" cy="212.1" r="3" fill="none" stroke="#d29922" stroke-width="1" opacity="0.6"/>
<circle cx="616.7" cy="238.0" r="3" fill="none" stroke="#d29922" stroke-width="1" opacity="0.6"/>
<circle cx="644.8" cy="272.8" r="3" fill="none" stroke="#d29922" stroke-width="1" opacity="0.6"/>
<circle cx="643.7" cy="299.8" r="3" fill="none" stroke="#d29922" stroke-width="1" opacity="0.6"/>
<circle cx="633.0" cy="325.7" r="3" fill="none" stroke="#d29922" stroke-width="1" opacity="0.6"/>
<circle cx="410.0" cy="410.0" r="10" fill="#0d1117" stroke="#58a6ff" stroke-width="2"/>
<circle cx="410.0" cy="410.0" r="4" fill="#58a6ff"/>
<circle r="2.4" fill="#7ee787"><animateMotion dur="3.38s" begin="2.45s" repeatCount="indefinite" path="M259.0,317.4 L238.2,273.6"/></circle>
<circle r="2.4" fill="#f2cc60"><animateMotion dur="2.65s" begin="1.6s" repeatCount="indefinite" path="M181.0,376.7 L174.5,355.8"/></circle>
<circle r="2.4" fill="#79c0ff"><animateMotion dur="3.98s" begin="0.81s" repeatCount="indefinite" path="M639.4,332.6 L644.9,311.1"/></circle>
<circle r="2.4" fill="#7ee787"><animateMotion dur="3.99s" begin="0.85s" repeatCount="indefinite" path="M215.7,570.6 L203.3,590.6"/></circle>
<circle r="2.4" fill="#f2cc60"><animateMotion dur="3.32s" begin="0.25s" repeatCount="indefinite" path="M581.8,438.0 L612.3,479.1"/></circle>
<circle r="2.4" fill="#79c0ff"><animateMotion dur="3.01s" begin="2.04s" repeatCount="indefinite" path="M318.1,606.3 L329.7,635.7"/></circle>
<circle r="2.4" fill="#7ee787"><animateMotion dur="3.75s" begin="2.06s" repeatCount="indefinite" path="M238.2,273.6 L241.1,243.3"/></circle>
<text x="806" y="806" text-anchor="end" font-size="9" fill="#484f58" letter-spacing="1">// circuit_bloom.py — seed:20260812 — spokes:7 — regenerated daily</text>
</svg>