<svg viewBox="0 0 820 820" width="820" height="820" xmlns="http://www.w3.org/2000/svg" font-family="'Fira Code',monospace">
<defs>
<pattern id="g2" width="22" height="22" patternUnits="userSpaceOnUse">
<path d="M 22 0 L 0 0 0 22" fill="none" stroke="#30363d" stroke-width="0.4" opacity="0.3"/>
</pattern>
<radialGradient id="glow" cx="50%" cy="50%" r="50%">
<stop offset="0%" stop-color="#58a6ff" stop-opacity="0.35"/>
<stop offset="100%" stop-color="#58a6ff" stop-opacity="0"/>
</radialGradient>
</defs>
<rect x="0" y="0" width="820" height="820" fill="#0d1117"/>
<rect x="0" y="0" width="820" height="820" fill="url(#g2)"/>
<circle cx="410.0" cy="410.0" r="230" fill="url(#glow)"/>
<line x1="410.0" y1="410.0" x2="515.0" y2="412.9" stroke="#58a6ff" stroke-width="2.60" opacity="1.00" stroke-linecap="round"/>
<line x1="515.0" y1="412.9" x2="577.6" y2="390.8" stroke="#4f9ee0" stroke-width="2.25" opacity="0.90" stroke-linecap="round"/>
<line x1="577.6" y1="390.8" x2="601.8" y2="355.8" stroke="#3fb950" stroke-width="1.90" opacity="0.80" stroke-linecap="round"/>
<line x1="601.8" y1="355.8" x2="599.9" y2="329.4" stroke="#7bc96f" stroke-width="1.55" opacity="0.70" stroke-linecap="round"/>
<line x1="599.9" y1="329.4" x2="604.3" y2="312.2" stroke="#d29922" stroke-width="1.20" opacity="0.60" stroke-linecap="round"/>
<line x1="601.8" y1="355.8" x2="627.4" y2="348.2" stroke="#7bc96f" stroke-width="1.55" opacity="0.70" stroke-linecap="round"/>
<line x1="627.4" y1="348.2" x2="645.2" y2="343.4" stroke="#d29922" stroke-width="1.20" opacity="0.60" stroke-linecap="round"/>
<line x1="577.6" y1="390.8" x2="617.7" y2="401.8" stroke="#3fb950" stroke-width="1.90" opacity="0.80" stroke-linecap="round"/>
<line x1="617.7" y1="401.8" x2="644.6" y2="398.9" stroke="#7bc96f" stroke-width="1.55" opacity="0.70" stroke-linecap="round"/>
<line x1="644.6" y1="398.9" x2="663.3" y2="398.4" stroke="#d29922" stroke-width="1.20" opacity="0.60" stroke-linecap="round"/>
<line x1="617.7" y1="401.8" x2="640.1" y2="420.7" stroke="#7bc96f" stroke-width="1.55" opacity="0.70" stroke-linecap="round"/>
<line x1="640.1" y1="420.7" x2="658.3" y2="423.2" stroke="#d29922" stroke-width="1.20" opacity="0.60" stroke-linecap="round"/>
<line x1="640.1" y1="420.7" x2="646.2" y2="438.5" stroke="#d29922" stroke-width="1.20" opacity="0.60" stroke-linecap="round"/>
<line x1="515.0" y1="412.9" x2="579.4" y2="442.4" stroke="#4f9ee0" stroke-width="2.25" opacity="0.90" stroke-linecap="round"/>
<line x1="579.4" y1="442.4" x2="624.1" y2="434.5" stroke="#3fb950" stroke-width="1.90" opacity="0.80" stroke-linecap="round"/>
<line x1="624.1" y1="434.5" x2="646.1" y2="413.9" stroke="#7bc96f" stroke-width="1.55" opacity="0.70" stroke-linecap="round"/>
<line x1="646.1" y1="413.9" x2="653.7" y2="393.8" stroke="#d29922" stroke-width="1.20" opacity="0.60" stroke-linecap="round"/>
<line x1="646.1" y1="413.9" x2="666.0" y2="410.6" stroke="#d29922" stroke-width="1.20" opacity="0.60" stroke-linecap="round"/>
<line x1="624.1" y1="434.5" x2="651.4" y2="445.1" stroke="#7bc96f" stroke-width="1.55" opacity="0.70" stroke-linecap="round"/>
<line x1="651.4" y1="445.1" x2="668.1" y2="456.7" stroke="#d29922" stroke-width="1.20" opacity="0.60" stroke-linecap="round"/>
<line x1="579.4" y1="442.4" x2="605.1" y2="482.9" stroke="#3fb950" stroke-width="1.90" opacity="0.80" stroke-linecap="round"/>
<line x1="605.1" y1="482.9" x2="630.4" y2="500.8" stroke="#7bc96f" stroke-width="1.55" opacity="0.70" stroke-linecap="round"/>
<line x1="630.4" y1="500.8" x2="652.0" y2="500.9" stroke="#d29922" stroke-width="1.20" opacity="0.60" stroke-linecap="round"/>
<line x1="630.4" y1="500.8" x2="639.0" y2="521.1" stroke="#d29922" stroke-width="1.20" opacity="0.60" stroke-linecap="round"/>
<line x1="605.1" y1="482.9" x2="610.6" y2="515.5" stroke="#7bc96f" stroke-width="1.55" opacity="0.70" stroke-linecap="round"/>
<line x1="610.6" y1="515.5" x2="616.3" y2="535.4" stroke="#d29922" stroke-width="1.20" opacity="0.60" stroke-linecap="round"/>
<line x1="410.0" y1="410.0" x2="436.8" y2="511.5" stroke="#58a6ff" stroke-width="2.60" opacity="1.00" stroke-linecap="round"/>
<line x1="436.8" y1="511.5" x2="489.7" y2="559.0" stroke="#4f9ee0" stroke-width="2.25" opacity="0.90" stroke-linecap="round"/>
<line x1="489.7" y1="559.0" x2="537.2" y2="561.8" stroke="#3fb950" stroke-width="1.90" opacity="0.80" stroke-linecap="round"/>
<line x1="537.2" y1="561.8" x2="567.8" y2="549.3" stroke="#7bc96f" stroke-width="1.55" opacity="0.70" stroke-linecap="round"/>
<line x1="567.8" y1="549.3" x2="579.5" y2="531.8" stroke="#d29922" stroke-width="1.20" opacity="0.60" stroke-linecap="round"/>
<line x1="567.8" y1="549.3" x2="589.5" y2="553.3" stroke="#d29922" stroke-width="1.20" opacity="0.60" stroke-linecap="round"/>
<line x1="537.2" y1="561.8" x2="568.1" y2="576.2" stroke="#7bc96f" stroke-width="1.55" opacity="0.70" stroke-linecap="round"/>
<line x1="568.1" y1="576.2" x2="584.2" y2="590.8" stroke="#d29922" stroke-width="1.20" opacity="0.60" stroke-linecap="round"/>
<line x1="489.7" y1="559.0" x2="502.9" y2="604.6" stroke="#3fb950" stroke-width="1.90" opacity="0.80" stroke-linecap="round"/>
<line x1="502.9" y1="604.6" x2="522.5" y2="629.7" stroke="#7bc96f" stroke-width="1.55" opacity="0.70" stroke-linecap="round"/>
<line x1="522.5" y1="629.7" x2="541.9" y2="636.3" stroke="#d29922" stroke-width="1.20" opacity="0.60" stroke-linecap="round"/>
<line x1="522.5" y1="629.7" x2="522.0" y2="651.5" stroke="#d29922" stroke-width="1.20" opacity="0.60" stroke-linecap="round"/>
<line x1="502.9" y1="604.6" x2="500.4" y2="635.1" stroke="#7bc96f" stroke-width="1.55" opacity="0.70" stroke-linecap="round"/>
<line x1="500.4" y1="635.1" x2="505.6" y2="654.6" stroke="#d29922" stroke-width="1.20" opacity="0.60" stroke-linecap="round"/>
<line x1="436.8" y1="511.5" x2="413.3" y2="575.5" stroke="#4f9ee0" stroke-width="2.25" opacity="0.90" stroke-linecap="round"/>
<line x1="413.3" y1="575.5" x2="421.8" y2="617.2" stroke="#3fb950" stroke-width="1.90" opacity="0.80" stroke-linecap="round"/>
<line x1="421.8" y1="617.2" x2="442.8" y2="633.8" stroke="#7bc96f" stroke-width="1.55" opacity="0.70" stroke-linecap="round"/>
<line x1="442.8" y1="633.8" x2="458.7" y2="641.2" stroke="#d29922" stroke-width="1.20" opacity="0.60" stroke-linecap="round"/>
<line x1="421.8" y1="617.2" x2="408.4" y2="642.2" stroke="#7bc96f" stroke-width="1.55" opacity="0.70" stroke-linecap="round"/>
<line x1="408.4" y1="642.2" x2="404.5" y2="659.5" stroke="#d29922" stroke-width="1.20" opacity="0.60" stroke-linecap="round"/>
<line x1="413.3" y1="575.5" x2="379.7" y2="604.6" stroke="#3fb950" stroke-width="1.90" opacity="0.80" stroke-linecap="round"/>
<line x1="379.7" y1="604.6" x2="375.7" y2="633.5" stroke="#7bc96f" stroke-width="1.55" opacity="0.70" stroke-linecap="round"/>
<line x1="375.7" y1="633.5" x2="381.7" y2="650.7" stroke="#d29922" stroke-width="1.20" opacity="0.60" stroke-linecap="round"/>
<line x1="375.7" y1="633.5" x2="366.4" y2="651.5" stroke="#d29922" stroke-width="1.20" opacity="0.60" stroke-linecap="round"/>
<line x1="379.7" y1="604.6" x2="348.3" y2="608.5" stroke="#7bc96f" stroke-width="1.55" opacity="0.70" stroke-linecap="round"/>
<line x1="348.3" y1="608.5" x2="328.2" y2="614.3" stroke="#d29922" stroke-width="1.20" opacity="0.60" stroke-linecap="round"/>
<line x1="410.0" y1="410.0" x2="326.9" y2="474.2" stroke="#58a6ff" stroke-width="2.60" opacity="1.00" stroke-linecap="round"/>
<line x1="326.9" y1="474.2" x2="299.0" y2="544.1" stroke="#4f9ee0" stroke-width="2.25" opacity="0.90" stroke-linecap="round"/>
<line x1="299.0" y1="544.1" x2="315.1" y2="592.0" stroke="#3fb950" stroke-width="1.90" opacity="0.80" stroke-linecap="round"/>
<line x1="315.1" y1="592.0" x2="340.9" y2="613.6" stroke="#7bc96f" stroke-width="1.55" opacity="0.70" stroke-linecap="round"/>
<line x1="340.9" y1="613.6" x2="362.0" y2="617.3" stroke="#d29922" stroke-width="1.20" opacity="0.60" stroke-linecap="round"/>
<line x1="340.9" y1="613.6" x2="346.5" y2="636.2" stroke="#d29922" stroke-width="1.20" opacity="0.60" stroke-linecap="round"/>
<line x1="315.1" y1="592.0" x2="306.2" y2="624.2" stroke="#7bc96f" stroke-width="1.55" opacity="0.70" stroke-linecap="round"/>
<line x1="306.2" y1="624.2" x2="293.6" y2="642.3" stroke="#d29922" stroke-width="1.20" opacity="0.60" stroke-linecap="round"/>
<line x1="299.0" y1="544.1" x2="253.9" y2="574.1" stroke="#3fb950" stroke-width="1.90" opacity="0.80" stroke-linecap="round"/>
<line x1="253.9" y1="574.1" x2="237.2" y2="606.1" stroke="#7bc96f" stroke-width="1.55" opacity="0.70" stroke-linecap="round"/>
<line x1="237.2" y1="606.1" x2="225.3" y2="626.4" stroke="#d29922" stroke-width="1.20" opacity="0.60" stroke-linecap="round"/>
<line x1="253.9" y1="574.1" x2="220.2" y2="579.6" stroke="#7bc96f" stroke-width="1.55" opacity="0.70" stroke-linecap="round"/>
<line x1="220.2" y1="579.6" x2="197.9" y2="583.9" stroke="#d29922" stroke-width="1.20" opacity="0.60" stroke-linecap="round"/>
<line x1="326.9" y1="474.2" x2="253.2" y2="482.4" stroke="#4f9ee0" stroke-width="2.25" opacity="0.90" stroke-linecap="round"/>
<line x1="253.2" y1="482.4" x2="208.7" y2="510.2" stroke="#3fb950" stroke-width="1.90" opacity="0.80" stroke-linecap="round"/>
<line x1="208.7" y1="510.2" x2="194.9" y2="545.0" stroke="#7bc96f" stroke-width="1.55" opacity="0.70" stroke-linecap="round"/>
<line x1="194.9" y1="545.0" x2="191.7" y2="571.4" stroke="#d29922" stroke-width="1.20" opacity="0.60" stroke-linecap="round"/>
<line x1="208.7" y1="510.2" x2="173.7" y2="510.9" stroke="#7bc96f" stroke-width="1.55" opacity="0.70" stroke-linecap="round"/>
<line x1="173.7" y1="510.9" x2="150.5" y2="506.5" stroke="#d29922" stroke-width="1.20" opacity="0.60" stroke-linecap="round"/>
<line x1="253.2" y1="482.4" x2="208.5" y2="466.5" stroke="#3fb950" stroke-width="1.90" opacity="0.80" stroke-linecap="round"/>
<line x1="208.5" y1="466.5" x2="179.4" y2="476.9" stroke="#7bc96f" stroke-width="1.55" opacity="0.70" stroke-linecap="round"/>
<line x1="179.4" y1="476.9" x2="161.5" y2="487.6" stroke="#d29922" stroke-width="1.20" opacity="0.60" stroke-linecap="round"/>
<line x1="208.5" y1="466.5" x2="191.2" y2="440.4" stroke="#7bc96f" stroke-width="1.55" opacity="0.70" stroke-linecap="round"/>
<line x1="191.2" y1="440.4" x2="170.8" y2="432.1" stroke="#d29922" stroke-width="1.20" opacity="0.60" stroke-linecap="round"/>
<line x1="191.2" y1="440.4" x2="192.0" y2="418.9" stroke="#d29922" stroke-width="1.20" opacity="0.60" stroke-linecap="round"/>
<line x1="410.0" y1="410.0" x2="323.6" y2="350.3" stroke="#58a6ff" stroke-width="2.60" opacity="1.00" stroke-linecap="round"/>
<line x1="323.6" y1="350.3" x2="251.9" y2="352.4" stroke="#4f9ee0" stroke-width="2.25" opacity="0.90" stroke-linecap="round"/>
<line x1="251.9" y1="352.4" x2="206.8" y2="376.5" stroke="#3fb950" stroke-width="1.90" opacity="0.80" stroke-linecap="round"/>
<line x1="206.8" y1="376.5" x2="187.3" y2="406.7" stroke="#7bc96f" stroke-width="1.55" opacity="0.70" stroke-linecap="round"/>
<line x1="187.3" y1="406.7" x2="168.7" y2="422.5" stroke="#d29922" stroke-width="1.20" opacity="0.60" stroke-linecap="round"/>
<line x1="206.8" y1="376.5" x2="171.4" y2="376.1" stroke="#7bc96f" stroke-width="1.55" opacity="0.70" stroke-linecap="round"/>
<line x1="171.4" y1="376.1" x2="148.2" y2="367.8" stroke="#d29922" stroke-width="1.20" opacity="0.60" stroke-linecap="round"/>
<line x1="251.9" y1="352.4" x2="205.0" y2="331.8" stroke="#3fb950" stroke-width="1.90" opacity="0.80" stroke-linecap="round"/>
<line x1="205.0" y1="331.8" x2="168.5" y2="335.9" stroke="#7bc96f" stroke-width="1.55" opacity="0.70" stroke-linecap="round"/>
<line x1="168.5" y1="335.9" x2="142.2" y2="334.9" stroke="#d29922" stroke-width="1.20" opacity="0.60" stroke-linecap="round"/>
<line x1="205.0" y1="331.8" x2="183.6" y2="304.6" stroke="#7bc96f" stroke-width="1.55" opacity="0.70" stroke-linecap="round"/>
<line x1="183.6" y1="304.6" x2="164.4" y2="294.2" stroke="#d29922" stroke-width="1.20" opacity="0.60" stroke-linecap="round"/>
<line x1="183.6" y1="304.6" x2="177.8" y2="280.7" stroke="#d29922" stroke-width="1.20" opacity="0.60" stroke-linecap="round"/>
<line x1="323.6" y1="350.3" x2="305.1" y2="281.8" stroke="#4f9ee0" stroke-width="2.25" opacity="0.90" stroke-linecap="round"/>
<line x1="305.1" y1="281.8" x2="267.8" y2="251.6" stroke="#3fb950" stroke-width="1.90" opacity="0.80" stroke-linecap="round"/>
<line x1="267.8" y1="251.6" x2="234.7" y2="244.0" stroke="#7bc96f" stroke-width="1.55" opacity="0.70" stroke-linecap="round"/>
<line x1="234.7" y1="244.0" x2="213.7" y2="253.4" stroke="#d29922" stroke-width="1.20" opacity="0.60" stroke-linecap="round"/>
<line x1="234.7" y1="244.0" x2="219.3" y2="225.1" stroke="#d29922" stroke-width="1.20" opacity="0.60" stroke-linecap="round"/>
<line x1="267.8" y1="251.6" x2="253.7" y2="225.0" stroke="#7bc96f" stroke-width="1.55" opacity="0.70" stroke-linecap="round"/>
<line x1="253.7" y1="225.0" x2="234.7" y2="218.9" stroke="#d29922" stroke-width="1.20" opacity="0.60" stroke-linecap="round"/>
<line x1="253.7" y1="225.0" x2="257.6" y2="204.1" stroke="#d29922" stroke-width="1.20" opacity="0.60" stroke-linecap="round"/>
<line x1="305.1" y1="281.8" x2="325.0" y2="238.6" stroke="#3fb950" stroke-width="1.90" opacity="0.80" stroke-linecap="round"/>
<line x1="325.0" y1="238.6" x2="317.5" y2="205.2" stroke="#7bc96f" stroke-width="1.55" opacity="0.70" stroke-linecap="round"/>
<line x1="317.5" y1="205.2" x2="298.6" y2="191.9" stroke="#d29922" stroke-width="1.20" opacity="0.60" stroke-linecap="round"/>
<line x1="317.5" y1="205.2" x2="327.3" y2="183.8" stroke="#d29922" stroke-width="1.20" opacity="0.60" stroke-linecap="round"/>
<line x1="325.0" y1="238.6" x2="353.9" y2="222.7" stroke="#7bc96f" stroke-width="1.55" opacity="0.70" stroke-linecap="round"/>
<line x1="353.9" y1="222.7" x2="365.1" y2="204.5" stroke="#d29922" stroke-width="1.20" opacity="0.60" stroke-linecap="round"/>
<line x1="353.9" y1="222.7" x2="374.9" y2="220.6" stroke="#d29922" stroke-width="1.20" opacity="0.60" stroke-linecap="round"/>
<line x1="410.0" y1="410.0" x2="448.8" y2="312.4" stroke="#58a6ff" stroke-width="2.60" opacity="1.00" stroke-linecap="round"/>
<line x1="448.8" y1="312.4" x2="438.1" y2="240.4" stroke="#4f9ee0" stroke-width="2.25" opacity="0.90" stroke-linecap="round"/>
<line x1="438.1" y1="240.4" x2="401.1" y2="209.4" stroke="#3fb950" stroke-width="1.90" opacity="0.80" stroke-linecap="round"/>
<line x1="401.1" y1="209.4" x2="371.2" y2="201.9" stroke="#7bc96f" stroke-width="1.55" opacity="0.70" stroke-linecap="round"/>
<line x1="371.2" y1="201.9" x2="353.7" y2="193.6" stroke="#d29922" stroke-width="1.20" opacity="0.60" stroke-linecap="round"/>
<line x1="401.1" y1="209.4" x2="387.6" y2="179.4" stroke="#7bc96f" stroke-width="1.55" opacity="0.70" stroke-linecap="round"/>
<line x1="387.6" y1="179.4" x2="369.7" y2="167.8" stroke="#d29922" stroke-width="1.20" opacity="0.60" stroke-linecap="round"/>
<line x1="387.6" y1="179.4" x2="389.4" y2="157.8" stroke="#d29922" stroke-width="1.20" opacity="0.60" stroke-linecap="round"/>
<line x1="438.1" y1="240.4" x2="462.8" y2="198.8" stroke="#3fb950" stroke-width="1.90" opacity="0.80" stroke-linecap="round"/>
<line x1="462.8" y1="198.8" x2="466.6" y2="164.5" stroke="#7bc96f" stroke-width="1.55" opacity="0.70" stroke-linecap="round"/>
<line x1="466.6" y1="164.5" x2="454.4" y2="146.4" stroke="#d29922" stroke-width="1.20" opacity="0.60" stroke-linecap="round"/>
<line x1="466.6" y1="164.5" x2="482.0" y2="147.7" stroke="#d29922" stroke-width="1.20" opacity="0.60" stroke-linecap="round"/>
<line x1="462.8" y1="198.8" x2="491.5" y2="180.9" stroke="#7bc96f" stroke-width="1.55" opacity="0.70" stroke-linecap="round"/>
<line x1="491.5" y1="180.9" x2="511.7" y2="171.0" stroke="#d29922" stroke-width="1.20" opacity="0.60" stroke-linecap="round"/>
<line x1="448.8" y1="312.4" x2="499.0" y2="268.4" stroke="#4f9ee0" stroke-width="2.25" opacity="0.90" stroke-linecap="round"/>
<line x1="499.0" y1="268.4" x2="507.1" y2="225.2" stroke="#3fb950" stroke-width="1.90" opacity="0.80" stroke-linecap="round"/>
<line x1="507.1" y1="225.2" x2="495.2" y2="196.5" stroke="#7bc96f" stroke-width="1.55" opacity="0.70" stroke-linecap="round"/>
<line x1="495.2" y1="196.5" x2="489.9" y2="177.4" stroke="#d29922" stroke-width="1.20" opacity="0.60" stroke-linecap="round"/>
<line x1="507.1" y1="225.2" x2="528.1" y2="205.4" stroke="#7bc96f" stroke-width="1.55" opacity="0.70" stroke-linecap="round"/>
<line x1="528.1" y1="205.4" x2="530.2" y2="187.2" stroke="#d29922" stroke-width="1.20" opacity="0.60" stroke-linecap="round"/>
<line x1="528.1" y1="205.4" x2="546.1" y2="205.3" stroke="#d29922" stroke-width="1.20" opacity="0.60" stroke-linecap="round"/>
<line x1="499.0" y1="268.4" x2="542.1" y2="268.4" stroke="#3fb950" stroke-width="1.90" opacity="0.80" stroke-linecap="round"/>
<line x1="542.1" y1="268.4" x2="565.5" y2="250.2" stroke="#7bc96f" stroke-width="1.55" opacity="0.70" stroke-linecap="round"/>
<line x1="565.5" y1="250.2" x2="582.9" y2="241.4" stroke="#d29922" stroke-width="1.20" opacity="0.60" stroke-linecap="round"/>
<line x1="542.1" y1="268.4" x2="565.2" y2="283.6" stroke="#7bc96f" stroke-width="1.55" opacity="0.70" stroke-linecap="round"/>
<line x1="565.2" y1="283.6" x2="582.9" y2="289.5" stroke="#d29922" stroke-width="1.20" opacity="0.60" stroke-linecap="round"/>
<circle cx="515.0" cy="412.9" r="2.60" fill="#58a6ff" opacity="0.85"/>
<circle cx="577.6" cy="390.8" r="2.30" fill="#4f9ee0" opacity="0.85"/>
<circle cx="601.8" cy="355.8" r="2.00" fill="#3fb950" opacity="0.85"/>
<circle cx="599.9" cy="329.4" r="1.70" fill="#7bc96f" opacity="0.85"/>
<circle cx="627.4" cy="348.2" r="1.70" fill="#7bc96f" opacity="0.85"/>
<circle cx="617.7" cy="401.8" r="2.00" fill="#3fb950" opacity="0.85"/>
<circle cx="644.6" cy="398.9" r="1.70" fill="#7bc96f" opacity="0.85"/>
<circle cx="640.1" cy="420.7" r="1.70" fill="#7bc96f" opacity="0.85"/>
<circle cx="579.4" cy="442.4" r="2.30" fill="#4f9ee0" opacity="0.85"/>
<circle cx="624.1" cy="434.5" r="2.00" fill="#3fb950" opacity="0.85"/>
<circle cx="646.1" cy="413.9" r="1.70" fill="#7bc96f" opacity="0.85"/>
<circle cx="651.4" cy="445.1" r="1.70" fill="#7bc96f" opacity="0.85"/>
<circle cx="605.1" cy="482.9" r="2.00" fill="#3fb950" opacity="0.85"/>
<circle cx="630.4" cy="500.8" r="1.70" fill="#7bc96f" opacity="0.85"/>
<circle cx="610.6" cy="515.5" r="1.70" fill="#7bc96f" opacity="0.85"/>
<circle cx="436.8" cy="511.5" r="2.60" fill="#58a6ff" opacity="0.85"/>
<circle cx="489.7" cy="559.0" r="2.30" fill="#4f9ee0" opacity="0.85"/>
<circle cx="537.2" cy="561.8" r="2.00" fill="#3fb950" opacity="0.85"/>
<circle cx="567.8" cy="549.3" r="1.70" fill="#7bc96f" opacity="0.85"/>
<circle cx="568.1" cy="576.2" r="1.70" fill="#7bc96f" opacity="0.85"/>
<circle cx="502.9" cy="604.6" r="2.00" fill="#3fb950" opacity="0.85"/>
<circle cx="522.5" cy="629.7" r="1.70" fill="#7bc96f" opacity="0.85"/>
<circle cx="500.4" cy="635.1" r="1.70" fill="#7bc96f" opacity="0.85"/>
<circle cx="413.3" cy="575.5" r="2.30" fill="#4f9ee0" opacity="0.85"/>
<circle cx="421.8" cy="617.2" r="2.00" fill="#3fb950" opacity="0.85"/>
<circle cx="442.8" cy="633.8" r="1.70" fill="#7bc96f" opacity="0.85"/>
<circle cx="408.4" cy="642.2" r="1.70" fill="#7bc96f" opacity="0.85"/>
<circle cx="379.7" cy="604.6" r="2.00" fill="#3fb950" opacity="0.85"/>
<circle cx="375.7" cy="633.5" r="1.70" fill="#7bc96f" opacity="0.85"/>
<circle cx="348.3" cy="608.5" r="1.70" fill="#7bc96f" opacity="0.85"/>
<circle cx="326.9" cy="474.2" r="2.60" fill="#58a6ff" opacity="0.85"/>
<circle cx="299.0" cy="544.1" r="2.30" fill="#4f9ee0" opacity="0.85"/>
<circle cx="315.1" cy="592.0" r="2.00" fill="#3fb950" opacity="0.85"/>
<circle cx="340.9" cy="613.6" r="1.70" fill="#7bc96f" opacity="0.85"/>
<circle cx="306.2" cy="624.2" r="1.70" fill="#7bc96f" opacity="0.85"/>
<circle cx="253.9" cy="574.1" r="2.00" fill="#3fb950" opacity="0.85"/>
<circle cx="237.2" cy="606.1" r="1.70" fill="#7bc96f" opacity="0.85"/>
<circle cx="220.2" cy="579.6" r="1.70" fill="#7bc96f" opacity="0.85"/>
<circle cx="253.2" cy="482.4" r="2.30" fill="#4f9ee0" opacity="0.85"/>
<circle cx="208.7" cy="510.2" r="2.00" fill="#3fb950" opacity="0.85"/>
<circle cx="194.9" cy="545.0" r="1.70" fill="#7bc96f" opacity="0.85"/>
<circle cx="173.7" cy="510.9" r="1.70" fill="#7bc96f" opacity="0.85"/>
<circle cx="208.5" cy="466.5" r="2.00" fill="#3fb950" opacity="0.85"/>
<circle cx="179.4" cy="476.9" r="1.70" fill="#7bc96f" opacity="0.85"/>
<circle cx="191.2" cy="440.4" r="1.70" fill="#7bc96f" opacity="0.85"/>
<circle cx="323.6" cy="350.3" r="2.60" fill="#58a6ff" opacity="0.85"/>
<circle cx="251.9" cy="352.4" r="2.30" fill="#4f9ee0" opacity="0.85"/>
<circle cx="206.8" cy="376.5" r="2.00" fill="#3fb950" opacity="0.85"/>
<circle cx="187.3" cy="406.7" r="1.70" fill="#7bc96f" opacity="0.85"/>
<circle cx="171.4" cy="376.1" r="1.70" fill="#7bc96f" opacity="0.85"/>
<circle cx="205.0" cy="331.8" r="2.00" fill="#3fb950" opacity="0.85"/>
<circle cx="168.5" cy="335.9" r="1.70" fill="#7bc96f" opacity="0.85"/>
<circle cx="183.6" cy="304.6" r="1.70" fill="#7bc96f" opacity="0.85"/>
<circle cx="305.1" cy="281.8" r="2.30" fill="#4f9ee0" opacity="0.85"/>
<circle cx="267.8" cy="251.6" r="2.00" fill="#3fb950" opacity="0.85"/>
<circle cx="234.7" cy="244.0" r="1.70" fill="#7bc96f" opacity="0.85"/>
<circle cx="253.7" cy="225.0" r="1.70" fill="#7bc96f" opacity="0.85"/>
<circle cx="325.0" cy="238.6" r="2.00" fill="#3fb950" opacity="0.85"/>
<circle cx="317.5" cy="205.2" r="1.70" fill="#7bc96f" opacity="0.85"/>
<circle cx="353.9" cy="222.7" r="1.70" fill="#7bc96f" opacity="0.85"/>
<circle cx="448.8" cy="312.4" r="2.60" fill="#58a6ff" opacity="0.85"/>
<circle cx="438.1" cy="240.4" r="2.30" fill="#4f9ee0" opacity="0.85"/>
<circle cx="401.1" cy="209.4" r="2.00" fill="#3fb950" opacity="0.85"/>
<circle cx="371.2" cy="201.9" r="1.70" fill="#7bc96f" opacity="0.85"/>
<circle cx="387.6" cy="179.4" r="1.70" fill="#7bc96f" opacity="0.85"/>
<circle cx="462.8" cy="198.8" r="2.00" fill="#3fb950" opacity="0.85"/>
<circle cx="466.6" cy="164.5" r="1.70" fill="#7bc96f" opacity="0.85"/>
<circle cx="491.5" cy="180.9" r="1.70" fill="#7bc96f" opacity="0.85"/>
<circle cx="499.0" cy="268.4" r="2.30" fill="#4f9ee0" opacity="0.85"/>
<circle cx="507.1" cy="225.2" r="2.00" fill="#3fb950" opacity="0.85"/>
<circle cx="495.2" cy="196.5" r="1.70" fill="#7bc96f" opacity="0.85"/>
<circle cx="528.1" cy="205.4" r="1.70" fill="#7bc96f" opacity="0.85"/>
<circle cx="542.1" cy="268.4" r="2.00" fill="#3fb950" opacity="0.85"/>
<circle cx="565.5" cy="250.2" r="1.70" fill="#7bc96f" opacity="0.85"/>
<circle cx="565.2" cy="283.6" r="1.70" fill="#7bc96f" opacity="0.85"/>
<circle cx="604.3" cy="312.2" r="3" fill="none" stroke="#d29922" stroke-width="1" opacity="0.6"/>
<circle cx="645.2" cy="343.4" r="3" fill="none" stroke="#d29922" stroke-width="1" opacity="0.6"/>
<circle cx="663.3" cy="398.4" r="3" fill="none" stroke="#d29922" stroke-width="1" opacity="0.6"/>
<circle cx="658.3" cy="423.2" r="3" fill="none" stroke="#d29922" stroke-width="1" opacity="0.6"/>
<circle cx="646.2" cy="438.5" r="3" fill="none" stroke="#d29922" stroke-width="1" opacity="0.6"/>
<circle cx="653.7" cy="393.8" r="3" fill="none" stroke="#d29922" stroke-width="1" opacity="0.6"/>
<circle cx="666.0" cy="410.6" r="3" fill="none" stroke="#d29922" stroke-width="1" opacity="0.6"/>
<circle cx="668.1" cy="456.7" r="3" fill="none" stroke="#d29922" stroke-width="1" opacity="0.6"/>
<circle cx="652.0" cy="500.9" r="3" fill="none" stroke="#d29922" stroke-width="1" opacity="0.6"/>
<circle cx="639.0" cy="521.1" r="3" fill="none" stroke="#d29922" stroke-width="1" opacity="0.6"/>
<circle cx="616.3" cy="535.4" r="3" fill="none" stroke="#d29922" stroke-width="1" opacity="0.6"/>
<circle cx="579.5" cy="531.8" r="3" fill="none" stroke="#d29922" stroke-width="1" opacity="0.6"/>
<circle cx="589.5" cy="553.3" r="3" fill="none" stroke="#d29922" stroke-width="1" opacity="0.6"/>
<circle cx="584.2" cy="590.8" r="3" fill="none" stroke="#d29922" stroke-width="1" opacity="0.6"/>
<circle cx="541.9" cy="636.3" r="3" fill="none" stroke="#d29922" stroke-width="1" opacity="0.6"/>
<circle cx="522.0" cy="651.5" r="3" fill="none" stroke="#d29922" stroke-width="1" opacity="0.6"/>
<circle cx="505.6" cy="654.6" r="3" fill="none" stroke="#d29922" stroke-width="1" opacity="0.6"/>
<circle cx="458.7" cy="641.2" r="3" fill="none" stroke="#d29922" stroke-width="1" opacity="0.6"/>
<circle cx="404.5" cy="659.5" r="3" fill="none" stroke="#d29922" stroke-width="1" opacity="0.6"/>
<circle cx="381.7" cy="650.7" r="3" fill="none" stroke="#d29922" stroke-width="1" opacity="0.6"/>
<circle cx="366.4" cy="651.5" r="3" fill="none" stroke="#d29922" stroke-width="1" opacity="0.6"/>
<circle cx="328.2" cy="614.3" r="3" fill="none" stroke="#d29922" stroke-width="1" opacity="0.6"/>
<circle cx="362.0" cy="617.3" r="3" fill="none" stroke="#d29922" stroke-width="1" opacity="0.6"/>
<circle cx="346.5" cy="636.2" r="3" fill="none" stroke="#d29922" stroke-width="1" opacity="0.6"/>
<circle cx="293.6" cy="642.3" r="3" fill="none" stroke="#d29922" stroke-width="1" opacity="0.6"/>
<circle cx="225.3" cy="626.4" r="3" fill="none" stroke="#d29922" stroke-width="1" opacity="0.6"/>
<circle cx="197.9" cy="583.9" r="3" fill="none" stroke="#d29922" stroke-width="1" opacity="0.6"/>
<circle cx="191.7" cy="571.4" r="3" fill="none" stroke="#d29922" stroke-width="1" opacity="0.6"/>
<circle cx="150.5" cy="506.5" r="3" fill="none" stroke="#d29922" stroke-width="1" opacity="0.6"/>
<circle cx="161.5" cy="487.6" r="3" fill="none" stroke="#d29922" stroke-width="1" opacity="0.6"/>
<circle cx="170.8" cy="432.1" r="3" fill="none" stroke="#d29922" stroke-width="1" opacity="0.6"/>
<circle cx="192.0" cy="418.9" r="3" fill="none" stroke="#d29922" stroke-width="1" opacity="0.6"/>
<circle cx="168.7" cy="422.5" r="3" fill="none" stroke="#d29922" stroke-width="1" opacity="0.6"/>
<circle cx="148.2" cy="367.8" r="3" fill="none" stroke="#d29922" stroke-width="1" opacity="0.6"/>
<circle cx="142.2" cy="334.9" r="3" fill="none" stroke="#d29922" stroke-width="1" opacity="0.6"/>
<circle cx="164.4" cy="294.2" r="3" fill="none" stroke="#d29922" stroke-width="1" opacity="0.6"/>
<circle cx="177.8" cy="280.7" r="3" fill="none" stroke="#d29922" stroke-width="1" opacity="0.6"/>
<circle cx="213.7" cy="253.4" r="3" fill="none" stroke="#d29922" stroke-width="1" opacity="0.6"/>
<circle cx="219.3" cy="225.1" r="3" fill="none" stroke="#d29922" stroke-width="1" opacity="0.6"/>
<circle cx="234.7" cy="218.9" r="3" fill="none" stroke="#d29922" stroke-width="1" opacity="0.6"/>
<circle cx="257.6" cy="204.1" r="3" fill="none" stroke="#d29922" stroke-width="1" opacity="0.6"/>
<circle cx="298.6" cy="191.9" r="3" fill="none" stroke="#d29922" stroke-width="1" opacity="0.6"/>
<circle cx="327.3" cy="183.8" r="3" fill="none" stroke="#d29922" stroke-width="1" opacity="0.6"/>
<circle cx="365.1" cy="204.5" r="3" fill="none" stroke="#d29922" stroke-width="1" opacity="0.6"/>
<circle cx="374.9" cy="220.6" r="3" fill="none" stroke="#d29922" stroke-width="1" opacity="0.6"/>
<circle cx="353.7" cy="193.6" r="3" fill="none" stroke="#d29922" stroke-width="1" opacity="0.6"/>
<circle cx="369.7" cy="167.8" r="3" fill="none" stroke="#d29922" stroke-width="1" opacity="0.6"/>
<circle cx="389.4" cy="157.8" r="3" fill="none" stroke="#d29922" stroke-width="1" opacity="0.6"/>
<circle cx="454.4" cy="146.4" r="3" fill="none" stroke="#d29922" stroke-width="1" opacity="0.6"/>
<circle cx="482.0" cy="147.7" r="3" fill="none" stroke="#d29922" stroke-width="1" opacity="0.6"/>
<circle cx="511.7" cy="171.0" r="3" fill="none" stroke="#d29922" stroke-width="1" opacity="0.6"/>
<circle cx="489.9" cy="177.4" r="3" fill="none" stroke="#d29922" stroke-width="1" opacity="0.6"/>
<circle cx="530.2" cy="187.2" r="3" fill="none" stroke="#d29922" stroke-width="1" opacity="0.6"/>
<circle cx="546.1" cy="205.3" r="3" fill="none" stroke="#d29922" stroke-width="1" opacity="0.6"/>
<circle cx="582.9" cy="241.4" r="3" fill="none" stroke="#d29922" stroke-width="1" opacity="0.6"/>
<circle cx="582.9" cy="289.5" r="3" fill="none" stroke="#d29922" stroke-width="1" opacity="0.6"/>
<circle cx="410.0" cy="410.0" r="10" fill="#0d1117" stroke="#58a6ff" stroke-width="2"/>
<circle cx="410.0" cy="410.0" r="4" fill="#58a6ff"/>
<circle r="2.4" fill="#7ee787"><animateMotion dur="3.11s" begin="2.37s" repeatCount="indefinite" path="M371.2,201.9 L353.7,193.6"/></circle>
<circle r="2.4" fill="#f2cc60"><animateMotion dur="3.03s" begin="0.07s" repeatCount="indefinite" path="M448.8,312.4 L438.1,240.4"/></circle>
<circle r="2.4" fill="#79c0ff"><animateMotion dur="3.03s" begin="0.49s" repeatCount="indefinite" path="M522.5,629.7 L541.9,636.3"/></circle>
<circle r="2.4" fill="#7ee787"><animateMotion dur="3.75s" begin="2.41s" repeatCount="indefinite" path="M323.6,350.3 L251.9,352.4"/></circle>
<circle r="2.4" fill="#f2cc60"><animateMotion dur="2.86s" begin="1.96s" repeatCount="indefinite" path="M171.4,376.1 L148.2,367.8"/></circle>
<circle r="2.4" fill="#79c0ff"><animateMotion dur="2.44s" begin="1.79s" repeatCount="indefinite" path="M537.2,561.8 L567.8,549.3"/></circle>
<circle r="2.4" fill="#7ee787"><animateMotion dur="3.56s" begin="2.44s" repeatCount="indefinite" path="M599.9,329.4 L604.3,312.2"/></circle>
<text x="806" y="806" text-anchor="end" font-size="9" fill="#484f58" letter-spacing="1">// circuit_bloom.py — seed:20260713 — spokes:5 — regenerated daily</text>
</svg>