<svg viewBox="0 0 820 820" width="820" height="820" xmlns="http://www.w3.org/2000/svg" font-family="'Fira Code',monospace">
<defs>
<pattern id="g2" width="22" height="22" patternUnits="userSpaceOnUse">
<path d="M 22 0 L 0 0 0 22" fill="none" stroke="#30363d" stroke-width="0.4" opacity="0.3"/>
</pattern>
<radialGradient id="glow" cx="50%" cy="50%" r="50%">
<stop offset="0%" stop-color="#58a6ff" stop-opacity="0.35"/>
<stop offset="100%" stop-color="#58a6ff" stop-opacity="0"/>
</radialGradient>
</defs>
<rect x="0" y="0" width="820" height="820" fill="#0d1117"/>
<rect x="0" y="0" width="820" height="820" fill="url(#g2)"/>
<circle cx="410.0" cy="410.0" r="230" fill="url(#glow)"/>
<line x1="410.0" y1="410.0" x2="514.9" y2="404.8" stroke="#58a6ff" stroke-width="2.60" opacity="1.00" stroke-linecap="round"/>
<line x1="514.9" y1="404.8" x2="574.5" y2="368.1" stroke="#4f9ee0" stroke-width="2.25" opacity="0.90" stroke-linecap="round"/>
<line x1="574.5" y1="368.1" x2="596.3" y2="328.9" stroke="#3fb950" stroke-width="1.90" opacity="0.80" stroke-linecap="round"/>
<line x1="596.3" y1="328.9" x2="596.0" y2="300.2" stroke="#7bc96f" stroke-width="1.55" opacity="0.70" stroke-linecap="round"/>
<line x1="596.0" y1="300.2" x2="593.8" y2="279.9" stroke="#d29922" stroke-width="1.20" opacity="0.60" stroke-linecap="round"/>
<line x1="596.3" y1="328.9" x2="623.6" y2="316.6" stroke="#7bc96f" stroke-width="1.55" opacity="0.70" stroke-linecap="round"/>
<line x1="623.6" y1="316.6" x2="639.0" y2="305.6" stroke="#d29922" stroke-width="1.20" opacity="0.60" stroke-linecap="round"/>
<line x1="574.5" y1="368.1" x2="623.4" y2="360.1" stroke="#3fb950" stroke-width="1.90" opacity="0.80" stroke-linecap="round"/>
<line x1="623.4" y1="360.1" x2="650.1" y2="341.7" stroke="#7bc96f" stroke-width="1.55" opacity="0.70" stroke-linecap="round"/>
<line x1="650.1" y1="341.7" x2="672.3" y2="335.3" stroke="#d29922" stroke-width="1.20" opacity="0.60" stroke-linecap="round"/>
<line x1="623.4" y1="360.1" x2="656.1" y2="367.9" stroke="#7bc96f" stroke-width="1.55" opacity="0.70" stroke-linecap="round"/>
<line x1="656.1" y1="367.9" x2="679.9" y2="368.2" stroke="#d29922" stroke-width="1.20" opacity="0.60" stroke-linecap="round"/>
<line x1="514.9" y1="404.8" x2="581.8" y2="429.6" stroke="#4f9ee0" stroke-width="2.25" opacity="0.90" stroke-linecap="round"/>
<line x1="581.8" y1="429.6" x2="624.8" y2="416.3" stroke="#3fb950" stroke-width="1.90" opacity="0.80" stroke-linecap="round"/>
<line x1="624.8" y1="416.3" x2="645.2" y2="396.6" stroke="#7bc96f" stroke-width="1.55" opacity="0.70" stroke-linecap="round"/>
<line x1="645.2" y1="396.6" x2="659.1" y2="383.2" stroke="#d29922" stroke-width="1.20" opacity="0.60" stroke-linecap="round"/>
<line x1="624.8" y1="416.3" x2="656.6" y2="419.3" stroke="#7bc96f" stroke-width="1.55" opacity="0.70" stroke-linecap="round"/>
<line x1="656.6" y1="419.3" x2="676.6" y2="408.6" stroke="#d29922" stroke-width="1.20" opacity="0.60" stroke-linecap="round"/>
<line x1="656.6" y1="419.3" x2="672.2" y2="431.8" stroke="#d29922" stroke-width="1.20" opacity="0.60" stroke-linecap="round"/>
<line x1="581.8" y1="429.6" x2="610.3" y2="469.1" stroke="#3fb950" stroke-width="1.90" opacity="0.80" stroke-linecap="round"/>
<line x1="610.3" y1="469.1" x2="639.4" y2="485.8" stroke="#7bc96f" stroke-width="1.55" opacity="0.70" stroke-linecap="round"/>
<line x1="639.4" y1="485.8" x2="660.4" y2="481.2" stroke="#d29922" stroke-width="1.20" opacity="0.60" stroke-linecap="round"/>
<line x1="639.4" y1="485.8" x2="646.7" y2="508.6" stroke="#d29922" stroke-width="1.20" opacity="0.60" stroke-linecap="round"/>
<line x1="610.3" y1="469.1" x2="616.3" y2="498.8" stroke="#7bc96f" stroke-width="1.55" opacity="0.70" stroke-linecap="round"/>
<line x1="616.3" y1="498.8" x2="619.6" y2="517.7" stroke="#d29922" stroke-width="1.20" opacity="0.60" stroke-linecap="round"/>
<line x1="410.0" y1="410.0" x2="438.5" y2="511.1" stroke="#58a6ff" stroke-width="2.60" opacity="1.00" stroke-linecap="round"/>
<line x1="438.5" y1="511.1" x2="491.8" y2="564.1" stroke="#4f9ee0" stroke-width="2.25" opacity="0.90" stroke-linecap="round"/>
<line x1="491.8" y1="564.1" x2="540.4" y2="569.7" stroke="#3fb950" stroke-width="1.90" opacity="0.80" stroke-linecap="round"/>
<line x1="540.4" y1="569.7" x2="570.4" y2="556.3" stroke="#7bc96f" stroke-width="1.55" opacity="0.70" stroke-linecap="round"/>
<line x1="570.4" y1="556.3" x2="588.6" y2="546.2" stroke="#d29922" stroke-width="1.20" opacity="0.60" stroke-linecap="round"/>
<line x1="540.4" y1="569.7" x2="569.0" y2="590.2" stroke="#7bc96f" stroke-width="1.55" opacity="0.70" stroke-linecap="round"/>
<line x1="569.0" y1="590.2" x2="589.7" y2="600.5" stroke="#d29922" stroke-width="1.20" opacity="0.60" stroke-linecap="round"/>
<line x1="491.8" y1="564.1" x2="500.2" y2="616.0" stroke="#3fb950" stroke-width="1.90" opacity="0.80" stroke-linecap="round"/>
<line x1="500.2" y1="616.0" x2="519.0" y2="644.1" stroke="#7bc96f" stroke-width="1.55" opacity="0.70" stroke-linecap="round"/>
<line x1="519.0" y1="644.1" x2="527.8" y2="663.7" stroke="#d29922" stroke-width="1.20" opacity="0.60" stroke-linecap="round"/>
<line x1="500.2" y1="616.0" x2="489.6" y2="650.8" stroke="#7bc96f" stroke-width="1.55" opacity="0.70" stroke-linecap="round"/>
<line x1="489.6" y1="650.8" x2="495.1" y2="675.4" stroke="#d29922" stroke-width="1.20" opacity="0.60" stroke-linecap="round"/>
<line x1="489.6" y1="650.8" x2="474.6" y2="669.0" stroke="#d29922" stroke-width="1.20" opacity="0.60" stroke-linecap="round"/>
<line x1="438.5" y1="511.1" x2="427.7" y2="579.3" stroke="#4f9ee0" stroke-width="2.25" opacity="0.90" stroke-linecap="round"/>
<line x1="427.7" y1="579.3" x2="439.6" y2="623.4" stroke="#3fb950" stroke-width="1.90" opacity="0.80" stroke-linecap="round"/>
<line x1="439.6" y1="623.4" x2="461.9" y2="641.2" stroke="#7bc96f" stroke-width="1.55" opacity="0.70" stroke-linecap="round"/>
<line x1="461.9" y1="641.2" x2="478.2" y2="650.9" stroke="#d29922" stroke-width="1.20" opacity="0.60" stroke-linecap="round"/>
<line x1="439.6" y1="623.4" x2="429.2" y2="652.7" stroke="#7bc96f" stroke-width="1.55" opacity="0.70" stroke-linecap="round"/>
<line x1="429.2" y1="652.7" x2="421.8" y2="671.0" stroke="#d29922" stroke-width="1.20" opacity="0.60" stroke-linecap="round"/>
<line x1="427.7" y1="579.3" x2="399.0" y2="614.8" stroke="#3fb950" stroke-width="1.90" opacity="0.80" stroke-linecap="round"/>
<line x1="399.0" y1="614.8" x2="395.7" y2="645.0" stroke="#7bc96f" stroke-width="1.55" opacity="0.70" stroke-linecap="round"/>
<line x1="395.7" y1="645.0" x2="404.7" y2="664.6" stroke="#d29922" stroke-width="1.20" opacity="0.60" stroke-linecap="round"/>
<line x1="395.7" y1="645.0" x2="382.6" y2="661.0" stroke="#d29922" stroke-width="1.20" opacity="0.60" stroke-linecap="round"/>
<line x1="399.0" y1="614.8" x2="369.2" y2="623.5" stroke="#7bc96f" stroke-width="1.55" opacity="0.70" stroke-linecap="round"/>
<line x1="369.2" y1="623.5" x2="353.9" y2="637.6" stroke="#d29922" stroke-width="1.20" opacity="0.60" stroke-linecap="round"/>
<line x1="369.2" y1="623.5" x2="349.0" y2="619.4" stroke="#d29922" stroke-width="1.20" opacity="0.60" stroke-linecap="round"/>
<line x1="410.0" y1="410.0" x2="325.1" y2="471.7" stroke="#58a6ff" stroke-width="2.60" opacity="1.00" stroke-linecap="round"/>
<line x1="325.1" y1="471.7" x2="310.8" y2="536.7" stroke="#4f9ee0" stroke-width="2.25" opacity="0.90" stroke-linecap="round"/>
<line x1="310.8" y1="536.7" x2="320.2" y2="578.4" stroke="#3fb950" stroke-width="1.90" opacity="0.80" stroke-linecap="round"/>
<line x1="320.2" y1="578.4" x2="341.8" y2="594.7" stroke="#7bc96f" stroke-width="1.55" opacity="0.70" stroke-linecap="round"/>
<line x1="341.8" y1="594.7" x2="360.9" y2="597.2" stroke="#d29922" stroke-width="1.20" opacity="0.60" stroke-linecap="round"/>
<line x1="341.8" y1="594.7" x2="351.0" y2="611.5" stroke="#d29922" stroke-width="1.20" opacity="0.60" stroke-linecap="round"/>
<line x1="320.2" y1="578.4" x2="306.4" y2="603.9" stroke="#7bc96f" stroke-width="1.55" opacity="0.70" stroke-linecap="round"/>
<line x1="306.4" y1="603.9" x2="306.1" y2="622.0" stroke="#d29922" stroke-width="1.20" opacity="0.60" stroke-linecap="round"/>
<line x1="306.4" y1="603.9" x2="292.0" y2="614.9" stroke="#d29922" stroke-width="1.20" opacity="0.60" stroke-linecap="round"/>
<line x1="310.8" y1="536.7" x2="284.7" y2="571.3" stroke="#3fb950" stroke-width="1.90" opacity="0.80" stroke-linecap="round"/>
<line x1="284.7" y1="571.3" x2="280.5" y2="598.0" stroke="#7bc96f" stroke-width="1.55" opacity="0.70" stroke-linecap="round"/>
<line x1="280.5" y1="598.0" x2="289.1" y2="612.5" stroke="#d29922" stroke-width="1.20" opacity="0.60" stroke-linecap="round"/>
<line x1="280.5" y1="598.0" x2="267.9" y2="610.1" stroke="#d29922" stroke-width="1.20" opacity="0.60" stroke-linecap="round"/>
<line x1="284.7" y1="571.3" x2="259.3" y2="583.5" stroke="#7bc96f" stroke-width="1.55" opacity="0.70" stroke-linecap="round"/>
<line x1="259.3" y1="583.5" x2="249.0" y2="598.8" stroke="#d29922" stroke-width="1.20" opacity="0.60" stroke-linecap="round"/>
<line x1="259.3" y1="583.5" x2="239.6" y2="579.6" stroke="#d29922" stroke-width="1.20" opacity="0.60" stroke-linecap="round"/>
<line x1="325.1" y1="471.7" x2="252.6" y2="462.6" stroke="#4f9ee0" stroke-width="2.25" opacity="0.90" stroke-linecap="round"/>
<line x1="252.6" y1="462.6" x2="207.9" y2="479.9" stroke="#3fb950" stroke-width="1.90" opacity="0.80" stroke-linecap="round"/>
<line x1="207.9" y1="479.9" x2="188.2" y2="504.5" stroke="#7bc96f" stroke-width="1.55" opacity="0.70" stroke-linecap="round"/>
<line x1="188.2" y1="504.5" x2="184.8" y2="526.5" stroke="#d29922" stroke-width="1.20" opacity="0.60" stroke-linecap="round"/>
<line x1="188.2" y1="504.5" x2="169.1" y2="510.4" stroke="#d29922" stroke-width="1.20" opacity="0.60" stroke-linecap="round"/>
<line x1="207.9" y1="479.9" x2="178.6" y2="474.6" stroke="#7bc96f" stroke-width="1.55" opacity="0.70" stroke-linecap="round"/>
<line x1="178.6" y1="474.6" x2="159.9" y2="480.7" stroke="#d29922" stroke-width="1.20" opacity="0.60" stroke-linecap="round"/>
<line x1="178.6" y1="474.6" x2="161.3" y2="463.1" stroke="#d29922" stroke-width="1.20" opacity="0.60" stroke-linecap="round"/>
<line x1="252.6" y1="462.6" x2="210.7" y2="431.5" stroke="#3fb950" stroke-width="1.90" opacity="0.80" stroke-linecap="round"/>
<line x1="210.7" y1="431.5" x2="175.6" y2="428.3" stroke="#7bc96f" stroke-width="1.55" opacity="0.70" stroke-linecap="round"/>
<line x1="175.6" y1="428.3" x2="153.8" y2="429.7" stroke="#d29922" stroke-width="1.20" opacity="0.60" stroke-linecap="round"/>
<line x1="210.7" y1="431.5" x2="197.6" y2="398.3" stroke="#7bc96f" stroke-width="1.55" opacity="0.70" stroke-linecap="round"/>
<line x1="197.6" y1="398.3" x2="178.9" y2="383.1" stroke="#d29922" stroke-width="1.20" opacity="0.60" stroke-linecap="round"/>
<line x1="197.6" y1="398.3" x2="201.6" y2="374.3" stroke="#d29922" stroke-width="1.20" opacity="0.60" stroke-linecap="round"/>
<line x1="410.0" y1="410.0" x2="326.9" y2="345.8" stroke="#58a6ff" stroke-width="2.60" opacity="1.00" stroke-linecap="round"/>
<line x1="326.9" y1="345.8" x2="254.4" y2="341.3" stroke="#4f9ee0" stroke-width="2.25" opacity="0.90" stroke-linecap="round"/>
<line x1="254.4" y1="341.3" x2="214.9" y2="363.9" stroke="#3fb950" stroke-width="1.90" opacity="0.80" stroke-linecap="round"/>
<line x1="214.9" y1="363.9" x2="205.5" y2="394.3" stroke="#7bc96f" stroke-width="1.55" opacity="0.70" stroke-linecap="round"/>
<line x1="205.5" y1="394.3" x2="209.6" y2="415.6" stroke="#d29922" stroke-width="1.20" opacity="0.60" stroke-linecap="round"/>
<line x1="205.5" y1="394.3" x2="189.1" y2="408.8" stroke="#d29922" stroke-width="1.20" opacity="0.60" stroke-linecap="round"/>
<line x1="214.9" y1="363.9" x2="186.7" y2="357.3" stroke="#7bc96f" stroke-width="1.55" opacity="0.70" stroke-linecap="round"/>
<line x1="186.7" y1="357.3" x2="168.4" y2="360.3" stroke="#d29922" stroke-width="1.20" opacity="0.60" stroke-linecap="round"/>
<line x1="186.7" y1="357.3" x2="173.3" y2="345.0" stroke="#d29922" stroke-width="1.20" opacity="0.60" stroke-linecap="round"/>
<line x1="254.4" y1="341.3" x2="213.2" y2="311.0" stroke="#3fb950" stroke-width="1.90" opacity="0.80" stroke-linecap="round"/>
<line x1="213.2" y1="311.0" x2="180.9" y2="310.2" stroke="#7bc96f" stroke-width="1.55" opacity="0.70" stroke-linecap="round"/>
<line x1="180.9" y1="310.2" x2="164.5" y2="323.7" stroke="#d29922" stroke-width="1.20" opacity="0.60" stroke-linecap="round"/>
<line x1="180.9" y1="310.2" x2="165.5" y2="296.5" stroke="#d29922" stroke-width="1.20" opacity="0.60" stroke-linecap="round"/>
<line x1="213.2" y1="311.0" x2="205.8" y2="278.7" stroke="#7bc96f" stroke-width="1.55" opacity="0.70" stroke-linecap="round"/>
<line x1="205.8" y1="278.7" x2="187.7" y2="265.1" stroke="#d29922" stroke-width="1.20" opacity="0.60" stroke-linecap="round"/>
<line x1="205.8" y1="278.7" x2="214.4" y2="256.7" stroke="#d29922" stroke-width="1.20" opacity="0.60" stroke-linecap="round"/>
<line x1="326.9" y1="345.8" x2="298.8" y2="276.5" stroke="#4f9ee0" stroke-width="2.25" opacity="0.90" stroke-linecap="round"/>
<line x1="298.8" y1="276.5" x2="258.3" y2="243.3" stroke="#3fb950" stroke-width="1.90" opacity="0.80" stroke-linecap="round"/>
<line x1="258.3" y1="243.3" x2="222.6" y2="240.1" stroke="#7bc96f" stroke-width="1.55" opacity="0.70" stroke-linecap="round"/>
<line x1="222.6" y1="240.1" x2="200.6" y2="247.6" stroke="#d29922" stroke-width="1.20" opacity="0.60" stroke-linecap="round"/>
<line x1="222.6" y1="240.1" x2="203.2" y2="226.6" stroke="#d29922" stroke-width="1.20" opacity="0.60" stroke-linecap="round"/>
<line x1="258.3" y1="243.3" x2="244.3" y2="209.2" stroke="#7bc96f" stroke-width="1.55" opacity="0.70" stroke-linecap="round"/>
<line x1="244.3" y1="209.2" x2="223.5" y2="195.9" stroke="#d29922" stroke-width="1.20" opacity="0.60" stroke-linecap="round"/>
<line x1="244.3" y1="209.2" x2="250.6" y2="183.7" stroke="#d29922" stroke-width="1.20" opacity="0.60" stroke-linecap="round"/>
<line x1="298.8" y1="276.5" x2="298.4" y2="225.8" stroke="#3fb950" stroke-width="1.90" opacity="0.80" stroke-linecap="round"/>
<line x1="298.4" y1="225.8" x2="279.7" y2="198.4" stroke="#7bc96f" stroke-width="1.55" opacity="0.70" stroke-linecap="round"/>
<line x1="279.7" y1="198.4" x2="271.3" y2="178.9" stroke="#d29922" stroke-width="1.20" opacity="0.60" stroke-linecap="round"/>
<line x1="298.4" y1="225.8" x2="316.7" y2="198.5" stroke="#7bc96f" stroke-width="1.55" opacity="0.70" stroke-linecap="round"/>
<line x1="316.7" y1="198.5" x2="334.9" y2="183.4" stroke="#d29922" stroke-width="1.20" opacity="0.60" stroke-linecap="round"/>
<line x1="410.0" y1="410.0" x2="440.5" y2="309.5" stroke="#58a6ff" stroke-width="2.60" opacity="1.00" stroke-linecap="round"/>
<line x1="440.5" y1="309.5" x2="433.1" y2="240.4" stroke="#4f9ee0" stroke-width="2.25" opacity="0.90" stroke-linecap="round"/>
<line x1="433.1" y1="240.4" x2="407.5" y2="204.3" stroke="#3fb950" stroke-width="1.90" opacity="0.80" stroke-linecap="round"/>
<line x1="407.5" y1="204.3" x2="380.0" y2="193.1" stroke="#7bc96f" stroke-width="1.55" opacity="0.70" stroke-linecap="round"/>
<line x1="380.0" y1="193.1" x2="361.0" y2="197.8" stroke="#d29922" stroke-width="1.20" opacity="0.60" stroke-linecap="round"/>
<line x1="380.0" y1="193.1" x2="369.4" y2="176.5" stroke="#d29922" stroke-width="1.20" opacity="0.60" stroke-linecap="round"/>
<line x1="407.5" y1="204.3" x2="408.9" y2="173.5" stroke="#7bc96f" stroke-width="1.55" opacity="0.70" stroke-linecap="round"/>
<line x1="408.9" y1="173.5" x2="400.6" y2="154.1" stroke="#d29922" stroke-width="1.20" opacity="0.60" stroke-linecap="round"/>
<line x1="408.9" y1="173.5" x2="420.4" y2="157.5" stroke="#d29922" stroke-width="1.20" opacity="0.60" stroke-linecap="round"/>
<line x1="433.1" y1="240.4" x2="456.2" y2="197.8" stroke="#3fb950" stroke-width="1.90" opacity="0.80" stroke-linecap="round"/>
<line x1="456.2" y1="197.8" x2="455.0" y2="164.0" stroke="#7bc96f" stroke-width="1.55" opacity="0.70" stroke-linecap="round"/>
<line x1="455.0" y1="164.0" x2="447.8" y2="143.7" stroke="#d29922" stroke-width="1.20" opacity="0.60" stroke-linecap="round"/>
<line x1="456.2" y1="197.8" x2="483.8" y2="179.5" stroke="#7bc96f" stroke-width="1.55" opacity="0.70" stroke-linecap="round"/>
<line x1="483.8" y1="179.5" x2="500.3" y2="167.1" stroke="#d29922" stroke-width="1.20" opacity="0.60" stroke-linecap="round"/>
<line x1="440.5" y1="309.5" x2="486.4" y2="261.0" stroke="#4f9ee0" stroke-width="2.25" opacity="0.90" stroke-linecap="round"/>
<line x1="486.4" y1="261.0" x2="498.9" y2="215.3" stroke="#3fb950" stroke-width="1.90" opacity="0.80" stroke-linecap="round"/>
<line x1="498.9" y1="215.3" x2="495.7" y2="184.8" stroke="#7bc96f" stroke-width="1.55" opacity="0.70" stroke-linecap="round"/>
<line x1="495.7" y1="184.8" x2="489.8" y2="165.6" stroke="#d29922" stroke-width="1.20" opacity="0.60" stroke-linecap="round"/>
<line x1="498.9" y1="215.3" x2="520.3" y2="189.8" stroke="#7bc96f" stroke-width="1.55" opacity="0.70" stroke-linecap="round"/>
<line x1="520.3" y1="189.8" x2="527.8" y2="170.4" stroke="#d29922" stroke-width="1.20" opacity="0.60" stroke-linecap="round"/>
<line x1="486.4" y1="261.0" x2="530.5" y2="246.8" stroke="#3fb950" stroke-width="1.90" opacity="0.80" stroke-linecap="round"/>
<line x1="530.5" y1="246.8" x2="553.6" y2="225.3" stroke="#7bc96f" stroke-width="1.55" opacity="0.70" stroke-linecap="round"/>
<line x1="553.6" y1="225.3" x2="567.7" y2="211.6" stroke="#d29922" stroke-width="1.20" opacity="0.60" stroke-linecap="round"/>
<line x1="530.5" y1="246.8" x2="563.6" y2="248.6" stroke="#7bc96f" stroke-width="1.55" opacity="0.70" stroke-linecap="round"/>
<line x1="563.6" y1="248.6" x2="585.0" y2="250.5" stroke="#d29922" stroke-width="1.20" opacity="0.60" stroke-linecap="round"/>
<circle cx="514.9" cy="404.8" r="2.60" fill="#58a6ff" opacity="0.85"/>
<circle cx="574.5" cy="368.1" r="2.30" fill="#4f9ee0" opacity="0.85"/>
<circle cx="596.3" cy="328.9" r="2.00" fill="#3fb950" opacity="0.85"/>
<circle cx="596.0" cy="300.2" r="1.70" fill="#7bc96f" opacity="0.85"/>
<circle cx="623.6" cy="316.6" r="1.70" fill="#7bc96f" opacity="0.85"/>
<circle cx="623.4" cy="360.1" r="2.00" fill="#3fb950" opacity="0.85"/>
<circle cx="650.1" cy="341.7" r="1.70" fill="#7bc96f" opacity="0.85"/>
<circle cx="656.1" cy="367.9" r="1.70" fill="#7bc96f" opacity="0.85"/>
<circle cx="581.8" cy="429.6" r="2.30" fill="#4f9ee0" opacity="0.85"/>
<circle cx="624.8" cy="416.3" r="2.00" fill="#3fb950" opacity="0.85"/>
<circle cx="645.2" cy="396.6" r="1.70" fill="#7bc96f" opacity="0.85"/>
<circle cx="656.6" cy="419.3" r="1.70" fill="#7bc96f" opacity="0.85"/>
<circle cx="610.3" cy="469.1" r="2.00" fill="#3fb950" opacity="0.85"/>
<circle cx="639.4" cy="485.8" r="1.70" fill="#7bc96f" opacity="0.85"/>
<circle cx="616.3" cy="498.8" r="1.70" fill="#7bc96f" opacity="0.85"/>
<circle cx="438.5" cy="511.1" r="2.60" fill="#58a6ff" opacity="0.85"/>
<circle cx="491.8" cy="564.1" r="2.30" fill="#4f9ee0" opacity="0.85"/>
<circle cx="540.4" cy="569.7" r="2.00" fill="#3fb950" opacity="0.85"/>
<circle cx="570.4" cy="556.3" r="1.70" fill="#7bc96f" opacity="0.85"/>
<circle cx="569.0" cy="590.2" r="1.70" fill="#7bc96f" opacity="0.85"/>
<circle cx="500.2" cy="616.0" r="2.00" fill="#3fb950" opacity="0.85"/>
<circle cx="519.0" cy="644.1" r="1.70" fill="#7bc96f" opacity="0.85"/>
<circle cx="489.6" cy="650.8" r="1.70" fill="#7bc96f" opacity="0.85"/>
<circle cx="427.7" cy="579.3" r="2.30" fill="#4f9ee0" opacity="0.85"/>
<circle cx="439.6" cy="623.4" r="2.00" fill="#3fb950" opacity="0.85"/>
<circle cx="461.9" cy="641.2" r="1.70" fill="#7bc96f" opacity="0.85"/>
<circle cx="429.2" cy="652.7" r="1.70" fill="#7bc96f" opacity="0.85"/>
<circle cx="399.0" cy="614.8" r="2.00" fill="#3fb950" opacity="0.85"/>
<circle cx="395.7" cy="645.0" r="1.70" fill="#7bc96f" opacity="0.85"/>
<circle cx="369.2" cy="623.5" r="1.70" fill="#7bc96f" opacity="0.85"/>
<circle cx="325.1" cy="471.7" r="2.60" fill="#58a6ff" opacity="0.85"/>
<circle cx="310.8" cy="536.7" r="2.30" fill="#4f9ee0" opacity="0.85"/>
<circle cx="320.2" cy="578.4" r="2.00" fill="#3fb950" opacity="0.85"/>
<circle cx="341.8" cy="594.7" r="1.70" fill="#7bc96f" opacity="0.85"/>
<circle cx="306.4" cy="603.9" r="1.70" fill="#7bc96f" opacity="0.85"/>
<circle cx="284.7" cy="571.3" r="2.00" fill="#3fb950" opacity="0.85"/>
<circle cx="280.5" cy="598.0" r="1.70" fill="#7bc96f" opacity="0.85"/>
<circle cx="259.3" cy="583.5" r="1.70" fill="#7bc96f" opacity="0.85"/>
<circle cx="252.6" cy="462.6" r="2.30" fill="#4f9ee0" opacity="0.85"/>
<circle cx="207.9" cy="479.9" r="2.00" fill="#3fb950" opacity="0.85"/>
<circle cx="188.2" cy="504.5" r="1.70" fill="#7bc96f" opacity="0.85"/>
<circle cx="178.6" cy="474.6" r="1.70" fill="#7bc96f" opacity="0.85"/>
<circle cx="210.7" cy="431.5" r="2.00" fill="#3fb950" opacity="0.85"/>
<circle cx="175.6" cy="428.3" r="1.70" fill="#7bc96f" opacity="0.85"/>
<circle cx="197.6" cy="398.3" r="1.70" fill="#7bc96f" opacity="0.85"/>
<circle cx="326.9" cy="345.8" r="2.60" fill="#58a6ff" opacity="0.85"/>
<circle cx="254.4" cy="341.3" r="2.30" fill="#4f9ee0" opacity="0.85"/>
<circle cx="214.9" cy="363.9" r="2.00" fill="#3fb950" opacity="0.85"/>
<circle cx="205.5" cy="394.3" r="1.70" fill="#7bc96f" opacity="0.85"/>
<circle cx="186.7" cy="357.3" r="1.70" fill="#7bc96f" opacity="0.85"/>
<circle cx="213.2" cy="311.0" r="2.00" fill="#3fb950" opacity="0.85"/>
<circle cx="180.9" cy="310.2" r="1.70" fill="#7bc96f" opacity="0.85"/>
<circle cx="205.8" cy="278.7" r="1.70" fill="#7bc96f" opacity="0.85"/>
<circle cx="298.8" cy="276.5" r="2.30" fill="#4f9ee0" opacity="0.85"/>
<circle cx="258.3" cy="243.3" r="2.00" fill="#3fb950" opacity="0.85"/>
<circle cx="222.6" cy="240.1" r="1.70" fill="#7bc96f" opacity="0.85"/>
<circle cx="244.3" cy="209.2" r="1.70" fill="#7bc96f" opacity="0.85"/>
<circle cx="298.4" cy="225.8" r="2.00" fill="#3fb950" opacity="0.85"/>
<circle cx="279.7" cy="198.4" r="1.70" fill="#7bc96f" opacity="0.85"/>
<circle cx="316.7" cy="198.5" r="1.70" fill="#7bc96f" opacity="0.85"/>
<circle cx="440.5" cy="309.5" r="2.60" fill="#58a6ff" opacity="0.85"/>
<circle cx="433.1" cy="240.4" r="2.30" fill="#4f9ee0" opacity="0.85"/>
<circle cx="407.5" cy="204.3" r="2.00" fill="#3fb950" opacity="0.85"/>
<circle cx="380.0" cy="193.1" r="1.70" fill="#7bc96f" opacity="0.85"/>
<circle cx="408.9" cy="173.5" r="1.70" fill="#7bc96f" opacity="0.85"/>
<circle cx="456.2" cy="197.8" r="2.00" fill="#3fb950" opacity="0.85"/>
<circle cx="455.0" cy="164.0" r="1.70" fill="#7bc96f" opacity="0.85"/>
<circle cx="483.8" cy="179.5" r="1.70" fill="#7bc96f" opacity="0.85"/>
<circle cx="486.4" cy="261.0" r="2.30" fill="#4f9ee0" opacity="0.85"/>
<circle cx="498.9" cy="215.3" r="2.00" fill="#3fb950" opacity="0.85"/>
<circle cx="495.7" cy="184.8" r="1.70" fill="#7bc96f" opacity="0.85"/>
<circle cx="520.3" cy="189.8" r="1.70" fill="#7bc96f" opacity="0.85"/>
<circle cx="530.5" cy="246.8" r="2.00" fill="#3fb950" opacity="0.85"/>
<circle cx="553.6" cy="225.3" r="1.70" fill="#7bc96f" opacity="0.85"/>
<circle cx="563.6" cy="248.6" r="1.70" fill="#7bc96f" opacity="0.85"/>
<circle cx="593.8" cy="279.9" r="3" fill="none" stroke="#d29922" stroke-width="1" opacity="0.6"/>
<circle cx="639.0" cy="305.6" r="3" fill="none" stroke="#d29922" stroke-width="1" opacity="0.6"/>
<circle cx="672.3" cy="335.3" r="3" fill="none" stroke="#d29922" stroke-width="1" opacity="0.6"/>
<circle cx="679.9" cy="368.2" r="3" fill="none" stroke="#d29922" stroke-width="1" opacity="0.6"/>
<circle cx="659.1" cy="383.2" r="3" fill="none" stroke="#d29922" stroke-width="1" opacity="0.6"/>
<circle cx="676.6" cy="408.6" r="3" fill="none" stroke="#d29922" stroke-width="1" opacity="0.6"/>
<circle cx="672.2" cy="431.8" r="3" fill="none" stroke="#d29922" stroke-width="1" opacity="0.6"/>
<circle cx="660.4" cy="481.2" r="3" fill="none" stroke="#d29922" stroke-width="1" opacity="0.6"/>
<circle cx="646.7" cy="508.6" r="3" fill="none" stroke="#d29922" stroke-width="1" opacity="0.6"/>
<circle cx="619.6" cy="517.7" r="3" fill="none" stroke="#d29922" stroke-width="1" opacity="0.6"/>
<circle cx="588.6" cy="546.2" r="3" fill="none" stroke="#d29922" stroke-width="1" opacity="0.6"/>
<circle cx="589.7" cy="600.5" r="3" fill="none" stroke="#d29922" stroke-width="1" opacity="0.6"/>
<circle cx="527.8" cy="663.7" r="3" fill="none" stroke="#d29922" stroke-width="1" opacity="0.6"/>
<circle cx="495.1" cy="675.4" r="3" fill="none" stroke="#d29922" stroke-width="1" opacity="0.6"/>
<circle cx="474.6" cy="669.0" r="3" fill="none" stroke="#d29922" stroke-width="1" opacity="0.6"/>
<circle cx="478.2" cy="650.9" r="3" fill="none" stroke="#d29922" stroke-width="1" opacity="0.6"/>
<circle cx="421.8" cy="671.0" r="3" fill="none" stroke="#d29922" stroke-width="1" opacity="0.6"/>
<circle cx="404.7" cy="664.6" r="3" fill="none" stroke="#d29922" stroke-width="1" opacity="0.6"/>
<circle cx="382.6" cy="661.0" r="3" fill="none" stroke="#d29922" stroke-width="1" opacity="0.6"/>
<circle cx="353.9" cy="637.6" r="3" fill="none" stroke="#d29922" stroke-width="1" opacity="0.6"/>
<circle cx="349.0" cy="619.4" r="3" fill="none" stroke="#d29922" stroke-width="1" opacity="0.6"/>
<circle cx="360.9" cy="597.2" r="3" fill="none" stroke="#d29922" stroke-width="1" opacity="0.6"/>
<circle cx="351.0" cy="611.5" r="3" fill="none" stroke="#d29922" stroke-width="1" opacity="0.6"/>
<circle cx="306.1" cy="622.0" r="3" fill="none" stroke="#d29922" stroke-width="1" opacity="0.6"/>
<circle cx="292.0" cy="614.9" r="3" fill="none" stroke="#d29922" stroke-width="1" opacity="0.6"/>
<circle cx="289.1" cy="612.5" r="3" fill="none" stroke="#d29922" stroke-width="1" opacity="0.6"/>
<circle cx="267.9" cy="610.1" r="3" fill="none" stroke="#d29922" stroke-width="1" opacity="0.6"/>
<circle cx="249.0" cy="598.8" r="3" fill="none" stroke="#d29922" stroke-width="1" opacity="0.6"/>
<circle cx="239.6" cy="579.6" r="3" fill="none" stroke="#d29922" stroke-width="1" opacity="0.6"/>
<circle cx="184.8" cy="526.5" r="3" fill="none" stroke="#d29922" stroke-width="1" opacity="0.6"/>
<circle cx="169.1" cy="510.4" r="3" fill="none" stroke="#d29922" stroke-width="1" opacity="0.6"/>
<circle cx="159.9" cy="480.7" r="3" fill="none" stroke="#d29922" stroke-width="1" opacity="0.6"/>
<circle cx="161.3" cy="463.1" r="3" fill="none" stroke="#d29922" stroke-width="1" opacity="0.6"/>
<circle cx="153.8" cy="429.7" r="3" fill="none" stroke="#d29922" stroke-width="1" opacity="0.6"/>
<circle cx="178.9" cy="383.1" r="3" fill="none" stroke="#d29922" stroke-width="1" opacity="0.6"/>
<circle cx="201.6" cy="374.3" r="3" fill="none" stroke="#d29922" stroke-width="1" opacity="0.6"/>
<circle cx="209.6" cy="415.6" r="3" fill="none" stroke="#d29922" stroke-width="1" opacity="0.6"/>
<circle cx="189.1" cy="408.8" r="3" fill="none" stroke="#d29922" stroke-width="1" opacity="0.6"/>
<circle cx="168.4" cy="360.3" r="3" fill="none" stroke="#d29922" stroke-width="1" opacity="0.6"/>
<circle cx="173.3" cy="345.0" r="3" fill="none" stroke="#d29922" stroke-width="1" opacity="0.6"/>
<circle cx="164.5" cy="323.7" r="3" fill="none" stroke="#d29922" stroke-width="1" opacity="0.6"/>
<circle cx="165.5" cy="296.5" r="3" fill="none" stroke="#d29922" stroke-width="1" opacity="0.6"/>
<circle cx="187.7" cy="265.1" r="3" fill="none" stroke="#d29922" stroke-width="1" opacity="0.6"/>
<circle cx="214.4" cy="256.7" r="3" fill="none" stroke="#d29922" stroke-width="1" opacity="0.6"/>
<circle cx="200.6" cy="247.6" r="3" fill="none" stroke="#d29922" stroke-width="1" opacity="0.6"/>
<circle cx="203.2" cy="226.6" r="3" fill="none" stroke="#d29922" stroke-width="1" opacity="0.6"/>
<circle cx="223.5" cy="195.9" r="3" fill="none" stroke="#d29922" stroke-width="1" opacity="0.6"/>
<circle cx="250.6" cy="183.7" r="3" fill="none" stroke="#d29922" stroke-width="1" opacity="0.6"/>
<circle cx="271.3" cy="178.9" r="3" fill="none" stroke="#d29922" stroke-width="1" opacity="0.6"/>
<circle cx="334.9" cy="183.4" r="3" fill="none" stroke="#d29922" stroke-width="1" opacity="0.6"/>
<circle cx="361.0" cy="197.8" r="3" fill="none" stroke="#d29922" stroke-width="1" opacity="0.6"/>
<circle cx="369.4" cy="176.5" r="3" fill="none" stroke="#d29922" stroke-width="1" opacity="0.6"/>
<circle cx="400.6" cy="154.1" r="3" fill="none" stroke="#d29922" stroke-width="1" opacity="0.6"/>
<circle cx="420.4" cy="157.5" r="3" fill="none" stroke="#d29922" stroke-width="1" opacity="0.6"/>
<circle cx="447.8" cy="143.7" r="3" fill="none" stroke="#d29922" stroke-width="1" opacity="0.6"/>
<circle cx="500.3" cy="167.1" r="3" fill="none" stroke="#d29922" stroke-width="1" opacity="0.6"/>
<circle cx="489.8" cy="165.6" r="3" fill="none" stroke="#d29922" stroke-width="1" opacity="0.6"/>
<circle cx="527.8" cy="170.4" r="3" fill="none" stroke="#d29922" stroke-width="1" opacity="0.6"/>
<circle cx="567.7" cy="211.6" r="3" fill="none" stroke="#d29922" stroke-width="1" opacity="0.6"/>
<circle cx="585.0" cy="250.5" r="3" fill="none" stroke="#d29922" stroke-width="1" opacity="0.6"/>
<circle cx="410.0" cy="410.0" r="10" fill="#0d1117" stroke="#58a6ff" stroke-width="2"/>
<circle cx="410.0" cy="410.0" r="4" fill="#58a6ff"/>
<circle r="2.4" fill="#7ee787"><animateMotion dur="3.51s" begin="1.14s" repeatCount="indefinite" path="M180.9,310.2 L164.5,323.7"/></circle>
<circle r="2.4" fill="#f2cc60"><animateMotion dur="2.72s" begin="0.4s" repeatCount="indefinite" path="M407.5,204.3 L408.9,173.5"/></circle>
<circle r="2.4" fill="#79c0ff"><animateMotion dur="3.76s" begin="2.07s" repeatCount="indefinite" path="M284.7,571.3 L259.3,583.5"/></circle>
<circle r="2.4" fill="#7ee787"><animateMotion dur="3.25s" begin="1.37s" repeatCount="indefinite" path="M395.7,645.0 L404.7,664.6"/></circle>
<circle r="2.4" fill="#f2cc60"><animateMotion dur="3.44s" begin="2.2s" repeatCount="indefinite" path="M483.8,179.5 L500.3,167.1"/></circle>
<circle r="2.4" fill="#79c0ff"><animateMotion dur="3.55s" begin="2.22s" repeatCount="indefinite" path="M320.2,578.4 L341.8,594.7"/></circle>
<circle r="2.4" fill="#7ee787"><animateMotion dur="3.19s" begin="1.94s" repeatCount="indefinite" path="M563.6,248.6 L585.0,250.5"/></circle>
<text x="806" y="806" text-anchor="end" font-size="9" fill="#484f58" letter-spacing="1">// circuit_bloom.py — seed:20260802 — spokes:5 — regenerated daily</text>
</svg>