<svg viewBox="0 0 820 820" width="820" height="820" xmlns="http://www.w3.org/2000/svg" font-family="'Fira Code',monospace">
<defs>
<pattern id="g2" width="22" height="22" patternUnits="userSpaceOnUse">
<path d="M 22 0 L 0 0 0 22" fill="none" stroke="#30363d" stroke-width="0.4" opacity="0.3"/>
</pattern>
<radialGradient id="glow" cx="50%" cy="50%" r="50%">
<stop offset="0%" stop-color="#58a6ff" stop-opacity="0.35"/>
<stop offset="100%" stop-color="#58a6ff" stop-opacity="0"/>
</radialGradient>
</defs>
<rect x="0" y="0" width="820" height="820" fill="#0d1117"/>
<rect x="0" y="0" width="820" height="820" fill="url(#g2)"/>
<circle cx="410.0" cy="410.0" r="230" fill="url(#glow)"/>
<line x1="410.0" y1="410.0" x2="515.0" y2="411.7" stroke="#58a6ff" stroke-width="2.60" opacity="1.00" stroke-linecap="round"/>
<line x1="515.0" y1="411.7" x2="575.5" y2="374.1" stroke="#4f9ee0" stroke-width="2.25" opacity="0.90" stroke-linecap="round"/>
<line x1="575.5" y1="374.1" x2="603.1" y2="336.2" stroke="#3fb950" stroke-width="1.90" opacity="0.80" stroke-linecap="round"/>
<line x1="603.1" y1="336.2" x2="605.1" y2="305.7" stroke="#7bc96f" stroke-width="1.55" opacity="0.70" stroke-linecap="round"/>
<line x1="605.1" y1="305.7" x2="611.4" y2="286.7" stroke="#d29922" stroke-width="1.20" opacity="0.60" stroke-linecap="round"/>
<line x1="603.1" y1="336.2" x2="634.3" y2="325.7" stroke="#7bc96f" stroke-width="1.55" opacity="0.70" stroke-linecap="round"/>
<line x1="634.3" y1="325.7" x2="648.8" y2="308.8" stroke="#d29922" stroke-width="1.20" opacity="0.60" stroke-linecap="round"/>
<line x1="634.3" y1="325.7" x2="655.7" y2="332.0" stroke="#d29922" stroke-width="1.20" opacity="0.60" stroke-linecap="round"/>
<line x1="575.5" y1="374.1" x2="625.1" y2="371.8" stroke="#3fb950" stroke-width="1.90" opacity="0.80" stroke-linecap="round"/>
<line x1="625.1" y1="371.8" x2="657.9" y2="358.8" stroke="#7bc96f" stroke-width="1.55" opacity="0.70" stroke-linecap="round"/>
<line x1="657.9" y1="358.8" x2="679.6" y2="352.5" stroke="#d29922" stroke-width="1.20" opacity="0.60" stroke-linecap="round"/>
<line x1="625.1" y1="371.8" x2="654.6" y2="385.4" stroke="#7bc96f" stroke-width="1.55" opacity="0.70" stroke-linecap="round"/>
<line x1="654.6" y1="385.4" x2="672.4" y2="398.2" stroke="#d29922" stroke-width="1.20" opacity="0.60" stroke-linecap="round"/>
<line x1="515.0" y1="411.7" x2="568.7" y2="449.4" stroke="#4f9ee0" stroke-width="2.25" opacity="0.90" stroke-linecap="round"/>
<line x1="568.7" y1="449.4" x2="612.1" y2="454.2" stroke="#3fb950" stroke-width="1.90" opacity="0.80" stroke-linecap="round"/>
<line x1="612.1" y1="454.2" x2="637.6" y2="440.1" stroke="#7bc96f" stroke-width="1.55" opacity="0.70" stroke-linecap="round"/>
<line x1="637.6" y1="440.1" x2="647.2" y2="422.5" stroke="#d29922" stroke-width="1.20" opacity="0.60" stroke-linecap="round"/>
<line x1="637.6" y1="440.1" x2="658.5" y2="441.3" stroke="#d29922" stroke-width="1.20" opacity="0.60" stroke-linecap="round"/>
<line x1="612.1" y1="454.2" x2="631.3" y2="475.9" stroke="#7bc96f" stroke-width="1.55" opacity="0.70" stroke-linecap="round"/>
<line x1="631.3" y1="475.9" x2="644.3" y2="489.8" stroke="#d29922" stroke-width="1.20" opacity="0.60" stroke-linecap="round"/>
<line x1="568.7" y1="449.4" x2="584.4" y2="488.3" stroke="#3fb950" stroke-width="1.90" opacity="0.80" stroke-linecap="round"/>
<line x1="584.4" y1="488.3" x2="606.7" y2="505.9" stroke="#7bc96f" stroke-width="1.55" opacity="0.70" stroke-linecap="round"/>
<line x1="606.7" y1="505.9" x2="616.5" y2="521.6" stroke="#d29922" stroke-width="1.20" opacity="0.60" stroke-linecap="round"/>
<line x1="584.4" y1="488.3" x2="578.1" y2="516.6" stroke="#7bc96f" stroke-width="1.55" opacity="0.70" stroke-linecap="round"/>
<line x1="578.1" y1="516.6" x2="581.2" y2="534.9" stroke="#d29922" stroke-width="1.20" opacity="0.60" stroke-linecap="round"/>
<line x1="578.1" y1="516.6" x2="567.8" y2="532.5" stroke="#d29922" stroke-width="1.20" opacity="0.60" stroke-linecap="round"/>
<line x1="410.0" y1="410.0" x2="459.3" y2="502.7" stroke="#58a6ff" stroke-width="2.60" opacity="1.00" stroke-linecap="round"/>
<line x1="459.3" y1="502.7" x2="516.7" y2="542.7" stroke="#4f9ee0" stroke-width="2.25" opacity="0.90" stroke-linecap="round"/>
<line x1="516.7" y1="542.7" x2="565.9" y2="550.6" stroke="#3fb950" stroke-width="1.90" opacity="0.80" stroke-linecap="round"/>
<line x1="565.9" y1="550.6" x2="599.5" y2="539.2" stroke="#7bc96f" stroke-width="1.55" opacity="0.70" stroke-linecap="round"/>
<line x1="599.5" y1="539.2" x2="623.5" y2="538.7" stroke="#d29922" stroke-width="1.20" opacity="0.60" stroke-linecap="round"/>
<line x1="565.9" y1="550.6" x2="594.2" y2="571.0" stroke="#7bc96f" stroke-width="1.55" opacity="0.70" stroke-linecap="round"/>
<line x1="594.2" y1="571.0" x2="614.0" y2="582.0" stroke="#d29922" stroke-width="1.20" opacity="0.60" stroke-linecap="round"/>
<line x1="516.7" y1="542.7" x2="541.1" y2="584.1" stroke="#3fb950" stroke-width="1.90" opacity="0.80" stroke-linecap="round"/>
<line x1="541.1" y1="584.1" x2="565.9" y2="603.0" stroke="#7bc96f" stroke-width="1.55" opacity="0.70" stroke-linecap="round"/>
<line x1="565.9" y1="603.0" x2="578.2" y2="621.5" stroke="#d29922" stroke-width="1.20" opacity="0.60" stroke-linecap="round"/>
<line x1="541.1" y1="584.1" x2="544.2" y2="616.9" stroke="#7bc96f" stroke-width="1.55" opacity="0.70" stroke-linecap="round"/>
<line x1="544.2" y1="616.9" x2="556.5" y2="635.9" stroke="#d29922" stroke-width="1.20" opacity="0.60" stroke-linecap="round"/>
<line x1="544.2" y1="616.9" x2="533.6" y2="637.8" stroke="#d29922" stroke-width="1.20" opacity="0.60" stroke-linecap="round"/>
<line x1="459.3" y1="502.7" x2="457.6" y2="577.3" stroke="#4f9ee0" stroke-width="2.25" opacity="0.90" stroke-linecap="round"/>
<line x1="457.6" y1="577.3" x2="486.8" y2="621.7" stroke="#3fb950" stroke-width="1.90" opacity="0.80" stroke-linecap="round"/>
<line x1="486.8" y1="621.7" x2="518.6" y2="640.9" stroke="#7bc96f" stroke-width="1.55" opacity="0.70" stroke-linecap="round"/>
<line x1="518.6" y1="640.9" x2="544.2" y2="637.9" stroke="#d29922" stroke-width="1.20" opacity="0.60" stroke-linecap="round"/>
<line x1="518.6" y1="640.9" x2="528.4" y2="664.1" stroke="#d29922" stroke-width="1.20" opacity="0.60" stroke-linecap="round"/>
<line x1="486.8" y1="621.7" x2="494.6" y2="656.7" stroke="#7bc96f" stroke-width="1.55" opacity="0.70" stroke-linecap="round"/>
<line x1="494.6" y1="656.7" x2="491.8" y2="682.1" stroke="#d29922" stroke-width="1.20" opacity="0.60" stroke-linecap="round"/>
<line x1="457.6" y1="577.3" x2="432.3" y2="621.9" stroke="#3fb950" stroke-width="1.90" opacity="0.80" stroke-linecap="round"/>
<line x1="432.3" y1="621.9" x2="427.7" y2="653.8" stroke="#7bc96f" stroke-width="1.55" opacity="0.70" stroke-linecap="round"/>
<line x1="427.7" y1="653.8" x2="426.5" y2="675.2" stroke="#d29922" stroke-width="1.20" opacity="0.60" stroke-linecap="round"/>
<line x1="432.3" y1="621.9" x2="408.0" y2="643.9" stroke="#7bc96f" stroke-width="1.55" opacity="0.70" stroke-linecap="round"/>
<line x1="408.0" y1="643.9" x2="387.4" y2="654.3" stroke="#d29922" stroke-width="1.20" opacity="0.60" stroke-linecap="round"/>
<line x1="410.0" y1="410.0" x2="351.9" y2="497.5" stroke="#58a6ff" stroke-width="2.60" opacity="1.00" stroke-linecap="round"/>
<line x1="351.9" y1="497.5" x2="351.9" y2="570.1" stroke="#4f9ee0" stroke-width="2.25" opacity="0.90" stroke-linecap="round"/>
<line x1="351.9" y1="570.1" x2="382.2" y2="612.6" stroke="#3fb950" stroke-width="1.90" opacity="0.80" stroke-linecap="round"/>
<line x1="382.2" y1="612.6" x2="418.4" y2="622.7" stroke="#7bc96f" stroke-width="1.55" opacity="0.70" stroke-linecap="round"/>
<line x1="418.4" y1="622.7" x2="441.6" y2="630.7" stroke="#d29922" stroke-width="1.20" opacity="0.60" stroke-linecap="round"/>
<line x1="382.2" y1="612.6" x2="383.2" y2="648.6" stroke="#7bc96f" stroke-width="1.55" opacity="0.70" stroke-linecap="round"/>
<line x1="383.2" y1="648.6" x2="397.1" y2="666.1" stroke="#d29922" stroke-width="1.20" opacity="0.60" stroke-linecap="round"/>
<line x1="383.2" y1="648.6" x2="370.0" y2="668.0" stroke="#d29922" stroke-width="1.20" opacity="0.60" stroke-linecap="round"/>
<line x1="351.9" y1="570.1" x2="322.4" y2="610.9" stroke="#3fb950" stroke-width="1.90" opacity="0.80" stroke-linecap="round"/>
<line x1="322.4" y1="610.9" x2="316.7" y2="642.8" stroke="#7bc96f" stroke-width="1.55" opacity="0.70" stroke-linecap="round"/>
<line x1="316.7" y1="642.8" x2="323.6" y2="664.5" stroke="#d29922" stroke-width="1.20" opacity="0.60" stroke-linecap="round"/>
<line x1="316.7" y1="642.8" x2="303.8" y2="661.5" stroke="#d29922" stroke-width="1.20" opacity="0.60" stroke-linecap="round"/>
<line x1="322.4" y1="610.9" x2="291.8" y2="628.2" stroke="#7bc96f" stroke-width="1.55" opacity="0.70" stroke-linecap="round"/>
<line x1="291.8" y1="628.2" x2="275.8" y2="643.1" stroke="#d29922" stroke-width="1.20" opacity="0.60" stroke-linecap="round"/>
<line x1="351.9" y1="497.5" x2="293.5" y2="527.6" stroke="#4f9ee0" stroke-width="2.25" opacity="0.90" stroke-linecap="round"/>
<line x1="293.5" y1="527.6" x2="269.5" y2="565.2" stroke="#3fb950" stroke-width="1.90" opacity="0.80" stroke-linecap="round"/>
<line x1="269.5" y1="565.2" x2="265.7" y2="592.9" stroke="#7bc96f" stroke-width="1.55" opacity="0.70" stroke-linecap="round"/>
<line x1="265.7" y1="592.9" x2="265.0" y2="610.9" stroke="#d29922" stroke-width="1.20" opacity="0.60" stroke-linecap="round"/>
<line x1="269.5" y1="565.2" x2="244.4" y2="579.9" stroke="#7bc96f" stroke-width="1.55" opacity="0.70" stroke-linecap="round"/>
<line x1="244.4" y1="579.9" x2="238.3" y2="597.8" stroke="#d29922" stroke-width="1.20" opacity="0.60" stroke-linecap="round"/>
<line x1="244.4" y1="579.9" x2="226.5" y2="577.2" stroke="#d29922" stroke-width="1.20" opacity="0.60" stroke-linecap="round"/>
<line x1="293.5" y1="527.6" x2="250.7" y2="522.6" stroke="#3fb950" stroke-width="1.90" opacity="0.80" stroke-linecap="round"/>
<line x1="250.7" y1="522.6" x2="223.3" y2="533.6" stroke="#7bc96f" stroke-width="1.55" opacity="0.70" stroke-linecap="round"/>
<line x1="223.3" y1="533.6" x2="209.7" y2="548.7" stroke="#d29922" stroke-width="1.20" opacity="0.60" stroke-linecap="round"/>
<line x1="223.3" y1="533.6" x2="202.1" y2="532.9" stroke="#d29922" stroke-width="1.20" opacity="0.60" stroke-linecap="round"/>
<line x1="250.7" y1="522.6" x2="229.1" y2="506.1" stroke="#7bc96f" stroke-width="1.55" opacity="0.70" stroke-linecap="round"/>
<line x1="229.1" y1="506.1" x2="211.9" y2="506.1" stroke="#d29922" stroke-width="1.20" opacity="0.60" stroke-linecap="round"/>
<line x1="229.1" y1="506.1" x2="222.8" y2="490.0" stroke="#d29922" stroke-width="1.20" opacity="0.60" stroke-linecap="round"/>
<line x1="410.0" y1="410.0" x2="305.0" y2="412.9" stroke="#58a6ff" stroke-width="2.60" opacity="1.00" stroke-linecap="round"/>
<line x1="305.0" y1="412.9" x2="245.0" y2="449.8" stroke="#4f9ee0" stroke-width="2.25" opacity="0.90" stroke-linecap="round"/>
<line x1="245.0" y1="449.8" x2="228.6" y2="497.3" stroke="#3fb950" stroke-width="1.90" opacity="0.80" stroke-linecap="round"/>
<line x1="228.6" y1="497.3" x2="234.8" y2="531.4" stroke="#7bc96f" stroke-width="1.55" opacity="0.70" stroke-linecap="round"/>
<line x1="234.8" y1="531.4" x2="232.0" y2="553.0" stroke="#d29922" stroke-width="1.20" opacity="0.60" stroke-linecap="round"/>
<line x1="228.6" y1="497.3" x2="204.6" y2="519.7" stroke="#7bc96f" stroke-width="1.55" opacity="0.70" stroke-linecap="round"/>
<line x1="204.6" y1="519.7" x2="190.7" y2="535.8" stroke="#d29922" stroke-width="1.20" opacity="0.60" stroke-linecap="round"/>
<line x1="245.0" y1="449.8" x2="201.3" y2="445.0" stroke="#3fb950" stroke-width="1.90" opacity="0.80" stroke-linecap="round"/>
<line x1="201.3" y1="445.0" x2="172.6" y2="457.4" stroke="#7bc96f" stroke-width="1.55" opacity="0.70" stroke-linecap="round"/>
<line x1="172.6" y1="457.4" x2="160.3" y2="475.3" stroke="#d29922" stroke-width="1.20" opacity="0.60" stroke-linecap="round"/>
<line x1="172.6" y1="457.4" x2="151.0" y2="455.4" stroke="#d29922" stroke-width="1.20" opacity="0.60" stroke-linecap="round"/>
<line x1="201.3" y1="445.0" x2="177.9" y2="428.7" stroke="#7bc96f" stroke-width="1.55" opacity="0.70" stroke-linecap="round"/>
<line x1="177.9" y1="428.7" x2="161.9" y2="419.1" stroke="#d29922" stroke-width="1.20" opacity="0.60" stroke-linecap="round"/>
<line x1="305.0" y1="412.9" x2="239.2" y2="379.4" stroke="#4f9ee0" stroke-width="2.25" opacity="0.90" stroke-linecap="round"/>
<line x1="239.2" y1="379.4" x2="186.4" y2="376.4" stroke="#3fb950" stroke-width="1.90" opacity="0.80" stroke-linecap="round"/>
<line x1="186.4" y1="376.4" x2="156.3" y2="393.9" stroke="#7bc96f" stroke-width="1.55" opacity="0.70" stroke-linecap="round"/>
<line x1="156.3" y1="393.9" x2="134.2" y2="404.3" stroke="#d29922" stroke-width="1.20" opacity="0.60" stroke-linecap="round"/>
<line x1="186.4" y1="376.4" x2="157.4" y2="352.8" stroke="#7bc96f" stroke-width="1.55" opacity="0.70" stroke-linecap="round"/>
<line x1="157.4" y1="352.8" x2="132.0" y2="351.8" stroke="#d29922" stroke-width="1.20" opacity="0.60" stroke-linecap="round"/>
<line x1="157.4" y1="352.8" x2="150.5" y2="327.3" stroke="#d29922" stroke-width="1.20" opacity="0.60" stroke-linecap="round"/>
<line x1="239.2" y1="379.4" x2="210.1" y2="336.2" stroke="#3fb950" stroke-width="1.90" opacity="0.80" stroke-linecap="round"/>
<line x1="210.1" y1="336.2" x2="179.4" y2="318.2" stroke="#7bc96f" stroke-width="1.55" opacity="0.70" stroke-linecap="round"/>
<line x1="179.4" y1="318.2" x2="161.4" y2="304.0" stroke="#d29922" stroke-width="1.20" opacity="0.60" stroke-linecap="round"/>
<line x1="210.1" y1="336.2" x2="206.7" y2="303.9" stroke="#7bc96f" stroke-width="1.55" opacity="0.70" stroke-linecap="round"/>
<line x1="206.7" y1="303.9" x2="200.2" y2="282.4" stroke="#d29922" stroke-width="1.20" opacity="0.60" stroke-linecap="round"/>
<line x1="410.0" y1="410.0" x2="357.7" y2="318.9" stroke="#58a6ff" stroke-width="2.60" opacity="1.00" stroke-linecap="round"/>
<line x1="357.7" y1="318.9" x2="286.6" y2="293.4" stroke="#4f9ee0" stroke-width="2.25" opacity="0.90" stroke-linecap="round"/>
<line x1="286.6" y1="293.4" x2="238.1" y2="299.8" stroke="#3fb950" stroke-width="1.90" opacity="0.80" stroke-linecap="round"/>
<line x1="238.1" y1="299.8" x2="212.2" y2="317.8" stroke="#7bc96f" stroke-width="1.55" opacity="0.70" stroke-linecap="round"/>
<line x1="212.2" y1="317.8" x2="199.6" y2="333.0" stroke="#d29922" stroke-width="1.20" opacity="0.60" stroke-linecap="round"/>
<line x1="238.1" y1="299.8" x2="206.6" y2="288.1" stroke="#7bc96f" stroke-width="1.55" opacity="0.70" stroke-linecap="round"/>
<line x1="206.6" y1="288.1" x2="189.5" y2="275.7" stroke="#d29922" stroke-width="1.20" opacity="0.60" stroke-linecap="round"/>
<line x1="286.6" y1="293.4" x2="254.2" y2="256.8" stroke="#3fb950" stroke-width="1.90" opacity="0.80" stroke-linecap="round"/>
<line x1="254.2" y1="256.8" x2="224.7" y2="249.1" stroke="#7bc96f" stroke-width="1.55" opacity="0.70" stroke-linecap="round"/>
<line x1="224.7" y1="249.1" x2="205.1" y2="247.1" stroke="#d29922" stroke-width="1.20" opacity="0.60" stroke-linecap="round"/>
<line x1="254.2" y1="256.8" x2="246.8" y2="223.3" stroke="#7bc96f" stroke-width="1.55" opacity="0.70" stroke-linecap="round"/>
<line x1="246.8" y1="223.3" x2="229.3" y2="205.9" stroke="#d29922" stroke-width="1.20" opacity="0.60" stroke-linecap="round"/>
<line x1="246.8" y1="223.3" x2="254.1" y2="202.0" stroke="#d29922" stroke-width="1.20" opacity="0.60" stroke-linecap="round"/>
<line x1="357.7" y1="318.9" x2="361.7" y2="248.2" stroke="#4f9ee0" stroke-width="2.25" opacity="0.90" stroke-linecap="round"/>
<line x1="361.7" y1="248.2" x2="343.7" y2="205.9" stroke="#3fb950" stroke-width="1.90" opacity="0.80" stroke-linecap="round"/>
<line x1="343.7" y1="205.9" x2="314.5" y2="192.2" stroke="#7bc96f" stroke-width="1.55" opacity="0.70" stroke-linecap="round"/>
<line x1="314.5" y1="192.2" x2="292.1" y2="195.6" stroke="#d29922" stroke-width="1.20" opacity="0.60" stroke-linecap="round"/>
<line x1="314.5" y1="192.2" x2="304.4" y2="171.8" stroke="#d29922" stroke-width="1.20" opacity="0.60" stroke-linecap="round"/>
<line x1="343.7" y1="205.9" x2="351.9" y2="174.3" stroke="#7bc96f" stroke-width="1.55" opacity="0.70" stroke-linecap="round"/>
<line x1="351.9" y1="174.3" x2="360.4" y2="153.0" stroke="#d29922" stroke-width="1.20" opacity="0.60" stroke-linecap="round"/>
<line x1="361.7" y1="248.2" x2="384.9" y2="204.6" stroke="#3fb950" stroke-width="1.90" opacity="0.80" stroke-linecap="round"/>
<line x1="384.9" y1="204.6" x2="380.2" y2="171.2" stroke="#7bc96f" stroke-width="1.55" opacity="0.70" stroke-linecap="round"/>
<line x1="380.2" y1="171.2" x2="379.2" y2="149.6" stroke="#d29922" stroke-width="1.20" opacity="0.60" stroke-linecap="round"/>
<line x1="384.9" y1="204.6" x2="412.3" y2="190.8" stroke="#7bc96f" stroke-width="1.55" opacity="0.70" stroke-linecap="round"/>
<line x1="412.3" y1="190.8" x2="419.6" y2="171.5" stroke="#d29922" stroke-width="1.20" opacity="0.60" stroke-linecap="round"/>
<line x1="412.3" y1="190.8" x2="432.0" y2="193.8" stroke="#d29922" stroke-width="1.20" opacity="0.60" stroke-linecap="round"/>
<line x1="410.0" y1="410.0" x2="461.6" y2="318.5" stroke="#58a6ff" stroke-width="2.60" opacity="1.00" stroke-linecap="round"/>
<line x1="461.6" y1="318.5" x2="475.9" y2="245.3" stroke="#4f9ee0" stroke-width="2.25" opacity="0.90" stroke-linecap="round"/>
<line x1="475.9" y1="245.3" x2="456.9" y2="200.4" stroke="#3fb950" stroke-width="1.90" opacity="0.80" stroke-linecap="round"/>
<line x1="456.9" y1="200.4" x2="428.7" y2="181.7" stroke="#7bc96f" stroke-width="1.55" opacity="0.70" stroke-linecap="round"/>
<line x1="428.7" y1="181.7" x2="411.2" y2="169.9" stroke="#d29922" stroke-width="1.20" opacity="0.60" stroke-linecap="round"/>
<line x1="456.9" y1="200.4" x2="460.6" y2="169.3" stroke="#7bc96f" stroke-width="1.55" opacity="0.70" stroke-linecap="round"/>
<line x1="460.6" y1="169.3" x2="450.3" y2="150.4" stroke="#d29922" stroke-width="1.20" opacity="0.60" stroke-linecap="round"/>
<line x1="460.6" y1="169.3" x2="476.0" y2="154.5" stroke="#d29922" stroke-width="1.20" opacity="0.60" stroke-linecap="round"/>
<line x1="475.9" y1="245.3" x2="513.5" y2="212.2" stroke="#3fb950" stroke-width="1.90" opacity="0.80" stroke-linecap="round"/>
<line x1="513.5" y1="212.2" x2="522.3" y2="180.3" stroke="#7bc96f" stroke-width="1.55" opacity="0.70" stroke-linecap="round"/>
<line x1="522.3" y1="180.3" x2="533.9" y2="163.3" stroke="#d29922" stroke-width="1.20" opacity="0.60" stroke-linecap="round"/>
<line x1="513.5" y1="212.2" x2="546.8" y2="206.0" stroke="#7bc96f" stroke-width="1.55" opacity="0.70" stroke-linecap="round"/>
<line x1="546.8" y1="206.0" x2="561.7" y2="189.7" stroke="#d29922" stroke-width="1.20" opacity="0.60" stroke-linecap="round"/>
<line x1="546.8" y1="206.0" x2="566.7" y2="213.5" stroke="#d29922" stroke-width="1.20" opacity="0.60" stroke-linecap="round"/>
<line x1="461.6" y1="318.5" x2="514.0" y2="273.0" stroke="#4f9ee0" stroke-width="2.25" opacity="0.90" stroke-linecap="round"/>
<line x1="514.0" y1="273.0" x2="525.8" y2="226.2" stroke="#3fb950" stroke-width="1.90" opacity="0.80" stroke-linecap="round"/>
<line x1="525.8" y1="226.2" x2="512.8" y2="196.3" stroke="#7bc96f" stroke-width="1.55" opacity="0.70" stroke-linecap="round"/>
<line x1="512.8" y1="196.3" x2="507.7" y2="175.7" stroke="#d29922" stroke-width="1.20" opacity="0.60" stroke-linecap="round"/>
<line x1="525.8" y1="226.2" x2="550.2" y2="204.1" stroke="#7bc96f" stroke-width="1.55" opacity="0.70" stroke-linecap="round"/>
<line x1="550.2" y1="204.1" x2="562.3" y2="185.0" stroke="#d29922" stroke-width="1.20" opacity="0.60" stroke-linecap="round"/>
<line x1="514.0" y1="273.0" x2="558.5" y2="271.6" stroke="#3fb950" stroke-width="1.90" opacity="0.80" stroke-linecap="round"/>
<line x1="558.5" y1="271.6" x2="584.9" y2="255.8" stroke="#7bc96f" stroke-width="1.55" opacity="0.70" stroke-linecap="round"/>
<line x1="584.9" y1="255.8" x2="599.6" y2="242.5" stroke="#d29922" stroke-width="1.20" opacity="0.60" stroke-linecap="round"/>
<line x1="558.5" y1="271.6" x2="585.8" y2="283.6" stroke="#7bc96f" stroke-width="1.55" opacity="0.70" stroke-linecap="round"/>
<line x1="585.8" y1="283.6" x2="606.5" y2="286.2" stroke="#d29922" stroke-width="1.20" opacity="0.60" stroke-linecap="round"/>
<circle cx="515.0" cy="411.7" r="2.60" fill="#58a6ff" opacity="0.85"/>
<circle cx="575.5" cy="374.1" r="2.30" fill="#4f9ee0" opacity="0.85"/>
<circle cx="603.1" cy="336.2" r="2.00" fill="#3fb950" opacity="0.85"/>
<circle cx="605.1" cy="305.7" r="1.70" fill="#7bc96f" opacity="0.85"/>
<circle cx="634.3" cy="325.7" r="1.70" fill="#7bc96f" opacity="0.85"/>
<circle cx="625.1" cy="371.8" r="2.00" fill="#3fb950" opacity="0.85"/>
<circle cx="657.9" cy="358.8" r="1.70" fill="#7bc96f" opacity="0.85"/>
<circle cx="654.6" cy="385.4" r="1.70" fill="#7bc96f" opacity="0.85"/>
<circle cx="568.7" cy="449.4" r="2.30" fill="#4f9ee0" opacity="0.85"/>
<circle cx="612.1" cy="454.2" r="2.00" fill="#3fb950" opacity="0.85"/>
<circle cx="637.6" cy="440.1" r="1.70" fill="#7bc96f" opacity="0.85"/>
<circle cx="631.3" cy="475.9" r="1.70" fill="#7bc96f" opacity="0.85"/>
<circle cx="584.4" cy="488.3" r="2.00" fill="#3fb950" opacity="0.85"/>
<circle cx="606.7" cy="505.9" r="1.70" fill="#7bc96f" opacity="0.85"/>
<circle cx="578.1" cy="516.6" r="1.70" fill="#7bc96f" opacity="0.85"/>
<circle cx="459.3" cy="502.7" r="2.60" fill="#58a6ff" opacity="0.85"/>
<circle cx="516.7" cy="542.7" r="2.30" fill="#4f9ee0" opacity="0.85"/>
<circle cx="565.9" cy="550.6" r="2.00" fill="#3fb950" opacity="0.85"/>
<circle cx="599.5" cy="539.2" r="1.70" fill="#7bc96f" opacity="0.85"/>
<circle cx="594.2" cy="571.0" r="1.70" fill="#7bc96f" opacity="0.85"/>
<circle cx="541.1" cy="584.1" r="2.00" fill="#3fb950" opacity="0.85"/>
<circle cx="565.9" cy="603.0" r="1.70" fill="#7bc96f" opacity="0.85"/>
<circle cx="544.2" cy="616.9" r="1.70" fill="#7bc96f" opacity="0.85"/>
<circle cx="457.6" cy="577.3" r="2.30" fill="#4f9ee0" opacity="0.85"/>
<circle cx="486.8" cy="621.7" r="2.00" fill="#3fb950" opacity="0.85"/>
<circle cx="518.6" cy="640.9" r="1.70" fill="#7bc96f" opacity="0.85"/>
<circle cx="494.6" cy="656.7" r="1.70" fill="#7bc96f" opacity="0.85"/>
<circle cx="432.3" cy="621.9" r="2.00" fill="#3fb950" opacity="0.85"/>
<circle cx="427.7" cy="653.8" r="1.70" fill="#7bc96f" opacity="0.85"/>
<circle cx="408.0" cy="643.9" r="1.70" fill="#7bc96f" opacity="0.85"/>
<circle cx="351.9" cy="497.5" r="2.60" fill="#58a6ff" opacity="0.85"/>
<circle cx="351.9" cy="570.1" r="2.30" fill="#4f9ee0" opacity="0.85"/>
<circle cx="382.2" cy="612.6" r="2.00" fill="#3fb950" opacity="0.85"/>
<circle cx="418.4" cy="622.7" r="1.70" fill="#7bc96f" opacity="0.85"/>
<circle cx="383.2" cy="648.6" r="1.70" fill="#7bc96f" opacity="0.85"/>
<circle cx="322.4" cy="610.9" r="2.00" fill="#3fb950" opacity="0.85"/>
<circle cx="316.7" cy="642.8" r="1.70" fill="#7bc96f" opacity="0.85"/>
<circle cx="291.8" cy="628.2" r="1.70" fill="#7bc96f" opacity="0.85"/>
<circle cx="293.5" cy="527.6" r="2.30" fill="#4f9ee0" opacity="0.85"/>
<circle cx="269.5" cy="565.2" r="2.00" fill="#3fb950" opacity="0.85"/>
<circle cx="265.7" cy="592.9" r="1.70" fill="#7bc96f" opacity="0.85"/>
<circle cx="244.4" cy="579.9" r="1.70" fill="#7bc96f" opacity="0.85"/>
<circle cx="250.7" cy="522.6" r="2.00" fill="#3fb950" opacity="0.85"/>
<circle cx="223.3" cy="533.6" r="1.70" fill="#7bc96f" opacity="0.85"/>
<circle cx="229.1" cy="506.1" r="1.70" fill="#7bc96f" opacity="0.85"/>
<circle cx="305.0" cy="412.9" r="2.60" fill="#58a6ff" opacity="0.85"/>
<circle cx="245.0" cy="449.8" r="2.30" fill="#4f9ee0" opacity="0.85"/>
<circle cx="228.6" cy="497.3" r="2.00" fill="#3fb950" opacity="0.85"/>
<circle cx="234.8" cy="531.4" r="1.70" fill="#7bc96f" opacity="0.85"/>
<circle cx="204.6" cy="519.7" r="1.70" fill="#7bc96f" opacity="0.85"/>
<circle cx="201.3" cy="445.0" r="2.00" fill="#3fb950" opacity="0.85"/>
<circle cx="172.6" cy="457.4" r="1.70" fill="#7bc96f" opacity="0.85"/>
<circle cx="177.9" cy="428.7" r="1.70" fill="#7bc96f" opacity="0.85"/>
<circle cx="239.2" cy="379.4" r="2.30" fill="#4f9ee0" opacity="0.85"/>
<circle cx="186.4" cy="376.4" r="2.00" fill="#3fb950" opacity="0.85"/>
<circle cx="156.3" cy="393.9" r="1.70" fill="#7bc96f" opacity="0.85"/>
<circle cx="157.4" cy="352.8" r="1.70" fill="#7bc96f" opacity="0.85"/>
<circle cx="210.1" cy="336.2" r="2.00" fill="#3fb950" opacity="0.85"/>
<circle cx="179.4" cy="318.2" r="1.70" fill="#7bc96f" opacity="0.85"/>
<circle cx="206.7" cy="303.9" r="1.70" fill="#7bc96f" opacity="0.85"/>
<circle cx="357.7" cy="318.9" r="2.60" fill="#58a6ff" opacity="0.85"/>
<circle cx="286.6" cy="293.4" r="2.30" fill="#4f9ee0" opacity="0.85"/>
<circle cx="238.1" cy="299.8" r="2.00" fill="#3fb950" opacity="0.85"/>
<circle cx="212.2" cy="317.8" r="1.70" fill="#7bc96f" opacity="0.85"/>
<circle cx="206.6" cy="288.1" r="1.70" fill="#7bc96f" opacity="0.85"/>
<circle cx="254.2" cy="256.8" r="2.00" fill="#3fb950" opacity="0.85"/>
<circle cx="224.7" cy="249.1" r="1.70" fill="#7bc96f" opacity="0.85"/>
<circle cx="246.8" cy="223.3" r="1.70" fill="#7bc96f" opacity="0.85"/>
<circle cx="361.7" cy="248.2" r="2.30" fill="#4f9ee0" opacity="0.85"/>
<circle cx="343.7" cy="205.9" r="2.00" fill="#3fb950" opacity="0.85"/>
<circle cx="314.5" cy="192.2" r="1.70" fill="#7bc96f" opacity="0.85"/>
<circle cx="351.9" cy="174.3" r="1.70" fill="#7bc96f" opacity="0.85"/>
<circle cx="384.9" cy="204.6" r="2.00" fill="#3fb950" opacity="0.85"/>
<circle cx="380.2" cy="171.2" r="1.70" fill="#7bc96f" opacity="0.85"/>
<circle cx="412.3" cy="190.8" r="1.70" fill="#7bc96f" opacity="0.85"/>
<circle cx="461.6" cy="318.5" r="2.60" fill="#58a6ff" opacity="0.85"/>
<circle cx="475.9" cy="245.3" r="2.30" fill="#4f9ee0" opacity="0.85"/>
<circle cx="456.9" cy="200.4" r="2.00" fill="#3fb950" opacity="0.85"/>
<circle cx="428.7" cy="181.7" r="1.70" fill="#7bc96f" opacity="0.85"/>
<circle cx="460.6" cy="169.3" r="1.70" fill="#7bc96f" opacity="0.85"/>
<circle cx="513.5" cy="212.2" r="2.00" fill="#3fb950" opacity="0.85"/>
<circle cx="522.3" cy="180.3" r="1.70" fill="#7bc96f" opacity="0.85"/>
<circle cx="546.8" cy="206.0" r="1.70" fill="#7bc96f" opacity="0.85"/>
<circle cx="514.0" cy="273.0" r="2.30" fill="#4f9ee0" opacity="0.85"/>
<circle cx="525.8" cy="226.2" r="2.00" fill="#3fb950" opacity="0.85"/>
<circle cx="512.8" cy="196.3" r="1.70" fill="#7bc96f" opacity="0.85"/>
<circle cx="550.2" cy="204.1" r="1.70" fill="#7bc96f" opacity="0.85"/>
<circle cx="558.5" cy="271.6" r="2.00" fill="#3fb950" opacity="0.85"/>
<circle cx="584.9" cy="255.8" r="1.70" fill="#7bc96f" opacity="0.85"/>
<circle cx="585.8" cy="283.6" r="1.70" fill="#7bc96f" opacity="0.85"/>
<circle cx="611.4" cy="286.7" r="3" fill="none" stroke="#d29922" stroke-width="1" opacity="0.6"/>
<circle cx="648.8" cy="308.8" r="3" fill="none" stroke="#d29922" stroke-width="1" opacity="0.6"/>
<circle cx="655.7" cy="332.0" r="3" fill="none" stroke="#d29922" stroke-width="1" opacity="0.6"/>
<circle cx="679.6" cy="352.5" r="3" fill="none" stroke="#d29922" stroke-width="1" opacity="0.6"/>
<circle cx="672.4" cy="398.2" r="3" fill="none" stroke="#d29922" stroke-width="1" opacity="0.6"/>
<circle cx="647.2" cy="422.5" r="3" fill="none" stroke="#d29922" stroke-width="1" opacity="0.6"/>
<circle cx="658.5" cy="441.3" r="3" fill="none" stroke="#d29922" stroke-width="1" opacity="0.6"/>
<circle cx="644.3" cy="489.8" r="3" fill="none" stroke="#d29922" stroke-width="1" opacity="0.6"/>
<circle cx="616.5" cy="521.6" r="3" fill="none" stroke="#d29922" stroke-width="1" opacity="0.6"/>
<circle cx="581.2" cy="534.9" r="3" fill="none" stroke="#d29922" stroke-width="1" opacity="0.6"/>
<circle cx="567.8" cy="532.5" r="3" fill="none" stroke="#d29922" stroke-width="1" opacity="0.6"/>
<circle cx="623.5" cy="538.7" r="3" fill="none" stroke="#d29922" stroke-width="1" opacity="0.6"/>
<circle cx="614.0" cy="582.0" r="3" fill="none" stroke="#d29922" stroke-width="1" opacity="0.6"/>
<circle cx="578.2" cy="621.5" r="3" fill="none" stroke="#d29922" stroke-width="1" opacity="0.6"/>
<circle cx="556.5" cy="635.9" r="3" fill="none" stroke="#d29922" stroke-width="1" opacity="0.6"/>
<circle cx="533.6" cy="637.8" r="3" fill="none" stroke="#d29922" stroke-width="1" opacity="0.6"/>
<circle cx="544.2" cy="637.9" r="3" fill="none" stroke="#d29922" stroke-width="1" opacity="0.6"/>
<circle cx="528.4" cy="664.1" r="3" fill="none" stroke="#d29922" stroke-width="1" opacity="0.6"/>
<circle cx="491.8" cy="682.1" r="3" fill="none" stroke="#d29922" stroke-width="1" opacity="0.6"/>
<circle cx="426.5" cy="675.2" r="3" fill="none" stroke="#d29922" stroke-width="1" opacity="0.6"/>
<circle cx="387.4" cy="654.3" r="3" fill="none" stroke="#d29922" stroke-width="1" opacity="0.6"/>
<circle cx="441.6" cy="630.7" r="3" fill="none" stroke="#d29922" stroke-width="1" opacity="0.6"/>
<circle cx="397.1" cy="666.1" r="3" fill="none" stroke="#d29922" stroke-width="1" opacity="0.6"/>
<circle cx="370.0" cy="668.0" r="3" fill="none" stroke="#d29922" stroke-width="1" opacity="0.6"/>
<circle cx="323.6" cy="664.5" r="3" fill="none" stroke="#d29922" stroke-width="1" opacity="0.6"/>
<circle cx="303.8" cy="661.5" r="3" fill="none" stroke="#d29922" stroke-width="1" opacity="0.6"/>
<circle cx="275.8" cy="643.1" r="3" fill="none" stroke="#d29922" stroke-width="1" opacity="0.6"/>
<circle cx="265.0" cy="610.9" r="3" fill="none" stroke="#d29922" stroke-width="1" opacity="0.6"/>
<circle cx="238.3" cy="597.8" r="3" fill="none" stroke="#d29922" stroke-width="1" opacity="0.6"/>
<circle cx="226.5" cy="577.2" r="3" fill="none" stroke="#d29922" stroke-width="1" opacity="0.6"/>
<circle cx="209.7" cy="548.7" r="3" fill="none" stroke="#d29922" stroke-width="1" opacity="0.6"/>
<circle cx="202.1" cy="532.9" r="3" fill="none" stroke="#d29922" stroke-width="1" opacity="0.6"/>
<circle cx="211.9" cy="506.1" r="3" fill="none" stroke="#d29922" stroke-width="1" opacity="0.6"/>
<circle cx="222.8" cy="490.0" r="3" fill="none" stroke="#d29922" stroke-width="1" opacity="0.6"/>
<circle cx="232.0" cy="553.0" r="3" fill="none" stroke="#d29922" stroke-width="1" opacity="0.6"/>
<circle cx="190.7" cy="535.8" r="3" fill="none" stroke="#d29922" stroke-width="1" opacity="0.6"/>
<circle cx="160.3" cy="475.3" r="3" fill="none" stroke="#d29922" stroke-width="1" opacity="0.6"/>
<circle cx="151.0" cy="455.4" r="3" fill="none" stroke="#d29922" stroke-width="1" opacity="0.6"/>
<circle cx="161.9" cy="419.1" r="3" fill="none" stroke="#d29922" stroke-width="1" opacity="0.6"/>
<circle cx="134.2" cy="404.3" r="3" fill="none" stroke="#d29922" stroke-width="1" opacity="0.6"/>
<circle cx="132.0" cy="351.8" r="3" fill="none" stroke="#d29922" stroke-width="1" opacity="0.6"/>
<circle cx="150.5" cy="327.3" r="3" fill="none" stroke="#d29922" stroke-width="1" opacity="0.6"/>
<circle cx="161.4" cy="304.0" r="3" fill="none" stroke="#d29922" stroke-width="1" opacity="0.6"/>
<circle cx="200.2" cy="282.4" r="3" fill="none" stroke="#d29922" stroke-width="1" opacity="0.6"/>
<circle cx="199.6" cy="333.0" r="3" fill="none" stroke="#d29922" stroke-width="1" opacity="0.6"/>
<circle cx="189.5" cy="275.7" r="3" fill="none" stroke="#d29922" stroke-width="1" opacity="0.6"/>
<circle cx="205.1" cy="247.1" r="3" fill="none" stroke="#d29922" stroke-width="1" opacity="0.6"/>
<circle cx="229.3" cy="205.9" r="3" fill="none" stroke="#d29922" stroke-width="1" opacity="0.6"/>
<circle cx="254.1" cy="202.0" r="3" fill="none" stroke="#d29922" stroke-width="1" opacity="0.6"/>
<circle cx="292.1" cy="195.6" r="3" fill="none" stroke="#d29922" stroke-width="1" opacity="0.6"/>
<circle cx="304.4" cy="171.8" r="3" fill="none" stroke="#d29922" stroke-width="1" opacity="0.6"/>
<circle cx="360.4" cy="153.0" r="3" fill="none" stroke="#d29922" stroke-width="1" opacity="0.6"/>
<circle cx="379.2" cy="149.6" r="3" fill="none" stroke="#d29922" stroke-width="1" opacity="0.6"/>
<circle cx="419.6" cy="171.5" r="3" fill="none" stroke="#d29922" stroke-width="1" opacity="0.6"/>
<circle cx="432.0" cy="193.8" r="3" fill="none" stroke="#d29922" stroke-width="1" opacity="0.6"/>
<circle cx="411.2" cy="169.9" r="3" fill="none" stroke="#d29922" stroke-width="1" opacity="0.6"/>
<circle cx="450.3" cy="150.4" r="3" fill="none" stroke="#d29922" stroke-width="1" opacity="0.6"/>
<circle cx="476.0" cy="154.5" r="3" fill="none" stroke="#d29922" stroke-width="1" opacity="0.6"/>
<circle cx="533.9" cy="163.3" r="3" fill="none" stroke="#d29922" stroke-width="1" opacity="0.6"/>
<circle cx="561.7" cy="189.7" r="3" fill="none" stroke="#d29922" stroke-width="1" opacity="0.6"/>
<circle cx="566.7" cy="213.5" r="3" fill="none" stroke="#d29922" stroke-width="1" opacity="0.6"/>
<circle cx="507.7" cy="175.7" r="3" fill="none" stroke="#d29922" stroke-width="1" opacity="0.6"/>
<circle cx="562.3" cy="185.0" r="3" fill="none" stroke="#d29922" stroke-width="1" opacity="0.6"/>
<circle cx="599.6" cy="242.5" r="3" fill="none" stroke="#d29922" stroke-width="1" opacity="0.6"/>
<circle cx="606.5" cy="286.2" r="3" fill="none" stroke="#d29922" stroke-width="1" opacity="0.6"/>
<circle cx="410.0" cy="410.0" r="10" fill="#0d1117" stroke="#58a6ff" stroke-width="2"/>
<circle cx="410.0" cy="410.0" r="4" fill="#58a6ff"/>
<circle r="2.4" fill="#7ee787"><animateMotion dur="2.95s" begin="1.9s" repeatCount="indefinite" path="M456.9,200.4 L428.7,181.7"/></circle>
<circle r="2.4" fill="#f2cc60"><animateMotion dur="2.98s" begin="1.78s" repeatCount="indefinite" path="M234.8,531.4 L232.0,553.0"/></circle>
<circle r="2.4" fill="#79c0ff"><animateMotion dur="3.0s" begin="0.41s" repeatCount="indefinite" path="M383.2,648.6 L397.1,666.1"/></circle>
<circle r="2.4" fill="#7ee787"><animateMotion dur="2.31s" begin="0.02s" repeatCount="indefinite" path="M305.0,412.9 L239.2,379.4"/></circle>
<circle r="2.4" fill="#f2cc60"><animateMotion dur="3.3s" begin="1.09s" repeatCount="indefinite" path="M515.0,411.7 L575.5,374.1"/></circle>
<circle r="2.4" fill="#79c0ff"><animateMotion dur="3.59s" begin="1.62s" repeatCount="indefinite" path="M228.6,497.3 L204.6,519.7"/></circle>
<circle r="2.4" fill="#7ee787"><animateMotion dur="3.84s" begin="0.32s" repeatCount="indefinite" path="M316.7,642.8 L323.6,664.5"/></circle>
<text x="806" y="806" text-anchor="end" font-size="9" fill="#484f58" letter-spacing="1">// generative_art.py — seed:1337 — hex L-system, depth 4</text>
</svg>