<svg viewBox="0 0 820 820" width="820" height="820" xmlns="http://www.w3.org/2000/svg" font-family="'Fira Code',monospace">
<defs>
<pattern id="g2" width="22" height="22" patternUnits="userSpaceOnUse">
<path d="M 22 0 L 0 0 0 22" fill="none" stroke="#30363d" stroke-width="0.4" opacity="0.3"/>
</pattern>
<radialGradient id="glow" cx="50%" cy="50%" r="50%">
<stop offset="0%" stop-color="#58a6ff" stop-opacity="0.35"/>
<stop offset="100%" stop-color="#58a6ff" stop-opacity="0"/>
</radialGradient>
</defs>
<rect x="0" y="0" width="820" height="820" fill="#0d1117"/>
<rect x="0" y="0" width="820" height="820" fill="url(#g2)"/>
<circle cx="410.0" cy="410.0" r="230" fill="url(#glow)"/>
<line x1="410.0" y1="410.0" x2="515.0" y2="412.5" stroke="#58a6ff" stroke-width="2.60" opacity="1.00" stroke-linecap="round"/>
<line x1="515.0" y1="412.5" x2="567.9" y2="372.1" stroke="#4f9ee0" stroke-width="2.25" opacity="0.90" stroke-linecap="round"/>
<line x1="567.9" y1="372.1" x2="575.0" y2="330.1" stroke="#3fb950" stroke-width="1.90" opacity="0.80" stroke-linecap="round"/>
<line x1="575.0" y1="330.1" x2="567.5" y2="303.7" stroke="#7bc96f" stroke-width="1.55" opacity="0.70" stroke-linecap="round"/>
<line x1="567.5" y1="303.7" x2="555.9" y2="290.7" stroke="#d29922" stroke-width="1.20" opacity="0.60" stroke-linecap="round"/>
<line x1="567.5" y1="303.7" x2="571.4" y2="284.3" stroke="#d29922" stroke-width="1.20" opacity="0.60" stroke-linecap="round"/>
<line x1="575.0" y1="330.1" x2="593.7" y2="307.1" stroke="#7bc96f" stroke-width="1.55" opacity="0.70" stroke-linecap="round"/>
<line x1="593.7" y1="307.1" x2="600.1" y2="289.1" stroke="#d29922" stroke-width="1.20" opacity="0.60" stroke-linecap="round"/>
<line x1="593.7" y1="307.1" x2="612.7" y2="298.2" stroke="#d29922" stroke-width="1.20" opacity="0.60" stroke-linecap="round"/>
<line x1="567.9" y1="372.1" x2="611.2" y2="371.0" stroke="#3fb950" stroke-width="1.90" opacity="0.80" stroke-linecap="round"/>
<line x1="611.2" y1="371.0" x2="637.5" y2="358.1" stroke="#7bc96f" stroke-width="1.55" opacity="0.70" stroke-linecap="round"/>
<line x1="637.5" y1="358.1" x2="648.2" y2="340.1" stroke="#d29922" stroke-width="1.20" opacity="0.60" stroke-linecap="round"/>
<line x1="637.5" y1="358.1" x2="655.6" y2="360.7" stroke="#d29922" stroke-width="1.20" opacity="0.60" stroke-linecap="round"/>
<line x1="611.2" y1="371.0" x2="635.1" y2="383.1" stroke="#7bc96f" stroke-width="1.55" opacity="0.70" stroke-linecap="round"/>
<line x1="635.1" y1="383.1" x2="652.8" y2="390.5" stroke="#d29922" stroke-width="1.20" opacity="0.60" stroke-linecap="round"/>
<line x1="515.0" y1="412.5" x2="566.3" y2="453.6" stroke="#4f9ee0" stroke-width="2.25" opacity="0.90" stroke-linecap="round"/>
<line x1="566.3" y1="453.6" x2="609.1" y2="450.1" stroke="#3fb950" stroke-width="1.90" opacity="0.80" stroke-linecap="round"/>
<line x1="609.1" y1="450.1" x2="635.2" y2="434.9" stroke="#7bc96f" stroke-width="1.55" opacity="0.70" stroke-linecap="round"/>
<line x1="635.2" y1="434.9" x2="651.0" y2="420.4" stroke="#d29922" stroke-width="1.20" opacity="0.60" stroke-linecap="round"/>
<line x1="609.1" y1="450.1" x2="637.2" y2="459.1" stroke="#7bc96f" stroke-width="1.55" opacity="0.70" stroke-linecap="round"/>
<line x1="637.2" y1="459.1" x2="655.0" y2="470.1" stroke="#d29922" stroke-width="1.20" opacity="0.60" stroke-linecap="round"/>
<line x1="566.3" y1="453.6" x2="577.2" y2="496.4" stroke="#3fb950" stroke-width="1.90" opacity="0.80" stroke-linecap="round"/>
<line x1="577.2" y1="496.4" x2="599.8" y2="515.3" stroke="#7bc96f" stroke-width="1.55" opacity="0.70" stroke-linecap="round"/>
<line x1="599.8" y1="515.3" x2="618.9" y2="516.4" stroke="#d29922" stroke-width="1.20" opacity="0.60" stroke-linecap="round"/>
<line x1="599.8" y1="515.3" x2="603.7" y2="533.4" stroke="#d29922" stroke-width="1.20" opacity="0.60" stroke-linecap="round"/>
<line x1="577.2" y1="496.4" x2="565.4" y2="525.2" stroke="#7bc96f" stroke-width="1.55" opacity="0.70" stroke-linecap="round"/>
<line x1="565.4" y1="525.2" x2="568.4" y2="546.2" stroke="#d29922" stroke-width="1.20" opacity="0.60" stroke-linecap="round"/>
<line x1="565.4" y1="525.2" x2="547.9" y2="537.8" stroke="#d29922" stroke-width="1.20" opacity="0.60" stroke-linecap="round"/>
<line x1="410.0" y1="410.0" x2="472.8" y2="494.2" stroke="#58a6ff" stroke-width="2.60" opacity="1.00" stroke-linecap="round"/>
<line x1="472.8" y1="494.2" x2="531.5" y2="527.5" stroke="#4f9ee0" stroke-width="2.25" opacity="0.90" stroke-linecap="round"/>
<line x1="531.5" y1="527.5" x2="577.0" y2="522.2" stroke="#3fb950" stroke-width="1.90" opacity="0.80" stroke-linecap="round"/>
<line x1="577.0" y1="522.2" x2="598.6" y2="502.6" stroke="#7bc96f" stroke-width="1.55" opacity="0.70" stroke-linecap="round"/>
<line x1="598.6" y1="502.6" x2="610.4" y2="487.9" stroke="#d29922" stroke-width="1.20" opacity="0.60" stroke-linecap="round"/>
<line x1="577.0" y1="522.2" x2="603.6" y2="537.3" stroke="#7bc96f" stroke-width="1.55" opacity="0.70" stroke-linecap="round"/>
<line x1="603.6" y1="537.3" x2="619.3" y2="550.4" stroke="#d29922" stroke-width="1.20" opacity="0.60" stroke-linecap="round"/>
<line x1="531.5" y1="527.5" x2="551.1" y2="565.3" stroke="#3fb950" stroke-width="1.90" opacity="0.80" stroke-linecap="round"/>
<line x1="551.1" y1="565.3" x2="575.6" y2="579.6" stroke="#7bc96f" stroke-width="1.55" opacity="0.70" stroke-linecap="round"/>
<line x1="575.6" y1="579.6" x2="596.0" y2="577.7" stroke="#d29922" stroke-width="1.20" opacity="0.60" stroke-linecap="round"/>
<line x1="575.6" y1="579.6" x2="583.2" y2="597.6" stroke="#d29922" stroke-width="1.20" opacity="0.60" stroke-linecap="round"/>
<line x1="551.1" y1="565.3" x2="551.2" y2="595.2" stroke="#7bc96f" stroke-width="1.55" opacity="0.70" stroke-linecap="round"/>
<line x1="551.2" y1="595.2" x2="544.3" y2="615.2" stroke="#d29922" stroke-width="1.20" opacity="0.60" stroke-linecap="round"/>
<line x1="472.8" y1="494.2" x2="490.6" y2="565.1" stroke="#4f9ee0" stroke-width="2.25" opacity="0.90" stroke-linecap="round"/>
<line x1="490.6" y1="565.1" x2="528.1" y2="596.0" stroke="#3fb950" stroke-width="1.90" opacity="0.80" stroke-linecap="round"/>
<line x1="528.1" y1="596.0" x2="561.6" y2="604.4" stroke="#7bc96f" stroke-width="1.55" opacity="0.70" stroke-linecap="round"/>
<line x1="561.6" y1="604.4" x2="582.6" y2="596.0" stroke="#d29922" stroke-width="1.20" opacity="0.60" stroke-linecap="round"/>
<line x1="561.6" y1="604.4" x2="576.2" y2="620.8" stroke="#d29922" stroke-width="1.20" opacity="0.60" stroke-linecap="round"/>
<line x1="528.1" y1="596.0" x2="544.8" y2="624.7" stroke="#7bc96f" stroke-width="1.55" opacity="0.70" stroke-linecap="round"/>
<line x1="544.8" y1="624.7" x2="556.6" y2="642.2" stroke="#d29922" stroke-width="1.20" opacity="0.60" stroke-linecap="round"/>
<line x1="490.6" y1="565.1" x2="471.0" y2="612.3" stroke="#3fb950" stroke-width="1.90" opacity="0.80" stroke-linecap="round"/>
<line x1="471.0" y1="612.3" x2="476.9" y2="645.0" stroke="#7bc96f" stroke-width="1.55" opacity="0.70" stroke-linecap="round"/>
<line x1="476.9" y1="645.0" x2="474.1" y2="666.3" stroke="#d29922" stroke-width="1.20" opacity="0.60" stroke-linecap="round"/>
<line x1="471.0" y1="612.3" x2="440.8" y2="630.2" stroke="#7bc96f" stroke-width="1.55" opacity="0.70" stroke-linecap="round"/>
<line x1="440.8" y1="630.2" x2="418.7" y2="635.6" stroke="#d29922" stroke-width="1.20" opacity="0.60" stroke-linecap="round"/>
<line x1="410.0" y1="410.0" x2="391.6" y2="513.4" stroke="#58a6ff" stroke-width="2.60" opacity="1.00" stroke-linecap="round"/>
<line x1="391.6" y1="513.4" x2="418.4" y2="574.6" stroke="#4f9ee0" stroke-width="2.25" opacity="0.90" stroke-linecap="round"/>
<line x1="418.4" y1="574.6" x2="451.0" y2="600.7" stroke="#3fb950" stroke-width="1.90" opacity="0.80" stroke-linecap="round"/>
<line x1="451.0" y1="600.7" x2="477.9" y2="599.5" stroke="#7bc96f" stroke-width="1.55" opacity="0.70" stroke-linecap="round"/>
<line x1="477.9" y1="599.5" x2="494.8" y2="601.9" stroke="#d29922" stroke-width="1.20" opacity="0.60" stroke-linecap="round"/>
<line x1="451.0" y1="600.7" x2="454.6" y2="626.7" stroke="#7bc96f" stroke-width="1.55" opacity="0.70" stroke-linecap="round"/>
<line x1="454.6" y1="626.7" x2="464.0" y2="642.2" stroke="#d29922" stroke-width="1.20" opacity="0.60" stroke-linecap="round"/>
<line x1="454.6" y1="626.7" x2="449.1" y2="643.2" stroke="#d29922" stroke-width="1.20" opacity="0.60" stroke-linecap="round"/>
<line x1="418.4" y1="574.6" x2="417.7" y2="620.7" stroke="#3fb950" stroke-width="1.90" opacity="0.80" stroke-linecap="round"/>
<line x1="417.7" y1="620.7" x2="431.6" y2="650.8" stroke="#7bc96f" stroke-width="1.55" opacity="0.70" stroke-linecap="round"/>
<line x1="431.6" y1="650.8" x2="439.9" y2="672.2" stroke="#d29922" stroke-width="1.20" opacity="0.60" stroke-linecap="round"/>
<line x1="417.7" y1="620.7" x2="407.2" y2="647.7" stroke="#7bc96f" stroke-width="1.55" opacity="0.70" stroke-linecap="round"/>
<line x1="407.2" y1="647.7" x2="403.5" y2="666.1" stroke="#d29922" stroke-width="1.20" opacity="0.60" stroke-linecap="round"/>
<line x1="391.6" y1="513.4" x2="334.9" y2="559.7" stroke="#4f9ee0" stroke-width="2.25" opacity="0.90" stroke-linecap="round"/>
<line x1="334.9" y1="559.7" x2="323.5" y2="608.7" stroke="#3fb950" stroke-width="1.90" opacity="0.80" stroke-linecap="round"/>
<line x1="323.5" y1="608.7" x2="333.8" y2="639.5" stroke="#7bc96f" stroke-width="1.55" opacity="0.70" stroke-linecap="round"/>
<line x1="333.8" y1="639.5" x2="350.3" y2="652.4" stroke="#d29922" stroke-width="1.20" opacity="0.60" stroke-linecap="round"/>
<line x1="333.8" y1="639.5" x2="330.7" y2="660.0" stroke="#d29922" stroke-width="1.20" opacity="0.60" stroke-linecap="round"/>
<line x1="323.5" y1="608.7" x2="299.8" y2="631.3" stroke="#7bc96f" stroke-width="1.55" opacity="0.70" stroke-linecap="round"/>
<line x1="299.8" y1="631.3" x2="281.1" y2="641.3" stroke="#d29922" stroke-width="1.20" opacity="0.60" stroke-linecap="round"/>
<line x1="334.9" y1="559.7" x2="282.8" y2="561.9" stroke="#3fb950" stroke-width="1.90" opacity="0.80" stroke-linecap="round"/>
<line x1="282.8" y1="561.9" x2="255.3" y2="582.6" stroke="#7bc96f" stroke-width="1.55" opacity="0.70" stroke-linecap="round"/>
<line x1="255.3" y1="582.6" x2="239.6" y2="597.1" stroke="#d29922" stroke-width="1.20" opacity="0.60" stroke-linecap="round"/>
<line x1="282.8" y1="561.9" x2="257.4" y2="541.0" stroke="#7bc96f" stroke-width="1.55" opacity="0.70" stroke-linecap="round"/>
<line x1="257.4" y1="541.0" x2="235.2" y2="535.0" stroke="#d29922" stroke-width="1.20" opacity="0.60" stroke-linecap="round"/>
<line x1="257.4" y1="541.0" x2="247.5" y2="520.6" stroke="#d29922" stroke-width="1.20" opacity="0.60" stroke-linecap="round"/>
<line x1="410.0" y1="410.0" x2="313.9" y2="452.3" stroke="#58a6ff" stroke-width="2.60" opacity="1.00" stroke-linecap="round"/>
<line x1="313.9" y1="452.3" x2="276.9" y2="516.7" stroke="#4f9ee0" stroke-width="2.25" opacity="0.90" stroke-linecap="round"/>
<line x1="276.9" y1="516.7" x2="273.7" y2="565.9" stroke="#3fb950" stroke-width="1.90" opacity="0.80" stroke-linecap="round"/>
<line x1="273.7" y1="565.9" x2="291.3" y2="596.0" stroke="#7bc96f" stroke-width="1.55" opacity="0.70" stroke-linecap="round"/>
<line x1="291.3" y1="596.0" x2="303.4" y2="615.9" stroke="#d29922" stroke-width="1.20" opacity="0.60" stroke-linecap="round"/>
<line x1="273.7" y1="565.9" x2="253.4" y2="592.3" stroke="#7bc96f" stroke-width="1.55" opacity="0.70" stroke-linecap="round"/>
<line x1="253.4" y1="592.3" x2="242.9" y2="613.4" stroke="#d29922" stroke-width="1.20" opacity="0.60" stroke-linecap="round"/>
<line x1="276.9" y1="516.7" x2="236.9" y2="547.0" stroke="#3fb950" stroke-width="1.90" opacity="0.80" stroke-linecap="round"/>
<line x1="236.9" y1="547.0" x2="222.8" y2="576.7" stroke="#7bc96f" stroke-width="1.55" opacity="0.70" stroke-linecap="round"/>
<line x1="222.8" y1="576.7" x2="223.3" y2="599.5" stroke="#d29922" stroke-width="1.20" opacity="0.60" stroke-linecap="round"/>
<line x1="222.8" y1="576.7" x2="205.3" y2="590.4" stroke="#d29922" stroke-width="1.20" opacity="0.60" stroke-linecap="round"/>
<line x1="236.9" y1="547.0" x2="205.0" y2="549.5" stroke="#7bc96f" stroke-width="1.55" opacity="0.70" stroke-linecap="round"/>
<line x1="205.0" y1="549.5" x2="186.0" y2="562.0" stroke="#d29922" stroke-width="1.20" opacity="0.60" stroke-linecap="round"/>
<line x1="205.0" y1="549.5" x2="185.5" y2="541.9" stroke="#d29922" stroke-width="1.20" opacity="0.60" stroke-linecap="round"/>
<line x1="313.9" y1="452.3" x2="243.1" y2="441.4" stroke="#4f9ee0" stroke-width="2.25" opacity="0.90" stroke-linecap="round"/>
<line x1="243.1" y1="441.4" x2="196.1" y2="455.3" stroke="#3fb950" stroke-width="1.90" opacity="0.80" stroke-linecap="round"/>
<line x1="196.1" y1="455.3" x2="171.3" y2="474.6" stroke="#7bc96f" stroke-width="1.55" opacity="0.70" stroke-linecap="round"/>
<line x1="171.3" y1="474.6" x2="164.3" y2="495.1" stroke="#d29922" stroke-width="1.20" opacity="0.60" stroke-linecap="round"/>
<line x1="171.3" y1="474.6" x2="149.6" y2="478.4" stroke="#d29922" stroke-width="1.20" opacity="0.60" stroke-linecap="round"/>
<line x1="196.1" y1="455.3" x2="161.2" y2="450.7" stroke="#7bc96f" stroke-width="1.55" opacity="0.70" stroke-linecap="round"/>
<line x1="161.2" y1="450.7" x2="137.1" y2="451.0" stroke="#d29922" stroke-width="1.20" opacity="0.60" stroke-linecap="round"/>
<line x1="243.1" y1="441.4" x2="204.8" y2="415.5" stroke="#3fb950" stroke-width="1.90" opacity="0.80" stroke-linecap="round"/>
<line x1="204.8" y1="415.5" x2="175.5" y2="417.8" stroke="#7bc96f" stroke-width="1.55" opacity="0.70" stroke-linecap="round"/>
<line x1="175.5" y1="417.8" x2="160.2" y2="430.8" stroke="#d29922" stroke-width="1.20" opacity="0.60" stroke-linecap="round"/>
<line x1="175.5" y1="417.8" x2="159.8" y2="408.5" stroke="#d29922" stroke-width="1.20" opacity="0.60" stroke-linecap="round"/>
<line x1="204.8" y1="415.5" x2="195.4" y2="385.5" stroke="#7bc96f" stroke-width="1.55" opacity="0.70" stroke-linecap="round"/>
<line x1="195.4" y1="385.5" x2="189.3" y2="365.9" stroke="#d29922" stroke-width="1.20" opacity="0.60" stroke-linecap="round"/>
<line x1="410.0" y1="410.0" x2="314.9" y2="365.6" stroke="#58a6ff" stroke-width="2.60" opacity="1.00" stroke-linecap="round"/>
<line x1="314.9" y1="365.6" x2="246.5" y2="370.1" stroke="#4f9ee0" stroke-width="2.25" opacity="0.90" stroke-linecap="round"/>
<line x1="246.5" y1="370.1" x2="212.0" y2="402.8" stroke="#3fb950" stroke-width="1.90" opacity="0.80" stroke-linecap="round"/>
<line x1="212.0" y1="402.8" x2="206.3" y2="436.4" stroke="#7bc96f" stroke-width="1.55" opacity="0.70" stroke-linecap="round"/>
<line x1="206.3" y1="436.4" x2="216.8" y2="457.0" stroke="#d29922" stroke-width="1.20" opacity="0.60" stroke-linecap="round"/>
<line x1="206.3" y1="436.4" x2="189.5" y2="449.9" stroke="#d29922" stroke-width="1.20" opacity="0.60" stroke-linecap="round"/>
<line x1="212.0" y1="402.8" x2="179.5" y2="403.0" stroke="#7bc96f" stroke-width="1.55" opacity="0.70" stroke-linecap="round"/>
<line x1="179.5" y1="403.0" x2="162.2" y2="418.3" stroke="#d29922" stroke-width="1.20" opacity="0.60" stroke-linecap="round"/>
<line x1="179.5" y1="403.0" x2="160.8" y2="390.4" stroke="#d29922" stroke-width="1.20" opacity="0.60" stroke-linecap="round"/>
<line x1="246.5" y1="370.1" x2="207.3" y2="344.5" stroke="#3fb950" stroke-width="1.90" opacity="0.80" stroke-linecap="round"/>
<line x1="207.3" y1="344.5" x2="174.6" y2="344.3" stroke="#7bc96f" stroke-width="1.55" opacity="0.70" stroke-linecap="round"/>
<line x1="174.6" y1="344.3" x2="156.6" y2="354.9" stroke="#d29922" stroke-width="1.20" opacity="0.60" stroke-linecap="round"/>
<line x1="174.6" y1="344.3" x2="157.1" y2="331.2" stroke="#d29922" stroke-width="1.20" opacity="0.60" stroke-linecap="round"/>
<line x1="207.3" y1="344.5" x2="196.2" y2="312.8" stroke="#7bc96f" stroke-width="1.55" opacity="0.70" stroke-linecap="round"/>
<line x1="196.2" y1="312.8" x2="185.0" y2="293.3" stroke="#d29922" stroke-width="1.20" opacity="0.60" stroke-linecap="round"/>
<line x1="314.9" y1="365.6" x2="277.4" y2="311.0" stroke="#4f9ee0" stroke-width="2.25" opacity="0.90" stroke-linecap="round"/>
<line x1="277.4" y1="311.0" x2="238.0" y2="290.0" stroke="#3fb950" stroke-width="1.90" opacity="0.80" stroke-linecap="round"/>
<line x1="238.0" y1="290.0" x2="206.9" y2="286.9" stroke="#7bc96f" stroke-width="1.55" opacity="0.70" stroke-linecap="round"/>
<line x1="206.9" y1="286.9" x2="188.3" y2="295.1" stroke="#d29922" stroke-width="1.20" opacity="0.60" stroke-linecap="round"/>
<line x1="206.9" y1="286.9" x2="189.6" y2="274.9" stroke="#d29922" stroke-width="1.20" opacity="0.60" stroke-linecap="round"/>
<line x1="238.0" y1="290.0" x2="220.4" y2="265.8" stroke="#7bc96f" stroke-width="1.55" opacity="0.70" stroke-linecap="round"/>
<line x1="220.4" y1="265.8" x2="201.5" y2="258.5" stroke="#d29922" stroke-width="1.20" opacity="0.60" stroke-linecap="round"/>
<line x1="220.4" y1="265.8" x2="219.9" y2="246.9" stroke="#d29922" stroke-width="1.20" opacity="0.60" stroke-linecap="round"/>
<line x1="277.4" y1="311.0" x2="272.8" y2="268.7" stroke="#3fb950" stroke-width="1.90" opacity="0.80" stroke-linecap="round"/>
<line x1="272.8" y1="268.7" x2="254.7" y2="248.0" stroke="#7bc96f" stroke-width="1.55" opacity="0.70" stroke-linecap="round"/>
<line x1="254.7" y1="248.0" x2="246.5" y2="232.7" stroke="#d29922" stroke-width="1.20" opacity="0.60" stroke-linecap="round"/>
<line x1="272.8" y1="268.7" x2="286.5" y2="242.2" stroke="#7bc96f" stroke-width="1.55" opacity="0.70" stroke-linecap="round"/>
<line x1="286.5" y1="242.2" x2="284.7" y2="221.8" stroke="#d29922" stroke-width="1.20" opacity="0.60" stroke-linecap="round"/>
<line x1="286.5" y1="242.2" x2="304.3" y2="231.5" stroke="#d29922" stroke-width="1.20" opacity="0.60" stroke-linecap="round"/>
<line x1="410.0" y1="410.0" x2="393.8" y2="306.3" stroke="#58a6ff" stroke-width="2.60" opacity="1.00" stroke-linecap="round"/>
<line x1="393.8" y1="306.3" x2="357.5" y2="250.7" stroke="#4f9ee0" stroke-width="2.25" opacity="0.90" stroke-linecap="round"/>
<line x1="357.5" y1="250.7" x2="320.3" y2="230.5" stroke="#3fb950" stroke-width="1.90" opacity="0.80" stroke-linecap="round"/>
<line x1="320.3" y1="230.5" x2="293.4" y2="230.1" stroke="#7bc96f" stroke-width="1.55" opacity="0.70" stroke-linecap="round"/>
<line x1="293.4" y1="230.1" x2="274.4" y2="231.9" stroke="#d29922" stroke-width="1.20" opacity="0.60" stroke-linecap="round"/>
<line x1="320.3" y1="230.5" x2="302.9" y2="207.4" stroke="#7bc96f" stroke-width="1.55" opacity="0.70" stroke-linecap="round"/>
<line x1="302.9" y1="207.4" x2="285.1" y2="204.3" stroke="#d29922" stroke-width="1.20" opacity="0.60" stroke-linecap="round"/>
<line x1="302.9" y1="207.4" x2="303.9" y2="189.4" stroke="#d29922" stroke-width="1.20" opacity="0.60" stroke-linecap="round"/>
<line x1="357.5" y1="250.7" x2="353.4" y2="207.1" stroke="#3fb950" stroke-width="1.90" opacity="0.80" stroke-linecap="round"/>
<line x1="353.4" y1="207.1" x2="334.0" y2="184.2" stroke="#7bc96f" stroke-width="1.55" opacity="0.70" stroke-linecap="round"/>
<line x1="334.0" y1="184.2" x2="315.2" y2="179.7" stroke="#d29922" stroke-width="1.20" opacity="0.60" stroke-linecap="round"/>
<line x1="334.0" y1="184.2" x2="332.9" y2="163.9" stroke="#d29922" stroke-width="1.20" opacity="0.60" stroke-linecap="round"/>
<line x1="353.4" y1="207.1" x2="368.7" y2="181.5" stroke="#7bc96f" stroke-width="1.55" opacity="0.70" stroke-linecap="round"/>
<line x1="368.7" y1="181.5" x2="366.2" y2="160.9" stroke="#d29922" stroke-width="1.20" opacity="0.60" stroke-linecap="round"/>
<line x1="368.7" y1="181.5" x2="388.0" y2="173.1" stroke="#d29922" stroke-width="1.20" opacity="0.60" stroke-linecap="round"/>
<line x1="393.8" y1="306.3" x2="413.3" y2="238.4" stroke="#4f9ee0" stroke-width="2.25" opacity="0.90" stroke-linecap="round"/>
<line x1="413.3" y1="238.4" x2="403.1" y2="190.7" stroke="#3fb950" stroke-width="1.90" opacity="0.80" stroke-linecap="round"/>
<line x1="403.1" y1="190.7" x2="385.3" y2="164.0" stroke="#7bc96f" stroke-width="1.55" opacity="0.70" stroke-linecap="round"/>
<line x1="385.3" y1="164.0" x2="380.2" y2="143.6" stroke="#d29922" stroke-width="1.20" opacity="0.60" stroke-linecap="round"/>
<line x1="403.1" y1="190.7" x2="411.8" y2="157.3" stroke="#7bc96f" stroke-width="1.55" opacity="0.70" stroke-linecap="round"/>
<line x1="411.8" y1="157.3" x2="417.7" y2="135.2" stroke="#d29922" stroke-width="1.20" opacity="0.60" stroke-linecap="round"/>
<line x1="413.3" y1="238.4" x2="449.8" y2="206.5" stroke="#3fb950" stroke-width="1.90" opacity="0.80" stroke-linecap="round"/>
<line x1="449.8" y1="206.5" x2="454.4" y2="174.7" stroke="#7bc96f" stroke-width="1.55" opacity="0.70" stroke-linecap="round"/>
<line x1="454.4" y1="174.7" x2="445.4" y2="153.6" stroke="#d29922" stroke-width="1.20" opacity="0.60" stroke-linecap="round"/>
<line x1="454.4" y1="174.7" x2="465.6" y2="157.8" stroke="#d29922" stroke-width="1.20" opacity="0.60" stroke-linecap="round"/>
<line x1="449.8" y1="206.5" x2="480.9" y2="207.2" stroke="#7bc96f" stroke-width="1.55" opacity="0.70" stroke-linecap="round"/>
<line x1="480.9" y1="207.2" x2="501.2" y2="200.6" stroke="#d29922" stroke-width="1.20" opacity="0.60" stroke-linecap="round"/>
<line x1="410.0" y1="410.0" x2="477.1" y2="329.3" stroke="#58a6ff" stroke-width="2.60" opacity="1.00" stroke-linecap="round"/>
<line x1="477.1" y1="329.3" x2="483.3" y2="255.8" stroke="#4f9ee0" stroke-width="2.25" opacity="0.90" stroke-linecap="round"/>
<line x1="483.3" y1="255.8" x2="461.6" y2="213.8" stroke="#3fb950" stroke-width="1.90" opacity="0.80" stroke-linecap="round"/>
<line x1="461.6" y1="213.8" x2="433.7" y2="195.1" stroke="#7bc96f" stroke-width="1.55" opacity="0.70" stroke-linecap="round"/>
<line x1="433.7" y1="195.1" x2="412.1" y2="193.2" stroke="#d29922" stroke-width="1.20" opacity="0.60" stroke-linecap="round"/>
<line x1="433.7" y1="195.1" x2="423.1" y2="174.4" stroke="#d29922" stroke-width="1.20" opacity="0.60" stroke-linecap="round"/>
<line x1="461.6" y1="213.8" x2="464.1" y2="182.8" stroke="#7bc96f" stroke-width="1.55" opacity="0.70" stroke-linecap="round"/>
<line x1="464.1" y1="182.8" x2="460.3" y2="162.2" stroke="#d29922" stroke-width="1.20" opacity="0.60" stroke-linecap="round"/>
<line x1="483.3" y1="255.8" x2="513.1" y2="219.7" stroke="#3fb950" stroke-width="1.90" opacity="0.80" stroke-linecap="round"/>
<line x1="513.1" y1="219.7" x2="514.8" y2="189.2" stroke="#7bc96f" stroke-width="1.55" opacity="0.70" stroke-linecap="round"/>
<line x1="514.8" y1="189.2" x2="520.9" y2="168.4" stroke="#d29922" stroke-width="1.20" opacity="0.60" stroke-linecap="round"/>
<line x1="513.1" y1="219.7" x2="544.3" y2="209.8" stroke="#7bc96f" stroke-width="1.55" opacity="0.70" stroke-linecap="round"/>
<line x1="544.3" y1="209.8" x2="561.2" y2="194.6" stroke="#d29922" stroke-width="1.20" opacity="0.60" stroke-linecap="round"/>
<line x1="544.3" y1="209.8" x2="566.9" y2="212.7" stroke="#d29922" stroke-width="1.20" opacity="0.60" stroke-linecap="round"/>
<line x1="477.1" y1="329.3" x2="541.0" y2="312.8" stroke="#4f9ee0" stroke-width="2.25" opacity="0.90" stroke-linecap="round"/>
<line x1="541.0" y1="312.8" x2="570.5" y2="278.3" stroke="#3fb950" stroke-width="1.90" opacity="0.80" stroke-linecap="round"/>
<line x1="570.5" y1="278.3" x2="574.4" y2="248.9" stroke="#7bc96f" stroke-width="1.55" opacity="0.70" stroke-linecap="round"/>
<line x1="574.4" y1="248.9" x2="570.1" y2="229.4" stroke="#d29922" stroke-width="1.20" opacity="0.60" stroke-linecap="round"/>
<line x1="574.4" y1="248.9" x2="586.2" y2="231.6" stroke="#d29922" stroke-width="1.20" opacity="0.60" stroke-linecap="round"/>
<line x1="570.5" y1="278.3" x2="598.3" y2="269.1" stroke="#7bc96f" stroke-width="1.55" opacity="0.70" stroke-linecap="round"/>
<line x1="598.3" y1="269.1" x2="615.7" y2="262.4" stroke="#d29922" stroke-width="1.20" opacity="0.60" stroke-linecap="round"/>
<line x1="541.0" y1="312.8" x2="584.2" y2="323.6" stroke="#3fb950" stroke-width="1.90" opacity="0.80" stroke-linecap="round"/>
<line x1="584.2" y1="323.6" x2="612.7" y2="319.4" stroke="#7bc96f" stroke-width="1.55" opacity="0.70" stroke-linecap="round"/>
<line x1="612.7" y1="319.4" x2="628.6" y2="307.0" stroke="#d29922" stroke-width="1.20" opacity="0.60" stroke-linecap="round"/>
<line x1="612.7" y1="319.4" x2="632.4" y2="324.9" stroke="#d29922" stroke-width="1.20" opacity="0.60" stroke-linecap="round"/>
<line x1="584.2" y1="323.6" x2="608.5" y2="344.3" stroke="#7bc96f" stroke-width="1.55" opacity="0.70" stroke-linecap="round"/>
<line x1="608.5" y1="344.3" x2="628.6" y2="346.7" stroke="#d29922" stroke-width="1.20" opacity="0.60" stroke-linecap="round"/>
<line x1="608.5" y1="344.3" x2="614.6" y2="363.2" stroke="#d29922" stroke-width="1.20" opacity="0.60" stroke-linecap="round"/>
<circle cx="515.0" cy="412.5" r="2.60" fill="#58a6ff" opacity="0.85"/>
<circle cx="567.9" cy="372.1" r="2.30" fill="#4f9ee0" opacity="0.85"/>
<circle cx="575.0" cy="330.1" r="2.00" fill="#3fb950" opacity="0.85"/>
<circle cx="567.5" cy="303.7" r="1.70" fill="#7bc96f" opacity="0.85"/>
<circle cx="593.7" cy="307.1" r="1.70" fill="#7bc96f" opacity="0.85"/>
<circle cx="611.2" cy="371.0" r="2.00" fill="#3fb950" opacity="0.85"/>
<circle cx="637.5" cy="358.1" r="1.70" fill="#7bc96f" opacity="0.85"/>
<circle cx="635.1" cy="383.1" r="1.70" fill="#7bc96f" opacity="0.85"/>
<circle cx="566.3" cy="453.6" r="2.30" fill="#4f9ee0" opacity="0.85"/>
<circle cx="609.1" cy="450.1" r="2.00" fill="#3fb950" opacity="0.85"/>
<circle cx="635.2" cy="434.9" r="1.70" fill="#7bc96f" opacity="0.85"/>
<circle cx="637.2" cy="459.1" r="1.70" fill="#7bc96f" opacity="0.85"/>
<circle cx="577.2" cy="496.4" r="2.00" fill="#3fb950" opacity="0.85"/>
<circle cx="599.8" cy="515.3" r="1.70" fill="#7bc96f" opacity="0.85"/>
<circle cx="565.4" cy="525.2" r="1.70" fill="#7bc96f" opacity="0.85"/>
<circle cx="472.8" cy="494.2" r="2.60" fill="#58a6ff" opacity="0.85"/>
<circle cx="531.5" cy="527.5" r="2.30" fill="#4f9ee0" opacity="0.85"/>
<circle cx="577.0" cy="522.2" r="2.00" fill="#3fb950" opacity="0.85"/>
<circle cx="598.6" cy="502.6" r="1.70" fill="#7bc96f" opacity="0.85"/>
<circle cx="603.6" cy="537.3" r="1.70" fill="#7bc96f" opacity="0.85"/>
<circle cx="551.1" cy="565.3" r="2.00" fill="#3fb950" opacity="0.85"/>
<circle cx="575.6" cy="579.6" r="1.70" fill="#7bc96f" opacity="0.85"/>
<circle cx="551.2" cy="595.2" r="1.70" fill="#7bc96f" opacity="0.85"/>
<circle cx="490.6" cy="565.1" r="2.30" fill="#4f9ee0" opacity="0.85"/>
<circle cx="528.1" cy="596.0" r="2.00" fill="#3fb950" opacity="0.85"/>
<circle cx="561.6" cy="604.4" r="1.70" fill="#7bc96f" opacity="0.85"/>
<circle cx="544.8" cy="624.7" r="1.70" fill="#7bc96f" opacity="0.85"/>
<circle cx="471.0" cy="612.3" r="2.00" fill="#3fb950" opacity="0.85"/>
<circle cx="476.9" cy="645.0" r="1.70" fill="#7bc96f" opacity="0.85"/>
<circle cx="440.8" cy="630.2" r="1.70" fill="#7bc96f" opacity="0.85"/>
<circle cx="391.6" cy="513.4" r="2.60" fill="#58a6ff" opacity="0.85"/>
<circle cx="418.4" cy="574.6" r="2.30" fill="#4f9ee0" opacity="0.85"/>
<circle cx="451.0" cy="600.7" r="2.00" fill="#3fb950" opacity="0.85"/>
<circle cx="477.9" cy="599.5" r="1.70" fill="#7bc96f" opacity="0.85"/>
<circle cx="454.6" cy="626.7" r="1.70" fill="#7bc96f" opacity="0.85"/>
<circle cx="417.7" cy="620.7" r="2.00" fill="#3fb950" opacity="0.85"/>
<circle cx="431.6" cy="650.8" r="1.70" fill="#7bc96f" opacity="0.85"/>
<circle cx="407.2" cy="647.7" r="1.70" fill="#7bc96f" opacity="0.85"/>
<circle cx="334.9" cy="559.7" r="2.30" fill="#4f9ee0" opacity="0.85"/>
<circle cx="323.5" cy="608.7" r="2.00" fill="#3fb950" opacity="0.85"/>
<circle cx="333.8" cy="639.5" r="1.70" fill="#7bc96f" opacity="0.85"/>
<circle cx="299.8" cy="631.3" r="1.70" fill="#7bc96f" opacity="0.85"/>
<circle cx="282.8" cy="561.9" r="2.00" fill="#3fb950" opacity="0.85"/>
<circle cx="255.3" cy="582.6" r="1.70" fill="#7bc96f" opacity="0.85"/>
<circle cx="257.4" cy="541.0" r="1.70" fill="#7bc96f" opacity="0.85"/>
<circle cx="313.9" cy="452.3" r="2.60" fill="#58a6ff" opacity="0.85"/>
<circle cx="276.9" cy="516.7" r="2.30" fill="#4f9ee0" opacity="0.85"/>
<circle cx="273.7" cy="565.9" r="2.00" fill="#3fb950" opacity="0.85"/>
<circle cx="291.3" cy="596.0" r="1.70" fill="#7bc96f" opacity="0.85"/>
<circle cx="253.4" cy="592.3" r="1.70" fill="#7bc96f" opacity="0.85"/>
<circle cx="236.9" cy="547.0" r="2.00" fill="#3fb950" opacity="0.85"/>
<circle cx="222.8" cy="576.7" r="1.70" fill="#7bc96f" opacity="0.85"/>
<circle cx="205.0" cy="549.5" r="1.70" fill="#7bc96f" opacity="0.85"/>
<circle cx="243.1" cy="441.4" r="2.30" fill="#4f9ee0" opacity="0.85"/>
<circle cx="196.1" cy="455.3" r="2.00" fill="#3fb950" opacity="0.85"/>
<circle cx="171.3" cy="474.6" r="1.70" fill="#7bc96f" opacity="0.85"/>
<circle cx="161.2" cy="450.7" r="1.70" fill="#7bc96f" opacity="0.85"/>
<circle cx="204.8" cy="415.5" r="2.00" fill="#3fb950" opacity="0.85"/>
<circle cx="175.5" cy="417.8" r="1.70" fill="#7bc96f" opacity="0.85"/>
<circle cx="195.4" cy="385.5" r="1.70" fill="#7bc96f" opacity="0.85"/>
<circle cx="314.9" cy="365.6" r="2.60" fill="#58a6ff" opacity="0.85"/>
<circle cx="246.5" cy="370.1" r="2.30" fill="#4f9ee0" opacity="0.85"/>
<circle cx="212.0" cy="402.8" r="2.00" fill="#3fb950" opacity="0.85"/>
<circle cx="206.3" cy="436.4" r="1.70" fill="#7bc96f" opacity="0.85"/>
<circle cx="179.5" cy="403.0" r="1.70" fill="#7bc96f" opacity="0.85"/>
<circle cx="207.3" cy="344.5" r="2.00" fill="#3fb950" opacity="0.85"/>
<circle cx="174.6" cy="344.3" r="1.70" fill="#7bc96f" opacity="0.85"/>
<circle cx="196.2" cy="312.8" r="1.70" fill="#7bc96f" opacity="0.85"/>
<circle cx="277.4" cy="311.0" r="2.30" fill="#4f9ee0" opacity="0.85"/>
<circle cx="238.0" cy="290.0" r="2.00" fill="#3fb950" opacity="0.85"/>
<circle cx="206.9" cy="286.9" r="1.70" fill="#7bc96f" opacity="0.85"/>
<circle cx="220.4" cy="265.8" r="1.70" fill="#7bc96f" opacity="0.85"/>
<circle cx="272.8" cy="268.7" r="2.00" fill="#3fb950" opacity="0.85"/>
<circle cx="254.7" cy="248.0" r="1.70" fill="#7bc96f" opacity="0.85"/>
<circle cx="286.5" cy="242.2" r="1.70" fill="#7bc96f" opacity="0.85"/>
<circle cx="393.8" cy="306.3" r="2.60" fill="#58a6ff" opacity="0.85"/>
<circle cx="357.5" cy="250.7" r="2.30" fill="#4f9ee0" opacity="0.85"/>
<circle cx="320.3" cy="230.5" r="2.00" fill="#3fb950" opacity="0.85"/>
<circle cx="293.4" cy="230.1" r="1.70" fill="#7bc96f" opacity="0.85"/>
<circle cx="302.9" cy="207.4" r="1.70" fill="#7bc96f" opacity="0.85"/>
<circle cx="353.4" cy="207.1" r="2.00" fill="#3fb950" opacity="0.85"/>
<circle cx="334.0" cy="184.2" r="1.70" fill="#7bc96f" opacity="0.85"/>
<circle cx="368.7" cy="181.5" r="1.70" fill="#7bc96f" opacity="0.85"/>
<circle cx="413.3" cy="238.4" r="2.30" fill="#4f9ee0" opacity="0.85"/>
<circle cx="403.1" cy="190.7" r="2.00" fill="#3fb950" opacity="0.85"/>
<circle cx="385.3" cy="164.0" r="1.70" fill="#7bc96f" opacity="0.85"/>
<circle cx="411.8" cy="157.3" r="1.70" fill="#7bc96f" opacity="0.85"/>
<circle cx="449.8" cy="206.5" r="2.00" fill="#3fb950" opacity="0.85"/>
<circle cx="454.4" cy="174.7" r="1.70" fill="#7bc96f" opacity="0.85"/>
<circle cx="480.9" cy="207.2" r="1.70" fill="#7bc96f" opacity="0.85"/>
<circle cx="477.1" cy="329.3" r="2.60" fill="#58a6ff" opacity="0.85"/>
<circle cx="483.3" cy="255.8" r="2.30" fill="#4f9ee0" opacity="0.85"/>
<circle cx="461.6" cy="213.8" r="2.00" fill="#3fb950" opacity="0.85"/>
<circle cx="433.7" cy="195.1" r="1.70" fill="#7bc96f" opacity="0.85"/>
<circle cx="464.1" cy="182.8" r="1.70" fill="#7bc96f" opacity="0.85"/>
<circle cx="513.1" cy="219.7" r="2.00" fill="#3fb950" opacity="0.85"/>
<circle cx="514.8" cy="189.2" r="1.70" fill="#7bc96f" opacity="0.85"/>
<circle cx="544.3" cy="209.8" r="1.70" fill="#7bc96f" opacity="0.85"/>
<circle cx="541.0" cy="312.8" r="2.30" fill="#4f9ee0" opacity="0.85"/>
<circle cx="570.5" cy="278.3" r="2.00" fill="#3fb950" opacity="0.85"/>
<circle cx="574.4" cy="248.9" r="1.70" fill="#7bc96f" opacity="0.85"/>
<circle cx="598.3" cy="269.1" r="1.70" fill="#7bc96f" opacity="0.85"/>
<circle cx="584.2" cy="323.6" r="2.00" fill="#3fb950" opacity="0.85"/>
<circle cx="612.7" cy="319.4" r="1.70" fill="#7bc96f" opacity="0.85"/>
<circle cx="608.5" cy="344.3" r="1.70" fill="#7bc96f" opacity="0.85"/>
<circle cx="555.9" cy="290.7" r="3" fill="none" stroke="#d29922" stroke-width="1" opacity="0.6"/>
<circle cx="571.4" cy="284.3" r="3" fill="none" stroke="#d29922" stroke-width="1" opacity="0.6"/>
<circle cx="600.1" cy="289.1" r="3" fill="none" stroke="#d29922" stroke-width="1" opacity="0.6"/>
<circle cx="612.7" cy="298.2" r="3" fill="none" stroke="#d29922" stroke-width="1" opacity="0.6"/>
<circle cx="648.2" cy="340.1" r="3" fill="none" stroke="#d29922" stroke-width="1" opacity="0.6"/>
<circle cx="655.6" cy="360.7" r="3" fill="none" stroke="#d29922" stroke-width="1" opacity="0.6"/>
<circle cx="652.8" cy="390.5" r="3" fill="none" stroke="#d29922" stroke-width="1" opacity="0.6"/>
<circle cx="651.0" cy="420.4" r="3" fill="none" stroke="#d29922" stroke-width="1" opacity="0.6"/>
<circle cx="655.0" cy="470.1" r="3" fill="none" stroke="#d29922" stroke-width="1" opacity="0.6"/>
<circle cx="618.9" cy="516.4" r="3" fill="none" stroke="#d29922" stroke-width="1" opacity="0.6"/>
<circle cx="603.7" cy="533.4" r="3" fill="none" stroke="#d29922" stroke-width="1" opacity="0.6"/>
<circle cx="568.4" cy="546.2" r="3" fill="none" stroke="#d29922" stroke-width="1" opacity="0.6"/>
<circle cx="547.9" cy="537.8" r="3" fill="none" stroke="#d29922" stroke-width="1" opacity="0.6"/>
<circle cx="610.4" cy="487.9" r="3" fill="none" stroke="#d29922" stroke-width="1" opacity="0.6"/>
<circle cx="619.3" cy="550.4" r="3" fill="none" stroke="#d29922" stroke-width="1" opacity="0.6"/>
<circle cx="596.0" cy="577.7" r="3" fill="none" stroke="#d29922" stroke-width="1" opacity="0.6"/>
<circle cx="583.2" cy="597.6" r="3" fill="none" stroke="#d29922" stroke-width="1" opacity="0.6"/>
<circle cx="544.3" cy="615.2" r="3" fill="none" stroke="#d29922" stroke-width="1" opacity="0.6"/>
<circle cx="582.6" cy="596.0" r="3" fill="none" stroke="#d29922" stroke-width="1" opacity="0.6"/>
<circle cx="576.2" cy="620.8" r="3" fill="none" stroke="#d29922" stroke-width="1" opacity="0.6"/>
<circle cx="556.6" cy="642.2" r="3" fill="none" stroke="#d29922" stroke-width="1" opacity="0.6"/>
<circle cx="474.1" cy="666.3" r="3" fill="none" stroke="#d29922" stroke-width="1" opacity="0.6"/>
<circle cx="418.7" cy="635.6" r="3" fill="none" stroke="#d29922" stroke-width="1" opacity="0.6"/>
<circle cx="494.8" cy="601.9" r="3" fill="none" stroke="#d29922" stroke-width="1" opacity="0.6"/>
<circle cx="464.0" cy="642.2" r="3" fill="none" stroke="#d29922" stroke-width="1" opacity="0.6"/>
<circle cx="449.1" cy="643.2" r="3" fill="none" stroke="#d29922" stroke-width="1" opacity="0.6"/>
<circle cx="439.9" cy="672.2" r="3" fill="none" stroke="#d29922" stroke-width="1" opacity="0.6"/>
<circle cx="403.5" cy="666.1" r="3" fill="none" stroke="#d29922" stroke-width="1" opacity="0.6"/>
<circle cx="350.3" cy="652.4" r="3" fill="none" stroke="#d29922" stroke-width="1" opacity="0.6"/>
<circle cx="330.7" cy="660.0" r="3" fill="none" stroke="#d29922" stroke-width="1" opacity="0.6"/>
<circle cx="281.1" cy="641.3" r="3" fill="none" stroke="#d29922" stroke-width="1" opacity="0.6"/>
<circle cx="239.6" cy="597.1" r="3" fill="none" stroke="#d29922" stroke-width="1" opacity="0.6"/>
<circle cx="235.2" cy="535.0" r="3" fill="none" stroke="#d29922" stroke-width="1" opacity="0.6"/>
<circle cx="247.5" cy="520.6" r="3" fill="none" stroke="#d29922" stroke-width="1" opacity="0.6"/>
<circle cx="303.4" cy="615.9" r="3" fill="none" stroke="#d29922" stroke-width="1" opacity="0.6"/>
<circle cx="242.9" cy="613.4" r="3" fill="none" stroke="#d29922" stroke-width="1" opacity="0.6"/>
<circle cx="223.3" cy="599.5" r="3" fill="none" stroke="#d29922" stroke-width="1" opacity="0.6"/>
<circle cx="205.3" cy="590.4" r="3" fill="none" stroke="#d29922" stroke-width="1" opacity="0.6"/>
<circle cx="186.0" cy="562.0" r="3" fill="none" stroke="#d29922" stroke-width="1" opacity="0.6"/>
<circle cx="185.5" cy="541.9" r="3" fill="none" stroke="#d29922" stroke-width="1" opacity="0.6"/>
<circle cx="164.3" cy="495.1" r="3" fill="none" stroke="#d29922" stroke-width="1" opacity="0.6"/>
<circle cx="149.6" cy="478.4" r="3" fill="none" stroke="#d29922" stroke-width="1" opacity="0.6"/>
<circle cx="137.1" cy="451.0" r="3" fill="none" stroke="#d29922" stroke-width="1" opacity="0.6"/>
<circle cx="160.2" cy="430.8" r="3" fill="none" stroke="#d29922" stroke-width="1" opacity="0.6"/>
<circle cx="159.8" cy="408.5" r="3" fill="none" stroke="#d29922" stroke-width="1" opacity="0.6"/>
<circle cx="189.3" cy="365.9" r="3" fill="none" stroke="#d29922" stroke-width="1" opacity="0.6"/>
<circle cx="216.8" cy="457.0" r="3" fill="none" stroke="#d29922" stroke-width="1" opacity="0.6"/>
<circle cx="189.5" cy="449.9" r="3" fill="none" stroke="#d29922" stroke-width="1" opacity="0.6"/>
<circle cx="162.2" cy="418.3" r="3" fill="none" stroke="#d29922" stroke-width="1" opacity="0.6"/>
<circle cx="160.8" cy="390.4" r="3" fill="none" stroke="#d29922" stroke-width="1" opacity="0.6"/>
<circle cx="156.6" cy="354.9" r="3" fill="none" stroke="#d29922" stroke-width="1" opacity="0.6"/>
<circle cx="157.1" cy="331.2" r="3" fill="none" stroke="#d29922" stroke-width="1" opacity="0.6"/>
<circle cx="185.0" cy="293.3" r="3" fill="none" stroke="#d29922" stroke-width="1" opacity="0.6"/>
<circle cx="188.3" cy="295.1" r="3" fill="none" stroke="#d29922" stroke-width="1" opacity="0.6"/>
<circle cx="189.6" cy="274.9" r="3" fill="none" stroke="#d29922" stroke-width="1" opacity="0.6"/>
<circle cx="201.5" cy="258.5" r="3" fill="none" stroke="#d29922" stroke-width="1" opacity="0.6"/>
<circle cx="219.9" cy="246.9" r="3" fill="none" stroke="#d29922" stroke-width="1" opacity="0.6"/>
<circle cx="246.5" cy="232.7" r="3" fill="none" stroke="#d29922" stroke-width="1" opacity="0.6"/>
<circle cx="284.7" cy="221.8" r="3" fill="none" stroke="#d29922" stroke-width="1" opacity="0.6"/>
<circle cx="304.3" cy="231.5" r="3" fill="none" stroke="#d29922" stroke-width="1" opacity="0.6"/>
<circle cx="274.4" cy="231.9" r="3" fill="none" stroke="#d29922" stroke-width="1" opacity="0.6"/>
<circle cx="285.1" cy="204.3" r="3" fill="none" stroke="#d29922" stroke-width="1" opacity="0.6"/>
<circle cx="303.9" cy="189.4" r="3" fill="none" stroke="#d29922" stroke-width="1" opacity="0.6"/>
<circle cx="315.2" cy="179.7" r="3" fill="none" stroke="#d29922" stroke-width="1" opacity="0.6"/>
<circle cx="332.9" cy="163.9" r="3" fill="none" stroke="#d29922" stroke-width="1" opacity="0.6"/>
<circle cx="366.2" cy="160.9" r="3" fill="none" stroke="#d29922" stroke-width="1" opacity="0.6"/>
<circle cx="388.0" cy="173.1" r="3" fill="none" stroke="#d29922" stroke-width="1" opacity="0.6"/>
<circle cx="380.2" cy="143.6" r="3" fill="none" stroke="#d29922" stroke-width="1" opacity="0.6"/>
<circle cx="417.7" cy="135.2" r="3" fill="none" stroke="#d29922" stroke-width="1" opacity="0.6"/>
<circle cx="445.4" cy="153.6" r="3" fill="none" stroke="#d29922" stroke-width="1" opacity="0.6"/>
<circle cx="465.6" cy="157.8" r="3" fill="none" stroke="#d29922" stroke-width="1" opacity="0.6"/>
<circle cx="501.2" cy="200.6" r="3" fill="none" stroke="#d29922" stroke-width="1" opacity="0.6"/>
<circle cx="412.1" cy="193.2" r="3" fill="none" stroke="#d29922" stroke-width="1" opacity="0.6"/>
<circle cx="423.1" cy="174.4" r="3" fill="none" stroke="#d29922" stroke-width="1" opacity="0.6"/>
<circle cx="460.3" cy="162.2" r="3" fill="none" stroke="#d29922" stroke-width="1" opacity="0.6"/>
<circle cx="520.9" cy="168.4" r="3" fill="none" stroke="#d29922" stroke-width="1" opacity="0.6"/>
<circle cx="561.2" cy="194.6" r="3" fill="none" stroke="#d29922" stroke-width="1" opacity="0.6"/>
<circle cx="566.9" cy="212.7" r="3" fill="none" stroke="#d29922" stroke-width="1" opacity="0.6"/>
<circle cx="570.1" cy="229.4" r="3" fill="none" stroke="#d29922" stroke-width="1" opacity="0.6"/>
<circle cx="586.2" cy="231.6" r="3" fill="none" stroke="#d29922" stroke-width="1" opacity="0.6"/>
<circle cx="615.7" cy="262.4" r="3" fill="none" stroke="#d29922" stroke-width="1" opacity="0.6"/>
<circle cx="628.6" cy="307.0" r="3" fill="none" stroke="#d29922" stroke-width="1" opacity="0.6"/>
<circle cx="632.4" cy="324.9" r="3" fill="none" stroke="#d29922" stroke-width="1" opacity="0.6"/>
<circle cx="628.6" cy="346.7" r="3" fill="none" stroke="#d29922" stroke-width="1" opacity="0.6"/>
<circle cx="614.6" cy="363.2" r="3" fill="none" stroke="#d29922" stroke-width="1" opacity="0.6"/>
<circle cx="410.0" cy="410.0" r="10" fill="#0d1117" stroke="#58a6ff" stroke-width="2"/>
<circle cx="410.0" cy="410.0" r="4" fill="#58a6ff"/>
<circle r="2.4" fill="#7ee787"><animateMotion dur="3.53s" begin="1.53s" repeatCount="indefinite" path="M410.0,410.0 L393.8,306.3"/></circle>
<circle r="2.4" fill="#f2cc60"><animateMotion dur="2.5s" begin="0.3s" repeatCount="indefinite" path="M598.3,269.1 L615.7,262.4"/></circle>
<circle r="2.4" fill="#79c0ff"><animateMotion dur="3.33s" begin="2.18s" repeatCount="indefinite" path="M196.1,455.3 L171.3,474.6"/></circle>
<circle r="2.4" fill="#7ee787"><animateMotion dur="3.41s" begin="1.82s" repeatCount="indefinite" path="M299.8,631.3 L281.1,641.3"/></circle>
<circle r="2.4" fill="#f2cc60"><animateMotion dur="3.64s" begin="0.55s" repeatCount="indefinite" path="M236.9,547.0 L205.0,549.5"/></circle>
<circle r="2.4" fill="#79c0ff"><animateMotion dur="2.69s" begin="1.06s" repeatCount="indefinite" path="M175.5,417.8 L160.2,430.8"/></circle>
<circle r="2.4" fill="#7ee787"><animateMotion dur="3.0s" begin="1.09s" repeatCount="indefinite" path="M567.9,372.1 L575.0,330.1"/></circle>
<text x="806" y="806" text-anchor="end" font-size="9" fill="#484f58" letter-spacing="1">// circuit_bloom.py — seed:20260718 — spokes:7 — regenerated daily</text>
</svg>