<svg viewBox="0 0 820 820" width="820" height="820" xmlns="http://www.w3.org/2000/svg" font-family="'Fira Code',monospace">
<defs>
<pattern id="g2" width="22" height="22" patternUnits="userSpaceOnUse">
<path d="M 22 0 L 0 0 0 22" fill="none" stroke="#30363d" stroke-width="0.4" opacity="0.3"/>
</pattern>
<radialGradient id="glow" cx="50%" cy="50%" r="50%">
<stop offset="0%" stop-color="#58a6ff" stop-opacity="0.35"/>
<stop offset="100%" stop-color="#58a6ff" stop-opacity="0"/>
</radialGradient>
</defs>
<rect x="0" y="0" width="820" height="820" fill="#0d1117"/>
<rect x="0" y="0" width="820" height="820" fill="url(#g2)"/>
<circle cx="410.0" cy="410.0" r="230" fill="url(#glow)"/>
<line x1="410.0" y1="410.0" x2="514.9" y2="413.9" stroke="#58a6ff" stroke-width="2.60" opacity="1.00" stroke-linecap="round"/>
<line x1="514.9" y1="413.9" x2="572.3" y2="378.6" stroke="#4f9ee0" stroke-width="2.25" opacity="0.90" stroke-linecap="round"/>
<line x1="572.3" y1="378.6" x2="596.3" y2="340.5" stroke="#3fb950" stroke-width="1.90" opacity="0.80" stroke-linecap="round"/>
<line x1="596.3" y1="340.5" x2="598.3" y2="311.7" stroke="#7bc96f" stroke-width="1.55" opacity="0.70" stroke-linecap="round"/>
<line x1="598.3" y1="311.7" x2="591.9" y2="294.5" stroke="#d29922" stroke-width="1.20" opacity="0.60" stroke-linecap="round"/>
<line x1="598.3" y1="311.7" x2="607.3" y2="296.1" stroke="#d29922" stroke-width="1.20" opacity="0.60" stroke-linecap="round"/>
<line x1="596.3" y1="340.5" x2="624.6" y2="326.3" stroke="#7bc96f" stroke-width="1.55" opacity="0.70" stroke-linecap="round"/>
<line x1="624.6" y1="326.3" x2="636.2" y2="309.3" stroke="#d29922" stroke-width="1.20" opacity="0.60" stroke-linecap="round"/>
<line x1="624.6" y1="326.3" x2="646.7" y2="327.3" stroke="#d29922" stroke-width="1.20" opacity="0.60" stroke-linecap="round"/>
<line x1="572.3" y1="378.6" x2="617.5" y2="373.2" stroke="#3fb950" stroke-width="1.90" opacity="0.80" stroke-linecap="round"/>
<line x1="617.5" y1="373.2" x2="637.4" y2="351.9" stroke="#7bc96f" stroke-width="1.55" opacity="0.70" stroke-linecap="round"/>
<line x1="637.4" y1="351.9" x2="645.2" y2="334.7" stroke="#d29922" stroke-width="1.20" opacity="0.60" stroke-linecap="round"/>
<line x1="617.5" y1="373.2" x2="644.3" y2="391.2" stroke="#7bc96f" stroke-width="1.55" opacity="0.70" stroke-linecap="round"/>
<line x1="644.3" y1="391.2" x2="665.3" y2="392.1" stroke="#d29922" stroke-width="1.20" opacity="0.60" stroke-linecap="round"/>
<line x1="644.3" y1="391.2" x2="655.5" y2="408.3" stroke="#d29922" stroke-width="1.20" opacity="0.60" stroke-linecap="round"/>
<line x1="514.9" y1="413.9" x2="580.1" y2="451.1" stroke="#4f9ee0" stroke-width="2.25" opacity="0.90" stroke-linecap="round"/>
<line x1="580.1" y1="451.1" x2="627.9" y2="456.4" stroke="#3fb950" stroke-width="1.90" opacity="0.80" stroke-linecap="round"/>
<line x1="627.9" y1="456.4" x2="660.3" y2="444.9" stroke="#7bc96f" stroke-width="1.55" opacity="0.70" stroke-linecap="round"/>
<line x1="660.3" y1="444.9" x2="682.0" y2="437.2" stroke="#d29922" stroke-width="1.20" opacity="0.60" stroke-linecap="round"/>
<line x1="627.9" y1="456.4" x2="653.4" y2="476.9" stroke="#7bc96f" stroke-width="1.55" opacity="0.70" stroke-linecap="round"/>
<line x1="653.4" y1="476.9" x2="674.7" y2="481.3" stroke="#d29922" stroke-width="1.20" opacity="0.60" stroke-linecap="round"/>
<line x1="653.4" y1="476.9" x2="659.9" y2="499.1" stroke="#d29922" stroke-width="1.20" opacity="0.60" stroke-linecap="round"/>
<line x1="580.1" y1="451.1" x2="606.4" y2="494.3" stroke="#3fb950" stroke-width="1.90" opacity="0.80" stroke-linecap="round"/>
<line x1="606.4" y1="494.3" x2="637.3" y2="506.1" stroke="#7bc96f" stroke-width="1.55" opacity="0.70" stroke-linecap="round"/>
<line x1="637.3" y1="506.1" x2="659.6" y2="511.1" stroke="#d29922" stroke-width="1.20" opacity="0.60" stroke-linecap="round"/>
<line x1="606.4" y1="494.3" x2="603.3" y2="527.8" stroke="#7bc96f" stroke-width="1.55" opacity="0.70" stroke-linecap="round"/>
<line x1="603.3" y1="527.8" x2="609.2" y2="549.3" stroke="#d29922" stroke-width="1.20" opacity="0.60" stroke-linecap="round"/>
<line x1="603.3" y1="527.8" x2="591.6" y2="549.0" stroke="#d29922" stroke-width="1.20" opacity="0.60" stroke-linecap="round"/>
<line x1="410.0" y1="410.0" x2="443.3" y2="509.6" stroke="#58a6ff" stroke-width="2.60" opacity="1.00" stroke-linecap="round"/>
<line x1="443.3" y1="509.6" x2="507.4" y2="549.3" stroke="#4f9ee0" stroke-width="2.25" opacity="0.90" stroke-linecap="round"/>
<line x1="507.4" y1="549.3" x2="561.5" y2="549.4" stroke="#3fb950" stroke-width="1.90" opacity="0.80" stroke-linecap="round"/>
<line x1="561.5" y1="549.4" x2="590.6" y2="531.7" stroke="#7bc96f" stroke-width="1.55" opacity="0.70" stroke-linecap="round"/>
<line x1="590.6" y1="531.7" x2="600.0" y2="511.0" stroke="#d29922" stroke-width="1.20" opacity="0.60" stroke-linecap="round"/>
<line x1="590.6" y1="531.7" x2="614.8" y2="530.5" stroke="#d29922" stroke-width="1.20" opacity="0.60" stroke-linecap="round"/>
<line x1="561.5" y1="549.4" x2="593.5" y2="569.0" stroke="#7bc96f" stroke-width="1.55" opacity="0.70" stroke-linecap="round"/>
<line x1="593.5" y1="569.0" x2="613.6" y2="583.3" stroke="#d29922" stroke-width="1.20" opacity="0.60" stroke-linecap="round"/>
<line x1="507.4" y1="549.3" x2="529.7" y2="593.6" stroke="#3fb950" stroke-width="1.90" opacity="0.80" stroke-linecap="round"/>
<line x1="529.7" y1="593.6" x2="557.7" y2="608.0" stroke="#7bc96f" stroke-width="1.55" opacity="0.70" stroke-linecap="round"/>
<line x1="557.7" y1="608.0" x2="578.2" y2="604.8" stroke="#d29922" stroke-width="1.20" opacity="0.60" stroke-linecap="round"/>
<line x1="557.7" y1="608.0" x2="568.7" y2="626.5" stroke="#d29922" stroke-width="1.20" opacity="0.60" stroke-linecap="round"/>
<line x1="529.7" y1="593.6" x2="521.7" y2="623.9" stroke="#7bc96f" stroke-width="1.55" opacity="0.70" stroke-linecap="round"/>
<line x1="521.7" y1="623.9" x2="525.2" y2="643.9" stroke="#d29922" stroke-width="1.20" opacity="0.60" stroke-linecap="round"/>
<line x1="521.7" y1="623.9" x2="510.8" y2="640.2" stroke="#d29922" stroke-width="1.20" opacity="0.60" stroke-linecap="round"/>
<line x1="443.3" y1="509.6" x2="418.4" y2="570.4" stroke="#4f9ee0" stroke-width="2.25" opacity="0.90" stroke-linecap="round"/>
<line x1="418.4" y1="570.4" x2="419.0" y2="616.9" stroke="#3fb950" stroke-width="1.90" opacity="0.80" stroke-linecap="round"/>
<line x1="419.0" y1="616.9" x2="432.8" y2="643.4" stroke="#7bc96f" stroke-width="1.55" opacity="0.70" stroke-linecap="round"/>
<line x1="432.8" y1="643.4" x2="447.7" y2="658.1" stroke="#d29922" stroke-width="1.20" opacity="0.60" stroke-linecap="round"/>
<line x1="419.0" y1="616.9" x2="402.6" y2="645.9" stroke="#7bc96f" stroke-width="1.55" opacity="0.70" stroke-linecap="round"/>
<line x1="402.6" y1="645.9" x2="396.7" y2="666.3" stroke="#d29922" stroke-width="1.20" opacity="0.60" stroke-linecap="round"/>
<line x1="418.4" y1="570.4" x2="384.7" y2="597.7" stroke="#3fb950" stroke-width="1.90" opacity="0.80" stroke-linecap="round"/>
<line x1="384.7" y1="597.7" x2="371.5" y2="624.1" stroke="#7bc96f" stroke-width="1.55" opacity="0.70" stroke-linecap="round"/>
<line x1="371.5" y1="624.1" x2="373.3" y2="642.7" stroke="#d29922" stroke-width="1.20" opacity="0.60" stroke-linecap="round"/>
<line x1="371.5" y1="624.1" x2="354.4" y2="633.7" stroke="#d29922" stroke-width="1.20" opacity="0.60" stroke-linecap="round"/>
<line x1="384.7" y1="597.7" x2="358.5" y2="603.8" stroke="#7bc96f" stroke-width="1.55" opacity="0.70" stroke-linecap="round"/>
<line x1="358.5" y1="603.8" x2="341.4" y2="610.6" stroke="#d29922" stroke-width="1.20" opacity="0.60" stroke-linecap="round"/>
<line x1="410.0" y1="410.0" x2="328.0" y2="475.6" stroke="#58a6ff" stroke-width="2.60" opacity="1.00" stroke-linecap="round"/>
<line x1="328.0" y1="475.6" x2="303.9" y2="544.4" stroke="#4f9ee0" stroke-width="2.25" opacity="0.90" stroke-linecap="round"/>
<line x1="303.9" y1="544.4" x2="314.4" y2="594.3" stroke="#3fb950" stroke-width="1.90" opacity="0.80" stroke-linecap="round"/>
<line x1="314.4" y1="594.3" x2="333.2" y2="623.3" stroke="#7bc96f" stroke-width="1.55" opacity="0.70" stroke-linecap="round"/>
<line x1="333.2" y1="623.3" x2="347.5" y2="642.4" stroke="#d29922" stroke-width="1.20" opacity="0.60" stroke-linecap="round"/>
<line x1="314.4" y1="594.3" x2="308.3" y2="629.9" stroke="#7bc96f" stroke-width="1.55" opacity="0.70" stroke-linecap="round"/>
<line x1="308.3" y1="629.9" x2="296.1" y2="651.7" stroke="#d29922" stroke-width="1.20" opacity="0.60" stroke-linecap="round"/>
<line x1="303.9" y1="544.4" x2="271.4" y2="579.3" stroke="#3fb950" stroke-width="1.90" opacity="0.80" stroke-linecap="round"/>
<line x1="271.4" y1="579.3" x2="262.0" y2="607.6" stroke="#7bc96f" stroke-width="1.55" opacity="0.70" stroke-linecap="round"/>
<line x1="262.0" y1="607.6" x2="256.2" y2="625.7" stroke="#d29922" stroke-width="1.20" opacity="0.60" stroke-linecap="round"/>
<line x1="271.4" y1="579.3" x2="241.0" y2="591.1" stroke="#7bc96f" stroke-width="1.55" opacity="0.70" stroke-linecap="round"/>
<line x1="241.0" y1="591.1" x2="226.0" y2="608.2" stroke="#d29922" stroke-width="1.20" opacity="0.60" stroke-linecap="round"/>
<line x1="241.0" y1="591.1" x2="220.0" y2="589.3" stroke="#d29922" stroke-width="1.20" opacity="0.60" stroke-linecap="round"/>
<line x1="328.0" y1="475.6" x2="258.1" y2="484.5" stroke="#4f9ee0" stroke-width="2.25" opacity="0.90" stroke-linecap="round"/>
<line x1="258.1" y1="484.5" x2="228.0" y2="518.5" stroke="#3fb950" stroke-width="1.90" opacity="0.80" stroke-linecap="round"/>
<line x1="228.0" y1="518.5" x2="225.2" y2="548.5" stroke="#7bc96f" stroke-width="1.55" opacity="0.70" stroke-linecap="round"/>
<line x1="225.2" y1="548.5" x2="217.0" y2="567.4" stroke="#d29922" stroke-width="1.20" opacity="0.60" stroke-linecap="round"/>
<line x1="228.0" y1="518.5" x2="197.6" y2="524.4" stroke="#7bc96f" stroke-width="1.55" opacity="0.70" stroke-linecap="round"/>
<line x1="197.6" y1="524.4" x2="176.6" y2="528.5" stroke="#d29922" stroke-width="1.20" opacity="0.60" stroke-linecap="round"/>
<line x1="258.1" y1="484.5" x2="217.6" y2="458.7" stroke="#3fb950" stroke-width="1.90" opacity="0.80" stroke-linecap="round"/>
<line x1="217.6" y1="458.7" x2="185.5" y2="460.5" stroke="#7bc96f" stroke-width="1.55" opacity="0.70" stroke-linecap="round"/>
<line x1="185.5" y1="460.5" x2="164.5" y2="465.6" stroke="#d29922" stroke-width="1.20" opacity="0.60" stroke-linecap="round"/>
<line x1="217.6" y1="458.7" x2="204.3" y2="431.9" stroke="#7bc96f" stroke-width="1.55" opacity="0.70" stroke-linecap="round"/>
<line x1="204.3" y1="431.9" x2="186.9" y2="421.1" stroke="#d29922" stroke-width="1.20" opacity="0.60" stroke-linecap="round"/>
<line x1="204.3" y1="431.9" x2="205.4" y2="411.5" stroke="#d29922" stroke-width="1.20" opacity="0.60" stroke-linecap="round"/>
<line x1="410.0" y1="410.0" x2="324.7" y2="348.8" stroke="#58a6ff" stroke-width="2.60" opacity="1.00" stroke-linecap="round"/>
<line x1="324.7" y1="348.8" x2="254.7" y2="340.3" stroke="#4f9ee0" stroke-width="2.25" opacity="0.90" stroke-linecap="round"/>
<line x1="254.7" y1="340.3" x2="212.6" y2="356.8" stroke="#3fb950" stroke-width="1.90" opacity="0.80" stroke-linecap="round"/>
<line x1="212.6" y1="356.8" x2="193.7" y2="378.4" stroke="#7bc96f" stroke-width="1.55" opacity="0.70" stroke-linecap="round"/>
<line x1="193.7" y1="378.4" x2="191.2" y2="397.1" stroke="#d29922" stroke-width="1.20" opacity="0.60" stroke-linecap="round"/>
<line x1="193.7" y1="378.4" x2="175.0" y2="383.5" stroke="#d29922" stroke-width="1.20" opacity="0.60" stroke-linecap="round"/>
<line x1="212.6" y1="356.8" x2="180.5" y2="353.3" stroke="#7bc96f" stroke-width="1.55" opacity="0.70" stroke-linecap="round"/>
<line x1="180.5" y1="353.3" x2="159.9" y2="350.6" stroke="#d29922" stroke-width="1.20" opacity="0.60" stroke-linecap="round"/>
<line x1="254.7" y1="340.3" x2="214.7" y2="319.6" stroke="#3fb950" stroke-width="1.90" opacity="0.80" stroke-linecap="round"/>
<line x1="214.7" y1="319.6" x2="184.2" y2="323.9" stroke="#7bc96f" stroke-width="1.55" opacity="0.70" stroke-linecap="round"/>
<line x1="184.2" y1="323.9" x2="164.5" y2="321.9" stroke="#d29922" stroke-width="1.20" opacity="0.60" stroke-linecap="round"/>
<line x1="214.7" y1="319.6" x2="199.8" y2="291.7" stroke="#7bc96f" stroke-width="1.55" opacity="0.70" stroke-linecap="round"/>
<line x1="199.8" y1="291.7" x2="180.6" y2="282.6" stroke="#d29922" stroke-width="1.20" opacity="0.60" stroke-linecap="round"/>
<line x1="199.8" y1="291.7" x2="201.7" y2="271.2" stroke="#d29922" stroke-width="1.20" opacity="0.60" stroke-linecap="round"/>
<line x1="324.7" y1="348.8" x2="286.6" y2="284.3" stroke="#4f9ee0" stroke-width="2.25" opacity="0.90" stroke-linecap="round"/>
<line x1="286.6" y1="284.3" x2="236.2" y2="265.4" stroke="#3fb950" stroke-width="1.90" opacity="0.80" stroke-linecap="round"/>
<line x1="236.2" y1="265.4" x2="200.6" y2="275.1" stroke="#7bc96f" stroke-width="1.55" opacity="0.70" stroke-linecap="round"/>
<line x1="200.6" y1="275.1" x2="175.3" y2="276.1" stroke="#d29922" stroke-width="1.20" opacity="0.60" stroke-linecap="round"/>
<line x1="236.2" y1="265.4" x2="216.2" y2="232.4" stroke="#7bc96f" stroke-width="1.55" opacity="0.70" stroke-linecap="round"/>
<line x1="216.2" y1="232.4" x2="194.4" y2="219.5" stroke="#d29922" stroke-width="1.20" opacity="0.60" stroke-linecap="round"/>
<line x1="216.2" y1="232.4" x2="212.7" y2="206.5" stroke="#d29922" stroke-width="1.20" opacity="0.60" stroke-linecap="round"/>
<line x1="286.6" y1="284.3" x2="289.7" y2="237.6" stroke="#3fb950" stroke-width="1.90" opacity="0.80" stroke-linecap="round"/>
<line x1="289.7" y1="237.6" x2="276.0" y2="210.6" stroke="#7bc96f" stroke-width="1.55" opacity="0.70" stroke-linecap="round"/>
<line x1="276.0" y1="210.6" x2="259.5" y2="197.5" stroke="#d29922" stroke-width="1.20" opacity="0.60" stroke-linecap="round"/>
<line x1="276.0" y1="210.6" x2="276.1" y2="191.7" stroke="#d29922" stroke-width="1.20" opacity="0.60" stroke-linecap="round"/>
<line x1="289.7" y1="237.6" x2="309.8" y2="212.2" stroke="#7bc96f" stroke-width="1.55" opacity="0.70" stroke-linecap="round"/>
<line x1="309.8" y1="212.2" x2="310.6" y2="190.6" stroke="#d29922" stroke-width="1.20" opacity="0.60" stroke-linecap="round"/>
<line x1="309.8" y1="212.2" x2="329.4" y2="205.0" stroke="#d29922" stroke-width="1.20" opacity="0.60" stroke-linecap="round"/>
<line x1="410.0" y1="410.0" x2="439.7" y2="309.3" stroke="#58a6ff" stroke-width="2.60" opacity="1.00" stroke-linecap="round"/>
<line x1="439.7" y1="309.3" x2="427.8" y2="235.0" stroke="#4f9ee0" stroke-width="2.25" opacity="0.90" stroke-linecap="round"/>
<line x1="427.8" y1="235.0" x2="392.7" y2="198.4" stroke="#3fb950" stroke-width="1.90" opacity="0.80" stroke-linecap="round"/>
<line x1="392.7" y1="198.4" x2="360.1" y2="187.2" stroke="#7bc96f" stroke-width="1.55" opacity="0.70" stroke-linecap="round"/>
<line x1="360.1" y1="187.2" x2="339.5" y2="193.3" stroke="#d29922" stroke-width="1.20" opacity="0.60" stroke-linecap="round"/>
<line x1="360.1" y1="187.2" x2="345.7" y2="169.6" stroke="#d29922" stroke-width="1.20" opacity="0.60" stroke-linecap="round"/>
<line x1="392.7" y1="198.4" x2="381.7" y2="163.8" stroke="#7bc96f" stroke-width="1.55" opacity="0.70" stroke-linecap="round"/>
<line x1="381.7" y1="163.8" x2="365.4" y2="148.3" stroke="#d29922" stroke-width="1.20" opacity="0.60" stroke-linecap="round"/>
<line x1="381.7" y1="163.8" x2="389.0" y2="141.4" stroke="#d29922" stroke-width="1.20" opacity="0.60" stroke-linecap="round"/>
<line x1="427.8" y1="235.0" x2="450.4" y2="192.4" stroke="#3fb950" stroke-width="1.90" opacity="0.80" stroke-linecap="round"/>
<line x1="450.4" y1="192.4" x2="443.9" y2="159.9" stroke="#7bc96f" stroke-width="1.55" opacity="0.70" stroke-linecap="round"/>
<line x1="443.9" y1="159.9" x2="426.0" y2="146.7" stroke="#d29922" stroke-width="1.20" opacity="0.60" stroke-linecap="round"/>
<line x1="443.9" y1="159.9" x2="454.2" y2="141.7" stroke="#d29922" stroke-width="1.20" opacity="0.60" stroke-linecap="round"/>
<line x1="450.4" y1="192.4" x2="477.2" y2="176.6" stroke="#7bc96f" stroke-width="1.55" opacity="0.70" stroke-linecap="round"/>
<line x1="477.2" y1="176.6" x2="496.8" y2="169.2" stroke="#d29922" stroke-width="1.20" opacity="0.60" stroke-linecap="round"/>
<line x1="439.7" y1="309.3" x2="486.0" y2="261.1" stroke="#4f9ee0" stroke-width="2.25" opacity="0.90" stroke-linecap="round"/>
<line x1="486.0" y1="261.1" x2="495.3" y2="214.3" stroke="#3fb950" stroke-width="1.90" opacity="0.80" stroke-linecap="round"/>
<line x1="495.3" y1="214.3" x2="483.4" y2="187.0" stroke="#7bc96f" stroke-width="1.55" opacity="0.70" stroke-linecap="round"/>
<line x1="483.4" y1="187.0" x2="480.2" y2="168.3" stroke="#d29922" stroke-width="1.20" opacity="0.60" stroke-linecap="round"/>
<line x1="495.3" y1="214.3" x2="521.2" y2="194.7" stroke="#7bc96f" stroke-width="1.55" opacity="0.70" stroke-linecap="round"/>
<line x1="521.2" y1="194.7" x2="536.8" y2="177.7" stroke="#d29922" stroke-width="1.20" opacity="0.60" stroke-linecap="round"/>
<line x1="486.0" y1="261.1" x2="529.1" y2="250.1" stroke="#3fb950" stroke-width="1.90" opacity="0.80" stroke-linecap="round"/>
<line x1="529.1" y1="250.1" x2="545.8" y2="227.2" stroke="#7bc96f" stroke-width="1.55" opacity="0.70" stroke-linecap="round"/>
<line x1="545.8" y1="227.2" x2="550.1" y2="208.3" stroke="#d29922" stroke-width="1.20" opacity="0.60" stroke-linecap="round"/>
<line x1="545.8" y1="227.2" x2="562.4" y2="217.2" stroke="#d29922" stroke-width="1.20" opacity="0.60" stroke-linecap="round"/>
<line x1="529.1" y1="250.1" x2="556.2" y2="263.5" stroke="#7bc96f" stroke-width="1.55" opacity="0.70" stroke-linecap="round"/>
<line x1="556.2" y1="263.5" x2="577.2" y2="259.3" stroke="#d29922" stroke-width="1.20" opacity="0.60" stroke-linecap="round"/>
<line x1="556.2" y1="263.5" x2="566.2" y2="280.5" stroke="#d29922" stroke-width="1.20" opacity="0.60" stroke-linecap="round"/>
<circle cx="514.9" cy="413.9" r="2.60" fill="#58a6ff" opacity="0.85"/>
<circle cx="572.3" cy="378.6" r="2.30" fill="#4f9ee0" opacity="0.85"/>
<circle cx="596.3" cy="340.5" r="2.00" fill="#3fb950" opacity="0.85"/>
<circle cx="598.3" cy="311.7" r="1.70" fill="#7bc96f" opacity="0.85"/>
<circle cx="624.6" cy="326.3" r="1.70" fill="#7bc96f" opacity="0.85"/>
<circle cx="617.5" cy="373.2" r="2.00" fill="#3fb950" opacity="0.85"/>
<circle cx="637.4" cy="351.9" r="1.70" fill="#7bc96f" opacity="0.85"/>
<circle cx="644.3" cy="391.2" r="1.70" fill="#7bc96f" opacity="0.85"/>
<circle cx="580.1" cy="451.1" r="2.30" fill="#4f9ee0" opacity="0.85"/>
<circle cx="627.9" cy="456.4" r="2.00" fill="#3fb950" opacity="0.85"/>
<circle cx="660.3" cy="444.9" r="1.70" fill="#7bc96f" opacity="0.85"/>
<circle cx="653.4" cy="476.9" r="1.70" fill="#7bc96f" opacity="0.85"/>
<circle cx="606.4" cy="494.3" r="2.00" fill="#3fb950" opacity="0.85"/>
<circle cx="637.3" cy="506.1" r="1.70" fill="#7bc96f" opacity="0.85"/>
<circle cx="603.3" cy="527.8" r="1.70" fill="#7bc96f" opacity="0.85"/>
<circle cx="443.3" cy="509.6" r="2.60" fill="#58a6ff" opacity="0.85"/>
<circle cx="507.4" cy="549.3" r="2.30" fill="#4f9ee0" opacity="0.85"/>
<circle cx="561.5" cy="549.4" r="2.00" fill="#3fb950" opacity="0.85"/>
<circle cx="590.6" cy="531.7" r="1.70" fill="#7bc96f" opacity="0.85"/>
<circle cx="593.5" cy="569.0" r="1.70" fill="#7bc96f" opacity="0.85"/>
<circle cx="529.7" cy="593.6" r="2.00" fill="#3fb950" opacity="0.85"/>
<circle cx="557.7" cy="608.0" r="1.70" fill="#7bc96f" opacity="0.85"/>
<circle cx="521.7" cy="623.9" r="1.70" fill="#7bc96f" opacity="0.85"/>
<circle cx="418.4" cy="570.4" r="2.30" fill="#4f9ee0" opacity="0.85"/>
<circle cx="419.0" cy="616.9" r="2.00" fill="#3fb950" opacity="0.85"/>
<circle cx="432.8" cy="643.4" r="1.70" fill="#7bc96f" opacity="0.85"/>
<circle cx="402.6" cy="645.9" r="1.70" fill="#7bc96f" opacity="0.85"/>
<circle cx="384.7" cy="597.7" r="2.00" fill="#3fb950" opacity="0.85"/>
<circle cx="371.5" cy="624.1" r="1.70" fill="#7bc96f" opacity="0.85"/>
<circle cx="358.5" cy="603.8" r="1.70" fill="#7bc96f" opacity="0.85"/>
<circle cx="328.0" cy="475.6" r="2.60" fill="#58a6ff" opacity="0.85"/>
<circle cx="303.9" cy="544.4" r="2.30" fill="#4f9ee0" opacity="0.85"/>
<circle cx="314.4" cy="594.3" r="2.00" fill="#3fb950" opacity="0.85"/>
<circle cx="333.2" cy="623.3" r="1.70" fill="#7bc96f" opacity="0.85"/>
<circle cx="308.3" cy="629.9" r="1.70" fill="#7bc96f" opacity="0.85"/>
<circle cx="271.4" cy="579.3" r="2.00" fill="#3fb950" opacity="0.85"/>
<circle cx="262.0" cy="607.6" r="1.70" fill="#7bc96f" opacity="0.85"/>
<circle cx="241.0" cy="591.1" r="1.70" fill="#7bc96f" opacity="0.85"/>
<circle cx="258.1" cy="484.5" r="2.30" fill="#4f9ee0" opacity="0.85"/>
<circle cx="228.0" cy="518.5" r="2.00" fill="#3fb950" opacity="0.85"/>
<circle cx="225.2" cy="548.5" r="1.70" fill="#7bc96f" opacity="0.85"/>
<circle cx="197.6" cy="524.4" r="1.70" fill="#7bc96f" opacity="0.85"/>
<circle cx="217.6" cy="458.7" r="2.00" fill="#3fb950" opacity="0.85"/>
<circle cx="185.5" cy="460.5" r="1.70" fill="#7bc96f" opacity="0.85"/>
<circle cx="204.3" cy="431.9" r="1.70" fill="#7bc96f" opacity="0.85"/>
<circle cx="324.7" cy="348.8" r="2.60" fill="#58a6ff" opacity="0.85"/>
<circle cx="254.7" cy="340.3" r="2.30" fill="#4f9ee0" opacity="0.85"/>
<circle cx="212.6" cy="356.8" r="2.00" fill="#3fb950" opacity="0.85"/>
<circle cx="193.7" cy="378.4" r="1.70" fill="#7bc96f" opacity="0.85"/>
<circle cx="180.5" cy="353.3" r="1.70" fill="#7bc96f" opacity="0.85"/>
<circle cx="214.7" cy="319.6" r="2.00" fill="#3fb950" opacity="0.85"/>
<circle cx="184.2" cy="323.9" r="1.70" fill="#7bc96f" opacity="0.85"/>
<circle cx="199.8" cy="291.7" r="1.70" fill="#7bc96f" opacity="0.85"/>
<circle cx="286.6" cy="284.3" r="2.30" fill="#4f9ee0" opacity="0.85"/>
<circle cx="236.2" cy="265.4" r="2.00" fill="#3fb950" opacity="0.85"/>
<circle cx="200.6" cy="275.1" r="1.70" fill="#7bc96f" opacity="0.85"/>
<circle cx="216.2" cy="232.4" r="1.70" fill="#7bc96f" opacity="0.85"/>
<circle cx="289.7" cy="237.6" r="2.00" fill="#3fb950" opacity="0.85"/>
<circle cx="276.0" cy="210.6" r="1.70" fill="#7bc96f" opacity="0.85"/>
<circle cx="309.8" cy="212.2" r="1.70" fill="#7bc96f" opacity="0.85"/>
<circle cx="439.7" cy="309.3" r="2.60" fill="#58a6ff" opacity="0.85"/>
<circle cx="427.8" cy="235.0" r="2.30" fill="#4f9ee0" opacity="0.85"/>
<circle cx="392.7" cy="198.4" r="2.00" fill="#3fb950" opacity="0.85"/>
<circle cx="360.1" cy="187.2" r="1.70" fill="#7bc96f" opacity="0.85"/>
<circle cx="381.7" cy="163.8" r="1.70" fill="#7bc96f" opacity="0.85"/>
<circle cx="450.4" cy="192.4" r="2.00" fill="#3fb950" opacity="0.85"/>
<circle cx="443.9" cy="159.9" r="1.70" fill="#7bc96f" opacity="0.85"/>
<circle cx="477.2" cy="176.6" r="1.70" fill="#7bc96f" opacity="0.85"/>
<circle cx="486.0" cy="261.1" r="2.30" fill="#4f9ee0" opacity="0.85"/>
<circle cx="495.3" cy="214.3" r="2.00" fill="#3fb950" opacity="0.85"/>
<circle cx="483.4" cy="187.0" r="1.70" fill="#7bc96f" opacity="0.85"/>
<circle cx="521.2" cy="194.7" r="1.70" fill="#7bc96f" opacity="0.85"/>
<circle cx="529.1" cy="250.1" r="2.00" fill="#3fb950" opacity="0.85"/>
<circle cx="545.8" cy="227.2" r="1.70" fill="#7bc96f" opacity="0.85"/>
<circle cx="556.2" cy="263.5" r="1.70" fill="#7bc96f" opacity="0.85"/>
<circle cx="591.9" cy="294.5" r="3" fill="none" stroke="#d29922" stroke-width="1" opacity="0.6"/>
<circle cx="607.3" cy="296.1" r="3" fill="none" stroke="#d29922" stroke-width="1" opacity="0.6"/>
<circle cx="636.2" cy="309.3" r="3" fill="none" stroke="#d29922" stroke-width="1" opacity="0.6"/>
<circle cx="646.7" cy="327.3" r="3" fill="none" stroke="#d29922" stroke-width="1" opacity="0.6"/>
<circle cx="645.2" cy="334.7" r="3" fill="none" stroke="#d29922" stroke-width="1" opacity="0.6"/>
<circle cx="665.3" cy="392.1" r="3" fill="none" stroke="#d29922" stroke-width="1" opacity="0.6"/>
<circle cx="655.5" cy="408.3" r="3" fill="none" stroke="#d29922" stroke-width="1" opacity="0.6"/>
<circle cx="682.0" cy="437.2" r="3" fill="none" stroke="#d29922" stroke-width="1" opacity="0.6"/>
<circle cx="674.7" cy="481.3" r="3" fill="none" stroke="#d29922" stroke-width="1" opacity="0.6"/>
<circle cx="659.9" cy="499.1" r="3" fill="none" stroke="#d29922" stroke-width="1" opacity="0.6"/>
<circle cx="659.6" cy="511.1" r="3" fill="none" stroke="#d29922" stroke-width="1" opacity="0.6"/>
<circle cx="609.2" cy="549.3" r="3" fill="none" stroke="#d29922" stroke-width="1" opacity="0.6"/>
<circle cx="591.6" cy="549.0" r="3" fill="none" stroke="#d29922" stroke-width="1" opacity="0.6"/>
<circle cx="600.0" cy="511.0" r="3" fill="none" stroke="#d29922" stroke-width="1" opacity="0.6"/>
<circle cx="614.8" cy="530.5" r="3" fill="none" stroke="#d29922" stroke-width="1" opacity="0.6"/>
<circle cx="613.6" cy="583.3" r="3" fill="none" stroke="#d29922" stroke-width="1" opacity="0.6"/>
<circle cx="578.2" cy="604.8" r="3" fill="none" stroke="#d29922" stroke-width="1" opacity="0.6"/>
<circle cx="568.7" cy="626.5" r="3" fill="none" stroke="#d29922" stroke-width="1" opacity="0.6"/>
<circle cx="525.2" cy="643.9" r="3" fill="none" stroke="#d29922" stroke-width="1" opacity="0.6"/>
<circle cx="510.8" cy="640.2" r="3" fill="none" stroke="#d29922" stroke-width="1" opacity="0.6"/>
<circle cx="447.7" cy="658.1" r="3" fill="none" stroke="#d29922" stroke-width="1" opacity="0.6"/>
<circle cx="396.7" cy="666.3" r="3" fill="none" stroke="#d29922" stroke-width="1" opacity="0.6"/>
<circle cx="373.3" cy="642.7" r="3" fill="none" stroke="#d29922" stroke-width="1" opacity="0.6"/>
<circle cx="354.4" cy="633.7" r="3" fill="none" stroke="#d29922" stroke-width="1" opacity="0.6"/>
<circle cx="341.4" cy="610.6" r="3" fill="none" stroke="#d29922" stroke-width="1" opacity="0.6"/>
<circle cx="347.5" cy="642.4" r="3" fill="none" stroke="#d29922" stroke-width="1" opacity="0.6"/>
<circle cx="296.1" cy="651.7" r="3" fill="none" stroke="#d29922" stroke-width="1" opacity="0.6"/>
<circle cx="256.2" cy="625.7" r="3" fill="none" stroke="#d29922" stroke-width="1" opacity="0.6"/>
<circle cx="226.0" cy="608.2" r="3" fill="none" stroke="#d29922" stroke-width="1" opacity="0.6"/>
<circle cx="220.0" cy="589.3" r="3" fill="none" stroke="#d29922" stroke-width="1" opacity="0.6"/>
<circle cx="217.0" cy="567.4" r="3" fill="none" stroke="#d29922" stroke-width="1" opacity="0.6"/>
<circle cx="176.6" cy="528.5" r="3" fill="none" stroke="#d29922" stroke-width="1" opacity="0.6"/>
<circle cx="164.5" cy="465.6" r="3" fill="none" stroke="#d29922" stroke-width="1" opacity="0.6"/>
<circle cx="186.9" cy="421.1" r="3" fill="none" stroke="#d29922" stroke-width="1" opacity="0.6"/>
<circle cx="205.4" cy="411.5" r="3" fill="none" stroke="#d29922" stroke-width="1" opacity="0.6"/>
<circle cx="191.2" cy="397.1" r="3" fill="none" stroke="#d29922" stroke-width="1" opacity="0.6"/>
<circle cx="175.0" cy="383.5" r="3" fill="none" stroke="#d29922" stroke-width="1" opacity="0.6"/>
<circle cx="159.9" cy="350.6" r="3" fill="none" stroke="#d29922" stroke-width="1" opacity="0.6"/>
<circle cx="164.5" cy="321.9" r="3" fill="none" stroke="#d29922" stroke-width="1" opacity="0.6"/>
<circle cx="180.6" cy="282.6" r="3" fill="none" stroke="#d29922" stroke-width="1" opacity="0.6"/>
<circle cx="201.7" cy="271.2" r="3" fill="none" stroke="#d29922" stroke-width="1" opacity="0.6"/>
<circle cx="175.3" cy="276.1" r="3" fill="none" stroke="#d29922" stroke-width="1" opacity="0.6"/>
<circle cx="194.4" cy="219.5" r="3" fill="none" stroke="#d29922" stroke-width="1" opacity="0.6"/>
<circle cx="212.7" cy="206.5" r="3" fill="none" stroke="#d29922" stroke-width="1" opacity="0.6"/>
<circle cx="259.5" cy="197.5" r="3" fill="none" stroke="#d29922" stroke-width="1" opacity="0.6"/>
<circle cx="276.1" cy="191.7" r="3" fill="none" stroke="#d29922" stroke-width="1" opacity="0.6"/>
<circle cx="310.6" cy="190.6" r="3" fill="none" stroke="#d29922" stroke-width="1" opacity="0.6"/>
<circle cx="329.4" cy="205.0" r="3" fill="none" stroke="#d29922" stroke-width="1" opacity="0.6"/>
<circle cx="339.5" cy="193.3" r="3" fill="none" stroke="#d29922" stroke-width="1" opacity="0.6"/>
<circle cx="345.7" cy="169.6" r="3" fill="none" stroke="#d29922" stroke-width="1" opacity="0.6"/>
<circle cx="365.4" cy="148.3" r="3" fill="none" stroke="#d29922" stroke-width="1" opacity="0.6"/>
<circle cx="389.0" cy="141.4" r="3" fill="none" stroke="#d29922" stroke-width="1" opacity="0.6"/>
<circle cx="426.0" cy="146.7" r="3" fill="none" stroke="#d29922" stroke-width="1" opacity="0.6"/>
<circle cx="454.2" cy="141.7" r="3" fill="none" stroke="#d29922" stroke-width="1" opacity="0.6"/>
<circle cx="496.8" cy="169.2" r="3" fill="none" stroke="#d29922" stroke-width="1" opacity="0.6"/>
<circle cx="480.2" cy="168.3" r="3" fill="none" stroke="#d29922" stroke-width="1" opacity="0.6"/>
<circle cx="536.8" cy="177.7" r="3" fill="none" stroke="#d29922" stroke-width="1" opacity="0.6"/>
<circle cx="550.1" cy="208.3" r="3" fill="none" stroke="#d29922" stroke-width="1" opacity="0.6"/>
<circle cx="562.4" cy="217.2" r="3" fill="none" stroke="#d29922" stroke-width="1" opacity="0.6"/>
<circle cx="577.2" cy="259.3" r="3" fill="none" stroke="#d29922" stroke-width="1" opacity="0.6"/>
<circle cx="566.2" cy="280.5" r="3" fill="none" stroke="#d29922" stroke-width="1" opacity="0.6"/>
<circle cx="410.0" cy="410.0" r="10" fill="#0d1117" stroke="#58a6ff" stroke-width="2"/>
<circle cx="410.0" cy="410.0" r="4" fill="#58a6ff"/>
<circle r="2.4" fill="#7ee787"><animateMotion dur="3.71s" begin="1.28s" repeatCount="indefinite" path="M598.3,311.7 L607.3,296.1"/></circle>
<circle r="2.4" fill="#f2cc60"><animateMotion dur="3.44s" begin="1.97s" repeatCount="indefinite" path="M371.5,624.1 L354.4,633.7"/></circle>
<circle r="2.4" fill="#79c0ff"><animateMotion dur="2.94s" begin="0.22s" repeatCount="indefinite" path="M653.4,476.9 L659.9,499.1"/></circle>
<circle r="2.4" fill="#7ee787"><animateMotion dur="3.46s" begin="2.01s" repeatCount="indefinite" path="M606.4,494.3 L637.3,506.1"/></circle>
<circle r="2.4" fill="#f2cc60"><animateMotion dur="3.52s" begin="1.7s" repeatCount="indefinite" path="M606.4,494.3 L603.3,527.8"/></circle>
<circle r="2.4" fill="#79c0ff"><animateMotion dur="3.38s" begin="1.19s" repeatCount="indefinite" path="M598.3,311.7 L591.9,294.5"/></circle>
<circle r="2.4" fill="#7ee787"><animateMotion dur="3.34s" begin="1.44s" repeatCount="indefinite" path="M627.9,456.4 L660.3,444.9"/></circle>
<text x="806" y="806" text-anchor="end" font-size="9" fill="#484f58" letter-spacing="1">// circuit_bloom.py — seed:20260717 — spokes:5 — regenerated daily</text>
</svg>