<svg viewBox="0 0 820 820" width="820" height="820" xmlns="http://www.w3.org/2000/svg" font-family="'Fira Code',monospace">
<defs>
<pattern id="g2" width="22" height="22" patternUnits="userSpaceOnUse">
<path d="M 22 0 L 0 0 0 22" fill="none" stroke="#30363d" stroke-width="0.4" opacity="0.3"/>
</pattern>
<radialGradient id="glow" cx="50%" cy="50%" r="50%">
<stop offset="0%" stop-color="#58a6ff" stop-opacity="0.35"/>
<stop offset="100%" stop-color="#58a6ff" stop-opacity="0"/>
</radialGradient>
</defs>
<rect x="0" y="0" width="820" height="820" fill="#0d1117"/>
<rect x="0" y="0" width="820" height="820" fill="url(#g2)"/>
<circle cx="410.0" cy="410.0" r="230" fill="url(#glow)"/>
<line x1="410.0" y1="410.0" x2="515.0" y2="409.5" stroke="#58a6ff" stroke-width="2.60" opacity="1.00" stroke-linecap="round"/>
<line x1="515.0" y1="409.5" x2="573.6" y2="379.7" stroke="#4f9ee0" stroke-width="2.25" opacity="0.90" stroke-linecap="round"/>
<line x1="573.6" y1="379.7" x2="590.2" y2="338.2" stroke="#3fb950" stroke-width="1.90" opacity="0.80" stroke-linecap="round"/>
<line x1="590.2" y1="338.2" x2="588.7" y2="306.1" stroke="#7bc96f" stroke-width="1.55" opacity="0.70" stroke-linecap="round"/>
<line x1="588.7" y1="306.1" x2="588.3" y2="284.4" stroke="#d29922" stroke-width="1.20" opacity="0.60" stroke-linecap="round"/>
<line x1="590.2" y1="338.2" x2="613.8" y2="316.9" stroke="#7bc96f" stroke-width="1.55" opacity="0.70" stroke-linecap="round"/>
<line x1="613.8" y1="316.9" x2="628.0" y2="299.5" stroke="#d29922" stroke-width="1.20" opacity="0.60" stroke-linecap="round"/>
<line x1="573.6" y1="379.7" x2="618.8" y2="392.7" stroke="#3fb950" stroke-width="1.90" opacity="0.80" stroke-linecap="round"/>
<line x1="618.8" y1="392.7" x2="649.7" y2="384.2" stroke="#7bc96f" stroke-width="1.55" opacity="0.70" stroke-linecap="round"/>
<line x1="649.7" y1="384.2" x2="665.9" y2="371.7" stroke="#d29922" stroke-width="1.20" opacity="0.60" stroke-linecap="round"/>
<line x1="649.7" y1="384.2" x2="671.5" y2="387.6" stroke="#d29922" stroke-width="1.20" opacity="0.60" stroke-linecap="round"/>
<line x1="618.8" y1="392.7" x2="641.5" y2="413.0" stroke="#7bc96f" stroke-width="1.55" opacity="0.70" stroke-linecap="round"/>
<line x1="641.5" y1="413.0" x2="661.9" y2="415.9" stroke="#d29922" stroke-width="1.20" opacity="0.60" stroke-linecap="round"/>
<line x1="641.5" y1="413.0" x2="647.4" y2="432.7" stroke="#d29922" stroke-width="1.20" opacity="0.60" stroke-linecap="round"/>
<line x1="515.0" y1="409.5" x2="576.8" y2="443.8" stroke="#4f9ee0" stroke-width="2.25" opacity="0.90" stroke-linecap="round"/>
<line x1="576.8" y1="443.8" x2="627.1" y2="450.5" stroke="#3fb950" stroke-width="1.90" opacity="0.80" stroke-linecap="round"/>
<line x1="627.1" y1="450.5" x2="660.1" y2="439.1" stroke="#7bc96f" stroke-width="1.55" opacity="0.70" stroke-linecap="round"/>
<line x1="660.1" y1="439.1" x2="674.3" y2="420.2" stroke="#d29922" stroke-width="1.20" opacity="0.60" stroke-linecap="round"/>
<line x1="660.1" y1="439.1" x2="683.6" y2="445.0" stroke="#d29922" stroke-width="1.20" opacity="0.60" stroke-linecap="round"/>
<line x1="627.1" y1="450.5" x2="653.6" y2="471.2" stroke="#7bc96f" stroke-width="1.55" opacity="0.70" stroke-linecap="round"/>
<line x1="653.6" y1="471.2" x2="673.6" y2="480.0" stroke="#d29922" stroke-width="1.20" opacity="0.60" stroke-linecap="round"/>
<line x1="576.8" y1="443.8" x2="606.1" y2="480.6" stroke="#3fb950" stroke-width="1.90" opacity="0.80" stroke-linecap="round"/>
<line x1="606.1" y1="480.6" x2="633.6" y2="492.7" stroke="#7bc96f" stroke-width="1.55" opacity="0.70" stroke-linecap="round"/>
<line x1="633.6" y1="492.7" x2="649.2" y2="506.6" stroke="#d29922" stroke-width="1.20" opacity="0.60" stroke-linecap="round"/>
<line x1="606.1" y1="480.6" x2="613.3" y2="511.6" stroke="#7bc96f" stroke-width="1.55" opacity="0.70" stroke-linecap="round"/>
<line x1="613.3" y1="511.6" x2="613.1" y2="532.4" stroke="#d29922" stroke-width="1.20" opacity="0.60" stroke-linecap="round"/>
<line x1="410.0" y1="410.0" x2="460.2" y2="502.2" stroke="#58a6ff" stroke-width="2.60" opacity="1.00" stroke-linecap="round"/>
<line x1="460.2" y1="502.2" x2="520.6" y2="527.0" stroke="#4f9ee0" stroke-width="2.25" opacity="0.90" stroke-linecap="round"/>
<line x1="520.6" y1="527.0" x2="560.9" y2="523.5" stroke="#3fb950" stroke-width="1.90" opacity="0.80" stroke-linecap="round"/>
<line x1="560.9" y1="523.5" x2="580.1" y2="506.1" stroke="#7bc96f" stroke-width="1.55" opacity="0.70" stroke-linecap="round"/>
<line x1="580.1" y1="506.1" x2="585.3" y2="490.5" stroke="#d29922" stroke-width="1.20" opacity="0.60" stroke-linecap="round"/>
<line x1="580.1" y1="506.1" x2="596.7" y2="502.5" stroke="#d29922" stroke-width="1.20" opacity="0.60" stroke-linecap="round"/>
<line x1="560.9" y1="523.5" x2="584.1" y2="538.1" stroke="#7bc96f" stroke-width="1.55" opacity="0.70" stroke-linecap="round"/>
<line x1="584.1" y1="538.1" x2="597.4" y2="549.6" stroke="#d29922" stroke-width="1.20" opacity="0.60" stroke-linecap="round"/>
<line x1="520.6" y1="527.0" x2="547.3" y2="558.2" stroke="#3fb950" stroke-width="1.90" opacity="0.80" stroke-linecap="round"/>
<line x1="547.3" y1="558.2" x2="574.1" y2="562.0" stroke="#7bc96f" stroke-width="1.55" opacity="0.70" stroke-linecap="round"/>
<line x1="574.1" y1="562.0" x2="592.3" y2="561.5" stroke="#d29922" stroke-width="1.20" opacity="0.60" stroke-linecap="round"/>
<line x1="547.3" y1="558.2" x2="548.2" y2="586.1" stroke="#7bc96f" stroke-width="1.55" opacity="0.70" stroke-linecap="round"/>
<line x1="548.2" y1="586.1" x2="560.9" y2="600.1" stroke="#d29922" stroke-width="1.20" opacity="0.60" stroke-linecap="round"/>
<line x1="548.2" y1="586.1" x2="537.4" y2="600.8" stroke="#d29922" stroke-width="1.20" opacity="0.60" stroke-linecap="round"/>
<line x1="460.2" y1="502.2" x2="448.8" y2="570.0" stroke="#4f9ee0" stroke-width="2.25" opacity="0.90" stroke-linecap="round"/>
<line x1="448.8" y1="570.0" x2="472.1" y2="609.0" stroke="#3fb950" stroke-width="1.90" opacity="0.80" stroke-linecap="round"/>
<line x1="472.1" y1="609.0" x2="500.7" y2="621.4" stroke="#7bc96f" stroke-width="1.55" opacity="0.70" stroke-linecap="round"/>
<line x1="500.7" y1="621.4" x2="517.5" y2="635.0" stroke="#d29922" stroke-width="1.20" opacity="0.60" stroke-linecap="round"/>
<line x1="472.1" y1="609.0" x2="470.1" y2="639.5" stroke="#7bc96f" stroke-width="1.55" opacity="0.70" stroke-linecap="round"/>
<line x1="470.1" y1="639.5" x2="465.1" y2="660.0" stroke="#d29922" stroke-width="1.20" opacity="0.60" stroke-linecap="round"/>
<line x1="448.8" y1="570.0" x2="414.6" y2="600.6" stroke="#3fb950" stroke-width="1.90" opacity="0.80" stroke-linecap="round"/>
<line x1="414.6" y1="600.6" x2="401.1" y2="629.5" stroke="#7bc96f" stroke-width="1.55" opacity="0.70" stroke-linecap="round"/>
<line x1="401.1" y1="629.5" x2="404.9" y2="649.4" stroke="#d29922" stroke-width="1.20" opacity="0.60" stroke-linecap="round"/>
<line x1="401.1" y1="629.5" x2="383.5" y2="641.0" stroke="#d29922" stroke-width="1.20" opacity="0.60" stroke-linecap="round"/>
<line x1="414.6" y1="600.6" x2="386.6" y2="608.4" stroke="#7bc96f" stroke-width="1.55" opacity="0.70" stroke-linecap="round"/>
<line x1="386.6" y1="608.4" x2="371.1" y2="620.8" stroke="#d29922" stroke-width="1.20" opacity="0.60" stroke-linecap="round"/>
<line x1="386.6" y1="608.4" x2="368.7" y2="605.6" stroke="#d29922" stroke-width="1.20" opacity="0.60" stroke-linecap="round"/>
<line x1="410.0" y1="410.0" x2="363.8" y2="504.3" stroke="#58a6ff" stroke-width="2.60" opacity="1.00" stroke-linecap="round"/>
<line x1="363.8" y1="504.3" x2="365.7" y2="570.6" stroke="#4f9ee0" stroke-width="2.25" opacity="0.90" stroke-linecap="round"/>
<line x1="365.7" y1="570.6" x2="389.6" y2="609.0" stroke="#3fb950" stroke-width="1.90" opacity="0.80" stroke-linecap="round"/>
<line x1="389.6" y1="609.0" x2="414.5" y2="625.2" stroke="#7bc96f" stroke-width="1.55" opacity="0.70" stroke-linecap="round"/>
<line x1="414.5" y1="625.2" x2="427.4" y2="640.1" stroke="#d29922" stroke-width="1.20" opacity="0.60" stroke-linecap="round"/>
<line x1="389.6" y1="609.0" x2="392.1" y2="640.7" stroke="#7bc96f" stroke-width="1.55" opacity="0.70" stroke-linecap="round"/>
<line x1="392.1" y1="640.7" x2="405.9" y2="656.6" stroke="#d29922" stroke-width="1.20" opacity="0.60" stroke-linecap="round"/>
<line x1="392.1" y1="640.7" x2="380.1" y2="658.1" stroke="#d29922" stroke-width="1.20" opacity="0.60" stroke-linecap="round"/>
<line x1="365.7" y1="570.6" x2="344.9" y2="612.7" stroke="#3fb950" stroke-width="1.90" opacity="0.80" stroke-linecap="round"/>
<line x1="344.9" y1="612.7" x2="348.6" y2="644.3" stroke="#7bc96f" stroke-width="1.55" opacity="0.70" stroke-linecap="round"/>
<line x1="348.6" y1="644.3" x2="354.6" y2="664.7" stroke="#d29922" stroke-width="1.20" opacity="0.60" stroke-linecap="round"/>
<line x1="344.9" y1="612.7" x2="316.8" y2="631.4" stroke="#7bc96f" stroke-width="1.55" opacity="0.70" stroke-linecap="round"/>
<line x1="316.8" y1="631.4" x2="301.2" y2="648.4" stroke="#d29922" stroke-width="1.20" opacity="0.60" stroke-linecap="round"/>
<line x1="363.8" y1="504.3" x2="308.0" y2="545.2" stroke="#4f9ee0" stroke-width="2.25" opacity="0.90" stroke-linecap="round"/>
<line x1="308.0" y1="545.2" x2="292.1" y2="585.5" stroke="#3fb950" stroke-width="1.90" opacity="0.80" stroke-linecap="round"/>
<line x1="292.1" y1="585.5" x2="301.9" y2="612.3" stroke="#7bc96f" stroke-width="1.55" opacity="0.70" stroke-linecap="round"/>
<line x1="301.9" y1="612.3" x2="315.5" y2="626.4" stroke="#d29922" stroke-width="1.20" opacity="0.60" stroke-linecap="round"/>
<line x1="301.9" y1="612.3" x2="300.8" y2="632.0" stroke="#d29922" stroke-width="1.20" opacity="0.60" stroke-linecap="round"/>
<line x1="292.1" y1="585.5" x2="266.6" y2="602.4" stroke="#7bc96f" stroke-width="1.55" opacity="0.70" stroke-linecap="round"/>
<line x1="266.6" y1="602.4" x2="255.4" y2="620.6" stroke="#d29922" stroke-width="1.20" opacity="0.60" stroke-linecap="round"/>
<line x1="266.6" y1="602.4" x2="247.0" y2="603.1" stroke="#d29922" stroke-width="1.20" opacity="0.60" stroke-linecap="round"/>
<line x1="308.0" y1="545.2" x2="265.3" y2="551.1" stroke="#3fb950" stroke-width="1.90" opacity="0.80" stroke-linecap="round"/>
<line x1="265.3" y1="551.1" x2="244.6" y2="572.9" stroke="#7bc96f" stroke-width="1.55" opacity="0.70" stroke-linecap="round"/>
<line x1="244.6" y1="572.9" x2="240.6" y2="592.9" stroke="#d29922" stroke-width="1.20" opacity="0.60" stroke-linecap="round"/>
<line x1="244.6" y1="572.9" x2="225.6" y2="579.2" stroke="#d29922" stroke-width="1.20" opacity="0.60" stroke-linecap="round"/>
<line x1="265.3" y1="551.1" x2="239.9" y2="536.1" stroke="#7bc96f" stroke-width="1.55" opacity="0.70" stroke-linecap="round"/>
<line x1="239.9" y1="536.1" x2="218.7" y2="536.1" stroke="#d29922" stroke-width="1.20" opacity="0.60" stroke-linecap="round"/>
<line x1="239.9" y1="536.1" x2="230.4" y2="517.2" stroke="#d29922" stroke-width="1.20" opacity="0.60" stroke-linecap="round"/>
<line x1="410.0" y1="410.0" x2="305.1" y2="404.9" stroke="#58a6ff" stroke-width="2.60" opacity="1.00" stroke-linecap="round"/>
<line x1="305.1" y1="404.9" x2="242.6" y2="447.4" stroke="#4f9ee0" stroke-width="2.25" opacity="0.90" stroke-linecap="round"/>
<line x1="242.6" y1="447.4" x2="218.3" y2="495.6" stroke="#3fb950" stroke-width="1.90" opacity="0.80" stroke-linecap="round"/>
<line x1="218.3" y1="495.6" x2="219.0" y2="532.9" stroke="#7bc96f" stroke-width="1.55" opacity="0.70" stroke-linecap="round"/>
<line x1="219.0" y1="532.9" x2="233.7" y2="552.4" stroke="#d29922" stroke-width="1.20" opacity="0.60" stroke-linecap="round"/>
<line x1="219.0" y1="532.9" x2="204.5" y2="554.5" stroke="#d29922" stroke-width="1.20" opacity="0.60" stroke-linecap="round"/>
<line x1="218.3" y1="495.6" x2="186.7" y2="516.5" stroke="#7bc96f" stroke-width="1.55" opacity="0.70" stroke-linecap="round"/>
<line x1="186.7" y1="516.5" x2="172.9" y2="538.9" stroke="#d29922" stroke-width="1.20" opacity="0.60" stroke-linecap="round"/>
<line x1="186.7" y1="516.5" x2="159.6" y2="519.6" stroke="#d29922" stroke-width="1.20" opacity="0.60" stroke-linecap="round"/>
<line x1="242.6" y1="447.4" x2="191.6" y2="450.0" stroke="#3fb950" stroke-width="1.90" opacity="0.80" stroke-linecap="round"/>
<line x1="191.6" y1="450.0" x2="167.4" y2="472.6" stroke="#7bc96f" stroke-width="1.55" opacity="0.70" stroke-linecap="round"/>
<line x1="167.4" y1="472.6" x2="160.6" y2="492.8" stroke="#d29922" stroke-width="1.20" opacity="0.60" stroke-linecap="round"/>
<line x1="167.4" y1="472.6" x2="146.1" y2="477.7" stroke="#d29922" stroke-width="1.20" opacity="0.60" stroke-linecap="round"/>
<line x1="191.6" y1="450.0" x2="162.6" y2="432.0" stroke="#7bc96f" stroke-width="1.55" opacity="0.70" stroke-linecap="round"/>
<line x1="162.6" y1="432.0" x2="141.3" y2="431.3" stroke="#d29922" stroke-width="1.20" opacity="0.60" stroke-linecap="round"/>
<line x1="162.6" y1="432.0" x2="151.0" y2="411.4" stroke="#d29922" stroke-width="1.20" opacity="0.60" stroke-linecap="round"/>
<line x1="305.1" y1="404.9" x2="244.4" y2="362.1" stroke="#4f9ee0" stroke-width="2.25" opacity="0.90" stroke-linecap="round"/>
<line x1="244.4" y1="362.1" x2="194.1" y2="359.9" stroke="#3fb950" stroke-width="1.90" opacity="0.80" stroke-linecap="round"/>
<line x1="194.1" y1="359.9" x2="166.8" y2="376.1" stroke="#7bc96f" stroke-width="1.55" opacity="0.70" stroke-linecap="round"/>
<line x1="166.8" y1="376.1" x2="153.4" y2="391.7" stroke="#d29922" stroke-width="1.20" opacity="0.60" stroke-linecap="round"/>
<line x1="194.1" y1="359.9" x2="164.0" y2="340.5" stroke="#7bc96f" stroke-width="1.55" opacity="0.70" stroke-linecap="round"/>
<line x1="164.0" y1="340.5" x2="143.5" y2="327.8" stroke="#d29922" stroke-width="1.20" opacity="0.60" stroke-linecap="round"/>
<line x1="244.4" y1="362.1" x2="220.3" y2="316.5" stroke="#3fb950" stroke-width="1.90" opacity="0.80" stroke-linecap="round"/>
<line x1="220.3" y1="316.5" x2="190.4" y2="297.1" stroke="#7bc96f" stroke-width="1.55" opacity="0.70" stroke-linecap="round"/>
<line x1="190.4" y1="297.1" x2="166.9" y2="300.5" stroke="#d29922" stroke-width="1.20" opacity="0.60" stroke-linecap="round"/>
<line x1="190.4" y1="297.1" x2="182.5" y2="272.9" stroke="#d29922" stroke-width="1.20" opacity="0.60" stroke-linecap="round"/>
<line x1="220.3" y1="316.5" x2="220.2" y2="281.6" stroke="#7bc96f" stroke-width="1.55" opacity="0.70" stroke-linecap="round"/>
<line x1="220.2" y1="281.6" x2="222.6" y2="258.9" stroke="#d29922" stroke-width="1.20" opacity="0.60" stroke-linecap="round"/>
<line x1="410.0" y1="410.0" x2="363.0" y2="316.1" stroke="#58a6ff" stroke-width="2.60" opacity="1.00" stroke-linecap="round"/>
<line x1="363.0" y1="316.1" x2="298.7" y2="283.5" stroke="#4f9ee0" stroke-width="2.25" opacity="0.90" stroke-linecap="round"/>
<line x1="298.7" y1="283.5" x2="251.6" y2="289.0" stroke="#3fb950" stroke-width="1.90" opacity="0.80" stroke-linecap="round"/>
<line x1="251.6" y1="289.0" x2="226.9" y2="307.9" stroke="#7bc96f" stroke-width="1.55" opacity="0.70" stroke-linecap="round"/>
<line x1="226.9" y1="307.9" x2="209.2" y2="319.0" stroke="#d29922" stroke-width="1.20" opacity="0.60" stroke-linecap="round"/>
<line x1="251.6" y1="289.0" x2="221.4" y2="273.5" stroke="#7bc96f" stroke-width="1.55" opacity="0.70" stroke-linecap="round"/>
<line x1="221.4" y1="273.5" x2="204.5" y2="258.3" stroke="#d29922" stroke-width="1.20" opacity="0.60" stroke-linecap="round"/>
<line x1="298.7" y1="283.5" x2="275.6" y2="240.9" stroke="#3fb950" stroke-width="1.90" opacity="0.80" stroke-linecap="round"/>
<line x1="275.6" y1="240.9" x2="243.6" y2="229.2" stroke="#7bc96f" stroke-width="1.55" opacity="0.70" stroke-linecap="round"/>
<line x1="243.6" y1="229.2" x2="221.5" y2="228.1" stroke="#d29922" stroke-width="1.20" opacity="0.60" stroke-linecap="round"/>
<line x1="275.6" y1="240.9" x2="282.7" y2="208.7" stroke="#7bc96f" stroke-width="1.55" opacity="0.70" stroke-linecap="round"/>
<line x1="282.7" y1="208.7" x2="289.8" y2="186.5" stroke="#d29922" stroke-width="1.20" opacity="0.60" stroke-linecap="round"/>
<line x1="363.0" y1="316.1" x2="374.7" y2="250.5" stroke="#4f9ee0" stroke-width="2.25" opacity="0.90" stroke-linecap="round"/>
<line x1="374.7" y1="250.5" x2="353.6" y2="211.9" stroke="#3fb950" stroke-width="1.90" opacity="0.80" stroke-linecap="round"/>
<line x1="353.6" y1="211.9" x2="332.0" y2="194.5" stroke="#7bc96f" stroke-width="1.55" opacity="0.70" stroke-linecap="round"/>
<line x1="332.0" y1="194.5" x2="313.3" y2="193.2" stroke="#d29922" stroke-width="1.20" opacity="0.60" stroke-linecap="round"/>
<line x1="332.0" y1="194.5" x2="327.4" y2="177.7" stroke="#d29922" stroke-width="1.20" opacity="0.60" stroke-linecap="round"/>
<line x1="353.6" y1="211.9" x2="353.8" y2="181.0" stroke="#7bc96f" stroke-width="1.55" opacity="0.70" stroke-linecap="round"/>
<line x1="353.8" y1="181.0" x2="342.6" y2="162.3" stroke="#d29922" stroke-width="1.20" opacity="0.60" stroke-linecap="round"/>
<line x1="353.8" y1="181.0" x2="366.2" y2="163.6" stroke="#d29922" stroke-width="1.20" opacity="0.60" stroke-linecap="round"/>
<line x1="374.7" y1="250.5" x2="404.5" y2="220.5" stroke="#3fb950" stroke-width="1.90" opacity="0.80" stroke-linecap="round"/>
<line x1="404.5" y1="220.5" x2="412.8" y2="192.4" stroke="#7bc96f" stroke-width="1.55" opacity="0.70" stroke-linecap="round"/>
<line x1="412.8" y1="192.4" x2="405.1" y2="173.8" stroke="#d29922" stroke-width="1.20" opacity="0.60" stroke-linecap="round"/>
<line x1="412.8" y1="192.4" x2="428.2" y2="181.1" stroke="#d29922" stroke-width="1.20" opacity="0.60" stroke-linecap="round"/>
<line x1="404.5" y1="220.5" x2="431.0" y2="212.0" stroke="#7bc96f" stroke-width="1.55" opacity="0.70" stroke-linecap="round"/>
<line x1="431.0" y1="212.0" x2="444.2" y2="200.5" stroke="#d29922" stroke-width="1.20" opacity="0.60" stroke-linecap="round"/>
<line x1="431.0" y1="212.0" x2="448.5" y2="212.9" stroke="#d29922" stroke-width="1.20" opacity="0.60" stroke-linecap="round"/>
<line x1="410.0" y1="410.0" x2="456.1" y2="315.7" stroke="#58a6ff" stroke-width="2.60" opacity="1.00" stroke-linecap="round"/>
<line x1="456.1" y1="315.7" x2="457.7" y2="249.4" stroke="#4f9ee0" stroke-width="2.25" opacity="0.90" stroke-linecap="round"/>
<line x1="457.7" y1="249.4" x2="432.9" y2="210.7" stroke="#3fb950" stroke-width="1.90" opacity="0.80" stroke-linecap="round"/>
<line x1="432.9" y1="210.7" x2="405.4" y2="195.2" stroke="#7bc96f" stroke-width="1.55" opacity="0.70" stroke-linecap="round"/>
<line x1="405.4" y1="195.2" x2="383.5" y2="195.9" stroke="#d29922" stroke-width="1.20" opacity="0.60" stroke-linecap="round"/>
<line x1="405.4" y1="195.2" x2="396.6" y2="175.2" stroke="#d29922" stroke-width="1.20" opacity="0.60" stroke-linecap="round"/>
<line x1="432.9" y1="210.7" x2="430.1" y2="181.9" stroke="#7bc96f" stroke-width="1.55" opacity="0.70" stroke-linecap="round"/>
<line x1="430.1" y1="181.9" x2="424.8" y2="163.8" stroke="#d29922" stroke-width="1.20" opacity="0.60" stroke-linecap="round"/>
<line x1="457.7" y1="249.4" x2="486.6" y2="213.1" stroke="#3fb950" stroke-width="1.90" opacity="0.80" stroke-linecap="round"/>
<line x1="486.6" y1="213.1" x2="494.5" y2="183.3" stroke="#7bc96f" stroke-width="1.55" opacity="0.70" stroke-linecap="round"/>
<line x1="494.5" y1="183.3" x2="503.6" y2="165.2" stroke="#d29922" stroke-width="1.20" opacity="0.60" stroke-linecap="round"/>
<line x1="486.6" y1="213.1" x2="515.6" y2="196.9" stroke="#7bc96f" stroke-width="1.55" opacity="0.70" stroke-linecap="round"/>
<line x1="515.6" y1="196.9" x2="534.9" y2="185.0" stroke="#d29922" stroke-width="1.20" opacity="0.60" stroke-linecap="round"/>
<line x1="456.1" y1="315.7" x2="505.8" y2="265.8" stroke="#4f9ee0" stroke-width="2.25" opacity="0.90" stroke-linecap="round"/>
<line x1="505.8" y1="265.8" x2="518.2" y2="223.1" stroke="#3fb950" stroke-width="1.90" opacity="0.80" stroke-linecap="round"/>
<line x1="518.2" y1="223.1" x2="512.1" y2="193.0" stroke="#7bc96f" stroke-width="1.55" opacity="0.70" stroke-linecap="round"/>
<line x1="512.1" y1="193.0" x2="499.2" y2="175.0" stroke="#d29922" stroke-width="1.20" opacity="0.60" stroke-linecap="round"/>
<line x1="512.1" y1="193.0" x2="515.8" y2="172.7" stroke="#d29922" stroke-width="1.20" opacity="0.60" stroke-linecap="round"/>
<line x1="518.2" y1="223.1" x2="537.9" y2="202.9" stroke="#7bc96f" stroke-width="1.55" opacity="0.70" stroke-linecap="round"/>
<line x1="537.9" y1="202.9" x2="552.2" y2="191.4" stroke="#d29922" stroke-width="1.20" opacity="0.60" stroke-linecap="round"/>
<line x1="505.8" y1="265.8" x2="554.5" y2="253.1" stroke="#3fb950" stroke-width="1.90" opacity="0.80" stroke-linecap="round"/>
<line x1="554.5" y1="253.1" x2="575.3" y2="224.9" stroke="#7bc96f" stroke-width="1.55" opacity="0.70" stroke-linecap="round"/>
<line x1="575.3" y1="224.9" x2="588.7" y2="207.4" stroke="#d29922" stroke-width="1.20" opacity="0.60" stroke-linecap="round"/>
<line x1="554.5" y1="253.1" x2="583.4" y2="266.2" stroke="#7bc96f" stroke-width="1.55" opacity="0.70" stroke-linecap="round"/>
<line x1="583.4" y1="266.2" x2="605.8" y2="262.8" stroke="#d29922" stroke-width="1.20" opacity="0.60" stroke-linecap="round"/>
<line x1="583.4" y1="266.2" x2="594.6" y2="284.2" stroke="#d29922" stroke-width="1.20" opacity="0.60" stroke-linecap="round"/>
<circle cx="515.0" cy="409.5" r="2.60" fill="#58a6ff" opacity="0.85"/>
<circle cx="573.6" cy="379.7" r="2.30" fill="#4f9ee0" opacity="0.85"/>
<circle cx="590.2" cy="338.2" r="2.00" fill="#3fb950" opacity="0.85"/>
<circle cx="588.7" cy="306.1" r="1.70" fill="#7bc96f" opacity="0.85"/>
<circle cx="613.8" cy="316.9" r="1.70" fill="#7bc96f" opacity="0.85"/>
<circle cx="618.8" cy="392.7" r="2.00" fill="#3fb950" opacity="0.85"/>
<circle cx="649.7" cy="384.2" r="1.70" fill="#7bc96f" opacity="0.85"/>
<circle cx="641.5" cy="413.0" r="1.70" fill="#7bc96f" opacity="0.85"/>
<circle cx="576.8" cy="443.8" r="2.30" fill="#4f9ee0" opacity="0.85"/>
<circle cx="627.1" cy="450.5" r="2.00" fill="#3fb950" opacity="0.85"/>
<circle cx="660.1" cy="439.1" r="1.70" fill="#7bc96f" opacity="0.85"/>
<circle cx="653.6" cy="471.2" r="1.70" fill="#7bc96f" opacity="0.85"/>
<circle cx="606.1" cy="480.6" r="2.00" fill="#3fb950" opacity="0.85"/>
<circle cx="633.6" cy="492.7" r="1.70" fill="#7bc96f" opacity="0.85"/>
<circle cx="613.3" cy="511.6" r="1.70" fill="#7bc96f" opacity="0.85"/>
<circle cx="460.2" cy="502.2" r="2.60" fill="#58a6ff" opacity="0.85"/>
<circle cx="520.6" cy="527.0" r="2.30" fill="#4f9ee0" opacity="0.85"/>
<circle cx="560.9" cy="523.5" r="2.00" fill="#3fb950" opacity="0.85"/>
<circle cx="580.1" cy="506.1" r="1.70" fill="#7bc96f" opacity="0.85"/>
<circle cx="584.1" cy="538.1" r="1.70" fill="#7bc96f" opacity="0.85"/>
<circle cx="547.3" cy="558.2" r="2.00" fill="#3fb950" opacity="0.85"/>
<circle cx="574.1" cy="562.0" r="1.70" fill="#7bc96f" opacity="0.85"/>
<circle cx="548.2" cy="586.1" r="1.70" fill="#7bc96f" opacity="0.85"/>
<circle cx="448.8" cy="570.0" r="2.30" fill="#4f9ee0" opacity="0.85"/>
<circle cx="472.1" cy="609.0" r="2.00" fill="#3fb950" opacity="0.85"/>
<circle cx="500.7" cy="621.4" r="1.70" fill="#7bc96f" opacity="0.85"/>
<circle cx="470.1" cy="639.5" r="1.70" fill="#7bc96f" opacity="0.85"/>
<circle cx="414.6" cy="600.6" r="2.00" fill="#3fb950" opacity="0.85"/>
<circle cx="401.1" cy="629.5" r="1.70" fill="#7bc96f" opacity="0.85"/>
<circle cx="386.6" cy="608.4" r="1.70" fill="#7bc96f" opacity="0.85"/>
<circle cx="363.8" cy="504.3" r="2.60" fill="#58a6ff" opacity="0.85"/>
<circle cx="365.7" cy="570.6" r="2.30" fill="#4f9ee0" opacity="0.85"/>
<circle cx="389.6" cy="609.0" r="2.00" fill="#3fb950" opacity="0.85"/>
<circle cx="414.5" cy="625.2" r="1.70" fill="#7bc96f" opacity="0.85"/>
<circle cx="392.1" cy="640.7" r="1.70" fill="#7bc96f" opacity="0.85"/>
<circle cx="344.9" cy="612.7" r="2.00" fill="#3fb950" opacity="0.85"/>
<circle cx="348.6" cy="644.3" r="1.70" fill="#7bc96f" opacity="0.85"/>
<circle cx="316.8" cy="631.4" r="1.70" fill="#7bc96f" opacity="0.85"/>
<circle cx="308.0" cy="545.2" r="2.30" fill="#4f9ee0" opacity="0.85"/>
<circle cx="292.1" cy="585.5" r="2.00" fill="#3fb950" opacity="0.85"/>
<circle cx="301.9" cy="612.3" r="1.70" fill="#7bc96f" opacity="0.85"/>
<circle cx="266.6" cy="602.4" r="1.70" fill="#7bc96f" opacity="0.85"/>
<circle cx="265.3" cy="551.1" r="2.00" fill="#3fb950" opacity="0.85"/>
<circle cx="244.6" cy="572.9" r="1.70" fill="#7bc96f" opacity="0.85"/>
<circle cx="239.9" cy="536.1" r="1.70" fill="#7bc96f" opacity="0.85"/>
<circle cx="305.1" cy="404.9" r="2.60" fill="#58a6ff" opacity="0.85"/>
<circle cx="242.6" cy="447.4" r="2.30" fill="#4f9ee0" opacity="0.85"/>
<circle cx="218.3" cy="495.6" r="2.00" fill="#3fb950" opacity="0.85"/>
<circle cx="219.0" cy="532.9" r="1.70" fill="#7bc96f" opacity="0.85"/>
<circle cx="186.7" cy="516.5" r="1.70" fill="#7bc96f" opacity="0.85"/>
<circle cx="191.6" cy="450.0" r="2.00" fill="#3fb950" opacity="0.85"/>
<circle cx="167.4" cy="472.6" r="1.70" fill="#7bc96f" opacity="0.85"/>
<circle cx="162.6" cy="432.0" r="1.70" fill="#7bc96f" opacity="0.85"/>
<circle cx="244.4" cy="362.1" r="2.30" fill="#4f9ee0" opacity="0.85"/>
<circle cx="194.1" cy="359.9" r="2.00" fill="#3fb950" opacity="0.85"/>
<circle cx="166.8" cy="376.1" r="1.70" fill="#7bc96f" opacity="0.85"/>
<circle cx="164.0" cy="340.5" r="1.70" fill="#7bc96f" opacity="0.85"/>
<circle cx="220.3" cy="316.5" r="2.00" fill="#3fb950" opacity="0.85"/>
<circle cx="190.4" cy="297.1" r="1.70" fill="#7bc96f" opacity="0.85"/>
<circle cx="220.2" cy="281.6" r="1.70" fill="#7bc96f" opacity="0.85"/>
<circle cx="363.0" cy="316.1" r="2.60" fill="#58a6ff" opacity="0.85"/>
<circle cx="298.7" cy="283.5" r="2.30" fill="#4f9ee0" opacity="0.85"/>
<circle cx="251.6" cy="289.0" r="2.00" fill="#3fb950" opacity="0.85"/>
<circle cx="226.9" cy="307.9" r="1.70" fill="#7bc96f" opacity="0.85"/>
<circle cx="221.4" cy="273.5" r="1.70" fill="#7bc96f" opacity="0.85"/>
<circle cx="275.6" cy="240.9" r="2.00" fill="#3fb950" opacity="0.85"/>
<circle cx="243.6" cy="229.2" r="1.70" fill="#7bc96f" opacity="0.85"/>
<circle cx="282.7" cy="208.7" r="1.70" fill="#7bc96f" opacity="0.85"/>
<circle cx="374.7" cy="250.5" r="2.30" fill="#4f9ee0" opacity="0.85"/>
<circle cx="353.6" cy="211.9" r="2.00" fill="#3fb950" opacity="0.85"/>
<circle cx="332.0" cy="194.5" r="1.70" fill="#7bc96f" opacity="0.85"/>
<circle cx="353.8" cy="181.0" r="1.70" fill="#7bc96f" opacity="0.85"/>
<circle cx="404.5" cy="220.5" r="2.00" fill="#3fb950" opacity="0.85"/>
<circle cx="412.8" cy="192.4" r="1.70" fill="#7bc96f" opacity="0.85"/>
<circle cx="431.0" cy="212.0" r="1.70" fill="#7bc96f" opacity="0.85"/>
<circle cx="456.1" cy="315.7" r="2.60" fill="#58a6ff" opacity="0.85"/>
<circle cx="457.7" cy="249.4" r="2.30" fill="#4f9ee0" opacity="0.85"/>
<circle cx="432.9" cy="210.7" r="2.00" fill="#3fb950" opacity="0.85"/>
<circle cx="405.4" cy="195.2" r="1.70" fill="#7bc96f" opacity="0.85"/>
<circle cx="430.1" cy="181.9" r="1.70" fill="#7bc96f" opacity="0.85"/>
<circle cx="486.6" cy="213.1" r="2.00" fill="#3fb950" opacity="0.85"/>
<circle cx="494.5" cy="183.3" r="1.70" fill="#7bc96f" opacity="0.85"/>
<circle cx="515.6" cy="196.9" r="1.70" fill="#7bc96f" opacity="0.85"/>
<circle cx="505.8" cy="265.8" r="2.30" fill="#4f9ee0" opacity="0.85"/>
<circle cx="518.2" cy="223.1" r="2.00" fill="#3fb950" opacity="0.85"/>
<circle cx="512.1" cy="193.0" r="1.70" fill="#7bc96f" opacity="0.85"/>
<circle cx="537.9" cy="202.9" r="1.70" fill="#7bc96f" opacity="0.85"/>
<circle cx="554.5" cy="253.1" r="2.00" fill="#3fb950" opacity="0.85"/>
<circle cx="575.3" cy="224.9" r="1.70" fill="#7bc96f" opacity="0.85"/>
<circle cx="583.4" cy="266.2" r="1.70" fill="#7bc96f" opacity="0.85"/>
<circle cx="588.3" cy="284.4" r="3" fill="none" stroke="#d29922" stroke-width="1" opacity="0.6"/>
<circle cx="628.0" cy="299.5" r="3" fill="none" stroke="#d29922" stroke-width="1" opacity="0.6"/>
<circle cx="665.9" cy="371.7" r="3" fill="none" stroke="#d29922" stroke-width="1" opacity="0.6"/>
<circle cx="671.5" cy="387.6" r="3" fill="none" stroke="#d29922" stroke-width="1" opacity="0.6"/>
<circle cx="661.9" cy="415.9" r="3" fill="none" stroke="#d29922" stroke-width="1" opacity="0.6"/>
<circle cx="647.4" cy="432.7" r="3" fill="none" stroke="#d29922" stroke-width="1" opacity="0.6"/>
<circle cx="674.3" cy="420.2" r="3" fill="none" stroke="#d29922" stroke-width="1" opacity="0.6"/>
<circle cx="683.6" cy="445.0" r="3" fill="none" stroke="#d29922" stroke-width="1" opacity="0.6"/>
<circle cx="673.6" cy="480.0" r="3" fill="none" stroke="#d29922" stroke-width="1" opacity="0.6"/>
<circle cx="649.2" cy="506.6" r="3" fill="none" stroke="#d29922" stroke-width="1" opacity="0.6"/>
<circle cx="613.1" cy="532.4" r="3" fill="none" stroke="#d29922" stroke-width="1" opacity="0.6"/>
<circle cx="585.3" cy="490.5" r="3" fill="none" stroke="#d29922" stroke-width="1" opacity="0.6"/>
<circle cx="596.7" cy="502.5" r="3" fill="none" stroke="#d29922" stroke-width="1" opacity="0.6"/>
<circle cx="597.4" cy="549.6" r="3" fill="none" stroke="#d29922" stroke-width="1" opacity="0.6"/>
<circle cx="592.3" cy="561.5" r="3" fill="none" stroke="#d29922" stroke-width="1" opacity="0.6"/>
<circle cx="560.9" cy="600.1" r="3" fill="none" stroke="#d29922" stroke-width="1" opacity="0.6"/>
<circle cx="537.4" cy="600.8" r="3" fill="none" stroke="#d29922" stroke-width="1" opacity="0.6"/>
<circle cx="517.5" cy="635.0" r="3" fill="none" stroke="#d29922" stroke-width="1" opacity="0.6"/>
<circle cx="465.1" cy="660.0" r="3" fill="none" stroke="#d29922" stroke-width="1" opacity="0.6"/>
<circle cx="404.9" cy="649.4" r="3" fill="none" stroke="#d29922" stroke-width="1" opacity="0.6"/>
<circle cx="383.5" cy="641.0" r="3" fill="none" stroke="#d29922" stroke-width="1" opacity="0.6"/>
<circle cx="371.1" cy="620.8" r="3" fill="none" stroke="#d29922" stroke-width="1" opacity="0.6"/>
<circle cx="368.7" cy="605.6" r="3" fill="none" stroke="#d29922" stroke-width="1" opacity="0.6"/>
<circle cx="427.4" cy="640.1" r="3" fill="none" stroke="#d29922" stroke-width="1" opacity="0.6"/>
<circle cx="405.9" cy="656.6" r="3" fill="none" stroke="#d29922" stroke-width="1" opacity="0.6"/>
<circle cx="380.1" cy="658.1" r="3" fill="none" stroke="#d29922" stroke-width="1" opacity="0.6"/>
<circle cx="354.6" cy="664.7" r="3" fill="none" stroke="#d29922" stroke-width="1" opacity="0.6"/>
<circle cx="301.2" cy="648.4" r="3" fill="none" stroke="#d29922" stroke-width="1" opacity="0.6"/>
<circle cx="315.5" cy="626.4" r="3" fill="none" stroke="#d29922" stroke-width="1" opacity="0.6"/>
<circle cx="300.8" cy="632.0" r="3" fill="none" stroke="#d29922" stroke-width="1" opacity="0.6"/>
<circle cx="255.4" cy="620.6" r="3" fill="none" stroke="#d29922" stroke-width="1" opacity="0.6"/>
<circle cx="247.0" cy="603.1" r="3" fill="none" stroke="#d29922" stroke-width="1" opacity="0.6"/>
<circle cx="240.6" cy="592.9" r="3" fill="none" stroke="#d29922" stroke-width="1" opacity="0.6"/>
<circle cx="225.6" cy="579.2" r="3" fill="none" stroke="#d29922" stroke-width="1" opacity="0.6"/>
<circle cx="218.7" cy="536.1" r="3" fill="none" stroke="#d29922" stroke-width="1" opacity="0.6"/>
<circle cx="230.4" cy="517.2" r="3" fill="none" stroke="#d29922" stroke-width="1" opacity="0.6"/>
<circle cx="233.7" cy="552.4" r="3" fill="none" stroke="#d29922" stroke-width="1" opacity="0.6"/>
<circle cx="204.5" cy="554.5" r="3" fill="none" stroke="#d29922" stroke-width="1" opacity="0.6"/>
<circle cx="172.9" cy="538.9" r="3" fill="none" stroke="#d29922" stroke-width="1" opacity="0.6"/>
<circle cx="159.6" cy="519.6" r="3" fill="none" stroke="#d29922" stroke-width="1" opacity="0.6"/>
<circle cx="160.6" cy="492.8" r="3" fill="none" stroke="#d29922" stroke-width="1" opacity="0.6"/>
<circle cx="146.1" cy="477.7" r="3" fill="none" stroke="#d29922" stroke-width="1" opacity="0.6"/>
<circle cx="141.3" cy="431.3" r="3" fill="none" stroke="#d29922" stroke-width="1" opacity="0.6"/>
<circle cx="151.0" cy="411.4" r="3" fill="none" stroke="#d29922" stroke-width="1" opacity="0.6"/>
<circle cx="153.4" cy="391.7" r="3" fill="none" stroke="#d29922" stroke-width="1" opacity="0.6"/>
<circle cx="143.5" cy="327.8" r="3" fill="none" stroke="#d29922" stroke-width="1" opacity="0.6"/>
<circle cx="166.9" cy="300.5" r="3" fill="none" stroke="#d29922" stroke-width="1" opacity="0.6"/>
<circle cx="182.5" cy="272.9" r="3" fill="none" stroke="#d29922" stroke-width="1" opacity="0.6"/>
<circle cx="222.6" cy="258.9" r="3" fill="none" stroke="#d29922" stroke-width="1" opacity="0.6"/>
<circle cx="209.2" cy="319.0" r="3" fill="none" stroke="#d29922" stroke-width="1" opacity="0.6"/>
<circle cx="204.5" cy="258.3" r="3" fill="none" stroke="#d29922" stroke-width="1" opacity="0.6"/>
<circle cx="221.5" cy="228.1" r="3" fill="none" stroke="#d29922" stroke-width="1" opacity="0.6"/>
<circle cx="289.8" cy="186.5" r="3" fill="none" stroke="#d29922" stroke-width="1" opacity="0.6"/>
<circle cx="313.3" cy="193.2" r="3" fill="none" stroke="#d29922" stroke-width="1" opacity="0.6"/>
<circle cx="327.4" cy="177.7" r="3" fill="none" stroke="#d29922" stroke-width="1" opacity="0.6"/>
<circle cx="342.6" cy="162.3" r="3" fill="none" stroke="#d29922" stroke-width="1" opacity="0.6"/>
<circle cx="366.2" cy="163.6" r="3" fill="none" stroke="#d29922" stroke-width="1" opacity="0.6"/>
<circle cx="405.1" cy="173.8" r="3" fill="none" stroke="#d29922" stroke-width="1" opacity="0.6"/>
<circle cx="428.2" cy="181.1" r="3" fill="none" stroke="#d29922" stroke-width="1" opacity="0.6"/>
<circle cx="444.2" cy="200.5" r="3" fill="none" stroke="#d29922" stroke-width="1" opacity="0.6"/>
<circle cx="448.5" cy="212.9" r="3" fill="none" stroke="#d29922" stroke-width="1" opacity="0.6"/>
<circle cx="383.5" cy="195.9" r="3" fill="none" stroke="#d29922" stroke-width="1" opacity="0.6"/>
<circle cx="396.6" cy="175.2" r="3" fill="none" stroke="#d29922" stroke-width="1" opacity="0.6"/>
<circle cx="424.8" cy="163.8" r="3" fill="none" stroke="#d29922" stroke-width="1" opacity="0.6"/>
<circle cx="503.6" cy="165.2" r="3" fill="none" stroke="#d29922" stroke-width="1" opacity="0.6"/>
<circle cx="534.9" cy="185.0" r="3" fill="none" stroke="#d29922" stroke-width="1" opacity="0.6"/>
<circle cx="499.2" cy="175.0" r="3" fill="none" stroke="#d29922" stroke-width="1" opacity="0.6"/>
<circle cx="515.8" cy="172.7" r="3" fill="none" stroke="#d29922" stroke-width="1" opacity="0.6"/>
<circle cx="552.2" cy="191.4" r="3" fill="none" stroke="#d29922" stroke-width="1" opacity="0.6"/>
<circle cx="588.7" cy="207.4" r="3" fill="none" stroke="#d29922" stroke-width="1" opacity="0.6"/>
<circle cx="605.8" cy="262.8" r="3" fill="none" stroke="#d29922" stroke-width="1" opacity="0.6"/>
<circle cx="594.6" cy="284.2" r="3" fill="none" stroke="#d29922" stroke-width="1" opacity="0.6"/>
<circle cx="410.0" cy="410.0" r="10" fill="#0d1117" stroke="#58a6ff" stroke-width="2"/>
<circle cx="410.0" cy="410.0" r="4" fill="#58a6ff"/>
<circle r="2.4" fill="#7ee787"><animateMotion dur="2.28s" begin="0.19s" repeatCount="indefinite" path="M389.6,609.0 L392.1,640.7"/></circle>
<circle r="2.4" fill="#f2cc60"><animateMotion dur="3.69s" begin="1.19s" repeatCount="indefinite" path="M520.6,527.0 L560.9,523.5"/></circle>
<circle r="2.4" fill="#79c0ff"><animateMotion dur="3.89s" begin="2.37s" repeatCount="indefinite" path="M606.1,480.6 L613.3,511.6"/></circle>
<circle r="2.4" fill="#7ee787"><animateMotion dur="2.64s" begin="0.07s" repeatCount="indefinite" path="M265.3,551.1 L244.6,572.9"/></circle>
<circle r="2.4" fill="#f2cc60"><animateMotion dur="2.38s" begin="0.72s" repeatCount="indefinite" path="M560.9,523.5 L584.1,538.1"/></circle>
<circle r="2.4" fill="#79c0ff"><animateMotion dur="3.53s" begin="2.12s" repeatCount="indefinite" path="M554.5,253.1 L583.4,266.2"/></circle>
<circle r="2.4" fill="#7ee787"><animateMotion dur="3.36s" begin="1.71s" repeatCount="indefinite" path="M641.5,413.0 L661.9,415.9"/></circle>
<text x="806" y="806" text-anchor="end" font-size="9" fill="#484f58" letter-spacing="1">// circuit_bloom.py — seed:20260709 — spokes:6 — regenerated daily</text>
</svg>