<svg viewBox="0 0 820 820" width="820" height="820" xmlns="http://www.w3.org/2000/svg" font-family="'Fira Code',monospace">
<defs>
<pattern id="g2" width="22" height="22" patternUnits="userSpaceOnUse">
<path d="M 22 0 L 0 0 0 22" fill="none" stroke="#30363d" stroke-width="0.4" opacity="0.3"/>
</pattern>
<radialGradient id="glow" cx="50%" cy="50%" r="50%">
<stop offset="0%" stop-color="#58a6ff" stop-opacity="0.35"/>
<stop offset="100%" stop-color="#58a6ff" stop-opacity="0"/>
</radialGradient>
</defs>
<rect x="0" y="0" width="820" height="820" fill="#0d1117"/>
<rect x="0" y="0" width="820" height="820" fill="url(#g2)"/>
<circle cx="410.0" cy="410.0" r="230" fill="url(#glow)"/>
<line x1="410.0" y1="410.0" x2="514.8" y2="416.1" stroke="#58a6ff" stroke-width="2.60" opacity="1.00" stroke-linecap="round"/>
<line x1="514.8" y1="416.1" x2="579.1" y2="391.1" stroke="#4f9ee0" stroke-width="2.25" opacity="0.90" stroke-linecap="round"/>
<line x1="579.1" y1="391.1" x2="604.3" y2="351.9" stroke="#3fb950" stroke-width="1.90" opacity="0.80" stroke-linecap="round"/>
<line x1="604.3" y1="351.9" x2="604.6" y2="322.9" stroke="#7bc96f" stroke-width="1.55" opacity="0.70" stroke-linecap="round"/>
<line x1="604.6" y1="322.9" x2="611.0" y2="303.4" stroke="#d29922" stroke-width="1.20" opacity="0.60" stroke-linecap="round"/>
<line x1="604.3" y1="351.9" x2="631.5" y2="335.1" stroke="#7bc96f" stroke-width="1.55" opacity="0.70" stroke-linecap="round"/>
<line x1="631.5" y1="335.1" x2="645.6" y2="321.1" stroke="#d29922" stroke-width="1.20" opacity="0.60" stroke-linecap="round"/>
<line x1="579.1" y1="391.1" x2="624.1" y2="398.2" stroke="#3fb950" stroke-width="1.90" opacity="0.80" stroke-linecap="round"/>
<line x1="624.1" y1="398.2" x2="653.4" y2="385.3" stroke="#7bc96f" stroke-width="1.55" opacity="0.70" stroke-linecap="round"/>
<line x1="653.4" y1="385.3" x2="669.2" y2="368.8" stroke="#d29922" stroke-width="1.20" opacity="0.60" stroke-linecap="round"/>
<line x1="653.4" y1="385.3" x2="673.9" y2="385.5" stroke="#d29922" stroke-width="1.20" opacity="0.60" stroke-linecap="round"/>
<line x1="624.1" y1="398.2" x2="644.6" y2="419.8" stroke="#7bc96f" stroke-width="1.55" opacity="0.70" stroke-linecap="round"/>
<line x1="644.6" y1="419.8" x2="664.6" y2="425.3" stroke="#d29922" stroke-width="1.20" opacity="0.60" stroke-linecap="round"/>
<line x1="644.6" y1="419.8" x2="647.1" y2="440.1" stroke="#d29922" stroke-width="1.20" opacity="0.60" stroke-linecap="round"/>
<line x1="514.8" y1="416.1" x2="574.6" y2="453.0" stroke="#4f9ee0" stroke-width="2.25" opacity="0.90" stroke-linecap="round"/>
<line x1="574.6" y1="453.0" x2="624.5" y2="449.4" stroke="#3fb950" stroke-width="1.90" opacity="0.80" stroke-linecap="round"/>
<line x1="624.5" y1="449.4" x2="656.1" y2="434.3" stroke="#7bc96f" stroke-width="1.55" opacity="0.70" stroke-linecap="round"/>
<line x1="656.1" y1="434.3" x2="671.5" y2="414.8" stroke="#d29922" stroke-width="1.20" opacity="0.60" stroke-linecap="round"/>
<line x1="656.1" y1="434.3" x2="681.0" y2="433.4" stroke="#d29922" stroke-width="1.20" opacity="0.60" stroke-linecap="round"/>
<line x1="624.5" y1="449.4" x2="656.1" y2="463.3" stroke="#7bc96f" stroke-width="1.55" opacity="0.70" stroke-linecap="round"/>
<line x1="656.1" y1="463.3" x2="680.7" y2="462.1" stroke="#d29922" stroke-width="1.20" opacity="0.60" stroke-linecap="round"/>
<line x1="656.1" y1="463.3" x2="670.1" y2="482.9" stroke="#d29922" stroke-width="1.20" opacity="0.60" stroke-linecap="round"/>
<line x1="574.6" y1="453.0" x2="593.8" y2="493.5" stroke="#3fb950" stroke-width="1.90" opacity="0.80" stroke-linecap="round"/>
<line x1="593.8" y1="493.5" x2="617.9" y2="509.6" stroke="#7bc96f" stroke-width="1.55" opacity="0.70" stroke-linecap="round"/>
<line x1="617.9" y1="509.6" x2="635.9" y2="515.2" stroke="#d29922" stroke-width="1.20" opacity="0.60" stroke-linecap="round"/>
<line x1="593.8" y1="493.5" x2="591.9" y2="523.3" stroke="#7bc96f" stroke-width="1.55" opacity="0.70" stroke-linecap="round"/>
<line x1="591.9" y1="523.3" x2="601.2" y2="539.8" stroke="#d29922" stroke-width="1.20" opacity="0.60" stroke-linecap="round"/>
<line x1="591.9" y1="523.3" x2="581.8" y2="541.1" stroke="#d29922" stroke-width="1.20" opacity="0.60" stroke-linecap="round"/>
<line x1="410.0" y1="410.0" x2="447.3" y2="508.1" stroke="#58a6ff" stroke-width="2.60" opacity="1.00" stroke-linecap="round"/>
<line x1="447.3" y1="508.1" x2="510.7" y2="548.1" stroke="#4f9ee0" stroke-width="2.25" opacity="0.90" stroke-linecap="round"/>
<line x1="510.7" y1="548.1" x2="563.5" y2="540.9" stroke="#3fb950" stroke-width="1.90" opacity="0.80" stroke-linecap="round"/>
<line x1="563.5" y1="540.9" x2="596.7" y2="523.1" stroke="#7bc96f" stroke-width="1.55" opacity="0.70" stroke-linecap="round"/>
<line x1="596.7" y1="523.1" x2="610.7" y2="503.0" stroke="#d29922" stroke-width="1.20" opacity="0.60" stroke-linecap="round"/>
<line x1="596.7" y1="523.1" x2="620.1" y2="519.6" stroke="#d29922" stroke-width="1.20" opacity="0.60" stroke-linecap="round"/>
<line x1="563.5" y1="540.9" x2="594.9" y2="552.9" stroke="#7bc96f" stroke-width="1.55" opacity="0.70" stroke-linecap="round"/>
<line x1="594.9" y1="552.9" x2="615.4" y2="547.8" stroke="#d29922" stroke-width="1.20" opacity="0.60" stroke-linecap="round"/>
<line x1="594.9" y1="552.9" x2="607.2" y2="572.2" stroke="#d29922" stroke-width="1.20" opacity="0.60" stroke-linecap="round"/>
<line x1="510.7" y1="548.1" x2="531.0" y2="590.3" stroke="#3fb950" stroke-width="1.90" opacity="0.80" stroke-linecap="round"/>
<line x1="531.0" y1="590.3" x2="555.2" y2="613.2" stroke="#7bc96f" stroke-width="1.55" opacity="0.70" stroke-linecap="round"/>
<line x1="555.2" y1="613.2" x2="575.9" y2="617.4" stroke="#d29922" stroke-width="1.20" opacity="0.60" stroke-linecap="round"/>
<line x1="555.2" y1="613.2" x2="562.5" y2="635.4" stroke="#d29922" stroke-width="1.20" opacity="0.60" stroke-linecap="round"/>
<line x1="531.0" y1="590.3" x2="531.4" y2="621.7" stroke="#7bc96f" stroke-width="1.55" opacity="0.70" stroke-linecap="round"/>
<line x1="531.4" y1="621.7" x2="540.8" y2="639.6" stroke="#d29922" stroke-width="1.20" opacity="0.60" stroke-linecap="round"/>
<line x1="531.4" y1="621.7" x2="524.7" y2="641.8" stroke="#d29922" stroke-width="1.20" opacity="0.60" stroke-linecap="round"/>
<line x1="447.3" y1="508.1" x2="423.9" y2="569.5" stroke="#4f9ee0" stroke-width="2.25" opacity="0.90" stroke-linecap="round"/>
<line x1="423.9" y1="569.5" x2="435.8" y2="608.5" stroke="#3fb950" stroke-width="1.90" opacity="0.80" stroke-linecap="round"/>
<line x1="435.8" y1="608.5" x2="452.7" y2="629.5" stroke="#7bc96f" stroke-width="1.55" opacity="0.70" stroke-linecap="round"/>
<line x1="452.7" y1="629.5" x2="462.3" y2="645.7" stroke="#d29922" stroke-width="1.20" opacity="0.60" stroke-linecap="round"/>
<line x1="435.8" y1="608.5" x2="432.4" y2="635.4" stroke="#7bc96f" stroke-width="1.55" opacity="0.70" stroke-linecap="round"/>
<line x1="432.4" y1="635.4" x2="433.8" y2="653.9" stroke="#d29922" stroke-width="1.20" opacity="0.60" stroke-linecap="round"/>
<line x1="423.9" y1="569.5" x2="386.4" y2="594.6" stroke="#3fb950" stroke-width="1.90" opacity="0.80" stroke-linecap="round"/>
<line x1="386.4" y1="594.6" x2="376.4" y2="621.5" stroke="#7bc96f" stroke-width="1.55" opacity="0.70" stroke-linecap="round"/>
<line x1="376.4" y1="621.5" x2="383.3" y2="639.3" stroke="#d29922" stroke-width="1.20" opacity="0.60" stroke-linecap="round"/>
<line x1="376.4" y1="621.5" x2="359.8" y2="631.5" stroke="#d29922" stroke-width="1.20" opacity="0.60" stroke-linecap="round"/>
<line x1="386.4" y1="594.6" x2="356.0" y2="595.6" stroke="#7bc96f" stroke-width="1.55" opacity="0.70" stroke-linecap="round"/>
<line x1="356.0" y1="595.6" x2="340.6" y2="608.4" stroke="#d29922" stroke-width="1.20" opacity="0.60" stroke-linecap="round"/>
<line x1="356.0" y1="595.6" x2="338.0" y2="584.9" stroke="#d29922" stroke-width="1.20" opacity="0.60" stroke-linecap="round"/>
<line x1="410.0" y1="410.0" x2="321.4" y2="466.4" stroke="#58a6ff" stroke-width="2.60" opacity="1.00" stroke-linecap="round"/>
<line x1="321.4" y1="466.4" x2="280.4" y2="523.5" stroke="#4f9ee0" stroke-width="2.25" opacity="0.90" stroke-linecap="round"/>
<line x1="280.4" y1="523.5" x2="275.8" y2="567.9" stroke="#3fb950" stroke-width="1.90" opacity="0.80" stroke-linecap="round"/>
<line x1="275.8" y1="567.9" x2="292.8" y2="594.1" stroke="#7bc96f" stroke-width="1.55" opacity="0.70" stroke-linecap="round"/>
<line x1="292.8" y1="594.1" x2="307.1" y2="608.2" stroke="#d29922" stroke-width="1.20" opacity="0.60" stroke-linecap="round"/>
<line x1="275.8" y1="567.9" x2="252.7" y2="588.1" stroke="#7bc96f" stroke-width="1.55" opacity="0.70" stroke-linecap="round"/>
<line x1="252.7" y1="588.1" x2="235.8" y2="601.5" stroke="#d29922" stroke-width="1.20" opacity="0.60" stroke-linecap="round"/>
<line x1="280.4" y1="523.5" x2="238.0" y2="546.9" stroke="#3fb950" stroke-width="1.90" opacity="0.80" stroke-linecap="round"/>
<line x1="238.0" y1="546.9" x2="228.0" y2="577.0" stroke="#7bc96f" stroke-width="1.55" opacity="0.70" stroke-linecap="round"/>
<line x1="228.0" y1="577.0" x2="220.8" y2="595.6" stroke="#d29922" stroke-width="1.20" opacity="0.60" stroke-linecap="round"/>
<line x1="238.0" y1="546.9" x2="206.4" y2="541.1" stroke="#7bc96f" stroke-width="1.55" opacity="0.70" stroke-linecap="round"/>
<line x1="206.4" y1="541.1" x2="187.9" y2="552.9" stroke="#d29922" stroke-width="1.20" opacity="0.60" stroke-linecap="round"/>
<line x1="206.4" y1="541.1" x2="191.6" y2="524.0" stroke="#d29922" stroke-width="1.20" opacity="0.60" stroke-linecap="round"/>
<line x1="321.4" y1="466.4" x2="256.4" y2="474.1" stroke="#4f9ee0" stroke-width="2.25" opacity="0.90" stroke-linecap="round"/>
<line x1="256.4" y1="474.1" x2="220.4" y2="495.2" stroke="#3fb950" stroke-width="1.90" opacity="0.80" stroke-linecap="round"/>
<line x1="220.4" y1="495.2" x2="208.3" y2="518.2" stroke="#7bc96f" stroke-width="1.55" opacity="0.70" stroke-linecap="round"/>
<line x1="208.3" y1="518.2" x2="202.8" y2="534.9" stroke="#d29922" stroke-width="1.20" opacity="0.60" stroke-linecap="round"/>
<line x1="220.4" y1="495.2" x2="192.5" y2="495.2" stroke="#7bc96f" stroke-width="1.55" opacity="0.70" stroke-linecap="round"/>
<line x1="192.5" y1="495.2" x2="177.2" y2="503.3" stroke="#d29922" stroke-width="1.20" opacity="0.60" stroke-linecap="round"/>
<line x1="192.5" y1="495.2" x2="175.2" y2="486.3" stroke="#d29922" stroke-width="1.20" opacity="0.60" stroke-linecap="round"/>
<line x1="256.4" y1="474.1" x2="214.8" y2="462.1" stroke="#3fb950" stroke-width="1.90" opacity="0.80" stroke-linecap="round"/>
<line x1="214.8" y1="462.1" x2="188.2" y2="467.0" stroke="#7bc96f" stroke-width="1.55" opacity="0.70" stroke-linecap="round"/>
<line x1="188.2" y1="467.0" x2="175.4" y2="481.3" stroke="#d29922" stroke-width="1.20" opacity="0.60" stroke-linecap="round"/>
<line x1="188.2" y1="467.0" x2="172.9" y2="459.4" stroke="#d29922" stroke-width="1.20" opacity="0.60" stroke-linecap="round"/>
<line x1="214.8" y1="462.1" x2="192.0" y2="442.5" stroke="#7bc96f" stroke-width="1.55" opacity="0.70" stroke-linecap="round"/>
<line x1="192.0" y1="442.5" x2="170.8" y2="443.4" stroke="#d29922" stroke-width="1.20" opacity="0.60" stroke-linecap="round"/>
<line x1="192.0" y1="442.5" x2="189.2" y2="421.2" stroke="#d29922" stroke-width="1.20" opacity="0.60" stroke-linecap="round"/>
<line x1="410.0" y1="410.0" x2="324.6" y2="348.9" stroke="#58a6ff" stroke-width="2.60" opacity="1.00" stroke-linecap="round"/>
<line x1="324.6" y1="348.9" x2="250.0" y2="350.1" stroke="#4f9ee0" stroke-width="2.25" opacity="0.90" stroke-linecap="round"/>
<line x1="250.0" y1="350.1" x2="212.3" y2="378.0" stroke="#3fb950" stroke-width="1.90" opacity="0.80" stroke-linecap="round"/>
<line x1="212.3" y1="378.0" x2="202.6" y2="406.5" stroke="#7bc96f" stroke-width="1.55" opacity="0.70" stroke-linecap="round"/>
<line x1="202.6" y1="406.5" x2="196.3" y2="425.4" stroke="#d29922" stroke-width="1.20" opacity="0.60" stroke-linecap="round"/>
<line x1="212.3" y1="378.0" x2="181.2" y2="375.4" stroke="#7bc96f" stroke-width="1.55" opacity="0.70" stroke-linecap="round"/>
<line x1="181.2" y1="375.4" x2="161.8" y2="385.4" stroke="#d29922" stroke-width="1.20" opacity="0.60" stroke-linecap="round"/>
<line x1="181.2" y1="375.4" x2="165.3" y2="361.3" stroke="#d29922" stroke-width="1.20" opacity="0.60" stroke-linecap="round"/>
<line x1="250.0" y1="350.1" x2="211.1" y2="315.0" stroke="#3fb950" stroke-width="1.90" opacity="0.80" stroke-linecap="round"/>
<line x1="211.1" y1="315.0" x2="176.3" y2="301.8" stroke="#7bc96f" stroke-width="1.55" opacity="0.70" stroke-linecap="round"/>
<line x1="176.3" y1="301.8" x2="151.4" y2="295.9" stroke="#d29922" stroke-width="1.20" opacity="0.60" stroke-linecap="round"/>
<line x1="211.1" y1="315.0" x2="196.7" y2="280.7" stroke="#7bc96f" stroke-width="1.55" opacity="0.70" stroke-linecap="round"/>
<line x1="196.7" y1="280.7" x2="190.7" y2="257.4" stroke="#d29922" stroke-width="1.20" opacity="0.60" stroke-linecap="round"/>
<line x1="324.6" y1="348.9" x2="308.7" y2="280.4" stroke="#4f9ee0" stroke-width="2.25" opacity="0.90" stroke-linecap="round"/>
<line x1="308.7" y1="280.4" x2="269.0" y2="249.4" stroke="#3fb950" stroke-width="1.90" opacity="0.80" stroke-linecap="round"/>
<line x1="269.0" y1="249.4" x2="237.6" y2="244.9" stroke="#7bc96f" stroke-width="1.55" opacity="0.70" stroke-linecap="round"/>
<line x1="237.6" y1="244.9" x2="219.5" y2="252.9" stroke="#d29922" stroke-width="1.20" opacity="0.60" stroke-linecap="round"/>
<line x1="237.6" y1="244.9" x2="223.1" y2="230.5" stroke="#d29922" stroke-width="1.20" opacity="0.60" stroke-linecap="round"/>
<line x1="269.0" y1="249.4" x2="255.9" y2="216.4" stroke="#7bc96f" stroke-width="1.55" opacity="0.70" stroke-linecap="round"/>
<line x1="255.9" y1="216.4" x2="249.3" y2="193.6" stroke="#d29922" stroke-width="1.20" opacity="0.60" stroke-linecap="round"/>
<line x1="308.7" y1="280.4" x2="331.2" y2="238.4" stroke="#3fb950" stroke-width="1.90" opacity="0.80" stroke-linecap="round"/>
<line x1="331.2" y1="238.4" x2="326.4" y2="209.0" stroke="#7bc96f" stroke-width="1.55" opacity="0.70" stroke-linecap="round"/>
<line x1="326.4" y1="209.0" x2="316.8" y2="191.4" stroke="#d29922" stroke-width="1.20" opacity="0.60" stroke-linecap="round"/>
<line x1="331.2" y1="238.4" x2="359.3" y2="224.4" stroke="#7bc96f" stroke-width="1.55" opacity="0.70" stroke-linecap="round"/>
<line x1="359.3" y1="224.4" x2="380.9" y2="218.5" stroke="#d29922" stroke-width="1.20" opacity="0.60" stroke-linecap="round"/>
<line x1="410.0" y1="410.0" x2="436.9" y2="308.5" stroke="#58a6ff" stroke-width="2.60" opacity="1.00" stroke-linecap="round"/>
<line x1="436.9" y1="308.5" x2="409.5" y2="247.8" stroke="#4f9ee0" stroke-width="2.25" opacity="0.90" stroke-linecap="round"/>
<line x1="409.5" y1="247.8" x2="378.5" y2="215.7" stroke="#3fb950" stroke-width="1.90" opacity="0.80" stroke-linecap="round"/>
<line x1="378.5" y1="215.7" x2="349.5" y2="208.9" stroke="#7bc96f" stroke-width="1.55" opacity="0.70" stroke-linecap="round"/>
<line x1="349.5" y1="208.9" x2="330.9" y2="214.6" stroke="#d29922" stroke-width="1.20" opacity="0.60" stroke-linecap="round"/>
<line x1="349.5" y1="208.9" x2="332.6" y2="196.5" stroke="#d29922" stroke-width="1.20" opacity="0.60" stroke-linecap="round"/>
<line x1="378.5" y1="215.7" x2="372.8" y2="186.4" stroke="#7bc96f" stroke-width="1.55" opacity="0.70" stroke-linecap="round"/>
<line x1="372.8" y1="186.4" x2="359.7" y2="170.2" stroke="#d29922" stroke-width="1.20" opacity="0.60" stroke-linecap="round"/>
<line x1="372.8" y1="186.4" x2="381.0" y2="168.9" stroke="#d29922" stroke-width="1.20" opacity="0.60" stroke-linecap="round"/>
<line x1="409.5" y1="247.8" x2="408.8" y2="201.6" stroke="#3fb950" stroke-width="1.90" opacity="0.80" stroke-linecap="round"/>
<line x1="408.8" y1="201.6" x2="392.9" y2="176.4" stroke="#7bc96f" stroke-width="1.55" opacity="0.70" stroke-linecap="round"/>
<line x1="392.9" y1="176.4" x2="373.7" y2="169.1" stroke="#d29922" stroke-width="1.20" opacity="0.60" stroke-linecap="round"/>
<line x1="392.9" y1="176.4" x2="394.4" y2="157.8" stroke="#d29922" stroke-width="1.20" opacity="0.60" stroke-linecap="round"/>
<line x1="408.8" y1="201.6" x2="424.3" y2="172.5" stroke="#7bc96f" stroke-width="1.55" opacity="0.70" stroke-linecap="round"/>
<line x1="424.3" y1="172.5" x2="435.9" y2="154.1" stroke="#d29922" stroke-width="1.20" opacity="0.60" stroke-linecap="round"/>
<line x1="436.9" y1="308.5" x2="492.0" y2="257.4" stroke="#4f9ee0" stroke-width="2.25" opacity="0.90" stroke-linecap="round"/>
<line x1="492.0" y1="257.4" x2="505.0" y2="209.4" stroke="#3fb950" stroke-width="1.90" opacity="0.80" stroke-linecap="round"/>
<line x1="505.0" y1="209.4" x2="491.2" y2="180.7" stroke="#7bc96f" stroke-width="1.55" opacity="0.70" stroke-linecap="round"/>
<line x1="491.2" y1="180.7" x2="472.2" y2="171.0" stroke="#d29922" stroke-width="1.20" opacity="0.60" stroke-linecap="round"/>
<line x1="491.2" y1="180.7" x2="492.9" y2="158.7" stroke="#d29922" stroke-width="1.20" opacity="0.60" stroke-linecap="round"/>
<line x1="505.0" y1="209.4" x2="531.9" y2="186.8" stroke="#7bc96f" stroke-width="1.55" opacity="0.70" stroke-linecap="round"/>
<line x1="531.9" y1="186.8" x2="552.4" y2="176.5" stroke="#d29922" stroke-width="1.20" opacity="0.60" stroke-linecap="round"/>
<line x1="492.0" y1="257.4" x2="543.0" y2="252.9" stroke="#3fb950" stroke-width="1.90" opacity="0.80" stroke-linecap="round"/>
<line x1="543.0" y1="252.9" x2="569.6" y2="230.7" stroke="#7bc96f" stroke-width="1.55" opacity="0.70" stroke-linecap="round"/>
<line x1="569.6" y1="230.7" x2="573.2" y2="208.1" stroke="#d29922" stroke-width="1.20" opacity="0.60" stroke-linecap="round"/>
<line x1="569.6" y1="230.7" x2="592.3" y2="229.0" stroke="#d29922" stroke-width="1.20" opacity="0.60" stroke-linecap="round"/>
<line x1="543.0" y1="252.9" x2="571.0" y2="269.4" stroke="#7bc96f" stroke-width="1.55" opacity="0.70" stroke-linecap="round"/>
<line x1="571.0" y1="269.4" x2="594.2" y2="266.9" stroke="#d29922" stroke-width="1.20" opacity="0.60" stroke-linecap="round"/>
<line x1="571.0" y1="269.4" x2="580.3" y2="289.3" stroke="#d29922" stroke-width="1.20" opacity="0.60" stroke-linecap="round"/>
<circle cx="514.8" cy="416.1" r="2.60" fill="#58a6ff" opacity="0.85"/>
<circle cx="579.1" cy="391.1" r="2.30" fill="#4f9ee0" opacity="0.85"/>
<circle cx="604.3" cy="351.9" r="2.00" fill="#3fb950" opacity="0.85"/>
<circle cx="604.6" cy="322.9" r="1.70" fill="#7bc96f" opacity="0.85"/>
<circle cx="631.5" cy="335.1" r="1.70" fill="#7bc96f" opacity="0.85"/>
<circle cx="624.1" cy="398.2" r="2.00" fill="#3fb950" opacity="0.85"/>
<circle cx="653.4" cy="385.3" r="1.70" fill="#7bc96f" opacity="0.85"/>
<circle cx="644.6" cy="419.8" r="1.70" fill="#7bc96f" opacity="0.85"/>
<circle cx="574.6" cy="453.0" r="2.30" fill="#4f9ee0" opacity="0.85"/>
<circle cx="624.5" cy="449.4" r="2.00" fill="#3fb950" opacity="0.85"/>
<circle cx="656.1" cy="434.3" r="1.70" fill="#7bc96f" opacity="0.85"/>
<circle cx="656.1" cy="463.3" r="1.70" fill="#7bc96f" opacity="0.85"/>
<circle cx="593.8" cy="493.5" r="2.00" fill="#3fb950" opacity="0.85"/>
<circle cx="617.9" cy="509.6" r="1.70" fill="#7bc96f" opacity="0.85"/>
<circle cx="591.9" cy="523.3" r="1.70" fill="#7bc96f" opacity="0.85"/>
<circle cx="447.3" cy="508.1" r="2.60" fill="#58a6ff" opacity="0.85"/>
<circle cx="510.7" cy="548.1" r="2.30" fill="#4f9ee0" opacity="0.85"/>
<circle cx="563.5" cy="540.9" r="2.00" fill="#3fb950" opacity="0.85"/>
<circle cx="596.7" cy="523.1" r="1.70" fill="#7bc96f" opacity="0.85"/>
<circle cx="594.9" cy="552.9" r="1.70" fill="#7bc96f" opacity="0.85"/>
<circle cx="531.0" cy="590.3" r="2.00" fill="#3fb950" opacity="0.85"/>
<circle cx="555.2" cy="613.2" r="1.70" fill="#7bc96f" opacity="0.85"/>
<circle cx="531.4" cy="621.7" r="1.70" fill="#7bc96f" opacity="0.85"/>
<circle cx="423.9" cy="569.5" r="2.30" fill="#4f9ee0" opacity="0.85"/>
<circle cx="435.8" cy="608.5" r="2.00" fill="#3fb950" opacity="0.85"/>
<circle cx="452.7" cy="629.5" r="1.70" fill="#7bc96f" opacity="0.85"/>
<circle cx="432.4" cy="635.4" r="1.70" fill="#7bc96f" opacity="0.85"/>
<circle cx="386.4" cy="594.6" r="2.00" fill="#3fb950" opacity="0.85"/>
<circle cx="376.4" cy="621.5" r="1.70" fill="#7bc96f" opacity="0.85"/>
<circle cx="356.0" cy="595.6" r="1.70" fill="#7bc96f" opacity="0.85"/>
<circle cx="321.4" cy="466.4" r="2.60" fill="#58a6ff" opacity="0.85"/>
<circle cx="280.4" cy="523.5" r="2.30" fill="#4f9ee0" opacity="0.85"/>
<circle cx="275.8" cy="567.9" r="2.00" fill="#3fb950" opacity="0.85"/>
<circle cx="292.8" cy="594.1" r="1.70" fill="#7bc96f" opacity="0.85"/>
<circle cx="252.7" cy="588.1" r="1.70" fill="#7bc96f" opacity="0.85"/>
<circle cx="238.0" cy="546.9" r="2.00" fill="#3fb950" opacity="0.85"/>
<circle cx="228.0" cy="577.0" r="1.70" fill="#7bc96f" opacity="0.85"/>
<circle cx="206.4" cy="541.1" r="1.70" fill="#7bc96f" opacity="0.85"/>
<circle cx="256.4" cy="474.1" r="2.30" fill="#4f9ee0" opacity="0.85"/>
<circle cx="220.4" cy="495.2" r="2.00" fill="#3fb950" opacity="0.85"/>
<circle cx="208.3" cy="518.2" r="1.70" fill="#7bc96f" opacity="0.85"/>
<circle cx="192.5" cy="495.2" r="1.70" fill="#7bc96f" opacity="0.85"/>
<circle cx="214.8" cy="462.1" r="2.00" fill="#3fb950" opacity="0.85"/>
<circle cx="188.2" cy="467.0" r="1.70" fill="#7bc96f" opacity="0.85"/>
<circle cx="192.0" cy="442.5" r="1.70" fill="#7bc96f" opacity="0.85"/>
<circle cx="324.6" cy="348.9" r="2.60" fill="#58a6ff" opacity="0.85"/>
<circle cx="250.0" cy="350.1" r="2.30" fill="#4f9ee0" opacity="0.85"/>
<circle cx="212.3" cy="378.0" r="2.00" fill="#3fb950" opacity="0.85"/>
<circle cx="202.6" cy="406.5" r="1.70" fill="#7bc96f" opacity="0.85"/>
<circle cx="181.2" cy="375.4" r="1.70" fill="#7bc96f" opacity="0.85"/>
<circle cx="211.1" cy="315.0" r="2.00" fill="#3fb950" opacity="0.85"/>
<circle cx="176.3" cy="301.8" r="1.70" fill="#7bc96f" opacity="0.85"/>
<circle cx="196.7" cy="280.7" r="1.70" fill="#7bc96f" opacity="0.85"/>
<circle cx="308.7" cy="280.4" r="2.30" fill="#4f9ee0" opacity="0.85"/>
<circle cx="269.0" cy="249.4" r="2.00" fill="#3fb950" opacity="0.85"/>
<circle cx="237.6" cy="244.9" r="1.70" fill="#7bc96f" opacity="0.85"/>
<circle cx="255.9" cy="216.4" r="1.70" fill="#7bc96f" opacity="0.85"/>
<circle cx="331.2" cy="238.4" r="2.00" fill="#3fb950" opacity="0.85"/>
<circle cx="326.4" cy="209.0" r="1.70" fill="#7bc96f" opacity="0.85"/>
<circle cx="359.3" cy="224.4" r="1.70" fill="#7bc96f" opacity="0.85"/>
<circle cx="436.9" cy="308.5" r="2.60" fill="#58a6ff" opacity="0.85"/>
<circle cx="409.5" cy="247.8" r="2.30" fill="#4f9ee0" opacity="0.85"/>
<circle cx="378.5" cy="215.7" r="2.00" fill="#3fb950" opacity="0.85"/>
<circle cx="349.5" cy="208.9" r="1.70" fill="#7bc96f" opacity="0.85"/>
<circle cx="372.8" cy="186.4" r="1.70" fill="#7bc96f" opacity="0.85"/>
<circle cx="408.8" cy="201.6" r="2.00" fill="#3fb950" opacity="0.85"/>
<circle cx="392.9" cy="176.4" r="1.70" fill="#7bc96f" opacity="0.85"/>
<circle cx="424.3" cy="172.5" r="1.70" fill="#7bc96f" opacity="0.85"/>
<circle cx="492.0" cy="257.4" r="2.30" fill="#4f9ee0" opacity="0.85"/>
<circle cx="505.0" cy="209.4" r="2.00" fill="#3fb950" opacity="0.85"/>
<circle cx="491.2" cy="180.7" r="1.70" fill="#7bc96f" opacity="0.85"/>
<circle cx="531.9" cy="186.8" r="1.70" fill="#7bc96f" opacity="0.85"/>
<circle cx="543.0" cy="252.9" r="2.00" fill="#3fb950" opacity="0.85"/>
<circle cx="569.6" cy="230.7" r="1.70" fill="#7bc96f" opacity="0.85"/>
<circle cx="571.0" cy="269.4" r="1.70" fill="#7bc96f" opacity="0.85"/>
<circle cx="611.0" cy="303.4" r="3" fill="none" stroke="#d29922" stroke-width="1" opacity="0.6"/>
<circle cx="645.6" cy="321.1" r="3" fill="none" stroke="#d29922" stroke-width="1" opacity="0.6"/>
<circle cx="669.2" cy="368.8" r="3" fill="none" stroke="#d29922" stroke-width="1" opacity="0.6"/>
<circle cx="673.9" cy="385.5" r="3" fill="none" stroke="#d29922" stroke-width="1" opacity="0.6"/>
<circle cx="664.6" cy="425.3" r="3" fill="none" stroke="#d29922" stroke-width="1" opacity="0.6"/>
<circle cx="647.1" cy="440.1" r="3" fill="none" stroke="#d29922" stroke-width="1" opacity="0.6"/>
<circle cx="671.5" cy="414.8" r="3" fill="none" stroke="#d29922" stroke-width="1" opacity="0.6"/>
<circle cx="681.0" cy="433.4" r="3" fill="none" stroke="#d29922" stroke-width="1" opacity="0.6"/>
<circle cx="680.7" cy="462.1" r="3" fill="none" stroke="#d29922" stroke-width="1" opacity="0.6"/>
<circle cx="670.1" cy="482.9" r="3" fill="none" stroke="#d29922" stroke-width="1" opacity="0.6"/>
<circle cx="635.9" cy="515.2" r="3" fill="none" stroke="#d29922" stroke-width="1" opacity="0.6"/>
<circle cx="601.2" cy="539.8" r="3" fill="none" stroke="#d29922" stroke-width="1" opacity="0.6"/>
<circle cx="581.8" cy="541.1" r="3" fill="none" stroke="#d29922" stroke-width="1" opacity="0.6"/>
<circle cx="610.7" cy="503.0" r="3" fill="none" stroke="#d29922" stroke-width="1" opacity="0.6"/>
<circle cx="620.1" cy="519.6" r="3" fill="none" stroke="#d29922" stroke-width="1" opacity="0.6"/>
<circle cx="615.4" cy="547.8" r="3" fill="none" stroke="#d29922" stroke-width="1" opacity="0.6"/>
<circle cx="607.2" cy="572.2" r="3" fill="none" stroke="#d29922" stroke-width="1" opacity="0.6"/>
<circle cx="575.9" cy="617.4" r="3" fill="none" stroke="#d29922" stroke-width="1" opacity="0.6"/>
<circle cx="562.5" cy="635.4" r="3" fill="none" stroke="#d29922" stroke-width="1" opacity="0.6"/>
<circle cx="540.8" cy="639.6" r="3" fill="none" stroke="#d29922" stroke-width="1" opacity="0.6"/>
<circle cx="524.7" cy="641.8" r="3" fill="none" stroke="#d29922" stroke-width="1" opacity="0.6"/>
<circle cx="462.3" cy="645.7" r="3" fill="none" stroke="#d29922" stroke-width="1" opacity="0.6"/>
<circle cx="433.8" cy="653.9" r="3" fill="none" stroke="#d29922" stroke-width="1" opacity="0.6"/>
<circle cx="383.3" cy="639.3" r="3" fill="none" stroke="#d29922" stroke-width="1" opacity="0.6"/>
<circle cx="359.8" cy="631.5" r="3" fill="none" stroke="#d29922" stroke-width="1" opacity="0.6"/>
<circle cx="340.6" cy="608.4" r="3" fill="none" stroke="#d29922" stroke-width="1" opacity="0.6"/>
<circle cx="338.0" cy="584.9" r="3" fill="none" stroke="#d29922" stroke-width="1" opacity="0.6"/>
<circle cx="307.1" cy="608.2" r="3" fill="none" stroke="#d29922" stroke-width="1" opacity="0.6"/>
<circle cx="235.8" cy="601.5" r="3" fill="none" stroke="#d29922" stroke-width="1" opacity="0.6"/>
<circle cx="220.8" cy="595.6" r="3" fill="none" stroke="#d29922" stroke-width="1" opacity="0.6"/>
<circle cx="187.9" cy="552.9" r="3" fill="none" stroke="#d29922" stroke-width="1" opacity="0.6"/>
<circle cx="191.6" cy="524.0" r="3" fill="none" stroke="#d29922" stroke-width="1" opacity="0.6"/>
<circle cx="202.8" cy="534.9" r="3" fill="none" stroke="#d29922" stroke-width="1" opacity="0.6"/>
<circle cx="177.2" cy="503.3" r="3" fill="none" stroke="#d29922" stroke-width="1" opacity="0.6"/>
<circle cx="175.2" cy="486.3" r="3" fill="none" stroke="#d29922" stroke-width="1" opacity="0.6"/>
<circle cx="175.4" cy="481.3" r="3" fill="none" stroke="#d29922" stroke-width="1" opacity="0.6"/>
<circle cx="172.9" cy="459.4" r="3" fill="none" stroke="#d29922" stroke-width="1" opacity="0.6"/>
<circle cx="170.8" cy="443.4" r="3" fill="none" stroke="#d29922" stroke-width="1" opacity="0.6"/>
<circle cx="189.2" cy="421.2" r="3" fill="none" stroke="#d29922" stroke-width="1" opacity="0.6"/>
<circle cx="196.3" cy="425.4" r="3" fill="none" stroke="#d29922" stroke-width="1" opacity="0.6"/>
<circle cx="161.8" cy="385.4" r="3" fill="none" stroke="#d29922" stroke-width="1" opacity="0.6"/>
<circle cx="165.3" cy="361.3" r="3" fill="none" stroke="#d29922" stroke-width="1" opacity="0.6"/>
<circle cx="151.4" cy="295.9" r="3" fill="none" stroke="#d29922" stroke-width="1" opacity="0.6"/>
<circle cx="190.7" cy="257.4" r="3" fill="none" stroke="#d29922" stroke-width="1" opacity="0.6"/>
<circle cx="219.5" cy="252.9" r="3" fill="none" stroke="#d29922" stroke-width="1" opacity="0.6"/>
<circle cx="223.1" cy="230.5" r="3" fill="none" stroke="#d29922" stroke-width="1" opacity="0.6"/>
<circle cx="249.3" cy="193.6" r="3" fill="none" stroke="#d29922" stroke-width="1" opacity="0.6"/>
<circle cx="316.8" cy="191.4" r="3" fill="none" stroke="#d29922" stroke-width="1" opacity="0.6"/>
<circle cx="380.9" cy="218.5" r="3" fill="none" stroke="#d29922" stroke-width="1" opacity="0.6"/>
<circle cx="330.9" cy="214.6" r="3" fill="none" stroke="#d29922" stroke-width="1" opacity="0.6"/>
<circle cx="332.6" cy="196.5" r="3" fill="none" stroke="#d29922" stroke-width="1" opacity="0.6"/>
<circle cx="359.7" cy="170.2" r="3" fill="none" stroke="#d29922" stroke-width="1" opacity="0.6"/>
<circle cx="381.0" cy="168.9" r="3" fill="none" stroke="#d29922" stroke-width="1" opacity="0.6"/>
<circle cx="373.7" cy="169.1" r="3" fill="none" stroke="#d29922" stroke-width="1" opacity="0.6"/>
<circle cx="394.4" cy="157.8" r="3" fill="none" stroke="#d29922" stroke-width="1" opacity="0.6"/>
<circle cx="435.9" cy="154.1" r="3" fill="none" stroke="#d29922" stroke-width="1" opacity="0.6"/>
<circle cx="472.2" cy="171.0" r="3" fill="none" stroke="#d29922" stroke-width="1" opacity="0.6"/>
<circle cx="492.9" cy="158.7" r="3" fill="none" stroke="#d29922" stroke-width="1" opacity="0.6"/>
<circle cx="552.4" cy="176.5" r="3" fill="none" stroke="#d29922" stroke-width="1" opacity="0.6"/>
<circle cx="573.2" cy="208.1" r="3" fill="none" stroke="#d29922" stroke-width="1" opacity="0.6"/>
<circle cx="592.3" cy="229.0" r="3" fill="none" stroke="#d29922" stroke-width="1" opacity="0.6"/>
<circle cx="594.2" cy="266.9" r="3" fill="none" stroke="#d29922" stroke-width="1" opacity="0.6"/>
<circle cx="580.3" cy="289.3" r="3" fill="none" stroke="#d29922" stroke-width="1" opacity="0.6"/>
<circle cx="410.0" cy="410.0" r="10" fill="#0d1117" stroke="#58a6ff" stroke-width="2"/>
<circle cx="410.0" cy="410.0" r="4" fill="#58a6ff"/>
<circle r="2.4" fill="#7ee787"><animateMotion dur="2.98s" begin="2.47s" repeatCount="indefinite" path="M378.5,215.7 L349.5,208.9"/></circle>
<circle r="2.4" fill="#f2cc60"><animateMotion dur="3.21s" begin="2.27s" repeatCount="indefinite" path="M409.5,247.8 L378.5,215.7"/></circle>
<circle r="2.4" fill="#79c0ff"><animateMotion dur="2.61s" begin="0.65s" repeatCount="indefinite" path="M574.6,453.0 L593.8,493.5"/></circle>
<circle r="2.4" fill="#7ee787"><animateMotion dur="3.62s" begin="0.46s" repeatCount="indefinite" path="M386.4,594.6 L356.0,595.6"/></circle>
<circle r="2.4" fill="#f2cc60"><animateMotion dur="2.85s" begin="1.36s" repeatCount="indefinite" path="M386.4,594.6 L376.4,621.5"/></circle>
<circle r="2.4" fill="#79c0ff"><animateMotion dur="2.32s" begin="1.97s" repeatCount="indefinite" path="M252.7,588.1 L235.8,601.5"/></circle>
<circle r="2.4" fill="#7ee787"><animateMotion dur="2.22s" begin="0.09s" repeatCount="indefinite" path="M237.6,244.9 L223.1,230.5"/></circle>
<text x="806" y="806" text-anchor="end" font-size="9" fill="#484f58" letter-spacing="1">// circuit_bloom.py — seed:20260715 — spokes:5 — regenerated daily</text>
</svg>