<svg viewBox="0 0 820 820" width="820" height="820" xmlns="http://www.w3.org/2000/svg" font-family="'Fira Code',monospace">
<defs>
<pattern id="g2" width="22" height="22" patternUnits="userSpaceOnUse">
<path d="M 22 0 L 0 0 0 22" fill="none" stroke="#30363d" stroke-width="0.4" opacity="0.3"/>
</pattern>
<radialGradient id="glow" cx="50%" cy="50%" r="50%">
<stop offset="0%" stop-color="#58a6ff" stop-opacity="0.35"/>
<stop offset="100%" stop-color="#58a6ff" stop-opacity="0"/>
</radialGradient>
</defs>
<rect x="0" y="0" width="820" height="820" fill="#0d1117"/>
<rect x="0" y="0" width="820" height="820" fill="url(#g2)"/>
<circle cx="410.0" cy="410.0" r="230" fill="url(#glow)"/>
<line x1="410.0" y1="410.0" x2="514.8" y2="403.1" stroke="#58a6ff" stroke-width="2.60" opacity="1.00" stroke-linecap="round"/>
<line x1="514.8" y1="403.1" x2="570.0" y2="358.1" stroke="#4f9ee0" stroke-width="2.25" opacity="0.90" stroke-linecap="round"/>
<line x1="570.0" y1="358.1" x2="589.0" y2="311.4" stroke="#3fb950" stroke-width="1.90" opacity="0.80" stroke-linecap="round"/>
<line x1="589.0" y1="311.4" x2="580.4" y2="279.2" stroke="#7bc96f" stroke-width="1.55" opacity="0.70" stroke-linecap="round"/>
<line x1="580.4" y1="279.2" x2="562.8" y2="264.9" stroke="#d29922" stroke-width="1.20" opacity="0.60" stroke-linecap="round"/>
<line x1="580.4" y1="279.2" x2="587.7" y2="259.1" stroke="#d29922" stroke-width="1.20" opacity="0.60" stroke-linecap="round"/>
<line x1="589.0" y1="311.4" x2="616.8" y2="296.2" stroke="#7bc96f" stroke-width="1.55" opacity="0.70" stroke-linecap="round"/>
<line x1="616.8" y1="296.2" x2="624.7" y2="276.5" stroke="#d29922" stroke-width="1.20" opacity="0.60" stroke-linecap="round"/>
<line x1="616.8" y1="296.2" x2="638.9" y2="298.7" stroke="#d29922" stroke-width="1.20" opacity="0.60" stroke-linecap="round"/>
<line x1="570.0" y1="358.1" x2="614.6" y2="349.7" stroke="#3fb950" stroke-width="1.90" opacity="0.80" stroke-linecap="round"/>
<line x1="614.6" y1="349.7" x2="637.9" y2="329.8" stroke="#7bc96f" stroke-width="1.55" opacity="0.70" stroke-linecap="round"/>
<line x1="637.9" y1="329.8" x2="651.8" y2="315.3" stroke="#d29922" stroke-width="1.20" opacity="0.60" stroke-linecap="round"/>
<line x1="614.6" y1="349.7" x2="643.0" y2="359.1" stroke="#7bc96f" stroke-width="1.55" opacity="0.70" stroke-linecap="round"/>
<line x1="643.0" y1="359.1" x2="659.2" y2="371.6" stroke="#d29922" stroke-width="1.20" opacity="0.60" stroke-linecap="round"/>
<line x1="514.8" y1="403.1" x2="580.8" y2="432.7" stroke="#4f9ee0" stroke-width="2.25" opacity="0.90" stroke-linecap="round"/>
<line x1="580.8" y1="432.7" x2="626.9" y2="429.5" stroke="#3fb950" stroke-width="1.90" opacity="0.80" stroke-linecap="round"/>
<line x1="626.9" y1="429.5" x2="652.9" y2="413.5" stroke="#7bc96f" stroke-width="1.55" opacity="0.70" stroke-linecap="round"/>
<line x1="652.9" y1="413.5" x2="663.2" y2="396.2" stroke="#d29922" stroke-width="1.20" opacity="0.60" stroke-linecap="round"/>
<line x1="652.9" y1="413.5" x2="672.4" y2="413.5" stroke="#d29922" stroke-width="1.20" opacity="0.60" stroke-linecap="round"/>
<line x1="626.9" y1="429.5" x2="657.3" y2="441.7" stroke="#7bc96f" stroke-width="1.55" opacity="0.70" stroke-linecap="round"/>
<line x1="657.3" y1="441.7" x2="679.4" y2="448.9" stroke="#d29922" stroke-width="1.20" opacity="0.60" stroke-linecap="round"/>
<line x1="580.8" y1="432.7" x2="610.5" y2="472.7" stroke="#3fb950" stroke-width="1.90" opacity="0.80" stroke-linecap="round"/>
<line x1="610.5" y1="472.7" x2="638.1" y2="487.7" stroke="#7bc96f" stroke-width="1.55" opacity="0.70" stroke-linecap="round"/>
<line x1="638.1" y1="487.7" x2="656.2" y2="497.8" stroke="#d29922" stroke-width="1.20" opacity="0.60" stroke-linecap="round"/>
<line x1="610.5" y1="472.7" x2="618.6" y2="506.4" stroke="#7bc96f" stroke-width="1.55" opacity="0.70" stroke-linecap="round"/>
<line x1="618.6" y1="506.4" x2="627.5" y2="526.2" stroke="#d29922" stroke-width="1.20" opacity="0.60" stroke-linecap="round"/>
<line x1="410.0" y1="410.0" x2="478.3" y2="489.8" stroke="#58a6ff" stroke-width="2.60" opacity="1.00" stroke-linecap="round"/>
<line x1="478.3" y1="489.8" x2="539.9" y2="513.2" stroke="#4f9ee0" stroke-width="2.25" opacity="0.90" stroke-linecap="round"/>
<line x1="539.9" y1="513.2" x2="582.0" y2="502.1" stroke="#3fb950" stroke-width="1.90" opacity="0.80" stroke-linecap="round"/>
<line x1="582.0" y1="502.1" x2="603.8" y2="480.1" stroke="#7bc96f" stroke-width="1.55" opacity="0.70" stroke-linecap="round"/>
<line x1="603.8" y1="480.1" x2="622.5" y2="470.3" stroke="#d29922" stroke-width="1.20" opacity="0.60" stroke-linecap="round"/>
<line x1="582.0" y1="502.1" x2="611.6" y2="510.4" stroke="#7bc96f" stroke-width="1.55" opacity="0.70" stroke-linecap="round"/>
<line x1="611.6" y1="510.4" x2="629.3" y2="519.1" stroke="#d29922" stroke-width="1.20" opacity="0.60" stroke-linecap="round"/>
<line x1="539.9" y1="513.2" x2="565.1" y2="548.9" stroke="#3fb950" stroke-width="1.90" opacity="0.80" stroke-linecap="round"/>
<line x1="565.1" y1="548.9" x2="591.9" y2="561.8" stroke="#7bc96f" stroke-width="1.55" opacity="0.70" stroke-linecap="round"/>
<line x1="591.9" y1="561.8" x2="608.0" y2="573.1" stroke="#d29922" stroke-width="1.20" opacity="0.60" stroke-linecap="round"/>
<line x1="565.1" y1="548.9" x2="569.0" y2="575.8" stroke="#7bc96f" stroke-width="1.55" opacity="0.70" stroke-linecap="round"/>
<line x1="569.0" y1="575.8" x2="567.6" y2="593.2" stroke="#d29922" stroke-width="1.20" opacity="0.60" stroke-linecap="round"/>
<line x1="478.3" y1="489.8" x2="496.4" y2="560.3" stroke="#4f9ee0" stroke-width="2.25" opacity="0.90" stroke-linecap="round"/>
<line x1="496.4" y1="560.3" x2="530.6" y2="597.6" stroke="#3fb950" stroke-width="1.90" opacity="0.80" stroke-linecap="round"/>
<line x1="530.6" y1="597.6" x2="561.3" y2="604.2" stroke="#7bc96f" stroke-width="1.55" opacity="0.70" stroke-linecap="round"/>
<line x1="561.3" y1="604.2" x2="582.7" y2="598.4" stroke="#d29922" stroke-width="1.20" opacity="0.60" stroke-linecap="round"/>
<line x1="561.3" y1="604.2" x2="578.2" y2="616.7" stroke="#d29922" stroke-width="1.20" opacity="0.60" stroke-linecap="round"/>
<line x1="530.6" y1="597.6" x2="533.8" y2="632.9" stroke="#7bc96f" stroke-width="1.55" opacity="0.70" stroke-linecap="round"/>
<line x1="533.8" y1="632.9" x2="540.4" y2="654.5" stroke="#d29922" stroke-width="1.20" opacity="0.60" stroke-linecap="round"/>
<line x1="496.4" y1="560.3" x2="485.3" y2="606.8" stroke="#3fb950" stroke-width="1.90" opacity="0.80" stroke-linecap="round"/>
<line x1="485.3" y1="606.8" x2="496.6" y2="637.5" stroke="#7bc96f" stroke-width="1.55" opacity="0.70" stroke-linecap="round"/>
<line x1="496.6" y1="637.5" x2="512.1" y2="650.6" stroke="#d29922" stroke-width="1.20" opacity="0.60" stroke-linecap="round"/>
<line x1="496.6" y1="637.5" x2="492.2" y2="658.4" stroke="#d29922" stroke-width="1.20" opacity="0.60" stroke-linecap="round"/>
<line x1="485.3" y1="606.8" x2="461.3" y2="627.6" stroke="#7bc96f" stroke-width="1.55" opacity="0.70" stroke-linecap="round"/>
<line x1="461.3" y1="627.6" x2="456.2" y2="649.6" stroke="#d29922" stroke-width="1.20" opacity="0.60" stroke-linecap="round"/>
<line x1="461.3" y1="627.6" x2="439.5" y2="628.0" stroke="#d29922" stroke-width="1.20" opacity="0.60" stroke-linecap="round"/>
<line x1="410.0" y1="410.0" x2="384.6" y2="511.9" stroke="#58a6ff" stroke-width="2.60" opacity="1.00" stroke-linecap="round"/>
<line x1="384.6" y1="511.9" x2="407.2" y2="578.2" stroke="#4f9ee0" stroke-width="2.25" opacity="0.90" stroke-linecap="round"/>
<line x1="407.2" y1="578.2" x2="443.9" y2="606.5" stroke="#3fb950" stroke-width="1.90" opacity="0.80" stroke-linecap="round"/>
<line x1="443.9" y1="606.5" x2="474.1" y2="607.9" stroke="#7bc96f" stroke-width="1.55" opacity="0.70" stroke-linecap="round"/>
<line x1="474.1" y1="607.9" x2="491.1" y2="599.4" stroke="#d29922" stroke-width="1.20" opacity="0.60" stroke-linecap="round"/>
<line x1="474.1" y1="607.9" x2="490.0" y2="620.9" stroke="#d29922" stroke-width="1.20" opacity="0.60" stroke-linecap="round"/>
<line x1="443.9" y1="606.5" x2="456.4" y2="635.0" stroke="#7bc96f" stroke-width="1.55" opacity="0.70" stroke-linecap="round"/>
<line x1="456.4" y1="635.0" x2="474.3" y2="645.0" stroke="#d29922" stroke-width="1.20" opacity="0.60" stroke-linecap="round"/>
<line x1="456.4" y1="635.0" x2="453.6" y2="655.6" stroke="#d29922" stroke-width="1.20" opacity="0.60" stroke-linecap="round"/>
<line x1="407.2" y1="578.2" x2="389.8" y2="623.1" stroke="#3fb950" stroke-width="1.90" opacity="0.80" stroke-linecap="round"/>
<line x1="389.8" y1="623.1" x2="395.3" y2="654.9" stroke="#7bc96f" stroke-width="1.55" opacity="0.70" stroke-linecap="round"/>
<line x1="395.3" y1="654.9" x2="411.5" y2="670.4" stroke="#d29922" stroke-width="1.20" opacity="0.60" stroke-linecap="round"/>
<line x1="395.3" y1="654.9" x2="384.1" y2="675.0" stroke="#d29922" stroke-width="1.20" opacity="0.60" stroke-linecap="round"/>
<line x1="389.8" y1="623.1" x2="362.6" y2="639.2" stroke="#7bc96f" stroke-width="1.55" opacity="0.70" stroke-linecap="round"/>
<line x1="362.6" y1="639.2" x2="348.2" y2="653.6" stroke="#d29922" stroke-width="1.20" opacity="0.60" stroke-linecap="round"/>
<line x1="384.6" y1="511.9" x2="336.1" y2="565.6" stroke="#4f9ee0" stroke-width="2.25" opacity="0.90" stroke-linecap="round"/>
<line x1="336.1" y1="565.6" x2="333.9" y2="612.6" stroke="#3fb950" stroke-width="1.90" opacity="0.80" stroke-linecap="round"/>
<line x1="333.9" y1="612.6" x2="350.8" y2="641.3" stroke="#7bc96f" stroke-width="1.55" opacity="0.70" stroke-linecap="round"/>
<line x1="350.8" y1="641.3" x2="368.5" y2="654.2" stroke="#d29922" stroke-width="1.20" opacity="0.60" stroke-linecap="round"/>
<line x1="350.8" y1="641.3" x2="352.9" y2="664.4" stroke="#d29922" stroke-width="1.20" opacity="0.60" stroke-linecap="round"/>
<line x1="333.9" y1="612.6" x2="314.2" y2="639.9" stroke="#7bc96f" stroke-width="1.55" opacity="0.70" stroke-linecap="round"/>
<line x1="314.2" y1="639.9" x2="305.7" y2="659.2" stroke="#d29922" stroke-width="1.20" opacity="0.60" stroke-linecap="round"/>
<line x1="336.1" y1="565.6" x2="285.2" y2="572.1" stroke="#3fb950" stroke-width="1.90" opacity="0.80" stroke-linecap="round"/>
<line x1="285.2" y1="572.1" x2="254.0" y2="590.8" stroke="#7bc96f" stroke-width="1.55" opacity="0.70" stroke-linecap="round"/>
<line x1="254.0" y1="590.8" x2="239.0" y2="607.8" stroke="#d29922" stroke-width="1.20" opacity="0.60" stroke-linecap="round"/>
<line x1="285.2" y1="572.1" x2="251.9" y2="561.2" stroke="#7bc96f" stroke-width="1.55" opacity="0.70" stroke-linecap="round"/>
<line x1="251.9" y1="561.2" x2="229.2" y2="561.2" stroke="#d29922" stroke-width="1.20" opacity="0.60" stroke-linecap="round"/>
<line x1="410.0" y1="410.0" x2="317.6" y2="459.9" stroke="#58a6ff" stroke-width="2.60" opacity="1.00" stroke-linecap="round"/>
<line x1="317.6" y1="459.9" x2="283.0" y2="515.4" stroke="#4f9ee0" stroke-width="2.25" opacity="0.90" stroke-linecap="round"/>
<line x1="283.0" y1="515.4" x2="279.4" y2="557.4" stroke="#3fb950" stroke-width="1.90" opacity="0.80" stroke-linecap="round"/>
<line x1="279.4" y1="557.4" x2="292.0" y2="583.4" stroke="#7bc96f" stroke-width="1.55" opacity="0.70" stroke-linecap="round"/>
<line x1="292.0" y1="583.4" x2="307.7" y2="593.4" stroke="#d29922" stroke-width="1.20" opacity="0.60" stroke-linecap="round"/>
<line x1="292.0" y1="583.4" x2="290.0" y2="602.5" stroke="#d29922" stroke-width="1.20" opacity="0.60" stroke-linecap="round"/>
<line x1="279.4" y1="557.4" x2="262.0" y2="581.8" stroke="#7bc96f" stroke-width="1.55" opacity="0.70" stroke-linecap="round"/>
<line x1="262.0" y1="581.8" x2="260.7" y2="602.3" stroke="#d29922" stroke-width="1.20" opacity="0.60" stroke-linecap="round"/>
<line x1="262.0" y1="581.8" x2="242.6" y2="586.7" stroke="#d29922" stroke-width="1.20" opacity="0.60" stroke-linecap="round"/>
<line x1="283.0" y1="515.4" x2="246.8" y2="535.9" stroke="#3fb950" stroke-width="1.90" opacity="0.80" stroke-linecap="round"/>
<line x1="246.8" y1="535.9" x2="235.8" y2="559.3" stroke="#7bc96f" stroke-width="1.55" opacity="0.70" stroke-linecap="round"/>
<line x1="235.8" y1="559.3" x2="240.3" y2="575.2" stroke="#d29922" stroke-width="1.20" opacity="0.60" stroke-linecap="round"/>
<line x1="235.8" y1="559.3" x2="220.3" y2="565.8" stroke="#d29922" stroke-width="1.20" opacity="0.60" stroke-linecap="round"/>
<line x1="246.8" y1="535.9" x2="218.8" y2="531.6" stroke="#7bc96f" stroke-width="1.55" opacity="0.70" stroke-linecap="round"/>
<line x1="218.8" y1="531.6" x2="199.8" y2="536.6" stroke="#d29922" stroke-width="1.20" opacity="0.60" stroke-linecap="round"/>
<line x1="218.8" y1="531.6" x2="203.5" y2="521.2" stroke="#d29922" stroke-width="1.20" opacity="0.60" stroke-linecap="round"/>
<line x1="317.6" y1="459.9" x2="246.8" y2="456.6" stroke="#4f9ee0" stroke-width="2.25" opacity="0.90" stroke-linecap="round"/>
<line x1="246.8" y1="456.6" x2="205.0" y2="481.3" stroke="#3fb950" stroke-width="1.90" opacity="0.80" stroke-linecap="round"/>
<line x1="205.0" y1="481.3" x2="195.8" y2="510.7" stroke="#7bc96f" stroke-width="1.55" opacity="0.70" stroke-linecap="round"/>
<line x1="195.8" y1="510.7" x2="192.6" y2="530.6" stroke="#d29922" stroke-width="1.20" opacity="0.60" stroke-linecap="round"/>
<line x1="205.0" y1="481.3" x2="173.5" y2="478.4" stroke="#7bc96f" stroke-width="1.55" opacity="0.70" stroke-linecap="round"/>
<line x1="173.5" y1="478.4" x2="156.2" y2="489.9" stroke="#d29922" stroke-width="1.20" opacity="0.60" stroke-linecap="round"/>
<line x1="173.5" y1="478.4" x2="158.0" y2="463.4" stroke="#d29922" stroke-width="1.20" opacity="0.60" stroke-linecap="round"/>
<line x1="246.8" y1="456.6" x2="207.9" y2="426.3" stroke="#3fb950" stroke-width="1.90" opacity="0.80" stroke-linecap="round"/>
<line x1="207.9" y1="426.3" x2="177.4" y2="420.9" stroke="#7bc96f" stroke-width="1.55" opacity="0.70" stroke-linecap="round"/>
<line x1="177.4" y1="420.9" x2="158.9" y2="429.4" stroke="#d29922" stroke-width="1.20" opacity="0.60" stroke-linecap="round"/>
<line x1="177.4" y1="420.9" x2="163.3" y2="407.8" stroke="#d29922" stroke-width="1.20" opacity="0.60" stroke-linecap="round"/>
<line x1="207.9" y1="426.3" x2="193.1" y2="399.0" stroke="#7bc96f" stroke-width="1.55" opacity="0.70" stroke-linecap="round"/>
<line x1="193.1" y1="399.0" x2="190.2" y2="379.3" stroke="#d29922" stroke-width="1.20" opacity="0.60" stroke-linecap="round"/>
<line x1="410.0" y1="410.0" x2="315.8" y2="363.6" stroke="#58a6ff" stroke-width="2.60" opacity="1.00" stroke-linecap="round"/>
<line x1="315.8" y1="363.6" x2="246.6" y2="367.9" stroke="#4f9ee0" stroke-width="2.25" opacity="0.90" stroke-linecap="round"/>
<line x1="246.6" y1="367.9" x2="205.8" y2="395.4" stroke="#3fb950" stroke-width="1.90" opacity="0.80" stroke-linecap="round"/>
<line x1="205.8" y1="395.4" x2="190.3" y2="424.7" stroke="#7bc96f" stroke-width="1.55" opacity="0.70" stroke-linecap="round"/>
<line x1="190.3" y1="424.7" x2="174.9" y2="442.7" stroke="#d29922" stroke-width="1.20" opacity="0.60" stroke-linecap="round"/>
<line x1="205.8" y1="395.4" x2="172.3" y2="401.1" stroke="#7bc96f" stroke-width="1.55" opacity="0.70" stroke-linecap="round"/>
<line x1="172.3" y1="401.1" x2="155.1" y2="415.1" stroke="#d29922" stroke-width="1.20" opacity="0.60" stroke-linecap="round"/>
<line x1="172.3" y1="401.1" x2="149.1" y2="394.6" stroke="#d29922" stroke-width="1.20" opacity="0.60" stroke-linecap="round"/>
<line x1="246.6" y1="367.9" x2="202.9" y2="348.9" stroke="#3fb950" stroke-width="1.90" opacity="0.80" stroke-linecap="round"/>
<line x1="202.9" y1="348.9" x2="173.3" y2="358.3" stroke="#7bc96f" stroke-width="1.55" opacity="0.70" stroke-linecap="round"/>
<line x1="173.3" y1="358.3" x2="153.7" y2="366.2" stroke="#d29922" stroke-width="1.20" opacity="0.60" stroke-linecap="round"/>
<line x1="202.9" y1="348.9" x2="190.5" y2="321.9" stroke="#7bc96f" stroke-width="1.55" opacity="0.70" stroke-linecap="round"/>
<line x1="190.5" y1="321.9" x2="178.1" y2="307.1" stroke="#d29922" stroke-width="1.20" opacity="0.60" stroke-linecap="round"/>
<line x1="315.8" y1="363.6" x2="273.2" y2="310.8" stroke="#4f9ee0" stroke-width="2.25" opacity="0.90" stroke-linecap="round"/>
<line x1="273.2" y1="310.8" x2="228.2" y2="294.0" stroke="#3fb950" stroke-width="1.90" opacity="0.80" stroke-linecap="round"/>
<line x1="228.2" y1="294.0" x2="194.2" y2="296.1" stroke="#7bc96f" stroke-width="1.55" opacity="0.70" stroke-linecap="round"/>
<line x1="194.2" y1="296.1" x2="174.3" y2="305.7" stroke="#d29922" stroke-width="1.20" opacity="0.60" stroke-linecap="round"/>
<line x1="194.2" y1="296.1" x2="174.2" y2="288.1" stroke="#d29922" stroke-width="1.20" opacity="0.60" stroke-linecap="round"/>
<line x1="228.2" y1="294.0" x2="206.2" y2="273.1" stroke="#7bc96f" stroke-width="1.55" opacity="0.70" stroke-linecap="round"/>
<line x1="206.2" y1="273.1" x2="187.3" y2="264.3" stroke="#d29922" stroke-width="1.20" opacity="0.60" stroke-linecap="round"/>
<line x1="273.2" y1="310.8" x2="264.3" y2="263.9" stroke="#3fb950" stroke-width="1.90" opacity="0.80" stroke-linecap="round"/>
<line x1="264.3" y1="263.9" x2="246.0" y2="234.9" stroke="#7bc96f" stroke-width="1.55" opacity="0.70" stroke-linecap="round"/>
<line x1="246.0" y1="234.9" x2="225.9" y2="222.4" stroke="#d29922" stroke-width="1.20" opacity="0.60" stroke-linecap="round"/>
<line x1="246.0" y1="234.9" x2="243.5" y2="212.8" stroke="#d29922" stroke-width="1.20" opacity="0.60" stroke-linecap="round"/>
<line x1="264.3" y1="263.9" x2="270.6" y2="230.9" stroke="#7bc96f" stroke-width="1.55" opacity="0.70" stroke-linecap="round"/>
<line x1="270.6" y1="230.9" x2="262.1" y2="208.6" stroke="#d29922" stroke-width="1.20" opacity="0.60" stroke-linecap="round"/>
<line x1="270.6" y1="230.9" x2="285.8" y2="212.8" stroke="#d29922" stroke-width="1.20" opacity="0.60" stroke-linecap="round"/>
<line x1="410.0" y1="410.0" x2="387.8" y2="307.4" stroke="#58a6ff" stroke-width="2.60" opacity="1.00" stroke-linecap="round"/>
<line x1="387.8" y1="307.4" x2="342.7" y2="251.1" stroke="#4f9ee0" stroke-width="2.25" opacity="0.90" stroke-linecap="round"/>
<line x1="342.7" y1="251.1" x2="303.4" y2="228.2" stroke="#3fb950" stroke-width="1.90" opacity="0.80" stroke-linecap="round"/>
<line x1="303.4" y1="228.2" x2="274.6" y2="232.6" stroke="#7bc96f" stroke-width="1.55" opacity="0.70" stroke-linecap="round"/>
<line x1="274.6" y1="232.6" x2="255.6" y2="239.0" stroke="#d29922" stroke-width="1.20" opacity="0.60" stroke-linecap="round"/>
<line x1="303.4" y1="228.2" x2="292.6" y2="198.4" stroke="#7bc96f" stroke-width="1.55" opacity="0.70" stroke-linecap="round"/>
<line x1="292.6" y1="198.4" x2="292.3" y2="176.8" stroke="#d29922" stroke-width="1.20" opacity="0.60" stroke-linecap="round"/>
<line x1="342.7" y1="251.1" x2="331.8" y2="205.4" stroke="#3fb950" stroke-width="1.90" opacity="0.80" stroke-linecap="round"/>
<line x1="331.8" y1="205.4" x2="309.6" y2="185.2" stroke="#7bc96f" stroke-width="1.55" opacity="0.70" stroke-linecap="round"/>
<line x1="309.6" y1="185.2" x2="290.5" y2="179.6" stroke="#d29922" stroke-width="1.20" opacity="0.60" stroke-linecap="round"/>
<line x1="309.6" y1="185.2" x2="301.2" y2="165.7" stroke="#d29922" stroke-width="1.20" opacity="0.60" stroke-linecap="round"/>
<line x1="331.8" y1="205.4" x2="344.8" y2="179.2" stroke="#7bc96f" stroke-width="1.55" opacity="0.70" stroke-linecap="round"/>
<line x1="344.8" y1="179.2" x2="344.0" y2="159.1" stroke="#d29922" stroke-width="1.20" opacity="0.60" stroke-linecap="round"/>
<line x1="344.8" y1="179.2" x2="362.7" y2="169.5" stroke="#d29922" stroke-width="1.20" opacity="0.60" stroke-linecap="round"/>
<line x1="387.8" y1="307.4" x2="397.7" y2="235.5" stroke="#4f9ee0" stroke-width="2.25" opacity="0.90" stroke-linecap="round"/>
<line x1="397.7" y1="235.5" x2="379.1" y2="192.4" stroke="#3fb950" stroke-width="1.90" opacity="0.80" stroke-linecap="round"/>
<line x1="379.1" y1="192.4" x2="355.9" y2="169.0" stroke="#7bc96f" stroke-width="1.55" opacity="0.70" stroke-linecap="round"/>
<line x1="355.9" y1="169.0" x2="336.1" y2="157.9" stroke="#d29922" stroke-width="1.20" opacity="0.60" stroke-linecap="round"/>
<line x1="379.1" y1="192.4" x2="377.3" y2="161.1" stroke="#7bc96f" stroke-width="1.55" opacity="0.70" stroke-linecap="round"/>
<line x1="377.3" y1="161.1" x2="372.2" y2="141.6" stroke="#d29922" stroke-width="1.20" opacity="0.60" stroke-linecap="round"/>
<line x1="397.7" y1="235.5" x2="430.0" y2="194.9" stroke="#3fb950" stroke-width="1.90" opacity="0.80" stroke-linecap="round"/>
<line x1="430.0" y1="194.9" x2="434.0" y2="159.3" stroke="#7bc96f" stroke-width="1.55" opacity="0.70" stroke-linecap="round"/>
<line x1="434.0" y1="159.3" x2="422.4" y2="139.9" stroke="#d29922" stroke-width="1.20" opacity="0.60" stroke-linecap="round"/>
<line x1="434.0" y1="159.3" x2="449.8" y2="143.4" stroke="#d29922" stroke-width="1.20" opacity="0.60" stroke-linecap="round"/>
<line x1="430.0" y1="194.9" x2="462.5" y2="185.2" stroke="#7bc96f" stroke-width="1.55" opacity="0.70" stroke-linecap="round"/>
<line x1="462.5" y1="185.2" x2="480.5" y2="172.1" stroke="#d29922" stroke-width="1.20" opacity="0.60" stroke-linecap="round"/>
<line x1="410.0" y1="410.0" x2="473.3" y2="326.2" stroke="#58a6ff" stroke-width="2.60" opacity="1.00" stroke-linecap="round"/>
<line x1="473.3" y1="326.2" x2="476.4" y2="260.1" stroke="#4f9ee0" stroke-width="2.25" opacity="0.90" stroke-linecap="round"/>
<line x1="476.4" y1="260.1" x2="454.3" y2="218.6" stroke="#3fb950" stroke-width="1.90" opacity="0.80" stroke-linecap="round"/>
<line x1="454.3" y1="218.6" x2="425.7" y2="205.9" stroke="#7bc96f" stroke-width="1.55" opacity="0.70" stroke-linecap="round"/>
<line x1="425.7" y1="205.9" x2="405.0" y2="204.9" stroke="#d29922" stroke-width="1.20" opacity="0.60" stroke-linecap="round"/>
<line x1="425.7" y1="205.9" x2="411.3" y2="188.6" stroke="#d29922" stroke-width="1.20" opacity="0.60" stroke-linecap="round"/>
<line x1="454.3" y1="218.6" x2="456.6" y2="188.6" stroke="#7bc96f" stroke-width="1.55" opacity="0.70" stroke-linecap="round"/>
<line x1="456.6" y1="188.6" x2="464.9" y2="170.2" stroke="#d29922" stroke-width="1.20" opacity="0.60" stroke-linecap="round"/>
<line x1="476.4" y1="260.1" x2="500.5" y2="224.2" stroke="#3fb950" stroke-width="1.90" opacity="0.80" stroke-linecap="round"/>
<line x1="500.5" y1="224.2" x2="503.0" y2="193.6" stroke="#7bc96f" stroke-width="1.55" opacity="0.70" stroke-linecap="round"/>
<line x1="503.0" y1="193.6" x2="496.8" y2="172.9" stroke="#d29922" stroke-width="1.20" opacity="0.60" stroke-linecap="round"/>
<line x1="503.0" y1="193.6" x2="512.7" y2="176.8" stroke="#d29922" stroke-width="1.20" opacity="0.60" stroke-linecap="round"/>
<line x1="500.5" y1="224.2" x2="527.5" y2="214.3" stroke="#7bc96f" stroke-width="1.55" opacity="0.70" stroke-linecap="round"/>
<line x1="527.5" y1="214.3" x2="540.5" y2="198.3" stroke="#d29922" stroke-width="1.20" opacity="0.60" stroke-linecap="round"/>
<line x1="527.5" y1="214.3" x2="546.4" y2="217.8" stroke="#d29922" stroke-width="1.20" opacity="0.60" stroke-linecap="round"/>
<line x1="473.3" y1="326.2" x2="543.6" y2="311.2" stroke="#4f9ee0" stroke-width="2.25" opacity="0.90" stroke-linecap="round"/>
<line x1="543.6" y1="311.2" x2="574.4" y2="276.5" stroke="#3fb950" stroke-width="1.90" opacity="0.80" stroke-linecap="round"/>
<line x1="574.4" y1="276.5" x2="579.7" y2="244.7" stroke="#7bc96f" stroke-width="1.55" opacity="0.70" stroke-linecap="round"/>
<line x1="579.7" y1="244.7" x2="582.5" y2="224.7" stroke="#d29922" stroke-width="1.20" opacity="0.60" stroke-linecap="round"/>
<line x1="574.4" y1="276.5" x2="604.5" y2="265.6" stroke="#7bc96f" stroke-width="1.55" opacity="0.70" stroke-linecap="round"/>
<line x1="604.5" y1="265.6" x2="623.9" y2="257.0" stroke="#d29922" stroke-width="1.20" opacity="0.60" stroke-linecap="round"/>
<line x1="543.6" y1="311.2" x2="585.6" y2="330.6" stroke="#3fb950" stroke-width="1.90" opacity="0.80" stroke-linecap="round"/>
<line x1="585.6" y1="330.6" x2="613.9" y2="325.0" stroke="#7bc96f" stroke-width="1.55" opacity="0.70" stroke-linecap="round"/>
<line x1="613.9" y1="325.0" x2="628.3" y2="310.3" stroke="#d29922" stroke-width="1.20" opacity="0.60" stroke-linecap="round"/>
<line x1="613.9" y1="325.0" x2="631.9" y2="333.4" stroke="#d29922" stroke-width="1.20" opacity="0.60" stroke-linecap="round"/>
<line x1="585.6" y1="330.6" x2="600.6" y2="356.3" stroke="#7bc96f" stroke-width="1.55" opacity="0.70" stroke-linecap="round"/>
<line x1="600.6" y1="356.3" x2="607.3" y2="374.0" stroke="#d29922" stroke-width="1.20" opacity="0.60" stroke-linecap="round"/>
<circle cx="514.8" cy="403.1" r="2.60" fill="#58a6ff" opacity="0.85"/>
<circle cx="570.0" cy="358.1" r="2.30" fill="#4f9ee0" opacity="0.85"/>
<circle cx="589.0" cy="311.4" r="2.00" fill="#3fb950" opacity="0.85"/>
<circle cx="580.4" cy="279.2" r="1.70" fill="#7bc96f" opacity="0.85"/>
<circle cx="616.8" cy="296.2" r="1.70" fill="#7bc96f" opacity="0.85"/>
<circle cx="614.6" cy="349.7" r="2.00" fill="#3fb950" opacity="0.85"/>
<circle cx="637.9" cy="329.8" r="1.70" fill="#7bc96f" opacity="0.85"/>
<circle cx="643.0" cy="359.1" r="1.70" fill="#7bc96f" opacity="0.85"/>
<circle cx="580.8" cy="432.7" r="2.30" fill="#4f9ee0" opacity="0.85"/>
<circle cx="626.9" cy="429.5" r="2.00" fill="#3fb950" opacity="0.85"/>
<circle cx="652.9" cy="413.5" r="1.70" fill="#7bc96f" opacity="0.85"/>
<circle cx="657.3" cy="441.7" r="1.70" fill="#7bc96f" opacity="0.85"/>
<circle cx="610.5" cy="472.7" r="2.00" fill="#3fb950" opacity="0.85"/>
<circle cx="638.1" cy="487.7" r="1.70" fill="#7bc96f" opacity="0.85"/>
<circle cx="618.6" cy="506.4" r="1.70" fill="#7bc96f" opacity="0.85"/>
<circle cx="478.3" cy="489.8" r="2.60" fill="#58a6ff" opacity="0.85"/>
<circle cx="539.9" cy="513.2" r="2.30" fill="#4f9ee0" opacity="0.85"/>
<circle cx="582.0" cy="502.1" r="2.00" fill="#3fb950" opacity="0.85"/>
<circle cx="603.8" cy="480.1" r="1.70" fill="#7bc96f" opacity="0.85"/>
<circle cx="611.6" cy="510.4" r="1.70" fill="#7bc96f" opacity="0.85"/>
<circle cx="565.1" cy="548.9" r="2.00" fill="#3fb950" opacity="0.85"/>
<circle cx="591.9" cy="561.8" r="1.70" fill="#7bc96f" opacity="0.85"/>
<circle cx="569.0" cy="575.8" r="1.70" fill="#7bc96f" opacity="0.85"/>
<circle cx="496.4" cy="560.3" r="2.30" fill="#4f9ee0" opacity="0.85"/>
<circle cx="530.6" cy="597.6" r="2.00" fill="#3fb950" opacity="0.85"/>
<circle cx="561.3" cy="604.2" r="1.70" fill="#7bc96f" opacity="0.85"/>
<circle cx="533.8" cy="632.9" r="1.70" fill="#7bc96f" opacity="0.85"/>
<circle cx="485.3" cy="606.8" r="2.00" fill="#3fb950" opacity="0.85"/>
<circle cx="496.6" cy="637.5" r="1.70" fill="#7bc96f" opacity="0.85"/>
<circle cx="461.3" cy="627.6" r="1.70" fill="#7bc96f" opacity="0.85"/>
<circle cx="384.6" cy="511.9" r="2.60" fill="#58a6ff" opacity="0.85"/>
<circle cx="407.2" cy="578.2" r="2.30" fill="#4f9ee0" opacity="0.85"/>
<circle cx="443.9" cy="606.5" r="2.00" fill="#3fb950" opacity="0.85"/>
<circle cx="474.1" cy="607.9" r="1.70" fill="#7bc96f" opacity="0.85"/>
<circle cx="456.4" cy="635.0" r="1.70" fill="#7bc96f" opacity="0.85"/>
<circle cx="389.8" cy="623.1" r="2.00" fill="#3fb950" opacity="0.85"/>
<circle cx="395.3" cy="654.9" r="1.70" fill="#7bc96f" opacity="0.85"/>
<circle cx="362.6" cy="639.2" r="1.70" fill="#7bc96f" opacity="0.85"/>
<circle cx="336.1" cy="565.6" r="2.30" fill="#4f9ee0" opacity="0.85"/>
<circle cx="333.9" cy="612.6" r="2.00" fill="#3fb950" opacity="0.85"/>
<circle cx="350.8" cy="641.3" r="1.70" fill="#7bc96f" opacity="0.85"/>
<circle cx="314.2" cy="639.9" r="1.70" fill="#7bc96f" opacity="0.85"/>
<circle cx="285.2" cy="572.1" r="2.00" fill="#3fb950" opacity="0.85"/>
<circle cx="254.0" cy="590.8" r="1.70" fill="#7bc96f" opacity="0.85"/>
<circle cx="251.9" cy="561.2" r="1.70" fill="#7bc96f" opacity="0.85"/>
<circle cx="317.6" cy="459.9" r="2.60" fill="#58a6ff" opacity="0.85"/>
<circle cx="283.0" cy="515.4" r="2.30" fill="#4f9ee0" opacity="0.85"/>
<circle cx="279.4" cy="557.4" r="2.00" fill="#3fb950" opacity="0.85"/>
<circle cx="292.0" cy="583.4" r="1.70" fill="#7bc96f" opacity="0.85"/>
<circle cx="262.0" cy="581.8" r="1.70" fill="#7bc96f" opacity="0.85"/>
<circle cx="246.8" cy="535.9" r="2.00" fill="#3fb950" opacity="0.85"/>
<circle cx="235.8" cy="559.3" r="1.70" fill="#7bc96f" opacity="0.85"/>
<circle cx="218.8" cy="531.6" r="1.70" fill="#7bc96f" opacity="0.85"/>
<circle cx="246.8" cy="456.6" r="2.30" fill="#4f9ee0" opacity="0.85"/>
<circle cx="205.0" cy="481.3" r="2.00" fill="#3fb950" opacity="0.85"/>
<circle cx="195.8" cy="510.7" r="1.70" fill="#7bc96f" opacity="0.85"/>
<circle cx="173.5" cy="478.4" r="1.70" fill="#7bc96f" opacity="0.85"/>
<circle cx="207.9" cy="426.3" r="2.00" fill="#3fb950" opacity="0.85"/>
<circle cx="177.4" cy="420.9" r="1.70" fill="#7bc96f" opacity="0.85"/>
<circle cx="193.1" cy="399.0" r="1.70" fill="#7bc96f" opacity="0.85"/>
<circle cx="315.8" cy="363.6" r="2.60" fill="#58a6ff" opacity="0.85"/>
<circle cx="246.6" cy="367.9" r="2.30" fill="#4f9ee0" opacity="0.85"/>
<circle cx="205.8" cy="395.4" r="2.00" fill="#3fb950" opacity="0.85"/>
<circle cx="190.3" cy="424.7" r="1.70" fill="#7bc96f" opacity="0.85"/>
<circle cx="172.3" cy="401.1" r="1.70" fill="#7bc96f" opacity="0.85"/>
<circle cx="202.9" cy="348.9" r="2.00" fill="#3fb950" opacity="0.85"/>
<circle cx="173.3" cy="358.3" r="1.70" fill="#7bc96f" opacity="0.85"/>
<circle cx="190.5" cy="321.9" r="1.70" fill="#7bc96f" opacity="0.85"/>
<circle cx="273.2" cy="310.8" r="2.30" fill="#4f9ee0" opacity="0.85"/>
<circle cx="228.2" cy="294.0" r="2.00" fill="#3fb950" opacity="0.85"/>
<circle cx="194.2" cy="296.1" r="1.70" fill="#7bc96f" opacity="0.85"/>
<circle cx="206.2" cy="273.1" r="1.70" fill="#7bc96f" opacity="0.85"/>
<circle cx="264.3" cy="263.9" r="2.00" fill="#3fb950" opacity="0.85"/>
<circle cx="246.0" cy="234.9" r="1.70" fill="#7bc96f" opacity="0.85"/>
<circle cx="270.6" cy="230.9" r="1.70" fill="#7bc96f" opacity="0.85"/>
<circle cx="387.8" cy="307.4" r="2.60" fill="#58a6ff" opacity="0.85"/>
<circle cx="342.7" cy="251.1" r="2.30" fill="#4f9ee0" opacity="0.85"/>
<circle cx="303.4" cy="228.2" r="2.00" fill="#3fb950" opacity="0.85"/>
<circle cx="274.6" cy="232.6" r="1.70" fill="#7bc96f" opacity="0.85"/>
<circle cx="292.6" cy="198.4" r="1.70" fill="#7bc96f" opacity="0.85"/>
<circle cx="331.8" cy="205.4" r="2.00" fill="#3fb950" opacity="0.85"/>
<circle cx="309.6" cy="185.2" r="1.70" fill="#7bc96f" opacity="0.85"/>
<circle cx="344.8" cy="179.2" r="1.70" fill="#7bc96f" opacity="0.85"/>
<circle cx="397.7" cy="235.5" r="2.30" fill="#4f9ee0" opacity="0.85"/>
<circle cx="379.1" cy="192.4" r="2.00" fill="#3fb950" opacity="0.85"/>
<circle cx="355.9" cy="169.0" r="1.70" fill="#7bc96f" opacity="0.85"/>
<circle cx="377.3" cy="161.1" r="1.70" fill="#7bc96f" opacity="0.85"/>
<circle cx="430.0" cy="194.9" r="2.00" fill="#3fb950" opacity="0.85"/>
<circle cx="434.0" cy="159.3" r="1.70" fill="#7bc96f" opacity="0.85"/>
<circle cx="462.5" cy="185.2" r="1.70" fill="#7bc96f" opacity="0.85"/>
<circle cx="473.3" cy="326.2" r="2.60" fill="#58a6ff" opacity="0.85"/>
<circle cx="476.4" cy="260.1" r="2.30" fill="#4f9ee0" opacity="0.85"/>
<circle cx="454.3" cy="218.6" r="2.00" fill="#3fb950" opacity="0.85"/>
<circle cx="425.7" cy="205.9" r="1.70" fill="#7bc96f" opacity="0.85"/>
<circle cx="456.6" cy="188.6" r="1.70" fill="#7bc96f" opacity="0.85"/>
<circle cx="500.5" cy="224.2" r="2.00" fill="#3fb950" opacity="0.85"/>
<circle cx="503.0" cy="193.6" r="1.70" fill="#7bc96f" opacity="0.85"/>
<circle cx="527.5" cy="214.3" r="1.70" fill="#7bc96f" opacity="0.85"/>
<circle cx="543.6" cy="311.2" r="2.30" fill="#4f9ee0" opacity="0.85"/>
<circle cx="574.4" cy="276.5" r="2.00" fill="#3fb950" opacity="0.85"/>
<circle cx="579.7" cy="244.7" r="1.70" fill="#7bc96f" opacity="0.85"/>
<circle cx="604.5" cy="265.6" r="1.70" fill="#7bc96f" opacity="0.85"/>
<circle cx="585.6" cy="330.6" r="2.00" fill="#3fb950" opacity="0.85"/>
<circle cx="613.9" cy="325.0" r="1.70" fill="#7bc96f" opacity="0.85"/>
<circle cx="600.6" cy="356.3" r="1.70" fill="#7bc96f" opacity="0.85"/>
<circle cx="562.8" cy="264.9" r="3" fill="none" stroke="#d29922" stroke-width="1" opacity="0.6"/>
<circle cx="587.7" cy="259.1" r="3" fill="none" stroke="#d29922" stroke-width="1" opacity="0.6"/>
<circle cx="624.7" cy="276.5" r="3" fill="none" stroke="#d29922" stroke-width="1" opacity="0.6"/>
<circle cx="638.9" cy="298.7" r="3" fill="none" stroke="#d29922" stroke-width="1" opacity="0.6"/>
<circle cx="651.8" cy="315.3" r="3" fill="none" stroke="#d29922" stroke-width="1" opacity="0.6"/>
<circle cx="659.2" cy="371.6" r="3" fill="none" stroke="#d29922" stroke-width="1" opacity="0.6"/>
<circle cx="663.2" cy="396.2" r="3" fill="none" stroke="#d29922" stroke-width="1" opacity="0.6"/>
<circle cx="672.4" cy="413.5" r="3" fill="none" stroke="#d29922" stroke-width="1" opacity="0.6"/>
<circle cx="679.4" cy="448.9" r="3" fill="none" stroke="#d29922" stroke-width="1" opacity="0.6"/>
<circle cx="656.2" cy="497.8" r="3" fill="none" stroke="#d29922" stroke-width="1" opacity="0.6"/>
<circle cx="627.5" cy="526.2" r="3" fill="none" stroke="#d29922" stroke-width="1" opacity="0.6"/>
<circle cx="622.5" cy="470.3" r="3" fill="none" stroke="#d29922" stroke-width="1" opacity="0.6"/>
<circle cx="629.3" cy="519.1" r="3" fill="none" stroke="#d29922" stroke-width="1" opacity="0.6"/>
<circle cx="608.0" cy="573.1" r="3" fill="none" stroke="#d29922" stroke-width="1" opacity="0.6"/>
<circle cx="567.6" cy="593.2" r="3" fill="none" stroke="#d29922" stroke-width="1" opacity="0.6"/>
<circle cx="582.7" cy="598.4" r="3" fill="none" stroke="#d29922" stroke-width="1" opacity="0.6"/>
<circle cx="578.2" cy="616.7" r="3" fill="none" stroke="#d29922" stroke-width="1" opacity="0.6"/>
<circle cx="540.4" cy="654.5" r="3" fill="none" stroke="#d29922" stroke-width="1" opacity="0.6"/>
<circle cx="512.1" cy="650.6" r="3" fill="none" stroke="#d29922" stroke-width="1" opacity="0.6"/>
<circle cx="492.2" cy="658.4" r="3" fill="none" stroke="#d29922" stroke-width="1" opacity="0.6"/>
<circle cx="456.2" cy="649.6" r="3" fill="none" stroke="#d29922" stroke-width="1" opacity="0.6"/>
<circle cx="439.5" cy="628.0" r="3" fill="none" stroke="#d29922" stroke-width="1" opacity="0.6"/>
<circle cx="491.1" cy="599.4" r="3" fill="none" stroke="#d29922" stroke-width="1" opacity="0.6"/>
<circle cx="490.0" cy="620.9" r="3" fill="none" stroke="#d29922" stroke-width="1" opacity="0.6"/>
<circle cx="474.3" cy="645.0" r="3" fill="none" stroke="#d29922" stroke-width="1" opacity="0.6"/>
<circle cx="453.6" cy="655.6" r="3" fill="none" stroke="#d29922" stroke-width="1" opacity="0.6"/>
<circle cx="411.5" cy="670.4" r="3" fill="none" stroke="#d29922" stroke-width="1" opacity="0.6"/>
<circle cx="384.1" cy="675.0" r="3" fill="none" stroke="#d29922" stroke-width="1" opacity="0.6"/>
<circle cx="348.2" cy="653.6" r="3" fill="none" stroke="#d29922" stroke-width="1" opacity="0.6"/>
<circle cx="368.5" cy="654.2" r="3" fill="none" stroke="#d29922" stroke-width="1" opacity="0.6"/>
<circle cx="352.9" cy="664.4" r="3" fill="none" stroke="#d29922" stroke-width="1" opacity="0.6"/>
<circle cx="305.7" cy="659.2" r="3" fill="none" stroke="#d29922" stroke-width="1" opacity="0.6"/>
<circle cx="239.0" cy="607.8" r="3" fill="none" stroke="#d29922" stroke-width="1" opacity="0.6"/>
<circle cx="229.2" cy="561.2" r="3" fill="none" stroke="#d29922" stroke-width="1" opacity="0.6"/>
<circle cx="307.7" cy="593.4" r="3" fill="none" stroke="#d29922" stroke-width="1" opacity="0.6"/>
<circle cx="290.0" cy="602.5" r="3" fill="none" stroke="#d29922" stroke-width="1" opacity="0.6"/>
<circle cx="260.7" cy="602.3" r="3" fill="none" stroke="#d29922" stroke-width="1" opacity="0.6"/>
<circle cx="242.6" cy="586.7" r="3" fill="none" stroke="#d29922" stroke-width="1" opacity="0.6"/>
<circle cx="240.3" cy="575.2" r="3" fill="none" stroke="#d29922" stroke-width="1" opacity="0.6"/>
<circle cx="220.3" cy="565.8" r="3" fill="none" stroke="#d29922" stroke-width="1" opacity="0.6"/>
<circle cx="199.8" cy="536.6" r="3" fill="none" stroke="#d29922" stroke-width="1" opacity="0.6"/>
<circle cx="203.5" cy="521.2" r="3" fill="none" stroke="#d29922" stroke-width="1" opacity="0.6"/>
<circle cx="192.6" cy="530.6" r="3" fill="none" stroke="#d29922" stroke-width="1" opacity="0.6"/>
<circle cx="156.2" cy="489.9" r="3" fill="none" stroke="#d29922" stroke-width="1" opacity="0.6"/>
<circle cx="158.0" cy="463.4" r="3" fill="none" stroke="#d29922" stroke-width="1" opacity="0.6"/>
<circle cx="158.9" cy="429.4" r="3" fill="none" stroke="#d29922" stroke-width="1" opacity="0.6"/>
<circle cx="163.3" cy="407.8" r="3" fill="none" stroke="#d29922" stroke-width="1" opacity="0.6"/>
<circle cx="190.2" cy="379.3" r="3" fill="none" stroke="#d29922" stroke-width="1" opacity="0.6"/>
<circle cx="174.9" cy="442.7" r="3" fill="none" stroke="#d29922" stroke-width="1" opacity="0.6"/>
<circle cx="155.1" cy="415.1" r="3" fill="none" stroke="#d29922" stroke-width="1" opacity="0.6"/>
<circle cx="149.1" cy="394.6" r="3" fill="none" stroke="#d29922" stroke-width="1" opacity="0.6"/>
<circle cx="153.7" cy="366.2" r="3" fill="none" stroke="#d29922" stroke-width="1" opacity="0.6"/>
<circle cx="178.1" cy="307.1" r="3" fill="none" stroke="#d29922" stroke-width="1" opacity="0.6"/>
<circle cx="174.3" cy="305.7" r="3" fill="none" stroke="#d29922" stroke-width="1" opacity="0.6"/>
<circle cx="174.2" cy="288.1" r="3" fill="none" stroke="#d29922" stroke-width="1" opacity="0.6"/>
<circle cx="187.3" cy="264.3" r="3" fill="none" stroke="#d29922" stroke-width="1" opacity="0.6"/>
<circle cx="225.9" cy="222.4" r="3" fill="none" stroke="#d29922" stroke-width="1" opacity="0.6"/>
<circle cx="243.5" cy="212.8" r="3" fill="none" stroke="#d29922" stroke-width="1" opacity="0.6"/>
<circle cx="262.1" cy="208.6" r="3" fill="none" stroke="#d29922" stroke-width="1" opacity="0.6"/>
<circle cx="285.8" cy="212.8" r="3" fill="none" stroke="#d29922" stroke-width="1" opacity="0.6"/>
<circle cx="255.6" cy="239.0" r="3" fill="none" stroke="#d29922" stroke-width="1" opacity="0.6"/>
<circle cx="292.3" cy="176.8" r="3" fill="none" stroke="#d29922" stroke-width="1" opacity="0.6"/>
<circle cx="290.5" cy="179.6" r="3" fill="none" stroke="#d29922" stroke-width="1" opacity="0.6"/>
<circle cx="301.2" cy="165.7" r="3" fill="none" stroke="#d29922" stroke-width="1" opacity="0.6"/>
<circle cx="344.0" cy="159.1" r="3" fill="none" stroke="#d29922" stroke-width="1" opacity="0.6"/>
<circle cx="362.7" cy="169.5" r="3" fill="none" stroke="#d29922" stroke-width="1" opacity="0.6"/>
<circle cx="336.1" cy="157.9" r="3" fill="none" stroke="#d29922" stroke-width="1" opacity="0.6"/>
<circle cx="372.2" cy="141.6" r="3" fill="none" stroke="#d29922" stroke-width="1" opacity="0.6"/>
<circle cx="422.4" cy="139.9" r="3" fill="none" stroke="#d29922" stroke-width="1" opacity="0.6"/>
<circle cx="449.8" cy="143.4" r="3" fill="none" stroke="#d29922" stroke-width="1" opacity="0.6"/>
<circle cx="480.5" cy="172.1" r="3" fill="none" stroke="#d29922" stroke-width="1" opacity="0.6"/>
<circle cx="405.0" cy="204.9" r="3" fill="none" stroke="#d29922" stroke-width="1" opacity="0.6"/>
<circle cx="411.3" cy="188.6" r="3" fill="none" stroke="#d29922" stroke-width="1" opacity="0.6"/>
<circle cx="464.9" cy="170.2" r="3" fill="none" stroke="#d29922" stroke-width="1" opacity="0.6"/>
<circle cx="496.8" cy="172.9" r="3" fill="none" stroke="#d29922" stroke-width="1" opacity="0.6"/>
<circle cx="512.7" cy="176.8" r="3" fill="none" stroke="#d29922" stroke-width="1" opacity="0.6"/>
<circle cx="540.5" cy="198.3" r="3" fill="none" stroke="#d29922" stroke-width="1" opacity="0.6"/>
<circle cx="546.4" cy="217.8" r="3" fill="none" stroke="#d29922" stroke-width="1" opacity="0.6"/>
<circle cx="582.5" cy="224.7" r="3" fill="none" stroke="#d29922" stroke-width="1" opacity="0.6"/>
<circle cx="623.9" cy="257.0" r="3" fill="none" stroke="#d29922" stroke-width="1" opacity="0.6"/>
<circle cx="628.3" cy="310.3" r="3" fill="none" stroke="#d29922" stroke-width="1" opacity="0.6"/>
<circle cx="631.9" cy="333.4" r="3" fill="none" stroke="#d29922" stroke-width="1" opacity="0.6"/>
<circle cx="607.3" cy="374.0" r="3" fill="none" stroke="#d29922" stroke-width="1" opacity="0.6"/>
<circle cx="410.0" cy="410.0" r="10" fill="#0d1117" stroke="#58a6ff" stroke-width="2"/>
<circle cx="410.0" cy="410.0" r="4" fill="#58a6ff"/>
<circle r="2.4" fill="#7ee787"><animateMotion dur="2.69s" begin="0.27s" repeatCount="indefinite" path="M246.8,535.9 L235.8,559.3"/></circle>
<circle r="2.4" fill="#f2cc60"><animateMotion dur="3.49s" begin="2.25s" repeatCount="indefinite" path="M246.8,456.6 L207.9,426.3"/></circle>
<circle r="2.4" fill="#79c0ff"><animateMotion dur="3.36s" begin="1.78s" repeatCount="indefinite" path="M561.3,604.2 L578.2,616.7"/></circle>
<circle r="2.4" fill="#7ee787"><animateMotion dur="2.62s" begin="1.61s" repeatCount="indefinite" path="M434.0,159.3 L449.8,143.4"/></circle>
<circle r="2.4" fill="#f2cc60"><animateMotion dur="2.6s" begin="0.22s" repeatCount="indefinite" path="M309.6,185.2 L301.2,165.7"/></circle>
<circle r="2.4" fill="#79c0ff"><animateMotion dur="3.13s" begin="1.15s" repeatCount="indefinite" path="M610.5,472.7 L618.6,506.4"/></circle>
<circle r="2.4" fill="#7ee787"><animateMotion dur="3.37s" begin="1.92s" repeatCount="indefinite" path="M616.8,296.2 L624.7,276.5"/></circle>
<text x="806" y="806" text-anchor="end" font-size="9" fill="#484f58" letter-spacing="1">// circuit_bloom.py — seed:20260712 — spokes:7 — regenerated daily</text>
</svg>