<svg viewBox="0 0 820 820" width="820" height="820" xmlns="http://www.w3.org/2000/svg" font-family="'Fira Code',monospace">
<defs>
<pattern id="g2" width="22" height="22" patternUnits="userSpaceOnUse">
<path d="M 22 0 L 0 0 0 22" fill="none" stroke="#30363d" stroke-width="0.4" opacity="0.3"/>
</pattern>
<radialGradient id="glow" cx="50%" cy="50%" r="50%">
<stop offset="0%" stop-color="#58a6ff" stop-opacity="0.35"/>
<stop offset="100%" stop-color="#58a6ff" stop-opacity="0"/>
</radialGradient>
</defs>
<rect x="0" y="0" width="820" height="820" fill="#0d1117"/>
<rect x="0" y="0" width="820" height="820" fill="url(#g2)"/>
<circle cx="410.0" cy="410.0" r="230" fill="url(#glow)"/>
<line x1="410.0" y1="410.0" x2="514.9" y2="414.3" stroke="#58a6ff" stroke-width="2.60" opacity="1.00" stroke-linecap="round"/>
<line x1="514.9" y1="414.3" x2="570.3" y2="371.0" stroke="#4f9ee0" stroke-width="2.25" opacity="0.90" stroke-linecap="round"/>
<line x1="570.3" y1="371.0" x2="587.3" y2="330.1" stroke="#3fb950" stroke-width="1.90" opacity="0.80" stroke-linecap="round"/>
<line x1="587.3" y1="330.1" x2="578.6" y2="300.8" stroke="#7bc96f" stroke-width="1.55" opacity="0.70" stroke-linecap="round"/>
<line x1="578.6" y1="300.8" x2="567.5" y2="282.3" stroke="#d29922" stroke-width="1.20" opacity="0.60" stroke-linecap="round"/>
<line x1="587.3" y1="330.1" x2="612.6" y2="318.3" stroke="#7bc96f" stroke-width="1.55" opacity="0.70" stroke-linecap="round"/>
<line x1="612.6" y1="318.3" x2="623.9" y2="302.5" stroke="#d29922" stroke-width="1.20" opacity="0.60" stroke-linecap="round"/>
<line x1="612.6" y1="318.3" x2="631.9" y2="319.8" stroke="#d29922" stroke-width="1.20" opacity="0.60" stroke-linecap="round"/>
<line x1="570.3" y1="371.0" x2="619.3" y2="368.7" stroke="#3fb950" stroke-width="1.90" opacity="0.80" stroke-linecap="round"/>
<line x1="619.3" y1="368.7" x2="644.0" y2="347.8" stroke="#7bc96f" stroke-width="1.55" opacity="0.70" stroke-linecap="round"/>
<line x1="644.0" y1="347.8" x2="652.0" y2="325.9" stroke="#d29922" stroke-width="1.20" opacity="0.60" stroke-linecap="round"/>
<line x1="644.0" y1="347.8" x2="664.5" y2="343.3" stroke="#d29922" stroke-width="1.20" opacity="0.60" stroke-linecap="round"/>
<line x1="619.3" y1="368.7" x2="644.5" y2="387.7" stroke="#7bc96f" stroke-width="1.55" opacity="0.70" stroke-linecap="round"/>
<line x1="644.5" y1="387.7" x2="662.8" y2="395.5" stroke="#d29922" stroke-width="1.20" opacity="0.60" stroke-linecap="round"/>
<line x1="514.9" y1="414.3" x2="572.9" y2="458.8" stroke="#4f9ee0" stroke-width="2.25" opacity="0.90" stroke-linecap="round"/>
<line x1="572.9" y1="458.8" x2="624.2" y2="457.3" stroke="#3fb950" stroke-width="1.90" opacity="0.80" stroke-linecap="round"/>
<line x1="624.2" y1="457.3" x2="652.8" y2="437.6" stroke="#7bc96f" stroke-width="1.55" opacity="0.70" stroke-linecap="round"/>
<line x1="652.8" y1="437.6" x2="660.0" y2="415.2" stroke="#d29922" stroke-width="1.20" opacity="0.60" stroke-linecap="round"/>
<line x1="652.8" y1="437.6" x2="676.7" y2="436.9" stroke="#d29922" stroke-width="1.20" opacity="0.60" stroke-linecap="round"/>
<line x1="624.2" y1="457.3" x2="652.9" y2="479.6" stroke="#7bc96f" stroke-width="1.55" opacity="0.70" stroke-linecap="round"/>
<line x1="652.9" y1="479.6" x2="676.1" y2="483.1" stroke="#d29922" stroke-width="1.20" opacity="0.60" stroke-linecap="round"/>
<line x1="652.9" y1="479.6" x2="662.5" y2="503.2" stroke="#d29922" stroke-width="1.20" opacity="0.60" stroke-linecap="round"/>
<line x1="572.9" y1="458.8" x2="586.9" y2="508.7" stroke="#3fb950" stroke-width="1.90" opacity="0.80" stroke-linecap="round"/>
<line x1="586.9" y1="508.7" x2="611.5" y2="535.5" stroke="#7bc96f" stroke-width="1.55" opacity="0.70" stroke-linecap="round"/>
<line x1="611.5" y1="535.5" x2="635.4" y2="544.3" stroke="#d29922" stroke-width="1.20" opacity="0.60" stroke-linecap="round"/>
<line x1="611.5" y1="535.5" x2="616.9" y2="557.8" stroke="#d29922" stroke-width="1.20" opacity="0.60" stroke-linecap="round"/>
<line x1="586.9" y1="508.7" x2="581.4" y2="544.8" stroke="#7bc96f" stroke-width="1.55" opacity="0.70" stroke-linecap="round"/>
<line x1="581.4" y1="544.8" x2="583.7" y2="568.2" stroke="#d29922" stroke-width="1.20" opacity="0.60" stroke-linecap="round"/>
<line x1="410.0" y1="410.0" x2="461.1" y2="501.8" stroke="#58a6ff" stroke-width="2.60" opacity="1.00" stroke-linecap="round"/>
<line x1="461.1" y1="501.8" x2="525.0" y2="534.3" stroke="#4f9ee0" stroke-width="2.25" opacity="0.90" stroke-linecap="round"/>
<line x1="525.0" y1="534.3" x2="570.1" y2="535.6" stroke="#3fb950" stroke-width="1.90" opacity="0.80" stroke-linecap="round"/>
<line x1="570.1" y1="535.6" x2="596.9" y2="518.8" stroke="#7bc96f" stroke-width="1.55" opacity="0.70" stroke-linecap="round"/>
<line x1="596.9" y1="518.8" x2="615.7" y2="508.8" stroke="#d29922" stroke-width="1.20" opacity="0.60" stroke-linecap="round"/>
<line x1="570.1" y1="535.6" x2="594.6" y2="552.5" stroke="#7bc96f" stroke-width="1.55" opacity="0.70" stroke-linecap="round"/>
<line x1="594.6" y1="552.5" x2="608.3" y2="567.5" stroke="#d29922" stroke-width="1.20" opacity="0.60" stroke-linecap="round"/>
<line x1="525.0" y1="534.3" x2="556.2" y2="574.9" stroke="#3fb950" stroke-width="1.90" opacity="0.80" stroke-linecap="round"/>
<line x1="556.2" y1="574.9" x2="588.1" y2="587.6" stroke="#7bc96f" stroke-width="1.55" opacity="0.70" stroke-linecap="round"/>
<line x1="588.1" y1="587.6" x2="611.6" y2="583.2" stroke="#d29922" stroke-width="1.20" opacity="0.60" stroke-linecap="round"/>
<line x1="588.1" y1="587.6" x2="599.3" y2="608.8" stroke="#d29922" stroke-width="1.20" opacity="0.60" stroke-linecap="round"/>
<line x1="556.2" y1="574.9" x2="561.9" y2="610.0" stroke="#7bc96f" stroke-width="1.55" opacity="0.70" stroke-linecap="round"/>
<line x1="561.9" y1="610.0" x2="571.6" y2="629.9" stroke="#d29922" stroke-width="1.20" opacity="0.60" stroke-linecap="round"/>
<line x1="461.1" y1="501.8" x2="459.4" y2="573.5" stroke="#4f9ee0" stroke-width="2.25" opacity="0.90" stroke-linecap="round"/>
<line x1="459.4" y1="573.5" x2="491.6" y2="609.6" stroke="#3fb950" stroke-width="1.90" opacity="0.80" stroke-linecap="round"/>
<line x1="491.6" y1="609.6" x2="521.1" y2="618.5" stroke="#7bc96f" stroke-width="1.55" opacity="0.70" stroke-linecap="round"/>
<line x1="521.1" y1="618.5" x2="541.5" y2="611.9" stroke="#d29922" stroke-width="1.20" opacity="0.60" stroke-linecap="round"/>
<line x1="521.1" y1="618.5" x2="534.8" y2="634.4" stroke="#d29922" stroke-width="1.20" opacity="0.60" stroke-linecap="round"/>
<line x1="491.6" y1="609.6" x2="500.4" y2="641.0" stroke="#7bc96f" stroke-width="1.55" opacity="0.70" stroke-linecap="round"/>
<line x1="500.4" y1="641.0" x2="508.6" y2="662.0" stroke="#d29922" stroke-width="1.20" opacity="0.60" stroke-linecap="round"/>
<line x1="459.4" y1="573.5" x2="425.2" y2="608.9" stroke="#3fb950" stroke-width="1.90" opacity="0.80" stroke-linecap="round"/>
<line x1="425.2" y1="608.9" x2="419.0" y2="642.9" stroke="#7bc96f" stroke-width="1.55" opacity="0.70" stroke-linecap="round"/>
<line x1="419.0" y1="642.9" x2="429.5" y2="662.9" stroke="#d29922" stroke-width="1.20" opacity="0.60" stroke-linecap="round"/>
<line x1="419.0" y1="642.9" x2="401.1" y2="659.0" stroke="#d29922" stroke-width="1.20" opacity="0.60" stroke-linecap="round"/>
<line x1="425.2" y1="608.9" x2="393.5" y2="614.3" stroke="#7bc96f" stroke-width="1.55" opacity="0.70" stroke-linecap="round"/>
<line x1="393.5" y1="614.3" x2="373.6" y2="620.6" stroke="#d29922" stroke-width="1.20" opacity="0.60" stroke-linecap="round"/>
<line x1="410.0" y1="410.0" x2="363.5" y2="504.2" stroke="#58a6ff" stroke-width="2.60" opacity="1.00" stroke-linecap="round"/>
<line x1="363.5" y1="504.2" x2="360.6" y2="576.7" stroke="#4f9ee0" stroke-width="2.25" opacity="0.90" stroke-linecap="round"/>
<line x1="360.6" y1="576.7" x2="384.7" y2="615.6" stroke="#3fb950" stroke-width="1.90" opacity="0.80" stroke-linecap="round"/>
<line x1="384.7" y1="615.6" x2="413.0" y2="629.9" stroke="#7bc96f" stroke-width="1.55" opacity="0.70" stroke-linecap="round"/>
<line x1="413.0" y1="629.9" x2="434.3" y2="627.9" stroke="#d29922" stroke-width="1.20" opacity="0.60" stroke-linecap="round"/>
<line x1="413.0" y1="629.9" x2="425.4" y2="646.2" stroke="#d29922" stroke-width="1.20" opacity="0.60" stroke-linecap="round"/>
<line x1="384.7" y1="615.6" x2="383.9" y2="645.3" stroke="#7bc96f" stroke-width="1.55" opacity="0.70" stroke-linecap="round"/>
<line x1="383.9" y1="645.3" x2="392.1" y2="663.1" stroke="#d29922" stroke-width="1.20" opacity="0.60" stroke-linecap="round"/>
<line x1="383.9" y1="645.3" x2="377.2" y2="663.3" stroke="#d29922" stroke-width="1.20" opacity="0.60" stroke-linecap="round"/>
<line x1="360.6" y1="576.7" x2="331.7" y2="615.5" stroke="#3fb950" stroke-width="1.90" opacity="0.80" stroke-linecap="round"/>
<line x1="331.7" y1="615.5" x2="323.1" y2="646.6" stroke="#7bc96f" stroke-width="1.55" opacity="0.70" stroke-linecap="round"/>
<line x1="323.1" y1="646.6" x2="312.6" y2="663.8" stroke="#d29922" stroke-width="1.20" opacity="0.60" stroke-linecap="round"/>
<line x1="331.7" y1="615.5" x2="303.5" y2="629.7" stroke="#7bc96f" stroke-width="1.55" opacity="0.70" stroke-linecap="round"/>
<line x1="303.5" y1="629.7" x2="284.7" y2="638.8" stroke="#d29922" stroke-width="1.20" opacity="0.60" stroke-linecap="round"/>
<line x1="363.5" y1="504.2" x2="309.3" y2="550.0" stroke="#4f9ee0" stroke-width="2.25" opacity="0.90" stroke-linecap="round"/>
<line x1="309.3" y1="550.0" x2="295.8" y2="597.4" stroke="#3fb950" stroke-width="1.90" opacity="0.80" stroke-linecap="round"/>
<line x1="295.8" y1="597.4" x2="307.6" y2="630.8" stroke="#7bc96f" stroke-width="1.55" opacity="0.70" stroke-linecap="round"/>
<line x1="307.6" y1="630.8" x2="321.7" y2="648.4" stroke="#d29922" stroke-width="1.20" opacity="0.60" stroke-linecap="round"/>
<line x1="307.6" y1="630.8" x2="307.3" y2="655.1" stroke="#d29922" stroke-width="1.20" opacity="0.60" stroke-linecap="round"/>
<line x1="295.8" y1="597.4" x2="270.0" y2="615.5" stroke="#7bc96f" stroke-width="1.55" opacity="0.70" stroke-linecap="round"/>
<line x1="270.0" y1="615.5" x2="259.0" y2="633.2" stroke="#d29922" stroke-width="1.20" opacity="0.60" stroke-linecap="round"/>
<line x1="270.0" y1="615.5" x2="250.0" y2="620.9" stroke="#d29922" stroke-width="1.20" opacity="0.60" stroke-linecap="round"/>
<line x1="309.3" y1="550.0" x2="258.5" y2="551.2" stroke="#3fb950" stroke-width="1.90" opacity="0.80" stroke-linecap="round"/>
<line x1="258.5" y1="551.2" x2="230.4" y2="569.7" stroke="#7bc96f" stroke-width="1.55" opacity="0.70" stroke-linecap="round"/>
<line x1="230.4" y1="569.7" x2="208.4" y2="578.0" stroke="#d29922" stroke-width="1.20" opacity="0.60" stroke-linecap="round"/>
<line x1="258.5" y1="551.2" x2="227.4" y2="533.3" stroke="#7bc96f" stroke-width="1.55" opacity="0.70" stroke-linecap="round"/>
<line x1="227.4" y1="533.3" x2="202.6" y2="532.6" stroke="#d29922" stroke-width="1.20" opacity="0.60" stroke-linecap="round"/>
<line x1="227.4" y1="533.3" x2="215.5" y2="514.3" stroke="#d29922" stroke-width="1.20" opacity="0.60" stroke-linecap="round"/>
<line x1="410.0" y1="410.0" x2="305.0" y2="412.9" stroke="#58a6ff" stroke-width="2.60" opacity="1.00" stroke-linecap="round"/>
<line x1="305.0" y1="412.9" x2="247.2" y2="451.9" stroke="#4f9ee0" stroke-width="2.25" opacity="0.90" stroke-linecap="round"/>
<line x1="247.2" y1="451.9" x2="228.9" y2="498.0" stroke="#3fb950" stroke-width="1.90" opacity="0.80" stroke-linecap="round"/>
<line x1="228.9" y1="498.0" x2="236.4" y2="530.1" stroke="#7bc96f" stroke-width="1.55" opacity="0.70" stroke-linecap="round"/>
<line x1="236.4" y1="530.1" x2="252.1" y2="543.7" stroke="#d29922" stroke-width="1.20" opacity="0.60" stroke-linecap="round"/>
<line x1="236.4" y1="530.1" x2="227.1" y2="548.8" stroke="#d29922" stroke-width="1.20" opacity="0.60" stroke-linecap="round"/>
<line x1="228.9" y1="498.0" x2="203.7" y2="516.3" stroke="#7bc96f" stroke-width="1.55" opacity="0.70" stroke-linecap="round"/>
<line x1="203.7" y1="516.3" x2="192.6" y2="535.5" stroke="#d29922" stroke-width="1.20" opacity="0.60" stroke-linecap="round"/>
<line x1="203.7" y1="516.3" x2="182.7" y2="521.0" stroke="#d29922" stroke-width="1.20" opacity="0.60" stroke-linecap="round"/>
<line x1="247.2" y1="451.9" x2="198.8" y2="449.9" stroke="#3fb950" stroke-width="1.90" opacity="0.80" stroke-linecap="round"/>
<line x1="198.8" y1="449.9" x2="167.3" y2="460.3" stroke="#7bc96f" stroke-width="1.55" opacity="0.70" stroke-linecap="round"/>
<line x1="167.3" y1="460.3" x2="150.1" y2="471.9" stroke="#d29922" stroke-width="1.20" opacity="0.60" stroke-linecap="round"/>
<line x1="198.8" y1="449.9" x2="172.0" y2="434.0" stroke="#7bc96f" stroke-width="1.55" opacity="0.70" stroke-linecap="round"/>
<line x1="172.0" y1="434.0" x2="153.9" y2="421.0" stroke="#d29922" stroke-width="1.20" opacity="0.60" stroke-linecap="round"/>
<line x1="305.0" y1="412.9" x2="242.7" y2="378.9" stroke="#4f9ee0" stroke-width="2.25" opacity="0.90" stroke-linecap="round"/>
<line x1="242.7" y1="378.9" x2="193.7" y2="387.3" stroke="#3fb950" stroke-width="1.90" opacity="0.80" stroke-linecap="round"/>
<line x1="193.7" y1="387.3" x2="165.2" y2="404.3" stroke="#7bc96f" stroke-width="1.55" opacity="0.70" stroke-linecap="round"/>
<line x1="165.2" y1="404.3" x2="153.5" y2="423.5" stroke="#d29922" stroke-width="1.20" opacity="0.60" stroke-linecap="round"/>
<line x1="165.2" y1="404.3" x2="142.9" y2="405.6" stroke="#d29922" stroke-width="1.20" opacity="0.60" stroke-linecap="round"/>
<line x1="193.7" y1="387.3" x2="159.9" y2="378.7" stroke="#7bc96f" stroke-width="1.55" opacity="0.70" stroke-linecap="round"/>
<line x1="159.9" y1="378.7" x2="138.8" y2="389.3" stroke="#d29922" stroke-width="1.20" opacity="0.60" stroke-linecap="round"/>
<line x1="159.9" y1="378.7" x2="146.3" y2="359.3" stroke="#d29922" stroke-width="1.20" opacity="0.60" stroke-linecap="round"/>
<line x1="242.7" y1="378.9" x2="222.5" y2="334.2" stroke="#3fb950" stroke-width="1.90" opacity="0.80" stroke-linecap="round"/>
<line x1="222.5" y1="334.2" x2="198.1" y2="311.0" stroke="#7bc96f" stroke-width="1.55" opacity="0.70" stroke-linecap="round"/>
<line x1="198.1" y1="311.0" x2="182.4" y2="295.1" stroke="#d29922" stroke-width="1.20" opacity="0.60" stroke-linecap="round"/>
<line x1="222.5" y1="334.2" x2="222.4" y2="302.7" stroke="#7bc96f" stroke-width="1.55" opacity="0.70" stroke-linecap="round"/>
<line x1="222.4" y1="302.7" x2="211.1" y2="285.7" stroke="#d29922" stroke-width="1.20" opacity="0.60" stroke-linecap="round"/>
<line x1="222.4" y1="302.7" x2="235.6" y2="285.2" stroke="#d29922" stroke-width="1.20" opacity="0.60" stroke-linecap="round"/>
<line x1="410.0" y1="410.0" x2="355.1" y2="320.5" stroke="#58a6ff" stroke-width="2.60" opacity="1.00" stroke-linecap="round"/>
<line x1="355.1" y1="320.5" x2="291.4" y2="282.1" stroke="#4f9ee0" stroke-width="2.25" opacity="0.90" stroke-linecap="round"/>
<line x1="291.4" y1="282.1" x2="243.9" y2="277.3" stroke="#3fb950" stroke-width="1.90" opacity="0.80" stroke-linecap="round"/>
<line x1="243.9" y1="277.3" x2="214.6" y2="291.7" stroke="#7bc96f" stroke-width="1.55" opacity="0.70" stroke-linecap="round"/>
<line x1="214.6" y1="291.7" x2="202.3" y2="308.3" stroke="#d29922" stroke-width="1.20" opacity="0.60" stroke-linecap="round"/>
<line x1="214.6" y1="291.7" x2="192.3" y2="289.9" stroke="#d29922" stroke-width="1.20" opacity="0.60" stroke-linecap="round"/>
<line x1="243.9" y1="277.3" x2="218.5" y2="258.6" stroke="#7bc96f" stroke-width="1.55" opacity="0.70" stroke-linecap="round"/>
<line x1="218.5" y1="258.6" x2="202.0" y2="243.1" stroke="#d29922" stroke-width="1.20" opacity="0.60" stroke-linecap="round"/>
<line x1="291.4" y1="282.1" x2="262.3" y2="237.2" stroke="#3fb950" stroke-width="1.90" opacity="0.80" stroke-linecap="round"/>
<line x1="262.3" y1="237.2" x2="230.1" y2="220.5" stroke="#7bc96f" stroke-width="1.55" opacity="0.70" stroke-linecap="round"/>
<line x1="230.1" y1="220.5" x2="204.4" y2="221.6" stroke="#d29922" stroke-width="1.20" opacity="0.60" stroke-linecap="round"/>
<line x1="230.1" y1="220.5" x2="219.3" y2="198.5" stroke="#d29922" stroke-width="1.20" opacity="0.60" stroke-linecap="round"/>
<line x1="262.3" y1="237.2" x2="263.0" y2="203.7" stroke="#7bc96f" stroke-width="1.55" opacity="0.70" stroke-linecap="round"/>
<line x1="263.0" y1="203.7" x2="258.1" y2="181.7" stroke="#d29922" stroke-width="1.20" opacity="0.60" stroke-linecap="round"/>
<line x1="355.1" y1="320.5" x2="354.3" y2="251.1" stroke="#4f9ee0" stroke-width="2.25" opacity="0.90" stroke-linecap="round"/>
<line x1="354.3" y1="251.1" x2="330.8" y2="212.4" stroke="#3fb950" stroke-width="1.90" opacity="0.80" stroke-linecap="round"/>
<line x1="330.8" y1="212.4" x2="308.4" y2="195.0" stroke="#7bc96f" stroke-width="1.55" opacity="0.70" stroke-linecap="round"/>
<line x1="308.4" y1="195.0" x2="294.6" y2="180.0" stroke="#d29922" stroke-width="1.20" opacity="0.60" stroke-linecap="round"/>
<line x1="330.8" y1="212.4" x2="328.6" y2="182.4" stroke="#7bc96f" stroke-width="1.55" opacity="0.70" stroke-linecap="round"/>
<line x1="328.6" y1="182.4" x2="318.2" y2="164.1" stroke="#d29922" stroke-width="1.20" opacity="0.60" stroke-linecap="round"/>
<line x1="328.6" y1="182.4" x2="335.7" y2="163.1" stroke="#d29922" stroke-width="1.20" opacity="0.60" stroke-linecap="round"/>
<line x1="354.3" y1="251.1" x2="377.2" y2="212.3" stroke="#3fb950" stroke-width="1.90" opacity="0.80" stroke-linecap="round"/>
<line x1="377.2" y1="212.3" x2="380.3" y2="180.5" stroke="#7bc96f" stroke-width="1.55" opacity="0.70" stroke-linecap="round"/>
<line x1="380.3" y1="180.5" x2="386.7" y2="160.8" stroke="#d29922" stroke-width="1.20" opacity="0.60" stroke-linecap="round"/>
<line x1="377.2" y1="212.3" x2="403.5" y2="193.7" stroke="#7bc96f" stroke-width="1.55" opacity="0.70" stroke-linecap="round"/>
<line x1="403.5" y1="193.7" x2="422.1" y2="185.5" stroke="#d29922" stroke-width="1.20" opacity="0.60" stroke-linecap="round"/>
<line x1="410.0" y1="410.0" x2="466.3" y2="321.4" stroke="#58a6ff" stroke-width="2.60" opacity="1.00" stroke-linecap="round"/>
<line x1="466.3" y1="321.4" x2="461.8" y2="255.4" stroke="#4f9ee0" stroke-width="2.25" opacity="0.90" stroke-linecap="round"/>
<line x1="461.8" y1="255.4" x2="440.8" y2="216.8" stroke="#3fb950" stroke-width="1.90" opacity="0.80" stroke-linecap="round"/>
<line x1="440.8" y1="216.8" x2="416.6" y2="201.5" stroke="#7bc96f" stroke-width="1.55" opacity="0.70" stroke-linecap="round"/>
<line x1="416.6" y1="201.5" x2="398.5" y2="200.5" stroke="#d29922" stroke-width="1.20" opacity="0.60" stroke-linecap="round"/>
<line x1="416.6" y1="201.5" x2="407.9" y2="183.1" stroke="#d29922" stroke-width="1.20" opacity="0.60" stroke-linecap="round"/>
<line x1="440.8" y1="216.8" x2="437.6" y2="187.8" stroke="#7bc96f" stroke-width="1.55" opacity="0.70" stroke-linecap="round"/>
<line x1="437.6" y1="187.8" x2="426.1" y2="171.7" stroke="#d29922" stroke-width="1.20" opacity="0.60" stroke-linecap="round"/>
<line x1="437.6" y1="187.8" x2="445.1" y2="170.8" stroke="#d29922" stroke-width="1.20" opacity="0.60" stroke-linecap="round"/>
<line x1="461.8" y1="255.4" x2="479.7" y2="212.0" stroke="#3fb950" stroke-width="1.90" opacity="0.80" stroke-linecap="round"/>
<line x1="479.7" y1="212.0" x2="480.9" y2="181.3" stroke="#7bc96f" stroke-width="1.55" opacity="0.70" stroke-linecap="round"/>
<line x1="480.9" y1="181.3" x2="485.8" y2="161.6" stroke="#d29922" stroke-width="1.20" opacity="0.60" stroke-linecap="round"/>
<line x1="479.7" y1="212.0" x2="501.2" y2="192.3" stroke="#7bc96f" stroke-width="1.55" opacity="0.70" stroke-linecap="round"/>
<line x1="501.2" y1="192.3" x2="508.5" y2="174.4" stroke="#d29922" stroke-width="1.20" opacity="0.60" stroke-linecap="round"/>
<line x1="501.2" y1="192.3" x2="519.1" y2="188.6" stroke="#d29922" stroke-width="1.20" opacity="0.60" stroke-linecap="round"/>
<line x1="466.3" y1="321.4" x2="533.7" y2="295.1" stroke="#4f9ee0" stroke-width="2.25" opacity="0.90" stroke-linecap="round"/>
<line x1="533.7" y1="295.1" x2="563.9" y2="258.1" stroke="#3fb950" stroke-width="1.90" opacity="0.80" stroke-linecap="round"/>
<line x1="563.9" y1="258.1" x2="561.6" y2="228.4" stroke="#7bc96f" stroke-width="1.55" opacity="0.70" stroke-linecap="round"/>
<line x1="561.6" y1="228.4" x2="565.6" y2="207.4" stroke="#d29922" stroke-width="1.20" opacity="0.60" stroke-linecap="round"/>
<line x1="563.9" y1="258.1" x2="595.7" y2="252.0" stroke="#7bc96f" stroke-width="1.55" opacity="0.70" stroke-linecap="round"/>
<line x1="595.7" y1="252.0" x2="613.3" y2="239.2" stroke="#d29922" stroke-width="1.20" opacity="0.60" stroke-linecap="round"/>
<line x1="595.7" y1="252.0" x2="618.2" y2="256.5" stroke="#d29922" stroke-width="1.20" opacity="0.60" stroke-linecap="round"/>
<line x1="533.7" y1="295.1" x2="584.6" y2="302.6" stroke="#3fb950" stroke-width="1.90" opacity="0.80" stroke-linecap="round"/>
<line x1="584.6" y1="302.6" x2="615.6" y2="286.3" stroke="#7bc96f" stroke-width="1.55" opacity="0.70" stroke-linecap="round"/>
<line x1="615.6" y1="286.3" x2="629.0" y2="265.5" stroke="#d29922" stroke-width="1.20" opacity="0.60" stroke-linecap="round"/>
<line x1="615.6" y1="286.3" x2="638.1" y2="289.9" stroke="#d29922" stroke-width="1.20" opacity="0.60" stroke-linecap="round"/>
<line x1="584.6" y1="302.6" x2="608.7" y2="324.6" stroke="#7bc96f" stroke-width="1.55" opacity="0.70" stroke-linecap="round"/>
<line x1="608.7" y1="324.6" x2="629.1" y2="329.3" stroke="#d29922" stroke-width="1.20" opacity="0.60" stroke-linecap="round"/>
<line x1="608.7" y1="324.6" x2="614.4" y2="345.8" stroke="#d29922" stroke-width="1.20" opacity="0.60" stroke-linecap="round"/>
<circle cx="514.9" cy="414.3" r="2.60" fill="#58a6ff" opacity="0.85"/>
<circle cx="570.3" cy="371.0" r="2.30" fill="#4f9ee0" opacity="0.85"/>
<circle cx="587.3" cy="330.1" r="2.00" fill="#3fb950" opacity="0.85"/>
<circle cx="578.6" cy="300.8" r="1.70" fill="#7bc96f" opacity="0.85"/>
<circle cx="612.6" cy="318.3" r="1.70" fill="#7bc96f" opacity="0.85"/>
<circle cx="619.3" cy="368.7" r="2.00" fill="#3fb950" opacity="0.85"/>
<circle cx="644.0" cy="347.8" r="1.70" fill="#7bc96f" opacity="0.85"/>
<circle cx="644.5" cy="387.7" r="1.70" fill="#7bc96f" opacity="0.85"/>
<circle cx="572.9" cy="458.8" r="2.30" fill="#4f9ee0" opacity="0.85"/>
<circle cx="624.2" cy="457.3" r="2.00" fill="#3fb950" opacity="0.85"/>
<circle cx="652.8" cy="437.6" r="1.70" fill="#7bc96f" opacity="0.85"/>
<circle cx="652.9" cy="479.6" r="1.70" fill="#7bc96f" opacity="0.85"/>
<circle cx="586.9" cy="508.7" r="2.00" fill="#3fb950" opacity="0.85"/>
<circle cx="611.5" cy="535.5" r="1.70" fill="#7bc96f" opacity="0.85"/>
<circle cx="581.4" cy="544.8" r="1.70" fill="#7bc96f" opacity="0.85"/>
<circle cx="461.1" cy="501.8" r="2.60" fill="#58a6ff" opacity="0.85"/>
<circle cx="525.0" cy="534.3" r="2.30" fill="#4f9ee0" opacity="0.85"/>
<circle cx="570.1" cy="535.6" r="2.00" fill="#3fb950" opacity="0.85"/>
<circle cx="596.9" cy="518.8" r="1.70" fill="#7bc96f" opacity="0.85"/>
<circle cx="594.6" cy="552.5" r="1.70" fill="#7bc96f" opacity="0.85"/>
<circle cx="556.2" cy="574.9" r="2.00" fill="#3fb950" opacity="0.85"/>
<circle cx="588.1" cy="587.6" r="1.70" fill="#7bc96f" opacity="0.85"/>
<circle cx="561.9" cy="610.0" r="1.70" fill="#7bc96f" opacity="0.85"/>
<circle cx="459.4" cy="573.5" r="2.30" fill="#4f9ee0" opacity="0.85"/>
<circle cx="491.6" cy="609.6" r="2.00" fill="#3fb950" opacity="0.85"/>
<circle cx="521.1" cy="618.5" r="1.70" fill="#7bc96f" opacity="0.85"/>
<circle cx="500.4" cy="641.0" r="1.70" fill="#7bc96f" opacity="0.85"/>
<circle cx="425.2" cy="608.9" r="2.00" fill="#3fb950" opacity="0.85"/>
<circle cx="419.0" cy="642.9" r="1.70" fill="#7bc96f" opacity="0.85"/>
<circle cx="393.5" cy="614.3" r="1.70" fill="#7bc96f" opacity="0.85"/>
<circle cx="363.5" cy="504.2" r="2.60" fill="#58a6ff" opacity="0.85"/>
<circle cx="360.6" cy="576.7" r="2.30" fill="#4f9ee0" opacity="0.85"/>
<circle cx="384.7" cy="615.6" r="2.00" fill="#3fb950" opacity="0.85"/>
<circle cx="413.0" cy="629.9" r="1.70" fill="#7bc96f" opacity="0.85"/>
<circle cx="383.9" cy="645.3" r="1.70" fill="#7bc96f" opacity="0.85"/>
<circle cx="331.7" cy="615.5" r="2.00" fill="#3fb950" opacity="0.85"/>
<circle cx="323.1" cy="646.6" r="1.70" fill="#7bc96f" opacity="0.85"/>
<circle cx="303.5" cy="629.7" r="1.70" fill="#7bc96f" opacity="0.85"/>
<circle cx="309.3" cy="550.0" r="2.30" fill="#4f9ee0" opacity="0.85"/>
<circle cx="295.8" cy="597.4" r="2.00" fill="#3fb950" opacity="0.85"/>
<circle cx="307.6" cy="630.8" r="1.70" fill="#7bc96f" opacity="0.85"/>
<circle cx="270.0" cy="615.5" r="1.70" fill="#7bc96f" opacity="0.85"/>
<circle cx="258.5" cy="551.2" r="2.00" fill="#3fb950" opacity="0.85"/>
<circle cx="230.4" cy="569.7" r="1.70" fill="#7bc96f" opacity="0.85"/>
<circle cx="227.4" cy="533.3" r="1.70" fill="#7bc96f" opacity="0.85"/>
<circle cx="305.0" cy="412.9" r="2.60" fill="#58a6ff" opacity="0.85"/>
<circle cx="247.2" cy="451.9" r="2.30" fill="#4f9ee0" opacity="0.85"/>
<circle cx="228.9" cy="498.0" r="2.00" fill="#3fb950" opacity="0.85"/>
<circle cx="236.4" cy="530.1" r="1.70" fill="#7bc96f" opacity="0.85"/>
<circle cx="203.7" cy="516.3" r="1.70" fill="#7bc96f" opacity="0.85"/>
<circle cx="198.8" cy="449.9" r="2.00" fill="#3fb950" opacity="0.85"/>
<circle cx="167.3" cy="460.3" r="1.70" fill="#7bc96f" opacity="0.85"/>
<circle cx="172.0" cy="434.0" r="1.70" fill="#7bc96f" opacity="0.85"/>
<circle cx="242.7" cy="378.9" r="2.30" fill="#4f9ee0" opacity="0.85"/>
<circle cx="193.7" cy="387.3" r="2.00" fill="#3fb950" opacity="0.85"/>
<circle cx="165.2" cy="404.3" r="1.70" fill="#7bc96f" opacity="0.85"/>
<circle cx="159.9" cy="378.7" r="1.70" fill="#7bc96f" opacity="0.85"/>
<circle cx="222.5" cy="334.2" r="2.00" fill="#3fb950" opacity="0.85"/>
<circle cx="198.1" cy="311.0" r="1.70" fill="#7bc96f" opacity="0.85"/>
<circle cx="222.4" cy="302.7" r="1.70" fill="#7bc96f" opacity="0.85"/>
<circle cx="355.1" cy="320.5" r="2.60" fill="#58a6ff" opacity="0.85"/>
<circle cx="291.4" cy="282.1" r="2.30" fill="#4f9ee0" opacity="0.85"/>
<circle cx="243.9" cy="277.3" r="2.00" fill="#3fb950" opacity="0.85"/>
<circle cx="214.6" cy="291.7" r="1.70" fill="#7bc96f" opacity="0.85"/>
<circle cx="218.5" cy="258.6" r="1.70" fill="#7bc96f" opacity="0.85"/>
<circle cx="262.3" cy="237.2" r="2.00" fill="#3fb950" opacity="0.85"/>
<circle cx="230.1" cy="220.5" r="1.70" fill="#7bc96f" opacity="0.85"/>
<circle cx="263.0" cy="203.7" r="1.70" fill="#7bc96f" opacity="0.85"/>
<circle cx="354.3" cy="251.1" r="2.30" fill="#4f9ee0" opacity="0.85"/>
<circle cx="330.8" cy="212.4" r="2.00" fill="#3fb950" opacity="0.85"/>
<circle cx="308.4" cy="195.0" r="1.70" fill="#7bc96f" opacity="0.85"/>
<circle cx="328.6" cy="182.4" r="1.70" fill="#7bc96f" opacity="0.85"/>
<circle cx="377.2" cy="212.3" r="2.00" fill="#3fb950" opacity="0.85"/>
<circle cx="380.3" cy="180.5" r="1.70" fill="#7bc96f" opacity="0.85"/>
<circle cx="403.5" cy="193.7" r="1.70" fill="#7bc96f" opacity="0.85"/>
<circle cx="466.3" cy="321.4" r="2.60" fill="#58a6ff" opacity="0.85"/>
<circle cx="461.8" cy="255.4" r="2.30" fill="#4f9ee0" opacity="0.85"/>
<circle cx="440.8" cy="216.8" r="2.00" fill="#3fb950" opacity="0.85"/>
<circle cx="416.6" cy="201.5" r="1.70" fill="#7bc96f" opacity="0.85"/>
<circle cx="437.6" cy="187.8" r="1.70" fill="#7bc96f" opacity="0.85"/>
<circle cx="479.7" cy="212.0" r="2.00" fill="#3fb950" opacity="0.85"/>
<circle cx="480.9" cy="181.3" r="1.70" fill="#7bc96f" opacity="0.85"/>
<circle cx="501.2" cy="192.3" r="1.70" fill="#7bc96f" opacity="0.85"/>
<circle cx="533.7" cy="295.1" r="2.30" fill="#4f9ee0" opacity="0.85"/>
<circle cx="563.9" cy="258.1" r="2.00" fill="#3fb950" opacity="0.85"/>
<circle cx="561.6" cy="228.4" r="1.70" fill="#7bc96f" opacity="0.85"/>
<circle cx="595.7" cy="252.0" r="1.70" fill="#7bc96f" opacity="0.85"/>
<circle cx="584.6" cy="302.6" r="2.00" fill="#3fb950" opacity="0.85"/>
<circle cx="615.6" cy="286.3" r="1.70" fill="#7bc96f" opacity="0.85"/>
<circle cx="608.7" cy="324.6" r="1.70" fill="#7bc96f" opacity="0.85"/>
<circle cx="567.5" cy="282.3" r="3" fill="none" stroke="#d29922" stroke-width="1" opacity="0.6"/>
<circle cx="623.9" cy="302.5" r="3" fill="none" stroke="#d29922" stroke-width="1" opacity="0.6"/>
<circle cx="631.9" cy="319.8" r="3" fill="none" stroke="#d29922" stroke-width="1" opacity="0.6"/>
<circle cx="652.0" cy="325.9" r="3" fill="none" stroke="#d29922" stroke-width="1" opacity="0.6"/>
<circle cx="664.5" cy="343.3" r="3" fill="none" stroke="#d29922" stroke-width="1" opacity="0.6"/>
<circle cx="662.8" cy="395.5" r="3" fill="none" stroke="#d29922" stroke-width="1" opacity="0.6"/>
<circle cx="660.0" cy="415.2" r="3" fill="none" stroke="#d29922" stroke-width="1" opacity="0.6"/>
<circle cx="676.7" cy="436.9" r="3" fill="none" stroke="#d29922" stroke-width="1" opacity="0.6"/>
<circle cx="676.1" cy="483.1" r="3" fill="none" stroke="#d29922" stroke-width="1" opacity="0.6"/>
<circle cx="662.5" cy="503.2" r="3" fill="none" stroke="#d29922" stroke-width="1" opacity="0.6"/>
<circle cx="635.4" cy="544.3" r="3" fill="none" stroke="#d29922" stroke-width="1" opacity="0.6"/>
<circle cx="616.9" cy="557.8" r="3" fill="none" stroke="#d29922" stroke-width="1" opacity="0.6"/>
<circle cx="583.7" cy="568.2" r="3" fill="none" stroke="#d29922" stroke-width="1" opacity="0.6"/>
<circle cx="615.7" cy="508.8" r="3" fill="none" stroke="#d29922" stroke-width="1" opacity="0.6"/>
<circle cx="608.3" cy="567.5" r="3" fill="none" stroke="#d29922" stroke-width="1" opacity="0.6"/>
<circle cx="611.6" cy="583.2" r="3" fill="none" stroke="#d29922" stroke-width="1" opacity="0.6"/>
<circle cx="599.3" cy="608.8" r="3" fill="none" stroke="#d29922" stroke-width="1" opacity="0.6"/>
<circle cx="571.6" cy="629.9" r="3" fill="none" stroke="#d29922" stroke-width="1" opacity="0.6"/>
<circle cx="541.5" cy="611.9" r="3" fill="none" stroke="#d29922" stroke-width="1" opacity="0.6"/>
<circle cx="534.8" cy="634.4" r="3" fill="none" stroke="#d29922" stroke-width="1" opacity="0.6"/>
<circle cx="508.6" cy="662.0" r="3" fill="none" stroke="#d29922" stroke-width="1" opacity="0.6"/>
<circle cx="429.5" cy="662.9" r="3" fill="none" stroke="#d29922" stroke-width="1" opacity="0.6"/>
<circle cx="401.1" cy="659.0" r="3" fill="none" stroke="#d29922" stroke-width="1" opacity="0.6"/>
<circle cx="373.6" cy="620.6" r="3" fill="none" stroke="#d29922" stroke-width="1" opacity="0.6"/>
<circle cx="434.3" cy="627.9" r="3" fill="none" stroke="#d29922" stroke-width="1" opacity="0.6"/>
<circle cx="425.4" cy="646.2" r="3" fill="none" stroke="#d29922" stroke-width="1" opacity="0.6"/>
<circle cx="392.1" cy="663.1" r="3" fill="none" stroke="#d29922" stroke-width="1" opacity="0.6"/>
<circle cx="377.2" cy="663.3" r="3" fill="none" stroke="#d29922" stroke-width="1" opacity="0.6"/>
<circle cx="312.6" cy="663.8" r="3" fill="none" stroke="#d29922" stroke-width="1" opacity="0.6"/>
<circle cx="284.7" cy="638.8" r="3" fill="none" stroke="#d29922" stroke-width="1" opacity="0.6"/>
<circle cx="321.7" cy="648.4" r="3" fill="none" stroke="#d29922" stroke-width="1" opacity="0.6"/>
<circle cx="307.3" cy="655.1" r="3" fill="none" stroke="#d29922" stroke-width="1" opacity="0.6"/>
<circle cx="259.0" cy="633.2" r="3" fill="none" stroke="#d29922" stroke-width="1" opacity="0.6"/>
<circle cx="250.0" cy="620.9" r="3" fill="none" stroke="#d29922" stroke-width="1" opacity="0.6"/>
<circle cx="208.4" cy="578.0" r="3" fill="none" stroke="#d29922" stroke-width="1" opacity="0.6"/>
<circle cx="202.6" cy="532.6" r="3" fill="none" stroke="#d29922" stroke-width="1" opacity="0.6"/>
<circle cx="215.5" cy="514.3" r="3" fill="none" stroke="#d29922" stroke-width="1" opacity="0.6"/>
<circle cx="252.1" cy="543.7" r="3" fill="none" stroke="#d29922" stroke-width="1" opacity="0.6"/>
<circle cx="227.1" cy="548.8" r="3" fill="none" stroke="#d29922" stroke-width="1" opacity="0.6"/>
<circle cx="192.6" cy="535.5" r="3" fill="none" stroke="#d29922" stroke-width="1" opacity="0.6"/>
<circle cx="182.7" cy="521.0" r="3" fill="none" stroke="#d29922" stroke-width="1" opacity="0.6"/>
<circle cx="150.1" cy="471.9" r="3" fill="none" stroke="#d29922" stroke-width="1" opacity="0.6"/>
<circle cx="153.9" cy="421.0" r="3" fill="none" stroke="#d29922" stroke-width="1" opacity="0.6"/>
<circle cx="153.5" cy="423.5" r="3" fill="none" stroke="#d29922" stroke-width="1" opacity="0.6"/>
<circle cx="142.9" cy="405.6" r="3" fill="none" stroke="#d29922" stroke-width="1" opacity="0.6"/>
<circle cx="138.8" cy="389.3" r="3" fill="none" stroke="#d29922" stroke-width="1" opacity="0.6"/>
<circle cx="146.3" cy="359.3" r="3" fill="none" stroke="#d29922" stroke-width="1" opacity="0.6"/>
<circle cx="182.4" cy="295.1" r="3" fill="none" stroke="#d29922" stroke-width="1" opacity="0.6"/>
<circle cx="211.1" cy="285.7" r="3" fill="none" stroke="#d29922" stroke-width="1" opacity="0.6"/>
<circle cx="235.6" cy="285.2" r="3" fill="none" stroke="#d29922" stroke-width="1" opacity="0.6"/>
<circle cx="202.3" cy="308.3" r="3" fill="none" stroke="#d29922" stroke-width="1" opacity="0.6"/>
<circle cx="192.3" cy="289.9" r="3" fill="none" stroke="#d29922" stroke-width="1" opacity="0.6"/>
<circle cx="202.0" cy="243.1" r="3" fill="none" stroke="#d29922" stroke-width="1" opacity="0.6"/>
<circle cx="204.4" cy="221.6" r="3" fill="none" stroke="#d29922" stroke-width="1" opacity="0.6"/>
<circle cx="219.3" cy="198.5" r="3" fill="none" stroke="#d29922" stroke-width="1" opacity="0.6"/>
<circle cx="258.1" cy="181.7" r="3" fill="none" stroke="#d29922" stroke-width="1" opacity="0.6"/>
<circle cx="294.6" cy="180.0" r="3" fill="none" stroke="#d29922" stroke-width="1" opacity="0.6"/>
<circle cx="318.2" cy="164.1" r="3" fill="none" stroke="#d29922" stroke-width="1" opacity="0.6"/>
<circle cx="335.7" cy="163.1" r="3" fill="none" stroke="#d29922" stroke-width="1" opacity="0.6"/>
<circle cx="386.7" cy="160.8" r="3" fill="none" stroke="#d29922" stroke-width="1" opacity="0.6"/>
<circle cx="422.1" cy="185.5" r="3" fill="none" stroke="#d29922" stroke-width="1" opacity="0.6"/>
<circle cx="398.5" cy="200.5" r="3" fill="none" stroke="#d29922" stroke-width="1" opacity="0.6"/>
<circle cx="407.9" cy="183.1" r="3" fill="none" stroke="#d29922" stroke-width="1" opacity="0.6"/>
<circle cx="426.1" cy="171.7" r="3" fill="none" stroke="#d29922" stroke-width="1" opacity="0.6"/>
<circle cx="445.1" cy="170.8" r="3" fill="none" stroke="#d29922" stroke-width="1" opacity="0.6"/>
<circle cx="485.8" cy="161.6" r="3" fill="none" stroke="#d29922" stroke-width="1" opacity="0.6"/>
<circle cx="508.5" cy="174.4" r="3" fill="none" stroke="#d29922" stroke-width="1" opacity="0.6"/>
<circle cx="519.1" cy="188.6" r="3" fill="none" stroke="#d29922" stroke-width="1" opacity="0.6"/>
<circle cx="565.6" cy="207.4" r="3" fill="none" stroke="#d29922" stroke-width="1" opacity="0.6"/>
<circle cx="613.3" cy="239.2" r="3" fill="none" stroke="#d29922" stroke-width="1" opacity="0.6"/>
<circle cx="618.2" cy="256.5" r="3" fill="none" stroke="#d29922" stroke-width="1" opacity="0.6"/>
<circle cx="629.0" cy="265.5" r="3" fill="none" stroke="#d29922" stroke-width="1" opacity="0.6"/>
<circle cx="638.1" cy="289.9" r="3" fill="none" stroke="#d29922" stroke-width="1" opacity="0.6"/>
<circle cx="629.1" cy="329.3" r="3" fill="none" stroke="#d29922" stroke-width="1" opacity="0.6"/>
<circle cx="614.4" cy="345.8" r="3" fill="none" stroke="#d29922" stroke-width="1" opacity="0.6"/>
<circle cx="410.0" cy="410.0" r="10" fill="#0d1117" stroke="#58a6ff" stroke-width="2"/>
<circle cx="410.0" cy="410.0" r="4" fill="#58a6ff"/>
<circle r="2.4" fill="#7ee787"><animateMotion dur="2.92s" begin="2.35s" repeatCount="indefinite" path="M383.9,645.3 L377.2,663.3"/></circle>
<circle r="2.4" fill="#f2cc60"><animateMotion dur="2.85s" begin="0.84s" repeatCount="indefinite" path="M608.7,324.6 L614.4,345.8"/></circle>
<circle r="2.4" fill="#79c0ff"><animateMotion dur="3.47s" begin="1.24s" repeatCount="indefinite" path="M611.5,535.5 L616.9,557.8"/></circle>
<circle r="2.4" fill="#7ee787"><animateMotion dur="3.62s" begin="1.3s" repeatCount="indefinite" path="M466.3,321.4 L461.8,255.4"/></circle>
<circle r="2.4" fill="#f2cc60"><animateMotion dur="2.46s" begin="1.82s" repeatCount="indefinite" path="M612.6,318.3 L631.9,319.8"/></circle>
<circle r="2.4" fill="#79c0ff"><animateMotion dur="3.55s" begin="2.28s" repeatCount="indefinite" path="M410.0,410.0 L461.1,501.8"/></circle>
<circle r="2.4" fill="#7ee787"><animateMotion dur="3.61s" begin="1.19s" repeatCount="indefinite" path="M165.2,404.3 L153.5,423.5"/></circle>
<text x="806" y="806" text-anchor="end" font-size="9" fill="#484f58" letter-spacing="1">// circuit_bloom.py — seed:20260716 — spokes:6 — regenerated daily</text>
</svg>