<svg viewBox="0 0 820 820" width="820" height="820" xmlns="http://www.w3.org/2000/svg" font-family="'Fira Code',monospace">
<defs>
<pattern id="g2" width="22" height="22" patternUnits="userSpaceOnUse">
<path d="M 22 0 L 0 0 0 22" fill="none" stroke="#30363d" stroke-width="0.4" opacity="0.3"/>
</pattern>
<radialGradient id="glow" cx="50%" cy="50%" r="50%">
<stop offset="0%" stop-color="#58a6ff" stop-opacity="0.35"/>
<stop offset="100%" stop-color="#58a6ff" stop-opacity="0"/>
</radialGradient>
</defs>
<rect x="0" y="0" width="820" height="820" fill="#0d1117"/>
<rect x="0" y="0" width="820" height="820" fill="url(#g2)"/>
<circle cx="410.0" cy="410.0" r="230" fill="url(#glow)"/>
<line x1="410.0" y1="410.0" x2="514.8" y2="403.9" stroke="#58a6ff" stroke-width="2.60" opacity="1.00" stroke-linecap="round"/>
<line x1="514.8" y1="403.9" x2="571.8" y2="360.2" stroke="#4f9ee0" stroke-width="2.25" opacity="0.90" stroke-linecap="round"/>
<line x1="571.8" y1="360.2" x2="594.8" y2="317.1" stroke="#3fb950" stroke-width="1.90" opacity="0.80" stroke-linecap="round"/>
<line x1="594.8" y1="317.1" x2="588.6" y2="285.4" stroke="#7bc96f" stroke-width="1.55" opacity="0.70" stroke-linecap="round"/>
<line x1="588.6" y1="285.4" x2="580.7" y2="266.4" stroke="#d29922" stroke-width="1.20" opacity="0.60" stroke-linecap="round"/>
<line x1="594.8" y1="317.1" x2="625.7" y2="305.6" stroke="#7bc96f" stroke-width="1.55" opacity="0.70" stroke-linecap="round"/>
<line x1="625.7" y1="305.6" x2="640.0" y2="287.2" stroke="#d29922" stroke-width="1.20" opacity="0.60" stroke-linecap="round"/>
<line x1="625.7" y1="305.6" x2="646.6" y2="307.2" stroke="#d29922" stroke-width="1.20" opacity="0.60" stroke-linecap="round"/>
<line x1="571.8" y1="360.2" x2="620.5" y2="347.6" stroke="#3fb950" stroke-width="1.90" opacity="0.80" stroke-linecap="round"/>
<line x1="620.5" y1="347.6" x2="645.5" y2="321.9" stroke="#7bc96f" stroke-width="1.55" opacity="0.70" stroke-linecap="round"/>
<line x1="645.5" y1="321.9" x2="648.9" y2="298.9" stroke="#d29922" stroke-width="1.20" opacity="0.60" stroke-linecap="round"/>
<line x1="645.5" y1="321.9" x2="670.4" y2="319.5" stroke="#d29922" stroke-width="1.20" opacity="0.60" stroke-linecap="round"/>
<line x1="620.5" y1="347.6" x2="652.4" y2="356.8" stroke="#7bc96f" stroke-width="1.55" opacity="0.70" stroke-linecap="round"/>
<line x1="652.4" y1="356.8" x2="671.7" y2="364.3" stroke="#d29922" stroke-width="1.20" opacity="0.60" stroke-linecap="round"/>
<line x1="514.8" y1="403.9" x2="578.0" y2="431.7" stroke="#4f9ee0" stroke-width="2.25" opacity="0.90" stroke-linecap="round"/>
<line x1="578.0" y1="431.7" x2="622.8" y2="427.9" stroke="#3fb950" stroke-width="1.90" opacity="0.80" stroke-linecap="round"/>
<line x1="622.8" y1="427.9" x2="644.8" y2="407.0" stroke="#7bc96f" stroke-width="1.55" opacity="0.70" stroke-linecap="round"/>
<line x1="644.8" y1="407.0" x2="647.3" y2="387.3" stroke="#d29922" stroke-width="1.20" opacity="0.60" stroke-linecap="round"/>
<line x1="644.8" y1="407.0" x2="663.8" y2="404.8" stroke="#d29922" stroke-width="1.20" opacity="0.60" stroke-linecap="round"/>
<line x1="622.8" y1="427.9" x2="648.2" y2="441.6" stroke="#7bc96f" stroke-width="1.55" opacity="0.70" stroke-linecap="round"/>
<line x1="648.2" y1="441.6" x2="660.9" y2="455.8" stroke="#d29922" stroke-width="1.20" opacity="0.60" stroke-linecap="round"/>
<line x1="578.0" y1="431.7" x2="607.5" y2="469.8" stroke="#3fb950" stroke-width="1.90" opacity="0.80" stroke-linecap="round"/>
<line x1="607.5" y1="469.8" x2="638.2" y2="484.6" stroke="#7bc96f" stroke-width="1.55" opacity="0.70" stroke-linecap="round"/>
<line x1="638.2" y1="484.6" x2="661.8" y2="483.5" stroke="#d29922" stroke-width="1.20" opacity="0.60" stroke-linecap="round"/>
<line x1="638.2" y1="484.6" x2="649.3" y2="506.0" stroke="#d29922" stroke-width="1.20" opacity="0.60" stroke-linecap="round"/>
<line x1="607.5" y1="469.8" x2="612.1" y2="500.9" stroke="#7bc96f" stroke-width="1.55" opacity="0.70" stroke-linecap="round"/>
<line x1="612.1" y1="500.9" x2="626.0" y2="515.6" stroke="#d29922" stroke-width="1.20" opacity="0.60" stroke-linecap="round"/>
<line x1="612.1" y1="500.9" x2="604.5" y2="519.2" stroke="#d29922" stroke-width="1.20" opacity="0.60" stroke-linecap="round"/>
<line x1="410.0" y1="410.0" x2="480.5" y2="487.8" stroke="#58a6ff" stroke-width="2.60" opacity="1.00" stroke-linecap="round"/>
<line x1="480.5" y1="487.8" x2="547.8" y2="520.2" stroke="#4f9ee0" stroke-width="2.25" opacity="0.90" stroke-linecap="round"/>
<line x1="547.8" y1="520.2" x2="597.9" y2="524.3" stroke="#3fb950" stroke-width="1.90" opacity="0.80" stroke-linecap="round"/>
<line x1="597.9" y1="524.3" x2="628.1" y2="512.0" stroke="#7bc96f" stroke-width="1.55" opacity="0.70" stroke-linecap="round"/>
<line x1="628.1" y1="512.0" x2="645.2" y2="497.8" stroke="#d29922" stroke-width="1.20" opacity="0.60" stroke-linecap="round"/>
<line x1="597.9" y1="524.3" x2="626.6" y2="541.0" stroke="#7bc96f" stroke-width="1.55" opacity="0.70" stroke-linecap="round"/>
<line x1="626.6" y1="541.0" x2="648.8" y2="539.6" stroke="#d29922" stroke-width="1.20" opacity="0.60" stroke-linecap="round"/>
<line x1="626.6" y1="541.0" x2="633.9" y2="563.2" stroke="#d29922" stroke-width="1.20" opacity="0.60" stroke-linecap="round"/>
<line x1="547.8" y1="520.2" x2="581.9" y2="558.8" stroke="#3fb950" stroke-width="1.90" opacity="0.80" stroke-linecap="round"/>
<line x1="581.9" y1="558.8" x2="616.9" y2="563.4" stroke="#7bc96f" stroke-width="1.55" opacity="0.70" stroke-linecap="round"/>
<line x1="616.9" y1="563.4" x2="640.2" y2="555.0" stroke="#d29922" stroke-width="1.20" opacity="0.60" stroke-linecap="round"/>
<line x1="616.9" y1="563.4" x2="635.5" y2="577.2" stroke="#d29922" stroke-width="1.20" opacity="0.60" stroke-linecap="round"/>
<line x1="581.9" y1="558.8" x2="586.6" y2="594.4" stroke="#7bc96f" stroke-width="1.55" opacity="0.70" stroke-linecap="round"/>
<line x1="586.6" y1="594.4" x2="582.3" y2="619.1" stroke="#d29922" stroke-width="1.20" opacity="0.60" stroke-linecap="round"/>
<line x1="480.5" y1="487.8" x2="507.3" y2="551.1" stroke="#4f9ee0" stroke-width="2.25" opacity="0.90" stroke-linecap="round"/>
<line x1="507.3" y1="551.1" x2="545.3" y2="574.5" stroke="#3fb950" stroke-width="1.90" opacity="0.80" stroke-linecap="round"/>
<line x1="545.3" y1="574.5" x2="574.5" y2="575.1" stroke="#7bc96f" stroke-width="1.55" opacity="0.70" stroke-linecap="round"/>
<line x1="574.5" y1="575.1" x2="593.5" y2="575.6" stroke="#d29922" stroke-width="1.20" opacity="0.60" stroke-linecap="round"/>
<line x1="545.3" y1="574.5" x2="562.8" y2="600.9" stroke="#7bc96f" stroke-width="1.55" opacity="0.70" stroke-linecap="round"/>
<line x1="562.8" y1="600.9" x2="576.1" y2="615.7" stroke="#d29922" stroke-width="1.20" opacity="0.60" stroke-linecap="round"/>
<line x1="507.3" y1="551.1" x2="497.0" y2="599.5" stroke="#3fb950" stroke-width="1.90" opacity="0.80" stroke-linecap="round"/>
<line x1="497.0" y1="599.5" x2="509.4" y2="628.0" stroke="#7bc96f" stroke-width="1.55" opacity="0.70" stroke-linecap="round"/>
<line x1="509.4" y1="628.0" x2="525.3" y2="640.4" stroke="#d29922" stroke-width="1.20" opacity="0.60" stroke-linecap="round"/>
<line x1="509.4" y1="628.0" x2="507.6" y2="648.4" stroke="#d29922" stroke-width="1.20" opacity="0.60" stroke-linecap="round"/>
<line x1="497.0" y1="599.5" x2="472.3" y2="621.0" stroke="#7bc96f" stroke-width="1.55" opacity="0.70" stroke-linecap="round"/>
<line x1="472.3" y1="621.0" x2="461.3" y2="639.1" stroke="#d29922" stroke-width="1.20" opacity="0.60" stroke-linecap="round"/>
<line x1="410.0" y1="410.0" x2="381.0" y2="510.9" stroke="#58a6ff" stroke-width="2.60" opacity="1.00" stroke-linecap="round"/>
<line x1="381.0" y1="510.9" x2="403.7" y2="572.5" stroke="#4f9ee0" stroke-width="2.25" opacity="0.90" stroke-linecap="round"/>
<line x1="403.7" y1="572.5" x2="436.5" y2="596.6" stroke="#3fb950" stroke-width="1.90" opacity="0.80" stroke-linecap="round"/>
<line x1="436.5" y1="596.6" x2="463.3" y2="597.5" stroke="#7bc96f" stroke-width="1.55" opacity="0.70" stroke-linecap="round"/>
<line x1="463.3" y1="597.5" x2="478.9" y2="589.3" stroke="#d29922" stroke-width="1.20" opacity="0.60" stroke-linecap="round"/>
<line x1="463.3" y1="597.5" x2="477.9" y2="606.4" stroke="#d29922" stroke-width="1.20" opacity="0.60" stroke-linecap="round"/>
<line x1="436.5" y1="596.6" x2="444.3" y2="621.5" stroke="#7bc96f" stroke-width="1.55" opacity="0.70" stroke-linecap="round"/>
<line x1="444.3" y1="621.5" x2="451.3" y2="637.9" stroke="#d29922" stroke-width="1.20" opacity="0.60" stroke-linecap="round"/>
<line x1="403.7" y1="572.5" x2="396.7" y2="616.0" stroke="#3fb950" stroke-width="1.90" opacity="0.80" stroke-linecap="round"/>
<line x1="396.7" y1="616.0" x2="405.2" y2="642.0" stroke="#7bc96f" stroke-width="1.55" opacity="0.70" stroke-linecap="round"/>
<line x1="405.2" y1="642.0" x2="418.7" y2="656.0" stroke="#d29922" stroke-width="1.20" opacity="0.60" stroke-linecap="round"/>
<line x1="405.2" y1="642.0" x2="403.1" y2="659.3" stroke="#d29922" stroke-width="1.20" opacity="0.60" stroke-linecap="round"/>
<line x1="396.7" y1="616.0" x2="382.1" y2="640.0" stroke="#7bc96f" stroke-width="1.55" opacity="0.70" stroke-linecap="round"/>
<line x1="382.1" y1="640.0" x2="382.2" y2="659.6" stroke="#d29922" stroke-width="1.20" opacity="0.60" stroke-linecap="round"/>
<line x1="382.1" y1="640.0" x2="363.9" y2="648.4" stroke="#d29922" stroke-width="1.20" opacity="0.60" stroke-linecap="round"/>
<line x1="381.0" y1="510.9" x2="326.0" y2="555.2" stroke="#4f9ee0" stroke-width="2.25" opacity="0.90" stroke-linecap="round"/>
<line x1="326.0" y1="555.2" x2="310.5" y2="599.8" stroke="#3fb950" stroke-width="1.90" opacity="0.80" stroke-linecap="round"/>
<line x1="310.5" y1="599.8" x2="318.1" y2="631.3" stroke="#7bc96f" stroke-width="1.55" opacity="0.70" stroke-linecap="round"/>
<line x1="318.1" y1="631.3" x2="329.7" y2="649.5" stroke="#d29922" stroke-width="1.20" opacity="0.60" stroke-linecap="round"/>
<line x1="310.5" y1="599.8" x2="285.2" y2="620.3" stroke="#7bc96f" stroke-width="1.55" opacity="0.70" stroke-linecap="round"/>
<line x1="285.2" y1="620.3" x2="266.9" y2="633.3" stroke="#d29922" stroke-width="1.20" opacity="0.60" stroke-linecap="round"/>
<line x1="326.0" y1="555.2" x2="280.8" y2="564.2" stroke="#3fb950" stroke-width="1.90" opacity="0.80" stroke-linecap="round"/>
<line x1="280.8" y1="564.2" x2="259.1" y2="584.2" stroke="#7bc96f" stroke-width="1.55" opacity="0.70" stroke-linecap="round"/>
<line x1="259.1" y1="584.2" x2="241.2" y2="595.4" stroke="#d29922" stroke-width="1.20" opacity="0.60" stroke-linecap="round"/>
<line x1="280.8" y1="564.2" x2="252.1" y2="552.8" stroke="#7bc96f" stroke-width="1.55" opacity="0.70" stroke-linecap="round"/>
<line x1="252.1" y1="552.8" x2="232.9" y2="555.5" stroke="#d29922" stroke-width="1.20" opacity="0.60" stroke-linecap="round"/>
<line x1="252.1" y1="552.8" x2="237.9" y2="536.4" stroke="#d29922" stroke-width="1.20" opacity="0.60" stroke-linecap="round"/>
<line x1="410.0" y1="410.0" x2="318.0" y2="460.5" stroke="#58a6ff" stroke-width="2.60" opacity="1.00" stroke-linecap="round"/>
<line x1="318.0" y1="460.5" x2="274.8" y2="513.0" stroke="#4f9ee0" stroke-width="2.25" opacity="0.90" stroke-linecap="round"/>
<line x1="274.8" y1="513.0" x2="262.2" y2="559.0" stroke="#3fb950" stroke-width="1.90" opacity="0.80" stroke-linecap="round"/>
<line x1="262.2" y1="559.0" x2="271.6" y2="589.3" stroke="#7bc96f" stroke-width="1.55" opacity="0.70" stroke-linecap="round"/>
<line x1="271.6" y1="589.3" x2="289.2" y2="601.4" stroke="#d29922" stroke-width="1.20" opacity="0.60" stroke-linecap="round"/>
<line x1="271.6" y1="589.3" x2="265.1" y2="609.7" stroke="#d29922" stroke-width="1.20" opacity="0.60" stroke-linecap="round"/>
<line x1="262.2" y1="559.0" x2="240.4" y2="580.5" stroke="#7bc96f" stroke-width="1.55" opacity="0.70" stroke-linecap="round"/>
<line x1="240.4" y1="580.5" x2="229.5" y2="598.5" stroke="#d29922" stroke-width="1.20" opacity="0.60" stroke-linecap="round"/>
<line x1="274.8" y1="513.0" x2="232.0" y2="531.1" stroke="#3fb950" stroke-width="1.90" opacity="0.80" stroke-linecap="round"/>
<line x1="232.0" y1="531.1" x2="213.8" y2="555.9" stroke="#7bc96f" stroke-width="1.55" opacity="0.70" stroke-linecap="round"/>
<line x1="213.8" y1="555.9" x2="199.1" y2="568.5" stroke="#d29922" stroke-width="1.20" opacity="0.60" stroke-linecap="round"/>
<line x1="232.0" y1="531.1" x2="201.6" y2="528.8" stroke="#7bc96f" stroke-width="1.55" opacity="0.70" stroke-linecap="round"/>
<line x1="201.6" y1="528.8" x2="183.5" y2="520.7" stroke="#d29922" stroke-width="1.20" opacity="0.60" stroke-linecap="round"/>
<line x1="318.0" y1="460.5" x2="250.1" y2="468.2" stroke="#4f9ee0" stroke-width="2.25" opacity="0.90" stroke-linecap="round"/>
<line x1="250.1" y1="468.2" x2="214.5" y2="491.5" stroke="#3fb950" stroke-width="1.90" opacity="0.80" stroke-linecap="round"/>
<line x1="214.5" y1="491.5" x2="202.4" y2="517.3" stroke="#7bc96f" stroke-width="1.55" opacity="0.70" stroke-linecap="round"/>
<line x1="202.4" y1="517.3" x2="193.9" y2="533.2" stroke="#d29922" stroke-width="1.20" opacity="0.60" stroke-linecap="round"/>
<line x1="214.5" y1="491.5" x2="185.6" y2="493.0" stroke="#7bc96f" stroke-width="1.55" opacity="0.70" stroke-linecap="round"/>
<line x1="185.6" y1="493.0" x2="172.3" y2="506.2" stroke="#d29922" stroke-width="1.20" opacity="0.60" stroke-linecap="round"/>
<line x1="185.6" y1="493.0" x2="169.9" y2="482.5" stroke="#d29922" stroke-width="1.20" opacity="0.60" stroke-linecap="round"/>
<line x1="250.1" y1="468.2" x2="211.6" y2="448.8" stroke="#3fb950" stroke-width="1.90" opacity="0.80" stroke-linecap="round"/>
<line x1="211.6" y1="448.8" x2="181.6" y2="447.0" stroke="#7bc96f" stroke-width="1.55" opacity="0.70" stroke-linecap="round"/>
<line x1="181.6" y1="447.0" x2="160.4" y2="447.4" stroke="#d29922" stroke-width="1.20" opacity="0.60" stroke-linecap="round"/>
<line x1="211.6" y1="448.8" x2="191.5" y2="426.2" stroke="#7bc96f" stroke-width="1.55" opacity="0.70" stroke-linecap="round"/>
<line x1="191.5" y1="426.2" x2="172.9" y2="421.0" stroke="#d29922" stroke-width="1.20" opacity="0.60" stroke-linecap="round"/>
<line x1="191.5" y1="426.2" x2="189.4" y2="405.0" stroke="#d29922" stroke-width="1.20" opacity="0.60" stroke-linecap="round"/>
<line x1="410.0" y1="410.0" x2="317.3" y2="360.7" stroke="#58a6ff" stroke-width="2.60" opacity="1.00" stroke-linecap="round"/>
<line x1="317.3" y1="360.7" x2="244.4" y2="358.8" stroke="#4f9ee0" stroke-width="2.25" opacity="0.90" stroke-linecap="round"/>
<line x1="244.4" y1="358.8" x2="195.7" y2="377.6" stroke="#3fb950" stroke-width="1.90" opacity="0.80" stroke-linecap="round"/>
<line x1="195.7" y1="377.6" x2="170.2" y2="404.4" stroke="#7bc96f" stroke-width="1.55" opacity="0.70" stroke-linecap="round"/>
<line x1="170.2" y1="404.4" x2="148.3" y2="416.7" stroke="#d29922" stroke-width="1.20" opacity="0.60" stroke-linecap="round"/>
<line x1="195.7" y1="377.6" x2="160.1" y2="372.4" stroke="#7bc96f" stroke-width="1.55" opacity="0.70" stroke-linecap="round"/>
<line x1="160.1" y1="372.4" x2="137.3" y2="360.9" stroke="#d29922" stroke-width="1.20" opacity="0.60" stroke-linecap="round"/>
<line x1="244.4" y1="358.8" x2="199.9" y2="334.6" stroke="#3fb950" stroke-width="1.90" opacity="0.80" stroke-linecap="round"/>
<line x1="199.9" y1="334.6" x2="164.0" y2="329.5" stroke="#7bc96f" stroke-width="1.55" opacity="0.70" stroke-linecap="round"/>
<line x1="164.0" y1="329.5" x2="142.0" y2="339.7" stroke="#d29922" stroke-width="1.20" opacity="0.60" stroke-linecap="round"/>
<line x1="164.0" y1="329.5" x2="146.2" y2="311.3" stroke="#d29922" stroke-width="1.20" opacity="0.60" stroke-linecap="round"/>
<line x1="199.9" y1="334.6" x2="176.9" y2="309.2" stroke="#7bc96f" stroke-width="1.55" opacity="0.70" stroke-linecap="round"/>
<line x1="176.9" y1="309.2" x2="155.0" y2="303.4" stroke="#d29922" stroke-width="1.20" opacity="0.60" stroke-linecap="round"/>
<line x1="176.9" y1="309.2" x2="174.7" y2="287.3" stroke="#d29922" stroke-width="1.20" opacity="0.60" stroke-linecap="round"/>
<line x1="317.3" y1="360.7" x2="281.6" y2="302.5" stroke="#4f9ee0" stroke-width="2.25" opacity="0.90" stroke-linecap="round"/>
<line x1="281.6" y1="302.5" x2="243.3" y2="277.9" stroke="#3fb950" stroke-width="1.90" opacity="0.80" stroke-linecap="round"/>
<line x1="243.3" y1="277.9" x2="211.2" y2="276.4" stroke="#7bc96f" stroke-width="1.55" opacity="0.70" stroke-linecap="round"/>
<line x1="211.2" y1="276.4" x2="188.3" y2="274.7" stroke="#d29922" stroke-width="1.20" opacity="0.60" stroke-linecap="round"/>
<line x1="243.3" y1="277.9" x2="232.0" y2="249.1" stroke="#7bc96f" stroke-width="1.55" opacity="0.70" stroke-linecap="round"/>
<line x1="232.0" y1="249.1" x2="217.5" y2="235.7" stroke="#d29922" stroke-width="1.20" opacity="0.60" stroke-linecap="round"/>
<line x1="232.0" y1="249.1" x2="231.7" y2="229.3" stroke="#d29922" stroke-width="1.20" opacity="0.60" stroke-linecap="round"/>
<line x1="281.6" y1="302.5" x2="273.8" y2="259.3" stroke="#3fb950" stroke-width="1.90" opacity="0.80" stroke-linecap="round"/>
<line x1="273.8" y1="259.3" x2="256.6" y2="235.7" stroke="#7bc96f" stroke-width="1.55" opacity="0.70" stroke-linecap="round"/>
<line x1="256.6" y1="235.7" x2="238.7" y2="229.4" stroke="#d29922" stroke-width="1.20" opacity="0.60" stroke-linecap="round"/>
<line x1="256.6" y1="235.7" x2="254.7" y2="216.1" stroke="#d29922" stroke-width="1.20" opacity="0.60" stroke-linecap="round"/>
<line x1="273.8" y1="259.3" x2="283.5" y2="232.1" stroke="#7bc96f" stroke-width="1.55" opacity="0.70" stroke-linecap="round"/>
<line x1="283.5" y1="232.1" x2="294.8" y2="216.7" stroke="#d29922" stroke-width="1.20" opacity="0.60" stroke-linecap="round"/>
<line x1="410.0" y1="410.0" x2="381.1" y2="309.1" stroke="#58a6ff" stroke-width="2.60" opacity="1.00" stroke-linecap="round"/>
<line x1="381.1" y1="309.1" x2="325.2" y2="270.9" stroke="#4f9ee0" stroke-width="2.25" opacity="0.90" stroke-linecap="round"/>
<line x1="325.2" y1="270.9" x2="283.1" y2="265.3" stroke="#3fb950" stroke-width="1.90" opacity="0.80" stroke-linecap="round"/>
<line x1="283.1" y1="265.3" x2="257.2" y2="274.3" stroke="#7bc96f" stroke-width="1.55" opacity="0.70" stroke-linecap="round"/>
<line x1="257.2" y1="274.3" x2="243.7" y2="288.3" stroke="#d29922" stroke-width="1.20" opacity="0.60" stroke-linecap="round"/>
<line x1="257.2" y1="274.3" x2="238.8" y2="272.8" stroke="#d29922" stroke-width="1.20" opacity="0.60" stroke-linecap="round"/>
<line x1="283.1" y1="265.3" x2="260.6" y2="248.9" stroke="#7bc96f" stroke-width="1.55" opacity="0.70" stroke-linecap="round"/>
<line x1="260.6" y1="248.9" x2="242.7" y2="243.2" stroke="#d29922" stroke-width="1.20" opacity="0.60" stroke-linecap="round"/>
<line x1="260.6" y1="248.9" x2="251.7" y2="233.8" stroke="#d29922" stroke-width="1.20" opacity="0.60" stroke-linecap="round"/>
<line x1="325.2" y1="270.9" x2="300.0" y2="233.2" stroke="#3fb950" stroke-width="1.90" opacity="0.80" stroke-linecap="round"/>
<line x1="300.0" y1="233.2" x2="273.7" y2="218.3" stroke="#7bc96f" stroke-width="1.55" opacity="0.70" stroke-linecap="round"/>
<line x1="273.7" y1="218.3" x2="252.8" y2="215.3" stroke="#d29922" stroke-width="1.20" opacity="0.60" stroke-linecap="round"/>
<line x1="273.7" y1="218.3" x2="260.5" y2="202.2" stroke="#d29922" stroke-width="1.20" opacity="0.60" stroke-linecap="round"/>
<line x1="300.0" y1="233.2" x2="293.8" y2="205.3" stroke="#7bc96f" stroke-width="1.55" opacity="0.70" stroke-linecap="round"/>
<line x1="293.8" y1="205.3" x2="280.1" y2="190.6" stroke="#d29922" stroke-width="1.20" opacity="0.60" stroke-linecap="round"/>
<line x1="293.8" y1="205.3" x2="300.8" y2="187.8" stroke="#d29922" stroke-width="1.20" opacity="0.60" stroke-linecap="round"/>
<line x1="381.1" y1="309.1" x2="402.6" y2="237.0" stroke="#4f9ee0" stroke-width="2.25" opacity="0.90" stroke-linecap="round"/>
<line x1="402.6" y1="237.0" x2="398.2" y2="189.6" stroke="#3fb950" stroke-width="1.90" opacity="0.80" stroke-linecap="round"/>
<line x1="398.2" y1="189.6" x2="377.2" y2="163.0" stroke="#7bc96f" stroke-width="1.55" opacity="0.70" stroke-linecap="round"/>
<line x1="377.2" y1="163.0" x2="357.0" y2="153.6" stroke="#d29922" stroke-width="1.20" opacity="0.60" stroke-linecap="round"/>
<line x1="377.2" y1="163.0" x2="369.5" y2="140.1" stroke="#d29922" stroke-width="1.20" opacity="0.60" stroke-linecap="round"/>
<line x1="398.2" y1="189.6" x2="409.4" y2="158.7" stroke="#7bc96f" stroke-width="1.55" opacity="0.70" stroke-linecap="round"/>
<line x1="409.4" y1="158.7" x2="400.9" y2="137.9" stroke="#d29922" stroke-width="1.20" opacity="0.60" stroke-linecap="round"/>
<line x1="409.4" y1="158.7" x2="428.6" y2="146.4" stroke="#d29922" stroke-width="1.20" opacity="0.60" stroke-linecap="round"/>
<line x1="402.6" y1="237.0" x2="431.9" y2="200.4" stroke="#3fb950" stroke-width="1.90" opacity="0.80" stroke-linecap="round"/>
<line x1="431.9" y1="200.4" x2="440.3" y2="168.1" stroke="#7bc96f" stroke-width="1.55" opacity="0.70" stroke-linecap="round"/>
<line x1="440.3" y1="168.1" x2="449.8" y2="148.4" stroke="#d29922" stroke-width="1.20" opacity="0.60" stroke-linecap="round"/>
<line x1="431.9" y1="200.4" x2="461.1" y2="188.1" stroke="#7bc96f" stroke-width="1.55" opacity="0.70" stroke-linecap="round"/>
<line x1="461.1" y1="188.1" x2="471.9" y2="170.5" stroke="#d29922" stroke-width="1.20" opacity="0.60" stroke-linecap="round"/>
<line x1="461.1" y1="188.1" x2="482.8" y2="192.8" stroke="#d29922" stroke-width="1.20" opacity="0.60" stroke-linecap="round"/>
<line x1="410.0" y1="410.0" x2="476.2" y2="328.5" stroke="#58a6ff" stroke-width="2.60" opacity="1.00" stroke-linecap="round"/>
<line x1="476.2" y1="328.5" x2="483.9" y2="255.5" stroke="#4f9ee0" stroke-width="2.25" opacity="0.90" stroke-linecap="round"/>
<line x1="483.9" y1="255.5" x2="459.9" y2="213.7" stroke="#3fb950" stroke-width="1.90" opacity="0.80" stroke-linecap="round"/>
<line x1="459.9" y1="213.7" x2="430.6" y2="197.2" stroke="#7bc96f" stroke-width="1.55" opacity="0.70" stroke-linecap="round"/>
<line x1="430.6" y1="197.2" x2="407.8" y2="198.2" stroke="#d29922" stroke-width="1.20" opacity="0.60" stroke-linecap="round"/>
<line x1="430.6" y1="197.2" x2="421.8" y2="176.6" stroke="#d29922" stroke-width="1.20" opacity="0.60" stroke-linecap="round"/>
<line x1="459.9" y1="213.7" x2="462.0" y2="179.5" stroke="#7bc96f" stroke-width="1.55" opacity="0.70" stroke-linecap="round"/>
<line x1="462.0" y1="179.5" x2="467.2" y2="156.1" stroke="#d29922" stroke-width="1.20" opacity="0.60" stroke-linecap="round"/>
<line x1="483.9" y1="255.5" x2="512.8" y2="214.6" stroke="#3fb950" stroke-width="1.90" opacity="0.80" stroke-linecap="round"/>
<line x1="512.8" y1="214.6" x2="520.7" y2="183.4" stroke="#7bc96f" stroke-width="1.55" opacity="0.70" stroke-linecap="round"/>
<line x1="520.7" y1="183.4" x2="520.9" y2="162.9" stroke="#d29922" stroke-width="1.20" opacity="0.60" stroke-linecap="round"/>
<line x1="512.8" y1="214.6" x2="542.7" y2="195.3" stroke="#7bc96f" stroke-width="1.55" opacity="0.70" stroke-linecap="round"/>
<line x1="542.7" y1="195.3" x2="561.7" y2="183.7" stroke="#d29922" stroke-width="1.20" opacity="0.60" stroke-linecap="round"/>
<line x1="476.2" y1="328.5" x2="544.9" y2="305.9" stroke="#4f9ee0" stroke-width="2.25" opacity="0.90" stroke-linecap="round"/>
<line x1="544.9" y1="305.9" x2="574.3" y2="271.5" stroke="#3fb950" stroke-width="1.90" opacity="0.80" stroke-linecap="round"/>
<line x1="574.3" y1="271.5" x2="581.9" y2="240.5" stroke="#7bc96f" stroke-width="1.55" opacity="0.70" stroke-linecap="round"/>
<line x1="581.9" y1="240.5" x2="576.6" y2="218.1" stroke="#d29922" stroke-width="1.20" opacity="0.60" stroke-linecap="round"/>
<line x1="581.9" y1="240.5" x2="595.1" y2="223.8" stroke="#d29922" stroke-width="1.20" opacity="0.60" stroke-linecap="round"/>
<line x1="574.3" y1="271.5" x2="603.8" y2="262.3" stroke="#7bc96f" stroke-width="1.55" opacity="0.70" stroke-linecap="round"/>
<line x1="603.8" y1="262.3" x2="619.1" y2="248.1" stroke="#d29922" stroke-width="1.20" opacity="0.60" stroke-linecap="round"/>
<line x1="603.8" y1="262.3" x2="624.2" y2="264.8" stroke="#d29922" stroke-width="1.20" opacity="0.60" stroke-linecap="round"/>
<line x1="544.9" y1="305.9" x2="590.5" y2="314.4" stroke="#3fb950" stroke-width="1.90" opacity="0.80" stroke-linecap="round"/>
<line x1="590.5" y1="314.4" x2="618.1" y2="304.3" stroke="#7bc96f" stroke-width="1.55" opacity="0.70" stroke-linecap="round"/>
<line x1="618.1" y1="304.3" x2="637.5" y2="302.4" stroke="#d29922" stroke-width="1.20" opacity="0.60" stroke-linecap="round"/>
<line x1="590.5" y1="314.4" x2="615.1" y2="333.8" stroke="#7bc96f" stroke-width="1.55" opacity="0.70" stroke-linecap="round"/>
<line x1="615.1" y1="333.8" x2="630.3" y2="349.2" stroke="#d29922" stroke-width="1.20" opacity="0.60" stroke-linecap="round"/>
<circle cx="514.8" cy="403.9" r="2.60" fill="#58a6ff" opacity="0.85"/>
<circle cx="571.8" cy="360.2" r="2.30" fill="#4f9ee0" opacity="0.85"/>
<circle cx="594.8" cy="317.1" r="2.00" fill="#3fb950" opacity="0.85"/>
<circle cx="588.6" cy="285.4" r="1.70" fill="#7bc96f" opacity="0.85"/>
<circle cx="625.7" cy="305.6" r="1.70" fill="#7bc96f" opacity="0.85"/>
<circle cx="620.5" cy="347.6" r="2.00" fill="#3fb950" opacity="0.85"/>
<circle cx="645.5" cy="321.9" r="1.70" fill="#7bc96f" opacity="0.85"/>
<circle cx="652.4" cy="356.8" r="1.70" fill="#7bc96f" opacity="0.85"/>
<circle cx="578.0" cy="431.7" r="2.30" fill="#4f9ee0" opacity="0.85"/>
<circle cx="622.8" cy="427.9" r="2.00" fill="#3fb950" opacity="0.85"/>
<circle cx="644.8" cy="407.0" r="1.70" fill="#7bc96f" opacity="0.85"/>
<circle cx="648.2" cy="441.6" r="1.70" fill="#7bc96f" opacity="0.85"/>
<circle cx="607.5" cy="469.8" r="2.00" fill="#3fb950" opacity="0.85"/>
<circle cx="638.2" cy="484.6" r="1.70" fill="#7bc96f" opacity="0.85"/>
<circle cx="612.1" cy="500.9" r="1.70" fill="#7bc96f" opacity="0.85"/>
<circle cx="480.5" cy="487.8" r="2.60" fill="#58a6ff" opacity="0.85"/>
<circle cx="547.8" cy="520.2" r="2.30" fill="#4f9ee0" opacity="0.85"/>
<circle cx="597.9" cy="524.3" r="2.00" fill="#3fb950" opacity="0.85"/>
<circle cx="628.1" cy="512.0" r="1.70" fill="#7bc96f" opacity="0.85"/>
<circle cx="626.6" cy="541.0" r="1.70" fill="#7bc96f" opacity="0.85"/>
<circle cx="581.9" cy="558.8" r="2.00" fill="#3fb950" opacity="0.85"/>
<circle cx="616.9" cy="563.4" r="1.70" fill="#7bc96f" opacity="0.85"/>
<circle cx="586.6" cy="594.4" r="1.70" fill="#7bc96f" opacity="0.85"/>
<circle cx="507.3" cy="551.1" r="2.30" fill="#4f9ee0" opacity="0.85"/>
<circle cx="545.3" cy="574.5" r="2.00" fill="#3fb950" opacity="0.85"/>
<circle cx="574.5" cy="575.1" r="1.70" fill="#7bc96f" opacity="0.85"/>
<circle cx="562.8" cy="600.9" r="1.70" fill="#7bc96f" opacity="0.85"/>
<circle cx="497.0" cy="599.5" r="2.00" fill="#3fb950" opacity="0.85"/>
<circle cx="509.4" cy="628.0" r="1.70" fill="#7bc96f" opacity="0.85"/>
<circle cx="472.3" cy="621.0" r="1.70" fill="#7bc96f" opacity="0.85"/>
<circle cx="381.0" cy="510.9" r="2.60" fill="#58a6ff" opacity="0.85"/>
<circle cx="403.7" cy="572.5" r="2.30" fill="#4f9ee0" opacity="0.85"/>
<circle cx="436.5" cy="596.6" r="2.00" fill="#3fb950" opacity="0.85"/>
<circle cx="463.3" cy="597.5" r="1.70" fill="#7bc96f" opacity="0.85"/>
<circle cx="444.3" cy="621.5" r="1.70" fill="#7bc96f" opacity="0.85"/>
<circle cx="396.7" cy="616.0" r="2.00" fill="#3fb950" opacity="0.85"/>
<circle cx="405.2" cy="642.0" r="1.70" fill="#7bc96f" opacity="0.85"/>
<circle cx="382.1" cy="640.0" r="1.70" fill="#7bc96f" opacity="0.85"/>
<circle cx="326.0" cy="555.2" r="2.30" fill="#4f9ee0" opacity="0.85"/>
<circle cx="310.5" cy="599.8" r="2.00" fill="#3fb950" opacity="0.85"/>
<circle cx="318.1" cy="631.3" r="1.70" fill="#7bc96f" opacity="0.85"/>
<circle cx="285.2" cy="620.3" r="1.70" fill="#7bc96f" opacity="0.85"/>
<circle cx="280.8" cy="564.2" r="2.00" fill="#3fb950" opacity="0.85"/>
<circle cx="259.1" cy="584.2" r="1.70" fill="#7bc96f" opacity="0.85"/>
<circle cx="252.1" cy="552.8" r="1.70" fill="#7bc96f" opacity="0.85"/>
<circle cx="318.0" cy="460.5" r="2.60" fill="#58a6ff" opacity="0.85"/>
<circle cx="274.8" cy="513.0" r="2.30" fill="#4f9ee0" opacity="0.85"/>
<circle cx="262.2" cy="559.0" r="2.00" fill="#3fb950" opacity="0.85"/>
<circle cx="271.6" cy="589.3" r="1.70" fill="#7bc96f" opacity="0.85"/>
<circle cx="240.4" cy="580.5" r="1.70" fill="#7bc96f" opacity="0.85"/>
<circle cx="232.0" cy="531.1" r="2.00" fill="#3fb950" opacity="0.85"/>
<circle cx="213.8" cy="555.9" r="1.70" fill="#7bc96f" opacity="0.85"/>
<circle cx="201.6" cy="528.8" r="1.70" fill="#7bc96f" opacity="0.85"/>
<circle cx="250.1" cy="468.2" r="2.30" fill="#4f9ee0" opacity="0.85"/>
<circle cx="214.5" cy="491.5" r="2.00" fill="#3fb950" opacity="0.85"/>
<circle cx="202.4" cy="517.3" r="1.70" fill="#7bc96f" opacity="0.85"/>
<circle cx="185.6" cy="493.0" r="1.70" fill="#7bc96f" opacity="0.85"/>
<circle cx="211.6" cy="448.8" r="2.00" fill="#3fb950" opacity="0.85"/>
<circle cx="181.6" cy="447.0" r="1.70" fill="#7bc96f" opacity="0.85"/>
<circle cx="191.5" cy="426.2" r="1.70" fill="#7bc96f" opacity="0.85"/>
<circle cx="317.3" cy="360.7" r="2.60" fill="#58a6ff" opacity="0.85"/>
<circle cx="244.4" cy="358.8" r="2.30" fill="#4f9ee0" opacity="0.85"/>
<circle cx="195.7" cy="377.6" r="2.00" fill="#3fb950" opacity="0.85"/>
<circle cx="170.2" cy="404.4" r="1.70" fill="#7bc96f" opacity="0.85"/>
<circle cx="160.1" cy="372.4" r="1.70" fill="#7bc96f" opacity="0.85"/>
<circle cx="199.9" cy="334.6" r="2.00" fill="#3fb950" opacity="0.85"/>
<circle cx="164.0" cy="329.5" r="1.70" fill="#7bc96f" opacity="0.85"/>
<circle cx="176.9" cy="309.2" r="1.70" fill="#7bc96f" opacity="0.85"/>
<circle cx="281.6" cy="302.5" r="2.30" fill="#4f9ee0" opacity="0.85"/>
<circle cx="243.3" cy="277.9" r="2.00" fill="#3fb950" opacity="0.85"/>
<circle cx="211.2" cy="276.4" r="1.70" fill="#7bc96f" opacity="0.85"/>
<circle cx="232.0" cy="249.1" r="1.70" fill="#7bc96f" opacity="0.85"/>
<circle cx="273.8" cy="259.3" r="2.00" fill="#3fb950" opacity="0.85"/>
<circle cx="256.6" cy="235.7" r="1.70" fill="#7bc96f" opacity="0.85"/>
<circle cx="283.5" cy="232.1" r="1.70" fill="#7bc96f" opacity="0.85"/>
<circle cx="381.1" cy="309.1" r="2.60" fill="#58a6ff" opacity="0.85"/>
<circle cx="325.2" cy="270.9" r="2.30" fill="#4f9ee0" opacity="0.85"/>
<circle cx="283.1" cy="265.3" r="2.00" fill="#3fb950" opacity="0.85"/>
<circle cx="257.2" cy="274.3" r="1.70" fill="#7bc96f" opacity="0.85"/>
<circle cx="260.6" cy="248.9" r="1.70" fill="#7bc96f" opacity="0.85"/>
<circle cx="300.0" cy="233.2" r="2.00" fill="#3fb950" opacity="0.85"/>
<circle cx="273.7" cy="218.3" r="1.70" fill="#7bc96f" opacity="0.85"/>
<circle cx="293.8" cy="205.3" r="1.70" fill="#7bc96f" opacity="0.85"/>
<circle cx="402.6" cy="237.0" r="2.30" fill="#4f9ee0" opacity="0.85"/>
<circle cx="398.2" cy="189.6" r="2.00" fill="#3fb950" opacity="0.85"/>
<circle cx="377.2" cy="163.0" r="1.70" fill="#7bc96f" opacity="0.85"/>
<circle cx="409.4" cy="158.7" r="1.70" fill="#7bc96f" opacity="0.85"/>
<circle cx="431.9" cy="200.4" r="2.00" fill="#3fb950" opacity="0.85"/>
<circle cx="440.3" cy="168.1" r="1.70" fill="#7bc96f" opacity="0.85"/>
<circle cx="461.1" cy="188.1" r="1.70" fill="#7bc96f" opacity="0.85"/>
<circle cx="476.2" cy="328.5" r="2.60" fill="#58a6ff" opacity="0.85"/>
<circle cx="483.9" cy="255.5" r="2.30" fill="#4f9ee0" opacity="0.85"/>
<circle cx="459.9" cy="213.7" r="2.00" fill="#3fb950" opacity="0.85"/>
<circle cx="430.6" cy="197.2" r="1.70" fill="#7bc96f" opacity="0.85"/>
<circle cx="462.0" cy="179.5" r="1.70" fill="#7bc96f" opacity="0.85"/>
<circle cx="512.8" cy="214.6" r="2.00" fill="#3fb950" opacity="0.85"/>
<circle cx="520.7" cy="183.4" r="1.70" fill="#7bc96f" opacity="0.85"/>
<circle cx="542.7" cy="195.3" r="1.70" fill="#7bc96f" opacity="0.85"/>
<circle cx="544.9" cy="305.9" r="2.30" fill="#4f9ee0" opacity="0.85"/>
<circle cx="574.3" cy="271.5" r="2.00" fill="#3fb950" opacity="0.85"/>
<circle cx="581.9" cy="240.5" r="1.70" fill="#7bc96f" opacity="0.85"/>
<circle cx="603.8" cy="262.3" r="1.70" fill="#7bc96f" opacity="0.85"/>
<circle cx="590.5" cy="314.4" r="2.00" fill="#3fb950" opacity="0.85"/>
<circle cx="618.1" cy="304.3" r="1.70" fill="#7bc96f" opacity="0.85"/>
<circle cx="615.1" cy="333.8" r="1.70" fill="#7bc96f" opacity="0.85"/>
<circle cx="580.7" cy="266.4" r="3" fill="none" stroke="#d29922" stroke-width="1" opacity="0.6"/>
<circle cx="640.0" cy="287.2" r="3" fill="none" stroke="#d29922" stroke-width="1" opacity="0.6"/>
<circle cx="646.6" cy="307.2" r="3" fill="none" stroke="#d29922" stroke-width="1" opacity="0.6"/>
<circle cx="648.9" cy="298.9" r="3" fill="none" stroke="#d29922" stroke-width="1" opacity="0.6"/>
<circle cx="670.4" cy="319.5" r="3" fill="none" stroke="#d29922" stroke-width="1" opacity="0.6"/>
<circle cx="671.7" cy="364.3" r="3" fill="none" stroke="#d29922" stroke-width="1" opacity="0.6"/>
<circle cx="647.3" cy="387.3" r="3" fill="none" stroke="#d29922" stroke-width="1" opacity="0.6"/>
<circle cx="663.8" cy="404.8" r="3" fill="none" stroke="#d29922" stroke-width="1" opacity="0.6"/>
<circle cx="660.9" cy="455.8" r="3" fill="none" stroke="#d29922" stroke-width="1" opacity="0.6"/>
<circle cx="661.8" cy="483.5" r="3" fill="none" stroke="#d29922" stroke-width="1" opacity="0.6"/>
<circle cx="649.3" cy="506.0" r="3" fill="none" stroke="#d29922" stroke-width="1" opacity="0.6"/>
<circle cx="626.0" cy="515.6" r="3" fill="none" stroke="#d29922" stroke-width="1" opacity="0.6"/>
<circle cx="604.5" cy="519.2" r="3" fill="none" stroke="#d29922" stroke-width="1" opacity="0.6"/>
<circle cx="645.2" cy="497.8" r="3" fill="none" stroke="#d29922" stroke-width="1" opacity="0.6"/>
<circle cx="648.8" cy="539.6" r="3" fill="none" stroke="#d29922" stroke-width="1" opacity="0.6"/>
<circle cx="633.9" cy="563.2" r="3" fill="none" stroke="#d29922" stroke-width="1" opacity="0.6"/>
<circle cx="640.2" cy="555.0" r="3" fill="none" stroke="#d29922" stroke-width="1" opacity="0.6"/>
<circle cx="635.5" cy="577.2" r="3" fill="none" stroke="#d29922" stroke-width="1" opacity="0.6"/>
<circle cx="582.3" cy="619.1" r="3" fill="none" stroke="#d29922" stroke-width="1" opacity="0.6"/>
<circle cx="593.5" cy="575.6" r="3" fill="none" stroke="#d29922" stroke-width="1" opacity="0.6"/>
<circle cx="576.1" cy="615.7" r="3" fill="none" stroke="#d29922" stroke-width="1" opacity="0.6"/>
<circle cx="525.3" cy="640.4" r="3" fill="none" stroke="#d29922" stroke-width="1" opacity="0.6"/>
<circle cx="507.6" cy="648.4" r="3" fill="none" stroke="#d29922" stroke-width="1" opacity="0.6"/>
<circle cx="461.3" cy="639.1" r="3" fill="none" stroke="#d29922" stroke-width="1" opacity="0.6"/>
<circle cx="478.9" cy="589.3" r="3" fill="none" stroke="#d29922" stroke-width="1" opacity="0.6"/>
<circle cx="477.9" cy="606.4" r="3" fill="none" stroke="#d29922" stroke-width="1" opacity="0.6"/>
<circle cx="451.3" cy="637.9" r="3" fill="none" stroke="#d29922" stroke-width="1" opacity="0.6"/>
<circle cx="418.7" cy="656.0" r="3" fill="none" stroke="#d29922" stroke-width="1" opacity="0.6"/>
<circle cx="403.1" cy="659.3" r="3" fill="none" stroke="#d29922" stroke-width="1" opacity="0.6"/>
<circle cx="382.2" cy="659.6" r="3" fill="none" stroke="#d29922" stroke-width="1" opacity="0.6"/>
<circle cx="363.9" cy="648.4" r="3" fill="none" stroke="#d29922" stroke-width="1" opacity="0.6"/>
<circle cx="329.7" cy="649.5" r="3" fill="none" stroke="#d29922" stroke-width="1" opacity="0.6"/>
<circle cx="266.9" cy="633.3" r="3" fill="none" stroke="#d29922" stroke-width="1" opacity="0.6"/>
<circle cx="241.2" cy="595.4" r="3" fill="none" stroke="#d29922" stroke-width="1" opacity="0.6"/>
<circle cx="232.9" cy="555.5" r="3" fill="none" stroke="#d29922" stroke-width="1" opacity="0.6"/>
<circle cx="237.9" cy="536.4" r="3" fill="none" stroke="#d29922" stroke-width="1" opacity="0.6"/>
<circle cx="289.2" cy="601.4" r="3" fill="none" stroke="#d29922" stroke-width="1" opacity="0.6"/>
<circle cx="265.1" cy="609.7" r="3" fill="none" stroke="#d29922" stroke-width="1" opacity="0.6"/>
<circle cx="229.5" cy="598.5" r="3" fill="none" stroke="#d29922" stroke-width="1" opacity="0.6"/>
<circle cx="199.1" cy="568.5" r="3" fill="none" stroke="#d29922" stroke-width="1" opacity="0.6"/>
<circle cx="183.5" cy="520.7" r="3" fill="none" stroke="#d29922" stroke-width="1" opacity="0.6"/>
<circle cx="193.9" cy="533.2" r="3" fill="none" stroke="#d29922" stroke-width="1" opacity="0.6"/>
<circle cx="172.3" cy="506.2" r="3" fill="none" stroke="#d29922" stroke-width="1" opacity="0.6"/>
<circle cx="169.9" cy="482.5" r="3" fill="none" stroke="#d29922" stroke-width="1" opacity="0.6"/>
<circle cx="160.4" cy="447.4" r="3" fill="none" stroke="#d29922" stroke-width="1" opacity="0.6"/>
<circle cx="172.9" cy="421.0" r="3" fill="none" stroke="#d29922" stroke-width="1" opacity="0.6"/>
<circle cx="189.4" cy="405.0" r="3" fill="none" stroke="#d29922" stroke-width="1" opacity="0.6"/>
<circle cx="148.3" cy="416.7" r="3" fill="none" stroke="#d29922" stroke-width="1" opacity="0.6"/>
<circle cx="137.3" cy="360.9" r="3" fill="none" stroke="#d29922" stroke-width="1" opacity="0.6"/>
<circle cx="142.0" cy="339.7" r="3" fill="none" stroke="#d29922" stroke-width="1" opacity="0.6"/>
<circle cx="146.2" cy="311.3" r="3" fill="none" stroke="#d29922" stroke-width="1" opacity="0.6"/>
<circle cx="155.0" cy="303.4" r="3" fill="none" stroke="#d29922" stroke-width="1" opacity="0.6"/>
<circle cx="174.7" cy="287.3" r="3" fill="none" stroke="#d29922" stroke-width="1" opacity="0.6"/>
<circle cx="188.3" cy="274.7" r="3" fill="none" stroke="#d29922" stroke-width="1" opacity="0.6"/>
<circle cx="217.5" cy="235.7" r="3" fill="none" stroke="#d29922" stroke-width="1" opacity="0.6"/>
<circle cx="231.7" cy="229.3" r="3" fill="none" stroke="#d29922" stroke-width="1" opacity="0.6"/>
<circle cx="238.7" cy="229.4" r="3" fill="none" stroke="#d29922" stroke-width="1" opacity="0.6"/>
<circle cx="254.7" cy="216.1" r="3" fill="none" stroke="#d29922" stroke-width="1" opacity="0.6"/>
<circle cx="294.8" cy="216.7" r="3" fill="none" stroke="#d29922" stroke-width="1" opacity="0.6"/>
<circle cx="243.7" cy="288.3" r="3" fill="none" stroke="#d29922" stroke-width="1" opacity="0.6"/>
<circle cx="238.8" cy="272.8" r="3" fill="none" stroke="#d29922" stroke-width="1" opacity="0.6"/>
<circle cx="242.7" cy="243.2" r="3" fill="none" stroke="#d29922" stroke-width="1" opacity="0.6"/>
<circle cx="251.7" cy="233.8" r="3" fill="none" stroke="#d29922" stroke-width="1" opacity="0.6"/>
<circle cx="252.8" cy="215.3" r="3" fill="none" stroke="#d29922" stroke-width="1" opacity="0.6"/>
<circle cx="260.5" cy="202.2" r="3" fill="none" stroke="#d29922" stroke-width="1" opacity="0.6"/>
<circle cx="280.1" cy="190.6" r="3" fill="none" stroke="#d29922" stroke-width="1" opacity="0.6"/>
<circle cx="300.8" cy="187.8" r="3" fill="none" stroke="#d29922" stroke-width="1" opacity="0.6"/>
<circle cx="357.0" cy="153.6" r="3" fill="none" stroke="#d29922" stroke-width="1" opacity="0.6"/>
<circle cx="369.5" cy="140.1" r="3" fill="none" stroke="#d29922" stroke-width="1" opacity="0.6"/>
<circle cx="400.9" cy="137.9" r="3" fill="none" stroke="#d29922" stroke-width="1" opacity="0.6"/>
<circle cx="428.6" cy="146.4" r="3" fill="none" stroke="#d29922" stroke-width="1" opacity="0.6"/>
<circle cx="449.8" cy="148.4" r="3" fill="none" stroke="#d29922" stroke-width="1" opacity="0.6"/>
<circle cx="471.9" cy="170.5" r="3" fill="none" stroke="#d29922" stroke-width="1" opacity="0.6"/>
<circle cx="482.8" cy="192.8" r="3" fill="none" stroke="#d29922" stroke-width="1" opacity="0.6"/>
<circle cx="407.8" cy="198.2" r="3" fill="none" stroke="#d29922" stroke-width="1" opacity="0.6"/>
<circle cx="421.8" cy="176.6" r="3" fill="none" stroke="#d29922" stroke-width="1" opacity="0.6"/>
<circle cx="467.2" cy="156.1" r="3" fill="none" stroke="#d29922" stroke-width="1" opacity="0.6"/>
<circle cx="520.9" cy="162.9" r="3" fill="none" stroke="#d29922" stroke-width="1" opacity="0.6"/>
<circle cx="561.7" cy="183.7" r="3" fill="none" stroke="#d29922" stroke-width="1" opacity="0.6"/>
<circle cx="576.6" cy="218.1" r="3" fill="none" stroke="#d29922" stroke-width="1" opacity="0.6"/>
<circle cx="595.1" cy="223.8" r="3" fill="none" stroke="#d29922" stroke-width="1" opacity="0.6"/>
<circle cx="619.1" cy="248.1" r="3" fill="none" stroke="#d29922" stroke-width="1" opacity="0.6"/>
<circle cx="624.2" cy="264.8" r="3" fill="none" stroke="#d29922" stroke-width="1" opacity="0.6"/>
<circle cx="637.5" cy="302.4" r="3" fill="none" stroke="#d29922" stroke-width="1" opacity="0.6"/>
<circle cx="630.3" cy="349.2" r="3" fill="none" stroke="#d29922" stroke-width="1" opacity="0.6"/>
<circle cx="410.0" cy="410.0" r="10" fill="#0d1117" stroke="#58a6ff" stroke-width="2"/>
<circle cx="410.0" cy="410.0" r="4" fill="#58a6ff"/>
<circle r="2.4" fill="#7ee787"><animateMotion dur="2.57s" begin="1.97s" repeatCount="indefinite" path="M243.3,277.9 L211.2,276.4"/></circle>
<circle r="2.4" fill="#f2cc60"><animateMotion dur="3.78s" begin="1.4s" repeatCount="indefinite" path="M430.6,197.2 L421.8,176.6"/></circle>
<circle r="2.4" fill="#79c0ff"><animateMotion dur="2.99s" begin="1.28s" repeatCount="indefinite" path="M581.9,558.8 L616.9,563.4"/></circle>
<circle r="2.4" fill="#7ee787"><animateMotion dur="2.8s" begin="0.24s" repeatCount="indefinite" path="M381.0,510.9 L403.7,572.5"/></circle>
<circle r="2.4" fill="#f2cc60"><animateMotion dur="2.23s" begin="1.33s" repeatCount="indefinite" path="M476.2,328.5 L544.9,305.9"/></circle>
<circle r="2.4" fill="#79c0ff"><animateMotion dur="2.25s" begin="0.46s" repeatCount="indefinite" path="M274.8,513.0 L262.2,559.0"/></circle>
<circle r="2.4" fill="#7ee787"><animateMotion dur="3.97s" begin="1.86s" repeatCount="indefinite" path="M410.0,410.0 L476.2,328.5"/></circle>
<text x="806" y="806" text-anchor="end" font-size="9" fill="#484f58" letter-spacing="1">// circuit_bloom.py — seed:20260722 — spokes:7 — regenerated daily</text>
</svg>